G04 #@! TF.FileFunction,Soldermask,Bot*
%FSLAX46Y46*%
G04 Gerber Fmt 4.6, Leading zero omitted, Abs format (unit mm)*
G04 Created by KiCad (PCBNEW 4.0.7) date 05/20/20 23:40:47*
%MOMM*%
%LPD*%
G01*
G04 APERTURE LIST*
%ADD10C,0.100000*%
%ADD11R,4.400000X1.900000*%
%ADD12R,2.400000X2.400000*%
%ADD13R,5.480000X2.900000*%
%ADD14R,3.900000X3.900000*%
%ADD15C,2.900000*%
%ADD16O,1.400000X5.400000*%
%ADD17O,3.400000X1.400000*%
%ADD18O,5.400000X2.400000*%
%ADD19O,1.400000X3.400000*%
%ADD20O,5.400000X3.400000*%
%ADD21O,4.900000X4.900000*%
%ADD22O,3.900000X1.400000*%
%ADD23R,2.900000X5.480000*%
%ADD24R,2.100000X2.100000*%
%ADD25O,2.100000X2.100000*%
G04 APERTURE END LIST*
D10*
D11*
X104900000Y-41050000D03*
D12*
X153775000Y-34325000D03*
X142325000Y-34300000D03*
X146175000Y-34275000D03*
X149825000Y-34325000D03*
D11*
X104825000Y-33875000D03*
D13*
X154275000Y-45600000D03*
X154275000Y-38100000D03*
X154000000Y-61750000D03*
X154000000Y-54250000D03*
D14*
X101300000Y-78600000D03*
X95300000Y-78600000D03*
X98300000Y-83300000D03*
D13*
X153500000Y-97750000D03*
X153500000Y-90250000D03*
X153500000Y-81250000D03*
X153500000Y-73750000D03*
D15*
X112460000Y-74000000D03*
X117500000Y-71500000D03*
X117500000Y-76500000D03*
X132760000Y-78270000D03*
X130260000Y-73230000D03*
X135260000Y-73230000D03*
D11*
X103386000Y-124174000D03*
X103386000Y-113506000D03*
D12*
X148598000Y-127476000D03*
D11*
X103386000Y-129254000D03*
D12*
X148598000Y-122396000D03*
X153424000Y-122396000D03*
X153424000Y-127476000D03*
D11*
X103386000Y-118586000D03*
D13*
X153500000Y-116750000D03*
X153500000Y-109250000D03*
D16*
X100084000Y-113252000D03*
X100084000Y-124428000D03*
D17*
X103894000Y-111474000D03*
X110500000Y-111500000D03*
D18*
X109482000Y-116046000D03*
D19*
X101500000Y-34500000D03*
D16*
X101500000Y-42500000D03*
D18*
X109736000Y-126714000D03*
D20*
X109482000Y-121380000D03*
D21*
X111400000Y-37100000D03*
D22*
X107000000Y-43000000D03*
X114000000Y-43000000D03*
D13*
X60000000Y-101750000D03*
X60000000Y-109250000D03*
D23*
X79250000Y-129500000D03*
X86750000Y-129500000D03*
D13*
X60000000Y-118750000D03*
X60000000Y-126250000D03*
X59800000Y-67250000D03*
X59800000Y-74750000D03*
X60000000Y-84250000D03*
X60000000Y-91750000D03*
D23*
X61250000Y-129500000D03*
X68750000Y-129500000D03*
D12*
X65625000Y-92425000D03*
X70375000Y-92425000D03*
X70175000Y-88675000D03*
X65725000Y-88650000D03*
D24*
X64600000Y-104700000D03*
D25*
X64600000Y-107240000D03*
D24*
X64750000Y-121500000D03*
D25*
X64750000Y-124040000D03*
D24*
X82930000Y-90410000D03*
D25*
X85470000Y-90410000D03*
D24*
X73875000Y-90100000D03*
D25*
X76415000Y-90100000D03*
D13*
X60000000Y-51250000D03*
X60000000Y-58750000D03*
D23*
X87400000Y-34975000D03*
X79900000Y-34975000D03*
D12*
X66000000Y-40000000D03*
X61000000Y-35000000D03*
X61000000Y-40000000D03*
X66000000Y-35000000D03*
D15*
X96960000Y-91500000D03*
X102000000Y-89000000D03*
X102000000Y-94000000D03*
M02*
