G04 #@! TF.FileFunction,Copper,L2,Bot,Signal*
%FSLAX46Y46*%
G04 Gerber Fmt 4.6, Leading zero omitted, Abs format (unit mm)*
G04 Created by KiCad (PCBNEW 4.0.7) date 05/20/20 11:10:12*
%MOMM*%
%LPD*%
G01*
G04 APERTURE LIST*
%ADD10C,0.100000*%
%ADD11R,4.000000X1.500000*%
%ADD12R,2.000000X2.000000*%
%ADD13R,5.080000X2.500000*%
%ADD14R,3.500000X3.500000*%
%ADD15C,2.500000*%
%ADD16R,2.500000X5.080000*%
%ADD17R,1.700000X1.700000*%
%ADD18O,1.700000X1.700000*%
%ADD19C,0.600000*%
%ADD20C,0.350000*%
%ADD21C,0.500000*%
%ADD22C,1.000000*%
%ADD23C,0.250000*%
G04 APERTURE END LIST*
D10*
D11*
X104900000Y-44050000D03*
D12*
X153775000Y-34325000D03*
X142325000Y-34300000D03*
X146175000Y-34275000D03*
X149825000Y-34325000D03*
D11*
X104825000Y-36875000D03*
D13*
X154275000Y-45600000D03*
X154275000Y-38100000D03*
X154000000Y-61750000D03*
X154000000Y-54250000D03*
D14*
X99000000Y-78500000D03*
X93000000Y-78500000D03*
X96000000Y-83200000D03*
D13*
X153500000Y-97750000D03*
X153500000Y-90250000D03*
X153500000Y-81250000D03*
X153500000Y-73750000D03*
D15*
X112460000Y-74000000D03*
X117500000Y-71500000D03*
X117500000Y-76500000D03*
X132760000Y-78270000D03*
X130260000Y-73230000D03*
X135260000Y-73230000D03*
D11*
X103886000Y-122174000D03*
X103886000Y-111506000D03*
D12*
X149098000Y-125476000D03*
D11*
X103886000Y-127254000D03*
D12*
X149098000Y-120396000D03*
X153924000Y-120396000D03*
X153924000Y-125476000D03*
D11*
X103886000Y-116586000D03*
D13*
X154000000Y-114750000D03*
X154000000Y-107250000D03*
X60000000Y-101750000D03*
X60000000Y-109250000D03*
D16*
X79250000Y-129500000D03*
X86750000Y-129500000D03*
D13*
X60000000Y-118750000D03*
X60000000Y-126250000D03*
X59800000Y-67250000D03*
X59800000Y-74750000D03*
X60000000Y-84250000D03*
X60000000Y-91750000D03*
D16*
X61250000Y-129500000D03*
X68750000Y-129500000D03*
D12*
X65625000Y-92425000D03*
X70375000Y-92425000D03*
X70175000Y-88675000D03*
X65725000Y-88650000D03*
D17*
X64600000Y-104700000D03*
D18*
X64600000Y-107240000D03*
D17*
X64750000Y-121500000D03*
D18*
X64750000Y-124040000D03*
D17*
X82930000Y-90410000D03*
D18*
X85470000Y-90410000D03*
D17*
X73875000Y-90100000D03*
D18*
X76415000Y-90100000D03*
D13*
X60000000Y-51250000D03*
X60000000Y-58750000D03*
D16*
X87400000Y-34975000D03*
X79900000Y-34975000D03*
D12*
X66000000Y-40000000D03*
X61000000Y-35000000D03*
X61000000Y-40000000D03*
X66000000Y-35000000D03*
D15*
X95960000Y-91400000D03*
X101000000Y-88900000D03*
X101000000Y-93900000D03*
D19*
X63500000Y-69000000D03*
X113800000Y-94000000D03*
X113700000Y-92800000D03*
X128500000Y-97500000D03*
X126500000Y-97500000D03*
X123000000Y-97000000D03*
X120000000Y-97000000D03*
X116500000Y-96500000D03*
X113300000Y-96500000D03*
X111300000Y-96500000D03*
X109000000Y-96500000D03*
X104500000Y-96600000D03*
X100500000Y-97000000D03*
X96800000Y-96900000D03*
X94300000Y-96600000D03*
X93500000Y-95100000D03*
X93700000Y-92100000D03*
X93900000Y-88900000D03*
X95600000Y-86600000D03*
X97600000Y-86500000D03*
X99300000Y-86200000D03*
X107200000Y-88700000D03*
X108400000Y-88600000D03*
X106600000Y-90000000D03*
X115900000Y-83500000D03*
X117000000Y-83500000D03*
X116300000Y-86200000D03*
X121700000Y-95100000D03*
X119000000Y-94300000D03*
X120400000Y-93100000D03*
X122350000Y-85130000D03*
X123110000Y-86070000D03*
X124160000Y-87160000D03*
X126490000Y-86800000D03*
X132150000Y-88100000D03*
X120658000Y-85042000D03*
X74410000Y-62310000D03*
X75360000Y-63110000D03*
X77650000Y-63340000D03*
X79550000Y-63530000D03*
X72400000Y-61800000D03*
X88680000Y-63310000D03*
X86970000Y-63390000D03*
X84440000Y-63260000D03*
X81120000Y-63430000D03*
X88700000Y-38230000D03*
X88010000Y-48880000D03*
X88330000Y-46520000D03*
X88390000Y-44160000D03*
X88250000Y-41930000D03*
X88470000Y-40570000D03*
X63500000Y-93000000D03*
X60000000Y-94500000D03*
X58000000Y-94000000D03*
X86970000Y-38030000D03*
X85650000Y-37950000D03*
X58000000Y-61500000D03*
X62000000Y-61000000D03*
X78375000Y-48925000D03*
X88800000Y-53100000D03*
X86060000Y-51540000D03*
X85120000Y-51660000D03*
X84000000Y-51300000D03*
X82800000Y-51320000D03*
X82330000Y-49980000D03*
X82300000Y-49020000D03*
X85020000Y-56820000D03*
X83820000Y-56840000D03*
X81280000Y-56840000D03*
X78940000Y-57030000D03*
X64180000Y-60930000D03*
X66780000Y-60730000D03*
X68030000Y-61710000D03*
X76730000Y-33280000D03*
X77000000Y-34990000D03*
X76960000Y-36630000D03*
X77800000Y-37900000D03*
X78100000Y-40700000D03*
X74710000Y-40400000D03*
X76240000Y-40400000D03*
X78900000Y-42900000D03*
X77110000Y-43220000D03*
X74980000Y-43410000D03*
X74830000Y-45010000D03*
X73090000Y-48130000D03*
X71950000Y-49470000D03*
X70800000Y-51310000D03*
X70000000Y-52500000D03*
X69150000Y-53540000D03*
X66860000Y-53780000D03*
X64000000Y-52500000D03*
X63340000Y-89140000D03*
X72340000Y-92150000D03*
X72140000Y-90790000D03*
X72320000Y-89060000D03*
X72460000Y-87420000D03*
X69230000Y-87110000D03*
X67650000Y-87290000D03*
X64760000Y-87130000D03*
X63500000Y-87500000D03*
X75180000Y-88290000D03*
X75240000Y-86500000D03*
X75020000Y-85140000D03*
X74250000Y-84370000D03*
X72120000Y-84330000D03*
X69450000Y-84290000D03*
X67100000Y-84270000D03*
X65020000Y-84150000D03*
X63070000Y-84330000D03*
X64000000Y-75000000D03*
X80825000Y-87925000D03*
X65500000Y-74000000D03*
X66500000Y-74500000D03*
X68350000Y-75100000D03*
X70030000Y-76620000D03*
X71630000Y-78410000D03*
X73490000Y-80160000D03*
X74830000Y-81650000D03*
X76470000Y-82980000D03*
X78180000Y-84630000D03*
X79780000Y-85930000D03*
X80950000Y-86850000D03*
X63600000Y-67100000D03*
X65270000Y-67390000D03*
X66720000Y-69010000D03*
X68510000Y-70800000D03*
X71080000Y-73040000D03*
X73370000Y-75330000D03*
X75660000Y-78180000D03*
X78370000Y-80510000D03*
X80470000Y-82640000D03*
X82420000Y-84410000D03*
X83760000Y-85920000D03*
X84290000Y-87900000D03*
X86890000Y-88260000D03*
X87900000Y-90280000D03*
X88380000Y-92370000D03*
X88540000Y-94770000D03*
X88460000Y-98180000D03*
X88680000Y-101370000D03*
X88960000Y-104220000D03*
X88960000Y-107290000D03*
X88850000Y-109840000D03*
X88850000Y-112320000D03*
X88850000Y-114760000D03*
X88770000Y-117270000D03*
X88570000Y-120870000D03*
X88630000Y-123610000D03*
X88510000Y-126230000D03*
X124070000Y-48740000D03*
X126000000Y-48760000D03*
X127980000Y-48650000D03*
X129920000Y-48650000D03*
X131720000Y-48710000D03*
X134050000Y-48590000D03*
X135580000Y-48530000D03*
X150620000Y-47740000D03*
X148780000Y-47950000D03*
X146990000Y-48100000D03*
X145050000Y-48140000D03*
X141350000Y-48250000D03*
X156130000Y-36310000D03*
X156130000Y-34800000D03*
X155570000Y-32900000D03*
X153670000Y-32540000D03*
X151220000Y-32560000D03*
X148130000Y-32750000D03*
X144670000Y-32670000D03*
X141120000Y-32560000D03*
X139370000Y-33200000D03*
X138250000Y-35640000D03*
X135400000Y-35810000D03*
X132850000Y-35800000D03*
X131200000Y-35510000D03*
X128550000Y-35500000D03*
X126130000Y-34980000D03*
X123380000Y-35020000D03*
X121110000Y-35470000D03*
X119870000Y-35830000D03*
X94830000Y-75350000D03*
X96080000Y-73870000D03*
X97910000Y-71730000D03*
X99780000Y-70280000D03*
X101490000Y-68870000D03*
X106500000Y-69000000D03*
X109110000Y-69190000D03*
X113270000Y-68850000D03*
X117000000Y-69000000D03*
X118950000Y-68570000D03*
X122180000Y-68820000D03*
X124590000Y-68620000D03*
X126680000Y-68680000D03*
X129160000Y-68980000D03*
X131000000Y-69000000D03*
X132596000Y-69008000D03*
X135500000Y-69500000D03*
X137410000Y-69660000D03*
X140040000Y-69390000D03*
X143950000Y-69390000D03*
X146800000Y-69660000D03*
X149980000Y-69720000D03*
X152610000Y-70840000D03*
X120500000Y-107500000D03*
X153500000Y-104500000D03*
X152130000Y-103040000D03*
X149310000Y-101620000D03*
X146990000Y-102060000D03*
X144560000Y-102200000D03*
X142380000Y-102180000D03*
X140740000Y-102030000D03*
X138220000Y-101760000D03*
X135780000Y-101840000D03*
X132630000Y-101700000D03*
X130120000Y-101700000D03*
X127860000Y-101940000D03*
X124480000Y-102060000D03*
X122800000Y-102200000D03*
X122120000Y-102880000D03*
X121510000Y-104490000D03*
X155920000Y-117060000D03*
X155920000Y-118750000D03*
X155880000Y-120510000D03*
X155960000Y-123080000D03*
X156070000Y-125760000D03*
X155940000Y-127830000D03*
X155750000Y-130260000D03*
X153200000Y-130600000D03*
X148050000Y-130730000D03*
X142000000Y-130900000D03*
X138000000Y-131000000D03*
X133800000Y-131000000D03*
X129900000Y-131200000D03*
X125950000Y-131210000D03*
X123220000Y-129530000D03*
X121090000Y-127910000D03*
X120360000Y-126300000D03*
X118490000Y-125730000D03*
X116700000Y-125650000D03*
X88500000Y-55900000D03*
X89300000Y-55900000D03*
X70000000Y-63100000D03*
X71200000Y-61500000D03*
X80600000Y-41600000D03*
X79100000Y-39900000D03*
X80500000Y-38800000D03*
X74600000Y-35800000D03*
X73600000Y-37100000D03*
X73900000Y-34400000D03*
X76500000Y-56150000D03*
X78950000Y-54250000D03*
X77800000Y-54250000D03*
X73300000Y-53500000D03*
X74550000Y-53425000D03*
X75650000Y-52475000D03*
X75675000Y-49800000D03*
X75825000Y-47950000D03*
X78475000Y-47650000D03*
X76400000Y-98500000D03*
X78000000Y-99375000D03*
X76850000Y-100450000D03*
X76675000Y-96775000D03*
X77950000Y-97800000D03*
X80425000Y-90400000D03*
X79075000Y-88800000D03*
X64850000Y-102225000D03*
X65925000Y-102500000D03*
X65750000Y-114250000D03*
X65600000Y-112200000D03*
X62000000Y-78500000D03*
X58500000Y-78000000D03*
X65750000Y-99875000D03*
X66400000Y-96000000D03*
X62200000Y-96200000D03*
X61500000Y-99500000D03*
X63325000Y-100825000D03*
X58500000Y-99500000D03*
X62000000Y-112000000D03*
X60060000Y-111660000D03*
X58000000Y-112000000D03*
X70200000Y-108000000D03*
X70900000Y-110300000D03*
X69100000Y-107900000D03*
X63600000Y-126150000D03*
X58250000Y-127750000D03*
X58500000Y-81000000D03*
X60000000Y-81000000D03*
X62000000Y-81000000D03*
X60220000Y-115730000D03*
X58140000Y-116210000D03*
X61740000Y-116040000D03*
X88850000Y-130000000D03*
X88660000Y-131600000D03*
X88930000Y-128240000D03*
X77300000Y-131710000D03*
X76700000Y-130300000D03*
X76960000Y-128170000D03*
X59000000Y-131500000D03*
X59000000Y-130000000D03*
X59000000Y-128500000D03*
X71000000Y-128000000D03*
X71280000Y-131860000D03*
X71360000Y-130000000D03*
X77710000Y-121880000D03*
X76880000Y-121900000D03*
X75530000Y-121890000D03*
X75000000Y-122990000D03*
X77580000Y-122980000D03*
X78860000Y-121730000D03*
X79910000Y-123020000D03*
X138184000Y-75136000D03*
X138692000Y-72850000D03*
X137676000Y-72850000D03*
X148550000Y-75180000D03*
X149460000Y-74610000D03*
X150660000Y-75510000D03*
X145070000Y-75180000D03*
X146800000Y-75200000D03*
X145930000Y-74520000D03*
X115400000Y-114100000D03*
X116800000Y-114000000D03*
X117900000Y-113100000D03*
X111514000Y-80692000D03*
X111006000Y-78152000D03*
X119642000Y-80438000D03*
X120658000Y-79168000D03*
X120150000Y-77898000D03*
X135000000Y-127900000D03*
X136200000Y-127100000D03*
X133200000Y-126400000D03*
X142600000Y-122800000D03*
X142100000Y-125300000D03*
X143500000Y-124000000D03*
X143200000Y-117300000D03*
X145900000Y-119000000D03*
X144300000Y-116600000D03*
X133800000Y-117500000D03*
X134800000Y-118500000D03*
X135600000Y-117300000D03*
X115300000Y-125200000D03*
X114700000Y-124200000D03*
X117200000Y-124100000D03*
X118100000Y-117200000D03*
X121500000Y-117700000D03*
X120600000Y-120200000D03*
X122300000Y-118900000D03*
X119100000Y-119900000D03*
X117800000Y-118400000D03*
X118700000Y-108900000D03*
X117900000Y-107700000D03*
X124600000Y-104600000D03*
X124400000Y-106900000D03*
X123190000Y-106426000D03*
X138684000Y-103632000D03*
X136906000Y-104394000D03*
X138176000Y-105918000D03*
X150368000Y-104902000D03*
X146812000Y-104902000D03*
X145288000Y-105918000D03*
X146558000Y-107442000D03*
X147828000Y-106172000D03*
X149606000Y-107442000D03*
X150622000Y-106172000D03*
X138684000Y-115570000D03*
X139954000Y-114554000D03*
X141224000Y-116078000D03*
X138684000Y-117856000D03*
X136906000Y-118364000D03*
X138176000Y-119634000D03*
X148550000Y-50600000D03*
X143100000Y-96000000D03*
X144400000Y-97150000D03*
X145850000Y-95750000D03*
X148100000Y-88750000D03*
X149300000Y-90600000D03*
X149400000Y-87850000D03*
X144600000Y-88950000D03*
X145900000Y-90800000D03*
X146000000Y-88000000D03*
X141900000Y-84550000D03*
X142900000Y-85650000D03*
X141700000Y-87000000D03*
X132100000Y-90650000D03*
X133750000Y-89500000D03*
X128350000Y-95100000D03*
X130050000Y-96350000D03*
X131050000Y-95750000D03*
X111006000Y-93424000D03*
X121420000Y-76374000D03*
X122690000Y-75104000D03*
X123452000Y-78914000D03*
X126246000Y-78660000D03*
X124722000Y-77136000D03*
X131580000Y-70278000D03*
X132850000Y-71548000D03*
X140978000Y-74088000D03*
X143264000Y-74088000D03*
X142248000Y-73072000D03*
X117670000Y-47750000D03*
X120720000Y-48300000D03*
X119410000Y-46930000D03*
X123730000Y-47430000D03*
X121600000Y-48600000D03*
X122240000Y-46010000D03*
X136150000Y-46120000D03*
X136750000Y-47830000D03*
X138670000Y-46470000D03*
X145670000Y-55850000D03*
X151320000Y-50650000D03*
X149675000Y-40925000D03*
X148700000Y-39600000D03*
X145850000Y-40000000D03*
X147090000Y-41120000D03*
X151200000Y-39620000D03*
X120280000Y-40090000D03*
X121666000Y-41370000D03*
X133604000Y-41116000D03*
X133858000Y-38576000D03*
X134874000Y-39846000D03*
X141478000Y-36798000D03*
X140570000Y-36760000D03*
X140580000Y-39160000D03*
X141650000Y-41600000D03*
X143580000Y-41830000D03*
X148250000Y-36710000D03*
X149500000Y-98000000D03*
X132000000Y-97500000D03*
X134500000Y-98000000D03*
X137000000Y-98000000D03*
X140500000Y-98000000D03*
X144000000Y-98000000D03*
X147500000Y-98000000D03*
D20*
X124590000Y-69620000D02*
X124450000Y-69760000D01*
D21*
X128500000Y-97500000D02*
X128400000Y-97600000D01*
X128400000Y-97600000D02*
X126500000Y-97500000D01*
X123000000Y-97000000D02*
X122900000Y-97100000D01*
X122900000Y-97100000D02*
X120000000Y-97000000D01*
X116500000Y-96500000D02*
X116300000Y-96700000D01*
X116300000Y-96700000D02*
X113300000Y-96500000D01*
X111300000Y-96500000D02*
X111200000Y-96400000D01*
X111200000Y-96400000D02*
X109000000Y-96500000D01*
X104500000Y-96600000D02*
X103000000Y-97000000D01*
X103000000Y-97000000D02*
X100500000Y-97000000D01*
X96800000Y-96900000D02*
X96000000Y-96600000D01*
X96000000Y-96600000D02*
X94300000Y-96600000D01*
X93500000Y-95100000D02*
X93700000Y-94900000D01*
X93700000Y-94900000D02*
X93700000Y-92100000D01*
X93900000Y-88900000D02*
X95600000Y-87200000D01*
X95600000Y-87200000D02*
X95600000Y-86600000D01*
X97600000Y-86500000D02*
X97900000Y-86200000D01*
X97900000Y-86200000D02*
X99300000Y-86200000D01*
D20*
X122350000Y-85130000D02*
X123110000Y-85890000D01*
X123110000Y-85890000D02*
X123110000Y-86070000D01*
X124160000Y-87160000D02*
X124520000Y-86800000D01*
X124520000Y-86800000D02*
X126490000Y-86800000D01*
X79550000Y-63530000D02*
X81020000Y-63530000D01*
X73900000Y-61800000D02*
X74410000Y-62310000D01*
X75360000Y-63110000D02*
X75590000Y-63340000D01*
X75590000Y-63340000D02*
X77650000Y-63340000D01*
X72400000Y-61800000D02*
X73900000Y-61800000D01*
X84570000Y-63390000D02*
X86970000Y-63390000D01*
X84440000Y-63260000D02*
X84570000Y-63390000D01*
X81020000Y-63530000D02*
X81120000Y-63430000D01*
X88330000Y-44220000D02*
X88330000Y-46520000D01*
X88390000Y-44160000D02*
X88330000Y-44220000D01*
X88250000Y-40790000D02*
X88250000Y-41930000D01*
X88470000Y-40570000D02*
X88250000Y-40790000D01*
X78375000Y-48925000D02*
X82205000Y-48925000D01*
X87620000Y-53100000D02*
X88800000Y-53100000D01*
X86060000Y-51540000D02*
X87620000Y-53100000D01*
X84550000Y-51260000D02*
X85120000Y-51660000D01*
X84000000Y-51300000D02*
X84550000Y-51260000D01*
X82700000Y-51220000D02*
X82800000Y-51320000D01*
X82490000Y-50140000D02*
X82700000Y-51220000D01*
X82330000Y-49980000D02*
X82490000Y-50140000D01*
X82205000Y-48925000D02*
X82300000Y-49020000D01*
X83840000Y-56820000D02*
X85020000Y-56820000D01*
X83820000Y-56840000D02*
X83840000Y-56820000D01*
X79130000Y-56840000D02*
X81280000Y-56840000D01*
X78940000Y-57030000D02*
X79130000Y-56840000D01*
X64180000Y-60930000D02*
X64380000Y-60730000D01*
X64380000Y-60730000D02*
X66780000Y-60730000D01*
X68030000Y-61710000D02*
X69420000Y-63100000D01*
X69420000Y-63100000D02*
X70000000Y-63100000D01*
X77800000Y-37900000D02*
X77800000Y-37470000D01*
X76730000Y-34720000D02*
X76730000Y-33280000D01*
X77000000Y-34990000D02*
X76730000Y-34720000D01*
X77800000Y-37470000D02*
X76960000Y-36630000D01*
X78100000Y-40700000D02*
X78100000Y-40630000D01*
X77800000Y-40330000D02*
X77800000Y-37900000D01*
X78100000Y-40630000D02*
X77800000Y-40330000D01*
X74710000Y-40400000D02*
X76240000Y-40400000D01*
X75170000Y-43220000D02*
X77110000Y-43220000D01*
X74980000Y-43410000D02*
X75170000Y-43220000D01*
X74830000Y-46390000D02*
X74830000Y-45010000D01*
X73090000Y-48130000D02*
X74830000Y-46390000D01*
X71950000Y-50160000D02*
X71950000Y-49470000D01*
X70800000Y-51310000D02*
X71950000Y-50160000D01*
X69180000Y-53510000D02*
X70000000Y-52500000D01*
X69150000Y-53540000D02*
X69180000Y-53510000D01*
X64930000Y-53780000D02*
X66860000Y-53780000D01*
X64000000Y-52500000D02*
X64930000Y-53780000D01*
X63500000Y-87500000D02*
X63320000Y-88410000D01*
X63340000Y-88430000D02*
X63340000Y-89140000D01*
X63320000Y-88410000D02*
X63340000Y-88430000D01*
X76415000Y-90535000D02*
X74800000Y-92150000D01*
X74800000Y-92150000D02*
X72340000Y-92150000D01*
X72140000Y-90790000D02*
X72320000Y-90610000D01*
X72320000Y-90610000D02*
X72320000Y-89060000D01*
X72460000Y-87420000D02*
X72150000Y-87110000D01*
X72150000Y-87110000D02*
X69230000Y-87110000D01*
X67650000Y-87290000D02*
X67490000Y-87130000D01*
X67490000Y-87130000D02*
X64760000Y-87130000D01*
X63500000Y-87500000D02*
X63380000Y-87620000D01*
X76415000Y-90100000D02*
X76415000Y-90535000D01*
X76415000Y-90100000D02*
X76415000Y-89525000D01*
X76415000Y-89525000D02*
X75180000Y-88290000D01*
X75240000Y-86500000D02*
X75020000Y-86280000D01*
X75020000Y-86280000D02*
X75020000Y-85140000D01*
X74250000Y-84370000D02*
X74210000Y-84330000D01*
X74210000Y-84330000D02*
X72120000Y-84330000D01*
X69450000Y-84290000D02*
X69430000Y-84270000D01*
X69430000Y-84270000D02*
X67100000Y-84270000D01*
X65020000Y-84150000D02*
X64840000Y-84330000D01*
X64840000Y-84330000D02*
X63070000Y-84330000D01*
X65300000Y-74200000D02*
X64000000Y-75000000D01*
X65500000Y-74000000D02*
X65300000Y-74200000D01*
X66500000Y-74770000D02*
X66500000Y-74500000D01*
X68350000Y-75100000D02*
X66500000Y-74770000D01*
X70030000Y-76810000D02*
X70030000Y-76620000D01*
X71630000Y-78410000D02*
X70030000Y-76810000D01*
X73490000Y-80310000D02*
X73490000Y-80160000D01*
X74830000Y-81650000D02*
X73490000Y-80310000D01*
X76530000Y-82980000D02*
X76470000Y-82980000D01*
X78180000Y-84630000D02*
X76530000Y-82980000D01*
X80030000Y-85930000D02*
X79780000Y-85930000D01*
X80950000Y-86850000D02*
X80030000Y-85930000D01*
X65270000Y-67560000D02*
X65270000Y-67390000D01*
X66720000Y-69010000D02*
X65270000Y-67560000D01*
X68840000Y-70800000D02*
X68510000Y-70800000D01*
X71080000Y-73040000D02*
X68840000Y-70800000D01*
X73370000Y-75890000D02*
X73370000Y-75330000D01*
X75660000Y-78180000D02*
X73370000Y-75890000D01*
X78370000Y-80540000D02*
X78370000Y-80510000D01*
X80470000Y-82640000D02*
X78370000Y-80540000D01*
X82420000Y-84880000D02*
X82420000Y-84410000D01*
X83760000Y-85920000D02*
X82420000Y-84880000D01*
X85860000Y-87980000D02*
X84290000Y-87900000D01*
X86890000Y-88260000D02*
X85860000Y-87980000D01*
X87900000Y-91890000D02*
X87900000Y-90280000D01*
X88380000Y-92370000D02*
X87900000Y-91890000D01*
X88540000Y-98100000D02*
X88540000Y-94770000D01*
X88460000Y-98180000D02*
X88540000Y-98100000D01*
X88680000Y-103940000D02*
X88680000Y-101370000D01*
X88960000Y-104220000D02*
X88680000Y-103940000D01*
X88960000Y-109730000D02*
X88960000Y-107290000D01*
X88850000Y-109840000D02*
X88960000Y-109730000D01*
X88850000Y-114760000D02*
X88850000Y-112320000D01*
X88770000Y-120670000D02*
X88770000Y-117270000D01*
X88570000Y-120870000D02*
X88770000Y-120670000D01*
X88630000Y-126110000D02*
X88630000Y-123610000D01*
X88510000Y-126230000D02*
X88630000Y-126110000D01*
X136750000Y-47830000D02*
X136280000Y-47830000D01*
X125980000Y-48740000D02*
X124070000Y-48740000D01*
X126000000Y-48760000D02*
X125980000Y-48740000D01*
X129920000Y-48650000D02*
X127980000Y-48650000D01*
X133930000Y-48710000D02*
X131720000Y-48710000D01*
X134050000Y-48590000D02*
X133930000Y-48710000D01*
X136280000Y-47830000D02*
X135580000Y-48530000D01*
X150620000Y-47740000D02*
X150410000Y-47950000D01*
X150410000Y-47950000D02*
X148780000Y-47950000D01*
X146990000Y-48100000D02*
X146950000Y-48140000D01*
X146950000Y-48140000D02*
X145050000Y-48140000D01*
X141350000Y-48250000D02*
X140930000Y-47830000D01*
X140930000Y-47830000D02*
X136750000Y-47830000D01*
X156130000Y-36310000D02*
X156130000Y-34800000D01*
X155570000Y-32900000D02*
X155210000Y-32540000D01*
X155210000Y-32540000D02*
X153670000Y-32540000D01*
X151220000Y-32560000D02*
X151030000Y-32750000D01*
X151030000Y-32750000D02*
X148130000Y-32750000D01*
X144670000Y-32670000D02*
X144560000Y-32560000D01*
X144560000Y-32560000D02*
X141120000Y-32560000D01*
X139370000Y-33200000D02*
X138250000Y-34320000D01*
X138250000Y-34320000D02*
X138250000Y-35640000D01*
X135400000Y-35810000D02*
X135390000Y-35800000D01*
X135390000Y-35800000D02*
X132850000Y-35800000D01*
X131200000Y-35510000D02*
X131190000Y-35500000D01*
X131190000Y-35500000D02*
X128550000Y-35500000D01*
X126130000Y-34980000D02*
X126090000Y-35020000D01*
X126090000Y-35020000D02*
X123380000Y-35020000D01*
X121110000Y-35470000D02*
X120750000Y-35830000D01*
X120750000Y-35830000D02*
X119870000Y-35830000D01*
X132596000Y-69008000D02*
X131938000Y-69008000D01*
X94830000Y-75120000D02*
X94830000Y-75350000D01*
X96080000Y-73870000D02*
X94830000Y-75120000D01*
X98330000Y-71730000D02*
X97910000Y-71730000D01*
X99780000Y-70280000D02*
X98330000Y-71730000D01*
X105650000Y-68870000D02*
X101490000Y-68870000D01*
X106500000Y-69000000D02*
X105650000Y-68870000D01*
X112430000Y-69190000D02*
X109110000Y-69190000D01*
X113270000Y-68850000D02*
X112430000Y-69190000D01*
X118830000Y-68690000D02*
X117000000Y-69000000D01*
X118950000Y-68570000D02*
X118830000Y-68690000D01*
X122240000Y-68760000D02*
X122180000Y-68820000D01*
X124450000Y-68760000D02*
X122240000Y-68760000D01*
X128860000Y-68680000D02*
X126680000Y-68680000D01*
X129160000Y-68980000D02*
X128860000Y-68680000D01*
X131938000Y-69008000D02*
X131000000Y-69000000D01*
X134882000Y-69008000D02*
X132596000Y-69008000D01*
X135500000Y-69500000D02*
X134882000Y-69008000D01*
X139310000Y-69660000D02*
X137410000Y-69660000D01*
X140040000Y-69390000D02*
X139310000Y-69660000D01*
X146530000Y-69390000D02*
X143950000Y-69390000D01*
X146800000Y-69660000D02*
X146530000Y-69390000D01*
X151490000Y-69720000D02*
X149980000Y-69720000D01*
X152610000Y-70840000D02*
X151490000Y-69720000D01*
X153500000Y-104410000D02*
X153500000Y-104500000D01*
X152130000Y-103040000D02*
X153500000Y-104410000D01*
X147430000Y-101620000D02*
X149310000Y-101620000D01*
X146990000Y-102060000D02*
X147430000Y-101620000D01*
X142400000Y-102200000D02*
X144560000Y-102200000D01*
X142380000Y-102180000D02*
X142400000Y-102200000D01*
X138490000Y-102030000D02*
X140740000Y-102030000D01*
X138220000Y-101760000D02*
X138490000Y-102030000D01*
X132770000Y-101840000D02*
X135780000Y-101840000D01*
X132630000Y-101700000D02*
X132770000Y-101840000D01*
X128100000Y-101700000D02*
X130120000Y-101700000D01*
X127860000Y-101940000D02*
X128100000Y-101700000D01*
X122940000Y-102060000D02*
X124480000Y-102060000D01*
X122800000Y-102200000D02*
X122940000Y-102060000D01*
X122120000Y-103880000D02*
X122120000Y-102880000D01*
X121510000Y-104490000D02*
X122120000Y-103880000D01*
X155920000Y-117060000D02*
X155920000Y-118750000D01*
X155880000Y-120510000D02*
X155960000Y-120590000D01*
X155960000Y-120590000D02*
X155960000Y-123080000D01*
X156070000Y-125760000D02*
X155940000Y-125890000D01*
X155940000Y-125890000D02*
X155940000Y-127830000D01*
X155750000Y-130260000D02*
X154100000Y-130500000D01*
X154100000Y-130500000D02*
X153200000Y-130600000D01*
X148050000Y-130730000D02*
X146700000Y-130800000D01*
X146700000Y-130800000D02*
X142000000Y-130900000D01*
X138000000Y-131000000D02*
X137830000Y-130830000D01*
X137830000Y-130830000D02*
X133800000Y-131000000D01*
X129900000Y-131200000D02*
X128140000Y-131210000D01*
X128140000Y-131210000D02*
X125950000Y-131210000D01*
X123220000Y-129530000D02*
X121600000Y-127910000D01*
X121600000Y-127910000D02*
X121090000Y-127910000D01*
X120360000Y-126300000D02*
X119790000Y-125730000D01*
X119790000Y-125730000D02*
X118490000Y-125730000D01*
X116700000Y-125650000D02*
X116250000Y-125200000D01*
X116250000Y-125200000D02*
X115300000Y-125200000D01*
X77580000Y-122980000D02*
X77560000Y-122980000D01*
D22*
X103886000Y-127254000D02*
X118254000Y-127254000D01*
X118254000Y-127254000D02*
X118500000Y-127500000D01*
X103886000Y-116586000D02*
X114586000Y-116586000D01*
X114586000Y-116586000D02*
X115000000Y-117000000D01*
X104825000Y-36875000D02*
X117125000Y-36875000D01*
X117125000Y-36875000D02*
X118000000Y-36000000D01*
D20*
X136840000Y-98160000D02*
X134500000Y-98000000D01*
X137000000Y-98000000D02*
X136840000Y-98160000D01*
X144000000Y-98000000D02*
X140500000Y-98000000D01*
X148500000Y-98000000D02*
X147500000Y-98000000D01*
X149500000Y-98000000D02*
X148500000Y-98000000D01*
D23*
G36*
X78017000Y-33546750D02*
X78175250Y-33705000D01*
X79275000Y-33705000D01*
X79275000Y-33580000D01*
X80525000Y-33580000D01*
X80525000Y-33705000D01*
X81624750Y-33705000D01*
X81783000Y-33546750D01*
X81783000Y-32700000D01*
X85517000Y-32700000D01*
X85517000Y-33546750D01*
X85675250Y-33705000D01*
X86775000Y-33705000D01*
X86775000Y-33580000D01*
X88025000Y-33580000D01*
X88025000Y-33705000D01*
X89124750Y-33705000D01*
X89283000Y-33546750D01*
X89283000Y-32700000D01*
X89666608Y-32700000D01*
X89460636Y-33008259D01*
X89375000Y-33438778D01*
X89375000Y-37561222D01*
X89460636Y-37991741D01*
X89704505Y-38356717D01*
X90069481Y-38600586D01*
X90500000Y-38686222D01*
X90930519Y-38600586D01*
X91295495Y-38356717D01*
X91539364Y-37991741D01*
X91625000Y-37561222D01*
X91625000Y-33438778D01*
X91539364Y-33008259D01*
X91333392Y-32700000D01*
X100613085Y-32700000D01*
X100538596Y-32811481D01*
X100452960Y-33242000D01*
X100538596Y-33672519D01*
X100782465Y-34037495D01*
X100911558Y-34123752D01*
X100804505Y-34195283D01*
X100560636Y-34560259D01*
X100475000Y-34990778D01*
X100475000Y-39113222D01*
X100560636Y-39543741D01*
X100764998Y-39849591D01*
X100560636Y-40155441D01*
X100475000Y-40585960D01*
X100475000Y-40630040D01*
X100560636Y-41060559D01*
X100764998Y-41366409D01*
X100560636Y-41672259D01*
X100475000Y-42102778D01*
X100475000Y-46225222D01*
X100560636Y-46655741D01*
X100804505Y-47020717D01*
X101090780Y-47212000D01*
X100804505Y-47403283D01*
X100560636Y-47768259D01*
X100475000Y-48198778D01*
X100475000Y-52321222D01*
X100560636Y-52751741D01*
X100804505Y-53116717D01*
X100900711Y-53181000D01*
X100804505Y-53245283D01*
X100560636Y-53610259D01*
X100475000Y-54040778D01*
X100475000Y-58163222D01*
X100560636Y-58593741D01*
X100804505Y-58958717D01*
X100899946Y-59022489D01*
X100704505Y-59153078D01*
X100460636Y-59518054D01*
X100375000Y-59948573D01*
X100375000Y-63051427D01*
X100460636Y-63481946D01*
X100556222Y-63625000D01*
X99438778Y-63625000D01*
X99008259Y-63710636D01*
X98643283Y-63954505D01*
X98399414Y-64319481D01*
X98313778Y-64750000D01*
X98399414Y-65180519D01*
X98643283Y-65545495D01*
X99008259Y-65789364D01*
X99438778Y-65875000D01*
X103561222Y-65875000D01*
X103991741Y-65789364D01*
X104356717Y-65545495D01*
X104600586Y-65180519D01*
X104625000Y-65057782D01*
X104649414Y-65180519D01*
X104893283Y-65545495D01*
X105258259Y-65789364D01*
X105688778Y-65875000D01*
X109811222Y-65875000D01*
X110241741Y-65789364D01*
X110606717Y-65545495D01*
X110850586Y-65180519D01*
X110936222Y-64750000D01*
X110850586Y-64319481D01*
X110606717Y-63954505D01*
X110241741Y-63710636D01*
X109811222Y-63625000D01*
X105688778Y-63625000D01*
X105258259Y-63710636D01*
X104893283Y-63954505D01*
X104649414Y-64319481D01*
X104625000Y-64442218D01*
X104600586Y-64319481D01*
X104356717Y-63954505D01*
X103991741Y-63710636D01*
X103561222Y-63625000D01*
X102443778Y-63625000D01*
X102539364Y-63481946D01*
X102625000Y-63051427D01*
X102625000Y-59948573D01*
X102539364Y-59518054D01*
X102295495Y-59153078D01*
X102200054Y-59089306D01*
X102395495Y-58958717D01*
X102639364Y-58593741D01*
X102725000Y-58163222D01*
X102725000Y-54040778D01*
X102639364Y-53610259D01*
X102395495Y-53245283D01*
X102299289Y-53181000D01*
X102395495Y-53116717D01*
X102639364Y-52751741D01*
X102725000Y-52321222D01*
X102725000Y-48198778D01*
X102639364Y-47768259D01*
X102395495Y-47403283D01*
X102109220Y-47212000D01*
X102395495Y-47020717D01*
X102639364Y-46655741D01*
X102665354Y-46525083D01*
X102807283Y-46737495D01*
X103172259Y-46981364D01*
X103602778Y-47067000D01*
X107725222Y-47067000D01*
X108155741Y-46981364D01*
X108520717Y-46737495D01*
X108585000Y-46641289D01*
X108649283Y-46737495D01*
X109014259Y-46981364D01*
X109444778Y-47067000D01*
X112881767Y-47067000D01*
X112752636Y-47260259D01*
X112667000Y-47690778D01*
X112667000Y-51813222D01*
X112752636Y-52243741D01*
X112996505Y-52608717D01*
X113282780Y-52800000D01*
X112996505Y-52991283D01*
X112752636Y-53356259D01*
X112667000Y-53786778D01*
X112667000Y-57909222D01*
X112752636Y-58339741D01*
X112996505Y-58704717D01*
X113311015Y-58914866D01*
X112954505Y-59153078D01*
X112710636Y-59518054D01*
X112625000Y-59948573D01*
X112625000Y-63051427D01*
X112710636Y-63481946D01*
X112806222Y-63625000D01*
X112188778Y-63625000D01*
X111758259Y-63710636D01*
X111393283Y-63954505D01*
X111149414Y-64319481D01*
X111063778Y-64750000D01*
X111149414Y-65180519D01*
X111393283Y-65545495D01*
X111758259Y-65789364D01*
X112188778Y-65875000D01*
X116311222Y-65875000D01*
X116741741Y-65789364D01*
X117106717Y-65545495D01*
X117350586Y-65180519D01*
X117375000Y-65057782D01*
X117399414Y-65180519D01*
X117643283Y-65545495D01*
X118008259Y-65789364D01*
X118438778Y-65875000D01*
X122561222Y-65875000D01*
X122991741Y-65789364D01*
X123356717Y-65545495D01*
X123600586Y-65180519D01*
X123686222Y-64750000D01*
X124063778Y-64750000D01*
X124149414Y-65180519D01*
X124393283Y-65545495D01*
X124758259Y-65789364D01*
X125188778Y-65875000D01*
X129311222Y-65875000D01*
X129741741Y-65789364D01*
X130106717Y-65545495D01*
X130350586Y-65180519D01*
X130436222Y-64750000D01*
X130563778Y-64750000D01*
X130649414Y-65180519D01*
X130893283Y-65545495D01*
X131258259Y-65789364D01*
X131688778Y-65875000D01*
X135811222Y-65875000D01*
X136241741Y-65789364D01*
X136606717Y-65545495D01*
X136850586Y-65180519D01*
X136936222Y-64750000D01*
X137063778Y-64750000D01*
X137149414Y-65180519D01*
X137393283Y-65545495D01*
X137758259Y-65789364D01*
X138188778Y-65875000D01*
X142311222Y-65875000D01*
X142741741Y-65789364D01*
X143106717Y-65545495D01*
X143350586Y-65180519D01*
X143436222Y-64750000D01*
X143813778Y-64750000D01*
X143899414Y-65180519D01*
X144143283Y-65545495D01*
X144508259Y-65789364D01*
X144938778Y-65875000D01*
X149061222Y-65875000D01*
X149491741Y-65789364D01*
X149856717Y-65545495D01*
X150100586Y-65180519D01*
X150186222Y-64750000D01*
X150100586Y-64319481D01*
X149856717Y-63954505D01*
X149491741Y-63710636D01*
X149061222Y-63625000D01*
X144938778Y-63625000D01*
X144508259Y-63710636D01*
X144143283Y-63954505D01*
X143899414Y-64319481D01*
X143813778Y-64750000D01*
X143436222Y-64750000D01*
X143350586Y-64319481D01*
X143106717Y-63954505D01*
X142741741Y-63710636D01*
X142311222Y-63625000D01*
X138188778Y-63625000D01*
X137758259Y-63710636D01*
X137393283Y-63954505D01*
X137149414Y-64319481D01*
X137063778Y-64750000D01*
X136936222Y-64750000D01*
X136850586Y-64319481D01*
X136606717Y-63954505D01*
X136241741Y-63710636D01*
X135811222Y-63625000D01*
X131688778Y-63625000D01*
X131258259Y-63710636D01*
X130893283Y-63954505D01*
X130649414Y-64319481D01*
X130563778Y-64750000D01*
X130436222Y-64750000D01*
X130350586Y-64319481D01*
X130106717Y-63954505D01*
X129741741Y-63710636D01*
X129311222Y-63625000D01*
X125188778Y-63625000D01*
X124758259Y-63710636D01*
X124393283Y-63954505D01*
X124149414Y-64319481D01*
X124063778Y-64750000D01*
X123686222Y-64750000D01*
X123600586Y-64319481D01*
X123356717Y-63954505D01*
X122991741Y-63710636D01*
X122561222Y-63625000D01*
X118438778Y-63625000D01*
X118008259Y-63710636D01*
X117643283Y-63954505D01*
X117399414Y-64319481D01*
X117375000Y-64442218D01*
X117350586Y-64319481D01*
X117106717Y-63954505D01*
X116741741Y-63710636D01*
X116311222Y-63625000D01*
X114693778Y-63625000D01*
X114789364Y-63481946D01*
X114875000Y-63051427D01*
X114875000Y-60374089D01*
X150827000Y-60374089D01*
X150827000Y-60966750D01*
X150985250Y-61125000D01*
X152730000Y-61125000D01*
X152730000Y-60025250D01*
X152571750Y-59867000D01*
X151334088Y-59867000D01*
X151101434Y-59963369D01*
X150923368Y-60141435D01*
X150827000Y-60374089D01*
X114875000Y-60374089D01*
X114875000Y-59948573D01*
X114789364Y-59518054D01*
X114545495Y-59153078D01*
X114230985Y-58942929D01*
X114587495Y-58704717D01*
X114831364Y-58339741D01*
X114917000Y-57909222D01*
X114917000Y-55033250D01*
X150827000Y-55033250D01*
X150827000Y-55625911D01*
X150923368Y-55858565D01*
X151101434Y-56036631D01*
X151334088Y-56133000D01*
X152571750Y-56133000D01*
X152730000Y-55974750D01*
X152730000Y-54875000D01*
X150985250Y-54875000D01*
X150827000Y-55033250D01*
X114917000Y-55033250D01*
X114917000Y-53786778D01*
X114831364Y-53356259D01*
X114587495Y-52991283D01*
X114412102Y-52874089D01*
X150827000Y-52874089D01*
X150827000Y-53466750D01*
X150985250Y-53625000D01*
X152730000Y-53625000D01*
X152730000Y-52525250D01*
X152571750Y-52367000D01*
X151334088Y-52367000D01*
X151101434Y-52463369D01*
X150923368Y-52641435D01*
X150827000Y-52874089D01*
X114412102Y-52874089D01*
X114301220Y-52800000D01*
X114587495Y-52608717D01*
X114831364Y-52243741D01*
X114917000Y-51813222D01*
X114917000Y-50206838D01*
X115143283Y-50545495D01*
X115508259Y-50789364D01*
X115938778Y-50875000D01*
X120061222Y-50875000D01*
X120491741Y-50789364D01*
X120856717Y-50545495D01*
X121100586Y-50180519D01*
X121125000Y-50057782D01*
X121149414Y-50180519D01*
X121393283Y-50545495D01*
X121758259Y-50789364D01*
X122188778Y-50875000D01*
X126311222Y-50875000D01*
X126741741Y-50789364D01*
X127106717Y-50545495D01*
X127250000Y-50331057D01*
X127393283Y-50545495D01*
X127758259Y-50789364D01*
X128188778Y-50875000D01*
X132311222Y-50875000D01*
X132741741Y-50789364D01*
X133106717Y-50545495D01*
X133350586Y-50180519D01*
X133375000Y-50057782D01*
X133399414Y-50180519D01*
X133643283Y-50545495D01*
X134008259Y-50789364D01*
X134438778Y-50875000D01*
X138561222Y-50875000D01*
X138991741Y-50789364D01*
X139356717Y-50545495D01*
X139600586Y-50180519D01*
X139625000Y-50057782D01*
X139649414Y-50180519D01*
X139893283Y-50545495D01*
X140258259Y-50789364D01*
X140688778Y-50875000D01*
X144811222Y-50875000D01*
X145241741Y-50789364D01*
X145606717Y-50545495D01*
X145850586Y-50180519D01*
X145936222Y-49750000D01*
X145886494Y-49500000D01*
X146578471Y-49500000D01*
X146664107Y-49930519D01*
X146907976Y-50295495D01*
X147272952Y-50539364D01*
X147703471Y-50625000D01*
X150296529Y-50625000D01*
X150727048Y-50539364D01*
X151092024Y-50295495D01*
X151335893Y-49930519D01*
X151421529Y-49500000D01*
X151335893Y-49069481D01*
X151092024Y-48704505D01*
X150727048Y-48460636D01*
X150296529Y-48375000D01*
X147703471Y-48375000D01*
X147272952Y-48460636D01*
X146907976Y-48704505D01*
X146664107Y-49069481D01*
X146578471Y-49500000D01*
X145886494Y-49500000D01*
X145850586Y-49319481D01*
X145606717Y-48954505D01*
X145241741Y-48710636D01*
X144811222Y-48625000D01*
X140688778Y-48625000D01*
X140258259Y-48710636D01*
X139893283Y-48954505D01*
X139649414Y-49319481D01*
X139625000Y-49442218D01*
X139600586Y-49319481D01*
X139356717Y-48954505D01*
X138991741Y-48710636D01*
X138561222Y-48625000D01*
X134438778Y-48625000D01*
X134008259Y-48710636D01*
X133643283Y-48954505D01*
X133399414Y-49319481D01*
X133375000Y-49442218D01*
X133350586Y-49319481D01*
X133106717Y-48954505D01*
X132741741Y-48710636D01*
X132311222Y-48625000D01*
X128188778Y-48625000D01*
X127758259Y-48710636D01*
X127393283Y-48954505D01*
X127250000Y-49168943D01*
X127106717Y-48954505D01*
X126741741Y-48710636D01*
X126311222Y-48625000D01*
X122188778Y-48625000D01*
X121758259Y-48710636D01*
X121393283Y-48954505D01*
X121149414Y-49319481D01*
X121125000Y-49442218D01*
X121100586Y-49319481D01*
X120856717Y-48954505D01*
X120491741Y-48710636D01*
X120061222Y-48625000D01*
X115938778Y-48625000D01*
X115508259Y-48710636D01*
X115143283Y-48954505D01*
X114917000Y-49293162D01*
X114917000Y-47690778D01*
X114831364Y-47260259D01*
X114587495Y-46895283D01*
X114549657Y-46870000D01*
X129663778Y-46870000D01*
X129787474Y-47491861D01*
X130139729Y-48019049D01*
X130666917Y-48371304D01*
X131288778Y-48495000D01*
X134411222Y-48495000D01*
X135033083Y-48371304D01*
X135560271Y-48019049D01*
X135912526Y-47491861D01*
X136036222Y-46870000D01*
X135939402Y-46383250D01*
X151102000Y-46383250D01*
X151102000Y-46975911D01*
X151198368Y-47208565D01*
X151376434Y-47386631D01*
X151609088Y-47483000D01*
X152846750Y-47483000D01*
X153005000Y-47324750D01*
X153005000Y-46225000D01*
X151260250Y-46225000D01*
X151102000Y-46383250D01*
X135939402Y-46383250D01*
X135912526Y-46248139D01*
X135560271Y-45720951D01*
X135033083Y-45368696D01*
X134411222Y-45245000D01*
X131288778Y-45245000D01*
X130666917Y-45368696D01*
X130139729Y-45720951D01*
X129787474Y-46248139D01*
X129663778Y-46870000D01*
X114549657Y-46870000D01*
X114357033Y-46741293D01*
X114362717Y-46737495D01*
X114606586Y-46372519D01*
X114692222Y-45942000D01*
X114606586Y-45511481D01*
X114362717Y-45146505D01*
X113997741Y-44902636D01*
X113567222Y-44817000D01*
X109444778Y-44817000D01*
X109014259Y-44902636D01*
X108649283Y-45146505D01*
X108585000Y-45242711D01*
X108520717Y-45146505D01*
X108155741Y-44902636D01*
X107725222Y-44817000D01*
X107533801Y-44817000D01*
X107537244Y-44800000D01*
X107537244Y-44224089D01*
X151102000Y-44224089D01*
X151102000Y-44816750D01*
X151260250Y-44975000D01*
X153005000Y-44975000D01*
X153005000Y-43875250D01*
X152846750Y-43717000D01*
X151609088Y-43717000D01*
X151376434Y-43813369D01*
X151198368Y-43991435D01*
X151102000Y-44224089D01*
X107537244Y-44224089D01*
X107537244Y-43300000D01*
X107527063Y-43245893D01*
X107901741Y-43171364D01*
X108266717Y-42927495D01*
X108331000Y-42831289D01*
X108395283Y-42927495D01*
X108760259Y-43171364D01*
X109190778Y-43257000D01*
X113313222Y-43257000D01*
X113743741Y-43171364D01*
X114108717Y-42927495D01*
X114352586Y-42562519D01*
X114438222Y-42132000D01*
X114362835Y-41753005D01*
X114670495Y-41547433D01*
X114914364Y-41182457D01*
X115000000Y-40751938D01*
X115000000Y-40198062D01*
X114914364Y-39767543D01*
X114670495Y-39402567D01*
X114364942Y-39198403D01*
X114427629Y-38883250D01*
X151102000Y-38883250D01*
X151102000Y-39475911D01*
X151198368Y-39708565D01*
X151376434Y-39886631D01*
X151609088Y-39983000D01*
X152846750Y-39983000D01*
X153005000Y-39824750D01*
X153005000Y-38725000D01*
X151260250Y-38725000D01*
X151102000Y-38883250D01*
X114427629Y-38883250D01*
X114438222Y-38830000D01*
X114352586Y-38399481D01*
X114108717Y-38034505D01*
X113743741Y-37790636D01*
X113313222Y-37705000D01*
X109190778Y-37705000D01*
X108760259Y-37790636D01*
X108395283Y-38034505D01*
X108204000Y-38320780D01*
X108012717Y-38034505D01*
X107647741Y-37790636D01*
X107457242Y-37752743D01*
X107458000Y-37750912D01*
X107458000Y-37408250D01*
X107299750Y-37250000D01*
X105825000Y-37250000D01*
X105825000Y-37625000D01*
X103825000Y-37625000D01*
X103825000Y-37250000D01*
X103430000Y-37250000D01*
X103430000Y-36724089D01*
X151102000Y-36724089D01*
X151102000Y-37316750D01*
X151260250Y-37475000D01*
X153005000Y-37475000D01*
X153005000Y-36375250D01*
X152846750Y-36217000D01*
X151609088Y-36217000D01*
X151376434Y-36313369D01*
X151198368Y-36491435D01*
X151102000Y-36724089D01*
X103430000Y-36724089D01*
X103430000Y-36500000D01*
X103825000Y-36500000D01*
X103825000Y-36145000D01*
X105825000Y-36145000D01*
X105825000Y-36500000D01*
X107299750Y-36500000D01*
X107458000Y-36341750D01*
X107458000Y-36145000D01*
X107471222Y-36145000D01*
X107901741Y-36059364D01*
X108266717Y-35815495D01*
X108458000Y-35529220D01*
X108649283Y-35815495D01*
X109014259Y-36059364D01*
X109444778Y-36145000D01*
X113567222Y-36145000D01*
X113997741Y-36059364D01*
X114362717Y-35815495D01*
X114606586Y-35450519D01*
X114692222Y-35020000D01*
X114606586Y-34589481D01*
X114362717Y-34224505D01*
X114351658Y-34217116D01*
X114587495Y-34059535D01*
X114831364Y-33694559D01*
X114917000Y-33264040D01*
X114917000Y-33219960D01*
X114831364Y-32789441D01*
X114771601Y-32700000D01*
X130617630Y-32700000D01*
X130385729Y-32854951D01*
X130033474Y-33382139D01*
X129909778Y-34004000D01*
X130033474Y-34625861D01*
X130385729Y-35153049D01*
X130912917Y-35505304D01*
X131534778Y-35629000D01*
X134657222Y-35629000D01*
X135279083Y-35505304D01*
X135806271Y-35153049D01*
X136158526Y-34625861D01*
X136282222Y-34004000D01*
X136158526Y-33382139D01*
X135806271Y-32854951D01*
X135574370Y-32700000D01*
X141127067Y-32700000D01*
X141093389Y-32706337D01*
X140880668Y-32843219D01*
X140737962Y-33052076D01*
X140687756Y-33300000D01*
X140687756Y-35300000D01*
X140731337Y-35531611D01*
X140868219Y-35744332D01*
X141077076Y-35887038D01*
X141325000Y-35937244D01*
X143325000Y-35937244D01*
X143556611Y-35893663D01*
X143769332Y-35756781D01*
X143912038Y-35547924D01*
X143962244Y-35300000D01*
X143962244Y-33300000D01*
X143918663Y-33068389D01*
X143781781Y-32855668D01*
X143572924Y-32712962D01*
X143508916Y-32700000D01*
X144914386Y-32700000D01*
X144730668Y-32818219D01*
X144587962Y-33027076D01*
X144537756Y-33275000D01*
X144537756Y-35275000D01*
X144581337Y-35506611D01*
X144718219Y-35719332D01*
X144927076Y-35862038D01*
X145175000Y-35912244D01*
X147175000Y-35912244D01*
X147406611Y-35868663D01*
X147619332Y-35731781D01*
X147762038Y-35522924D01*
X147812244Y-35275000D01*
X147812244Y-33275000D01*
X147768663Y-33043389D01*
X147631781Y-32830668D01*
X147440542Y-32700000D01*
X148759929Y-32700000D01*
X148593389Y-32731337D01*
X148380668Y-32868219D01*
X148237962Y-33077076D01*
X148187756Y-33325000D01*
X148187756Y-35325000D01*
X148231337Y-35556611D01*
X148368219Y-35769332D01*
X148577076Y-35912038D01*
X148825000Y-35962244D01*
X150825000Y-35962244D01*
X151056611Y-35918663D01*
X151269332Y-35781781D01*
X151412038Y-35572924D01*
X151462244Y-35325000D01*
X151462244Y-34983250D01*
X152142000Y-34983250D01*
X152142000Y-35450912D01*
X152238369Y-35683566D01*
X152416435Y-35861632D01*
X152649089Y-35958000D01*
X153116750Y-35958000D01*
X153275000Y-35799750D01*
X153275000Y-34825000D01*
X154275000Y-34825000D01*
X154275000Y-35799750D01*
X154433250Y-35958000D01*
X154900911Y-35958000D01*
X155133565Y-35861632D01*
X155311631Y-35683566D01*
X155408000Y-35450912D01*
X155408000Y-34983250D01*
X155249750Y-34825000D01*
X154275000Y-34825000D01*
X153275000Y-34825000D01*
X152300250Y-34825000D01*
X152142000Y-34983250D01*
X151462244Y-34983250D01*
X151462244Y-33325000D01*
X151418663Y-33093389D01*
X151281781Y-32880668D01*
X151072924Y-32737962D01*
X150885463Y-32700000D01*
X152399998Y-32700000D01*
X152399998Y-32804805D01*
X152238369Y-32966434D01*
X152142000Y-33199088D01*
X152142000Y-33666750D01*
X152300250Y-33825000D01*
X153275000Y-33825000D01*
X153275000Y-33325000D01*
X154275000Y-33325000D01*
X154275000Y-33825000D01*
X155249750Y-33825000D01*
X155408000Y-33666750D01*
X155408000Y-33199088D01*
X155311631Y-32966434D01*
X155150002Y-32804805D01*
X155150002Y-32700000D01*
X156300000Y-32700000D01*
X156300000Y-36217000D01*
X155703250Y-36217000D01*
X155545000Y-36375250D01*
X155545000Y-37475000D01*
X155670000Y-37475000D01*
X155670000Y-38725000D01*
X155545000Y-38725000D01*
X155545000Y-39824750D01*
X155703250Y-39983000D01*
X156300000Y-39983000D01*
X156300000Y-43717000D01*
X155703250Y-43717000D01*
X155545000Y-43875250D01*
X155545000Y-44975000D01*
X155670000Y-44975000D01*
X155670000Y-46225000D01*
X155545000Y-46225000D01*
X155545000Y-47324750D01*
X155703250Y-47483000D01*
X156300000Y-47483000D01*
X156300000Y-49015763D01*
X156092024Y-48704505D01*
X155727048Y-48460636D01*
X155296529Y-48375000D01*
X152703471Y-48375000D01*
X152272952Y-48460636D01*
X151907976Y-48704505D01*
X151664107Y-49069481D01*
X151578471Y-49500000D01*
X151664107Y-49930519D01*
X151907976Y-50295495D01*
X152272952Y-50539364D01*
X152703471Y-50625000D01*
X155296529Y-50625000D01*
X155727048Y-50539364D01*
X156092024Y-50295495D01*
X156300000Y-49984237D01*
X156300000Y-52367000D01*
X155428250Y-52367000D01*
X155270000Y-52525250D01*
X155270000Y-53625000D01*
X155395000Y-53625000D01*
X155395000Y-54875000D01*
X155270000Y-54875000D01*
X155270000Y-55974750D01*
X155428250Y-56133000D01*
X156300000Y-56133000D01*
X156300000Y-59867000D01*
X155428250Y-59867000D01*
X155270000Y-60025250D01*
X155270000Y-61125000D01*
X155395000Y-61125000D01*
X155395000Y-62375000D01*
X155270000Y-62375000D01*
X155270000Y-63000000D01*
X152730000Y-63000000D01*
X152730000Y-62375000D01*
X150985250Y-62375000D01*
X150827000Y-62533250D01*
X150827000Y-63125911D01*
X150923368Y-63358565D01*
X151101434Y-63536631D01*
X151334088Y-63633000D01*
X151398559Y-63633000D01*
X151008259Y-63710636D01*
X150643283Y-63954505D01*
X150399414Y-64319481D01*
X150313778Y-64750000D01*
X150399414Y-65180519D01*
X150643283Y-65545495D01*
X151008259Y-65789364D01*
X151438778Y-65875000D01*
X155561222Y-65875000D01*
X155991741Y-65789364D01*
X156300000Y-65583392D01*
X156300000Y-71922541D01*
X156165912Y-71867000D01*
X154928250Y-71867000D01*
X154770000Y-72025250D01*
X154770000Y-73125000D01*
X154895000Y-73125000D01*
X154895000Y-74375000D01*
X154770000Y-74375000D01*
X154770000Y-75474750D01*
X154928250Y-75633000D01*
X156165912Y-75633000D01*
X156300000Y-75577459D01*
X156300000Y-79422541D01*
X156165912Y-79367000D01*
X154928250Y-79367000D01*
X154770000Y-79525250D01*
X154770000Y-80625000D01*
X154895000Y-80625000D01*
X154895000Y-81875000D01*
X154770000Y-81875000D01*
X154770000Y-82974750D01*
X154928250Y-83133000D01*
X156165912Y-83133000D01*
X156300000Y-83077459D01*
X156300000Y-88422541D01*
X156165912Y-88367000D01*
X154928250Y-88367000D01*
X154770000Y-88525250D01*
X154770000Y-89625000D01*
X154895000Y-89625000D01*
X154895000Y-90875000D01*
X154770000Y-90875000D01*
X154770000Y-91974750D01*
X154928250Y-92133000D01*
X156165912Y-92133000D01*
X156300000Y-92077459D01*
X156300000Y-95922541D01*
X156165912Y-95867000D01*
X154928250Y-95867000D01*
X154770000Y-96025250D01*
X154770000Y-97125000D01*
X154895000Y-97125000D01*
X154895000Y-98375000D01*
X154770000Y-98375000D01*
X154770000Y-99000000D01*
X152230000Y-99000000D01*
X152230000Y-98375000D01*
X150485250Y-98375000D01*
X150327000Y-98533250D01*
X150327000Y-99125911D01*
X150423368Y-99358565D01*
X150522589Y-99457786D01*
X150508259Y-99460636D01*
X150143283Y-99704505D01*
X149899414Y-100069481D01*
X149813778Y-100500000D01*
X149899414Y-100930519D01*
X150143283Y-101295495D01*
X150508259Y-101539364D01*
X150938778Y-101625000D01*
X155061222Y-101625000D01*
X155491741Y-101539364D01*
X155856717Y-101295495D01*
X156100586Y-100930519D01*
X156186222Y-100500000D01*
X156100586Y-100069481D01*
X155856717Y-99704505D01*
X155749702Y-99633000D01*
X156165912Y-99633000D01*
X156300000Y-99577459D01*
X156300000Y-105367000D01*
X155428250Y-105367000D01*
X155270000Y-105525250D01*
X155270000Y-106625000D01*
X155395000Y-106625000D01*
X155395000Y-107875000D01*
X155270000Y-107875000D01*
X155270000Y-108974750D01*
X155428250Y-109133000D01*
X156300000Y-109133000D01*
X156300000Y-112867000D01*
X155428250Y-112867000D01*
X155270000Y-113025250D01*
X155270000Y-114125000D01*
X155395000Y-114125000D01*
X155395000Y-115375000D01*
X155270000Y-115375000D01*
X155270000Y-116474750D01*
X155428250Y-116633000D01*
X156300000Y-116633000D01*
X156300000Y-131300000D01*
X113647000Y-131300000D01*
X113647000Y-130786164D01*
X113561364Y-130355645D01*
X113317495Y-129990669D01*
X113204053Y-129914869D01*
X113336586Y-129716519D01*
X113422222Y-129286000D01*
X128893778Y-129286000D01*
X129017474Y-129907861D01*
X129369729Y-130435049D01*
X129896917Y-130787304D01*
X130518778Y-130911000D01*
X133641222Y-130911000D01*
X134263083Y-130787304D01*
X134790271Y-130435049D01*
X135142526Y-129907861D01*
X135266222Y-129286000D01*
X135142526Y-128664139D01*
X134790271Y-128136951D01*
X134263083Y-127784696D01*
X133641222Y-127661000D01*
X130518778Y-127661000D01*
X129896917Y-127784696D01*
X129369729Y-128136951D01*
X129017474Y-128664139D01*
X128893778Y-129286000D01*
X113422222Y-129286000D01*
X113336586Y-128855481D01*
X113092717Y-128490505D01*
X112727741Y-128246636D01*
X112297222Y-128161000D01*
X108174778Y-128161000D01*
X107744259Y-128246636D01*
X107379283Y-128490505D01*
X107315000Y-128586711D01*
X107250717Y-128490505D01*
X106885741Y-128246636D01*
X106502248Y-128170354D01*
X106519000Y-128129912D01*
X106519000Y-127787250D01*
X106360750Y-127629000D01*
X104886000Y-127629000D01*
X104886000Y-128004000D01*
X102886000Y-128004000D01*
X102886000Y-127629000D01*
X102491000Y-127629000D01*
X102491000Y-126879000D01*
X102886000Y-126879000D01*
X102886000Y-126504000D01*
X104886000Y-126504000D01*
X104886000Y-126879000D01*
X106360750Y-126879000D01*
X106519000Y-126720750D01*
X106519000Y-126378088D01*
X106461126Y-126238369D01*
X106577083Y-126215304D01*
X107104271Y-125863049D01*
X107315000Y-125547670D01*
X107525729Y-125863049D01*
X108052917Y-126215304D01*
X108674778Y-126339000D01*
X111797222Y-126339000D01*
X112419083Y-126215304D01*
X112540389Y-126134250D01*
X147465000Y-126134250D01*
X147465000Y-126601912D01*
X147561369Y-126834566D01*
X147739435Y-127012632D01*
X147972089Y-127109000D01*
X148439750Y-127109000D01*
X148598000Y-126950750D01*
X148598000Y-125976000D01*
X149598000Y-125976000D01*
X149598000Y-126950750D01*
X149756250Y-127109000D01*
X150223911Y-127109000D01*
X150456565Y-127012632D01*
X150634631Y-126834566D01*
X150731000Y-126601912D01*
X150731000Y-126134250D01*
X150572750Y-125976000D01*
X149598000Y-125976000D01*
X148598000Y-125976000D01*
X147623250Y-125976000D01*
X147465000Y-126134250D01*
X112540389Y-126134250D01*
X112946271Y-125863049D01*
X113298526Y-125335861D01*
X113422222Y-124714000D01*
X113349836Y-124350088D01*
X147465000Y-124350088D01*
X147465000Y-124817750D01*
X147623250Y-124976000D01*
X148598000Y-124976000D01*
X148598000Y-124001250D01*
X149598000Y-124001250D01*
X149598000Y-124976000D01*
X150572750Y-124976000D01*
X150731000Y-124817750D01*
X150731000Y-124476000D01*
X152286756Y-124476000D01*
X152286756Y-126476000D01*
X152330337Y-126707611D01*
X152467219Y-126920332D01*
X152676076Y-127063038D01*
X152924000Y-127113244D01*
X154924000Y-127113244D01*
X155155611Y-127069663D01*
X155368332Y-126932781D01*
X155511038Y-126723924D01*
X155561244Y-126476000D01*
X155561244Y-124476000D01*
X155517663Y-124244389D01*
X155380781Y-124031668D01*
X155171924Y-123888962D01*
X154924000Y-123838756D01*
X152924000Y-123838756D01*
X152692389Y-123882337D01*
X152479668Y-124019219D01*
X152336962Y-124228076D01*
X152286756Y-124476000D01*
X150731000Y-124476000D01*
X150731000Y-124350088D01*
X150634631Y-124117434D01*
X150456565Y-123939368D01*
X150223911Y-123843000D01*
X149756250Y-123843000D01*
X149598000Y-124001250D01*
X148598000Y-124001250D01*
X148439750Y-123843000D01*
X147972089Y-123843000D01*
X147739435Y-123939368D01*
X147561369Y-124117434D01*
X147465000Y-124350088D01*
X113349836Y-124350088D01*
X113298526Y-124092139D01*
X112946271Y-123564951D01*
X112419083Y-123212696D01*
X111797222Y-123089000D01*
X108674778Y-123089000D01*
X108052917Y-123212696D01*
X107525729Y-123564951D01*
X107315000Y-123880330D01*
X107104271Y-123564951D01*
X106577083Y-123212696D01*
X106460962Y-123189598D01*
X106473038Y-123171924D01*
X106523244Y-122924000D01*
X106523244Y-121424000D01*
X106479663Y-121192389D01*
X106407660Y-121080493D01*
X106703824Y-120882602D01*
X107061000Y-120348050D01*
X107418176Y-120882602D01*
X108107576Y-121343244D01*
X108920778Y-121505000D01*
X111043222Y-121505000D01*
X111856424Y-121343244D01*
X112545824Y-120882602D01*
X113006466Y-120193202D01*
X113165039Y-119396000D01*
X147460756Y-119396000D01*
X147460756Y-121396000D01*
X147504337Y-121627611D01*
X147641219Y-121840332D01*
X147850076Y-121983038D01*
X148098000Y-122033244D01*
X150098000Y-122033244D01*
X150329611Y-121989663D01*
X150542332Y-121852781D01*
X150685038Y-121643924D01*
X150735244Y-121396000D01*
X150735244Y-119396000D01*
X152286756Y-119396000D01*
X152286756Y-121396000D01*
X152330337Y-121627611D01*
X152467219Y-121840332D01*
X152676076Y-121983038D01*
X152924000Y-122033244D01*
X154924000Y-122033244D01*
X155155611Y-121989663D01*
X155368332Y-121852781D01*
X155511038Y-121643924D01*
X155561244Y-121396000D01*
X155561244Y-119396000D01*
X155517663Y-119164389D01*
X155380781Y-118951668D01*
X155171924Y-118808962D01*
X154924000Y-118758756D01*
X152924000Y-118758756D01*
X152692389Y-118802337D01*
X152479668Y-118939219D01*
X152336962Y-119148076D01*
X152286756Y-119396000D01*
X150735244Y-119396000D01*
X150691663Y-119164389D01*
X150554781Y-118951668D01*
X150345924Y-118808962D01*
X150098000Y-118758756D01*
X148098000Y-118758756D01*
X147866389Y-118802337D01*
X147653668Y-118939219D01*
X147510962Y-119148076D01*
X147460756Y-119396000D01*
X113165039Y-119396000D01*
X113168222Y-119380000D01*
X113006466Y-118566798D01*
X112545824Y-117877398D01*
X111856424Y-117416756D01*
X111043222Y-117255000D01*
X108920778Y-117255000D01*
X108107576Y-117416756D01*
X107418176Y-117877398D01*
X107061000Y-118411950D01*
X106703824Y-117877398D01*
X106424271Y-117690607D01*
X106519000Y-117461912D01*
X106519000Y-117119250D01*
X106360750Y-116961000D01*
X104886000Y-116961000D01*
X104886000Y-117255000D01*
X103078778Y-117255000D01*
X102886000Y-117293346D01*
X102886000Y-116961000D01*
X102491000Y-116961000D01*
X102491000Y-116211000D01*
X102886000Y-116211000D01*
X102886000Y-115836000D01*
X104886000Y-115836000D01*
X104886000Y-116211000D01*
X106360750Y-116211000D01*
X106519000Y-116052750D01*
X106519000Y-115710088D01*
X106423719Y-115480061D01*
X106850271Y-115195049D01*
X107061000Y-114879670D01*
X107271729Y-115195049D01*
X107798917Y-115547304D01*
X108420778Y-115671000D01*
X111543222Y-115671000D01*
X112165083Y-115547304D01*
X112186116Y-115533250D01*
X150827000Y-115533250D01*
X150827000Y-116125911D01*
X150923368Y-116358565D01*
X151101434Y-116536631D01*
X151334088Y-116633000D01*
X152571750Y-116633000D01*
X152730000Y-116474750D01*
X152730000Y-115375000D01*
X150985250Y-115375000D01*
X150827000Y-115533250D01*
X112186116Y-115533250D01*
X112692271Y-115195049D01*
X113044526Y-114667861D01*
X113168222Y-114046000D01*
X113044526Y-113424139D01*
X113011084Y-113374089D01*
X150827000Y-113374089D01*
X150827000Y-113966750D01*
X150985250Y-114125000D01*
X152730000Y-114125000D01*
X152730000Y-113025250D01*
X152571750Y-112867000D01*
X151334088Y-112867000D01*
X151101434Y-112963369D01*
X150923368Y-113141435D01*
X150827000Y-113374089D01*
X113011084Y-113374089D01*
X112692271Y-112896951D01*
X112165083Y-112544696D01*
X111543222Y-112421000D01*
X108420778Y-112421000D01*
X107798917Y-112544696D01*
X107271729Y-112896951D01*
X107061000Y-113212330D01*
X106850271Y-112896951D01*
X106406909Y-112600707D01*
X106473038Y-112503924D01*
X106523244Y-112256000D01*
X106523244Y-110756000D01*
X106492314Y-110591622D01*
X106885741Y-110513364D01*
X107250717Y-110269495D01*
X107315000Y-110173289D01*
X107379283Y-110269495D01*
X107744259Y-110513364D01*
X108174778Y-110599000D01*
X112297222Y-110599000D01*
X112727741Y-110513364D01*
X113092717Y-110269495D01*
X113336586Y-109904519D01*
X113422222Y-109474000D01*
X113336586Y-109043481D01*
X113092717Y-108678505D01*
X113087033Y-108674707D01*
X113317495Y-108520717D01*
X113561364Y-108155741D01*
X113585729Y-108033250D01*
X150827000Y-108033250D01*
X150827000Y-108625911D01*
X150923368Y-108858565D01*
X151101434Y-109036631D01*
X151334088Y-109133000D01*
X152571750Y-109133000D01*
X152730000Y-108974750D01*
X152730000Y-107875000D01*
X150985250Y-107875000D01*
X150827000Y-108033250D01*
X113585729Y-108033250D01*
X113647000Y-107725222D01*
X113647000Y-105874089D01*
X150827000Y-105874089D01*
X150827000Y-106466750D01*
X150985250Y-106625000D01*
X152730000Y-106625000D01*
X152730000Y-105525250D01*
X152571750Y-105367000D01*
X151334088Y-105367000D01*
X151101434Y-105463369D01*
X150923368Y-105641435D01*
X150827000Y-105874089D01*
X113647000Y-105874089D01*
X113647000Y-103602778D01*
X113602289Y-103378000D01*
X128893778Y-103378000D01*
X129017474Y-103999861D01*
X129369729Y-104527049D01*
X129896917Y-104879304D01*
X130518778Y-105003000D01*
X133641222Y-105003000D01*
X134263083Y-104879304D01*
X134790271Y-104527049D01*
X135142526Y-103999861D01*
X135266222Y-103378000D01*
X135142526Y-102756139D01*
X134790271Y-102228951D01*
X134263083Y-101876696D01*
X133641222Y-101753000D01*
X130518778Y-101753000D01*
X129896917Y-101876696D01*
X129369729Y-102228951D01*
X129017474Y-102756139D01*
X128893778Y-103378000D01*
X113602289Y-103378000D01*
X113561364Y-103172259D01*
X113360658Y-102871882D01*
X113583404Y-102538519D01*
X113669040Y-102108000D01*
X113583404Y-101677481D01*
X113548337Y-101625000D01*
X116061222Y-101625000D01*
X116491741Y-101539364D01*
X116856717Y-101295495D01*
X117100586Y-100930519D01*
X117186222Y-100500000D01*
X117313778Y-100500000D01*
X117399414Y-100930519D01*
X117643283Y-101295495D01*
X118008259Y-101539364D01*
X118438778Y-101625000D01*
X122561222Y-101625000D01*
X122991741Y-101539364D01*
X123356717Y-101295495D01*
X123600586Y-100930519D01*
X123686222Y-100500000D01*
X123813778Y-100500000D01*
X123899414Y-100930519D01*
X124143283Y-101295495D01*
X124508259Y-101539364D01*
X124938778Y-101625000D01*
X129061222Y-101625000D01*
X129491741Y-101539364D01*
X129856717Y-101295495D01*
X130100586Y-100930519D01*
X130186222Y-100500000D01*
X130313778Y-100500000D01*
X130399414Y-100930519D01*
X130643283Y-101295495D01*
X131008259Y-101539364D01*
X131438778Y-101625000D01*
X135561222Y-101625000D01*
X135991741Y-101539364D01*
X136356717Y-101295495D01*
X136600586Y-100930519D01*
X136686222Y-100500000D01*
X136813778Y-100500000D01*
X136899414Y-100930519D01*
X137143283Y-101295495D01*
X137508259Y-101539364D01*
X137938778Y-101625000D01*
X142061222Y-101625000D01*
X142491741Y-101539364D01*
X142856717Y-101295495D01*
X143100586Y-100930519D01*
X143186222Y-100500000D01*
X143313778Y-100500000D01*
X143399414Y-100930519D01*
X143643283Y-101295495D01*
X144008259Y-101539364D01*
X144438778Y-101625000D01*
X148561222Y-101625000D01*
X148991741Y-101539364D01*
X149356717Y-101295495D01*
X149600586Y-100930519D01*
X149686222Y-100500000D01*
X149600586Y-100069481D01*
X149356717Y-99704505D01*
X148991741Y-99460636D01*
X148561222Y-99375000D01*
X144438778Y-99375000D01*
X144008259Y-99460636D01*
X143643283Y-99704505D01*
X143399414Y-100069481D01*
X143313778Y-100500000D01*
X143186222Y-100500000D01*
X143100586Y-100069481D01*
X142856717Y-99704505D01*
X142491741Y-99460636D01*
X142061222Y-99375000D01*
X137938778Y-99375000D01*
X137508259Y-99460636D01*
X137143283Y-99704505D01*
X136899414Y-100069481D01*
X136813778Y-100500000D01*
X136686222Y-100500000D01*
X136600586Y-100069481D01*
X136356717Y-99704505D01*
X135991741Y-99460636D01*
X135561222Y-99375000D01*
X131438778Y-99375000D01*
X131008259Y-99460636D01*
X130643283Y-99704505D01*
X130399414Y-100069481D01*
X130313778Y-100500000D01*
X130186222Y-100500000D01*
X130100586Y-100069481D01*
X129856717Y-99704505D01*
X129491741Y-99460636D01*
X129061222Y-99375000D01*
X124938778Y-99375000D01*
X124508259Y-99460636D01*
X124143283Y-99704505D01*
X123899414Y-100069481D01*
X123813778Y-100500000D01*
X123686222Y-100500000D01*
X123600586Y-100069481D01*
X123356717Y-99704505D01*
X122991741Y-99460636D01*
X122561222Y-99375000D01*
X118438778Y-99375000D01*
X118008259Y-99460636D01*
X117643283Y-99704505D01*
X117399414Y-100069481D01*
X117313778Y-100500000D01*
X117186222Y-100500000D01*
X117100586Y-100069481D01*
X116856717Y-99704505D01*
X116491741Y-99460636D01*
X116061222Y-99375000D01*
X111938778Y-99375000D01*
X111508259Y-99460636D01*
X111143283Y-99704505D01*
X110899414Y-100069481D01*
X110813778Y-100500000D01*
X110899414Y-100930519D01*
X111143283Y-101295495D01*
X111508259Y-101539364D01*
X111547648Y-101547199D01*
X111460596Y-101677481D01*
X111374960Y-102108000D01*
X111460596Y-102538519D01*
X111683342Y-102871882D01*
X111482636Y-103172259D01*
X111397000Y-103602778D01*
X111397000Y-107725222D01*
X111482636Y-108155741D01*
X111611767Y-108349000D01*
X108174778Y-108349000D01*
X107744259Y-108434636D01*
X107379283Y-108678505D01*
X107315000Y-108774711D01*
X107250717Y-108678505D01*
X106885741Y-108434636D01*
X106455222Y-108349000D01*
X102332778Y-108349000D01*
X101902259Y-108434636D01*
X101559029Y-108663975D01*
X101379495Y-108395283D01*
X101282617Y-108330552D01*
X101379495Y-108265820D01*
X101623364Y-107900844D01*
X101709000Y-107470325D01*
X101709000Y-103857675D01*
X101623364Y-103427156D01*
X101422359Y-103126330D01*
X101645404Y-102792519D01*
X101731040Y-102362000D01*
X101645404Y-101931481D01*
X101440620Y-101625000D01*
X102811222Y-101625000D01*
X103241741Y-101539364D01*
X103606717Y-101295495D01*
X103850586Y-100930519D01*
X103936222Y-100500000D01*
X104313778Y-100500000D01*
X104399414Y-100930519D01*
X104643283Y-101295495D01*
X105008259Y-101539364D01*
X105438778Y-101625000D01*
X109561222Y-101625000D01*
X109991741Y-101539364D01*
X110356717Y-101295495D01*
X110600586Y-100930519D01*
X110686222Y-100500000D01*
X110600586Y-100069481D01*
X110356717Y-99704505D01*
X109991741Y-99460636D01*
X109561222Y-99375000D01*
X105438778Y-99375000D01*
X105008259Y-99460636D01*
X104643283Y-99704505D01*
X104399414Y-100069481D01*
X104313778Y-100500000D01*
X103936222Y-100500000D01*
X103850586Y-100069481D01*
X103606717Y-99704505D01*
X103241741Y-99460636D01*
X102811222Y-99375000D01*
X98688778Y-99375000D01*
X98258259Y-99460636D01*
X97893283Y-99704505D01*
X97649414Y-100069481D01*
X97610646Y-100264382D01*
X97588586Y-100153481D01*
X97344717Y-99788505D01*
X96979741Y-99544636D01*
X96549222Y-99459000D01*
X92426778Y-99459000D01*
X91996259Y-99544636D01*
X91631283Y-99788505D01*
X91625000Y-99797908D01*
X91625000Y-97938778D01*
X91539364Y-97508259D01*
X91295495Y-97143283D01*
X91081057Y-97000000D01*
X91295495Y-96856717D01*
X91539364Y-96491741D01*
X91562766Y-96374089D01*
X150327000Y-96374089D01*
X150327000Y-96966750D01*
X150485250Y-97125000D01*
X152230000Y-97125000D01*
X152230000Y-96025250D01*
X152071750Y-95867000D01*
X150834088Y-95867000D01*
X150601434Y-95963369D01*
X150423368Y-96141435D01*
X150327000Y-96374089D01*
X91562766Y-96374089D01*
X91625000Y-96061222D01*
X91625000Y-94271324D01*
X99124676Y-94271324D01*
X99409526Y-94960714D01*
X99936511Y-95488620D01*
X100625403Y-95774673D01*
X101371324Y-95775324D01*
X102060714Y-95490474D01*
X102588620Y-94963489D01*
X102874673Y-94274597D01*
X102875324Y-93528676D01*
X102590474Y-92839286D01*
X102063489Y-92311380D01*
X101374597Y-92025327D01*
X100628676Y-92024676D01*
X99939286Y-92309526D01*
X99411380Y-92836511D01*
X99125327Y-93525403D01*
X99124676Y-94271324D01*
X91625000Y-94271324D01*
X91625000Y-91938778D01*
X91591692Y-91771324D01*
X94084676Y-91771324D01*
X94369526Y-92460714D01*
X94896511Y-92988620D01*
X95585403Y-93274673D01*
X96331324Y-93275324D01*
X97020714Y-92990474D01*
X97548620Y-92463489D01*
X97834673Y-91774597D01*
X97835320Y-91033250D01*
X150327000Y-91033250D01*
X150327000Y-91625911D01*
X150423368Y-91858565D01*
X150601434Y-92036631D01*
X150834088Y-92133000D01*
X152071750Y-92133000D01*
X152230000Y-91974750D01*
X152230000Y-90875000D01*
X150485250Y-90875000D01*
X150327000Y-91033250D01*
X97835320Y-91033250D01*
X97835324Y-91028676D01*
X97550474Y-90339286D01*
X97023489Y-89811380D01*
X96334597Y-89525327D01*
X95588676Y-89524676D01*
X94899286Y-89809526D01*
X94371380Y-90336511D01*
X94085327Y-91025403D01*
X94084676Y-91771324D01*
X91591692Y-91771324D01*
X91539364Y-91508259D01*
X91295495Y-91143283D01*
X91081057Y-91000000D01*
X91295495Y-90856717D01*
X91539364Y-90491741D01*
X91625000Y-90061222D01*
X91625000Y-89271324D01*
X99124676Y-89271324D01*
X99409526Y-89960714D01*
X99936511Y-90488620D01*
X100625403Y-90774673D01*
X101371324Y-90775324D01*
X102060714Y-90490474D01*
X102588620Y-89963489D01*
X102874673Y-89274597D01*
X102875022Y-88874089D01*
X150327000Y-88874089D01*
X150327000Y-89466750D01*
X150485250Y-89625000D01*
X152230000Y-89625000D01*
X152230000Y-88525250D01*
X152071750Y-88367000D01*
X150834088Y-88367000D01*
X150601434Y-88463369D01*
X150423368Y-88641435D01*
X150327000Y-88874089D01*
X102875022Y-88874089D01*
X102875324Y-88528676D01*
X102590474Y-87839286D01*
X102063489Y-87311380D01*
X101374597Y-87025327D01*
X100628676Y-87024676D01*
X99939286Y-87309526D01*
X99411380Y-87836511D01*
X99125327Y-88525403D01*
X99124676Y-89271324D01*
X91625000Y-89271324D01*
X91625000Y-85938778D01*
X91539364Y-85508259D01*
X91295495Y-85143283D01*
X91081057Y-85000000D01*
X91295495Y-84856717D01*
X91539364Y-84491741D01*
X91625000Y-84061222D01*
X91625000Y-81450000D01*
X93612756Y-81450000D01*
X93612756Y-84950000D01*
X93656337Y-85181611D01*
X93793219Y-85394332D01*
X94002076Y-85537038D01*
X94250000Y-85587244D01*
X97750000Y-85587244D01*
X97981611Y-85543663D01*
X98194332Y-85406781D01*
X98337038Y-85197924D01*
X98387244Y-84950000D01*
X98387244Y-82033250D01*
X150327000Y-82033250D01*
X150327000Y-82625911D01*
X150423368Y-82858565D01*
X150601434Y-83036631D01*
X150834088Y-83133000D01*
X152071750Y-83133000D01*
X152230000Y-82974750D01*
X152230000Y-81875000D01*
X150485250Y-81875000D01*
X150327000Y-82033250D01*
X98387244Y-82033250D01*
X98387244Y-81450000D01*
X98343663Y-81218389D01*
X98206781Y-81005668D01*
X98033462Y-80887244D01*
X100750000Y-80887244D01*
X100981611Y-80843663D01*
X101194332Y-80706781D01*
X101337038Y-80497924D01*
X101387244Y-80250000D01*
X101387244Y-78641324D01*
X130884676Y-78641324D01*
X131169526Y-79330714D01*
X131696511Y-79858620D01*
X132385403Y-80144673D01*
X133131324Y-80145324D01*
X133787763Y-79874089D01*
X150327000Y-79874089D01*
X150327000Y-80466750D01*
X150485250Y-80625000D01*
X152230000Y-80625000D01*
X152230000Y-79525250D01*
X152071750Y-79367000D01*
X150834088Y-79367000D01*
X150601434Y-79463369D01*
X150423368Y-79641435D01*
X150327000Y-79874089D01*
X133787763Y-79874089D01*
X133820714Y-79860474D01*
X134348620Y-79333489D01*
X134634673Y-78644597D01*
X134635324Y-77898676D01*
X134350474Y-77209286D01*
X133823489Y-76681380D01*
X133134597Y-76395327D01*
X132388676Y-76394676D01*
X131699286Y-76679526D01*
X131171380Y-77206511D01*
X130885327Y-77895403D01*
X130884676Y-78641324D01*
X101387244Y-78641324D01*
X101387244Y-76871324D01*
X115624676Y-76871324D01*
X115909526Y-77560714D01*
X116436511Y-78088620D01*
X117125403Y-78374673D01*
X117871324Y-78375324D01*
X118560714Y-78090474D01*
X119088620Y-77563489D01*
X119374673Y-76874597D01*
X119375324Y-76128676D01*
X119090474Y-75439286D01*
X118563489Y-74911380D01*
X117874597Y-74625327D01*
X117128676Y-74624676D01*
X116439286Y-74909526D01*
X115911380Y-75436511D01*
X115625327Y-76125403D01*
X115624676Y-76871324D01*
X101387244Y-76871324D01*
X101387244Y-76750000D01*
X101343663Y-76518389D01*
X101206781Y-76305668D01*
X100997924Y-76162962D01*
X100750000Y-76112756D01*
X97250000Y-76112756D01*
X97018389Y-76156337D01*
X96805668Y-76293219D01*
X96662962Y-76502076D01*
X96612756Y-76750000D01*
X96612756Y-80250000D01*
X96656337Y-80481611D01*
X96793219Y-80694332D01*
X96966538Y-80812756D01*
X95045496Y-80812756D01*
X95108565Y-80786632D01*
X95286631Y-80608566D01*
X95383000Y-80375912D01*
X95383000Y-79533250D01*
X95224750Y-79375000D01*
X93875000Y-79375000D01*
X93875000Y-80724750D01*
X94011208Y-80860958D01*
X93805668Y-80993219D01*
X93662962Y-81202076D01*
X93612756Y-81450000D01*
X91625000Y-81450000D01*
X91625000Y-80883000D01*
X91966750Y-80883000D01*
X92125000Y-80724750D01*
X92125000Y-79375000D01*
X91605000Y-79375000D01*
X91605000Y-78161768D01*
X91625000Y-78061222D01*
X91625000Y-77625000D01*
X92125000Y-77625000D01*
X92125000Y-76275250D01*
X93875000Y-76275250D01*
X93875000Y-77625000D01*
X95224750Y-77625000D01*
X95383000Y-77466750D01*
X95383000Y-76624088D01*
X95286631Y-76391434D01*
X95108565Y-76213368D01*
X94875911Y-76117000D01*
X94033250Y-76117000D01*
X93875000Y-76275250D01*
X92125000Y-76275250D01*
X91966750Y-76117000D01*
X91625000Y-76117000D01*
X91625000Y-74371324D01*
X110584676Y-74371324D01*
X110869526Y-75060714D01*
X111396511Y-75588620D01*
X112085403Y-75874673D01*
X112831324Y-75875324D01*
X113520714Y-75590474D01*
X114048620Y-75063489D01*
X114334673Y-74374597D01*
X114335324Y-73628676D01*
X114324023Y-73601324D01*
X128384676Y-73601324D01*
X128669526Y-74290714D01*
X129196511Y-74818620D01*
X129885403Y-75104673D01*
X130631324Y-75105324D01*
X131320714Y-74820474D01*
X131848620Y-74293489D01*
X132134673Y-73604597D01*
X132134675Y-73601324D01*
X133384676Y-73601324D01*
X133669526Y-74290714D01*
X134196511Y-74818620D01*
X134885403Y-75104673D01*
X135631324Y-75105324D01*
X136320714Y-74820474D01*
X136608439Y-74533250D01*
X150327000Y-74533250D01*
X150327000Y-75125911D01*
X150423368Y-75358565D01*
X150601434Y-75536631D01*
X150834088Y-75633000D01*
X152071750Y-75633000D01*
X152230000Y-75474750D01*
X152230000Y-74375000D01*
X150485250Y-74375000D01*
X150327000Y-74533250D01*
X136608439Y-74533250D01*
X136848620Y-74293489D01*
X137134673Y-73604597D01*
X137135324Y-72858676D01*
X136935097Y-72374089D01*
X150327000Y-72374089D01*
X150327000Y-72966750D01*
X150485250Y-73125000D01*
X152230000Y-73125000D01*
X152230000Y-72025250D01*
X152071750Y-71867000D01*
X150834088Y-71867000D01*
X150601434Y-71963369D01*
X150423368Y-72141435D01*
X150327000Y-72374089D01*
X136935097Y-72374089D01*
X136850474Y-72169286D01*
X136323489Y-71641380D01*
X135634597Y-71355327D01*
X134888676Y-71354676D01*
X134199286Y-71639526D01*
X133671380Y-72166511D01*
X133385327Y-72855403D01*
X133384676Y-73601324D01*
X132134675Y-73601324D01*
X132135324Y-72858676D01*
X131850474Y-72169286D01*
X131323489Y-71641380D01*
X130634597Y-71355327D01*
X129888676Y-71354676D01*
X129199286Y-71639526D01*
X128671380Y-72166511D01*
X128385327Y-72855403D01*
X128384676Y-73601324D01*
X114324023Y-73601324D01*
X114050474Y-72939286D01*
X113523489Y-72411380D01*
X112834597Y-72125327D01*
X112088676Y-72124676D01*
X111399286Y-72409526D01*
X110871380Y-72936511D01*
X110585327Y-73625403D01*
X110584676Y-74371324D01*
X91625000Y-74371324D01*
X91625000Y-73938778D01*
X91539364Y-73508259D01*
X91295495Y-73143283D01*
X91081057Y-73000000D01*
X91295495Y-72856717D01*
X91539364Y-72491741D01*
X91625000Y-72061222D01*
X91625000Y-71871324D01*
X115624676Y-71871324D01*
X115909526Y-72560714D01*
X116436511Y-73088620D01*
X117125403Y-73374673D01*
X117871324Y-73375324D01*
X118560714Y-73090474D01*
X119088620Y-72563489D01*
X119374673Y-71874597D01*
X119375324Y-71128676D01*
X119090474Y-70439286D01*
X118563489Y-69911380D01*
X118198926Y-69760000D01*
X123650001Y-69760000D01*
X123710896Y-70066147D01*
X123884315Y-70325685D01*
X124143853Y-70499104D01*
X124450000Y-70559999D01*
X124756147Y-70499104D01*
X125015685Y-70325685D01*
X125155685Y-70185685D01*
X125329104Y-69926147D01*
X125389999Y-69620000D01*
X125329104Y-69313853D01*
X125155685Y-69054315D01*
X124896147Y-68880896D01*
X124590000Y-68820001D01*
X124283853Y-68880896D01*
X124024315Y-69054315D01*
X123884315Y-69194315D01*
X123710896Y-69453853D01*
X123650001Y-69760000D01*
X118198926Y-69760000D01*
X117874597Y-69625327D01*
X117128676Y-69624676D01*
X116439286Y-69909526D01*
X115911380Y-70436511D01*
X115625327Y-71125403D01*
X115624676Y-71871324D01*
X91625000Y-71871324D01*
X91625000Y-67938778D01*
X91539364Y-67508259D01*
X91295495Y-67143283D01*
X90930519Y-66899414D01*
X90582854Y-66830259D01*
X90830519Y-66780995D01*
X91195495Y-66537126D01*
X91439364Y-66172150D01*
X91525000Y-65741631D01*
X91525000Y-64750000D01*
X91813778Y-64750000D01*
X91899414Y-65180519D01*
X92143283Y-65545495D01*
X92508259Y-65789364D01*
X92938778Y-65875000D01*
X97061222Y-65875000D01*
X97491741Y-65789364D01*
X97856717Y-65545495D01*
X98100586Y-65180519D01*
X98186222Y-64750000D01*
X98100586Y-64319481D01*
X97856717Y-63954505D01*
X97491741Y-63710636D01*
X97061222Y-63625000D01*
X92938778Y-63625000D01*
X92508259Y-63710636D01*
X92143283Y-63954505D01*
X91899414Y-64319481D01*
X91813778Y-64750000D01*
X91525000Y-64750000D01*
X91525000Y-63658369D01*
X91439364Y-63227850D01*
X91195495Y-62862874D01*
X90832217Y-62620140D01*
X90930519Y-62600586D01*
X91295495Y-62356717D01*
X91539364Y-61991741D01*
X91625000Y-61561222D01*
X91625000Y-57438778D01*
X91539364Y-57008259D01*
X91295495Y-56643283D01*
X91264468Y-56622552D01*
X91295495Y-56601820D01*
X91539364Y-56236844D01*
X91625000Y-55806325D01*
X91625000Y-52193675D01*
X91539364Y-51763156D01*
X91295495Y-51398180D01*
X91077392Y-51252449D01*
X91295495Y-51106717D01*
X91539364Y-50741741D01*
X91625000Y-50311222D01*
X91625000Y-46188778D01*
X91539364Y-45758259D01*
X91295495Y-45393283D01*
X90930519Y-45149414D01*
X90807782Y-45125000D01*
X90930519Y-45100586D01*
X91295495Y-44856717D01*
X91539364Y-44491741D01*
X91625000Y-44061222D01*
X91625000Y-39938778D01*
X91539364Y-39508259D01*
X91295495Y-39143283D01*
X90930519Y-38899414D01*
X90500000Y-38813778D01*
X90069481Y-38899414D01*
X89704505Y-39143283D01*
X89460636Y-39508259D01*
X89375000Y-39938778D01*
X89375000Y-44061222D01*
X89460636Y-44491741D01*
X89704505Y-44856717D01*
X90069481Y-45100586D01*
X90192218Y-45125000D01*
X90069481Y-45149414D01*
X89704505Y-45393283D01*
X89460636Y-45758259D01*
X89375000Y-46188778D01*
X89375000Y-50311222D01*
X89460636Y-50741741D01*
X89704505Y-51106717D01*
X89922608Y-51252449D01*
X89704505Y-51398180D01*
X89460636Y-51763156D01*
X89375000Y-52193675D01*
X89375000Y-55806325D01*
X89460636Y-56236844D01*
X89704505Y-56601820D01*
X89735532Y-56622551D01*
X89704505Y-56643283D01*
X89460636Y-57008259D01*
X89375000Y-57438778D01*
X89375000Y-61561222D01*
X89460636Y-61991741D01*
X89704505Y-62356717D01*
X90067783Y-62599451D01*
X89969481Y-62619005D01*
X89604505Y-62862874D01*
X89360636Y-63227850D01*
X89275000Y-63658369D01*
X89275000Y-65741631D01*
X89360636Y-66172150D01*
X89604505Y-66537126D01*
X89969481Y-66780995D01*
X90317146Y-66850150D01*
X90069481Y-66899414D01*
X89704505Y-67143283D01*
X89460636Y-67508259D01*
X89375000Y-67938778D01*
X89375000Y-72061222D01*
X89460636Y-72491741D01*
X89704505Y-72856717D01*
X89918943Y-73000000D01*
X89704505Y-73143283D01*
X89460636Y-73508259D01*
X89375000Y-73938778D01*
X89375000Y-78061222D01*
X89460636Y-78491741D01*
X89704505Y-78856717D01*
X89918943Y-79000000D01*
X89704505Y-79143283D01*
X89460636Y-79508259D01*
X89375000Y-79938778D01*
X89375000Y-84061222D01*
X89460636Y-84491741D01*
X89704505Y-84856717D01*
X89918943Y-85000000D01*
X89704505Y-85143283D01*
X89460636Y-85508259D01*
X89375000Y-85938778D01*
X89375000Y-90061222D01*
X89460636Y-90491741D01*
X89704505Y-90856717D01*
X89918943Y-91000000D01*
X89704505Y-91143283D01*
X89460636Y-91508259D01*
X89375000Y-91938778D01*
X89375000Y-96061222D01*
X89460636Y-96491741D01*
X89704505Y-96856717D01*
X89918943Y-97000000D01*
X89704505Y-97143283D01*
X89460636Y-97508259D01*
X89375000Y-97938778D01*
X89375000Y-102061222D01*
X89460636Y-102491741D01*
X89704505Y-102856717D01*
X90069481Y-103100586D01*
X90192218Y-103125000D01*
X90069481Y-103149414D01*
X89704505Y-103393283D01*
X89460636Y-103758259D01*
X89375000Y-104188778D01*
X89375000Y-108311222D01*
X89460636Y-108741741D01*
X89704505Y-109106717D01*
X89918943Y-109250000D01*
X89704505Y-109393283D01*
X89460636Y-109758259D01*
X89375000Y-110188778D01*
X89375000Y-114311222D01*
X89460636Y-114741741D01*
X89704505Y-115106717D01*
X89918943Y-115250000D01*
X89704505Y-115393283D01*
X89460636Y-115758259D01*
X89375000Y-116188778D01*
X89375000Y-120311222D01*
X89460636Y-120741741D01*
X89704505Y-121106717D01*
X89918943Y-121250000D01*
X89704505Y-121393283D01*
X89460636Y-121758259D01*
X89375000Y-122188778D01*
X89375000Y-126311222D01*
X89460636Y-126741741D01*
X89633199Y-127000000D01*
X89460636Y-127258259D01*
X89375000Y-127688778D01*
X89375000Y-131300000D01*
X88633000Y-131300000D01*
X88633000Y-130928250D01*
X88474750Y-130770000D01*
X87375000Y-130770000D01*
X87375000Y-130895000D01*
X86125000Y-130895000D01*
X86125000Y-130770000D01*
X85025250Y-130770000D01*
X84867000Y-130928250D01*
X84867000Y-131300000D01*
X81133000Y-131300000D01*
X81133000Y-130928250D01*
X80974750Y-130770000D01*
X79875000Y-130770000D01*
X79875000Y-130895000D01*
X78625000Y-130895000D01*
X78625000Y-130770000D01*
X77525250Y-130770000D01*
X77367000Y-130928250D01*
X77367000Y-131300000D01*
X70633000Y-131300000D01*
X70633000Y-130928250D01*
X70474750Y-130770000D01*
X69375000Y-130770000D01*
X69375000Y-130895000D01*
X68125000Y-130895000D01*
X68125000Y-130770000D01*
X67025250Y-130770000D01*
X66867000Y-130928250D01*
X66867000Y-131300000D01*
X63133000Y-131300000D01*
X63133000Y-130928250D01*
X62974750Y-130770000D01*
X61875000Y-130770000D01*
X61875000Y-130895000D01*
X60625000Y-130895000D01*
X60625000Y-130770000D01*
X59525250Y-130770000D01*
X59367000Y-130928250D01*
X59367000Y-131300000D01*
X57700000Y-131300000D01*
X57700000Y-128133000D01*
X58571750Y-128133000D01*
X58624998Y-128079752D01*
X58624998Y-128133000D01*
X59428250Y-128133000D01*
X59525250Y-128230000D01*
X60625000Y-128230000D01*
X60625000Y-128133000D01*
X61375002Y-128133000D01*
X61375002Y-128079752D01*
X61428250Y-128133000D01*
X61875000Y-128133000D01*
X61875000Y-128230000D01*
X62974750Y-128230000D01*
X63133000Y-128071750D01*
X63133000Y-127722480D01*
X63173000Y-127625911D01*
X63173000Y-127033250D01*
X63133000Y-126993250D01*
X63133000Y-126834088D01*
X66867000Y-126834088D01*
X66867000Y-128071750D01*
X67025250Y-128230000D01*
X68125000Y-128230000D01*
X68125000Y-126485250D01*
X69375000Y-126485250D01*
X69375000Y-128230000D01*
X70474750Y-128230000D01*
X70633000Y-128071750D01*
X70633000Y-126834088D01*
X77367000Y-126834088D01*
X77367000Y-128071750D01*
X77525250Y-128230000D01*
X78625000Y-128230000D01*
X78625000Y-126485250D01*
X79875000Y-126485250D01*
X79875000Y-128230000D01*
X80974750Y-128230000D01*
X81133000Y-128071750D01*
X81133000Y-126834088D01*
X84867000Y-126834088D01*
X84867000Y-128071750D01*
X85025250Y-128230000D01*
X86125000Y-128230000D01*
X86125000Y-126485250D01*
X87375000Y-126485250D01*
X87375000Y-128230000D01*
X88474750Y-128230000D01*
X88633000Y-128071750D01*
X88633000Y-126834088D01*
X88536631Y-126601434D01*
X88358565Y-126423368D01*
X88125911Y-126327000D01*
X87533250Y-126327000D01*
X87375000Y-126485250D01*
X86125000Y-126485250D01*
X85966750Y-126327000D01*
X85374089Y-126327000D01*
X85141435Y-126423368D01*
X84963369Y-126601434D01*
X84867000Y-126834088D01*
X81133000Y-126834088D01*
X81036631Y-126601434D01*
X80858565Y-126423368D01*
X80625911Y-126327000D01*
X80033250Y-126327000D01*
X79875000Y-126485250D01*
X78625000Y-126485250D01*
X78466750Y-126327000D01*
X77874089Y-126327000D01*
X77641435Y-126423368D01*
X77463369Y-126601434D01*
X77367000Y-126834088D01*
X70633000Y-126834088D01*
X70536631Y-126601434D01*
X70358565Y-126423368D01*
X70125911Y-126327000D01*
X69533250Y-126327000D01*
X69375000Y-126485250D01*
X68125000Y-126485250D01*
X67966750Y-126327000D01*
X67374089Y-126327000D01*
X67141435Y-126423368D01*
X66963369Y-126601434D01*
X66867000Y-126834088D01*
X63133000Y-126834088D01*
X63036631Y-126601434D01*
X62858565Y-126423368D01*
X62625911Y-126327000D01*
X62033250Y-126327000D01*
X61875000Y-126485250D01*
X61875000Y-126875000D01*
X61270000Y-126875000D01*
X61270000Y-127500000D01*
X60625000Y-127500000D01*
X60625000Y-126485250D01*
X60466750Y-126327000D01*
X59874089Y-126327000D01*
X59641435Y-126423368D01*
X59463369Y-126601434D01*
X59367000Y-126834088D01*
X59367000Y-127500000D01*
X58730000Y-127500000D01*
X58730000Y-126875000D01*
X58605000Y-126875000D01*
X58605000Y-125625000D01*
X58730000Y-125625000D01*
X58730000Y-124525250D01*
X61270000Y-124525250D01*
X61270000Y-125625000D01*
X63014750Y-125625000D01*
X63173000Y-125466750D01*
X63173000Y-124874089D01*
X63093447Y-124682029D01*
X63413180Y-124682029D01*
X63645246Y-125029396D01*
X64107966Y-125376854D01*
X64325000Y-125302581D01*
X64325000Y-124465000D01*
X65175000Y-124465000D01*
X65175000Y-125302581D01*
X65392034Y-125376854D01*
X65854754Y-125029396D01*
X66086820Y-124682029D01*
X66004726Y-124465000D01*
X65175000Y-124465000D01*
X64325000Y-124465000D01*
X63495274Y-124465000D01*
X63413180Y-124682029D01*
X63093447Y-124682029D01*
X63076632Y-124641435D01*
X62898566Y-124463369D01*
X62665912Y-124367000D01*
X61428250Y-124367000D01*
X61270000Y-124525250D01*
X58730000Y-124525250D01*
X58571750Y-124367000D01*
X57700000Y-124367000D01*
X57700000Y-120650000D01*
X63262756Y-120650000D01*
X63262756Y-122350000D01*
X63306337Y-122581611D01*
X63374998Y-122688313D01*
X63374998Y-123190000D01*
X63552120Y-123190000D01*
X63413180Y-123397971D01*
X63495274Y-123615000D01*
X64325000Y-123615000D01*
X64325000Y-123190000D01*
X65175000Y-123190000D01*
X65175000Y-123615000D01*
X66004726Y-123615000D01*
X66086820Y-123397971D01*
X65947880Y-123190000D01*
X66125002Y-123190000D01*
X66125002Y-122688717D01*
X66187038Y-122597924D01*
X66237244Y-122350000D01*
X66237244Y-120650000D01*
X66193663Y-120418389D01*
X66056781Y-120205668D01*
X65847924Y-120062962D01*
X65600000Y-120012756D01*
X63900000Y-120012756D01*
X63668389Y-120056337D01*
X63455668Y-120193219D01*
X63312962Y-120402076D01*
X63262756Y-120650000D01*
X57700000Y-120650000D01*
X57700000Y-120633000D01*
X58571750Y-120633000D01*
X58730000Y-120474750D01*
X58730000Y-119375000D01*
X61270000Y-119375000D01*
X61270000Y-120474750D01*
X61428250Y-120633000D01*
X62665912Y-120633000D01*
X62898566Y-120536631D01*
X63076632Y-120358565D01*
X63173000Y-120125911D01*
X63173000Y-119533250D01*
X63014750Y-119375000D01*
X61270000Y-119375000D01*
X58730000Y-119375000D01*
X58605000Y-119375000D01*
X58605000Y-118125000D01*
X58730000Y-118125000D01*
X58730000Y-117025250D01*
X61270000Y-117025250D01*
X61270000Y-118125000D01*
X63014750Y-118125000D01*
X63173000Y-117966750D01*
X63173000Y-117374089D01*
X63076632Y-117141435D01*
X62898566Y-116963369D01*
X62665912Y-116867000D01*
X61428250Y-116867000D01*
X61270000Y-117025250D01*
X58730000Y-117025250D01*
X58571750Y-116867000D01*
X57700000Y-116867000D01*
X57700000Y-111133000D01*
X58571750Y-111133000D01*
X58730000Y-110974750D01*
X58730000Y-109875000D01*
X61270000Y-109875000D01*
X61270000Y-110974750D01*
X61428250Y-111133000D01*
X62665912Y-111133000D01*
X62898566Y-111036631D01*
X63076632Y-110858565D01*
X63173000Y-110625911D01*
X63173000Y-110033250D01*
X63014750Y-109875000D01*
X61270000Y-109875000D01*
X58730000Y-109875000D01*
X58605000Y-109875000D01*
X58605000Y-108625000D01*
X58730000Y-108625000D01*
X58730000Y-107525250D01*
X61270000Y-107525250D01*
X61270000Y-108625000D01*
X63014750Y-108625000D01*
X63173000Y-108466750D01*
X63173000Y-107882029D01*
X63263180Y-107882029D01*
X63495246Y-108229396D01*
X63957966Y-108576854D01*
X64175000Y-108502581D01*
X64175000Y-107665000D01*
X65025000Y-107665000D01*
X65025000Y-108502581D01*
X65242034Y-108576854D01*
X65704754Y-108229396D01*
X65936820Y-107882029D01*
X65854726Y-107665000D01*
X65025000Y-107665000D01*
X64175000Y-107665000D01*
X63345274Y-107665000D01*
X63263180Y-107882029D01*
X63173000Y-107882029D01*
X63173000Y-107874089D01*
X63076632Y-107641435D01*
X62898566Y-107463369D01*
X62665912Y-107367000D01*
X61428250Y-107367000D01*
X61270000Y-107525250D01*
X58730000Y-107525250D01*
X58571750Y-107367000D01*
X57700000Y-107367000D01*
X57700000Y-103850000D01*
X63112756Y-103850000D01*
X63112756Y-105550000D01*
X63156337Y-105781611D01*
X63224998Y-105888313D01*
X63224998Y-106390000D01*
X63402120Y-106390000D01*
X63263180Y-106597971D01*
X63345274Y-106815000D01*
X64175000Y-106815000D01*
X64175000Y-106390000D01*
X65025000Y-106390000D01*
X65025000Y-106815000D01*
X65854726Y-106815000D01*
X65936820Y-106597971D01*
X65797880Y-106390000D01*
X65975002Y-106390000D01*
X65975002Y-105888717D01*
X66037038Y-105797924D01*
X66087244Y-105550000D01*
X66087244Y-103850000D01*
X66043663Y-103618389D01*
X65906781Y-103405668D01*
X65697924Y-103262962D01*
X65450000Y-103212756D01*
X63750000Y-103212756D01*
X63518389Y-103256337D01*
X63305668Y-103393219D01*
X63162962Y-103602076D01*
X63112756Y-103850000D01*
X57700000Y-103850000D01*
X57700000Y-103633000D01*
X58571750Y-103633000D01*
X58730000Y-103474750D01*
X58730000Y-102375000D01*
X61270000Y-102375000D01*
X61270000Y-103474750D01*
X61428250Y-103633000D01*
X62665912Y-103633000D01*
X62898566Y-103536631D01*
X63076632Y-103358565D01*
X63173000Y-103125911D01*
X63173000Y-102533250D01*
X63014750Y-102375000D01*
X61270000Y-102375000D01*
X58730000Y-102375000D01*
X58605000Y-102375000D01*
X58605000Y-101125000D01*
X58730000Y-101125000D01*
X58730000Y-100025250D01*
X61270000Y-100025250D01*
X61270000Y-101125000D01*
X63014750Y-101125000D01*
X63173000Y-100966750D01*
X63173000Y-100374089D01*
X63076632Y-100141435D01*
X62898566Y-99963369D01*
X62665912Y-99867000D01*
X61428250Y-99867000D01*
X61270000Y-100025250D01*
X58730000Y-100025250D01*
X58571750Y-99867000D01*
X57700000Y-99867000D01*
X57700000Y-93633000D01*
X58571750Y-93633000D01*
X58730000Y-93474750D01*
X58730000Y-92375000D01*
X61270000Y-92375000D01*
X61270000Y-93474750D01*
X61428250Y-93633000D01*
X62665912Y-93633000D01*
X62898566Y-93536631D01*
X63076632Y-93358565D01*
X63173000Y-93125911D01*
X63173000Y-92533250D01*
X63014750Y-92375000D01*
X61270000Y-92375000D01*
X58730000Y-92375000D01*
X58605000Y-92375000D01*
X58605000Y-91425000D01*
X63987756Y-91425000D01*
X63987756Y-93425000D01*
X64031337Y-93656611D01*
X64168219Y-93869332D01*
X64377076Y-94012038D01*
X64625000Y-94062244D01*
X66625000Y-94062244D01*
X66856611Y-94018663D01*
X67069332Y-93881781D01*
X67212038Y-93672924D01*
X67262244Y-93425000D01*
X67262244Y-91425000D01*
X68737756Y-91425000D01*
X68737756Y-93425000D01*
X68781337Y-93656611D01*
X68918219Y-93869332D01*
X69127076Y-94012038D01*
X69375000Y-94062244D01*
X71375000Y-94062244D01*
X71606611Y-94018663D01*
X71819332Y-93881781D01*
X71962038Y-93672924D01*
X72012244Y-93425000D01*
X72012244Y-91425000D01*
X71968663Y-91193389D01*
X71831781Y-90980668D01*
X71622924Y-90837962D01*
X71375000Y-90787756D01*
X69375000Y-90787756D01*
X69143389Y-90831337D01*
X68930668Y-90968219D01*
X68787962Y-91177076D01*
X68737756Y-91425000D01*
X67262244Y-91425000D01*
X67218663Y-91193389D01*
X67081781Y-90980668D01*
X66872924Y-90837962D01*
X66625000Y-90787756D01*
X64625000Y-90787756D01*
X64393389Y-90831337D01*
X64180668Y-90968219D01*
X64037962Y-91177076D01*
X63987756Y-91425000D01*
X58605000Y-91425000D01*
X58605000Y-91125000D01*
X58730000Y-91125000D01*
X58730000Y-90025250D01*
X61270000Y-90025250D01*
X61270000Y-91125000D01*
X63014750Y-91125000D01*
X63173000Y-90966750D01*
X63173000Y-90374089D01*
X63076632Y-90141435D01*
X62898566Y-89963369D01*
X62665912Y-89867000D01*
X61428250Y-89867000D01*
X61270000Y-90025250D01*
X58730000Y-90025250D01*
X58571750Y-89867000D01*
X57700000Y-89867000D01*
X57700000Y-89308250D01*
X64092000Y-89308250D01*
X64092000Y-89775912D01*
X64188369Y-90008566D01*
X64366435Y-90186632D01*
X64599089Y-90283000D01*
X65066750Y-90283000D01*
X65225000Y-90124750D01*
X65225000Y-89150000D01*
X66225000Y-89150000D01*
X66225000Y-90124750D01*
X66383250Y-90283000D01*
X66850911Y-90283000D01*
X67083565Y-90186632D01*
X67261631Y-90008566D01*
X67358000Y-89775912D01*
X67358000Y-89308250D01*
X67199750Y-89150000D01*
X66225000Y-89150000D01*
X65225000Y-89150000D01*
X64250250Y-89150000D01*
X64092000Y-89308250D01*
X57700000Y-89308250D01*
X57700000Y-87524088D01*
X64092000Y-87524088D01*
X64092000Y-87991750D01*
X64250250Y-88150000D01*
X65225000Y-88150000D01*
X65225000Y-87175250D01*
X66225000Y-87175250D01*
X66225000Y-88150000D01*
X67199750Y-88150000D01*
X67358000Y-87991750D01*
X67358000Y-87675000D01*
X68537756Y-87675000D01*
X68537756Y-89675000D01*
X68581337Y-89906611D01*
X68718219Y-90119332D01*
X68927076Y-90262038D01*
X69175000Y-90312244D01*
X71175000Y-90312244D01*
X71406611Y-90268663D01*
X71619332Y-90131781D01*
X71762038Y-89922924D01*
X71812244Y-89675000D01*
X71812244Y-89250000D01*
X72387756Y-89250000D01*
X72387756Y-90950000D01*
X72431337Y-91181611D01*
X72568219Y-91394332D01*
X72777076Y-91537038D01*
X73025000Y-91587244D01*
X74725000Y-91587244D01*
X74956611Y-91543663D01*
X75063313Y-91475002D01*
X75565000Y-91475002D01*
X75565000Y-91297880D01*
X75772971Y-91436820D01*
X75990000Y-91354726D01*
X75990000Y-90525000D01*
X76840000Y-90525000D01*
X76840000Y-91354726D01*
X77057029Y-91436820D01*
X77404396Y-91204754D01*
X77751854Y-90742034D01*
X77677581Y-90525000D01*
X76840000Y-90525000D01*
X75990000Y-90525000D01*
X75565000Y-90525000D01*
X75565000Y-89675000D01*
X75990000Y-89675000D01*
X75990000Y-88845274D01*
X76840000Y-88845274D01*
X76840000Y-89675000D01*
X77677581Y-89675000D01*
X77716936Y-89560000D01*
X81442756Y-89560000D01*
X81442756Y-91260000D01*
X81486337Y-91491611D01*
X81623219Y-91704332D01*
X81832076Y-91847038D01*
X82080000Y-91897244D01*
X83780000Y-91897244D01*
X84011611Y-91853663D01*
X84118313Y-91785002D01*
X84620000Y-91785002D01*
X84620000Y-91607880D01*
X84827971Y-91746820D01*
X85045000Y-91664726D01*
X85045000Y-90835000D01*
X85895000Y-90835000D01*
X85895000Y-91664726D01*
X86112029Y-91746820D01*
X86459396Y-91514754D01*
X86806854Y-91052034D01*
X86732581Y-90835000D01*
X85895000Y-90835000D01*
X85045000Y-90835000D01*
X84620000Y-90835000D01*
X84620000Y-89985000D01*
X85045000Y-89985000D01*
X85045000Y-89155274D01*
X85895000Y-89155274D01*
X85895000Y-89985000D01*
X86732581Y-89985000D01*
X86806854Y-89767966D01*
X86459396Y-89305246D01*
X86112029Y-89073180D01*
X85895000Y-89155274D01*
X85045000Y-89155274D01*
X84827971Y-89073180D01*
X84620000Y-89212120D01*
X84620000Y-89034998D01*
X84118717Y-89034998D01*
X84027924Y-88972962D01*
X83780000Y-88922756D01*
X82080000Y-88922756D01*
X81848389Y-88966337D01*
X81635668Y-89103219D01*
X81492962Y-89312076D01*
X81442756Y-89560000D01*
X77716936Y-89560000D01*
X77751854Y-89457966D01*
X77404396Y-88995246D01*
X77057029Y-88763180D01*
X76840000Y-88845274D01*
X75990000Y-88845274D01*
X75772971Y-88763180D01*
X75565000Y-88902120D01*
X75565000Y-88724998D01*
X75063717Y-88724998D01*
X74972924Y-88662962D01*
X74725000Y-88612756D01*
X73025000Y-88612756D01*
X72793389Y-88656337D01*
X72580668Y-88793219D01*
X72437962Y-89002076D01*
X72387756Y-89250000D01*
X71812244Y-89250000D01*
X71812244Y-87675000D01*
X71768663Y-87443389D01*
X71631781Y-87230668D01*
X71422924Y-87087962D01*
X71175000Y-87037756D01*
X69175000Y-87037756D01*
X68943389Y-87081337D01*
X68730668Y-87218219D01*
X68587962Y-87427076D01*
X68537756Y-87675000D01*
X67358000Y-87675000D01*
X67358000Y-87524088D01*
X67261631Y-87291434D01*
X67083565Y-87113368D01*
X66850911Y-87017000D01*
X66383250Y-87017000D01*
X66225000Y-87175250D01*
X65225000Y-87175250D01*
X65066750Y-87017000D01*
X64599089Y-87017000D01*
X64366435Y-87113368D01*
X64188369Y-87291434D01*
X64092000Y-87524088D01*
X57700000Y-87524088D01*
X57700000Y-86133000D01*
X58571750Y-86133000D01*
X58730000Y-85974750D01*
X58730000Y-84875000D01*
X61270000Y-84875000D01*
X61270000Y-85974750D01*
X61428250Y-86133000D01*
X62665912Y-86133000D01*
X62898566Y-86036631D01*
X63076632Y-85858565D01*
X63173000Y-85625911D01*
X63173000Y-85033250D01*
X63014750Y-84875000D01*
X61270000Y-84875000D01*
X58730000Y-84875000D01*
X58605000Y-84875000D01*
X58605000Y-83625000D01*
X58730000Y-83625000D01*
X58730000Y-82525250D01*
X61270000Y-82525250D01*
X61270000Y-83625000D01*
X63014750Y-83625000D01*
X63173000Y-83466750D01*
X63173000Y-82874089D01*
X63076632Y-82641435D01*
X62898566Y-82463369D01*
X62665912Y-82367000D01*
X61428250Y-82367000D01*
X61270000Y-82525250D01*
X58730000Y-82525250D01*
X58571750Y-82367000D01*
X57700000Y-82367000D01*
X57700000Y-76633000D01*
X58371750Y-76633000D01*
X58530000Y-76474750D01*
X58530000Y-75375000D01*
X61070000Y-75375000D01*
X61070000Y-76474750D01*
X61228250Y-76633000D01*
X62465912Y-76633000D01*
X62698566Y-76536631D01*
X62876632Y-76358565D01*
X62973000Y-76125911D01*
X62973000Y-75533250D01*
X62814750Y-75375000D01*
X61070000Y-75375000D01*
X58530000Y-75375000D01*
X58405000Y-75375000D01*
X58405000Y-74125000D01*
X58530000Y-74125000D01*
X58530000Y-73025250D01*
X61070000Y-73025250D01*
X61070000Y-74125000D01*
X62814750Y-74125000D01*
X62973000Y-73966750D01*
X62973000Y-73374089D01*
X62876632Y-73141435D01*
X62698566Y-72963369D01*
X62465912Y-72867000D01*
X61228250Y-72867000D01*
X61070000Y-73025250D01*
X58530000Y-73025250D01*
X58371750Y-72867000D01*
X57700000Y-72867000D01*
X57700000Y-69133000D01*
X58371750Y-69133000D01*
X58530000Y-68974750D01*
X58530000Y-67875000D01*
X61070000Y-67875000D01*
X61070000Y-68974750D01*
X61228250Y-69133000D01*
X62465912Y-69133000D01*
X62698566Y-69036631D01*
X62876632Y-68858565D01*
X62973000Y-68625911D01*
X62973000Y-68033250D01*
X62814750Y-67875000D01*
X61070000Y-67875000D01*
X58530000Y-67875000D01*
X58405000Y-67875000D01*
X58405000Y-66625000D01*
X58530000Y-66625000D01*
X58530000Y-66000000D01*
X61070000Y-66000000D01*
X61070000Y-66625000D01*
X62814750Y-66625000D01*
X62973000Y-66466750D01*
X62973000Y-65874089D01*
X62942004Y-65799257D01*
X62991741Y-65789364D01*
X63356717Y-65545495D01*
X63600586Y-65180519D01*
X63625000Y-65057782D01*
X63649414Y-65180519D01*
X63893283Y-65545495D01*
X64258259Y-65789364D01*
X64688778Y-65875000D01*
X68811222Y-65875000D01*
X69241741Y-65789364D01*
X69606717Y-65545495D01*
X69850586Y-65180519D01*
X69875000Y-65057782D01*
X69899414Y-65180519D01*
X70143283Y-65545495D01*
X70508259Y-65789364D01*
X70938778Y-65875000D01*
X75061222Y-65875000D01*
X75491741Y-65789364D01*
X75856717Y-65545495D01*
X76100586Y-65180519D01*
X76186222Y-64750000D01*
X76313778Y-64750000D01*
X76399414Y-65180519D01*
X76643283Y-65545495D01*
X77008259Y-65789364D01*
X77438778Y-65875000D01*
X81561222Y-65875000D01*
X81991741Y-65789364D01*
X82356717Y-65545495D01*
X82600586Y-65180519D01*
X82686222Y-64750000D01*
X82813778Y-64750000D01*
X82899414Y-65180519D01*
X83143283Y-65545495D01*
X83508259Y-65789364D01*
X83938778Y-65875000D01*
X88061222Y-65875000D01*
X88491741Y-65789364D01*
X88856717Y-65545495D01*
X89100586Y-65180519D01*
X89186222Y-64750000D01*
X89100586Y-64319481D01*
X88856717Y-63954505D01*
X88491741Y-63710636D01*
X88061222Y-63625000D01*
X83938778Y-63625000D01*
X83508259Y-63710636D01*
X83143283Y-63954505D01*
X82899414Y-64319481D01*
X82813778Y-64750000D01*
X82686222Y-64750000D01*
X82600586Y-64319481D01*
X82356717Y-63954505D01*
X81991741Y-63710636D01*
X81561222Y-63625000D01*
X77438778Y-63625000D01*
X77008259Y-63710636D01*
X76643283Y-63954505D01*
X76399414Y-64319481D01*
X76313778Y-64750000D01*
X76186222Y-64750000D01*
X76100586Y-64319481D01*
X75856717Y-63954505D01*
X75491741Y-63710636D01*
X75061222Y-63625000D01*
X70938778Y-63625000D01*
X70508259Y-63710636D01*
X70143283Y-63954505D01*
X69899414Y-64319481D01*
X69875000Y-64442218D01*
X69850586Y-64319481D01*
X69606717Y-63954505D01*
X69241741Y-63710636D01*
X68811222Y-63625000D01*
X64688778Y-63625000D01*
X64258259Y-63710636D01*
X63893283Y-63954505D01*
X63649414Y-64319481D01*
X63625000Y-64442218D01*
X63600586Y-64319481D01*
X63356717Y-63954505D01*
X62991741Y-63710636D01*
X62561222Y-63625000D01*
X58438778Y-63625000D01*
X58008259Y-63710636D01*
X57700000Y-63916608D01*
X57700000Y-60633000D01*
X58571750Y-60633000D01*
X58730000Y-60474750D01*
X58730000Y-59375000D01*
X61270000Y-59375000D01*
X61270000Y-60474750D01*
X61428250Y-60633000D01*
X62665912Y-60633000D01*
X62898566Y-60536631D01*
X63076632Y-60358565D01*
X63173000Y-60125911D01*
X63173000Y-59533250D01*
X63014750Y-59375000D01*
X61270000Y-59375000D01*
X58730000Y-59375000D01*
X58605000Y-59375000D01*
X58605000Y-58125000D01*
X58730000Y-58125000D01*
X58730000Y-57025250D01*
X61270000Y-57025250D01*
X61270000Y-58125000D01*
X63014750Y-58125000D01*
X63173000Y-57966750D01*
X63173000Y-57374089D01*
X63076632Y-57141435D01*
X62898566Y-56963369D01*
X62665912Y-56867000D01*
X61428250Y-56867000D01*
X61270000Y-57025250D01*
X58730000Y-57025250D01*
X58571750Y-56867000D01*
X57700000Y-56867000D01*
X57700000Y-53133000D01*
X58571750Y-53133000D01*
X58730000Y-52974750D01*
X58730000Y-51875000D01*
X61270000Y-51875000D01*
X61270000Y-52974750D01*
X61428250Y-53133000D01*
X62665912Y-53133000D01*
X62898566Y-53036631D01*
X63076632Y-52858565D01*
X63173000Y-52625911D01*
X63173000Y-52033250D01*
X63014750Y-51875000D01*
X61270000Y-51875000D01*
X58730000Y-51875000D01*
X58605000Y-51875000D01*
X58605000Y-50625000D01*
X58730000Y-50625000D01*
X58730000Y-49525250D01*
X61270000Y-49525250D01*
X61270000Y-50625000D01*
X63014750Y-50625000D01*
X63173000Y-50466750D01*
X63173000Y-49874089D01*
X63076632Y-49641435D01*
X62898566Y-49463369D01*
X62665912Y-49367000D01*
X61428250Y-49367000D01*
X61270000Y-49525250D01*
X58730000Y-49525250D01*
X58571750Y-49367000D01*
X57700000Y-49367000D01*
X57700000Y-39000000D01*
X59362756Y-39000000D01*
X59362756Y-41000000D01*
X59406337Y-41231611D01*
X59543219Y-41444332D01*
X59752076Y-41587038D01*
X60000000Y-41637244D01*
X62000000Y-41637244D01*
X62231611Y-41593663D01*
X62444332Y-41456781D01*
X62587038Y-41247924D01*
X62637244Y-41000000D01*
X62637244Y-39000000D01*
X64362756Y-39000000D01*
X64362756Y-41000000D01*
X64406337Y-41231611D01*
X64543219Y-41444332D01*
X64752076Y-41587038D01*
X65000000Y-41637244D01*
X67000000Y-41637244D01*
X67231611Y-41593663D01*
X67444332Y-41456781D01*
X67587038Y-41247924D01*
X67637244Y-41000000D01*
X67637244Y-39000000D01*
X67593663Y-38768389D01*
X67456781Y-38555668D01*
X67247924Y-38412962D01*
X67000000Y-38362756D01*
X65000000Y-38362756D01*
X64768389Y-38406337D01*
X64555668Y-38543219D01*
X64412962Y-38752076D01*
X64362756Y-39000000D01*
X62637244Y-39000000D01*
X62593663Y-38768389D01*
X62456781Y-38555668D01*
X62247924Y-38412962D01*
X62000000Y-38362756D01*
X60000000Y-38362756D01*
X59768389Y-38406337D01*
X59555668Y-38543219D01*
X59412962Y-38752076D01*
X59362756Y-39000000D01*
X57700000Y-39000000D01*
X57700000Y-34000000D01*
X59362756Y-34000000D01*
X59362756Y-36000000D01*
X59406337Y-36231611D01*
X59543219Y-36444332D01*
X59752076Y-36587038D01*
X60000000Y-36637244D01*
X62000000Y-36637244D01*
X62231611Y-36593663D01*
X62444332Y-36456781D01*
X62587038Y-36247924D01*
X62637244Y-36000000D01*
X62637244Y-35658250D01*
X64367000Y-35658250D01*
X64367000Y-36125912D01*
X64463369Y-36358566D01*
X64641435Y-36536632D01*
X64874089Y-36633000D01*
X65341750Y-36633000D01*
X65500000Y-36474750D01*
X65500000Y-35500000D01*
X66500000Y-35500000D01*
X66500000Y-36474750D01*
X66658250Y-36633000D01*
X67125911Y-36633000D01*
X67358565Y-36536632D01*
X67491947Y-36403250D01*
X78017000Y-36403250D01*
X78017000Y-37640912D01*
X78113369Y-37873566D01*
X78291435Y-38051632D01*
X78524089Y-38148000D01*
X79116750Y-38148000D01*
X79275000Y-37989750D01*
X79275000Y-36245000D01*
X80525000Y-36245000D01*
X80525000Y-37989750D01*
X80683250Y-38148000D01*
X81275911Y-38148000D01*
X81508565Y-38051632D01*
X81686631Y-37873566D01*
X81783000Y-37640912D01*
X81783000Y-36403250D01*
X85517000Y-36403250D01*
X85517000Y-37640912D01*
X85613369Y-37873566D01*
X85791435Y-38051632D01*
X86024089Y-38148000D01*
X86616750Y-38148000D01*
X86775000Y-37989750D01*
X86775000Y-36245000D01*
X88025000Y-36245000D01*
X88025000Y-37989750D01*
X88183250Y-38148000D01*
X88775911Y-38148000D01*
X89008565Y-38051632D01*
X89186631Y-37873566D01*
X89283000Y-37640912D01*
X89283000Y-36403250D01*
X89124750Y-36245000D01*
X88025000Y-36245000D01*
X86775000Y-36245000D01*
X85675250Y-36245000D01*
X85517000Y-36403250D01*
X81783000Y-36403250D01*
X81624750Y-36245000D01*
X80525000Y-36245000D01*
X79275000Y-36245000D01*
X78175250Y-36245000D01*
X78017000Y-36403250D01*
X67491947Y-36403250D01*
X67536631Y-36358566D01*
X67633000Y-36125912D01*
X67633000Y-35658250D01*
X67474750Y-35500000D01*
X66500000Y-35500000D01*
X65500000Y-35500000D01*
X64525250Y-35500000D01*
X64367000Y-35658250D01*
X62637244Y-35658250D01*
X62637244Y-34000000D01*
X62613552Y-33874088D01*
X64367000Y-33874088D01*
X64367000Y-34341750D01*
X64525250Y-34500000D01*
X65500000Y-34500000D01*
X65500000Y-33525250D01*
X66500000Y-33525250D01*
X66500000Y-34500000D01*
X67474750Y-34500000D01*
X67633000Y-34341750D01*
X67633000Y-33874088D01*
X67536631Y-33641434D01*
X67358565Y-33463368D01*
X67125911Y-33367000D01*
X66658250Y-33367000D01*
X66500000Y-33525250D01*
X65500000Y-33525250D01*
X65341750Y-33367000D01*
X64874089Y-33367000D01*
X64641435Y-33463368D01*
X64463369Y-33641434D01*
X64367000Y-33874088D01*
X62613552Y-33874088D01*
X62593663Y-33768389D01*
X62456781Y-33555668D01*
X62247924Y-33412962D01*
X62000000Y-33362756D01*
X60000000Y-33362756D01*
X59768389Y-33406337D01*
X59555668Y-33543219D01*
X59412962Y-33752076D01*
X59362756Y-34000000D01*
X57700000Y-34000000D01*
X57700000Y-32700000D01*
X78017000Y-32700000D01*
X78017000Y-33546750D01*
X78017000Y-33546750D01*
G37*
X78017000Y-33546750D02*
X78175250Y-33705000D01*
X79275000Y-33705000D01*
X79275000Y-33580000D01*
X80525000Y-33580000D01*
X80525000Y-33705000D01*
X81624750Y-33705000D01*
X81783000Y-33546750D01*
X81783000Y-32700000D01*
X85517000Y-32700000D01*
X85517000Y-33546750D01*
X85675250Y-33705000D01*
X86775000Y-33705000D01*
X86775000Y-33580000D01*
X88025000Y-33580000D01*
X88025000Y-33705000D01*
X89124750Y-33705000D01*
X89283000Y-33546750D01*
X89283000Y-32700000D01*
X89666608Y-32700000D01*
X89460636Y-33008259D01*
X89375000Y-33438778D01*
X89375000Y-37561222D01*
X89460636Y-37991741D01*
X89704505Y-38356717D01*
X90069481Y-38600586D01*
X90500000Y-38686222D01*
X90930519Y-38600586D01*
X91295495Y-38356717D01*
X91539364Y-37991741D01*
X91625000Y-37561222D01*
X91625000Y-33438778D01*
X91539364Y-33008259D01*
X91333392Y-32700000D01*
X100613085Y-32700000D01*
X100538596Y-32811481D01*
X100452960Y-33242000D01*
X100538596Y-33672519D01*
X100782465Y-34037495D01*
X100911558Y-34123752D01*
X100804505Y-34195283D01*
X100560636Y-34560259D01*
X100475000Y-34990778D01*
X100475000Y-39113222D01*
X100560636Y-39543741D01*
X100764998Y-39849591D01*
X100560636Y-40155441D01*
X100475000Y-40585960D01*
X100475000Y-40630040D01*
X100560636Y-41060559D01*
X100764998Y-41366409D01*
X100560636Y-41672259D01*
X100475000Y-42102778D01*
X100475000Y-46225222D01*
X100560636Y-46655741D01*
X100804505Y-47020717D01*
X101090780Y-47212000D01*
X100804505Y-47403283D01*
X100560636Y-47768259D01*
X100475000Y-48198778D01*
X100475000Y-52321222D01*
X100560636Y-52751741D01*
X100804505Y-53116717D01*
X100900711Y-53181000D01*
X100804505Y-53245283D01*
X100560636Y-53610259D01*
X100475000Y-54040778D01*
X100475000Y-58163222D01*
X100560636Y-58593741D01*
X100804505Y-58958717D01*
X100899946Y-59022489D01*
X100704505Y-59153078D01*
X100460636Y-59518054D01*
X100375000Y-59948573D01*
X100375000Y-63051427D01*
X100460636Y-63481946D01*
X100556222Y-63625000D01*
X99438778Y-63625000D01*
X99008259Y-63710636D01*
X98643283Y-63954505D01*
X98399414Y-64319481D01*
X98313778Y-64750000D01*
X98399414Y-65180519D01*
X98643283Y-65545495D01*
X99008259Y-65789364D01*
X99438778Y-65875000D01*
X103561222Y-65875000D01*
X103991741Y-65789364D01*
X104356717Y-65545495D01*
X104600586Y-65180519D01*
X104625000Y-65057782D01*
X104649414Y-65180519D01*
X104893283Y-65545495D01*
X105258259Y-65789364D01*
X105688778Y-65875000D01*
X109811222Y-65875000D01*
X110241741Y-65789364D01*
X110606717Y-65545495D01*
X110850586Y-65180519D01*
X110936222Y-64750000D01*
X110850586Y-64319481D01*
X110606717Y-63954505D01*
X110241741Y-63710636D01*
X109811222Y-63625000D01*
X105688778Y-63625000D01*
X105258259Y-63710636D01*
X104893283Y-63954505D01*
X104649414Y-64319481D01*
X104625000Y-64442218D01*
X104600586Y-64319481D01*
X104356717Y-63954505D01*
X103991741Y-63710636D01*
X103561222Y-63625000D01*
X102443778Y-63625000D01*
X102539364Y-63481946D01*
X102625000Y-63051427D01*
X102625000Y-59948573D01*
X102539364Y-59518054D01*
X102295495Y-59153078D01*
X102200054Y-59089306D01*
X102395495Y-58958717D01*
X102639364Y-58593741D01*
X102725000Y-58163222D01*
X102725000Y-54040778D01*
X102639364Y-53610259D01*
X102395495Y-53245283D01*
X102299289Y-53181000D01*
X102395495Y-53116717D01*
X102639364Y-52751741D01*
X102725000Y-52321222D01*
X102725000Y-48198778D01*
X102639364Y-47768259D01*
X102395495Y-47403283D01*
X102109220Y-47212000D01*
X102395495Y-47020717D01*
X102639364Y-46655741D01*
X102665354Y-46525083D01*
X102807283Y-46737495D01*
X103172259Y-46981364D01*
X103602778Y-47067000D01*
X107725222Y-47067000D01*
X108155741Y-46981364D01*
X108520717Y-46737495D01*
X108585000Y-46641289D01*
X108649283Y-46737495D01*
X109014259Y-46981364D01*
X109444778Y-47067000D01*
X112881767Y-47067000D01*
X112752636Y-47260259D01*
X112667000Y-47690778D01*
X112667000Y-51813222D01*
X112752636Y-52243741D01*
X112996505Y-52608717D01*
X113282780Y-52800000D01*
X112996505Y-52991283D01*
X112752636Y-53356259D01*
X112667000Y-53786778D01*
X112667000Y-57909222D01*
X112752636Y-58339741D01*
X112996505Y-58704717D01*
X113311015Y-58914866D01*
X112954505Y-59153078D01*
X112710636Y-59518054D01*
X112625000Y-59948573D01*
X112625000Y-63051427D01*
X112710636Y-63481946D01*
X112806222Y-63625000D01*
X112188778Y-63625000D01*
X111758259Y-63710636D01*
X111393283Y-63954505D01*
X111149414Y-64319481D01*
X111063778Y-64750000D01*
X111149414Y-65180519D01*
X111393283Y-65545495D01*
X111758259Y-65789364D01*
X112188778Y-65875000D01*
X116311222Y-65875000D01*
X116741741Y-65789364D01*
X117106717Y-65545495D01*
X117350586Y-65180519D01*
X117375000Y-65057782D01*
X117399414Y-65180519D01*
X117643283Y-65545495D01*
X118008259Y-65789364D01*
X118438778Y-65875000D01*
X122561222Y-65875000D01*
X122991741Y-65789364D01*
X123356717Y-65545495D01*
X123600586Y-65180519D01*
X123686222Y-64750000D01*
X124063778Y-64750000D01*
X124149414Y-65180519D01*
X124393283Y-65545495D01*
X124758259Y-65789364D01*
X125188778Y-65875000D01*
X129311222Y-65875000D01*
X129741741Y-65789364D01*
X130106717Y-65545495D01*
X130350586Y-65180519D01*
X130436222Y-64750000D01*
X130563778Y-64750000D01*
X130649414Y-65180519D01*
X130893283Y-65545495D01*
X131258259Y-65789364D01*
X131688778Y-65875000D01*
X135811222Y-65875000D01*
X136241741Y-65789364D01*
X136606717Y-65545495D01*
X136850586Y-65180519D01*
X136936222Y-64750000D01*
X137063778Y-64750000D01*
X137149414Y-65180519D01*
X137393283Y-65545495D01*
X137758259Y-65789364D01*
X138188778Y-65875000D01*
X142311222Y-65875000D01*
X142741741Y-65789364D01*
X143106717Y-65545495D01*
X143350586Y-65180519D01*
X143436222Y-64750000D01*
X143813778Y-64750000D01*
X143899414Y-65180519D01*
X144143283Y-65545495D01*
X144508259Y-65789364D01*
X144938778Y-65875000D01*
X149061222Y-65875000D01*
X149491741Y-65789364D01*
X149856717Y-65545495D01*
X150100586Y-65180519D01*
X150186222Y-64750000D01*
X150100586Y-64319481D01*
X149856717Y-63954505D01*
X149491741Y-63710636D01*
X149061222Y-63625000D01*
X144938778Y-63625000D01*
X144508259Y-63710636D01*
X144143283Y-63954505D01*
X143899414Y-64319481D01*
X143813778Y-64750000D01*
X143436222Y-64750000D01*
X143350586Y-64319481D01*
X143106717Y-63954505D01*
X142741741Y-63710636D01*
X142311222Y-63625000D01*
X138188778Y-63625000D01*
X137758259Y-63710636D01*
X137393283Y-63954505D01*
X137149414Y-64319481D01*
X137063778Y-64750000D01*
X136936222Y-64750000D01*
X136850586Y-64319481D01*
X136606717Y-63954505D01*
X136241741Y-63710636D01*
X135811222Y-63625000D01*
X131688778Y-63625000D01*
X131258259Y-63710636D01*
X130893283Y-63954505D01*
X130649414Y-64319481D01*
X130563778Y-64750000D01*
X130436222Y-64750000D01*
X130350586Y-64319481D01*
X130106717Y-63954505D01*
X129741741Y-63710636D01*
X129311222Y-63625000D01*
X125188778Y-63625000D01*
X124758259Y-63710636D01*
X124393283Y-63954505D01*
X124149414Y-64319481D01*
X124063778Y-64750000D01*
X123686222Y-64750000D01*
X123600586Y-64319481D01*
X123356717Y-63954505D01*
X122991741Y-63710636D01*
X122561222Y-63625000D01*
X118438778Y-63625000D01*
X118008259Y-63710636D01*
X117643283Y-63954505D01*
X117399414Y-64319481D01*
X117375000Y-64442218D01*
X117350586Y-64319481D01*
X117106717Y-63954505D01*
X116741741Y-63710636D01*
X116311222Y-63625000D01*
X114693778Y-63625000D01*
X114789364Y-63481946D01*
X114875000Y-63051427D01*
X114875000Y-60374089D01*
X150827000Y-60374089D01*
X150827000Y-60966750D01*
X150985250Y-61125000D01*
X152730000Y-61125000D01*
X152730000Y-60025250D01*
X152571750Y-59867000D01*
X151334088Y-59867000D01*
X151101434Y-59963369D01*
X150923368Y-60141435D01*
X150827000Y-60374089D01*
X114875000Y-60374089D01*
X114875000Y-59948573D01*
X114789364Y-59518054D01*
X114545495Y-59153078D01*
X114230985Y-58942929D01*
X114587495Y-58704717D01*
X114831364Y-58339741D01*
X114917000Y-57909222D01*
X114917000Y-55033250D01*
X150827000Y-55033250D01*
X150827000Y-55625911D01*
X150923368Y-55858565D01*
X151101434Y-56036631D01*
X151334088Y-56133000D01*
X152571750Y-56133000D01*
X152730000Y-55974750D01*
X152730000Y-54875000D01*
X150985250Y-54875000D01*
X150827000Y-55033250D01*
X114917000Y-55033250D01*
X114917000Y-53786778D01*
X114831364Y-53356259D01*
X114587495Y-52991283D01*
X114412102Y-52874089D01*
X150827000Y-52874089D01*
X150827000Y-53466750D01*
X150985250Y-53625000D01*
X152730000Y-53625000D01*
X152730000Y-52525250D01*
X152571750Y-52367000D01*
X151334088Y-52367000D01*
X151101434Y-52463369D01*
X150923368Y-52641435D01*
X150827000Y-52874089D01*
X114412102Y-52874089D01*
X114301220Y-52800000D01*
X114587495Y-52608717D01*
X114831364Y-52243741D01*
X114917000Y-51813222D01*
X114917000Y-50206838D01*
X115143283Y-50545495D01*
X115508259Y-50789364D01*
X115938778Y-50875000D01*
X120061222Y-50875000D01*
X120491741Y-50789364D01*
X120856717Y-50545495D01*
X121100586Y-50180519D01*
X121125000Y-50057782D01*
X121149414Y-50180519D01*
X121393283Y-50545495D01*
X121758259Y-50789364D01*
X122188778Y-50875000D01*
X126311222Y-50875000D01*
X126741741Y-50789364D01*
X127106717Y-50545495D01*
X127250000Y-50331057D01*
X127393283Y-50545495D01*
X127758259Y-50789364D01*
X128188778Y-50875000D01*
X132311222Y-50875000D01*
X132741741Y-50789364D01*
X133106717Y-50545495D01*
X133350586Y-50180519D01*
X133375000Y-50057782D01*
X133399414Y-50180519D01*
X133643283Y-50545495D01*
X134008259Y-50789364D01*
X134438778Y-50875000D01*
X138561222Y-50875000D01*
X138991741Y-50789364D01*
X139356717Y-50545495D01*
X139600586Y-50180519D01*
X139625000Y-50057782D01*
X139649414Y-50180519D01*
X139893283Y-50545495D01*
X140258259Y-50789364D01*
X140688778Y-50875000D01*
X144811222Y-50875000D01*
X145241741Y-50789364D01*
X145606717Y-50545495D01*
X145850586Y-50180519D01*
X145936222Y-49750000D01*
X145886494Y-49500000D01*
X146578471Y-49500000D01*
X146664107Y-49930519D01*
X146907976Y-50295495D01*
X147272952Y-50539364D01*
X147703471Y-50625000D01*
X150296529Y-50625000D01*
X150727048Y-50539364D01*
X151092024Y-50295495D01*
X151335893Y-49930519D01*
X151421529Y-49500000D01*
X151335893Y-49069481D01*
X151092024Y-48704505D01*
X150727048Y-48460636D01*
X150296529Y-48375000D01*
X147703471Y-48375000D01*
X147272952Y-48460636D01*
X146907976Y-48704505D01*
X146664107Y-49069481D01*
X146578471Y-49500000D01*
X145886494Y-49500000D01*
X145850586Y-49319481D01*
X145606717Y-48954505D01*
X145241741Y-48710636D01*
X144811222Y-48625000D01*
X140688778Y-48625000D01*
X140258259Y-48710636D01*
X139893283Y-48954505D01*
X139649414Y-49319481D01*
X139625000Y-49442218D01*
X139600586Y-49319481D01*
X139356717Y-48954505D01*
X138991741Y-48710636D01*
X138561222Y-48625000D01*
X134438778Y-48625000D01*
X134008259Y-48710636D01*
X133643283Y-48954505D01*
X133399414Y-49319481D01*
X133375000Y-49442218D01*
X133350586Y-49319481D01*
X133106717Y-48954505D01*
X132741741Y-48710636D01*
X132311222Y-48625000D01*
X128188778Y-48625000D01*
X127758259Y-48710636D01*
X127393283Y-48954505D01*
X127250000Y-49168943D01*
X127106717Y-48954505D01*
X126741741Y-48710636D01*
X126311222Y-48625000D01*
X122188778Y-48625000D01*
X121758259Y-48710636D01*
X121393283Y-48954505D01*
X121149414Y-49319481D01*
X121125000Y-49442218D01*
X121100586Y-49319481D01*
X120856717Y-48954505D01*
X120491741Y-48710636D01*
X120061222Y-48625000D01*
X115938778Y-48625000D01*
X115508259Y-48710636D01*
X115143283Y-48954505D01*
X114917000Y-49293162D01*
X114917000Y-47690778D01*
X114831364Y-47260259D01*
X114587495Y-46895283D01*
X114549657Y-46870000D01*
X129663778Y-46870000D01*
X129787474Y-47491861D01*
X130139729Y-48019049D01*
X130666917Y-48371304D01*
X131288778Y-48495000D01*
X134411222Y-48495000D01*
X135033083Y-48371304D01*
X135560271Y-48019049D01*
X135912526Y-47491861D01*
X136036222Y-46870000D01*
X135939402Y-46383250D01*
X151102000Y-46383250D01*
X151102000Y-46975911D01*
X151198368Y-47208565D01*
X151376434Y-47386631D01*
X151609088Y-47483000D01*
X152846750Y-47483000D01*
X153005000Y-47324750D01*
X153005000Y-46225000D01*
X151260250Y-46225000D01*
X151102000Y-46383250D01*
X135939402Y-46383250D01*
X135912526Y-46248139D01*
X135560271Y-45720951D01*
X135033083Y-45368696D01*
X134411222Y-45245000D01*
X131288778Y-45245000D01*
X130666917Y-45368696D01*
X130139729Y-45720951D01*
X129787474Y-46248139D01*
X129663778Y-46870000D01*
X114549657Y-46870000D01*
X114357033Y-46741293D01*
X114362717Y-46737495D01*
X114606586Y-46372519D01*
X114692222Y-45942000D01*
X114606586Y-45511481D01*
X114362717Y-45146505D01*
X113997741Y-44902636D01*
X113567222Y-44817000D01*
X109444778Y-44817000D01*
X109014259Y-44902636D01*
X108649283Y-45146505D01*
X108585000Y-45242711D01*
X108520717Y-45146505D01*
X108155741Y-44902636D01*
X107725222Y-44817000D01*
X107533801Y-44817000D01*
X107537244Y-44800000D01*
X107537244Y-44224089D01*
X151102000Y-44224089D01*
X151102000Y-44816750D01*
X151260250Y-44975000D01*
X153005000Y-44975000D01*
X153005000Y-43875250D01*
X152846750Y-43717000D01*
X151609088Y-43717000D01*
X151376434Y-43813369D01*
X151198368Y-43991435D01*
X151102000Y-44224089D01*
X107537244Y-44224089D01*
X107537244Y-43300000D01*
X107527063Y-43245893D01*
X107901741Y-43171364D01*
X108266717Y-42927495D01*
X108331000Y-42831289D01*
X108395283Y-42927495D01*
X108760259Y-43171364D01*
X109190778Y-43257000D01*
X113313222Y-43257000D01*
X113743741Y-43171364D01*
X114108717Y-42927495D01*
X114352586Y-42562519D01*
X114438222Y-42132000D01*
X114362835Y-41753005D01*
X114670495Y-41547433D01*
X114914364Y-41182457D01*
X115000000Y-40751938D01*
X115000000Y-40198062D01*
X114914364Y-39767543D01*
X114670495Y-39402567D01*
X114364942Y-39198403D01*
X114427629Y-38883250D01*
X151102000Y-38883250D01*
X151102000Y-39475911D01*
X151198368Y-39708565D01*
X151376434Y-39886631D01*
X151609088Y-39983000D01*
X152846750Y-39983000D01*
X153005000Y-39824750D01*
X153005000Y-38725000D01*
X151260250Y-38725000D01*
X151102000Y-38883250D01*
X114427629Y-38883250D01*
X114438222Y-38830000D01*
X114352586Y-38399481D01*
X114108717Y-38034505D01*
X113743741Y-37790636D01*
X113313222Y-37705000D01*
X109190778Y-37705000D01*
X108760259Y-37790636D01*
X108395283Y-38034505D01*
X108204000Y-38320780D01*
X108012717Y-38034505D01*
X107647741Y-37790636D01*
X107457242Y-37752743D01*
X107458000Y-37750912D01*
X107458000Y-37408250D01*
X107299750Y-37250000D01*
X105825000Y-37250000D01*
X105825000Y-37625000D01*
X103825000Y-37625000D01*
X103825000Y-37250000D01*
X103430000Y-37250000D01*
X103430000Y-36724089D01*
X151102000Y-36724089D01*
X151102000Y-37316750D01*
X151260250Y-37475000D01*
X153005000Y-37475000D01*
X153005000Y-36375250D01*
X152846750Y-36217000D01*
X151609088Y-36217000D01*
X151376434Y-36313369D01*
X151198368Y-36491435D01*
X151102000Y-36724089D01*
X103430000Y-36724089D01*
X103430000Y-36500000D01*
X103825000Y-36500000D01*
X103825000Y-36145000D01*
X105825000Y-36145000D01*
X105825000Y-36500000D01*
X107299750Y-36500000D01*
X107458000Y-36341750D01*
X107458000Y-36145000D01*
X107471222Y-36145000D01*
X107901741Y-36059364D01*
X108266717Y-35815495D01*
X108458000Y-35529220D01*
X108649283Y-35815495D01*
X109014259Y-36059364D01*
X109444778Y-36145000D01*
X113567222Y-36145000D01*
X113997741Y-36059364D01*
X114362717Y-35815495D01*
X114606586Y-35450519D01*
X114692222Y-35020000D01*
X114606586Y-34589481D01*
X114362717Y-34224505D01*
X114351658Y-34217116D01*
X114587495Y-34059535D01*
X114831364Y-33694559D01*
X114917000Y-33264040D01*
X114917000Y-33219960D01*
X114831364Y-32789441D01*
X114771601Y-32700000D01*
X130617630Y-32700000D01*
X130385729Y-32854951D01*
X130033474Y-33382139D01*
X129909778Y-34004000D01*
X130033474Y-34625861D01*
X130385729Y-35153049D01*
X130912917Y-35505304D01*
X131534778Y-35629000D01*
X134657222Y-35629000D01*
X135279083Y-35505304D01*
X135806271Y-35153049D01*
X136158526Y-34625861D01*
X136282222Y-34004000D01*
X136158526Y-33382139D01*
X135806271Y-32854951D01*
X135574370Y-32700000D01*
X141127067Y-32700000D01*
X141093389Y-32706337D01*
X140880668Y-32843219D01*
X140737962Y-33052076D01*
X140687756Y-33300000D01*
X140687756Y-35300000D01*
X140731337Y-35531611D01*
X140868219Y-35744332D01*
X141077076Y-35887038D01*
X141325000Y-35937244D01*
X143325000Y-35937244D01*
X143556611Y-35893663D01*
X143769332Y-35756781D01*
X143912038Y-35547924D01*
X143962244Y-35300000D01*
X143962244Y-33300000D01*
X143918663Y-33068389D01*
X143781781Y-32855668D01*
X143572924Y-32712962D01*
X143508916Y-32700000D01*
X144914386Y-32700000D01*
X144730668Y-32818219D01*
X144587962Y-33027076D01*
X144537756Y-33275000D01*
X144537756Y-35275000D01*
X144581337Y-35506611D01*
X144718219Y-35719332D01*
X144927076Y-35862038D01*
X145175000Y-35912244D01*
X147175000Y-35912244D01*
X147406611Y-35868663D01*
X147619332Y-35731781D01*
X147762038Y-35522924D01*
X147812244Y-35275000D01*
X147812244Y-33275000D01*
X147768663Y-33043389D01*
X147631781Y-32830668D01*
X147440542Y-32700000D01*
X148759929Y-32700000D01*
X148593389Y-32731337D01*
X148380668Y-32868219D01*
X148237962Y-33077076D01*
X148187756Y-33325000D01*
X148187756Y-35325000D01*
X148231337Y-35556611D01*
X148368219Y-35769332D01*
X148577076Y-35912038D01*
X148825000Y-35962244D01*
X150825000Y-35962244D01*
X151056611Y-35918663D01*
X151269332Y-35781781D01*
X151412038Y-35572924D01*
X151462244Y-35325000D01*
X151462244Y-34983250D01*
X152142000Y-34983250D01*
X152142000Y-35450912D01*
X152238369Y-35683566D01*
X152416435Y-35861632D01*
X152649089Y-35958000D01*
X153116750Y-35958000D01*
X153275000Y-35799750D01*
X153275000Y-34825000D01*
X154275000Y-34825000D01*
X154275000Y-35799750D01*
X154433250Y-35958000D01*
X154900911Y-35958000D01*
X155133565Y-35861632D01*
X155311631Y-35683566D01*
X155408000Y-35450912D01*
X155408000Y-34983250D01*
X155249750Y-34825000D01*
X154275000Y-34825000D01*
X153275000Y-34825000D01*
X152300250Y-34825000D01*
X152142000Y-34983250D01*
X151462244Y-34983250D01*
X151462244Y-33325000D01*
X151418663Y-33093389D01*
X151281781Y-32880668D01*
X151072924Y-32737962D01*
X150885463Y-32700000D01*
X152399998Y-32700000D01*
X152399998Y-32804805D01*
X152238369Y-32966434D01*
X152142000Y-33199088D01*
X152142000Y-33666750D01*
X152300250Y-33825000D01*
X153275000Y-33825000D01*
X153275000Y-33325000D01*
X154275000Y-33325000D01*
X154275000Y-33825000D01*
X155249750Y-33825000D01*
X155408000Y-33666750D01*
X155408000Y-33199088D01*
X155311631Y-32966434D01*
X155150002Y-32804805D01*
X155150002Y-32700000D01*
X156300000Y-32700000D01*
X156300000Y-36217000D01*
X155703250Y-36217000D01*
X155545000Y-36375250D01*
X155545000Y-37475000D01*
X155670000Y-37475000D01*
X155670000Y-38725000D01*
X155545000Y-38725000D01*
X155545000Y-39824750D01*
X155703250Y-39983000D01*
X156300000Y-39983000D01*
X156300000Y-43717000D01*
X155703250Y-43717000D01*
X155545000Y-43875250D01*
X155545000Y-44975000D01*
X155670000Y-44975000D01*
X155670000Y-46225000D01*
X155545000Y-46225000D01*
X155545000Y-47324750D01*
X155703250Y-47483000D01*
X156300000Y-47483000D01*
X156300000Y-49015763D01*
X156092024Y-48704505D01*
X155727048Y-48460636D01*
X155296529Y-48375000D01*
X152703471Y-48375000D01*
X152272952Y-48460636D01*
X151907976Y-48704505D01*
X151664107Y-49069481D01*
X151578471Y-49500000D01*
X151664107Y-49930519D01*
X151907976Y-50295495D01*
X152272952Y-50539364D01*
X152703471Y-50625000D01*
X155296529Y-50625000D01*
X155727048Y-50539364D01*
X156092024Y-50295495D01*
X156300000Y-49984237D01*
X156300000Y-52367000D01*
X155428250Y-52367000D01*
X155270000Y-52525250D01*
X155270000Y-53625000D01*
X155395000Y-53625000D01*
X155395000Y-54875000D01*
X155270000Y-54875000D01*
X155270000Y-55974750D01*
X155428250Y-56133000D01*
X156300000Y-56133000D01*
X156300000Y-59867000D01*
X155428250Y-59867000D01*
X155270000Y-60025250D01*
X155270000Y-61125000D01*
X155395000Y-61125000D01*
X155395000Y-62375000D01*
X155270000Y-62375000D01*
X155270000Y-63000000D01*
X152730000Y-63000000D01*
X152730000Y-62375000D01*
X150985250Y-62375000D01*
X150827000Y-62533250D01*
X150827000Y-63125911D01*
X150923368Y-63358565D01*
X151101434Y-63536631D01*
X151334088Y-63633000D01*
X151398559Y-63633000D01*
X151008259Y-63710636D01*
X150643283Y-63954505D01*
X150399414Y-64319481D01*
X150313778Y-64750000D01*
X150399414Y-65180519D01*
X150643283Y-65545495D01*
X151008259Y-65789364D01*
X151438778Y-65875000D01*
X155561222Y-65875000D01*
X155991741Y-65789364D01*
X156300000Y-65583392D01*
X156300000Y-71922541D01*
X156165912Y-71867000D01*
X154928250Y-71867000D01*
X154770000Y-72025250D01*
X154770000Y-73125000D01*
X154895000Y-73125000D01*
X154895000Y-74375000D01*
X154770000Y-74375000D01*
X154770000Y-75474750D01*
X154928250Y-75633000D01*
X156165912Y-75633000D01*
X156300000Y-75577459D01*
X156300000Y-79422541D01*
X156165912Y-79367000D01*
X154928250Y-79367000D01*
X154770000Y-79525250D01*
X154770000Y-80625000D01*
X154895000Y-80625000D01*
X154895000Y-81875000D01*
X154770000Y-81875000D01*
X154770000Y-82974750D01*
X154928250Y-83133000D01*
X156165912Y-83133000D01*
X156300000Y-83077459D01*
X156300000Y-88422541D01*
X156165912Y-88367000D01*
X154928250Y-88367000D01*
X154770000Y-88525250D01*
X154770000Y-89625000D01*
X154895000Y-89625000D01*
X154895000Y-90875000D01*
X154770000Y-90875000D01*
X154770000Y-91974750D01*
X154928250Y-92133000D01*
X156165912Y-92133000D01*
X156300000Y-92077459D01*
X156300000Y-95922541D01*
X156165912Y-95867000D01*
X154928250Y-95867000D01*
X154770000Y-96025250D01*
X154770000Y-97125000D01*
X154895000Y-97125000D01*
X154895000Y-98375000D01*
X154770000Y-98375000D01*
X154770000Y-99000000D01*
X152230000Y-99000000D01*
X152230000Y-98375000D01*
X150485250Y-98375000D01*
X150327000Y-98533250D01*
X150327000Y-99125911D01*
X150423368Y-99358565D01*
X150522589Y-99457786D01*
X150508259Y-99460636D01*
X150143283Y-99704505D01*
X149899414Y-100069481D01*
X149813778Y-100500000D01*
X149899414Y-100930519D01*
X150143283Y-101295495D01*
X150508259Y-101539364D01*
X150938778Y-101625000D01*
X155061222Y-101625000D01*
X155491741Y-101539364D01*
X155856717Y-101295495D01*
X156100586Y-100930519D01*
X156186222Y-100500000D01*
X156100586Y-100069481D01*
X155856717Y-99704505D01*
X155749702Y-99633000D01*
X156165912Y-99633000D01*
X156300000Y-99577459D01*
X156300000Y-105367000D01*
X155428250Y-105367000D01*
X155270000Y-105525250D01*
X155270000Y-106625000D01*
X155395000Y-106625000D01*
X155395000Y-107875000D01*
X155270000Y-107875000D01*
X155270000Y-108974750D01*
X155428250Y-109133000D01*
X156300000Y-109133000D01*
X156300000Y-112867000D01*
X155428250Y-112867000D01*
X155270000Y-113025250D01*
X155270000Y-114125000D01*
X155395000Y-114125000D01*
X155395000Y-115375000D01*
X155270000Y-115375000D01*
X155270000Y-116474750D01*
X155428250Y-116633000D01*
X156300000Y-116633000D01*
X156300000Y-131300000D01*
X113647000Y-131300000D01*
X113647000Y-130786164D01*
X113561364Y-130355645D01*
X113317495Y-129990669D01*
X113204053Y-129914869D01*
X113336586Y-129716519D01*
X113422222Y-129286000D01*
X128893778Y-129286000D01*
X129017474Y-129907861D01*
X129369729Y-130435049D01*
X129896917Y-130787304D01*
X130518778Y-130911000D01*
X133641222Y-130911000D01*
X134263083Y-130787304D01*
X134790271Y-130435049D01*
X135142526Y-129907861D01*
X135266222Y-129286000D01*
X135142526Y-128664139D01*
X134790271Y-128136951D01*
X134263083Y-127784696D01*
X133641222Y-127661000D01*
X130518778Y-127661000D01*
X129896917Y-127784696D01*
X129369729Y-128136951D01*
X129017474Y-128664139D01*
X128893778Y-129286000D01*
X113422222Y-129286000D01*
X113336586Y-128855481D01*
X113092717Y-128490505D01*
X112727741Y-128246636D01*
X112297222Y-128161000D01*
X108174778Y-128161000D01*
X107744259Y-128246636D01*
X107379283Y-128490505D01*
X107315000Y-128586711D01*
X107250717Y-128490505D01*
X106885741Y-128246636D01*
X106502248Y-128170354D01*
X106519000Y-128129912D01*
X106519000Y-127787250D01*
X106360750Y-127629000D01*
X104886000Y-127629000D01*
X104886000Y-128004000D01*
X102886000Y-128004000D01*
X102886000Y-127629000D01*
X102491000Y-127629000D01*
X102491000Y-126879000D01*
X102886000Y-126879000D01*
X102886000Y-126504000D01*
X104886000Y-126504000D01*
X104886000Y-126879000D01*
X106360750Y-126879000D01*
X106519000Y-126720750D01*
X106519000Y-126378088D01*
X106461126Y-126238369D01*
X106577083Y-126215304D01*
X107104271Y-125863049D01*
X107315000Y-125547670D01*
X107525729Y-125863049D01*
X108052917Y-126215304D01*
X108674778Y-126339000D01*
X111797222Y-126339000D01*
X112419083Y-126215304D01*
X112540389Y-126134250D01*
X147465000Y-126134250D01*
X147465000Y-126601912D01*
X147561369Y-126834566D01*
X147739435Y-127012632D01*
X147972089Y-127109000D01*
X148439750Y-127109000D01*
X148598000Y-126950750D01*
X148598000Y-125976000D01*
X149598000Y-125976000D01*
X149598000Y-126950750D01*
X149756250Y-127109000D01*
X150223911Y-127109000D01*
X150456565Y-127012632D01*
X150634631Y-126834566D01*
X150731000Y-126601912D01*
X150731000Y-126134250D01*
X150572750Y-125976000D01*
X149598000Y-125976000D01*
X148598000Y-125976000D01*
X147623250Y-125976000D01*
X147465000Y-126134250D01*
X112540389Y-126134250D01*
X112946271Y-125863049D01*
X113298526Y-125335861D01*
X113422222Y-124714000D01*
X113349836Y-124350088D01*
X147465000Y-124350088D01*
X147465000Y-124817750D01*
X147623250Y-124976000D01*
X148598000Y-124976000D01*
X148598000Y-124001250D01*
X149598000Y-124001250D01*
X149598000Y-124976000D01*
X150572750Y-124976000D01*
X150731000Y-124817750D01*
X150731000Y-124476000D01*
X152286756Y-124476000D01*
X152286756Y-126476000D01*
X152330337Y-126707611D01*
X152467219Y-126920332D01*
X152676076Y-127063038D01*
X152924000Y-127113244D01*
X154924000Y-127113244D01*
X155155611Y-127069663D01*
X155368332Y-126932781D01*
X155511038Y-126723924D01*
X155561244Y-126476000D01*
X155561244Y-124476000D01*
X155517663Y-124244389D01*
X155380781Y-124031668D01*
X155171924Y-123888962D01*
X154924000Y-123838756D01*
X152924000Y-123838756D01*
X152692389Y-123882337D01*
X152479668Y-124019219D01*
X152336962Y-124228076D01*
X152286756Y-124476000D01*
X150731000Y-124476000D01*
X150731000Y-124350088D01*
X150634631Y-124117434D01*
X150456565Y-123939368D01*
X150223911Y-123843000D01*
X149756250Y-123843000D01*
X149598000Y-124001250D01*
X148598000Y-124001250D01*
X148439750Y-123843000D01*
X147972089Y-123843000D01*
X147739435Y-123939368D01*
X147561369Y-124117434D01*
X147465000Y-124350088D01*
X113349836Y-124350088D01*
X113298526Y-124092139D01*
X112946271Y-123564951D01*
X112419083Y-123212696D01*
X111797222Y-123089000D01*
X108674778Y-123089000D01*
X108052917Y-123212696D01*
X107525729Y-123564951D01*
X107315000Y-123880330D01*
X107104271Y-123564951D01*
X106577083Y-123212696D01*
X106460962Y-123189598D01*
X106473038Y-123171924D01*
X106523244Y-122924000D01*
X106523244Y-121424000D01*
X106479663Y-121192389D01*
X106407660Y-121080493D01*
X106703824Y-120882602D01*
X107061000Y-120348050D01*
X107418176Y-120882602D01*
X108107576Y-121343244D01*
X108920778Y-121505000D01*
X111043222Y-121505000D01*
X111856424Y-121343244D01*
X112545824Y-120882602D01*
X113006466Y-120193202D01*
X113165039Y-119396000D01*
X147460756Y-119396000D01*
X147460756Y-121396000D01*
X147504337Y-121627611D01*
X147641219Y-121840332D01*
X147850076Y-121983038D01*
X148098000Y-122033244D01*
X150098000Y-122033244D01*
X150329611Y-121989663D01*
X150542332Y-121852781D01*
X150685038Y-121643924D01*
X150735244Y-121396000D01*
X150735244Y-119396000D01*
X152286756Y-119396000D01*
X152286756Y-121396000D01*
X152330337Y-121627611D01*
X152467219Y-121840332D01*
X152676076Y-121983038D01*
X152924000Y-122033244D01*
X154924000Y-122033244D01*
X155155611Y-121989663D01*
X155368332Y-121852781D01*
X155511038Y-121643924D01*
X155561244Y-121396000D01*
X155561244Y-119396000D01*
X155517663Y-119164389D01*
X155380781Y-118951668D01*
X155171924Y-118808962D01*
X154924000Y-118758756D01*
X152924000Y-118758756D01*
X152692389Y-118802337D01*
X152479668Y-118939219D01*
X152336962Y-119148076D01*
X152286756Y-119396000D01*
X150735244Y-119396000D01*
X150691663Y-119164389D01*
X150554781Y-118951668D01*
X150345924Y-118808962D01*
X150098000Y-118758756D01*
X148098000Y-118758756D01*
X147866389Y-118802337D01*
X147653668Y-118939219D01*
X147510962Y-119148076D01*
X147460756Y-119396000D01*
X113165039Y-119396000D01*
X113168222Y-119380000D01*
X113006466Y-118566798D01*
X112545824Y-117877398D01*
X111856424Y-117416756D01*
X111043222Y-117255000D01*
X108920778Y-117255000D01*
X108107576Y-117416756D01*
X107418176Y-117877398D01*
X107061000Y-118411950D01*
X106703824Y-117877398D01*
X106424271Y-117690607D01*
X106519000Y-117461912D01*
X106519000Y-117119250D01*
X106360750Y-116961000D01*
X104886000Y-116961000D01*
X104886000Y-117255000D01*
X103078778Y-117255000D01*
X102886000Y-117293346D01*
X102886000Y-116961000D01*
X102491000Y-116961000D01*
X102491000Y-116211000D01*
X102886000Y-116211000D01*
X102886000Y-115836000D01*
X104886000Y-115836000D01*
X104886000Y-116211000D01*
X106360750Y-116211000D01*
X106519000Y-116052750D01*
X106519000Y-115710088D01*
X106423719Y-115480061D01*
X106850271Y-115195049D01*
X107061000Y-114879670D01*
X107271729Y-115195049D01*
X107798917Y-115547304D01*
X108420778Y-115671000D01*
X111543222Y-115671000D01*
X112165083Y-115547304D01*
X112186116Y-115533250D01*
X150827000Y-115533250D01*
X150827000Y-116125911D01*
X150923368Y-116358565D01*
X151101434Y-116536631D01*
X151334088Y-116633000D01*
X152571750Y-116633000D01*
X152730000Y-116474750D01*
X152730000Y-115375000D01*
X150985250Y-115375000D01*
X150827000Y-115533250D01*
X112186116Y-115533250D01*
X112692271Y-115195049D01*
X113044526Y-114667861D01*
X113168222Y-114046000D01*
X113044526Y-113424139D01*
X113011084Y-113374089D01*
X150827000Y-113374089D01*
X150827000Y-113966750D01*
X150985250Y-114125000D01*
X152730000Y-114125000D01*
X152730000Y-113025250D01*
X152571750Y-112867000D01*
X151334088Y-112867000D01*
X151101434Y-112963369D01*
X150923368Y-113141435D01*
X150827000Y-113374089D01*
X113011084Y-113374089D01*
X112692271Y-112896951D01*
X112165083Y-112544696D01*
X111543222Y-112421000D01*
X108420778Y-112421000D01*
X107798917Y-112544696D01*
X107271729Y-112896951D01*
X107061000Y-113212330D01*
X106850271Y-112896951D01*
X106406909Y-112600707D01*
X106473038Y-112503924D01*
X106523244Y-112256000D01*
X106523244Y-110756000D01*
X106492314Y-110591622D01*
X106885741Y-110513364D01*
X107250717Y-110269495D01*
X107315000Y-110173289D01*
X107379283Y-110269495D01*
X107744259Y-110513364D01*
X108174778Y-110599000D01*
X112297222Y-110599000D01*
X112727741Y-110513364D01*
X113092717Y-110269495D01*
X113336586Y-109904519D01*
X113422222Y-109474000D01*
X113336586Y-109043481D01*
X113092717Y-108678505D01*
X113087033Y-108674707D01*
X113317495Y-108520717D01*
X113561364Y-108155741D01*
X113585729Y-108033250D01*
X150827000Y-108033250D01*
X150827000Y-108625911D01*
X150923368Y-108858565D01*
X151101434Y-109036631D01*
X151334088Y-109133000D01*
X152571750Y-109133000D01*
X152730000Y-108974750D01*
X152730000Y-107875000D01*
X150985250Y-107875000D01*
X150827000Y-108033250D01*
X113585729Y-108033250D01*
X113647000Y-107725222D01*
X113647000Y-105874089D01*
X150827000Y-105874089D01*
X150827000Y-106466750D01*
X150985250Y-106625000D01*
X152730000Y-106625000D01*
X152730000Y-105525250D01*
X152571750Y-105367000D01*
X151334088Y-105367000D01*
X151101434Y-105463369D01*
X150923368Y-105641435D01*
X150827000Y-105874089D01*
X113647000Y-105874089D01*
X113647000Y-103602778D01*
X113602289Y-103378000D01*
X128893778Y-103378000D01*
X129017474Y-103999861D01*
X129369729Y-104527049D01*
X129896917Y-104879304D01*
X130518778Y-105003000D01*
X133641222Y-105003000D01*
X134263083Y-104879304D01*
X134790271Y-104527049D01*
X135142526Y-103999861D01*
X135266222Y-103378000D01*
X135142526Y-102756139D01*
X134790271Y-102228951D01*
X134263083Y-101876696D01*
X133641222Y-101753000D01*
X130518778Y-101753000D01*
X129896917Y-101876696D01*
X129369729Y-102228951D01*
X129017474Y-102756139D01*
X128893778Y-103378000D01*
X113602289Y-103378000D01*
X113561364Y-103172259D01*
X113360658Y-102871882D01*
X113583404Y-102538519D01*
X113669040Y-102108000D01*
X113583404Y-101677481D01*
X113548337Y-101625000D01*
X116061222Y-101625000D01*
X116491741Y-101539364D01*
X116856717Y-101295495D01*
X117100586Y-100930519D01*
X117186222Y-100500000D01*
X117313778Y-100500000D01*
X117399414Y-100930519D01*
X117643283Y-101295495D01*
X118008259Y-101539364D01*
X118438778Y-101625000D01*
X122561222Y-101625000D01*
X122991741Y-101539364D01*
X123356717Y-101295495D01*
X123600586Y-100930519D01*
X123686222Y-100500000D01*
X123813778Y-100500000D01*
X123899414Y-100930519D01*
X124143283Y-101295495D01*
X124508259Y-101539364D01*
X124938778Y-101625000D01*
X129061222Y-101625000D01*
X129491741Y-101539364D01*
X129856717Y-101295495D01*
X130100586Y-100930519D01*
X130186222Y-100500000D01*
X130313778Y-100500000D01*
X130399414Y-100930519D01*
X130643283Y-101295495D01*
X131008259Y-101539364D01*
X131438778Y-101625000D01*
X135561222Y-101625000D01*
X135991741Y-101539364D01*
X136356717Y-101295495D01*
X136600586Y-100930519D01*
X136686222Y-100500000D01*
X136813778Y-100500000D01*
X136899414Y-100930519D01*
X137143283Y-101295495D01*
X137508259Y-101539364D01*
X137938778Y-101625000D01*
X142061222Y-101625000D01*
X142491741Y-101539364D01*
X142856717Y-101295495D01*
X143100586Y-100930519D01*
X143186222Y-100500000D01*
X143313778Y-100500000D01*
X143399414Y-100930519D01*
X143643283Y-101295495D01*
X144008259Y-101539364D01*
X144438778Y-101625000D01*
X148561222Y-101625000D01*
X148991741Y-101539364D01*
X149356717Y-101295495D01*
X149600586Y-100930519D01*
X149686222Y-100500000D01*
X149600586Y-100069481D01*
X149356717Y-99704505D01*
X148991741Y-99460636D01*
X148561222Y-99375000D01*
X144438778Y-99375000D01*
X144008259Y-99460636D01*
X143643283Y-99704505D01*
X143399414Y-100069481D01*
X143313778Y-100500000D01*
X143186222Y-100500000D01*
X143100586Y-100069481D01*
X142856717Y-99704505D01*
X142491741Y-99460636D01*
X142061222Y-99375000D01*
X137938778Y-99375000D01*
X137508259Y-99460636D01*
X137143283Y-99704505D01*
X136899414Y-100069481D01*
X136813778Y-100500000D01*
X136686222Y-100500000D01*
X136600586Y-100069481D01*
X136356717Y-99704505D01*
X135991741Y-99460636D01*
X135561222Y-99375000D01*
X131438778Y-99375000D01*
X131008259Y-99460636D01*
X130643283Y-99704505D01*
X130399414Y-100069481D01*
X130313778Y-100500000D01*
X130186222Y-100500000D01*
X130100586Y-100069481D01*
X129856717Y-99704505D01*
X129491741Y-99460636D01*
X129061222Y-99375000D01*
X124938778Y-99375000D01*
X124508259Y-99460636D01*
X124143283Y-99704505D01*
X123899414Y-100069481D01*
X123813778Y-100500000D01*
X123686222Y-100500000D01*
X123600586Y-100069481D01*
X123356717Y-99704505D01*
X122991741Y-99460636D01*
X122561222Y-99375000D01*
X118438778Y-99375000D01*
X118008259Y-99460636D01*
X117643283Y-99704505D01*
X117399414Y-100069481D01*
X117313778Y-100500000D01*
X117186222Y-100500000D01*
X117100586Y-100069481D01*
X116856717Y-99704505D01*
X116491741Y-99460636D01*
X116061222Y-99375000D01*
X111938778Y-99375000D01*
X111508259Y-99460636D01*
X111143283Y-99704505D01*
X110899414Y-100069481D01*
X110813778Y-100500000D01*
X110899414Y-100930519D01*
X111143283Y-101295495D01*
X111508259Y-101539364D01*
X111547648Y-101547199D01*
X111460596Y-101677481D01*
X111374960Y-102108000D01*
X111460596Y-102538519D01*
X111683342Y-102871882D01*
X111482636Y-103172259D01*
X111397000Y-103602778D01*
X111397000Y-107725222D01*
X111482636Y-108155741D01*
X111611767Y-108349000D01*
X108174778Y-108349000D01*
X107744259Y-108434636D01*
X107379283Y-108678505D01*
X107315000Y-108774711D01*
X107250717Y-108678505D01*
X106885741Y-108434636D01*
X106455222Y-108349000D01*
X102332778Y-108349000D01*
X101902259Y-108434636D01*
X101559029Y-108663975D01*
X101379495Y-108395283D01*
X101282617Y-108330552D01*
X101379495Y-108265820D01*
X101623364Y-107900844D01*
X101709000Y-107470325D01*
X101709000Y-103857675D01*
X101623364Y-103427156D01*
X101422359Y-103126330D01*
X101645404Y-102792519D01*
X101731040Y-102362000D01*
X101645404Y-101931481D01*
X101440620Y-101625000D01*
X102811222Y-101625000D01*
X103241741Y-101539364D01*
X103606717Y-101295495D01*
X103850586Y-100930519D01*
X103936222Y-100500000D01*
X104313778Y-100500000D01*
X104399414Y-100930519D01*
X104643283Y-101295495D01*
X105008259Y-101539364D01*
X105438778Y-101625000D01*
X109561222Y-101625000D01*
X109991741Y-101539364D01*
X110356717Y-101295495D01*
X110600586Y-100930519D01*
X110686222Y-100500000D01*
X110600586Y-100069481D01*
X110356717Y-99704505D01*
X109991741Y-99460636D01*
X109561222Y-99375000D01*
X105438778Y-99375000D01*
X105008259Y-99460636D01*
X104643283Y-99704505D01*
X104399414Y-100069481D01*
X104313778Y-100500000D01*
X103936222Y-100500000D01*
X103850586Y-100069481D01*
X103606717Y-99704505D01*
X103241741Y-99460636D01*
X102811222Y-99375000D01*
X98688778Y-99375000D01*
X98258259Y-99460636D01*
X97893283Y-99704505D01*
X97649414Y-100069481D01*
X97610646Y-100264382D01*
X97588586Y-100153481D01*
X97344717Y-99788505D01*
X96979741Y-99544636D01*
X96549222Y-99459000D01*
X92426778Y-99459000D01*
X91996259Y-99544636D01*
X91631283Y-99788505D01*
X91625000Y-99797908D01*
X91625000Y-97938778D01*
X91539364Y-97508259D01*
X91295495Y-97143283D01*
X91081057Y-97000000D01*
X91295495Y-96856717D01*
X91539364Y-96491741D01*
X91562766Y-96374089D01*
X150327000Y-96374089D01*
X150327000Y-96966750D01*
X150485250Y-97125000D01*
X152230000Y-97125000D01*
X152230000Y-96025250D01*
X152071750Y-95867000D01*
X150834088Y-95867000D01*
X150601434Y-95963369D01*
X150423368Y-96141435D01*
X150327000Y-96374089D01*
X91562766Y-96374089D01*
X91625000Y-96061222D01*
X91625000Y-94271324D01*
X99124676Y-94271324D01*
X99409526Y-94960714D01*
X99936511Y-95488620D01*
X100625403Y-95774673D01*
X101371324Y-95775324D01*
X102060714Y-95490474D01*
X102588620Y-94963489D01*
X102874673Y-94274597D01*
X102875324Y-93528676D01*
X102590474Y-92839286D01*
X102063489Y-92311380D01*
X101374597Y-92025327D01*
X100628676Y-92024676D01*
X99939286Y-92309526D01*
X99411380Y-92836511D01*
X99125327Y-93525403D01*
X99124676Y-94271324D01*
X91625000Y-94271324D01*
X91625000Y-91938778D01*
X91591692Y-91771324D01*
X94084676Y-91771324D01*
X94369526Y-92460714D01*
X94896511Y-92988620D01*
X95585403Y-93274673D01*
X96331324Y-93275324D01*
X97020714Y-92990474D01*
X97548620Y-92463489D01*
X97834673Y-91774597D01*
X97835320Y-91033250D01*
X150327000Y-91033250D01*
X150327000Y-91625911D01*
X150423368Y-91858565D01*
X150601434Y-92036631D01*
X150834088Y-92133000D01*
X152071750Y-92133000D01*
X152230000Y-91974750D01*
X152230000Y-90875000D01*
X150485250Y-90875000D01*
X150327000Y-91033250D01*
X97835320Y-91033250D01*
X97835324Y-91028676D01*
X97550474Y-90339286D01*
X97023489Y-89811380D01*
X96334597Y-89525327D01*
X95588676Y-89524676D01*
X94899286Y-89809526D01*
X94371380Y-90336511D01*
X94085327Y-91025403D01*
X94084676Y-91771324D01*
X91591692Y-91771324D01*
X91539364Y-91508259D01*
X91295495Y-91143283D01*
X91081057Y-91000000D01*
X91295495Y-90856717D01*
X91539364Y-90491741D01*
X91625000Y-90061222D01*
X91625000Y-89271324D01*
X99124676Y-89271324D01*
X99409526Y-89960714D01*
X99936511Y-90488620D01*
X100625403Y-90774673D01*
X101371324Y-90775324D01*
X102060714Y-90490474D01*
X102588620Y-89963489D01*
X102874673Y-89274597D01*
X102875022Y-88874089D01*
X150327000Y-88874089D01*
X150327000Y-89466750D01*
X150485250Y-89625000D01*
X152230000Y-89625000D01*
X152230000Y-88525250D01*
X152071750Y-88367000D01*
X150834088Y-88367000D01*
X150601434Y-88463369D01*
X150423368Y-88641435D01*
X150327000Y-88874089D01*
X102875022Y-88874089D01*
X102875324Y-88528676D01*
X102590474Y-87839286D01*
X102063489Y-87311380D01*
X101374597Y-87025327D01*
X100628676Y-87024676D01*
X99939286Y-87309526D01*
X99411380Y-87836511D01*
X99125327Y-88525403D01*
X99124676Y-89271324D01*
X91625000Y-89271324D01*
X91625000Y-85938778D01*
X91539364Y-85508259D01*
X91295495Y-85143283D01*
X91081057Y-85000000D01*
X91295495Y-84856717D01*
X91539364Y-84491741D01*
X91625000Y-84061222D01*
X91625000Y-81450000D01*
X93612756Y-81450000D01*
X93612756Y-84950000D01*
X93656337Y-85181611D01*
X93793219Y-85394332D01*
X94002076Y-85537038D01*
X94250000Y-85587244D01*
X97750000Y-85587244D01*
X97981611Y-85543663D01*
X98194332Y-85406781D01*
X98337038Y-85197924D01*
X98387244Y-84950000D01*
X98387244Y-82033250D01*
X150327000Y-82033250D01*
X150327000Y-82625911D01*
X150423368Y-82858565D01*
X150601434Y-83036631D01*
X150834088Y-83133000D01*
X152071750Y-83133000D01*
X152230000Y-82974750D01*
X152230000Y-81875000D01*
X150485250Y-81875000D01*
X150327000Y-82033250D01*
X98387244Y-82033250D01*
X98387244Y-81450000D01*
X98343663Y-81218389D01*
X98206781Y-81005668D01*
X98033462Y-80887244D01*
X100750000Y-80887244D01*
X100981611Y-80843663D01*
X101194332Y-80706781D01*
X101337038Y-80497924D01*
X101387244Y-80250000D01*
X101387244Y-78641324D01*
X130884676Y-78641324D01*
X131169526Y-79330714D01*
X131696511Y-79858620D01*
X132385403Y-80144673D01*
X133131324Y-80145324D01*
X133787763Y-79874089D01*
X150327000Y-79874089D01*
X150327000Y-80466750D01*
X150485250Y-80625000D01*
X152230000Y-80625000D01*
X152230000Y-79525250D01*
X152071750Y-79367000D01*
X150834088Y-79367000D01*
X150601434Y-79463369D01*
X150423368Y-79641435D01*
X150327000Y-79874089D01*
X133787763Y-79874089D01*
X133820714Y-79860474D01*
X134348620Y-79333489D01*
X134634673Y-78644597D01*
X134635324Y-77898676D01*
X134350474Y-77209286D01*
X133823489Y-76681380D01*
X133134597Y-76395327D01*
X132388676Y-76394676D01*
X131699286Y-76679526D01*
X131171380Y-77206511D01*
X130885327Y-77895403D01*
X130884676Y-78641324D01*
X101387244Y-78641324D01*
X101387244Y-76871324D01*
X115624676Y-76871324D01*
X115909526Y-77560714D01*
X116436511Y-78088620D01*
X117125403Y-78374673D01*
X117871324Y-78375324D01*
X118560714Y-78090474D01*
X119088620Y-77563489D01*
X119374673Y-76874597D01*
X119375324Y-76128676D01*
X119090474Y-75439286D01*
X118563489Y-74911380D01*
X117874597Y-74625327D01*
X117128676Y-74624676D01*
X116439286Y-74909526D01*
X115911380Y-75436511D01*
X115625327Y-76125403D01*
X115624676Y-76871324D01*
X101387244Y-76871324D01*
X101387244Y-76750000D01*
X101343663Y-76518389D01*
X101206781Y-76305668D01*
X100997924Y-76162962D01*
X100750000Y-76112756D01*
X97250000Y-76112756D01*
X97018389Y-76156337D01*
X96805668Y-76293219D01*
X96662962Y-76502076D01*
X96612756Y-76750000D01*
X96612756Y-80250000D01*
X96656337Y-80481611D01*
X96793219Y-80694332D01*
X96966538Y-80812756D01*
X95045496Y-80812756D01*
X95108565Y-80786632D01*
X95286631Y-80608566D01*
X95383000Y-80375912D01*
X95383000Y-79533250D01*
X95224750Y-79375000D01*
X93875000Y-79375000D01*
X93875000Y-80724750D01*
X94011208Y-80860958D01*
X93805668Y-80993219D01*
X93662962Y-81202076D01*
X93612756Y-81450000D01*
X91625000Y-81450000D01*
X91625000Y-80883000D01*
X91966750Y-80883000D01*
X92125000Y-80724750D01*
X92125000Y-79375000D01*
X91605000Y-79375000D01*
X91605000Y-78161768D01*
X91625000Y-78061222D01*
X91625000Y-77625000D01*
X92125000Y-77625000D01*
X92125000Y-76275250D01*
X93875000Y-76275250D01*
X93875000Y-77625000D01*
X95224750Y-77625000D01*
X95383000Y-77466750D01*
X95383000Y-76624088D01*
X95286631Y-76391434D01*
X95108565Y-76213368D01*
X94875911Y-76117000D01*
X94033250Y-76117000D01*
X93875000Y-76275250D01*
X92125000Y-76275250D01*
X91966750Y-76117000D01*
X91625000Y-76117000D01*
X91625000Y-74371324D01*
X110584676Y-74371324D01*
X110869526Y-75060714D01*
X111396511Y-75588620D01*
X112085403Y-75874673D01*
X112831324Y-75875324D01*
X113520714Y-75590474D01*
X114048620Y-75063489D01*
X114334673Y-74374597D01*
X114335324Y-73628676D01*
X114324023Y-73601324D01*
X128384676Y-73601324D01*
X128669526Y-74290714D01*
X129196511Y-74818620D01*
X129885403Y-75104673D01*
X130631324Y-75105324D01*
X131320714Y-74820474D01*
X131848620Y-74293489D01*
X132134673Y-73604597D01*
X132134675Y-73601324D01*
X133384676Y-73601324D01*
X133669526Y-74290714D01*
X134196511Y-74818620D01*
X134885403Y-75104673D01*
X135631324Y-75105324D01*
X136320714Y-74820474D01*
X136608439Y-74533250D01*
X150327000Y-74533250D01*
X150327000Y-75125911D01*
X150423368Y-75358565D01*
X150601434Y-75536631D01*
X150834088Y-75633000D01*
X152071750Y-75633000D01*
X152230000Y-75474750D01*
X152230000Y-74375000D01*
X150485250Y-74375000D01*
X150327000Y-74533250D01*
X136608439Y-74533250D01*
X136848620Y-74293489D01*
X137134673Y-73604597D01*
X137135324Y-72858676D01*
X136935097Y-72374089D01*
X150327000Y-72374089D01*
X150327000Y-72966750D01*
X150485250Y-73125000D01*
X152230000Y-73125000D01*
X152230000Y-72025250D01*
X152071750Y-71867000D01*
X150834088Y-71867000D01*
X150601434Y-71963369D01*
X150423368Y-72141435D01*
X150327000Y-72374089D01*
X136935097Y-72374089D01*
X136850474Y-72169286D01*
X136323489Y-71641380D01*
X135634597Y-71355327D01*
X134888676Y-71354676D01*
X134199286Y-71639526D01*
X133671380Y-72166511D01*
X133385327Y-72855403D01*
X133384676Y-73601324D01*
X132134675Y-73601324D01*
X132135324Y-72858676D01*
X131850474Y-72169286D01*
X131323489Y-71641380D01*
X130634597Y-71355327D01*
X129888676Y-71354676D01*
X129199286Y-71639526D01*
X128671380Y-72166511D01*
X128385327Y-72855403D01*
X128384676Y-73601324D01*
X114324023Y-73601324D01*
X114050474Y-72939286D01*
X113523489Y-72411380D01*
X112834597Y-72125327D01*
X112088676Y-72124676D01*
X111399286Y-72409526D01*
X110871380Y-72936511D01*
X110585327Y-73625403D01*
X110584676Y-74371324D01*
X91625000Y-74371324D01*
X91625000Y-73938778D01*
X91539364Y-73508259D01*
X91295495Y-73143283D01*
X91081057Y-73000000D01*
X91295495Y-72856717D01*
X91539364Y-72491741D01*
X91625000Y-72061222D01*
X91625000Y-71871324D01*
X115624676Y-71871324D01*
X115909526Y-72560714D01*
X116436511Y-73088620D01*
X117125403Y-73374673D01*
X117871324Y-73375324D01*
X118560714Y-73090474D01*
X119088620Y-72563489D01*
X119374673Y-71874597D01*
X119375324Y-71128676D01*
X119090474Y-70439286D01*
X118563489Y-69911380D01*
X118198926Y-69760000D01*
X123650001Y-69760000D01*
X123710896Y-70066147D01*
X123884315Y-70325685D01*
X124143853Y-70499104D01*
X124450000Y-70559999D01*
X124756147Y-70499104D01*
X125015685Y-70325685D01*
X125155685Y-70185685D01*
X125329104Y-69926147D01*
X125389999Y-69620000D01*
X125329104Y-69313853D01*
X125155685Y-69054315D01*
X124896147Y-68880896D01*
X124590000Y-68820001D01*
X124283853Y-68880896D01*
X124024315Y-69054315D01*
X123884315Y-69194315D01*
X123710896Y-69453853D01*
X123650001Y-69760000D01*
X118198926Y-69760000D01*
X117874597Y-69625327D01*
X117128676Y-69624676D01*
X116439286Y-69909526D01*
X115911380Y-70436511D01*
X115625327Y-71125403D01*
X115624676Y-71871324D01*
X91625000Y-71871324D01*
X91625000Y-67938778D01*
X91539364Y-67508259D01*
X91295495Y-67143283D01*
X90930519Y-66899414D01*
X90582854Y-66830259D01*
X90830519Y-66780995D01*
X91195495Y-66537126D01*
X91439364Y-66172150D01*
X91525000Y-65741631D01*
X91525000Y-64750000D01*
X91813778Y-64750000D01*
X91899414Y-65180519D01*
X92143283Y-65545495D01*
X92508259Y-65789364D01*
X92938778Y-65875000D01*
X97061222Y-65875000D01*
X97491741Y-65789364D01*
X97856717Y-65545495D01*
X98100586Y-65180519D01*
X98186222Y-64750000D01*
X98100586Y-64319481D01*
X97856717Y-63954505D01*
X97491741Y-63710636D01*
X97061222Y-63625000D01*
X92938778Y-63625000D01*
X92508259Y-63710636D01*
X92143283Y-63954505D01*
X91899414Y-64319481D01*
X91813778Y-64750000D01*
X91525000Y-64750000D01*
X91525000Y-63658369D01*
X91439364Y-63227850D01*
X91195495Y-62862874D01*
X90832217Y-62620140D01*
X90930519Y-62600586D01*
X91295495Y-62356717D01*
X91539364Y-61991741D01*
X91625000Y-61561222D01*
X91625000Y-57438778D01*
X91539364Y-57008259D01*
X91295495Y-56643283D01*
X91264468Y-56622552D01*
X91295495Y-56601820D01*
X91539364Y-56236844D01*
X91625000Y-55806325D01*
X91625000Y-52193675D01*
X91539364Y-51763156D01*
X91295495Y-51398180D01*
X91077392Y-51252449D01*
X91295495Y-51106717D01*
X91539364Y-50741741D01*
X91625000Y-50311222D01*
X91625000Y-46188778D01*
X91539364Y-45758259D01*
X91295495Y-45393283D01*
X90930519Y-45149414D01*
X90807782Y-45125000D01*
X90930519Y-45100586D01*
X91295495Y-44856717D01*
X91539364Y-44491741D01*
X91625000Y-44061222D01*
X91625000Y-39938778D01*
X91539364Y-39508259D01*
X91295495Y-39143283D01*
X90930519Y-38899414D01*
X90500000Y-38813778D01*
X90069481Y-38899414D01*
X89704505Y-39143283D01*
X89460636Y-39508259D01*
X89375000Y-39938778D01*
X89375000Y-44061222D01*
X89460636Y-44491741D01*
X89704505Y-44856717D01*
X90069481Y-45100586D01*
X90192218Y-45125000D01*
X90069481Y-45149414D01*
X89704505Y-45393283D01*
X89460636Y-45758259D01*
X89375000Y-46188778D01*
X89375000Y-50311222D01*
X89460636Y-50741741D01*
X89704505Y-51106717D01*
X89922608Y-51252449D01*
X89704505Y-51398180D01*
X89460636Y-51763156D01*
X89375000Y-52193675D01*
X89375000Y-55806325D01*
X89460636Y-56236844D01*
X89704505Y-56601820D01*
X89735532Y-56622551D01*
X89704505Y-56643283D01*
X89460636Y-57008259D01*
X89375000Y-57438778D01*
X89375000Y-61561222D01*
X89460636Y-61991741D01*
X89704505Y-62356717D01*
X90067783Y-62599451D01*
X89969481Y-62619005D01*
X89604505Y-62862874D01*
X89360636Y-63227850D01*
X89275000Y-63658369D01*
X89275000Y-65741631D01*
X89360636Y-66172150D01*
X89604505Y-66537126D01*
X89969481Y-66780995D01*
X90317146Y-66850150D01*
X90069481Y-66899414D01*
X89704505Y-67143283D01*
X89460636Y-67508259D01*
X89375000Y-67938778D01*
X89375000Y-72061222D01*
X89460636Y-72491741D01*
X89704505Y-72856717D01*
X89918943Y-73000000D01*
X89704505Y-73143283D01*
X89460636Y-73508259D01*
X89375000Y-73938778D01*
X89375000Y-78061222D01*
X89460636Y-78491741D01*
X89704505Y-78856717D01*
X89918943Y-79000000D01*
X89704505Y-79143283D01*
X89460636Y-79508259D01*
X89375000Y-79938778D01*
X89375000Y-84061222D01*
X89460636Y-84491741D01*
X89704505Y-84856717D01*
X89918943Y-85000000D01*
X89704505Y-85143283D01*
X89460636Y-85508259D01*
X89375000Y-85938778D01*
X89375000Y-90061222D01*
X89460636Y-90491741D01*
X89704505Y-90856717D01*
X89918943Y-91000000D01*
X89704505Y-91143283D01*
X89460636Y-91508259D01*
X89375000Y-91938778D01*
X89375000Y-96061222D01*
X89460636Y-96491741D01*
X89704505Y-96856717D01*
X89918943Y-97000000D01*
X89704505Y-97143283D01*
X89460636Y-97508259D01*
X89375000Y-97938778D01*
X89375000Y-102061222D01*
X89460636Y-102491741D01*
X89704505Y-102856717D01*
X90069481Y-103100586D01*
X90192218Y-103125000D01*
X90069481Y-103149414D01*
X89704505Y-103393283D01*
X89460636Y-103758259D01*
X89375000Y-104188778D01*
X89375000Y-108311222D01*
X89460636Y-108741741D01*
X89704505Y-109106717D01*
X89918943Y-109250000D01*
X89704505Y-109393283D01*
X89460636Y-109758259D01*
X89375000Y-110188778D01*
X89375000Y-114311222D01*
X89460636Y-114741741D01*
X89704505Y-115106717D01*
X89918943Y-115250000D01*
X89704505Y-115393283D01*
X89460636Y-115758259D01*
X89375000Y-116188778D01*
X89375000Y-120311222D01*
X89460636Y-120741741D01*
X89704505Y-121106717D01*
X89918943Y-121250000D01*
X89704505Y-121393283D01*
X89460636Y-121758259D01*
X89375000Y-122188778D01*
X89375000Y-126311222D01*
X89460636Y-126741741D01*
X89633199Y-127000000D01*
X89460636Y-127258259D01*
X89375000Y-127688778D01*
X89375000Y-131300000D01*
X88633000Y-131300000D01*
X88633000Y-130928250D01*
X88474750Y-130770000D01*
X87375000Y-130770000D01*
X87375000Y-130895000D01*
X86125000Y-130895000D01*
X86125000Y-130770000D01*
X85025250Y-130770000D01*
X84867000Y-130928250D01*
X84867000Y-131300000D01*
X81133000Y-131300000D01*
X81133000Y-130928250D01*
X80974750Y-130770000D01*
X79875000Y-130770000D01*
X79875000Y-130895000D01*
X78625000Y-130895000D01*
X78625000Y-130770000D01*
X77525250Y-130770000D01*
X77367000Y-130928250D01*
X77367000Y-131300000D01*
X70633000Y-131300000D01*
X70633000Y-130928250D01*
X70474750Y-130770000D01*
X69375000Y-130770000D01*
X69375000Y-130895000D01*
X68125000Y-130895000D01*
X68125000Y-130770000D01*
X67025250Y-130770000D01*
X66867000Y-130928250D01*
X66867000Y-131300000D01*
X63133000Y-131300000D01*
X63133000Y-130928250D01*
X62974750Y-130770000D01*
X61875000Y-130770000D01*
X61875000Y-130895000D01*
X60625000Y-130895000D01*
X60625000Y-130770000D01*
X59525250Y-130770000D01*
X59367000Y-130928250D01*
X59367000Y-131300000D01*
X57700000Y-131300000D01*
X57700000Y-128133000D01*
X58571750Y-128133000D01*
X58624998Y-128079752D01*
X58624998Y-128133000D01*
X59428250Y-128133000D01*
X59525250Y-128230000D01*
X60625000Y-128230000D01*
X60625000Y-128133000D01*
X61375002Y-128133000D01*
X61375002Y-128079752D01*
X61428250Y-128133000D01*
X61875000Y-128133000D01*
X61875000Y-128230000D01*
X62974750Y-128230000D01*
X63133000Y-128071750D01*
X63133000Y-127722480D01*
X63173000Y-127625911D01*
X63173000Y-127033250D01*
X63133000Y-126993250D01*
X63133000Y-126834088D01*
X66867000Y-126834088D01*
X66867000Y-128071750D01*
X67025250Y-128230000D01*
X68125000Y-128230000D01*
X68125000Y-126485250D01*
X69375000Y-126485250D01*
X69375000Y-128230000D01*
X70474750Y-128230000D01*
X70633000Y-128071750D01*
X70633000Y-126834088D01*
X77367000Y-126834088D01*
X77367000Y-128071750D01*
X77525250Y-128230000D01*
X78625000Y-128230000D01*
X78625000Y-126485250D01*
X79875000Y-126485250D01*
X79875000Y-128230000D01*
X80974750Y-128230000D01*
X81133000Y-128071750D01*
X81133000Y-126834088D01*
X84867000Y-126834088D01*
X84867000Y-128071750D01*
X85025250Y-128230000D01*
X86125000Y-128230000D01*
X86125000Y-126485250D01*
X87375000Y-126485250D01*
X87375000Y-128230000D01*
X88474750Y-128230000D01*
X88633000Y-128071750D01*
X88633000Y-126834088D01*
X88536631Y-126601434D01*
X88358565Y-126423368D01*
X88125911Y-126327000D01*
X87533250Y-126327000D01*
X87375000Y-126485250D01*
X86125000Y-126485250D01*
X85966750Y-126327000D01*
X85374089Y-126327000D01*
X85141435Y-126423368D01*
X84963369Y-126601434D01*
X84867000Y-126834088D01*
X81133000Y-126834088D01*
X81036631Y-126601434D01*
X80858565Y-126423368D01*
X80625911Y-126327000D01*
X80033250Y-126327000D01*
X79875000Y-126485250D01*
X78625000Y-126485250D01*
X78466750Y-126327000D01*
X77874089Y-126327000D01*
X77641435Y-126423368D01*
X77463369Y-126601434D01*
X77367000Y-126834088D01*
X70633000Y-126834088D01*
X70536631Y-126601434D01*
X70358565Y-126423368D01*
X70125911Y-126327000D01*
X69533250Y-126327000D01*
X69375000Y-126485250D01*
X68125000Y-126485250D01*
X67966750Y-126327000D01*
X67374089Y-126327000D01*
X67141435Y-126423368D01*
X66963369Y-126601434D01*
X66867000Y-126834088D01*
X63133000Y-126834088D01*
X63036631Y-126601434D01*
X62858565Y-126423368D01*
X62625911Y-126327000D01*
X62033250Y-126327000D01*
X61875000Y-126485250D01*
X61875000Y-126875000D01*
X61270000Y-126875000D01*
X61270000Y-127500000D01*
X60625000Y-127500000D01*
X60625000Y-126485250D01*
X60466750Y-126327000D01*
X59874089Y-126327000D01*
X59641435Y-126423368D01*
X59463369Y-126601434D01*
X59367000Y-126834088D01*
X59367000Y-127500000D01*
X58730000Y-127500000D01*
X58730000Y-126875000D01*
X58605000Y-126875000D01*
X58605000Y-125625000D01*
X58730000Y-125625000D01*
X58730000Y-124525250D01*
X61270000Y-124525250D01*
X61270000Y-125625000D01*
X63014750Y-125625000D01*
X63173000Y-125466750D01*
X63173000Y-124874089D01*
X63093447Y-124682029D01*
X63413180Y-124682029D01*
X63645246Y-125029396D01*
X64107966Y-125376854D01*
X64325000Y-125302581D01*
X64325000Y-124465000D01*
X65175000Y-124465000D01*
X65175000Y-125302581D01*
X65392034Y-125376854D01*
X65854754Y-125029396D01*
X66086820Y-124682029D01*
X66004726Y-124465000D01*
X65175000Y-124465000D01*
X64325000Y-124465000D01*
X63495274Y-124465000D01*
X63413180Y-124682029D01*
X63093447Y-124682029D01*
X63076632Y-124641435D01*
X62898566Y-124463369D01*
X62665912Y-124367000D01*
X61428250Y-124367000D01*
X61270000Y-124525250D01*
X58730000Y-124525250D01*
X58571750Y-124367000D01*
X57700000Y-124367000D01*
X57700000Y-120650000D01*
X63262756Y-120650000D01*
X63262756Y-122350000D01*
X63306337Y-122581611D01*
X63374998Y-122688313D01*
X63374998Y-123190000D01*
X63552120Y-123190000D01*
X63413180Y-123397971D01*
X63495274Y-123615000D01*
X64325000Y-123615000D01*
X64325000Y-123190000D01*
X65175000Y-123190000D01*
X65175000Y-123615000D01*
X66004726Y-123615000D01*
X66086820Y-123397971D01*
X65947880Y-123190000D01*
X66125002Y-123190000D01*
X66125002Y-122688717D01*
X66187038Y-122597924D01*
X66237244Y-122350000D01*
X66237244Y-120650000D01*
X66193663Y-120418389D01*
X66056781Y-120205668D01*
X65847924Y-120062962D01*
X65600000Y-120012756D01*
X63900000Y-120012756D01*
X63668389Y-120056337D01*
X63455668Y-120193219D01*
X63312962Y-120402076D01*
X63262756Y-120650000D01*
X57700000Y-120650000D01*
X57700000Y-120633000D01*
X58571750Y-120633000D01*
X58730000Y-120474750D01*
X58730000Y-119375000D01*
X61270000Y-119375000D01*
X61270000Y-120474750D01*
X61428250Y-120633000D01*
X62665912Y-120633000D01*
X62898566Y-120536631D01*
X63076632Y-120358565D01*
X63173000Y-120125911D01*
X63173000Y-119533250D01*
X63014750Y-119375000D01*
X61270000Y-119375000D01*
X58730000Y-119375000D01*
X58605000Y-119375000D01*
X58605000Y-118125000D01*
X58730000Y-118125000D01*
X58730000Y-117025250D01*
X61270000Y-117025250D01*
X61270000Y-118125000D01*
X63014750Y-118125000D01*
X63173000Y-117966750D01*
X63173000Y-117374089D01*
X63076632Y-117141435D01*
X62898566Y-116963369D01*
X62665912Y-116867000D01*
X61428250Y-116867000D01*
X61270000Y-117025250D01*
X58730000Y-117025250D01*
X58571750Y-116867000D01*
X57700000Y-116867000D01*
X57700000Y-111133000D01*
X58571750Y-111133000D01*
X58730000Y-110974750D01*
X58730000Y-109875000D01*
X61270000Y-109875000D01*
X61270000Y-110974750D01*
X61428250Y-111133000D01*
X62665912Y-111133000D01*
X62898566Y-111036631D01*
X63076632Y-110858565D01*
X63173000Y-110625911D01*
X63173000Y-110033250D01*
X63014750Y-109875000D01*
X61270000Y-109875000D01*
X58730000Y-109875000D01*
X58605000Y-109875000D01*
X58605000Y-108625000D01*
X58730000Y-108625000D01*
X58730000Y-107525250D01*
X61270000Y-107525250D01*
X61270000Y-108625000D01*
X63014750Y-108625000D01*
X63173000Y-108466750D01*
X63173000Y-107882029D01*
X63263180Y-107882029D01*
X63495246Y-108229396D01*
X63957966Y-108576854D01*
X64175000Y-108502581D01*
X64175000Y-107665000D01*
X65025000Y-107665000D01*
X65025000Y-108502581D01*
X65242034Y-108576854D01*
X65704754Y-108229396D01*
X65936820Y-107882029D01*
X65854726Y-107665000D01*
X65025000Y-107665000D01*
X64175000Y-107665000D01*
X63345274Y-107665000D01*
X63263180Y-107882029D01*
X63173000Y-107882029D01*
X63173000Y-107874089D01*
X63076632Y-107641435D01*
X62898566Y-107463369D01*
X62665912Y-107367000D01*
X61428250Y-107367000D01*
X61270000Y-107525250D01*
X58730000Y-107525250D01*
X58571750Y-107367000D01*
X57700000Y-107367000D01*
X57700000Y-103850000D01*
X63112756Y-103850000D01*
X63112756Y-105550000D01*
X63156337Y-105781611D01*
X63224998Y-105888313D01*
X63224998Y-106390000D01*
X63402120Y-106390000D01*
X63263180Y-106597971D01*
X63345274Y-106815000D01*
X64175000Y-106815000D01*
X64175000Y-106390000D01*
X65025000Y-106390000D01*
X65025000Y-106815000D01*
X65854726Y-106815000D01*
X65936820Y-106597971D01*
X65797880Y-106390000D01*
X65975002Y-106390000D01*
X65975002Y-105888717D01*
X66037038Y-105797924D01*
X66087244Y-105550000D01*
X66087244Y-103850000D01*
X66043663Y-103618389D01*
X65906781Y-103405668D01*
X65697924Y-103262962D01*
X65450000Y-103212756D01*
X63750000Y-103212756D01*
X63518389Y-103256337D01*
X63305668Y-103393219D01*
X63162962Y-103602076D01*
X63112756Y-103850000D01*
X57700000Y-103850000D01*
X57700000Y-103633000D01*
X58571750Y-103633000D01*
X58730000Y-103474750D01*
X58730000Y-102375000D01*
X61270000Y-102375000D01*
X61270000Y-103474750D01*
X61428250Y-103633000D01*
X62665912Y-103633000D01*
X62898566Y-103536631D01*
X63076632Y-103358565D01*
X63173000Y-103125911D01*
X63173000Y-102533250D01*
X63014750Y-102375000D01*
X61270000Y-102375000D01*
X58730000Y-102375000D01*
X58605000Y-102375000D01*
X58605000Y-101125000D01*
X58730000Y-101125000D01*
X58730000Y-100025250D01*
X61270000Y-100025250D01*
X61270000Y-101125000D01*
X63014750Y-101125000D01*
X63173000Y-100966750D01*
X63173000Y-100374089D01*
X63076632Y-100141435D01*
X62898566Y-99963369D01*
X62665912Y-99867000D01*
X61428250Y-99867000D01*
X61270000Y-100025250D01*
X58730000Y-100025250D01*
X58571750Y-99867000D01*
X57700000Y-99867000D01*
X57700000Y-93633000D01*
X58571750Y-93633000D01*
X58730000Y-93474750D01*
X58730000Y-92375000D01*
X61270000Y-92375000D01*
X61270000Y-93474750D01*
X61428250Y-93633000D01*
X62665912Y-93633000D01*
X62898566Y-93536631D01*
X63076632Y-93358565D01*
X63173000Y-93125911D01*
X63173000Y-92533250D01*
X63014750Y-92375000D01*
X61270000Y-92375000D01*
X58730000Y-92375000D01*
X58605000Y-92375000D01*
X58605000Y-91425000D01*
X63987756Y-91425000D01*
X63987756Y-93425000D01*
X64031337Y-93656611D01*
X64168219Y-93869332D01*
X64377076Y-94012038D01*
X64625000Y-94062244D01*
X66625000Y-94062244D01*
X66856611Y-94018663D01*
X67069332Y-93881781D01*
X67212038Y-93672924D01*
X67262244Y-93425000D01*
X67262244Y-91425000D01*
X68737756Y-91425000D01*
X68737756Y-93425000D01*
X68781337Y-93656611D01*
X68918219Y-93869332D01*
X69127076Y-94012038D01*
X69375000Y-94062244D01*
X71375000Y-94062244D01*
X71606611Y-94018663D01*
X71819332Y-93881781D01*
X71962038Y-93672924D01*
X72012244Y-93425000D01*
X72012244Y-91425000D01*
X71968663Y-91193389D01*
X71831781Y-90980668D01*
X71622924Y-90837962D01*
X71375000Y-90787756D01*
X69375000Y-90787756D01*
X69143389Y-90831337D01*
X68930668Y-90968219D01*
X68787962Y-91177076D01*
X68737756Y-91425000D01*
X67262244Y-91425000D01*
X67218663Y-91193389D01*
X67081781Y-90980668D01*
X66872924Y-90837962D01*
X66625000Y-90787756D01*
X64625000Y-90787756D01*
X64393389Y-90831337D01*
X64180668Y-90968219D01*
X64037962Y-91177076D01*
X63987756Y-91425000D01*
X58605000Y-91425000D01*
X58605000Y-91125000D01*
X58730000Y-91125000D01*
X58730000Y-90025250D01*
X61270000Y-90025250D01*
X61270000Y-91125000D01*
X63014750Y-91125000D01*
X63173000Y-90966750D01*
X63173000Y-90374089D01*
X63076632Y-90141435D01*
X62898566Y-89963369D01*
X62665912Y-89867000D01*
X61428250Y-89867000D01*
X61270000Y-90025250D01*
X58730000Y-90025250D01*
X58571750Y-89867000D01*
X57700000Y-89867000D01*
X57700000Y-89308250D01*
X64092000Y-89308250D01*
X64092000Y-89775912D01*
X64188369Y-90008566D01*
X64366435Y-90186632D01*
X64599089Y-90283000D01*
X65066750Y-90283000D01*
X65225000Y-90124750D01*
X65225000Y-89150000D01*
X66225000Y-89150000D01*
X66225000Y-90124750D01*
X66383250Y-90283000D01*
X66850911Y-90283000D01*
X67083565Y-90186632D01*
X67261631Y-90008566D01*
X67358000Y-89775912D01*
X67358000Y-89308250D01*
X67199750Y-89150000D01*
X66225000Y-89150000D01*
X65225000Y-89150000D01*
X64250250Y-89150000D01*
X64092000Y-89308250D01*
X57700000Y-89308250D01*
X57700000Y-87524088D01*
X64092000Y-87524088D01*
X64092000Y-87991750D01*
X64250250Y-88150000D01*
X65225000Y-88150000D01*
X65225000Y-87175250D01*
X66225000Y-87175250D01*
X66225000Y-88150000D01*
X67199750Y-88150000D01*
X67358000Y-87991750D01*
X67358000Y-87675000D01*
X68537756Y-87675000D01*
X68537756Y-89675000D01*
X68581337Y-89906611D01*
X68718219Y-90119332D01*
X68927076Y-90262038D01*
X69175000Y-90312244D01*
X71175000Y-90312244D01*
X71406611Y-90268663D01*
X71619332Y-90131781D01*
X71762038Y-89922924D01*
X71812244Y-89675000D01*
X71812244Y-89250000D01*
X72387756Y-89250000D01*
X72387756Y-90950000D01*
X72431337Y-91181611D01*
X72568219Y-91394332D01*
X72777076Y-91537038D01*
X73025000Y-91587244D01*
X74725000Y-91587244D01*
X74956611Y-91543663D01*
X75063313Y-91475002D01*
X75565000Y-91475002D01*
X75565000Y-91297880D01*
X75772971Y-91436820D01*
X75990000Y-91354726D01*
X75990000Y-90525000D01*
X76840000Y-90525000D01*
X76840000Y-91354726D01*
X77057029Y-91436820D01*
X77404396Y-91204754D01*
X77751854Y-90742034D01*
X77677581Y-90525000D01*
X76840000Y-90525000D01*
X75990000Y-90525000D01*
X75565000Y-90525000D01*
X75565000Y-89675000D01*
X75990000Y-89675000D01*
X75990000Y-88845274D01*
X76840000Y-88845274D01*
X76840000Y-89675000D01*
X77677581Y-89675000D01*
X77716936Y-89560000D01*
X81442756Y-89560000D01*
X81442756Y-91260000D01*
X81486337Y-91491611D01*
X81623219Y-91704332D01*
X81832076Y-91847038D01*
X82080000Y-91897244D01*
X83780000Y-91897244D01*
X84011611Y-91853663D01*
X84118313Y-91785002D01*
X84620000Y-91785002D01*
X84620000Y-91607880D01*
X84827971Y-91746820D01*
X85045000Y-91664726D01*
X85045000Y-90835000D01*
X85895000Y-90835000D01*
X85895000Y-91664726D01*
X86112029Y-91746820D01*
X86459396Y-91514754D01*
X86806854Y-91052034D01*
X86732581Y-90835000D01*
X85895000Y-90835000D01*
X85045000Y-90835000D01*
X84620000Y-90835000D01*
X84620000Y-89985000D01*
X85045000Y-89985000D01*
X85045000Y-89155274D01*
X85895000Y-89155274D01*
X85895000Y-89985000D01*
X86732581Y-89985000D01*
X86806854Y-89767966D01*
X86459396Y-89305246D01*
X86112029Y-89073180D01*
X85895000Y-89155274D01*
X85045000Y-89155274D01*
X84827971Y-89073180D01*
X84620000Y-89212120D01*
X84620000Y-89034998D01*
X84118717Y-89034998D01*
X84027924Y-88972962D01*
X83780000Y-88922756D01*
X82080000Y-88922756D01*
X81848389Y-88966337D01*
X81635668Y-89103219D01*
X81492962Y-89312076D01*
X81442756Y-89560000D01*
X77716936Y-89560000D01*
X77751854Y-89457966D01*
X77404396Y-88995246D01*
X77057029Y-88763180D01*
X76840000Y-88845274D01*
X75990000Y-88845274D01*
X75772971Y-88763180D01*
X75565000Y-88902120D01*
X75565000Y-88724998D01*
X75063717Y-88724998D01*
X74972924Y-88662962D01*
X74725000Y-88612756D01*
X73025000Y-88612756D01*
X72793389Y-88656337D01*
X72580668Y-88793219D01*
X72437962Y-89002076D01*
X72387756Y-89250000D01*
X71812244Y-89250000D01*
X71812244Y-87675000D01*
X71768663Y-87443389D01*
X71631781Y-87230668D01*
X71422924Y-87087962D01*
X71175000Y-87037756D01*
X69175000Y-87037756D01*
X68943389Y-87081337D01*
X68730668Y-87218219D01*
X68587962Y-87427076D01*
X68537756Y-87675000D01*
X67358000Y-87675000D01*
X67358000Y-87524088D01*
X67261631Y-87291434D01*
X67083565Y-87113368D01*
X66850911Y-87017000D01*
X66383250Y-87017000D01*
X66225000Y-87175250D01*
X65225000Y-87175250D01*
X65066750Y-87017000D01*
X64599089Y-87017000D01*
X64366435Y-87113368D01*
X64188369Y-87291434D01*
X64092000Y-87524088D01*
X57700000Y-87524088D01*
X57700000Y-86133000D01*
X58571750Y-86133000D01*
X58730000Y-85974750D01*
X58730000Y-84875000D01*
X61270000Y-84875000D01*
X61270000Y-85974750D01*
X61428250Y-86133000D01*
X62665912Y-86133000D01*
X62898566Y-86036631D01*
X63076632Y-85858565D01*
X63173000Y-85625911D01*
X63173000Y-85033250D01*
X63014750Y-84875000D01*
X61270000Y-84875000D01*
X58730000Y-84875000D01*
X58605000Y-84875000D01*
X58605000Y-83625000D01*
X58730000Y-83625000D01*
X58730000Y-82525250D01*
X61270000Y-82525250D01*
X61270000Y-83625000D01*
X63014750Y-83625000D01*
X63173000Y-83466750D01*
X63173000Y-82874089D01*
X63076632Y-82641435D01*
X62898566Y-82463369D01*
X62665912Y-82367000D01*
X61428250Y-82367000D01*
X61270000Y-82525250D01*
X58730000Y-82525250D01*
X58571750Y-82367000D01*
X57700000Y-82367000D01*
X57700000Y-76633000D01*
X58371750Y-76633000D01*
X58530000Y-76474750D01*
X58530000Y-75375000D01*
X61070000Y-75375000D01*
X61070000Y-76474750D01*
X61228250Y-76633000D01*
X62465912Y-76633000D01*
X62698566Y-76536631D01*
X62876632Y-76358565D01*
X62973000Y-76125911D01*
X62973000Y-75533250D01*
X62814750Y-75375000D01*
X61070000Y-75375000D01*
X58530000Y-75375000D01*
X58405000Y-75375000D01*
X58405000Y-74125000D01*
X58530000Y-74125000D01*
X58530000Y-73025250D01*
X61070000Y-73025250D01*
X61070000Y-74125000D01*
X62814750Y-74125000D01*
X62973000Y-73966750D01*
X62973000Y-73374089D01*
X62876632Y-73141435D01*
X62698566Y-72963369D01*
X62465912Y-72867000D01*
X61228250Y-72867000D01*
X61070000Y-73025250D01*
X58530000Y-73025250D01*
X58371750Y-72867000D01*
X57700000Y-72867000D01*
X57700000Y-69133000D01*
X58371750Y-69133000D01*
X58530000Y-68974750D01*
X58530000Y-67875000D01*
X61070000Y-67875000D01*
X61070000Y-68974750D01*
X61228250Y-69133000D01*
X62465912Y-69133000D01*
X62698566Y-69036631D01*
X62876632Y-68858565D01*
X62973000Y-68625911D01*
X62973000Y-68033250D01*
X62814750Y-67875000D01*
X61070000Y-67875000D01*
X58530000Y-67875000D01*
X58405000Y-67875000D01*
X58405000Y-66625000D01*
X58530000Y-66625000D01*
X58530000Y-66000000D01*
X61070000Y-66000000D01*
X61070000Y-66625000D01*
X62814750Y-66625000D01*
X62973000Y-66466750D01*
X62973000Y-65874089D01*
X62942004Y-65799257D01*
X62991741Y-65789364D01*
X63356717Y-65545495D01*
X63600586Y-65180519D01*
X63625000Y-65057782D01*
X63649414Y-65180519D01*
X63893283Y-65545495D01*
X64258259Y-65789364D01*
X64688778Y-65875000D01*
X68811222Y-65875000D01*
X69241741Y-65789364D01*
X69606717Y-65545495D01*
X69850586Y-65180519D01*
X69875000Y-65057782D01*
X69899414Y-65180519D01*
X70143283Y-65545495D01*
X70508259Y-65789364D01*
X70938778Y-65875000D01*
X75061222Y-65875000D01*
X75491741Y-65789364D01*
X75856717Y-65545495D01*
X76100586Y-65180519D01*
X76186222Y-64750000D01*
X76313778Y-64750000D01*
X76399414Y-65180519D01*
X76643283Y-65545495D01*
X77008259Y-65789364D01*
X77438778Y-65875000D01*
X81561222Y-65875000D01*
X81991741Y-65789364D01*
X82356717Y-65545495D01*
X82600586Y-65180519D01*
X82686222Y-64750000D01*
X82813778Y-64750000D01*
X82899414Y-65180519D01*
X83143283Y-65545495D01*
X83508259Y-65789364D01*
X83938778Y-65875000D01*
X88061222Y-65875000D01*
X88491741Y-65789364D01*
X88856717Y-65545495D01*
X89100586Y-65180519D01*
X89186222Y-64750000D01*
X89100586Y-64319481D01*
X88856717Y-63954505D01*
X88491741Y-63710636D01*
X88061222Y-63625000D01*
X83938778Y-63625000D01*
X83508259Y-63710636D01*
X83143283Y-63954505D01*
X82899414Y-64319481D01*
X82813778Y-64750000D01*
X82686222Y-64750000D01*
X82600586Y-64319481D01*
X82356717Y-63954505D01*
X81991741Y-63710636D01*
X81561222Y-63625000D01*
X77438778Y-63625000D01*
X77008259Y-63710636D01*
X76643283Y-63954505D01*
X76399414Y-64319481D01*
X76313778Y-64750000D01*
X76186222Y-64750000D01*
X76100586Y-64319481D01*
X75856717Y-63954505D01*
X75491741Y-63710636D01*
X75061222Y-63625000D01*
X70938778Y-63625000D01*
X70508259Y-63710636D01*
X70143283Y-63954505D01*
X69899414Y-64319481D01*
X69875000Y-64442218D01*
X69850586Y-64319481D01*
X69606717Y-63954505D01*
X69241741Y-63710636D01*
X68811222Y-63625000D01*
X64688778Y-63625000D01*
X64258259Y-63710636D01*
X63893283Y-63954505D01*
X63649414Y-64319481D01*
X63625000Y-64442218D01*
X63600586Y-64319481D01*
X63356717Y-63954505D01*
X62991741Y-63710636D01*
X62561222Y-63625000D01*
X58438778Y-63625000D01*
X58008259Y-63710636D01*
X57700000Y-63916608D01*
X57700000Y-60633000D01*
X58571750Y-60633000D01*
X58730000Y-60474750D01*
X58730000Y-59375000D01*
X61270000Y-59375000D01*
X61270000Y-60474750D01*
X61428250Y-60633000D01*
X62665912Y-60633000D01*
X62898566Y-60536631D01*
X63076632Y-60358565D01*
X63173000Y-60125911D01*
X63173000Y-59533250D01*
X63014750Y-59375000D01*
X61270000Y-59375000D01*
X58730000Y-59375000D01*
X58605000Y-59375000D01*
X58605000Y-58125000D01*
X58730000Y-58125000D01*
X58730000Y-57025250D01*
X61270000Y-57025250D01*
X61270000Y-58125000D01*
X63014750Y-58125000D01*
X63173000Y-57966750D01*
X63173000Y-57374089D01*
X63076632Y-57141435D01*
X62898566Y-56963369D01*
X62665912Y-56867000D01*
X61428250Y-56867000D01*
X61270000Y-57025250D01*
X58730000Y-57025250D01*
X58571750Y-56867000D01*
X57700000Y-56867000D01*
X57700000Y-53133000D01*
X58571750Y-53133000D01*
X58730000Y-52974750D01*
X58730000Y-51875000D01*
X61270000Y-51875000D01*
X61270000Y-52974750D01*
X61428250Y-53133000D01*
X62665912Y-53133000D01*
X62898566Y-53036631D01*
X63076632Y-52858565D01*
X63173000Y-52625911D01*
X63173000Y-52033250D01*
X63014750Y-51875000D01*
X61270000Y-51875000D01*
X58730000Y-51875000D01*
X58605000Y-51875000D01*
X58605000Y-50625000D01*
X58730000Y-50625000D01*
X58730000Y-49525250D01*
X61270000Y-49525250D01*
X61270000Y-50625000D01*
X63014750Y-50625000D01*
X63173000Y-50466750D01*
X63173000Y-49874089D01*
X63076632Y-49641435D01*
X62898566Y-49463369D01*
X62665912Y-49367000D01*
X61428250Y-49367000D01*
X61270000Y-49525250D01*
X58730000Y-49525250D01*
X58571750Y-49367000D01*
X57700000Y-49367000D01*
X57700000Y-39000000D01*
X59362756Y-39000000D01*
X59362756Y-41000000D01*
X59406337Y-41231611D01*
X59543219Y-41444332D01*
X59752076Y-41587038D01*
X60000000Y-41637244D01*
X62000000Y-41637244D01*
X62231611Y-41593663D01*
X62444332Y-41456781D01*
X62587038Y-41247924D01*
X62637244Y-41000000D01*
X62637244Y-39000000D01*
X64362756Y-39000000D01*
X64362756Y-41000000D01*
X64406337Y-41231611D01*
X64543219Y-41444332D01*
X64752076Y-41587038D01*
X65000000Y-41637244D01*
X67000000Y-41637244D01*
X67231611Y-41593663D01*
X67444332Y-41456781D01*
X67587038Y-41247924D01*
X67637244Y-41000000D01*
X67637244Y-39000000D01*
X67593663Y-38768389D01*
X67456781Y-38555668D01*
X67247924Y-38412962D01*
X67000000Y-38362756D01*
X65000000Y-38362756D01*
X64768389Y-38406337D01*
X64555668Y-38543219D01*
X64412962Y-38752076D01*
X64362756Y-39000000D01*
X62637244Y-39000000D01*
X62593663Y-38768389D01*
X62456781Y-38555668D01*
X62247924Y-38412962D01*
X62000000Y-38362756D01*
X60000000Y-38362756D01*
X59768389Y-38406337D01*
X59555668Y-38543219D01*
X59412962Y-38752076D01*
X59362756Y-39000000D01*
X57700000Y-39000000D01*
X57700000Y-34000000D01*
X59362756Y-34000000D01*
X59362756Y-36000000D01*
X59406337Y-36231611D01*
X59543219Y-36444332D01*
X59752076Y-36587038D01*
X60000000Y-36637244D01*
X62000000Y-36637244D01*
X62231611Y-36593663D01*
X62444332Y-36456781D01*
X62587038Y-36247924D01*
X62637244Y-36000000D01*
X62637244Y-35658250D01*
X64367000Y-35658250D01*
X64367000Y-36125912D01*
X64463369Y-36358566D01*
X64641435Y-36536632D01*
X64874089Y-36633000D01*
X65341750Y-36633000D01*
X65500000Y-36474750D01*
X65500000Y-35500000D01*
X66500000Y-35500000D01*
X66500000Y-36474750D01*
X66658250Y-36633000D01*
X67125911Y-36633000D01*
X67358565Y-36536632D01*
X67491947Y-36403250D01*
X78017000Y-36403250D01*
X78017000Y-37640912D01*
X78113369Y-37873566D01*
X78291435Y-38051632D01*
X78524089Y-38148000D01*
X79116750Y-38148000D01*
X79275000Y-37989750D01*
X79275000Y-36245000D01*
X80525000Y-36245000D01*
X80525000Y-37989750D01*
X80683250Y-38148000D01*
X81275911Y-38148000D01*
X81508565Y-38051632D01*
X81686631Y-37873566D01*
X81783000Y-37640912D01*
X81783000Y-36403250D01*
X85517000Y-36403250D01*
X85517000Y-37640912D01*
X85613369Y-37873566D01*
X85791435Y-38051632D01*
X86024089Y-38148000D01*
X86616750Y-38148000D01*
X86775000Y-37989750D01*
X86775000Y-36245000D01*
X88025000Y-36245000D01*
X88025000Y-37989750D01*
X88183250Y-38148000D01*
X88775911Y-38148000D01*
X89008565Y-38051632D01*
X89186631Y-37873566D01*
X89283000Y-37640912D01*
X89283000Y-36403250D01*
X89124750Y-36245000D01*
X88025000Y-36245000D01*
X86775000Y-36245000D01*
X85675250Y-36245000D01*
X85517000Y-36403250D01*
X81783000Y-36403250D01*
X81624750Y-36245000D01*
X80525000Y-36245000D01*
X79275000Y-36245000D01*
X78175250Y-36245000D01*
X78017000Y-36403250D01*
X67491947Y-36403250D01*
X67536631Y-36358566D01*
X67633000Y-36125912D01*
X67633000Y-35658250D01*
X67474750Y-35500000D01*
X66500000Y-35500000D01*
X65500000Y-35500000D01*
X64525250Y-35500000D01*
X64367000Y-35658250D01*
X62637244Y-35658250D01*
X62637244Y-34000000D01*
X62613552Y-33874088D01*
X64367000Y-33874088D01*
X64367000Y-34341750D01*
X64525250Y-34500000D01*
X65500000Y-34500000D01*
X65500000Y-33525250D01*
X66500000Y-33525250D01*
X66500000Y-34500000D01*
X67474750Y-34500000D01*
X67633000Y-34341750D01*
X67633000Y-33874088D01*
X67536631Y-33641434D01*
X67358565Y-33463368D01*
X67125911Y-33367000D01*
X66658250Y-33367000D01*
X66500000Y-33525250D01*
X65500000Y-33525250D01*
X65341750Y-33367000D01*
X64874089Y-33367000D01*
X64641435Y-33463368D01*
X64463369Y-33641434D01*
X64367000Y-33874088D01*
X62613552Y-33874088D01*
X62593663Y-33768389D01*
X62456781Y-33555668D01*
X62247924Y-33412962D01*
X62000000Y-33362756D01*
X60000000Y-33362756D01*
X59768389Y-33406337D01*
X59555668Y-33543219D01*
X59412962Y-33752076D01*
X59362756Y-34000000D01*
X57700000Y-34000000D01*
X57700000Y-32700000D01*
X78017000Y-32700000D01*
X78017000Y-33546750D01*
M02*
