M48
;DRILL file {KiCad 4.0.7} date 05/11/20 23:09:26
;FORMAT={-:-/ absolute / metric / decimal}
FMAT,2
METRIC,TZ
T1C0.400
T2C1.000
T3C1.200
T4C1.250
%
G90
G05
M71
T1
X57.9Y-98.8
X58.12Y-79.29
X58.25Y-127.75
X58.34Y-113.73
X58.5Y-111.5
X58.8Y-75.4
X59.4Y-130.
X59.5Y-128.5
X59.59Y-131.86
X60.1Y-111.5
X60.13Y-79.41
X60.33Y-113.77
X61.7Y-75.7
X61.96Y-113.59
X62.Y-79.38
X62.Y-111.3
X62.2Y-96.2
X63.2Y-99.6
X63.325Y-100.825
X63.6Y-67.1
X63.75Y-127.
X63.8Y-65.4
X64.Y-73.5
X64.85Y-102.225
X65.6Y-112.2
X65.75Y-99.875
X65.75Y-114.25
X65.925Y-102.5
X66.4Y-96.
X69.1Y-107.9
X70.Y-61.1
X70.2Y-108.
X70.9Y-110.3
X71.2Y-59.5
X71.55Y-127.67
X71.78Y-131.86
X71.86Y-129.5
X72.4Y-59.8
X73.3Y-51.5
X73.6Y-35.1
X73.9Y-32.4
X74.55Y-51.425
X74.6Y-33.8
X75.Y-122.99
X75.53Y-121.89
X75.65Y-50.475
X75.675Y-47.8
X75.825Y-45.95
X76.4Y-98.5
X76.5Y-54.15
X76.675Y-96.775
X76.7Y-130.3
X76.85Y-100.45
X76.88Y-121.9
X76.96Y-128.17
X77.3Y-131.71
X77.58Y-122.98
X77.71Y-121.88
X77.8Y-35.9
X77.8Y-52.25
X77.95Y-97.8
X78.Y-99.375
X78.1Y-38.7
X78.375Y-46.925
X78.475Y-45.65
X78.86Y-121.73
X78.9Y-40.9
X78.95Y-52.25
X79.075Y-88.8
X79.1Y-37.9
X79.91Y-123.02
X80.425Y-90.4
X80.5Y-36.8
X80.6Y-39.6
X80.825Y-87.925
X85.3Y-57.
X86.6Y-56.9
X87.6Y-57.
X88.5Y-53.9
X88.66Y-131.6
X88.8Y-51.1
X88.85Y-130.
X88.93Y-128.24
X89.3Y-53.9
X104.55Y-85.75
X104.7Y-83.55
X106.6Y-84.75
X111.506Y-75.152
X111.506Y-90.424
X112.014Y-77.692
X113.538Y-91.694
X114.046Y-90.678
X114.7Y-124.2
X115.3Y-125.2
X115.4Y-114.1
X116.8Y-114.
X117.2Y-124.1
X117.67Y-45.75
X117.8Y-118.4
X117.856Y-82.042
X117.9Y-107.7
X117.9Y-113.1
X118.1Y-117.2
X118.7Y-108.9
X119.1Y-119.9
X119.38Y-80.772
X119.41Y-44.93
X119.95Y-92.6
X120.142Y-77.438
X120.28Y-38.09
X120.5Y-107.5
X120.6Y-120.2
X120.65Y-74.898
X120.72Y-46.3
X121.1Y-91.35
X121.158Y-76.168
X121.158Y-82.042
X121.5Y-117.7
X121.6Y-46.6
X121.666Y-39.37
X121.92Y-73.374
X122.24Y-44.01
X122.3Y-118.9
X122.35Y-93.75
X123.19Y-72.104
X123.19Y-106.426
X123.73Y-45.43
X123.952Y-75.914
X124.4Y-106.9
X124.6Y-104.6
X125.222Y-74.136
X126.746Y-75.66
X128.85Y-92.1
X130.55Y-93.35
X131.55Y-92.75
X132.08Y-67.278
X132.6Y-87.65
X132.65Y-85.1
X133.096Y-66.008
X133.2Y-126.4
X133.35Y-68.548
X133.604Y-39.116
X133.8Y-117.5
X133.858Y-36.576
X134.25Y-86.5
X134.8Y-118.5
X134.874Y-37.846
X135.Y-127.9
X135.6Y-117.3
X136.15Y-44.12
X136.2Y-127.1
X136.75Y-45.83
X136.906Y-104.394
X136.906Y-118.364
X138.176Y-69.85
X138.176Y-105.918
X138.176Y-119.634
X138.67Y-44.47
X138.684Y-72.136
X138.684Y-103.632
X138.684Y-115.57
X138.684Y-117.856
X139.192Y-69.85
X139.954Y-114.554
X140.57Y-34.76
X140.58Y-37.16
X141.224Y-116.078
X141.478Y-34.798
X141.478Y-71.088
X141.65Y-39.6
X142.1Y-125.3
X142.2Y-84.
X142.4Y-81.55
X142.6Y-122.8
X142.748Y-70.072
X143.2Y-117.3
X143.4Y-82.65
X143.5Y-124.
X143.58Y-39.83
X143.6Y-93.
X143.764Y-71.088
X144.3Y-116.6
X144.9Y-94.15
X145.1Y-85.95
X145.288Y-105.918
X145.57Y-72.18
X145.67Y-53.85
X145.85Y-38.
X145.9Y-119.
X146.35Y-92.75
X146.4Y-87.8
X146.43Y-71.52
X146.5Y-85.
X146.558Y-107.442
X146.812Y-104.902
X147.09Y-39.12
X147.3Y-72.2
X147.828Y-106.172
X148.25Y-34.71
X148.55Y-48.6
X148.6Y-85.75
X148.7Y-37.6
X149.05Y-72.18
X149.606Y-107.442
X149.675Y-38.925
X149.8Y-87.6
X149.9Y-84.85
X149.96Y-71.61
X150.368Y-104.902
X150.622Y-106.172
X151.16Y-72.51
X151.2Y-37.62
X151.32Y-48.65
T2
X64.6Y-104.7
X64.6Y-107.24
X64.75Y-121.5
X64.75Y-124.04
X73.875Y-90.1
X76.415Y-90.1
X84.875Y-93.2
X84.875Y-95.74
T3
X112.96Y-71.
X118.Y-68.5
X118.Y-73.5
X130.76Y-70.23
X133.26Y-75.27
X135.76Y-70.23
T4
X61.Y-33.
X61.Y-38.
X65.625Y-92.425
X65.725Y-88.65
X66.Y-33.
X66.Y-38.
X70.175Y-88.675
X70.375Y-92.425
X103.886Y-111.506
X103.886Y-116.586
X103.886Y-122.174
X103.886Y-127.254
X104.825Y-34.875
X104.9Y-42.05
X142.325Y-32.3
X146.175Y-32.275
X149.098Y-120.396
X149.098Y-125.476
X149.825Y-32.325
X153.775Y-32.325
X153.924Y-120.396
X153.924Y-125.476
T2
X93.5Y-74.5G85X93.5Y-76.5
G05
X95.5Y-80.2G85X97.5Y-80.2
G05
X99.5Y-74.5G85X99.5Y-76.5
G05
T0
M30
