G04 #@! TF.FileFunction,Copper,L2,Bot,Signal*
%FSLAX46Y46*%
G04 Gerber Fmt 4.6, Leading zero omitted, Abs format (unit mm)*
G04 Created by KiCad (PCBNEW 4.0.7) date 07/12/20 19:06:17*
%MOMM*%
%LPD*%
G01*
G04 APERTURE LIST*
%ADD10C,0.100000*%
%ADD11R,4.000000X1.500000*%
%ADD12R,2.000000X2.000000*%
%ADD13R,5.080000X2.500000*%
%ADD14R,3.500000X3.500000*%
%ADD15C,2.500000*%
%ADD16R,2.500000X5.080000*%
%ADD17R,1.700000X1.700000*%
%ADD18O,1.700000X1.700000*%
%ADD19C,0.600000*%
%ADD20C,0.350000*%
%ADD21C,0.500000*%
%ADD22C,1.000000*%
%ADD23C,0.250000*%
G04 APERTURE END LIST*
D10*
D11*
X104900000Y-41050000D03*
D12*
X153775000Y-34325000D03*
X142325000Y-34300000D03*
X146175000Y-34275000D03*
X149825000Y-34325000D03*
D11*
X104825000Y-33875000D03*
D13*
X154275000Y-45600000D03*
X154275000Y-38100000D03*
X154000000Y-61750000D03*
X154000000Y-54250000D03*
D14*
X103100000Y-78600000D03*
X97100000Y-78600000D03*
X100100000Y-83300000D03*
D13*
X153500000Y-97750000D03*
X153500000Y-90250000D03*
D15*
X122440000Y-73700000D03*
X117400000Y-76200000D03*
X117400000Y-71200000D03*
D11*
X103386000Y-124174000D03*
X103386000Y-113506000D03*
D12*
X148598000Y-127476000D03*
D11*
X103386000Y-129254000D03*
D12*
X148598000Y-122396000D03*
X153424000Y-122396000D03*
X153424000Y-127476000D03*
D11*
X103386000Y-118586000D03*
D13*
X153500000Y-116750000D03*
X153500000Y-109250000D03*
X60025000Y-116400000D03*
X60025000Y-123900000D03*
X59725000Y-93150000D03*
X59725000Y-100650000D03*
D16*
X76225000Y-129150000D03*
X83725000Y-129150000D03*
D12*
X86200000Y-94000000D03*
X86225000Y-87950000D03*
X80775000Y-94100000D03*
X80625000Y-87975000D03*
D13*
X59775000Y-55325000D03*
X59775000Y-62825000D03*
D16*
X87400000Y-34975000D03*
X79900000Y-34975000D03*
D12*
X66050000Y-38700000D03*
X61000000Y-35000000D03*
X60950000Y-38725000D03*
X66000000Y-35000000D03*
D15*
X100100000Y-96340000D03*
X97600000Y-91300000D03*
X102600000Y-91300000D03*
D17*
X97300000Y-87100000D03*
D18*
X99840000Y-87100000D03*
X102380000Y-87100000D03*
D12*
X58275000Y-111725000D03*
X58325000Y-105075000D03*
X63100000Y-111650000D03*
X63025000Y-105125000D03*
D14*
X65325000Y-77675000D03*
X59325000Y-77675000D03*
X62325000Y-82375000D03*
X65475000Y-44675000D03*
X59475000Y-44675000D03*
X62475000Y-49375000D03*
D19*
X153000000Y-106500000D03*
X151625000Y-105700000D03*
X149600000Y-105450000D03*
X146600000Y-105525000D03*
X144700000Y-105500000D03*
X142850000Y-105525000D03*
X140875000Y-105275000D03*
X138350000Y-108025000D03*
X120000000Y-109500000D03*
X131625000Y-105075000D03*
X129625000Y-104975000D03*
X127375000Y-104450000D03*
X124025000Y-104475000D03*
X122725000Y-104700000D03*
X121620000Y-104880000D03*
X121010000Y-106490000D03*
X136350000Y-106900000D03*
X145350000Y-128275000D03*
X142850000Y-128275000D03*
X140025000Y-128150000D03*
X136875000Y-127775000D03*
X141000000Y-124950000D03*
X137025000Y-108025000D03*
X132700000Y-128400000D03*
X129875000Y-128350000D03*
X134475000Y-127250000D03*
X59600000Y-107525000D03*
X61625000Y-108975000D03*
X60825000Y-106150000D03*
X67000000Y-96350000D03*
X68300000Y-99025000D03*
X67200000Y-99050000D03*
X63550000Y-95600000D03*
X62425000Y-94950000D03*
X64350000Y-93125000D03*
X63850000Y-107325000D03*
X63550000Y-63275000D03*
X64900000Y-62475000D03*
X63425000Y-60725000D03*
X61950000Y-53575000D03*
X60725000Y-53450000D03*
X58000000Y-53450000D03*
X58125000Y-64575000D03*
X61375000Y-64650000D03*
X59825000Y-64525000D03*
X81120000Y-63430000D03*
X84440000Y-63260000D03*
X86970000Y-63390000D03*
X88680000Y-63310000D03*
X72875000Y-64125000D03*
X79550000Y-63530000D03*
X78025000Y-64015000D03*
X75710000Y-64235000D03*
X74750000Y-64225000D03*
X90110000Y-48980000D03*
X89900000Y-54800000D03*
X90100000Y-52900000D03*
X90200000Y-50900000D03*
X89600000Y-62600000D03*
X90200000Y-61100000D03*
X90000000Y-59100000D03*
X90000000Y-57400000D03*
X90000000Y-56100000D03*
X64105000Y-64180000D03*
X66705000Y-63980000D03*
X68100000Y-64050000D03*
X69875000Y-64050000D03*
X64300000Y-55175000D03*
X64775000Y-55925000D03*
X66550000Y-55975000D03*
X69325000Y-56075000D03*
X71600000Y-56025000D03*
X71700000Y-54425000D03*
X72700000Y-51750000D03*
X72900000Y-49675000D03*
X85200000Y-99475000D03*
X84600000Y-101900000D03*
X84050000Y-99400000D03*
X86875000Y-123875000D03*
X89100000Y-123775000D03*
X88050000Y-122400000D03*
X82425000Y-122875000D03*
X84500000Y-122000000D03*
X83450000Y-120425000D03*
X73050000Y-121200000D03*
X73400000Y-118850000D03*
X74575000Y-120050000D03*
X58375000Y-125700000D03*
X59875000Y-125875000D03*
X62000000Y-125825000D03*
X58175000Y-114575000D03*
X59675000Y-114575000D03*
X61600000Y-114550000D03*
X73100000Y-112050000D03*
X73000000Y-114225000D03*
X71375000Y-113150000D03*
X83025000Y-112050000D03*
X84650000Y-110675000D03*
X82150000Y-110750000D03*
X84450000Y-107725000D03*
X82900000Y-105600000D03*
X82275000Y-106750000D03*
X61075000Y-102550000D03*
X59650000Y-102750000D03*
X58100000Y-102700000D03*
X66325000Y-108550000D03*
X66300000Y-107425000D03*
X73375000Y-97425000D03*
X73200000Y-98525000D03*
X74175000Y-99800000D03*
X78850000Y-97125000D03*
X77300000Y-97750000D03*
X76950000Y-95575000D03*
X76450000Y-96650000D03*
X82075000Y-85850000D03*
X79550000Y-85675000D03*
X77075000Y-89200000D03*
X58100000Y-91275000D03*
X59575000Y-91325000D03*
X61400000Y-91150000D03*
X60300000Y-87650000D03*
X66775000Y-91450000D03*
X72725000Y-85550000D03*
X75875000Y-87025000D03*
X76100000Y-89125000D03*
X123100000Y-38200000D03*
X108800000Y-91800000D03*
X109900000Y-91900000D03*
X110800000Y-90300000D03*
X112100000Y-93300000D03*
X112400000Y-91900000D03*
X110700000Y-92400000D03*
X105500000Y-97300000D03*
X108100000Y-96700000D03*
X105400000Y-95500000D03*
X111600000Y-89900000D03*
X111600000Y-87600000D03*
X109400000Y-86800000D03*
X111100000Y-86000000D03*
X111600000Y-88500000D03*
X109400000Y-88900000D03*
X149300000Y-96900000D03*
X147400000Y-97700000D03*
X145900000Y-98900000D03*
X142800000Y-99400000D03*
X138900000Y-99600000D03*
X134900000Y-99500000D03*
X130500000Y-99700000D03*
X126800000Y-99300000D03*
X123300000Y-99700000D03*
X119200000Y-99800000D03*
X115500000Y-99500000D03*
X112000000Y-99500000D03*
X108100000Y-99700000D03*
X104600000Y-99900000D03*
X100500000Y-99900000D03*
X96500000Y-99700000D03*
X94600000Y-97300000D03*
X94500000Y-94100000D03*
X94500000Y-89300000D03*
X94300000Y-86300000D03*
X96200000Y-84000000D03*
X96800000Y-81900000D03*
X153800000Y-67100000D03*
X151500000Y-67100000D03*
X149100000Y-67200000D03*
X145300000Y-67100000D03*
X142500000Y-67000000D03*
X138700000Y-67000000D03*
X134300000Y-67000000D03*
X129700000Y-66800000D03*
X124500000Y-66600000D03*
X120300000Y-66900000D03*
X114600000Y-66900000D03*
X110600000Y-66900000D03*
X106900000Y-66800000D03*
X102800000Y-67000000D03*
X101500000Y-67000000D03*
X95500000Y-67300000D03*
X93800000Y-68700000D03*
X96100000Y-72000000D03*
X96400000Y-74400000D03*
X146500000Y-85700000D03*
X146900000Y-84900000D03*
X144600000Y-75900000D03*
X143800000Y-75300000D03*
X145500000Y-79000000D03*
X146300000Y-78600000D03*
X152700000Y-84500000D03*
X153800000Y-84600000D03*
X132300000Y-80800000D03*
X124800000Y-77800000D03*
X120000000Y-80700000D03*
X121400000Y-77400000D03*
X122700000Y-79400000D03*
X134100000Y-71700000D03*
X131300000Y-71700000D03*
X121300000Y-93900000D03*
X121200000Y-92800000D03*
X123800000Y-93200000D03*
X130700000Y-47800000D03*
X130700000Y-46800000D03*
X128400000Y-47400000D03*
X120900000Y-89700000D03*
X121500000Y-86900000D03*
X120100000Y-86900000D03*
X120658000Y-85042000D03*
X117000000Y-83500000D03*
X75600000Y-57800000D03*
X89000000Y-48300000D03*
X87800000Y-46200000D03*
X88700000Y-56100000D03*
X88900000Y-53300000D03*
X83700000Y-56900000D03*
X85000000Y-58800000D03*
X75400000Y-59100000D03*
X77600000Y-58500000D03*
X81500000Y-46000000D03*
X115900000Y-83500000D03*
X116300000Y-86200000D03*
X122350000Y-85130000D03*
X123110000Y-86070000D03*
X124160000Y-87160000D03*
X126490000Y-86800000D03*
X132150000Y-88100000D03*
X88470000Y-40570000D03*
X88250000Y-41930000D03*
X90090000Y-43960000D03*
X90030000Y-46320000D03*
X88700000Y-38230000D03*
X86970000Y-38030000D03*
X85650000Y-37950000D03*
X78375000Y-48925000D03*
X86060000Y-51540000D03*
X85120000Y-51660000D03*
X84000000Y-51300000D03*
X82800000Y-51320000D03*
X82330000Y-49980000D03*
X82300000Y-49020000D03*
X76730000Y-33280000D03*
X77000000Y-34990000D03*
X76960000Y-36630000D03*
X77800000Y-37900000D03*
X78100000Y-40700000D03*
X74710000Y-40400000D03*
X76240000Y-40400000D03*
X78900000Y-42900000D03*
X77110000Y-43220000D03*
X74980000Y-43410000D03*
X74830000Y-45010000D03*
X73090000Y-48130000D03*
X124070000Y-48740000D03*
X126000000Y-48760000D03*
X127980000Y-48650000D03*
X129920000Y-48650000D03*
X131720000Y-48710000D03*
X134050000Y-48590000D03*
X135580000Y-48530000D03*
X150620000Y-47740000D03*
X148780000Y-47950000D03*
X146990000Y-48100000D03*
X145050000Y-48140000D03*
X141350000Y-48250000D03*
X156130000Y-36310000D03*
X156130000Y-34800000D03*
X155570000Y-32900000D03*
X153670000Y-32540000D03*
X151220000Y-32560000D03*
X148130000Y-32750000D03*
X144670000Y-32670000D03*
X141120000Y-32560000D03*
X139375000Y-32575000D03*
X137525000Y-32600000D03*
X135000000Y-32710000D03*
X132450000Y-32700000D03*
X130250000Y-32650000D03*
X128400000Y-32700000D03*
X126005000Y-32605000D03*
X123255000Y-32645000D03*
X119800000Y-32800000D03*
X120100000Y-34200000D03*
X151250000Y-129125000D03*
X153725000Y-129250000D03*
X155475000Y-129050000D03*
X155570000Y-127760000D03*
X155460000Y-125080000D03*
X155380000Y-122510000D03*
X155420000Y-120750000D03*
X155420000Y-119060000D03*
X123350000Y-129100000D03*
X120920000Y-128870000D03*
X119860000Y-128300000D03*
X117990000Y-127730000D03*
X116200000Y-127650000D03*
X80600000Y-41600000D03*
X79100000Y-39900000D03*
X80500000Y-38800000D03*
X74600000Y-35800000D03*
X73600000Y-37100000D03*
X73900000Y-34400000D03*
X76500000Y-56150000D03*
X78950000Y-54250000D03*
X77800000Y-54250000D03*
X75675000Y-49800000D03*
X75825000Y-47950000D03*
X78475000Y-47650000D03*
X114900000Y-116100000D03*
X116300000Y-116000000D03*
X117400000Y-115100000D03*
X142100000Y-124800000D03*
X143000000Y-126000000D03*
X142700000Y-119300000D03*
X145400000Y-121000000D03*
X143800000Y-118600000D03*
X133300000Y-119500000D03*
X134300000Y-120500000D03*
X135100000Y-119300000D03*
X114800000Y-127200000D03*
X114200000Y-126200000D03*
X116700000Y-126100000D03*
X117600000Y-119200000D03*
X121000000Y-119700000D03*
X120100000Y-122200000D03*
X121800000Y-120900000D03*
X118600000Y-121900000D03*
X117300000Y-120400000D03*
X118200000Y-110900000D03*
X117400000Y-109700000D03*
X124100000Y-106600000D03*
X123900000Y-108900000D03*
X122690000Y-108426000D03*
X149868000Y-106902000D03*
X146312000Y-106902000D03*
X144788000Y-107918000D03*
X146058000Y-109442000D03*
X147328000Y-108172000D03*
X149106000Y-109442000D03*
X150122000Y-108172000D03*
X138184000Y-117570000D03*
X139454000Y-116554000D03*
X140724000Y-118078000D03*
X138184000Y-119856000D03*
X136406000Y-120364000D03*
X137676000Y-121634000D03*
X148550000Y-50600000D03*
X143100000Y-96000000D03*
X144400000Y-97150000D03*
X145850000Y-95750000D03*
X148100000Y-88750000D03*
X149300000Y-90600000D03*
X149400000Y-87850000D03*
X144600000Y-88950000D03*
X145900000Y-90800000D03*
X146000000Y-88000000D03*
X142900000Y-85650000D03*
X141700000Y-87000000D03*
X132100000Y-90650000D03*
X133750000Y-89500000D03*
X128350000Y-95100000D03*
X130050000Y-96350000D03*
X131050000Y-95750000D03*
X117600000Y-46500000D03*
X120720000Y-48300000D03*
X119400000Y-48200000D03*
X123730000Y-47430000D03*
X121600000Y-48600000D03*
X122240000Y-46010000D03*
X136150000Y-46120000D03*
X136750000Y-47830000D03*
X138670000Y-46470000D03*
X145670000Y-55850000D03*
X151320000Y-50650000D03*
X149675000Y-40925000D03*
X148700000Y-39600000D03*
X145850000Y-40000000D03*
X147090000Y-41120000D03*
X151200000Y-39620000D03*
X121100000Y-39400000D03*
X122700000Y-39400000D03*
X133604000Y-41116000D03*
X133858000Y-38576000D03*
X134874000Y-39846000D03*
X141478000Y-36798000D03*
X140570000Y-36760000D03*
X140580000Y-39160000D03*
X141650000Y-41600000D03*
X143580000Y-41830000D03*
X148250000Y-36710000D03*
D20*
X140875000Y-105275000D02*
X140875000Y-105500000D01*
X153000000Y-106410000D02*
X153000000Y-106500000D01*
X151625000Y-105700000D02*
X153000000Y-106410000D01*
X147575000Y-105500000D02*
X149600000Y-105450000D01*
X146600000Y-105525000D02*
X147575000Y-105500000D01*
X142870000Y-105545000D02*
X144700000Y-105500000D01*
X142850000Y-105525000D02*
X142870000Y-105545000D01*
X140875000Y-105500000D02*
X138350000Y-108025000D01*
X131625000Y-105075000D02*
X131625000Y-105850000D01*
X128350000Y-104450000D02*
X129625000Y-104975000D01*
X127375000Y-104450000D02*
X128350000Y-104450000D01*
X122865000Y-104560000D02*
X124025000Y-104475000D01*
X122725000Y-104700000D02*
X122865000Y-104560000D01*
X121620000Y-105880000D02*
X121620000Y-104880000D01*
X121010000Y-106490000D02*
X121620000Y-105880000D01*
X132325000Y-106550000D02*
X136350000Y-106900000D01*
X131625000Y-105850000D02*
X132325000Y-106550000D01*
X142850000Y-128275000D02*
X145350000Y-128275000D01*
X139825000Y-127950000D02*
X140025000Y-128150000D01*
X137050000Y-127950000D02*
X139825000Y-127950000D01*
X136875000Y-127775000D02*
X137050000Y-127950000D01*
X129925000Y-128400000D02*
X132700000Y-128400000D01*
X129875000Y-128350000D02*
X129925000Y-128400000D01*
X81020000Y-63530000D02*
X81120000Y-63430000D01*
X84440000Y-63260000D02*
X84570000Y-63390000D01*
X84570000Y-63390000D02*
X86970000Y-63390000D01*
X72875000Y-64125000D02*
X74375000Y-64125000D01*
X75965000Y-64015000D02*
X78025000Y-64015000D01*
X75710000Y-64235000D02*
X75965000Y-64015000D01*
X74375000Y-64125000D02*
X74750000Y-64225000D01*
X79550000Y-63530000D02*
X81020000Y-63530000D01*
D21*
X90100000Y-51000000D02*
X90100000Y-52900000D01*
X90200000Y-50900000D02*
X90100000Y-51000000D01*
X88890000Y-63310000D02*
X88680000Y-63310000D01*
X89600000Y-62600000D02*
X88890000Y-63310000D01*
X90200000Y-59300000D02*
X90200000Y-61100000D01*
X90000000Y-59100000D02*
X90200000Y-59300000D01*
X90000000Y-56100000D02*
X90000000Y-57400000D01*
D20*
X64105000Y-64180000D02*
X64305000Y-63980000D01*
X64305000Y-63980000D02*
X66705000Y-63980000D01*
X68100000Y-64050000D02*
X68975000Y-64050000D01*
X68975000Y-64050000D02*
X69875000Y-64050000D01*
X64300000Y-55450000D02*
X64300000Y-55175000D01*
X64775000Y-55925000D02*
X64300000Y-55450000D01*
X69225000Y-55975000D02*
X66550000Y-55975000D01*
X69325000Y-56075000D02*
X69225000Y-55975000D01*
X71600000Y-54525000D02*
X71600000Y-56025000D01*
X71700000Y-54425000D02*
X71600000Y-54525000D01*
X72700000Y-49875000D02*
X72700000Y-51750000D01*
X72900000Y-49675000D02*
X72700000Y-49875000D01*
D21*
X97100000Y-78600000D02*
X97100000Y-81600000D01*
X150150000Y-97750000D02*
X153500000Y-97750000D01*
X149300000Y-96900000D02*
X150150000Y-97750000D01*
X147100000Y-97700000D02*
X147400000Y-97700000D01*
X145900000Y-98900000D02*
X147100000Y-97700000D01*
X139100000Y-99400000D02*
X142800000Y-99400000D01*
X138900000Y-99600000D02*
X139100000Y-99400000D01*
X130700000Y-99500000D02*
X134900000Y-99500000D01*
X130500000Y-99700000D02*
X130700000Y-99500000D01*
X123700000Y-99300000D02*
X126800000Y-99300000D01*
X123300000Y-99700000D02*
X123700000Y-99300000D01*
X115800000Y-99800000D02*
X119200000Y-99800000D01*
X115500000Y-99500000D02*
X115800000Y-99800000D01*
X108300000Y-99500000D02*
X112000000Y-99500000D01*
X108100000Y-99700000D02*
X108300000Y-99500000D01*
X100500000Y-99900000D02*
X104600000Y-99900000D01*
X96500000Y-99200000D02*
X96500000Y-99700000D01*
X94600000Y-97300000D02*
X96500000Y-99200000D01*
X94500000Y-89300000D02*
X94500000Y-94100000D01*
X94300000Y-85900000D02*
X94300000Y-86300000D01*
X96200000Y-84000000D02*
X94300000Y-85900000D01*
X97100000Y-81600000D02*
X96800000Y-81900000D01*
X153800000Y-67100000D02*
X151500000Y-67100000D01*
X149100000Y-67200000D02*
X149000000Y-67100000D01*
X149000000Y-67100000D02*
X145300000Y-67100000D01*
X142500000Y-67000000D02*
X138700000Y-67000000D01*
X134300000Y-67000000D02*
X134100000Y-66800000D01*
X134100000Y-66800000D02*
X129700000Y-66800000D01*
X124500000Y-66600000D02*
X124200000Y-66900000D01*
X124200000Y-66900000D02*
X120300000Y-66900000D01*
X114600000Y-66900000D02*
X110600000Y-66900000D01*
X106900000Y-66800000D02*
X106700000Y-67000000D01*
X106700000Y-67000000D02*
X102800000Y-67000000D01*
X101500000Y-67000000D02*
X101200000Y-67300000D01*
X101200000Y-67300000D02*
X95500000Y-67300000D01*
X93800000Y-68700000D02*
X96100000Y-71000000D01*
X96100000Y-71000000D02*
X96100000Y-72000000D01*
X96400000Y-74400000D02*
X97100000Y-75100000D01*
X97100000Y-75100000D02*
X97100000Y-78600000D01*
D20*
X120658000Y-85042000D02*
X120658000Y-84358000D01*
X119800000Y-83500000D02*
X117000000Y-83500000D01*
X120658000Y-84358000D02*
X119800000Y-83500000D01*
X122350000Y-85130000D02*
X123110000Y-85890000D01*
X123110000Y-85890000D02*
X123110000Y-86070000D01*
X124160000Y-87160000D02*
X124520000Y-86800000D01*
X124520000Y-86800000D02*
X126490000Y-86800000D01*
X88470000Y-40570000D02*
X88250000Y-40790000D01*
X88250000Y-40790000D02*
X88250000Y-41930000D01*
X90090000Y-43960000D02*
X90030000Y-44020000D01*
X90030000Y-44020000D02*
X90030000Y-46320000D01*
X78375000Y-48925000D02*
X82205000Y-48925000D01*
X84550000Y-51260000D02*
X85120000Y-51660000D01*
X84000000Y-51300000D02*
X84550000Y-51260000D01*
X82700000Y-51220000D02*
X82800000Y-51320000D01*
X82490000Y-50140000D02*
X82700000Y-51220000D01*
X82330000Y-49980000D02*
X82490000Y-50140000D01*
X82205000Y-48925000D02*
X82300000Y-49020000D01*
X77800000Y-37900000D02*
X77800000Y-37470000D01*
X76730000Y-34720000D02*
X76730000Y-33280000D01*
X77000000Y-34990000D02*
X76730000Y-34720000D01*
X77800000Y-37470000D02*
X76960000Y-36630000D01*
X78100000Y-40700000D02*
X78100000Y-40630000D01*
X77800000Y-40330000D02*
X77800000Y-37900000D01*
X78100000Y-40630000D02*
X77800000Y-40330000D01*
X74710000Y-40400000D02*
X76240000Y-40400000D01*
X75170000Y-43220000D02*
X77110000Y-43220000D01*
X74980000Y-43410000D02*
X75170000Y-43220000D01*
X74830000Y-46390000D02*
X74830000Y-45010000D01*
X73090000Y-48130000D02*
X74830000Y-46390000D01*
X136750000Y-47830000D02*
X136280000Y-47830000D01*
X125980000Y-48740000D02*
X124070000Y-48740000D01*
X126000000Y-48760000D02*
X125980000Y-48740000D01*
X129920000Y-48650000D02*
X127980000Y-48650000D01*
X133930000Y-48710000D02*
X131720000Y-48710000D01*
X134050000Y-48590000D02*
X133930000Y-48710000D01*
X136280000Y-47830000D02*
X135580000Y-48530000D01*
X150620000Y-47740000D02*
X150410000Y-47950000D01*
X150410000Y-47950000D02*
X148780000Y-47950000D01*
X146990000Y-48100000D02*
X146950000Y-48140000D01*
X146950000Y-48140000D02*
X145050000Y-48140000D01*
X141350000Y-48250000D02*
X140930000Y-47830000D01*
X140930000Y-47830000D02*
X136750000Y-47830000D01*
X156130000Y-36310000D02*
X156130000Y-34800000D01*
X155570000Y-32900000D02*
X155210000Y-32540000D01*
X155210000Y-32540000D02*
X153670000Y-32540000D01*
X151220000Y-32560000D02*
X151030000Y-32750000D01*
X151030000Y-32750000D02*
X148130000Y-32750000D01*
X144670000Y-32670000D02*
X144560000Y-32560000D01*
X144560000Y-32560000D02*
X141120000Y-32560000D01*
X139375000Y-32575000D02*
X138100000Y-32800000D01*
X138100000Y-32800000D02*
X137525000Y-32600000D01*
X135000000Y-32710000D02*
X134990000Y-32700000D01*
X134990000Y-32700000D02*
X132450000Y-32700000D01*
X130250000Y-32650000D02*
X130240000Y-32640000D01*
X130240000Y-32640000D02*
X128400000Y-32700000D01*
X126005000Y-32605000D02*
X125965000Y-32645000D01*
X125965000Y-32645000D02*
X123255000Y-32645000D01*
X119800000Y-32800000D02*
X119500000Y-32800000D01*
X119500000Y-32800000D02*
X120100000Y-34200000D01*
X152550000Y-129150000D02*
X151250000Y-129125000D01*
X153725000Y-129250000D02*
X152550000Y-129150000D01*
X155440000Y-127890000D02*
X155475000Y-129050000D01*
X155570000Y-127760000D02*
X155440000Y-127890000D01*
X155460000Y-122590000D02*
X155460000Y-125080000D01*
X155380000Y-122510000D02*
X155460000Y-122590000D01*
X155420000Y-119060000D02*
X155420000Y-120750000D01*
X123350000Y-129100000D02*
X121975000Y-128850000D01*
X121975000Y-128850000D02*
X120920000Y-128870000D01*
X119860000Y-128300000D02*
X119290000Y-127730000D01*
X119290000Y-127730000D02*
X117990000Y-127730000D01*
X116200000Y-127650000D02*
X115750000Y-127200000D01*
X115750000Y-127200000D02*
X114800000Y-127200000D01*
D22*
X103386000Y-129254000D02*
X117754000Y-129254000D01*
X117754000Y-129254000D02*
X118000000Y-129500000D01*
X103386000Y-118586000D02*
X114086000Y-118586000D01*
X114086000Y-118586000D02*
X114500000Y-119000000D01*
X104825000Y-33875000D02*
X117125000Y-33875000D01*
D23*
G36*
X78017000Y-33546750D02*
X78175250Y-33705000D01*
X79275000Y-33705000D01*
X79275000Y-33580000D01*
X80525000Y-33580000D01*
X80525000Y-33705000D01*
X81624750Y-33705000D01*
X81783000Y-33546750D01*
X81783000Y-32700000D01*
X85517000Y-32700000D01*
X85517000Y-33546750D01*
X85675250Y-33705000D01*
X86775000Y-33705000D01*
X86775000Y-33580000D01*
X88025000Y-33580000D01*
X88025000Y-33705000D01*
X89124750Y-33705000D01*
X89283000Y-33546750D01*
X89283000Y-32700000D01*
X100679698Y-32700000D01*
X100460636Y-33027850D01*
X100375000Y-33458369D01*
X100375000Y-35541631D01*
X100460636Y-35972150D01*
X100704505Y-36337126D01*
X101069481Y-36580995D01*
X101500000Y-36666631D01*
X101930519Y-36580995D01*
X102295495Y-36337126D01*
X102539364Y-35972150D01*
X102625000Y-35541631D01*
X102625000Y-35250002D01*
X102679780Y-35250002D01*
X102699089Y-35258000D01*
X103666750Y-35258000D01*
X103825000Y-35099750D01*
X103825000Y-34250000D01*
X105825000Y-34250000D01*
X105825000Y-35099750D01*
X105983250Y-35258000D01*
X106950911Y-35258000D01*
X107183565Y-35161632D01*
X107361631Y-34983566D01*
X107458000Y-34750912D01*
X107458000Y-34408250D01*
X107299750Y-34250000D01*
X105825000Y-34250000D01*
X103825000Y-34250000D01*
X103430000Y-34250000D01*
X103430000Y-33500000D01*
X103825000Y-33500000D01*
X103825000Y-33125000D01*
X105825000Y-33125000D01*
X105825000Y-33500000D01*
X107299750Y-33500000D01*
X107458000Y-33341750D01*
X107458000Y-32999088D01*
X107361631Y-32766434D01*
X107295197Y-32700000D01*
X141127067Y-32700000D01*
X141093389Y-32706337D01*
X140880668Y-32843219D01*
X140737962Y-33052076D01*
X140687756Y-33300000D01*
X140687756Y-35300000D01*
X140731337Y-35531611D01*
X140868219Y-35744332D01*
X141077076Y-35887038D01*
X141325000Y-35937244D01*
X143325000Y-35937244D01*
X143556611Y-35893663D01*
X143769332Y-35756781D01*
X143912038Y-35547924D01*
X143962244Y-35300000D01*
X143962244Y-33300000D01*
X143918663Y-33068389D01*
X143781781Y-32855668D01*
X143572924Y-32712962D01*
X143508916Y-32700000D01*
X144914386Y-32700000D01*
X144730668Y-32818219D01*
X144587962Y-33027076D01*
X144537756Y-33275000D01*
X144537756Y-35275000D01*
X144581337Y-35506611D01*
X144718219Y-35719332D01*
X144927076Y-35862038D01*
X145175000Y-35912244D01*
X147175000Y-35912244D01*
X147406611Y-35868663D01*
X147619332Y-35731781D01*
X147762038Y-35522924D01*
X147812244Y-35275000D01*
X147812244Y-33275000D01*
X147768663Y-33043389D01*
X147631781Y-32830668D01*
X147440542Y-32700000D01*
X148759929Y-32700000D01*
X148593389Y-32731337D01*
X148380668Y-32868219D01*
X148237962Y-33077076D01*
X148187756Y-33325000D01*
X148187756Y-35325000D01*
X148231337Y-35556611D01*
X148368219Y-35769332D01*
X148577076Y-35912038D01*
X148825000Y-35962244D01*
X150825000Y-35962244D01*
X151056611Y-35918663D01*
X151269332Y-35781781D01*
X151412038Y-35572924D01*
X151462244Y-35325000D01*
X151462244Y-34983250D01*
X152142000Y-34983250D01*
X152142000Y-35450912D01*
X152238369Y-35683566D01*
X152416435Y-35861632D01*
X152649089Y-35958000D01*
X153116750Y-35958000D01*
X153275000Y-35799750D01*
X153275000Y-34825000D01*
X154275000Y-34825000D01*
X154275000Y-35799750D01*
X154433250Y-35958000D01*
X154900911Y-35958000D01*
X155133565Y-35861632D01*
X155311631Y-35683566D01*
X155408000Y-35450912D01*
X155408000Y-34983250D01*
X155249750Y-34825000D01*
X154275000Y-34825000D01*
X153275000Y-34825000D01*
X152300250Y-34825000D01*
X152142000Y-34983250D01*
X151462244Y-34983250D01*
X151462244Y-33325000D01*
X151418663Y-33093389D01*
X151281781Y-32880668D01*
X151072924Y-32737962D01*
X150885463Y-32700000D01*
X152399998Y-32700000D01*
X152399998Y-32804805D01*
X152238369Y-32966434D01*
X152142000Y-33199088D01*
X152142000Y-33666750D01*
X152300250Y-33825000D01*
X153275000Y-33825000D01*
X153275000Y-33325000D01*
X154275000Y-33325000D01*
X154275000Y-33825000D01*
X155249750Y-33825000D01*
X155408000Y-33666750D01*
X155408000Y-33199088D01*
X155311631Y-32966434D01*
X155150002Y-32804805D01*
X155150002Y-32700000D01*
X156300000Y-32700000D01*
X156300000Y-36217000D01*
X155703250Y-36217000D01*
X155545000Y-36375250D01*
X155545000Y-37475000D01*
X155670000Y-37475000D01*
X155670000Y-38725000D01*
X155545000Y-38725000D01*
X155545000Y-39824750D01*
X155703250Y-39983000D01*
X156300000Y-39983000D01*
X156300000Y-43717000D01*
X155703250Y-43717000D01*
X155545000Y-43875250D01*
X155545000Y-44975000D01*
X155670000Y-44975000D01*
X155670000Y-46225000D01*
X155545000Y-46225000D01*
X155545000Y-47324750D01*
X155703250Y-47483000D01*
X156300000Y-47483000D01*
X156300000Y-52367000D01*
X155428250Y-52367000D01*
X155270000Y-52525250D01*
X155270000Y-53625000D01*
X155395000Y-53625000D01*
X155395000Y-54875000D01*
X155270000Y-54875000D01*
X155270000Y-55974750D01*
X155428250Y-56133000D01*
X156300000Y-56133000D01*
X156300000Y-59867000D01*
X155428250Y-59867000D01*
X155270000Y-60025250D01*
X155270000Y-61125000D01*
X155395000Y-61125000D01*
X155395000Y-62375000D01*
X155270000Y-62375000D01*
X155270000Y-63474750D01*
X155428250Y-63633000D01*
X156300000Y-63633000D01*
X156300000Y-88422541D01*
X156165912Y-88367000D01*
X154928250Y-88367000D01*
X154770000Y-88525250D01*
X154770000Y-89625000D01*
X154895000Y-89625000D01*
X154895000Y-90875000D01*
X154770000Y-90875000D01*
X154770000Y-91974750D01*
X154928250Y-92133000D01*
X156165912Y-92133000D01*
X156300000Y-92077459D01*
X156300000Y-95922541D01*
X156165912Y-95867000D01*
X154928250Y-95867000D01*
X154770000Y-96025250D01*
X154770000Y-97125000D01*
X154895000Y-97125000D01*
X154895000Y-98375000D01*
X154770000Y-98375000D01*
X154770000Y-99474750D01*
X154928250Y-99633000D01*
X156165912Y-99633000D01*
X156300000Y-99577459D01*
X156300000Y-107422541D01*
X156165912Y-107367000D01*
X154928250Y-107367000D01*
X154770000Y-107525250D01*
X154770000Y-108625000D01*
X154895000Y-108625000D01*
X154895000Y-109875000D01*
X154770000Y-109875000D01*
X154770000Y-110974750D01*
X154928250Y-111133000D01*
X156165912Y-111133000D01*
X156300000Y-111077459D01*
X156300000Y-114922541D01*
X156165912Y-114867000D01*
X154928250Y-114867000D01*
X154770000Y-115025250D01*
X154770000Y-116125000D01*
X154895000Y-116125000D01*
X154895000Y-117375000D01*
X154770000Y-117375000D01*
X154770000Y-118474750D01*
X154928250Y-118633000D01*
X156165912Y-118633000D01*
X156300000Y-118577459D01*
X156300000Y-131300000D01*
X148509017Y-131300000D01*
X148585271Y-131249049D01*
X148937526Y-130721861D01*
X149061222Y-130100000D01*
X148937526Y-129478139D01*
X148690876Y-129109000D01*
X149973002Y-129109000D01*
X149973002Y-128996195D01*
X150134631Y-128834566D01*
X150231000Y-128601912D01*
X150231000Y-128134250D01*
X150072750Y-127976000D01*
X149098000Y-127976000D01*
X149098000Y-128476000D01*
X148098000Y-128476000D01*
X148098000Y-127976000D01*
X147123250Y-127976000D01*
X146965000Y-128134250D01*
X146965000Y-128475000D01*
X144313778Y-128475000D01*
X143691917Y-128598696D01*
X143164729Y-128950951D01*
X142812474Y-129478139D01*
X142688778Y-130100000D01*
X142812474Y-130721861D01*
X143164729Y-131249049D01*
X143240983Y-131300000D01*
X141021433Y-131300000D01*
X141060271Y-131274049D01*
X141412526Y-130746861D01*
X141536222Y-130125000D01*
X141412526Y-129503139D01*
X141060271Y-128975951D01*
X140533083Y-128623696D01*
X139911222Y-128500000D01*
X136788778Y-128500000D01*
X136166917Y-128623696D01*
X135639729Y-128975951D01*
X135287474Y-129503139D01*
X135163778Y-130125000D01*
X135287474Y-130746861D01*
X135639729Y-131274049D01*
X135678567Y-131300000D01*
X85608000Y-131300000D01*
X85608000Y-130578250D01*
X85449750Y-130420000D01*
X84350000Y-130420000D01*
X84350000Y-130545000D01*
X83100000Y-130545000D01*
X83100000Y-130420000D01*
X82000250Y-130420000D01*
X81842000Y-130578250D01*
X81842000Y-131300000D01*
X78108000Y-131300000D01*
X78108000Y-130578250D01*
X77949750Y-130420000D01*
X76850000Y-130420000D01*
X76850000Y-130545000D01*
X75600000Y-130545000D01*
X75600000Y-130420000D01*
X74500250Y-130420000D01*
X74342000Y-130578250D01*
X74342000Y-131300000D01*
X57700000Y-131300000D01*
X57700000Y-129787250D01*
X100753000Y-129787250D01*
X100753000Y-130129912D01*
X100849369Y-130362566D01*
X101027435Y-130540632D01*
X101260089Y-130637000D01*
X102227750Y-130637000D01*
X102386000Y-130478750D01*
X102386000Y-129629000D01*
X104386000Y-129629000D01*
X104386000Y-130478750D01*
X104544250Y-130637000D01*
X105511911Y-130637000D01*
X105744565Y-130540632D01*
X105922631Y-130362566D01*
X106019000Y-130129912D01*
X106019000Y-129787250D01*
X105860750Y-129629000D01*
X104386000Y-129629000D01*
X102386000Y-129629000D01*
X100911250Y-129629000D01*
X100753000Y-129787250D01*
X57700000Y-129787250D01*
X57700000Y-128378088D01*
X100753000Y-128378088D01*
X100753000Y-128720750D01*
X100911250Y-128879000D01*
X102386000Y-128879000D01*
X102386000Y-128029250D01*
X104386000Y-128029250D01*
X104386000Y-128879000D01*
X105860750Y-128879000D01*
X106019000Y-128720750D01*
X106019000Y-128378088D01*
X105922631Y-128145434D01*
X105744565Y-127967368D01*
X105511911Y-127871000D01*
X104544250Y-127871000D01*
X104386000Y-128029250D01*
X102386000Y-128029250D01*
X102227750Y-127871000D01*
X101260089Y-127871000D01*
X101027435Y-127967368D01*
X100849369Y-128145434D01*
X100753000Y-128378088D01*
X57700000Y-128378088D01*
X57700000Y-126484088D01*
X74342000Y-126484088D01*
X74342000Y-127721750D01*
X74500250Y-127880000D01*
X75600000Y-127880000D01*
X75600000Y-126135250D01*
X76850000Y-126135250D01*
X76850000Y-127880000D01*
X77949750Y-127880000D01*
X78108000Y-127721750D01*
X78108000Y-126484088D01*
X81842000Y-126484088D01*
X81842000Y-127721750D01*
X82000250Y-127880000D01*
X83100000Y-127880000D01*
X83100000Y-126135250D01*
X84350000Y-126135250D01*
X84350000Y-127880000D01*
X85449750Y-127880000D01*
X85608000Y-127721750D01*
X85608000Y-126484088D01*
X85511631Y-126251434D01*
X85333565Y-126073368D01*
X85100911Y-125977000D01*
X84508250Y-125977000D01*
X84350000Y-126135250D01*
X83100000Y-126135250D01*
X82941750Y-125977000D01*
X82349089Y-125977000D01*
X82116435Y-126073368D01*
X81938369Y-126251434D01*
X81842000Y-126484088D01*
X78108000Y-126484088D01*
X78011631Y-126251434D01*
X77833565Y-126073368D01*
X77600911Y-125977000D01*
X77008250Y-125977000D01*
X76850000Y-126135250D01*
X75600000Y-126135250D01*
X75441750Y-125977000D01*
X74849089Y-125977000D01*
X74616435Y-126073368D01*
X74438369Y-126251434D01*
X74342000Y-126484088D01*
X57700000Y-126484088D01*
X57700000Y-125783000D01*
X58596750Y-125783000D01*
X58755000Y-125624750D01*
X58755000Y-124525000D01*
X61295000Y-124525000D01*
X61295000Y-125624750D01*
X61453250Y-125783000D01*
X62690912Y-125783000D01*
X62923566Y-125686631D01*
X63101632Y-125508565D01*
X63198000Y-125275911D01*
X63198000Y-124683250D01*
X63039750Y-124525000D01*
X61295000Y-124525000D01*
X58755000Y-124525000D01*
X58630000Y-124525000D01*
X58630000Y-123275000D01*
X58755000Y-123275000D01*
X58755000Y-122175250D01*
X61295000Y-122175250D01*
X61295000Y-123275000D01*
X63039750Y-123275000D01*
X63198000Y-123116750D01*
X63198000Y-122524089D01*
X63132840Y-122366778D01*
X98959000Y-122366778D01*
X98959000Y-126489222D01*
X99044636Y-126919741D01*
X99288505Y-127284717D01*
X99653481Y-127528586D01*
X99905388Y-127578694D01*
X99912841Y-127589601D01*
X99954568Y-127616451D01*
X100000000Y-127625000D01*
X106866670Y-127625000D01*
X107025729Y-127863049D01*
X107552917Y-128215304D01*
X108174778Y-128339000D01*
X111297222Y-128339000D01*
X111919083Y-128215304D01*
X112446271Y-127863049D01*
X112605330Y-127625000D01*
X114500000Y-127625000D01*
X114548632Y-127615152D01*
X114589601Y-127587159D01*
X114616451Y-127545432D01*
X114625000Y-127500000D01*
X114625000Y-126350088D01*
X146965000Y-126350088D01*
X146965000Y-126817750D01*
X147123250Y-126976000D01*
X148098000Y-126976000D01*
X148098000Y-126001250D01*
X149098000Y-126001250D01*
X149098000Y-126976000D01*
X150072750Y-126976000D01*
X150231000Y-126817750D01*
X150231000Y-126476000D01*
X151786756Y-126476000D01*
X151786756Y-128476000D01*
X151830337Y-128707611D01*
X151967219Y-128920332D01*
X152176076Y-129063038D01*
X152424000Y-129113244D01*
X154424000Y-129113244D01*
X154655611Y-129069663D01*
X154868332Y-128932781D01*
X155011038Y-128723924D01*
X155061244Y-128476000D01*
X155061244Y-126476000D01*
X155017663Y-126244389D01*
X154880781Y-126031668D01*
X154671924Y-125888962D01*
X154424000Y-125838756D01*
X152424000Y-125838756D01*
X152192389Y-125882337D01*
X151979668Y-126019219D01*
X151836962Y-126228076D01*
X151786756Y-126476000D01*
X150231000Y-126476000D01*
X150231000Y-126350088D01*
X150134631Y-126117434D01*
X149956565Y-125939368D01*
X149723911Y-125843000D01*
X149256250Y-125843000D01*
X149098000Y-126001250D01*
X148098000Y-126001250D01*
X147939750Y-125843000D01*
X147472089Y-125843000D01*
X147239435Y-125939368D01*
X147061369Y-126117434D01*
X146965000Y-126350088D01*
X114625000Y-126350088D01*
X114625000Y-121396000D01*
X146960756Y-121396000D01*
X146960756Y-123396000D01*
X147004337Y-123627611D01*
X147141219Y-123840332D01*
X147350076Y-123983038D01*
X147598000Y-124033244D01*
X149598000Y-124033244D01*
X149829611Y-123989663D01*
X150042332Y-123852781D01*
X150185038Y-123643924D01*
X150235244Y-123396000D01*
X150235244Y-121396000D01*
X151786756Y-121396000D01*
X151786756Y-123396000D01*
X151830337Y-123627611D01*
X151967219Y-123840332D01*
X152176076Y-123983038D01*
X152424000Y-124033244D01*
X154424000Y-124033244D01*
X154655611Y-123989663D01*
X154868332Y-123852781D01*
X155011038Y-123643924D01*
X155061244Y-123396000D01*
X155061244Y-121396000D01*
X155017663Y-121164389D01*
X154880781Y-120951668D01*
X154671924Y-120808962D01*
X154424000Y-120758756D01*
X152424000Y-120758756D01*
X152192389Y-120802337D01*
X151979668Y-120939219D01*
X151836962Y-121148076D01*
X151786756Y-121396000D01*
X150235244Y-121396000D01*
X150191663Y-121164389D01*
X150054781Y-120951668D01*
X149845924Y-120808962D01*
X149598000Y-120758756D01*
X147598000Y-120758756D01*
X147366389Y-120802337D01*
X147153668Y-120939219D01*
X147010962Y-121148076D01*
X146960756Y-121396000D01*
X114625000Y-121396000D01*
X114625000Y-120000000D01*
X114615152Y-119951368D01*
X114587159Y-119910399D01*
X114545432Y-119883549D01*
X114500000Y-119875000D01*
X112042235Y-119875000D01*
X111356424Y-119416756D01*
X110543222Y-119255000D01*
X108420778Y-119255000D01*
X107607576Y-119416756D01*
X106921765Y-119875000D01*
X105738848Y-119875000D01*
X105744565Y-119872632D01*
X105922631Y-119694566D01*
X106019000Y-119461912D01*
X106019000Y-119119250D01*
X105860750Y-118961000D01*
X104386000Y-118961000D01*
X104386000Y-119336000D01*
X102386000Y-119336000D01*
X102386000Y-118961000D01*
X100911250Y-118961000D01*
X100753000Y-119119250D01*
X100753000Y-119461912D01*
X100849369Y-119694566D01*
X101027435Y-119872632D01*
X101033152Y-119875000D01*
X100000000Y-119875000D01*
X99951368Y-119884848D01*
X99910399Y-119912841D01*
X99883549Y-119954568D01*
X99875000Y-120000000D01*
X99875000Y-121283351D01*
X99653481Y-121327414D01*
X99288505Y-121571283D01*
X99044636Y-121936259D01*
X98959000Y-122366778D01*
X63132840Y-122366778D01*
X63101632Y-122291435D01*
X62923566Y-122113369D01*
X62690912Y-122017000D01*
X61453250Y-122017000D01*
X61295000Y-122175250D01*
X58755000Y-122175250D01*
X58596750Y-122017000D01*
X57700000Y-122017000D01*
X57700000Y-118283000D01*
X58596750Y-118283000D01*
X58755000Y-118124750D01*
X58755000Y-117025000D01*
X61295000Y-117025000D01*
X61295000Y-118124750D01*
X61453250Y-118283000D01*
X62690912Y-118283000D01*
X62923566Y-118186631D01*
X63101632Y-118008565D01*
X63198000Y-117775911D01*
X63198000Y-117710088D01*
X100753000Y-117710088D01*
X100753000Y-118052750D01*
X100911250Y-118211000D01*
X102386000Y-118211000D01*
X102386000Y-117361250D01*
X104386000Y-117361250D01*
X104386000Y-118211000D01*
X105860750Y-118211000D01*
X106019000Y-118052750D01*
X106019000Y-117710088D01*
X105922631Y-117477434D01*
X105744565Y-117299368D01*
X105511911Y-117203000D01*
X104544250Y-117203000D01*
X104386000Y-117361250D01*
X102386000Y-117361250D01*
X102227750Y-117203000D01*
X101260089Y-117203000D01*
X101027435Y-117299368D01*
X100849369Y-117477434D01*
X100753000Y-117710088D01*
X63198000Y-117710088D01*
X63198000Y-117183250D01*
X63039750Y-117025000D01*
X61295000Y-117025000D01*
X58755000Y-117025000D01*
X58630000Y-117025000D01*
X58630000Y-115775000D01*
X58755000Y-115775000D01*
X58755000Y-114675250D01*
X61295000Y-114675250D01*
X61295000Y-115775000D01*
X63039750Y-115775000D01*
X63198000Y-115616750D01*
X63198000Y-115024089D01*
X63101632Y-114791435D01*
X62923566Y-114613369D01*
X62690912Y-114517000D01*
X61453250Y-114517000D01*
X61295000Y-114675250D01*
X58755000Y-114675250D01*
X58596750Y-114517000D01*
X57700000Y-114517000D01*
X57700000Y-113362244D01*
X59275000Y-113362244D01*
X59506611Y-113318663D01*
X59719332Y-113181781D01*
X59862038Y-112972924D01*
X59912244Y-112725000D01*
X59912244Y-110725000D01*
X59898132Y-110650000D01*
X61462756Y-110650000D01*
X61462756Y-112650000D01*
X61506337Y-112881611D01*
X61643219Y-113094332D01*
X61852076Y-113237038D01*
X62100000Y-113287244D01*
X64100000Y-113287244D01*
X64331611Y-113243663D01*
X64544332Y-113106781D01*
X64687038Y-112897924D01*
X64737244Y-112650000D01*
X64737244Y-111190778D01*
X98959000Y-111190778D01*
X98959000Y-115313222D01*
X99044636Y-115743741D01*
X99288505Y-116108717D01*
X99653481Y-116352586D01*
X99875000Y-116396649D01*
X99875000Y-116500000D01*
X99884848Y-116548632D01*
X99912841Y-116589601D01*
X99954568Y-116616451D01*
X100000000Y-116625000D01*
X106410948Y-116625000D01*
X106419474Y-116667861D01*
X106771729Y-117195049D01*
X107298917Y-117547304D01*
X107920778Y-117671000D01*
X111043222Y-117671000D01*
X111665083Y-117547304D01*
X111686116Y-117533250D01*
X150327000Y-117533250D01*
X150327000Y-118125911D01*
X150423368Y-118358565D01*
X150601434Y-118536631D01*
X150834088Y-118633000D01*
X152071750Y-118633000D01*
X152230000Y-118474750D01*
X152230000Y-117375000D01*
X150485250Y-117375000D01*
X150327000Y-117533250D01*
X111686116Y-117533250D01*
X112192271Y-117195049D01*
X112544526Y-116667861D01*
X112553052Y-116625000D01*
X115500000Y-116625000D01*
X115548632Y-116615152D01*
X115589601Y-116587159D01*
X115616451Y-116545432D01*
X115625000Y-116500000D01*
X115625000Y-115374089D01*
X150327000Y-115374089D01*
X150327000Y-115966750D01*
X150485250Y-116125000D01*
X152230000Y-116125000D01*
X152230000Y-115025250D01*
X152071750Y-114867000D01*
X150834088Y-114867000D01*
X150601434Y-114963369D01*
X150423368Y-115141435D01*
X150327000Y-115374089D01*
X115625000Y-115374089D01*
X115625000Y-110033250D01*
X150327000Y-110033250D01*
X150327000Y-110625911D01*
X150423368Y-110858565D01*
X150601434Y-111036631D01*
X150834088Y-111133000D01*
X152071750Y-111133000D01*
X152230000Y-110974750D01*
X152230000Y-109875000D01*
X150485250Y-109875000D01*
X150327000Y-110033250D01*
X115625000Y-110033250D01*
X115625000Y-108500000D01*
X115615152Y-108451368D01*
X115587159Y-108410399D01*
X115545432Y-108383549D01*
X115500000Y-108375000D01*
X100000000Y-108375000D01*
X99951368Y-108384848D01*
X99910399Y-108412841D01*
X99883549Y-108454568D01*
X99875000Y-108500000D01*
X99875000Y-110107351D01*
X99653481Y-110151414D01*
X99288505Y-110395283D01*
X99044636Y-110760259D01*
X98959000Y-111190778D01*
X64737244Y-111190778D01*
X64737244Y-110650000D01*
X64693663Y-110418389D01*
X64556781Y-110205668D01*
X64347924Y-110062962D01*
X64100000Y-110012756D01*
X62100000Y-110012756D01*
X61868389Y-110056337D01*
X61655668Y-110193219D01*
X61512962Y-110402076D01*
X61462756Y-110650000D01*
X59898132Y-110650000D01*
X59868663Y-110493389D01*
X59731781Y-110280668D01*
X59522924Y-110137962D01*
X59275000Y-110087756D01*
X57700000Y-110087756D01*
X57700000Y-107874089D01*
X150327000Y-107874089D01*
X150327000Y-108466750D01*
X150485250Y-108625000D01*
X152230000Y-108625000D01*
X152230000Y-107525250D01*
X152071750Y-107367000D01*
X150834088Y-107367000D01*
X150601434Y-107463369D01*
X150423368Y-107641435D01*
X150327000Y-107874089D01*
X57700000Y-107874089D01*
X57700000Y-106712244D01*
X59325000Y-106712244D01*
X59556611Y-106668663D01*
X59769332Y-106531781D01*
X59912038Y-106322924D01*
X59962244Y-106075000D01*
X59962244Y-104125000D01*
X61387756Y-104125000D01*
X61387756Y-106125000D01*
X61431337Y-106356611D01*
X61568219Y-106569332D01*
X61777076Y-106712038D01*
X62025000Y-106762244D01*
X64025000Y-106762244D01*
X64256611Y-106718663D01*
X64469332Y-106581781D01*
X64612038Y-106372924D01*
X64662244Y-106125000D01*
X64662244Y-104125000D01*
X64618663Y-103893389D01*
X64526395Y-103750000D01*
X135063778Y-103750000D01*
X135187474Y-104371861D01*
X135539729Y-104899049D01*
X136066917Y-105251304D01*
X136688778Y-105375000D01*
X139811222Y-105375000D01*
X140433083Y-105251304D01*
X140960271Y-104899049D01*
X141312526Y-104371861D01*
X141436222Y-103750000D01*
X142488778Y-103750000D01*
X142612474Y-104371861D01*
X142964729Y-104899049D01*
X143491917Y-105251304D01*
X144113778Y-105375000D01*
X147236222Y-105375000D01*
X147858083Y-105251304D01*
X148385271Y-104899049D01*
X148737526Y-104371861D01*
X148861222Y-103750000D01*
X148737526Y-103128139D01*
X148385271Y-102600951D01*
X147858083Y-102248696D01*
X147236222Y-102125000D01*
X144113778Y-102125000D01*
X143491917Y-102248696D01*
X142964729Y-102600951D01*
X142612474Y-103128139D01*
X142488778Y-103750000D01*
X141436222Y-103750000D01*
X141312526Y-103128139D01*
X140960271Y-102600951D01*
X140433083Y-102248696D01*
X139811222Y-102125000D01*
X136688778Y-102125000D01*
X136066917Y-102248696D01*
X135539729Y-102600951D01*
X135187474Y-103128139D01*
X135063778Y-103750000D01*
X64526395Y-103750000D01*
X64481781Y-103680668D01*
X64272924Y-103537962D01*
X64025000Y-103487756D01*
X62025000Y-103487756D01*
X61793389Y-103531337D01*
X61580668Y-103668219D01*
X61437962Y-103877076D01*
X61387756Y-104125000D01*
X59962244Y-104125000D01*
X59962244Y-104075000D01*
X59918663Y-103843389D01*
X59781781Y-103630668D01*
X59572924Y-103487962D01*
X59325000Y-103437756D01*
X57700000Y-103437756D01*
X57700000Y-102533000D01*
X58296750Y-102533000D01*
X58455000Y-102374750D01*
X58455000Y-101275000D01*
X60995000Y-101275000D01*
X60995000Y-102374750D01*
X61153250Y-102533000D01*
X62390912Y-102533000D01*
X62623566Y-102436631D01*
X62801632Y-102258565D01*
X62898000Y-102025911D01*
X62898000Y-101433250D01*
X62739750Y-101275000D01*
X60995000Y-101275000D01*
X58455000Y-101275000D01*
X58330000Y-101275000D01*
X58330000Y-100025000D01*
X58455000Y-100025000D01*
X58455000Y-98925250D01*
X60995000Y-98925250D01*
X60995000Y-100025000D01*
X62739750Y-100025000D01*
X62898000Y-99866750D01*
X62898000Y-99274089D01*
X62801632Y-99041435D01*
X62623566Y-98863369D01*
X62390912Y-98767000D01*
X61153250Y-98767000D01*
X60995000Y-98925250D01*
X58455000Y-98925250D01*
X58296750Y-98767000D01*
X57700000Y-98767000D01*
X57700000Y-98533250D01*
X150327000Y-98533250D01*
X150327000Y-99125911D01*
X150423368Y-99358565D01*
X150601434Y-99536631D01*
X150834088Y-99633000D01*
X152071750Y-99633000D01*
X152230000Y-99474750D01*
X152230000Y-98375000D01*
X150485250Y-98375000D01*
X150327000Y-98533250D01*
X57700000Y-98533250D01*
X57700000Y-96711324D01*
X98224676Y-96711324D01*
X98509526Y-97400714D01*
X99036511Y-97928620D01*
X99725403Y-98214673D01*
X100471324Y-98215324D01*
X101160714Y-97930474D01*
X101688620Y-97403489D01*
X101974673Y-96714597D01*
X101974970Y-96374089D01*
X150327000Y-96374089D01*
X150327000Y-96966750D01*
X150485250Y-97125000D01*
X152230000Y-97125000D01*
X152230000Y-96025250D01*
X152071750Y-95867000D01*
X150834088Y-95867000D01*
X150601434Y-95963369D01*
X150423368Y-96141435D01*
X150327000Y-96374089D01*
X101974970Y-96374089D01*
X101975324Y-95968676D01*
X101690474Y-95279286D01*
X101163489Y-94751380D01*
X100474597Y-94465327D01*
X99728676Y-94464676D01*
X99039286Y-94749526D01*
X98511380Y-95276511D01*
X98225327Y-95965403D01*
X98224676Y-96711324D01*
X57700000Y-96711324D01*
X57700000Y-95033000D01*
X58296750Y-95033000D01*
X58455000Y-94874750D01*
X58455000Y-93775000D01*
X60995000Y-93775000D01*
X60995000Y-94874750D01*
X61153250Y-95033000D01*
X62390912Y-95033000D01*
X62623566Y-94936631D01*
X62801632Y-94758565D01*
X62898000Y-94525911D01*
X62898000Y-93933250D01*
X62739750Y-93775000D01*
X60995000Y-93775000D01*
X58455000Y-93775000D01*
X58330000Y-93775000D01*
X58330000Y-93100000D01*
X79137756Y-93100000D01*
X79137756Y-95100000D01*
X79181337Y-95331611D01*
X79318219Y-95544332D01*
X79527076Y-95687038D01*
X79775000Y-95737244D01*
X81775000Y-95737244D01*
X82006611Y-95693663D01*
X82219332Y-95556781D01*
X82362038Y-95347924D01*
X82412244Y-95100000D01*
X82412244Y-93100000D01*
X82393428Y-93000000D01*
X84562756Y-93000000D01*
X84562756Y-95000000D01*
X84606337Y-95231611D01*
X84743219Y-95444332D01*
X84952076Y-95587038D01*
X85200000Y-95637244D01*
X87200000Y-95637244D01*
X87431611Y-95593663D01*
X87644332Y-95456781D01*
X87787038Y-95247924D01*
X87837244Y-95000000D01*
X87837244Y-93000000D01*
X87793663Y-92768389D01*
X87656781Y-92555668D01*
X87447924Y-92412962D01*
X87200000Y-92362756D01*
X85200000Y-92362756D01*
X84968389Y-92406337D01*
X84755668Y-92543219D01*
X84612962Y-92752076D01*
X84562756Y-93000000D01*
X82393428Y-93000000D01*
X82368663Y-92868389D01*
X82231781Y-92655668D01*
X82022924Y-92512962D01*
X81775000Y-92462756D01*
X79775000Y-92462756D01*
X79543389Y-92506337D01*
X79330668Y-92643219D01*
X79187962Y-92852076D01*
X79137756Y-93100000D01*
X58330000Y-93100000D01*
X58330000Y-92525000D01*
X58455000Y-92525000D01*
X58455000Y-91425250D01*
X60995000Y-91425250D01*
X60995000Y-92525000D01*
X62739750Y-92525000D01*
X62898000Y-92366750D01*
X62898000Y-91774089D01*
X62855434Y-91671324D01*
X95724676Y-91671324D01*
X96009526Y-92360714D01*
X96536511Y-92888620D01*
X97225403Y-93174673D01*
X97971324Y-93175324D01*
X98660714Y-92890474D01*
X99188620Y-92363489D01*
X99474673Y-91674597D01*
X99474675Y-91671324D01*
X100724676Y-91671324D01*
X101009526Y-92360714D01*
X101536511Y-92888620D01*
X102225403Y-93174673D01*
X102971324Y-93175324D01*
X103660714Y-92890474D01*
X104188620Y-92363489D01*
X104474673Y-91674597D01*
X104475232Y-91033250D01*
X150327000Y-91033250D01*
X150327000Y-91625911D01*
X150423368Y-91858565D01*
X150601434Y-92036631D01*
X150834088Y-92133000D01*
X152071750Y-92133000D01*
X152230000Y-91974750D01*
X152230000Y-90875000D01*
X150485250Y-90875000D01*
X150327000Y-91033250D01*
X104475232Y-91033250D01*
X104475324Y-90928676D01*
X104190474Y-90239286D01*
X103663489Y-89711380D01*
X102974597Y-89425327D01*
X102228676Y-89424676D01*
X101539286Y-89709526D01*
X101011380Y-90236511D01*
X100725327Y-90925403D01*
X100724676Y-91671324D01*
X99474675Y-91671324D01*
X99475324Y-90928676D01*
X99190474Y-90239286D01*
X98663489Y-89711380D01*
X97974597Y-89425327D01*
X97228676Y-89424676D01*
X96539286Y-89709526D01*
X96011380Y-90236511D01*
X95725327Y-90925403D01*
X95724676Y-91671324D01*
X62855434Y-91671324D01*
X62801632Y-91541435D01*
X62623566Y-91363369D01*
X62390912Y-91267000D01*
X61153250Y-91267000D01*
X60995000Y-91425250D01*
X58455000Y-91425250D01*
X58296750Y-91267000D01*
X57700000Y-91267000D01*
X57700000Y-86975000D01*
X78987756Y-86975000D01*
X78987756Y-88975000D01*
X79031337Y-89206611D01*
X79168219Y-89419332D01*
X79377076Y-89562038D01*
X79625000Y-89612244D01*
X81625000Y-89612244D01*
X81856611Y-89568663D01*
X82069332Y-89431781D01*
X82212038Y-89222924D01*
X82262244Y-88975000D01*
X82262244Y-88608250D01*
X84592000Y-88608250D01*
X84592000Y-89075912D01*
X84688369Y-89308566D01*
X84866435Y-89486632D01*
X85099089Y-89583000D01*
X85566750Y-89583000D01*
X85725000Y-89424750D01*
X85725000Y-88450000D01*
X86725000Y-88450000D01*
X86725000Y-89424750D01*
X86883250Y-89583000D01*
X87350911Y-89583000D01*
X87583565Y-89486632D01*
X87761631Y-89308566D01*
X87858000Y-89075912D01*
X87858000Y-88874089D01*
X150327000Y-88874089D01*
X150327000Y-89466750D01*
X150485250Y-89625000D01*
X152230000Y-89625000D01*
X152230000Y-88525250D01*
X152071750Y-88367000D01*
X150834088Y-88367000D01*
X150601434Y-88463369D01*
X150423368Y-88641435D01*
X150327000Y-88874089D01*
X87858000Y-88874089D01*
X87858000Y-88608250D01*
X87699750Y-88450000D01*
X86725000Y-88450000D01*
X85725000Y-88450000D01*
X84750250Y-88450000D01*
X84592000Y-88608250D01*
X82262244Y-88608250D01*
X82262244Y-86975000D01*
X82233848Y-86824088D01*
X84592000Y-86824088D01*
X84592000Y-87291750D01*
X84750250Y-87450000D01*
X85725000Y-87450000D01*
X85725000Y-86475250D01*
X86725000Y-86475250D01*
X86725000Y-87450000D01*
X87699750Y-87450000D01*
X87858000Y-87291750D01*
X87858000Y-86824088D01*
X87761631Y-86591434D01*
X87583565Y-86413368D01*
X87350911Y-86317000D01*
X86883250Y-86317000D01*
X86725000Y-86475250D01*
X85725000Y-86475250D01*
X85566750Y-86317000D01*
X85099089Y-86317000D01*
X84866435Y-86413368D01*
X84688369Y-86591434D01*
X84592000Y-86824088D01*
X82233848Y-86824088D01*
X82218663Y-86743389D01*
X82081781Y-86530668D01*
X81872924Y-86387962D01*
X81625000Y-86337756D01*
X79625000Y-86337756D01*
X79393389Y-86381337D01*
X79180668Y-86518219D01*
X79037962Y-86727076D01*
X78987756Y-86975000D01*
X57700000Y-86975000D01*
X57700000Y-86250000D01*
X95812756Y-86250000D01*
X95812756Y-87950000D01*
X95856337Y-88181611D01*
X95993219Y-88394332D01*
X96202076Y-88537038D01*
X96450000Y-88587244D01*
X98150000Y-88587244D01*
X98381611Y-88543663D01*
X98594332Y-88406781D01*
X98737038Y-88197924D01*
X98755035Y-88109050D01*
X98797017Y-88171880D01*
X99275542Y-88491619D01*
X99840000Y-88603897D01*
X100404458Y-88491619D01*
X100882983Y-88171880D01*
X101110000Y-87832124D01*
X101337017Y-88171880D01*
X101815542Y-88491619D01*
X102380000Y-88603897D01*
X102944458Y-88491619D01*
X103422983Y-88171880D01*
X103742722Y-87693355D01*
X103855000Y-87128897D01*
X103855000Y-87071103D01*
X103742722Y-86506645D01*
X103422983Y-86028120D01*
X102944458Y-85708381D01*
X102380000Y-85596103D01*
X101815542Y-85708381D01*
X101337017Y-86028120D01*
X101110000Y-86367876D01*
X100882983Y-86028120D01*
X100404458Y-85708381D01*
X100298195Y-85687244D01*
X101850000Y-85687244D01*
X102081611Y-85643663D01*
X102294332Y-85506781D01*
X102437038Y-85297924D01*
X102487244Y-85050000D01*
X102487244Y-81550000D01*
X102443663Y-81318389D01*
X102306781Y-81105668D01*
X102133462Y-80987244D01*
X104850000Y-80987244D01*
X105081611Y-80943663D01*
X105294332Y-80806781D01*
X105437038Y-80597924D01*
X105487244Y-80350000D01*
X105487244Y-76850000D01*
X105443663Y-76618389D01*
X105413378Y-76571324D01*
X115524676Y-76571324D01*
X115809526Y-77260714D01*
X116336511Y-77788620D01*
X117025403Y-78074673D01*
X117771324Y-78075324D01*
X118460714Y-77790474D01*
X118988620Y-77263489D01*
X119274673Y-76574597D01*
X119275324Y-75828676D01*
X119059598Y-75306577D01*
X121717306Y-75306577D01*
X121878622Y-75535983D01*
X122623955Y-75611057D01*
X123001378Y-75535983D01*
X123162694Y-75306577D01*
X122440000Y-74583883D01*
X121717306Y-75306577D01*
X119059598Y-75306577D01*
X118990474Y-75139286D01*
X118463489Y-74611380D01*
X117774597Y-74325327D01*
X117028676Y-74324676D01*
X116339286Y-74609526D01*
X115811380Y-75136511D01*
X115525327Y-75825403D01*
X115524676Y-76571324D01*
X105413378Y-76571324D01*
X105306781Y-76405668D01*
X105097924Y-76262962D01*
X104850000Y-76212756D01*
X101350000Y-76212756D01*
X101118389Y-76256337D01*
X100905668Y-76393219D01*
X100762962Y-76602076D01*
X100712756Y-76850000D01*
X100712756Y-80350000D01*
X100756337Y-80581611D01*
X100893219Y-80794332D01*
X101066538Y-80912756D01*
X99145496Y-80912756D01*
X99208565Y-80886632D01*
X99386631Y-80708566D01*
X99483000Y-80475912D01*
X99483000Y-79633250D01*
X99324750Y-79475000D01*
X97975000Y-79475000D01*
X97975000Y-80824750D01*
X98111208Y-80960958D01*
X97905668Y-81093219D01*
X97762962Y-81302076D01*
X97712756Y-81550000D01*
X97712756Y-85050000D01*
X97756337Y-85281611D01*
X97893219Y-85494332D01*
X98066538Y-85612756D01*
X96450000Y-85612756D01*
X96218389Y-85656337D01*
X96005668Y-85793219D01*
X95862962Y-86002076D01*
X95812756Y-86250000D01*
X57700000Y-86250000D01*
X57700000Y-80625000D01*
X59937756Y-80625000D01*
X59937756Y-84125000D01*
X59981337Y-84356611D01*
X60118219Y-84569332D01*
X60327076Y-84712038D01*
X60575000Y-84762244D01*
X64075000Y-84762244D01*
X64306611Y-84718663D01*
X64519332Y-84581781D01*
X64662038Y-84372924D01*
X64712244Y-84125000D01*
X64712244Y-80625000D01*
X64668663Y-80393389D01*
X64531781Y-80180668D01*
X64358462Y-80062244D01*
X67075000Y-80062244D01*
X67306611Y-80018663D01*
X67519332Y-79881781D01*
X67662038Y-79672924D01*
X67670072Y-79633250D01*
X94717000Y-79633250D01*
X94717000Y-80475912D01*
X94813369Y-80708566D01*
X94991435Y-80886632D01*
X95224089Y-80983000D01*
X96066750Y-80983000D01*
X96225000Y-80824750D01*
X96225000Y-79475000D01*
X94875250Y-79475000D01*
X94717000Y-79633250D01*
X67670072Y-79633250D01*
X67712244Y-79425000D01*
X67712244Y-76724088D01*
X94717000Y-76724088D01*
X94717000Y-77566750D01*
X94875250Y-77725000D01*
X96225000Y-77725000D01*
X96225000Y-76375250D01*
X97975000Y-76375250D01*
X97975000Y-77725000D01*
X99324750Y-77725000D01*
X99483000Y-77566750D01*
X99483000Y-76724088D01*
X99386631Y-76491434D01*
X99208565Y-76313368D01*
X98975911Y-76217000D01*
X98133250Y-76217000D01*
X97975000Y-76375250D01*
X96225000Y-76375250D01*
X96066750Y-76217000D01*
X95224089Y-76217000D01*
X94991435Y-76313368D01*
X94813369Y-76491434D01*
X94717000Y-76724088D01*
X67712244Y-76724088D01*
X67712244Y-75925000D01*
X67668663Y-75693389D01*
X67531781Y-75480668D01*
X67322924Y-75337962D01*
X67075000Y-75287756D01*
X63575000Y-75287756D01*
X63343389Y-75331337D01*
X63130668Y-75468219D01*
X62987962Y-75677076D01*
X62937756Y-75925000D01*
X62937756Y-79425000D01*
X62981337Y-79656611D01*
X63118219Y-79869332D01*
X63291538Y-79987756D01*
X61370496Y-79987756D01*
X61433565Y-79961632D01*
X61611631Y-79783566D01*
X61708000Y-79550912D01*
X61708000Y-78708250D01*
X61549750Y-78550000D01*
X60200000Y-78550000D01*
X60200000Y-79899750D01*
X60336208Y-80035958D01*
X60130668Y-80168219D01*
X59987962Y-80377076D01*
X59937756Y-80625000D01*
X57700000Y-80625000D01*
X57700000Y-80058000D01*
X58291750Y-80058000D01*
X58450000Y-79899750D01*
X58450000Y-78550000D01*
X57930000Y-78550000D01*
X57930000Y-76800000D01*
X58450000Y-76800000D01*
X58450000Y-75450250D01*
X60200000Y-75450250D01*
X60200000Y-76800000D01*
X61549750Y-76800000D01*
X61708000Y-76641750D01*
X61708000Y-75799088D01*
X61611631Y-75566434D01*
X61433565Y-75388368D01*
X61200911Y-75292000D01*
X60358250Y-75292000D01*
X60200000Y-75450250D01*
X58450000Y-75450250D01*
X58291750Y-75292000D01*
X57700000Y-75292000D01*
X57700000Y-73883955D01*
X120528943Y-73883955D01*
X120604017Y-74261378D01*
X120833423Y-74422694D01*
X121556117Y-73700000D01*
X123323883Y-73700000D01*
X124046577Y-74422694D01*
X124275983Y-74261378D01*
X124351057Y-73516045D01*
X124275983Y-73138622D01*
X124046577Y-72977306D01*
X123323883Y-73700000D01*
X121556117Y-73700000D01*
X120833423Y-72977306D01*
X120604017Y-73138622D01*
X120528943Y-73883955D01*
X57700000Y-73883955D01*
X57700000Y-72806577D01*
X116677306Y-72806577D01*
X116838622Y-73035983D01*
X117583955Y-73111057D01*
X117961378Y-73035983D01*
X118122694Y-72806577D01*
X117409540Y-72093423D01*
X121717306Y-72093423D01*
X122440000Y-72816117D01*
X123162694Y-72093423D01*
X123001378Y-71864017D01*
X122256045Y-71788943D01*
X121878622Y-71864017D01*
X121717306Y-72093423D01*
X117409540Y-72093423D01*
X117400000Y-72083883D01*
X116677306Y-72806577D01*
X57700000Y-72806577D01*
X57700000Y-71383955D01*
X115488943Y-71383955D01*
X115564017Y-71761378D01*
X115793423Y-71922694D01*
X116516117Y-71200000D01*
X118283883Y-71200000D01*
X119006577Y-71922694D01*
X119235983Y-71761378D01*
X119311057Y-71016045D01*
X119235983Y-70638622D01*
X119006577Y-70477306D01*
X118283883Y-71200000D01*
X116516117Y-71200000D01*
X115793423Y-70477306D01*
X115564017Y-70638622D01*
X115488943Y-71383955D01*
X57700000Y-71383955D01*
X57700000Y-69593423D01*
X116677306Y-69593423D01*
X117400000Y-70316117D01*
X118122694Y-69593423D01*
X117961378Y-69364017D01*
X117216045Y-69288943D01*
X116838622Y-69364017D01*
X116677306Y-69593423D01*
X57700000Y-69593423D01*
X57700000Y-64708000D01*
X58346750Y-64708000D01*
X58505000Y-64549750D01*
X58505000Y-63450000D01*
X61045000Y-63450000D01*
X61045000Y-64549750D01*
X61203250Y-64708000D01*
X62440912Y-64708000D01*
X62673566Y-64611631D01*
X62851632Y-64433565D01*
X62948000Y-64200911D01*
X62948000Y-63608250D01*
X62789750Y-63450000D01*
X61045000Y-63450000D01*
X58505000Y-63450000D01*
X58380000Y-63450000D01*
X58380000Y-62533250D01*
X150827000Y-62533250D01*
X150827000Y-63125911D01*
X150923368Y-63358565D01*
X151101434Y-63536631D01*
X151334088Y-63633000D01*
X152571750Y-63633000D01*
X152730000Y-63474750D01*
X152730000Y-62375000D01*
X150985250Y-62375000D01*
X150827000Y-62533250D01*
X58380000Y-62533250D01*
X58380000Y-62200000D01*
X58505000Y-62200000D01*
X58505000Y-61100250D01*
X61045000Y-61100250D01*
X61045000Y-62200000D01*
X62789750Y-62200000D01*
X62948000Y-62041750D01*
X62948000Y-61449089D01*
X62851632Y-61216435D01*
X62673566Y-61038369D01*
X62440912Y-60942000D01*
X61203250Y-60942000D01*
X61045000Y-61100250D01*
X58505000Y-61100250D01*
X58346750Y-60942000D01*
X57700000Y-60942000D01*
X57700000Y-60374089D01*
X150827000Y-60374089D01*
X150827000Y-60966750D01*
X150985250Y-61125000D01*
X152730000Y-61125000D01*
X152730000Y-60025250D01*
X152571750Y-59867000D01*
X151334088Y-59867000D01*
X151101434Y-59963369D01*
X150923368Y-60141435D01*
X150827000Y-60374089D01*
X57700000Y-60374089D01*
X57700000Y-57208000D01*
X58346750Y-57208000D01*
X58505000Y-57049750D01*
X58505000Y-55950000D01*
X61045000Y-55950000D01*
X61045000Y-57049750D01*
X61203250Y-57208000D01*
X62440912Y-57208000D01*
X62673566Y-57111631D01*
X62851632Y-56933565D01*
X62948000Y-56700911D01*
X62948000Y-56108250D01*
X62789750Y-55950000D01*
X61045000Y-55950000D01*
X58505000Y-55950000D01*
X58380000Y-55950000D01*
X58380000Y-55033250D01*
X150827000Y-55033250D01*
X150827000Y-55625911D01*
X150923368Y-55858565D01*
X151101434Y-56036631D01*
X151334088Y-56133000D01*
X152571750Y-56133000D01*
X152730000Y-55974750D01*
X152730000Y-54875000D01*
X150985250Y-54875000D01*
X150827000Y-55033250D01*
X58380000Y-55033250D01*
X58380000Y-54700000D01*
X58505000Y-54700000D01*
X58505000Y-53600250D01*
X61045000Y-53600250D01*
X61045000Y-54700000D01*
X62789750Y-54700000D01*
X62948000Y-54541750D01*
X62948000Y-53949089D01*
X62851632Y-53716435D01*
X62673566Y-53538369D01*
X62440912Y-53442000D01*
X61203250Y-53442000D01*
X61045000Y-53600250D01*
X58505000Y-53600250D01*
X58346750Y-53442000D01*
X57700000Y-53442000D01*
X57700000Y-52874089D01*
X150827000Y-52874089D01*
X150827000Y-53466750D01*
X150985250Y-53625000D01*
X152730000Y-53625000D01*
X152730000Y-52525250D01*
X152571750Y-52367000D01*
X151334088Y-52367000D01*
X151101434Y-52463369D01*
X150923368Y-52641435D01*
X150827000Y-52874089D01*
X57700000Y-52874089D01*
X57700000Y-47625000D01*
X60087756Y-47625000D01*
X60087756Y-51125000D01*
X60131337Y-51356611D01*
X60268219Y-51569332D01*
X60477076Y-51712038D01*
X60725000Y-51762244D01*
X64225000Y-51762244D01*
X64456611Y-51718663D01*
X64669332Y-51581781D01*
X64812038Y-51372924D01*
X64862244Y-51125000D01*
X64862244Y-50450000D01*
X127013778Y-50450000D01*
X127137474Y-51071861D01*
X127489729Y-51599049D01*
X128016917Y-51951304D01*
X128638778Y-52075000D01*
X131761222Y-52075000D01*
X132383083Y-51951304D01*
X132910271Y-51599049D01*
X133262526Y-51071861D01*
X133386222Y-50450000D01*
X133938778Y-50450000D01*
X134062474Y-51071861D01*
X134414729Y-51599049D01*
X134941917Y-51951304D01*
X135563778Y-52075000D01*
X138686222Y-52075000D01*
X139308083Y-51951304D01*
X139835271Y-51599049D01*
X140187526Y-51071861D01*
X140311222Y-50450000D01*
X140187526Y-49828139D01*
X139835271Y-49300951D01*
X139308083Y-48948696D01*
X138686222Y-48825000D01*
X135563778Y-48825000D01*
X134941917Y-48948696D01*
X134414729Y-49300951D01*
X134062474Y-49828139D01*
X133938778Y-50450000D01*
X133386222Y-50450000D01*
X133262526Y-49828139D01*
X132910271Y-49300951D01*
X132383083Y-48948696D01*
X131761222Y-48825000D01*
X128638778Y-48825000D01*
X128016917Y-48948696D01*
X127489729Y-49300951D01*
X127137474Y-49828139D01*
X127013778Y-50450000D01*
X64862244Y-50450000D01*
X64862244Y-47625000D01*
X64818663Y-47393389D01*
X64681781Y-47180668D01*
X64508462Y-47062244D01*
X67225000Y-47062244D01*
X67456611Y-47018663D01*
X67669332Y-46881781D01*
X67812038Y-46672924D01*
X67862244Y-46425000D01*
X67862244Y-42925000D01*
X67818663Y-42693389D01*
X67681781Y-42480668D01*
X67472924Y-42337962D01*
X67225000Y-42287756D01*
X63725000Y-42287756D01*
X63493389Y-42331337D01*
X63280668Y-42468219D01*
X63137962Y-42677076D01*
X63087756Y-42925000D01*
X63087756Y-46425000D01*
X63131337Y-46656611D01*
X63268219Y-46869332D01*
X63441538Y-46987756D01*
X61520496Y-46987756D01*
X61583565Y-46961632D01*
X61761631Y-46783566D01*
X61858000Y-46550912D01*
X61858000Y-45708250D01*
X61699750Y-45550000D01*
X60350000Y-45550000D01*
X60350000Y-46899750D01*
X60486208Y-47035958D01*
X60280668Y-47168219D01*
X60137962Y-47377076D01*
X60087756Y-47625000D01*
X57700000Y-47625000D01*
X57700000Y-47058000D01*
X58441750Y-47058000D01*
X58600000Y-46899750D01*
X58600000Y-45550000D01*
X58080000Y-45550000D01*
X58080000Y-43800000D01*
X58600000Y-43800000D01*
X58600000Y-42450250D01*
X60350000Y-42450250D01*
X60350000Y-43800000D01*
X61699750Y-43800000D01*
X61858000Y-43641750D01*
X61858000Y-42799088D01*
X61761631Y-42566434D01*
X61583565Y-42388368D01*
X61350911Y-42292000D01*
X60508250Y-42292000D01*
X60350000Y-42450250D01*
X58600000Y-42450250D01*
X58441750Y-42292000D01*
X57700000Y-42292000D01*
X57700000Y-40438778D01*
X100375000Y-40438778D01*
X100375000Y-44561222D01*
X100460636Y-44991741D01*
X100704505Y-45356717D01*
X100875000Y-45470638D01*
X100875000Y-47000000D01*
X100884848Y-47048632D01*
X100912841Y-47089601D01*
X100954568Y-47116451D01*
X101000000Y-47125000D01*
X118000000Y-47125000D01*
X118048632Y-47115152D01*
X118089601Y-47087159D01*
X118116451Y-47045432D01*
X118125000Y-47000000D01*
X118125000Y-46383250D01*
X151102000Y-46383250D01*
X151102000Y-46975911D01*
X151198368Y-47208565D01*
X151376434Y-47386631D01*
X151609088Y-47483000D01*
X152846750Y-47483000D01*
X153005000Y-47324750D01*
X153005000Y-46225000D01*
X151260250Y-46225000D01*
X151102000Y-46383250D01*
X118125000Y-46383250D01*
X118125000Y-44224089D01*
X151102000Y-44224089D01*
X151102000Y-44816750D01*
X151260250Y-44975000D01*
X153005000Y-44975000D01*
X153005000Y-43875250D01*
X152846750Y-43717000D01*
X151609088Y-43717000D01*
X151376434Y-43813369D01*
X151198368Y-43991435D01*
X151102000Y-44224089D01*
X118125000Y-44224089D01*
X118125000Y-38883250D01*
X151102000Y-38883250D01*
X151102000Y-39475911D01*
X151198368Y-39708565D01*
X151376434Y-39886631D01*
X151609088Y-39983000D01*
X152846750Y-39983000D01*
X153005000Y-39824750D01*
X153005000Y-38725000D01*
X151260250Y-38725000D01*
X151102000Y-38883250D01*
X118125000Y-38883250D01*
X118125000Y-37000000D01*
X118115152Y-36951368D01*
X118087159Y-36910399D01*
X118045432Y-36883549D01*
X118000000Y-36875000D01*
X114286570Y-36875000D01*
X114256552Y-36724089D01*
X151102000Y-36724089D01*
X151102000Y-37316750D01*
X151260250Y-37475000D01*
X153005000Y-37475000D01*
X153005000Y-36375250D01*
X152846750Y-36217000D01*
X151609088Y-36217000D01*
X151376434Y-36313369D01*
X151198368Y-36491435D01*
X151102000Y-36724089D01*
X114256552Y-36724089D01*
X114112479Y-35999785D01*
X113489257Y-35067068D01*
X112556540Y-34443846D01*
X112210428Y-34375000D01*
X127088778Y-34375000D01*
X127212474Y-34996861D01*
X127564729Y-35524049D01*
X128091917Y-35876304D01*
X128713778Y-36000000D01*
X131836222Y-36000000D01*
X132458083Y-35876304D01*
X132985271Y-35524049D01*
X133337526Y-34996861D01*
X133461222Y-34375000D01*
X133988778Y-34375000D01*
X134112474Y-34996861D01*
X134464729Y-35524049D01*
X134991917Y-35876304D01*
X135613778Y-36000000D01*
X138736222Y-36000000D01*
X139358083Y-35876304D01*
X139885271Y-35524049D01*
X140237526Y-34996861D01*
X140361222Y-34375000D01*
X140237526Y-33753139D01*
X139885271Y-33225951D01*
X139358083Y-32873696D01*
X138736222Y-32750000D01*
X135613778Y-32750000D01*
X134991917Y-32873696D01*
X134464729Y-33225951D01*
X134112474Y-33753139D01*
X133988778Y-34375000D01*
X133461222Y-34375000D01*
X133337526Y-33753139D01*
X132985271Y-33225951D01*
X132458083Y-32873696D01*
X131836222Y-32750000D01*
X128713778Y-32750000D01*
X128091917Y-32873696D01*
X127564729Y-33225951D01*
X127212474Y-33753139D01*
X127088778Y-34375000D01*
X112210428Y-34375000D01*
X111456325Y-34225000D01*
X111343675Y-34225000D01*
X110243460Y-34443846D01*
X109310743Y-35067068D01*
X108687521Y-35999785D01*
X108513430Y-36875000D01*
X101000000Y-36875000D01*
X100951368Y-36884848D01*
X100910399Y-36912841D01*
X100883549Y-36954568D01*
X100875000Y-37000000D01*
X100875000Y-39529362D01*
X100704505Y-39643283D01*
X100460636Y-40008259D01*
X100375000Y-40438778D01*
X57700000Y-40438778D01*
X57700000Y-37725000D01*
X59312756Y-37725000D01*
X59312756Y-39725000D01*
X59356337Y-39956611D01*
X59493219Y-40169332D01*
X59702076Y-40312038D01*
X59950000Y-40362244D01*
X61950000Y-40362244D01*
X62181611Y-40318663D01*
X62394332Y-40181781D01*
X62537038Y-39972924D01*
X62587244Y-39725000D01*
X62587244Y-37725000D01*
X62582540Y-37700000D01*
X64412756Y-37700000D01*
X64412756Y-39700000D01*
X64456337Y-39931611D01*
X64593219Y-40144332D01*
X64802076Y-40287038D01*
X65050000Y-40337244D01*
X67050000Y-40337244D01*
X67281611Y-40293663D01*
X67494332Y-40156781D01*
X67637038Y-39947924D01*
X67687244Y-39700000D01*
X67687244Y-37700000D01*
X67643663Y-37468389D01*
X67506781Y-37255668D01*
X67297924Y-37112962D01*
X67050000Y-37062756D01*
X65050000Y-37062756D01*
X64818389Y-37106337D01*
X64605668Y-37243219D01*
X64462962Y-37452076D01*
X64412756Y-37700000D01*
X62582540Y-37700000D01*
X62543663Y-37493389D01*
X62406781Y-37280668D01*
X62197924Y-37137962D01*
X61950000Y-37087756D01*
X59950000Y-37087756D01*
X59718389Y-37131337D01*
X59505668Y-37268219D01*
X59362962Y-37477076D01*
X59312756Y-37725000D01*
X57700000Y-37725000D01*
X57700000Y-34000000D01*
X59362756Y-34000000D01*
X59362756Y-36000000D01*
X59406337Y-36231611D01*
X59543219Y-36444332D01*
X59752076Y-36587038D01*
X60000000Y-36637244D01*
X62000000Y-36637244D01*
X62231611Y-36593663D01*
X62444332Y-36456781D01*
X62587038Y-36247924D01*
X62637244Y-36000000D01*
X62637244Y-35658250D01*
X64367000Y-35658250D01*
X64367000Y-36125912D01*
X64463369Y-36358566D01*
X64641435Y-36536632D01*
X64874089Y-36633000D01*
X65341750Y-36633000D01*
X65500000Y-36474750D01*
X65500000Y-35500000D01*
X66500000Y-35500000D01*
X66500000Y-36474750D01*
X66658250Y-36633000D01*
X67125911Y-36633000D01*
X67358565Y-36536632D01*
X67491947Y-36403250D01*
X78017000Y-36403250D01*
X78017000Y-37640912D01*
X78113369Y-37873566D01*
X78291435Y-38051632D01*
X78524089Y-38148000D01*
X79116750Y-38148000D01*
X79275000Y-37989750D01*
X79275000Y-36245000D01*
X80525000Y-36245000D01*
X80525000Y-37989750D01*
X80683250Y-38148000D01*
X81275911Y-38148000D01*
X81508565Y-38051632D01*
X81686631Y-37873566D01*
X81783000Y-37640912D01*
X81783000Y-36403250D01*
X85517000Y-36403250D01*
X85517000Y-37640912D01*
X85613369Y-37873566D01*
X85791435Y-38051632D01*
X86024089Y-38148000D01*
X86616750Y-38148000D01*
X86775000Y-37989750D01*
X86775000Y-36245000D01*
X88025000Y-36245000D01*
X88025000Y-37989750D01*
X88183250Y-38148000D01*
X88775911Y-38148000D01*
X89008565Y-38051632D01*
X89186631Y-37873566D01*
X89283000Y-37640912D01*
X89283000Y-36403250D01*
X89124750Y-36245000D01*
X88025000Y-36245000D01*
X86775000Y-36245000D01*
X85675250Y-36245000D01*
X85517000Y-36403250D01*
X81783000Y-36403250D01*
X81624750Y-36245000D01*
X80525000Y-36245000D01*
X79275000Y-36245000D01*
X78175250Y-36245000D01*
X78017000Y-36403250D01*
X67491947Y-36403250D01*
X67536631Y-36358566D01*
X67633000Y-36125912D01*
X67633000Y-35658250D01*
X67474750Y-35500000D01*
X66500000Y-35500000D01*
X65500000Y-35500000D01*
X64525250Y-35500000D01*
X64367000Y-35658250D01*
X62637244Y-35658250D01*
X62637244Y-34000000D01*
X62613552Y-33874088D01*
X64367000Y-33874088D01*
X64367000Y-34341750D01*
X64525250Y-34500000D01*
X65500000Y-34500000D01*
X65500000Y-33525250D01*
X66500000Y-33525250D01*
X66500000Y-34500000D01*
X67474750Y-34500000D01*
X67633000Y-34341750D01*
X67633000Y-33874088D01*
X67536631Y-33641434D01*
X67358565Y-33463368D01*
X67125911Y-33367000D01*
X66658250Y-33367000D01*
X66500000Y-33525250D01*
X65500000Y-33525250D01*
X65341750Y-33367000D01*
X64874089Y-33367000D01*
X64641435Y-33463368D01*
X64463369Y-33641434D01*
X64367000Y-33874088D01*
X62613552Y-33874088D01*
X62593663Y-33768389D01*
X62456781Y-33555668D01*
X62247924Y-33412962D01*
X62000000Y-33362756D01*
X60000000Y-33362756D01*
X59768389Y-33406337D01*
X59555668Y-33543219D01*
X59412962Y-33752076D01*
X59362756Y-34000000D01*
X57700000Y-34000000D01*
X57700000Y-32700000D01*
X78017000Y-32700000D01*
X78017000Y-33546750D01*
X78017000Y-33546750D01*
G37*
X78017000Y-33546750D02*
X78175250Y-33705000D01*
X79275000Y-33705000D01*
X79275000Y-33580000D01*
X80525000Y-33580000D01*
X80525000Y-33705000D01*
X81624750Y-33705000D01*
X81783000Y-33546750D01*
X81783000Y-32700000D01*
X85517000Y-32700000D01*
X85517000Y-33546750D01*
X85675250Y-33705000D01*
X86775000Y-33705000D01*
X86775000Y-33580000D01*
X88025000Y-33580000D01*
X88025000Y-33705000D01*
X89124750Y-33705000D01*
X89283000Y-33546750D01*
X89283000Y-32700000D01*
X100679698Y-32700000D01*
X100460636Y-33027850D01*
X100375000Y-33458369D01*
X100375000Y-35541631D01*
X100460636Y-35972150D01*
X100704505Y-36337126D01*
X101069481Y-36580995D01*
X101500000Y-36666631D01*
X101930519Y-36580995D01*
X102295495Y-36337126D01*
X102539364Y-35972150D01*
X102625000Y-35541631D01*
X102625000Y-35250002D01*
X102679780Y-35250002D01*
X102699089Y-35258000D01*
X103666750Y-35258000D01*
X103825000Y-35099750D01*
X103825000Y-34250000D01*
X105825000Y-34250000D01*
X105825000Y-35099750D01*
X105983250Y-35258000D01*
X106950911Y-35258000D01*
X107183565Y-35161632D01*
X107361631Y-34983566D01*
X107458000Y-34750912D01*
X107458000Y-34408250D01*
X107299750Y-34250000D01*
X105825000Y-34250000D01*
X103825000Y-34250000D01*
X103430000Y-34250000D01*
X103430000Y-33500000D01*
X103825000Y-33500000D01*
X103825000Y-33125000D01*
X105825000Y-33125000D01*
X105825000Y-33500000D01*
X107299750Y-33500000D01*
X107458000Y-33341750D01*
X107458000Y-32999088D01*
X107361631Y-32766434D01*
X107295197Y-32700000D01*
X141127067Y-32700000D01*
X141093389Y-32706337D01*
X140880668Y-32843219D01*
X140737962Y-33052076D01*
X140687756Y-33300000D01*
X140687756Y-35300000D01*
X140731337Y-35531611D01*
X140868219Y-35744332D01*
X141077076Y-35887038D01*
X141325000Y-35937244D01*
X143325000Y-35937244D01*
X143556611Y-35893663D01*
X143769332Y-35756781D01*
X143912038Y-35547924D01*
X143962244Y-35300000D01*
X143962244Y-33300000D01*
X143918663Y-33068389D01*
X143781781Y-32855668D01*
X143572924Y-32712962D01*
X143508916Y-32700000D01*
X144914386Y-32700000D01*
X144730668Y-32818219D01*
X144587962Y-33027076D01*
X144537756Y-33275000D01*
X144537756Y-35275000D01*
X144581337Y-35506611D01*
X144718219Y-35719332D01*
X144927076Y-35862038D01*
X145175000Y-35912244D01*
X147175000Y-35912244D01*
X147406611Y-35868663D01*
X147619332Y-35731781D01*
X147762038Y-35522924D01*
X147812244Y-35275000D01*
X147812244Y-33275000D01*
X147768663Y-33043389D01*
X147631781Y-32830668D01*
X147440542Y-32700000D01*
X148759929Y-32700000D01*
X148593389Y-32731337D01*
X148380668Y-32868219D01*
X148237962Y-33077076D01*
X148187756Y-33325000D01*
X148187756Y-35325000D01*
X148231337Y-35556611D01*
X148368219Y-35769332D01*
X148577076Y-35912038D01*
X148825000Y-35962244D01*
X150825000Y-35962244D01*
X151056611Y-35918663D01*
X151269332Y-35781781D01*
X151412038Y-35572924D01*
X151462244Y-35325000D01*
X151462244Y-34983250D01*
X152142000Y-34983250D01*
X152142000Y-35450912D01*
X152238369Y-35683566D01*
X152416435Y-35861632D01*
X152649089Y-35958000D01*
X153116750Y-35958000D01*
X153275000Y-35799750D01*
X153275000Y-34825000D01*
X154275000Y-34825000D01*
X154275000Y-35799750D01*
X154433250Y-35958000D01*
X154900911Y-35958000D01*
X155133565Y-35861632D01*
X155311631Y-35683566D01*
X155408000Y-35450912D01*
X155408000Y-34983250D01*
X155249750Y-34825000D01*
X154275000Y-34825000D01*
X153275000Y-34825000D01*
X152300250Y-34825000D01*
X152142000Y-34983250D01*
X151462244Y-34983250D01*
X151462244Y-33325000D01*
X151418663Y-33093389D01*
X151281781Y-32880668D01*
X151072924Y-32737962D01*
X150885463Y-32700000D01*
X152399998Y-32700000D01*
X152399998Y-32804805D01*
X152238369Y-32966434D01*
X152142000Y-33199088D01*
X152142000Y-33666750D01*
X152300250Y-33825000D01*
X153275000Y-33825000D01*
X153275000Y-33325000D01*
X154275000Y-33325000D01*
X154275000Y-33825000D01*
X155249750Y-33825000D01*
X155408000Y-33666750D01*
X155408000Y-33199088D01*
X155311631Y-32966434D01*
X155150002Y-32804805D01*
X155150002Y-32700000D01*
X156300000Y-32700000D01*
X156300000Y-36217000D01*
X155703250Y-36217000D01*
X155545000Y-36375250D01*
X155545000Y-37475000D01*
X155670000Y-37475000D01*
X155670000Y-38725000D01*
X155545000Y-38725000D01*
X155545000Y-39824750D01*
X155703250Y-39983000D01*
X156300000Y-39983000D01*
X156300000Y-43717000D01*
X155703250Y-43717000D01*
X155545000Y-43875250D01*
X155545000Y-44975000D01*
X155670000Y-44975000D01*
X155670000Y-46225000D01*
X155545000Y-46225000D01*
X155545000Y-47324750D01*
X155703250Y-47483000D01*
X156300000Y-47483000D01*
X156300000Y-52367000D01*
X155428250Y-52367000D01*
X155270000Y-52525250D01*
X155270000Y-53625000D01*
X155395000Y-53625000D01*
X155395000Y-54875000D01*
X155270000Y-54875000D01*
X155270000Y-55974750D01*
X155428250Y-56133000D01*
X156300000Y-56133000D01*
X156300000Y-59867000D01*
X155428250Y-59867000D01*
X155270000Y-60025250D01*
X155270000Y-61125000D01*
X155395000Y-61125000D01*
X155395000Y-62375000D01*
X155270000Y-62375000D01*
X155270000Y-63474750D01*
X155428250Y-63633000D01*
X156300000Y-63633000D01*
X156300000Y-88422541D01*
X156165912Y-88367000D01*
X154928250Y-88367000D01*
X154770000Y-88525250D01*
X154770000Y-89625000D01*
X154895000Y-89625000D01*
X154895000Y-90875000D01*
X154770000Y-90875000D01*
X154770000Y-91974750D01*
X154928250Y-92133000D01*
X156165912Y-92133000D01*
X156300000Y-92077459D01*
X156300000Y-95922541D01*
X156165912Y-95867000D01*
X154928250Y-95867000D01*
X154770000Y-96025250D01*
X154770000Y-97125000D01*
X154895000Y-97125000D01*
X154895000Y-98375000D01*
X154770000Y-98375000D01*
X154770000Y-99474750D01*
X154928250Y-99633000D01*
X156165912Y-99633000D01*
X156300000Y-99577459D01*
X156300000Y-107422541D01*
X156165912Y-107367000D01*
X154928250Y-107367000D01*
X154770000Y-107525250D01*
X154770000Y-108625000D01*
X154895000Y-108625000D01*
X154895000Y-109875000D01*
X154770000Y-109875000D01*
X154770000Y-110974750D01*
X154928250Y-111133000D01*
X156165912Y-111133000D01*
X156300000Y-111077459D01*
X156300000Y-114922541D01*
X156165912Y-114867000D01*
X154928250Y-114867000D01*
X154770000Y-115025250D01*
X154770000Y-116125000D01*
X154895000Y-116125000D01*
X154895000Y-117375000D01*
X154770000Y-117375000D01*
X154770000Y-118474750D01*
X154928250Y-118633000D01*
X156165912Y-118633000D01*
X156300000Y-118577459D01*
X156300000Y-131300000D01*
X148509017Y-131300000D01*
X148585271Y-131249049D01*
X148937526Y-130721861D01*
X149061222Y-130100000D01*
X148937526Y-129478139D01*
X148690876Y-129109000D01*
X149973002Y-129109000D01*
X149973002Y-128996195D01*
X150134631Y-128834566D01*
X150231000Y-128601912D01*
X150231000Y-128134250D01*
X150072750Y-127976000D01*
X149098000Y-127976000D01*
X149098000Y-128476000D01*
X148098000Y-128476000D01*
X148098000Y-127976000D01*
X147123250Y-127976000D01*
X146965000Y-128134250D01*
X146965000Y-128475000D01*
X144313778Y-128475000D01*
X143691917Y-128598696D01*
X143164729Y-128950951D01*
X142812474Y-129478139D01*
X142688778Y-130100000D01*
X142812474Y-130721861D01*
X143164729Y-131249049D01*
X143240983Y-131300000D01*
X141021433Y-131300000D01*
X141060271Y-131274049D01*
X141412526Y-130746861D01*
X141536222Y-130125000D01*
X141412526Y-129503139D01*
X141060271Y-128975951D01*
X140533083Y-128623696D01*
X139911222Y-128500000D01*
X136788778Y-128500000D01*
X136166917Y-128623696D01*
X135639729Y-128975951D01*
X135287474Y-129503139D01*
X135163778Y-130125000D01*
X135287474Y-130746861D01*
X135639729Y-131274049D01*
X135678567Y-131300000D01*
X85608000Y-131300000D01*
X85608000Y-130578250D01*
X85449750Y-130420000D01*
X84350000Y-130420000D01*
X84350000Y-130545000D01*
X83100000Y-130545000D01*
X83100000Y-130420000D01*
X82000250Y-130420000D01*
X81842000Y-130578250D01*
X81842000Y-131300000D01*
X78108000Y-131300000D01*
X78108000Y-130578250D01*
X77949750Y-130420000D01*
X76850000Y-130420000D01*
X76850000Y-130545000D01*
X75600000Y-130545000D01*
X75600000Y-130420000D01*
X74500250Y-130420000D01*
X74342000Y-130578250D01*
X74342000Y-131300000D01*
X57700000Y-131300000D01*
X57700000Y-129787250D01*
X100753000Y-129787250D01*
X100753000Y-130129912D01*
X100849369Y-130362566D01*
X101027435Y-130540632D01*
X101260089Y-130637000D01*
X102227750Y-130637000D01*
X102386000Y-130478750D01*
X102386000Y-129629000D01*
X104386000Y-129629000D01*
X104386000Y-130478750D01*
X104544250Y-130637000D01*
X105511911Y-130637000D01*
X105744565Y-130540632D01*
X105922631Y-130362566D01*
X106019000Y-130129912D01*
X106019000Y-129787250D01*
X105860750Y-129629000D01*
X104386000Y-129629000D01*
X102386000Y-129629000D01*
X100911250Y-129629000D01*
X100753000Y-129787250D01*
X57700000Y-129787250D01*
X57700000Y-128378088D01*
X100753000Y-128378088D01*
X100753000Y-128720750D01*
X100911250Y-128879000D01*
X102386000Y-128879000D01*
X102386000Y-128029250D01*
X104386000Y-128029250D01*
X104386000Y-128879000D01*
X105860750Y-128879000D01*
X106019000Y-128720750D01*
X106019000Y-128378088D01*
X105922631Y-128145434D01*
X105744565Y-127967368D01*
X105511911Y-127871000D01*
X104544250Y-127871000D01*
X104386000Y-128029250D01*
X102386000Y-128029250D01*
X102227750Y-127871000D01*
X101260089Y-127871000D01*
X101027435Y-127967368D01*
X100849369Y-128145434D01*
X100753000Y-128378088D01*
X57700000Y-128378088D01*
X57700000Y-126484088D01*
X74342000Y-126484088D01*
X74342000Y-127721750D01*
X74500250Y-127880000D01*
X75600000Y-127880000D01*
X75600000Y-126135250D01*
X76850000Y-126135250D01*
X76850000Y-127880000D01*
X77949750Y-127880000D01*
X78108000Y-127721750D01*
X78108000Y-126484088D01*
X81842000Y-126484088D01*
X81842000Y-127721750D01*
X82000250Y-127880000D01*
X83100000Y-127880000D01*
X83100000Y-126135250D01*
X84350000Y-126135250D01*
X84350000Y-127880000D01*
X85449750Y-127880000D01*
X85608000Y-127721750D01*
X85608000Y-126484088D01*
X85511631Y-126251434D01*
X85333565Y-126073368D01*
X85100911Y-125977000D01*
X84508250Y-125977000D01*
X84350000Y-126135250D01*
X83100000Y-126135250D01*
X82941750Y-125977000D01*
X82349089Y-125977000D01*
X82116435Y-126073368D01*
X81938369Y-126251434D01*
X81842000Y-126484088D01*
X78108000Y-126484088D01*
X78011631Y-126251434D01*
X77833565Y-126073368D01*
X77600911Y-125977000D01*
X77008250Y-125977000D01*
X76850000Y-126135250D01*
X75600000Y-126135250D01*
X75441750Y-125977000D01*
X74849089Y-125977000D01*
X74616435Y-126073368D01*
X74438369Y-126251434D01*
X74342000Y-126484088D01*
X57700000Y-126484088D01*
X57700000Y-125783000D01*
X58596750Y-125783000D01*
X58755000Y-125624750D01*
X58755000Y-124525000D01*
X61295000Y-124525000D01*
X61295000Y-125624750D01*
X61453250Y-125783000D01*
X62690912Y-125783000D01*
X62923566Y-125686631D01*
X63101632Y-125508565D01*
X63198000Y-125275911D01*
X63198000Y-124683250D01*
X63039750Y-124525000D01*
X61295000Y-124525000D01*
X58755000Y-124525000D01*
X58630000Y-124525000D01*
X58630000Y-123275000D01*
X58755000Y-123275000D01*
X58755000Y-122175250D01*
X61295000Y-122175250D01*
X61295000Y-123275000D01*
X63039750Y-123275000D01*
X63198000Y-123116750D01*
X63198000Y-122524089D01*
X63132840Y-122366778D01*
X98959000Y-122366778D01*
X98959000Y-126489222D01*
X99044636Y-126919741D01*
X99288505Y-127284717D01*
X99653481Y-127528586D01*
X99905388Y-127578694D01*
X99912841Y-127589601D01*
X99954568Y-127616451D01*
X100000000Y-127625000D01*
X106866670Y-127625000D01*
X107025729Y-127863049D01*
X107552917Y-128215304D01*
X108174778Y-128339000D01*
X111297222Y-128339000D01*
X111919083Y-128215304D01*
X112446271Y-127863049D01*
X112605330Y-127625000D01*
X114500000Y-127625000D01*
X114548632Y-127615152D01*
X114589601Y-127587159D01*
X114616451Y-127545432D01*
X114625000Y-127500000D01*
X114625000Y-126350088D01*
X146965000Y-126350088D01*
X146965000Y-126817750D01*
X147123250Y-126976000D01*
X148098000Y-126976000D01*
X148098000Y-126001250D01*
X149098000Y-126001250D01*
X149098000Y-126976000D01*
X150072750Y-126976000D01*
X150231000Y-126817750D01*
X150231000Y-126476000D01*
X151786756Y-126476000D01*
X151786756Y-128476000D01*
X151830337Y-128707611D01*
X151967219Y-128920332D01*
X152176076Y-129063038D01*
X152424000Y-129113244D01*
X154424000Y-129113244D01*
X154655611Y-129069663D01*
X154868332Y-128932781D01*
X155011038Y-128723924D01*
X155061244Y-128476000D01*
X155061244Y-126476000D01*
X155017663Y-126244389D01*
X154880781Y-126031668D01*
X154671924Y-125888962D01*
X154424000Y-125838756D01*
X152424000Y-125838756D01*
X152192389Y-125882337D01*
X151979668Y-126019219D01*
X151836962Y-126228076D01*
X151786756Y-126476000D01*
X150231000Y-126476000D01*
X150231000Y-126350088D01*
X150134631Y-126117434D01*
X149956565Y-125939368D01*
X149723911Y-125843000D01*
X149256250Y-125843000D01*
X149098000Y-126001250D01*
X148098000Y-126001250D01*
X147939750Y-125843000D01*
X147472089Y-125843000D01*
X147239435Y-125939368D01*
X147061369Y-126117434D01*
X146965000Y-126350088D01*
X114625000Y-126350088D01*
X114625000Y-121396000D01*
X146960756Y-121396000D01*
X146960756Y-123396000D01*
X147004337Y-123627611D01*
X147141219Y-123840332D01*
X147350076Y-123983038D01*
X147598000Y-124033244D01*
X149598000Y-124033244D01*
X149829611Y-123989663D01*
X150042332Y-123852781D01*
X150185038Y-123643924D01*
X150235244Y-123396000D01*
X150235244Y-121396000D01*
X151786756Y-121396000D01*
X151786756Y-123396000D01*
X151830337Y-123627611D01*
X151967219Y-123840332D01*
X152176076Y-123983038D01*
X152424000Y-124033244D01*
X154424000Y-124033244D01*
X154655611Y-123989663D01*
X154868332Y-123852781D01*
X155011038Y-123643924D01*
X155061244Y-123396000D01*
X155061244Y-121396000D01*
X155017663Y-121164389D01*
X154880781Y-120951668D01*
X154671924Y-120808962D01*
X154424000Y-120758756D01*
X152424000Y-120758756D01*
X152192389Y-120802337D01*
X151979668Y-120939219D01*
X151836962Y-121148076D01*
X151786756Y-121396000D01*
X150235244Y-121396000D01*
X150191663Y-121164389D01*
X150054781Y-120951668D01*
X149845924Y-120808962D01*
X149598000Y-120758756D01*
X147598000Y-120758756D01*
X147366389Y-120802337D01*
X147153668Y-120939219D01*
X147010962Y-121148076D01*
X146960756Y-121396000D01*
X114625000Y-121396000D01*
X114625000Y-120000000D01*
X114615152Y-119951368D01*
X114587159Y-119910399D01*
X114545432Y-119883549D01*
X114500000Y-119875000D01*
X112042235Y-119875000D01*
X111356424Y-119416756D01*
X110543222Y-119255000D01*
X108420778Y-119255000D01*
X107607576Y-119416756D01*
X106921765Y-119875000D01*
X105738848Y-119875000D01*
X105744565Y-119872632D01*
X105922631Y-119694566D01*
X106019000Y-119461912D01*
X106019000Y-119119250D01*
X105860750Y-118961000D01*
X104386000Y-118961000D01*
X104386000Y-119336000D01*
X102386000Y-119336000D01*
X102386000Y-118961000D01*
X100911250Y-118961000D01*
X100753000Y-119119250D01*
X100753000Y-119461912D01*
X100849369Y-119694566D01*
X101027435Y-119872632D01*
X101033152Y-119875000D01*
X100000000Y-119875000D01*
X99951368Y-119884848D01*
X99910399Y-119912841D01*
X99883549Y-119954568D01*
X99875000Y-120000000D01*
X99875000Y-121283351D01*
X99653481Y-121327414D01*
X99288505Y-121571283D01*
X99044636Y-121936259D01*
X98959000Y-122366778D01*
X63132840Y-122366778D01*
X63101632Y-122291435D01*
X62923566Y-122113369D01*
X62690912Y-122017000D01*
X61453250Y-122017000D01*
X61295000Y-122175250D01*
X58755000Y-122175250D01*
X58596750Y-122017000D01*
X57700000Y-122017000D01*
X57700000Y-118283000D01*
X58596750Y-118283000D01*
X58755000Y-118124750D01*
X58755000Y-117025000D01*
X61295000Y-117025000D01*
X61295000Y-118124750D01*
X61453250Y-118283000D01*
X62690912Y-118283000D01*
X62923566Y-118186631D01*
X63101632Y-118008565D01*
X63198000Y-117775911D01*
X63198000Y-117710088D01*
X100753000Y-117710088D01*
X100753000Y-118052750D01*
X100911250Y-118211000D01*
X102386000Y-118211000D01*
X102386000Y-117361250D01*
X104386000Y-117361250D01*
X104386000Y-118211000D01*
X105860750Y-118211000D01*
X106019000Y-118052750D01*
X106019000Y-117710088D01*
X105922631Y-117477434D01*
X105744565Y-117299368D01*
X105511911Y-117203000D01*
X104544250Y-117203000D01*
X104386000Y-117361250D01*
X102386000Y-117361250D01*
X102227750Y-117203000D01*
X101260089Y-117203000D01*
X101027435Y-117299368D01*
X100849369Y-117477434D01*
X100753000Y-117710088D01*
X63198000Y-117710088D01*
X63198000Y-117183250D01*
X63039750Y-117025000D01*
X61295000Y-117025000D01*
X58755000Y-117025000D01*
X58630000Y-117025000D01*
X58630000Y-115775000D01*
X58755000Y-115775000D01*
X58755000Y-114675250D01*
X61295000Y-114675250D01*
X61295000Y-115775000D01*
X63039750Y-115775000D01*
X63198000Y-115616750D01*
X63198000Y-115024089D01*
X63101632Y-114791435D01*
X62923566Y-114613369D01*
X62690912Y-114517000D01*
X61453250Y-114517000D01*
X61295000Y-114675250D01*
X58755000Y-114675250D01*
X58596750Y-114517000D01*
X57700000Y-114517000D01*
X57700000Y-113362244D01*
X59275000Y-113362244D01*
X59506611Y-113318663D01*
X59719332Y-113181781D01*
X59862038Y-112972924D01*
X59912244Y-112725000D01*
X59912244Y-110725000D01*
X59898132Y-110650000D01*
X61462756Y-110650000D01*
X61462756Y-112650000D01*
X61506337Y-112881611D01*
X61643219Y-113094332D01*
X61852076Y-113237038D01*
X62100000Y-113287244D01*
X64100000Y-113287244D01*
X64331611Y-113243663D01*
X64544332Y-113106781D01*
X64687038Y-112897924D01*
X64737244Y-112650000D01*
X64737244Y-111190778D01*
X98959000Y-111190778D01*
X98959000Y-115313222D01*
X99044636Y-115743741D01*
X99288505Y-116108717D01*
X99653481Y-116352586D01*
X99875000Y-116396649D01*
X99875000Y-116500000D01*
X99884848Y-116548632D01*
X99912841Y-116589601D01*
X99954568Y-116616451D01*
X100000000Y-116625000D01*
X106410948Y-116625000D01*
X106419474Y-116667861D01*
X106771729Y-117195049D01*
X107298917Y-117547304D01*
X107920778Y-117671000D01*
X111043222Y-117671000D01*
X111665083Y-117547304D01*
X111686116Y-117533250D01*
X150327000Y-117533250D01*
X150327000Y-118125911D01*
X150423368Y-118358565D01*
X150601434Y-118536631D01*
X150834088Y-118633000D01*
X152071750Y-118633000D01*
X152230000Y-118474750D01*
X152230000Y-117375000D01*
X150485250Y-117375000D01*
X150327000Y-117533250D01*
X111686116Y-117533250D01*
X112192271Y-117195049D01*
X112544526Y-116667861D01*
X112553052Y-116625000D01*
X115500000Y-116625000D01*
X115548632Y-116615152D01*
X115589601Y-116587159D01*
X115616451Y-116545432D01*
X115625000Y-116500000D01*
X115625000Y-115374089D01*
X150327000Y-115374089D01*
X150327000Y-115966750D01*
X150485250Y-116125000D01*
X152230000Y-116125000D01*
X152230000Y-115025250D01*
X152071750Y-114867000D01*
X150834088Y-114867000D01*
X150601434Y-114963369D01*
X150423368Y-115141435D01*
X150327000Y-115374089D01*
X115625000Y-115374089D01*
X115625000Y-110033250D01*
X150327000Y-110033250D01*
X150327000Y-110625911D01*
X150423368Y-110858565D01*
X150601434Y-111036631D01*
X150834088Y-111133000D01*
X152071750Y-111133000D01*
X152230000Y-110974750D01*
X152230000Y-109875000D01*
X150485250Y-109875000D01*
X150327000Y-110033250D01*
X115625000Y-110033250D01*
X115625000Y-108500000D01*
X115615152Y-108451368D01*
X115587159Y-108410399D01*
X115545432Y-108383549D01*
X115500000Y-108375000D01*
X100000000Y-108375000D01*
X99951368Y-108384848D01*
X99910399Y-108412841D01*
X99883549Y-108454568D01*
X99875000Y-108500000D01*
X99875000Y-110107351D01*
X99653481Y-110151414D01*
X99288505Y-110395283D01*
X99044636Y-110760259D01*
X98959000Y-111190778D01*
X64737244Y-111190778D01*
X64737244Y-110650000D01*
X64693663Y-110418389D01*
X64556781Y-110205668D01*
X64347924Y-110062962D01*
X64100000Y-110012756D01*
X62100000Y-110012756D01*
X61868389Y-110056337D01*
X61655668Y-110193219D01*
X61512962Y-110402076D01*
X61462756Y-110650000D01*
X59898132Y-110650000D01*
X59868663Y-110493389D01*
X59731781Y-110280668D01*
X59522924Y-110137962D01*
X59275000Y-110087756D01*
X57700000Y-110087756D01*
X57700000Y-107874089D01*
X150327000Y-107874089D01*
X150327000Y-108466750D01*
X150485250Y-108625000D01*
X152230000Y-108625000D01*
X152230000Y-107525250D01*
X152071750Y-107367000D01*
X150834088Y-107367000D01*
X150601434Y-107463369D01*
X150423368Y-107641435D01*
X150327000Y-107874089D01*
X57700000Y-107874089D01*
X57700000Y-106712244D01*
X59325000Y-106712244D01*
X59556611Y-106668663D01*
X59769332Y-106531781D01*
X59912038Y-106322924D01*
X59962244Y-106075000D01*
X59962244Y-104125000D01*
X61387756Y-104125000D01*
X61387756Y-106125000D01*
X61431337Y-106356611D01*
X61568219Y-106569332D01*
X61777076Y-106712038D01*
X62025000Y-106762244D01*
X64025000Y-106762244D01*
X64256611Y-106718663D01*
X64469332Y-106581781D01*
X64612038Y-106372924D01*
X64662244Y-106125000D01*
X64662244Y-104125000D01*
X64618663Y-103893389D01*
X64526395Y-103750000D01*
X135063778Y-103750000D01*
X135187474Y-104371861D01*
X135539729Y-104899049D01*
X136066917Y-105251304D01*
X136688778Y-105375000D01*
X139811222Y-105375000D01*
X140433083Y-105251304D01*
X140960271Y-104899049D01*
X141312526Y-104371861D01*
X141436222Y-103750000D01*
X142488778Y-103750000D01*
X142612474Y-104371861D01*
X142964729Y-104899049D01*
X143491917Y-105251304D01*
X144113778Y-105375000D01*
X147236222Y-105375000D01*
X147858083Y-105251304D01*
X148385271Y-104899049D01*
X148737526Y-104371861D01*
X148861222Y-103750000D01*
X148737526Y-103128139D01*
X148385271Y-102600951D01*
X147858083Y-102248696D01*
X147236222Y-102125000D01*
X144113778Y-102125000D01*
X143491917Y-102248696D01*
X142964729Y-102600951D01*
X142612474Y-103128139D01*
X142488778Y-103750000D01*
X141436222Y-103750000D01*
X141312526Y-103128139D01*
X140960271Y-102600951D01*
X140433083Y-102248696D01*
X139811222Y-102125000D01*
X136688778Y-102125000D01*
X136066917Y-102248696D01*
X135539729Y-102600951D01*
X135187474Y-103128139D01*
X135063778Y-103750000D01*
X64526395Y-103750000D01*
X64481781Y-103680668D01*
X64272924Y-103537962D01*
X64025000Y-103487756D01*
X62025000Y-103487756D01*
X61793389Y-103531337D01*
X61580668Y-103668219D01*
X61437962Y-103877076D01*
X61387756Y-104125000D01*
X59962244Y-104125000D01*
X59962244Y-104075000D01*
X59918663Y-103843389D01*
X59781781Y-103630668D01*
X59572924Y-103487962D01*
X59325000Y-103437756D01*
X57700000Y-103437756D01*
X57700000Y-102533000D01*
X58296750Y-102533000D01*
X58455000Y-102374750D01*
X58455000Y-101275000D01*
X60995000Y-101275000D01*
X60995000Y-102374750D01*
X61153250Y-102533000D01*
X62390912Y-102533000D01*
X62623566Y-102436631D01*
X62801632Y-102258565D01*
X62898000Y-102025911D01*
X62898000Y-101433250D01*
X62739750Y-101275000D01*
X60995000Y-101275000D01*
X58455000Y-101275000D01*
X58330000Y-101275000D01*
X58330000Y-100025000D01*
X58455000Y-100025000D01*
X58455000Y-98925250D01*
X60995000Y-98925250D01*
X60995000Y-100025000D01*
X62739750Y-100025000D01*
X62898000Y-99866750D01*
X62898000Y-99274089D01*
X62801632Y-99041435D01*
X62623566Y-98863369D01*
X62390912Y-98767000D01*
X61153250Y-98767000D01*
X60995000Y-98925250D01*
X58455000Y-98925250D01*
X58296750Y-98767000D01*
X57700000Y-98767000D01*
X57700000Y-98533250D01*
X150327000Y-98533250D01*
X150327000Y-99125911D01*
X150423368Y-99358565D01*
X150601434Y-99536631D01*
X150834088Y-99633000D01*
X152071750Y-99633000D01*
X152230000Y-99474750D01*
X152230000Y-98375000D01*
X150485250Y-98375000D01*
X150327000Y-98533250D01*
X57700000Y-98533250D01*
X57700000Y-96711324D01*
X98224676Y-96711324D01*
X98509526Y-97400714D01*
X99036511Y-97928620D01*
X99725403Y-98214673D01*
X100471324Y-98215324D01*
X101160714Y-97930474D01*
X101688620Y-97403489D01*
X101974673Y-96714597D01*
X101974970Y-96374089D01*
X150327000Y-96374089D01*
X150327000Y-96966750D01*
X150485250Y-97125000D01*
X152230000Y-97125000D01*
X152230000Y-96025250D01*
X152071750Y-95867000D01*
X150834088Y-95867000D01*
X150601434Y-95963369D01*
X150423368Y-96141435D01*
X150327000Y-96374089D01*
X101974970Y-96374089D01*
X101975324Y-95968676D01*
X101690474Y-95279286D01*
X101163489Y-94751380D01*
X100474597Y-94465327D01*
X99728676Y-94464676D01*
X99039286Y-94749526D01*
X98511380Y-95276511D01*
X98225327Y-95965403D01*
X98224676Y-96711324D01*
X57700000Y-96711324D01*
X57700000Y-95033000D01*
X58296750Y-95033000D01*
X58455000Y-94874750D01*
X58455000Y-93775000D01*
X60995000Y-93775000D01*
X60995000Y-94874750D01*
X61153250Y-95033000D01*
X62390912Y-95033000D01*
X62623566Y-94936631D01*
X62801632Y-94758565D01*
X62898000Y-94525911D01*
X62898000Y-93933250D01*
X62739750Y-93775000D01*
X60995000Y-93775000D01*
X58455000Y-93775000D01*
X58330000Y-93775000D01*
X58330000Y-93100000D01*
X79137756Y-93100000D01*
X79137756Y-95100000D01*
X79181337Y-95331611D01*
X79318219Y-95544332D01*
X79527076Y-95687038D01*
X79775000Y-95737244D01*
X81775000Y-95737244D01*
X82006611Y-95693663D01*
X82219332Y-95556781D01*
X82362038Y-95347924D01*
X82412244Y-95100000D01*
X82412244Y-93100000D01*
X82393428Y-93000000D01*
X84562756Y-93000000D01*
X84562756Y-95000000D01*
X84606337Y-95231611D01*
X84743219Y-95444332D01*
X84952076Y-95587038D01*
X85200000Y-95637244D01*
X87200000Y-95637244D01*
X87431611Y-95593663D01*
X87644332Y-95456781D01*
X87787038Y-95247924D01*
X87837244Y-95000000D01*
X87837244Y-93000000D01*
X87793663Y-92768389D01*
X87656781Y-92555668D01*
X87447924Y-92412962D01*
X87200000Y-92362756D01*
X85200000Y-92362756D01*
X84968389Y-92406337D01*
X84755668Y-92543219D01*
X84612962Y-92752076D01*
X84562756Y-93000000D01*
X82393428Y-93000000D01*
X82368663Y-92868389D01*
X82231781Y-92655668D01*
X82022924Y-92512962D01*
X81775000Y-92462756D01*
X79775000Y-92462756D01*
X79543389Y-92506337D01*
X79330668Y-92643219D01*
X79187962Y-92852076D01*
X79137756Y-93100000D01*
X58330000Y-93100000D01*
X58330000Y-92525000D01*
X58455000Y-92525000D01*
X58455000Y-91425250D01*
X60995000Y-91425250D01*
X60995000Y-92525000D01*
X62739750Y-92525000D01*
X62898000Y-92366750D01*
X62898000Y-91774089D01*
X62855434Y-91671324D01*
X95724676Y-91671324D01*
X96009526Y-92360714D01*
X96536511Y-92888620D01*
X97225403Y-93174673D01*
X97971324Y-93175324D01*
X98660714Y-92890474D01*
X99188620Y-92363489D01*
X99474673Y-91674597D01*
X99474675Y-91671324D01*
X100724676Y-91671324D01*
X101009526Y-92360714D01*
X101536511Y-92888620D01*
X102225403Y-93174673D01*
X102971324Y-93175324D01*
X103660714Y-92890474D01*
X104188620Y-92363489D01*
X104474673Y-91674597D01*
X104475232Y-91033250D01*
X150327000Y-91033250D01*
X150327000Y-91625911D01*
X150423368Y-91858565D01*
X150601434Y-92036631D01*
X150834088Y-92133000D01*
X152071750Y-92133000D01*
X152230000Y-91974750D01*
X152230000Y-90875000D01*
X150485250Y-90875000D01*
X150327000Y-91033250D01*
X104475232Y-91033250D01*
X104475324Y-90928676D01*
X104190474Y-90239286D01*
X103663489Y-89711380D01*
X102974597Y-89425327D01*
X102228676Y-89424676D01*
X101539286Y-89709526D01*
X101011380Y-90236511D01*
X100725327Y-90925403D01*
X100724676Y-91671324D01*
X99474675Y-91671324D01*
X99475324Y-90928676D01*
X99190474Y-90239286D01*
X98663489Y-89711380D01*
X97974597Y-89425327D01*
X97228676Y-89424676D01*
X96539286Y-89709526D01*
X96011380Y-90236511D01*
X95725327Y-90925403D01*
X95724676Y-91671324D01*
X62855434Y-91671324D01*
X62801632Y-91541435D01*
X62623566Y-91363369D01*
X62390912Y-91267000D01*
X61153250Y-91267000D01*
X60995000Y-91425250D01*
X58455000Y-91425250D01*
X58296750Y-91267000D01*
X57700000Y-91267000D01*
X57700000Y-86975000D01*
X78987756Y-86975000D01*
X78987756Y-88975000D01*
X79031337Y-89206611D01*
X79168219Y-89419332D01*
X79377076Y-89562038D01*
X79625000Y-89612244D01*
X81625000Y-89612244D01*
X81856611Y-89568663D01*
X82069332Y-89431781D01*
X82212038Y-89222924D01*
X82262244Y-88975000D01*
X82262244Y-88608250D01*
X84592000Y-88608250D01*
X84592000Y-89075912D01*
X84688369Y-89308566D01*
X84866435Y-89486632D01*
X85099089Y-89583000D01*
X85566750Y-89583000D01*
X85725000Y-89424750D01*
X85725000Y-88450000D01*
X86725000Y-88450000D01*
X86725000Y-89424750D01*
X86883250Y-89583000D01*
X87350911Y-89583000D01*
X87583565Y-89486632D01*
X87761631Y-89308566D01*
X87858000Y-89075912D01*
X87858000Y-88874089D01*
X150327000Y-88874089D01*
X150327000Y-89466750D01*
X150485250Y-89625000D01*
X152230000Y-89625000D01*
X152230000Y-88525250D01*
X152071750Y-88367000D01*
X150834088Y-88367000D01*
X150601434Y-88463369D01*
X150423368Y-88641435D01*
X150327000Y-88874089D01*
X87858000Y-88874089D01*
X87858000Y-88608250D01*
X87699750Y-88450000D01*
X86725000Y-88450000D01*
X85725000Y-88450000D01*
X84750250Y-88450000D01*
X84592000Y-88608250D01*
X82262244Y-88608250D01*
X82262244Y-86975000D01*
X82233848Y-86824088D01*
X84592000Y-86824088D01*
X84592000Y-87291750D01*
X84750250Y-87450000D01*
X85725000Y-87450000D01*
X85725000Y-86475250D01*
X86725000Y-86475250D01*
X86725000Y-87450000D01*
X87699750Y-87450000D01*
X87858000Y-87291750D01*
X87858000Y-86824088D01*
X87761631Y-86591434D01*
X87583565Y-86413368D01*
X87350911Y-86317000D01*
X86883250Y-86317000D01*
X86725000Y-86475250D01*
X85725000Y-86475250D01*
X85566750Y-86317000D01*
X85099089Y-86317000D01*
X84866435Y-86413368D01*
X84688369Y-86591434D01*
X84592000Y-86824088D01*
X82233848Y-86824088D01*
X82218663Y-86743389D01*
X82081781Y-86530668D01*
X81872924Y-86387962D01*
X81625000Y-86337756D01*
X79625000Y-86337756D01*
X79393389Y-86381337D01*
X79180668Y-86518219D01*
X79037962Y-86727076D01*
X78987756Y-86975000D01*
X57700000Y-86975000D01*
X57700000Y-86250000D01*
X95812756Y-86250000D01*
X95812756Y-87950000D01*
X95856337Y-88181611D01*
X95993219Y-88394332D01*
X96202076Y-88537038D01*
X96450000Y-88587244D01*
X98150000Y-88587244D01*
X98381611Y-88543663D01*
X98594332Y-88406781D01*
X98737038Y-88197924D01*
X98755035Y-88109050D01*
X98797017Y-88171880D01*
X99275542Y-88491619D01*
X99840000Y-88603897D01*
X100404458Y-88491619D01*
X100882983Y-88171880D01*
X101110000Y-87832124D01*
X101337017Y-88171880D01*
X101815542Y-88491619D01*
X102380000Y-88603897D01*
X102944458Y-88491619D01*
X103422983Y-88171880D01*
X103742722Y-87693355D01*
X103855000Y-87128897D01*
X103855000Y-87071103D01*
X103742722Y-86506645D01*
X103422983Y-86028120D01*
X102944458Y-85708381D01*
X102380000Y-85596103D01*
X101815542Y-85708381D01*
X101337017Y-86028120D01*
X101110000Y-86367876D01*
X100882983Y-86028120D01*
X100404458Y-85708381D01*
X100298195Y-85687244D01*
X101850000Y-85687244D01*
X102081611Y-85643663D01*
X102294332Y-85506781D01*
X102437038Y-85297924D01*
X102487244Y-85050000D01*
X102487244Y-81550000D01*
X102443663Y-81318389D01*
X102306781Y-81105668D01*
X102133462Y-80987244D01*
X104850000Y-80987244D01*
X105081611Y-80943663D01*
X105294332Y-80806781D01*
X105437038Y-80597924D01*
X105487244Y-80350000D01*
X105487244Y-76850000D01*
X105443663Y-76618389D01*
X105413378Y-76571324D01*
X115524676Y-76571324D01*
X115809526Y-77260714D01*
X116336511Y-77788620D01*
X117025403Y-78074673D01*
X117771324Y-78075324D01*
X118460714Y-77790474D01*
X118988620Y-77263489D01*
X119274673Y-76574597D01*
X119275324Y-75828676D01*
X119059598Y-75306577D01*
X121717306Y-75306577D01*
X121878622Y-75535983D01*
X122623955Y-75611057D01*
X123001378Y-75535983D01*
X123162694Y-75306577D01*
X122440000Y-74583883D01*
X121717306Y-75306577D01*
X119059598Y-75306577D01*
X118990474Y-75139286D01*
X118463489Y-74611380D01*
X117774597Y-74325327D01*
X117028676Y-74324676D01*
X116339286Y-74609526D01*
X115811380Y-75136511D01*
X115525327Y-75825403D01*
X115524676Y-76571324D01*
X105413378Y-76571324D01*
X105306781Y-76405668D01*
X105097924Y-76262962D01*
X104850000Y-76212756D01*
X101350000Y-76212756D01*
X101118389Y-76256337D01*
X100905668Y-76393219D01*
X100762962Y-76602076D01*
X100712756Y-76850000D01*
X100712756Y-80350000D01*
X100756337Y-80581611D01*
X100893219Y-80794332D01*
X101066538Y-80912756D01*
X99145496Y-80912756D01*
X99208565Y-80886632D01*
X99386631Y-80708566D01*
X99483000Y-80475912D01*
X99483000Y-79633250D01*
X99324750Y-79475000D01*
X97975000Y-79475000D01*
X97975000Y-80824750D01*
X98111208Y-80960958D01*
X97905668Y-81093219D01*
X97762962Y-81302076D01*
X97712756Y-81550000D01*
X97712756Y-85050000D01*
X97756337Y-85281611D01*
X97893219Y-85494332D01*
X98066538Y-85612756D01*
X96450000Y-85612756D01*
X96218389Y-85656337D01*
X96005668Y-85793219D01*
X95862962Y-86002076D01*
X95812756Y-86250000D01*
X57700000Y-86250000D01*
X57700000Y-80625000D01*
X59937756Y-80625000D01*
X59937756Y-84125000D01*
X59981337Y-84356611D01*
X60118219Y-84569332D01*
X60327076Y-84712038D01*
X60575000Y-84762244D01*
X64075000Y-84762244D01*
X64306611Y-84718663D01*
X64519332Y-84581781D01*
X64662038Y-84372924D01*
X64712244Y-84125000D01*
X64712244Y-80625000D01*
X64668663Y-80393389D01*
X64531781Y-80180668D01*
X64358462Y-80062244D01*
X67075000Y-80062244D01*
X67306611Y-80018663D01*
X67519332Y-79881781D01*
X67662038Y-79672924D01*
X67670072Y-79633250D01*
X94717000Y-79633250D01*
X94717000Y-80475912D01*
X94813369Y-80708566D01*
X94991435Y-80886632D01*
X95224089Y-80983000D01*
X96066750Y-80983000D01*
X96225000Y-80824750D01*
X96225000Y-79475000D01*
X94875250Y-79475000D01*
X94717000Y-79633250D01*
X67670072Y-79633250D01*
X67712244Y-79425000D01*
X67712244Y-76724088D01*
X94717000Y-76724088D01*
X94717000Y-77566750D01*
X94875250Y-77725000D01*
X96225000Y-77725000D01*
X96225000Y-76375250D01*
X97975000Y-76375250D01*
X97975000Y-77725000D01*
X99324750Y-77725000D01*
X99483000Y-77566750D01*
X99483000Y-76724088D01*
X99386631Y-76491434D01*
X99208565Y-76313368D01*
X98975911Y-76217000D01*
X98133250Y-76217000D01*
X97975000Y-76375250D01*
X96225000Y-76375250D01*
X96066750Y-76217000D01*
X95224089Y-76217000D01*
X94991435Y-76313368D01*
X94813369Y-76491434D01*
X94717000Y-76724088D01*
X67712244Y-76724088D01*
X67712244Y-75925000D01*
X67668663Y-75693389D01*
X67531781Y-75480668D01*
X67322924Y-75337962D01*
X67075000Y-75287756D01*
X63575000Y-75287756D01*
X63343389Y-75331337D01*
X63130668Y-75468219D01*
X62987962Y-75677076D01*
X62937756Y-75925000D01*
X62937756Y-79425000D01*
X62981337Y-79656611D01*
X63118219Y-79869332D01*
X63291538Y-79987756D01*
X61370496Y-79987756D01*
X61433565Y-79961632D01*
X61611631Y-79783566D01*
X61708000Y-79550912D01*
X61708000Y-78708250D01*
X61549750Y-78550000D01*
X60200000Y-78550000D01*
X60200000Y-79899750D01*
X60336208Y-80035958D01*
X60130668Y-80168219D01*
X59987962Y-80377076D01*
X59937756Y-80625000D01*
X57700000Y-80625000D01*
X57700000Y-80058000D01*
X58291750Y-80058000D01*
X58450000Y-79899750D01*
X58450000Y-78550000D01*
X57930000Y-78550000D01*
X57930000Y-76800000D01*
X58450000Y-76800000D01*
X58450000Y-75450250D01*
X60200000Y-75450250D01*
X60200000Y-76800000D01*
X61549750Y-76800000D01*
X61708000Y-76641750D01*
X61708000Y-75799088D01*
X61611631Y-75566434D01*
X61433565Y-75388368D01*
X61200911Y-75292000D01*
X60358250Y-75292000D01*
X60200000Y-75450250D01*
X58450000Y-75450250D01*
X58291750Y-75292000D01*
X57700000Y-75292000D01*
X57700000Y-73883955D01*
X120528943Y-73883955D01*
X120604017Y-74261378D01*
X120833423Y-74422694D01*
X121556117Y-73700000D01*
X123323883Y-73700000D01*
X124046577Y-74422694D01*
X124275983Y-74261378D01*
X124351057Y-73516045D01*
X124275983Y-73138622D01*
X124046577Y-72977306D01*
X123323883Y-73700000D01*
X121556117Y-73700000D01*
X120833423Y-72977306D01*
X120604017Y-73138622D01*
X120528943Y-73883955D01*
X57700000Y-73883955D01*
X57700000Y-72806577D01*
X116677306Y-72806577D01*
X116838622Y-73035983D01*
X117583955Y-73111057D01*
X117961378Y-73035983D01*
X118122694Y-72806577D01*
X117409540Y-72093423D01*
X121717306Y-72093423D01*
X122440000Y-72816117D01*
X123162694Y-72093423D01*
X123001378Y-71864017D01*
X122256045Y-71788943D01*
X121878622Y-71864017D01*
X121717306Y-72093423D01*
X117409540Y-72093423D01*
X117400000Y-72083883D01*
X116677306Y-72806577D01*
X57700000Y-72806577D01*
X57700000Y-71383955D01*
X115488943Y-71383955D01*
X115564017Y-71761378D01*
X115793423Y-71922694D01*
X116516117Y-71200000D01*
X118283883Y-71200000D01*
X119006577Y-71922694D01*
X119235983Y-71761378D01*
X119311057Y-71016045D01*
X119235983Y-70638622D01*
X119006577Y-70477306D01*
X118283883Y-71200000D01*
X116516117Y-71200000D01*
X115793423Y-70477306D01*
X115564017Y-70638622D01*
X115488943Y-71383955D01*
X57700000Y-71383955D01*
X57700000Y-69593423D01*
X116677306Y-69593423D01*
X117400000Y-70316117D01*
X118122694Y-69593423D01*
X117961378Y-69364017D01*
X117216045Y-69288943D01*
X116838622Y-69364017D01*
X116677306Y-69593423D01*
X57700000Y-69593423D01*
X57700000Y-64708000D01*
X58346750Y-64708000D01*
X58505000Y-64549750D01*
X58505000Y-63450000D01*
X61045000Y-63450000D01*
X61045000Y-64549750D01*
X61203250Y-64708000D01*
X62440912Y-64708000D01*
X62673566Y-64611631D01*
X62851632Y-64433565D01*
X62948000Y-64200911D01*
X62948000Y-63608250D01*
X62789750Y-63450000D01*
X61045000Y-63450000D01*
X58505000Y-63450000D01*
X58380000Y-63450000D01*
X58380000Y-62533250D01*
X150827000Y-62533250D01*
X150827000Y-63125911D01*
X150923368Y-63358565D01*
X151101434Y-63536631D01*
X151334088Y-63633000D01*
X152571750Y-63633000D01*
X152730000Y-63474750D01*
X152730000Y-62375000D01*
X150985250Y-62375000D01*
X150827000Y-62533250D01*
X58380000Y-62533250D01*
X58380000Y-62200000D01*
X58505000Y-62200000D01*
X58505000Y-61100250D01*
X61045000Y-61100250D01*
X61045000Y-62200000D01*
X62789750Y-62200000D01*
X62948000Y-62041750D01*
X62948000Y-61449089D01*
X62851632Y-61216435D01*
X62673566Y-61038369D01*
X62440912Y-60942000D01*
X61203250Y-60942000D01*
X61045000Y-61100250D01*
X58505000Y-61100250D01*
X58346750Y-60942000D01*
X57700000Y-60942000D01*
X57700000Y-60374089D01*
X150827000Y-60374089D01*
X150827000Y-60966750D01*
X150985250Y-61125000D01*
X152730000Y-61125000D01*
X152730000Y-60025250D01*
X152571750Y-59867000D01*
X151334088Y-59867000D01*
X151101434Y-59963369D01*
X150923368Y-60141435D01*
X150827000Y-60374089D01*
X57700000Y-60374089D01*
X57700000Y-57208000D01*
X58346750Y-57208000D01*
X58505000Y-57049750D01*
X58505000Y-55950000D01*
X61045000Y-55950000D01*
X61045000Y-57049750D01*
X61203250Y-57208000D01*
X62440912Y-57208000D01*
X62673566Y-57111631D01*
X62851632Y-56933565D01*
X62948000Y-56700911D01*
X62948000Y-56108250D01*
X62789750Y-55950000D01*
X61045000Y-55950000D01*
X58505000Y-55950000D01*
X58380000Y-55950000D01*
X58380000Y-55033250D01*
X150827000Y-55033250D01*
X150827000Y-55625911D01*
X150923368Y-55858565D01*
X151101434Y-56036631D01*
X151334088Y-56133000D01*
X152571750Y-56133000D01*
X152730000Y-55974750D01*
X152730000Y-54875000D01*
X150985250Y-54875000D01*
X150827000Y-55033250D01*
X58380000Y-55033250D01*
X58380000Y-54700000D01*
X58505000Y-54700000D01*
X58505000Y-53600250D01*
X61045000Y-53600250D01*
X61045000Y-54700000D01*
X62789750Y-54700000D01*
X62948000Y-54541750D01*
X62948000Y-53949089D01*
X62851632Y-53716435D01*
X62673566Y-53538369D01*
X62440912Y-53442000D01*
X61203250Y-53442000D01*
X61045000Y-53600250D01*
X58505000Y-53600250D01*
X58346750Y-53442000D01*
X57700000Y-53442000D01*
X57700000Y-52874089D01*
X150827000Y-52874089D01*
X150827000Y-53466750D01*
X150985250Y-53625000D01*
X152730000Y-53625000D01*
X152730000Y-52525250D01*
X152571750Y-52367000D01*
X151334088Y-52367000D01*
X151101434Y-52463369D01*
X150923368Y-52641435D01*
X150827000Y-52874089D01*
X57700000Y-52874089D01*
X57700000Y-47625000D01*
X60087756Y-47625000D01*
X60087756Y-51125000D01*
X60131337Y-51356611D01*
X60268219Y-51569332D01*
X60477076Y-51712038D01*
X60725000Y-51762244D01*
X64225000Y-51762244D01*
X64456611Y-51718663D01*
X64669332Y-51581781D01*
X64812038Y-51372924D01*
X64862244Y-51125000D01*
X64862244Y-50450000D01*
X127013778Y-50450000D01*
X127137474Y-51071861D01*
X127489729Y-51599049D01*
X128016917Y-51951304D01*
X128638778Y-52075000D01*
X131761222Y-52075000D01*
X132383083Y-51951304D01*
X132910271Y-51599049D01*
X133262526Y-51071861D01*
X133386222Y-50450000D01*
X133938778Y-50450000D01*
X134062474Y-51071861D01*
X134414729Y-51599049D01*
X134941917Y-51951304D01*
X135563778Y-52075000D01*
X138686222Y-52075000D01*
X139308083Y-51951304D01*
X139835271Y-51599049D01*
X140187526Y-51071861D01*
X140311222Y-50450000D01*
X140187526Y-49828139D01*
X139835271Y-49300951D01*
X139308083Y-48948696D01*
X138686222Y-48825000D01*
X135563778Y-48825000D01*
X134941917Y-48948696D01*
X134414729Y-49300951D01*
X134062474Y-49828139D01*
X133938778Y-50450000D01*
X133386222Y-50450000D01*
X133262526Y-49828139D01*
X132910271Y-49300951D01*
X132383083Y-48948696D01*
X131761222Y-48825000D01*
X128638778Y-48825000D01*
X128016917Y-48948696D01*
X127489729Y-49300951D01*
X127137474Y-49828139D01*
X127013778Y-50450000D01*
X64862244Y-50450000D01*
X64862244Y-47625000D01*
X64818663Y-47393389D01*
X64681781Y-47180668D01*
X64508462Y-47062244D01*
X67225000Y-47062244D01*
X67456611Y-47018663D01*
X67669332Y-46881781D01*
X67812038Y-46672924D01*
X67862244Y-46425000D01*
X67862244Y-42925000D01*
X67818663Y-42693389D01*
X67681781Y-42480668D01*
X67472924Y-42337962D01*
X67225000Y-42287756D01*
X63725000Y-42287756D01*
X63493389Y-42331337D01*
X63280668Y-42468219D01*
X63137962Y-42677076D01*
X63087756Y-42925000D01*
X63087756Y-46425000D01*
X63131337Y-46656611D01*
X63268219Y-46869332D01*
X63441538Y-46987756D01*
X61520496Y-46987756D01*
X61583565Y-46961632D01*
X61761631Y-46783566D01*
X61858000Y-46550912D01*
X61858000Y-45708250D01*
X61699750Y-45550000D01*
X60350000Y-45550000D01*
X60350000Y-46899750D01*
X60486208Y-47035958D01*
X60280668Y-47168219D01*
X60137962Y-47377076D01*
X60087756Y-47625000D01*
X57700000Y-47625000D01*
X57700000Y-47058000D01*
X58441750Y-47058000D01*
X58600000Y-46899750D01*
X58600000Y-45550000D01*
X58080000Y-45550000D01*
X58080000Y-43800000D01*
X58600000Y-43800000D01*
X58600000Y-42450250D01*
X60350000Y-42450250D01*
X60350000Y-43800000D01*
X61699750Y-43800000D01*
X61858000Y-43641750D01*
X61858000Y-42799088D01*
X61761631Y-42566434D01*
X61583565Y-42388368D01*
X61350911Y-42292000D01*
X60508250Y-42292000D01*
X60350000Y-42450250D01*
X58600000Y-42450250D01*
X58441750Y-42292000D01*
X57700000Y-42292000D01*
X57700000Y-40438778D01*
X100375000Y-40438778D01*
X100375000Y-44561222D01*
X100460636Y-44991741D01*
X100704505Y-45356717D01*
X100875000Y-45470638D01*
X100875000Y-47000000D01*
X100884848Y-47048632D01*
X100912841Y-47089601D01*
X100954568Y-47116451D01*
X101000000Y-47125000D01*
X118000000Y-47125000D01*
X118048632Y-47115152D01*
X118089601Y-47087159D01*
X118116451Y-47045432D01*
X118125000Y-47000000D01*
X118125000Y-46383250D01*
X151102000Y-46383250D01*
X151102000Y-46975911D01*
X151198368Y-47208565D01*
X151376434Y-47386631D01*
X151609088Y-47483000D01*
X152846750Y-47483000D01*
X153005000Y-47324750D01*
X153005000Y-46225000D01*
X151260250Y-46225000D01*
X151102000Y-46383250D01*
X118125000Y-46383250D01*
X118125000Y-44224089D01*
X151102000Y-44224089D01*
X151102000Y-44816750D01*
X151260250Y-44975000D01*
X153005000Y-44975000D01*
X153005000Y-43875250D01*
X152846750Y-43717000D01*
X151609088Y-43717000D01*
X151376434Y-43813369D01*
X151198368Y-43991435D01*
X151102000Y-44224089D01*
X118125000Y-44224089D01*
X118125000Y-38883250D01*
X151102000Y-38883250D01*
X151102000Y-39475911D01*
X151198368Y-39708565D01*
X151376434Y-39886631D01*
X151609088Y-39983000D01*
X152846750Y-39983000D01*
X153005000Y-39824750D01*
X153005000Y-38725000D01*
X151260250Y-38725000D01*
X151102000Y-38883250D01*
X118125000Y-38883250D01*
X118125000Y-37000000D01*
X118115152Y-36951368D01*
X118087159Y-36910399D01*
X118045432Y-36883549D01*
X118000000Y-36875000D01*
X114286570Y-36875000D01*
X114256552Y-36724089D01*
X151102000Y-36724089D01*
X151102000Y-37316750D01*
X151260250Y-37475000D01*
X153005000Y-37475000D01*
X153005000Y-36375250D01*
X152846750Y-36217000D01*
X151609088Y-36217000D01*
X151376434Y-36313369D01*
X151198368Y-36491435D01*
X151102000Y-36724089D01*
X114256552Y-36724089D01*
X114112479Y-35999785D01*
X113489257Y-35067068D01*
X112556540Y-34443846D01*
X112210428Y-34375000D01*
X127088778Y-34375000D01*
X127212474Y-34996861D01*
X127564729Y-35524049D01*
X128091917Y-35876304D01*
X128713778Y-36000000D01*
X131836222Y-36000000D01*
X132458083Y-35876304D01*
X132985271Y-35524049D01*
X133337526Y-34996861D01*
X133461222Y-34375000D01*
X133988778Y-34375000D01*
X134112474Y-34996861D01*
X134464729Y-35524049D01*
X134991917Y-35876304D01*
X135613778Y-36000000D01*
X138736222Y-36000000D01*
X139358083Y-35876304D01*
X139885271Y-35524049D01*
X140237526Y-34996861D01*
X140361222Y-34375000D01*
X140237526Y-33753139D01*
X139885271Y-33225951D01*
X139358083Y-32873696D01*
X138736222Y-32750000D01*
X135613778Y-32750000D01*
X134991917Y-32873696D01*
X134464729Y-33225951D01*
X134112474Y-33753139D01*
X133988778Y-34375000D01*
X133461222Y-34375000D01*
X133337526Y-33753139D01*
X132985271Y-33225951D01*
X132458083Y-32873696D01*
X131836222Y-32750000D01*
X128713778Y-32750000D01*
X128091917Y-32873696D01*
X127564729Y-33225951D01*
X127212474Y-33753139D01*
X127088778Y-34375000D01*
X112210428Y-34375000D01*
X111456325Y-34225000D01*
X111343675Y-34225000D01*
X110243460Y-34443846D01*
X109310743Y-35067068D01*
X108687521Y-35999785D01*
X108513430Y-36875000D01*
X101000000Y-36875000D01*
X100951368Y-36884848D01*
X100910399Y-36912841D01*
X100883549Y-36954568D01*
X100875000Y-37000000D01*
X100875000Y-39529362D01*
X100704505Y-39643283D01*
X100460636Y-40008259D01*
X100375000Y-40438778D01*
X57700000Y-40438778D01*
X57700000Y-37725000D01*
X59312756Y-37725000D01*
X59312756Y-39725000D01*
X59356337Y-39956611D01*
X59493219Y-40169332D01*
X59702076Y-40312038D01*
X59950000Y-40362244D01*
X61950000Y-40362244D01*
X62181611Y-40318663D01*
X62394332Y-40181781D01*
X62537038Y-39972924D01*
X62587244Y-39725000D01*
X62587244Y-37725000D01*
X62582540Y-37700000D01*
X64412756Y-37700000D01*
X64412756Y-39700000D01*
X64456337Y-39931611D01*
X64593219Y-40144332D01*
X64802076Y-40287038D01*
X65050000Y-40337244D01*
X67050000Y-40337244D01*
X67281611Y-40293663D01*
X67494332Y-40156781D01*
X67637038Y-39947924D01*
X67687244Y-39700000D01*
X67687244Y-37700000D01*
X67643663Y-37468389D01*
X67506781Y-37255668D01*
X67297924Y-37112962D01*
X67050000Y-37062756D01*
X65050000Y-37062756D01*
X64818389Y-37106337D01*
X64605668Y-37243219D01*
X64462962Y-37452076D01*
X64412756Y-37700000D01*
X62582540Y-37700000D01*
X62543663Y-37493389D01*
X62406781Y-37280668D01*
X62197924Y-37137962D01*
X61950000Y-37087756D01*
X59950000Y-37087756D01*
X59718389Y-37131337D01*
X59505668Y-37268219D01*
X59362962Y-37477076D01*
X59312756Y-37725000D01*
X57700000Y-37725000D01*
X57700000Y-34000000D01*
X59362756Y-34000000D01*
X59362756Y-36000000D01*
X59406337Y-36231611D01*
X59543219Y-36444332D01*
X59752076Y-36587038D01*
X60000000Y-36637244D01*
X62000000Y-36637244D01*
X62231611Y-36593663D01*
X62444332Y-36456781D01*
X62587038Y-36247924D01*
X62637244Y-36000000D01*
X62637244Y-35658250D01*
X64367000Y-35658250D01*
X64367000Y-36125912D01*
X64463369Y-36358566D01*
X64641435Y-36536632D01*
X64874089Y-36633000D01*
X65341750Y-36633000D01*
X65500000Y-36474750D01*
X65500000Y-35500000D01*
X66500000Y-35500000D01*
X66500000Y-36474750D01*
X66658250Y-36633000D01*
X67125911Y-36633000D01*
X67358565Y-36536632D01*
X67491947Y-36403250D01*
X78017000Y-36403250D01*
X78017000Y-37640912D01*
X78113369Y-37873566D01*
X78291435Y-38051632D01*
X78524089Y-38148000D01*
X79116750Y-38148000D01*
X79275000Y-37989750D01*
X79275000Y-36245000D01*
X80525000Y-36245000D01*
X80525000Y-37989750D01*
X80683250Y-38148000D01*
X81275911Y-38148000D01*
X81508565Y-38051632D01*
X81686631Y-37873566D01*
X81783000Y-37640912D01*
X81783000Y-36403250D01*
X85517000Y-36403250D01*
X85517000Y-37640912D01*
X85613369Y-37873566D01*
X85791435Y-38051632D01*
X86024089Y-38148000D01*
X86616750Y-38148000D01*
X86775000Y-37989750D01*
X86775000Y-36245000D01*
X88025000Y-36245000D01*
X88025000Y-37989750D01*
X88183250Y-38148000D01*
X88775911Y-38148000D01*
X89008565Y-38051632D01*
X89186631Y-37873566D01*
X89283000Y-37640912D01*
X89283000Y-36403250D01*
X89124750Y-36245000D01*
X88025000Y-36245000D01*
X86775000Y-36245000D01*
X85675250Y-36245000D01*
X85517000Y-36403250D01*
X81783000Y-36403250D01*
X81624750Y-36245000D01*
X80525000Y-36245000D01*
X79275000Y-36245000D01*
X78175250Y-36245000D01*
X78017000Y-36403250D01*
X67491947Y-36403250D01*
X67536631Y-36358566D01*
X67633000Y-36125912D01*
X67633000Y-35658250D01*
X67474750Y-35500000D01*
X66500000Y-35500000D01*
X65500000Y-35500000D01*
X64525250Y-35500000D01*
X64367000Y-35658250D01*
X62637244Y-35658250D01*
X62637244Y-34000000D01*
X62613552Y-33874088D01*
X64367000Y-33874088D01*
X64367000Y-34341750D01*
X64525250Y-34500000D01*
X65500000Y-34500000D01*
X65500000Y-33525250D01*
X66500000Y-33525250D01*
X66500000Y-34500000D01*
X67474750Y-34500000D01*
X67633000Y-34341750D01*
X67633000Y-33874088D01*
X67536631Y-33641434D01*
X67358565Y-33463368D01*
X67125911Y-33367000D01*
X66658250Y-33367000D01*
X66500000Y-33525250D01*
X65500000Y-33525250D01*
X65341750Y-33367000D01*
X64874089Y-33367000D01*
X64641435Y-33463368D01*
X64463369Y-33641434D01*
X64367000Y-33874088D01*
X62613552Y-33874088D01*
X62593663Y-33768389D01*
X62456781Y-33555668D01*
X62247924Y-33412962D01*
X62000000Y-33362756D01*
X60000000Y-33362756D01*
X59768389Y-33406337D01*
X59555668Y-33543219D01*
X59412962Y-33752076D01*
X59362756Y-34000000D01*
X57700000Y-34000000D01*
X57700000Y-32700000D01*
X78017000Y-32700000D01*
X78017000Y-33546750D01*
M02*
