G04 #@! TF.FileFunction,Legend,Bot*
%FSLAX46Y46*%
G04 Gerber Fmt 4.6, Leading zero omitted, Abs format (unit mm)*
G04 Created by KiCad (PCBNEW 4.0.7) date 07/12/20 19:06:17*
%MOMM*%
%LPD*%
G01*
G04 APERTURE LIST*
%ADD10C,0.100000*%
%ADD11C,0.150000*%
%ADD12C,0.200000*%
G04 APERTURE END LIST*
D10*
D11*
X135071428Y-82902381D02*
X135404762Y-82426190D01*
X135642857Y-82902381D02*
X135642857Y-81902381D01*
X135261904Y-81902381D01*
X135166666Y-81950000D01*
X135119047Y-81997619D01*
X135071428Y-82092857D01*
X135071428Y-82235714D01*
X135119047Y-82330952D01*
X135166666Y-82378571D01*
X135261904Y-82426190D01*
X135642857Y-82426190D01*
X134309523Y-82378571D02*
X134642857Y-82378571D01*
X134642857Y-82902381D02*
X134642857Y-81902381D01*
X134166666Y-81902381D01*
X133023809Y-82902381D02*
X133023809Y-81902381D01*
X132452380Y-82902381D01*
X132452380Y-81902381D01*
X131785714Y-81902381D02*
X131595237Y-81902381D01*
X131499999Y-81950000D01*
X131404761Y-82045238D01*
X131357142Y-82235714D01*
X131357142Y-82569048D01*
X131404761Y-82759524D01*
X131499999Y-82854762D01*
X131595237Y-82902381D01*
X131785714Y-82902381D01*
X131880952Y-82854762D01*
X131976190Y-82759524D01*
X132023809Y-82569048D01*
X132023809Y-82235714D01*
X131976190Y-82045238D01*
X131880952Y-81950000D01*
X131785714Y-81902381D01*
X130928571Y-82902381D02*
X130928571Y-81902381D01*
X130500000Y-82854762D02*
X130357143Y-82902381D01*
X130119047Y-82902381D01*
X130023809Y-82854762D01*
X129976190Y-82807143D01*
X129928571Y-82711905D01*
X129928571Y-82616667D01*
X129976190Y-82521429D01*
X130023809Y-82473810D01*
X130119047Y-82426190D01*
X130309524Y-82378571D01*
X130404762Y-82330952D01*
X130452381Y-82283333D01*
X130500000Y-82188095D01*
X130500000Y-82092857D01*
X130452381Y-81997619D01*
X130404762Y-81950000D01*
X130309524Y-81902381D01*
X130071428Y-81902381D01*
X129928571Y-81950000D01*
X129500000Y-82378571D02*
X129166666Y-82378571D01*
X129023809Y-82902381D02*
X129500000Y-82902381D01*
X129500000Y-81902381D01*
X129023809Y-81902381D01*
X127880952Y-82854762D02*
X127738095Y-82902381D01*
X127499999Y-82902381D01*
X127404761Y-82854762D01*
X127357142Y-82807143D01*
X127309523Y-82711905D01*
X127309523Y-82616667D01*
X127357142Y-82521429D01*
X127404761Y-82473810D01*
X127499999Y-82426190D01*
X127690476Y-82378571D01*
X127785714Y-82330952D01*
X127833333Y-82283333D01*
X127880952Y-82188095D01*
X127880952Y-82092857D01*
X127833333Y-81997619D01*
X127785714Y-81950000D01*
X127690476Y-81902381D01*
X127452380Y-81902381D01*
X127309523Y-81950000D01*
X126690476Y-81902381D02*
X126499999Y-81902381D01*
X126404761Y-81950000D01*
X126309523Y-82045238D01*
X126261904Y-82235714D01*
X126261904Y-82569048D01*
X126309523Y-82759524D01*
X126404761Y-82854762D01*
X126499999Y-82902381D01*
X126690476Y-82902381D01*
X126785714Y-82854762D01*
X126880952Y-82759524D01*
X126928571Y-82569048D01*
X126928571Y-82235714D01*
X126880952Y-82045238D01*
X126785714Y-81950000D01*
X126690476Y-81902381D01*
X125833333Y-81902381D02*
X125833333Y-82711905D01*
X125785714Y-82807143D01*
X125738095Y-82854762D01*
X125642857Y-82902381D01*
X125452380Y-82902381D01*
X125357142Y-82854762D01*
X125309523Y-82807143D01*
X125261904Y-82711905D01*
X125261904Y-81902381D01*
X124214285Y-82902381D02*
X124547619Y-82426190D01*
X124785714Y-82902381D02*
X124785714Y-81902381D01*
X124404761Y-81902381D01*
X124309523Y-81950000D01*
X124261904Y-81997619D01*
X124214285Y-82092857D01*
X124214285Y-82235714D01*
X124261904Y-82330952D01*
X124309523Y-82378571D01*
X124404761Y-82426190D01*
X124785714Y-82426190D01*
X123214285Y-82807143D02*
X123261904Y-82854762D01*
X123404761Y-82902381D01*
X123499999Y-82902381D01*
X123642857Y-82854762D01*
X123738095Y-82759524D01*
X123785714Y-82664286D01*
X123833333Y-82473810D01*
X123833333Y-82330952D01*
X123785714Y-82140476D01*
X123738095Y-82045238D01*
X123642857Y-81950000D01*
X123499999Y-81902381D01*
X123404761Y-81902381D01*
X123261904Y-81950000D01*
X123214285Y-81997619D01*
X122785714Y-82378571D02*
X122452380Y-82378571D01*
X122309523Y-82902381D02*
X122785714Y-82902381D01*
X122785714Y-81902381D01*
X122309523Y-81902381D01*
X135642857Y-84028571D02*
X135500000Y-84076190D01*
X135452381Y-84123810D01*
X135404762Y-84219048D01*
X135404762Y-84361905D01*
X135452381Y-84457143D01*
X135500000Y-84504762D01*
X135595238Y-84552381D01*
X135976191Y-84552381D01*
X135976191Y-83552381D01*
X135642857Y-83552381D01*
X135547619Y-83600000D01*
X135500000Y-83647619D01*
X135452381Y-83742857D01*
X135452381Y-83838095D01*
X135500000Y-83933333D01*
X135547619Y-83980952D01*
X135642857Y-84028571D01*
X135976191Y-84028571D01*
X134785715Y-84076190D02*
X134785715Y-84552381D01*
X135119048Y-83552381D02*
X134785715Y-84076190D01*
X134452381Y-83552381D01*
X133357143Y-84552381D02*
X133357143Y-83552381D01*
X133119048Y-83552381D01*
X132976190Y-83600000D01*
X132880952Y-83695238D01*
X132833333Y-83790476D01*
X132785714Y-83980952D01*
X132785714Y-84123810D01*
X132833333Y-84314286D01*
X132880952Y-84409524D01*
X132976190Y-84504762D01*
X133119048Y-84552381D01*
X133357143Y-84552381D01*
X131595238Y-84552381D02*
X131595238Y-83552381D01*
X131261904Y-84266667D01*
X130928571Y-83552381D01*
X130928571Y-84552381D01*
X130500000Y-84266667D02*
X130023809Y-84266667D01*
X130595238Y-84552381D02*
X130261905Y-83552381D01*
X129928571Y-84552381D01*
X129023809Y-84552381D02*
X129357143Y-84076190D01*
X129595238Y-84552381D02*
X129595238Y-83552381D01*
X129214285Y-83552381D01*
X129119047Y-83600000D01*
X129071428Y-83647619D01*
X129023809Y-83742857D01*
X129023809Y-83885714D01*
X129071428Y-83980952D01*
X129119047Y-84028571D01*
X129214285Y-84076190D01*
X129595238Y-84076190D01*
X128595238Y-84552381D02*
X128595238Y-83552381D01*
X128023809Y-84552381D02*
X128452381Y-83980952D01*
X128023809Y-83552381D02*
X128595238Y-84123810D01*
X127642857Y-84504762D02*
X127500000Y-84552381D01*
X127261904Y-84552381D01*
X127166666Y-84504762D01*
X127119047Y-84457143D01*
X127071428Y-84361905D01*
X127071428Y-84266667D01*
X127119047Y-84171429D01*
X127166666Y-84123810D01*
X127261904Y-84076190D01*
X127452381Y-84028571D01*
X127547619Y-83980952D01*
X127595238Y-83933333D01*
X127642857Y-83838095D01*
X127642857Y-83742857D01*
X127595238Y-83647619D01*
X127547619Y-83600000D01*
X127452381Y-83552381D01*
X127214285Y-83552381D01*
X127071428Y-83600000D01*
X125880952Y-84552381D02*
X125880952Y-83552381D01*
X125309523Y-84552381D02*
X125738095Y-83980952D01*
X125309523Y-83552381D02*
X125880952Y-84123810D01*
X124976190Y-83552381D02*
X124738095Y-84552381D01*
X124547618Y-83838095D01*
X124357142Y-84552381D01*
X124119047Y-83552381D01*
X123309523Y-83885714D02*
X123309523Y-84552381D01*
X123547619Y-83504762D02*
X123785714Y-84219048D01*
X123166666Y-84219048D01*
X122928571Y-83552381D02*
X122357142Y-83552381D01*
X122642857Y-84552381D02*
X122642857Y-83552381D01*
X122023809Y-84552381D02*
X122023809Y-83552381D01*
X133833333Y-86107143D02*
X133880952Y-86154762D01*
X134023809Y-86202381D01*
X134119047Y-86202381D01*
X134261905Y-86154762D01*
X134357143Y-86059524D01*
X134404762Y-85964286D01*
X134452381Y-85773810D01*
X134452381Y-85630952D01*
X134404762Y-85440476D01*
X134357143Y-85345238D01*
X134261905Y-85250000D01*
X134119047Y-85202381D01*
X134023809Y-85202381D01*
X133880952Y-85250000D01*
X133833333Y-85297619D01*
X132833333Y-86107143D02*
X132880952Y-86154762D01*
X133023809Y-86202381D01*
X133119047Y-86202381D01*
X133261905Y-86154762D01*
X133357143Y-86059524D01*
X133404762Y-85964286D01*
X133452381Y-85773810D01*
X133452381Y-85630952D01*
X133404762Y-85440476D01*
X133357143Y-85345238D01*
X133261905Y-85250000D01*
X133119047Y-85202381D01*
X133023809Y-85202381D01*
X132880952Y-85250000D01*
X132833333Y-85297619D01*
X132404762Y-85821429D02*
X131642857Y-85821429D01*
X130833333Y-85678571D02*
X130690476Y-85726190D01*
X130642857Y-85773810D01*
X130595238Y-85869048D01*
X130595238Y-86011905D01*
X130642857Y-86107143D01*
X130690476Y-86154762D01*
X130785714Y-86202381D01*
X131166667Y-86202381D01*
X131166667Y-85202381D01*
X130833333Y-85202381D01*
X130738095Y-85250000D01*
X130690476Y-85297619D01*
X130642857Y-85392857D01*
X130642857Y-85488095D01*
X130690476Y-85583333D01*
X130738095Y-85630952D01*
X130833333Y-85678571D01*
X131166667Y-85678571D01*
X129976191Y-85726190D02*
X129976191Y-86202381D01*
X130309524Y-85202381D02*
X129976191Y-85726190D01*
X129642857Y-85202381D01*
X129309524Y-85821429D02*
X128547619Y-85821429D01*
X128119048Y-86154762D02*
X127976191Y-86202381D01*
X127738095Y-86202381D01*
X127642857Y-86154762D01*
X127595238Y-86107143D01*
X127547619Y-86011905D01*
X127547619Y-85916667D01*
X127595238Y-85821429D01*
X127642857Y-85773810D01*
X127738095Y-85726190D01*
X127928572Y-85678571D01*
X128023810Y-85630952D01*
X128071429Y-85583333D01*
X128119048Y-85488095D01*
X128119048Y-85392857D01*
X128071429Y-85297619D01*
X128023810Y-85250000D01*
X127928572Y-85202381D01*
X127690476Y-85202381D01*
X127547619Y-85250000D01*
X127166667Y-85916667D02*
X126690476Y-85916667D01*
X127261905Y-86202381D02*
X126928572Y-85202381D01*
X126595238Y-86202381D01*
X125071428Y-85535714D02*
X125071428Y-86202381D01*
X125309524Y-85154762D02*
X125547619Y-85869048D01*
X124928571Y-85869048D01*
X124547619Y-86107143D02*
X124500000Y-86154762D01*
X124547619Y-86202381D01*
X124595238Y-86154762D01*
X124547619Y-86107143D01*
X124547619Y-86202381D01*
X123880953Y-85202381D02*
X123785714Y-85202381D01*
X123690476Y-85250000D01*
X123642857Y-85297619D01*
X123595238Y-85392857D01*
X123547619Y-85583333D01*
X123547619Y-85821429D01*
X123595238Y-86011905D01*
X123642857Y-86107143D01*
X123690476Y-86154762D01*
X123785714Y-86202381D01*
X123880953Y-86202381D01*
X123976191Y-86154762D01*
X124023810Y-86107143D01*
X124071429Y-86011905D01*
X124119048Y-85821429D01*
X124119048Y-85583333D01*
X124071429Y-85392857D01*
X124023810Y-85297619D01*
X123976191Y-85250000D01*
X123880953Y-85202381D01*
D12*
X95000000Y-32000000D02*
X95000000Y-65000000D01*
X92000000Y-132000000D02*
X92000000Y-65000000D01*
X92000000Y-102000000D02*
X156000000Y-102000000D01*
X157000000Y-65000000D02*
X57000000Y-65000000D01*
D11*
X74858333Y-56203571D02*
X74715476Y-56251190D01*
X74667857Y-56298810D01*
X74620238Y-56394048D01*
X74620238Y-56536905D01*
X74667857Y-56632143D01*
X74715476Y-56679762D01*
X74810714Y-56727381D01*
X75191667Y-56727381D01*
X75191667Y-55727381D01*
X74858333Y-55727381D01*
X74763095Y-55775000D01*
X74715476Y-55822619D01*
X74667857Y-55917857D01*
X74667857Y-56013095D01*
X74715476Y-56108333D01*
X74763095Y-56155952D01*
X74858333Y-56203571D01*
X75191667Y-56203571D01*
X73620238Y-56727381D02*
X73953572Y-56251190D01*
X74191667Y-56727381D02*
X74191667Y-55727381D01*
X73810714Y-55727381D01*
X73715476Y-55775000D01*
X73667857Y-55822619D01*
X73620238Y-55917857D01*
X73620238Y-56060714D01*
X73667857Y-56155952D01*
X73715476Y-56203571D01*
X73810714Y-56251190D01*
X74191667Y-56251190D01*
X73001191Y-55727381D02*
X72810714Y-55727381D01*
X72715476Y-55775000D01*
X72620238Y-55870238D01*
X72572619Y-56060714D01*
X72572619Y-56394048D01*
X72620238Y-56584524D01*
X72715476Y-56679762D01*
X72810714Y-56727381D01*
X73001191Y-56727381D01*
X73096429Y-56679762D01*
X73191667Y-56584524D01*
X73239286Y-56394048D01*
X73239286Y-56060714D01*
X73191667Y-55870238D01*
X73096429Y-55775000D01*
X73001191Y-55727381D01*
X72191667Y-56441667D02*
X71715476Y-56441667D01*
X72286905Y-56727381D02*
X71953572Y-55727381D01*
X71620238Y-56727381D01*
X71286905Y-56727381D02*
X71286905Y-55727381D01*
X71048810Y-55727381D01*
X70905952Y-55775000D01*
X70810714Y-55870238D01*
X70763095Y-55965476D01*
X70715476Y-56155952D01*
X70715476Y-56298810D01*
X70763095Y-56489286D01*
X70810714Y-56584524D01*
X70905952Y-56679762D01*
X71048810Y-56727381D01*
X71286905Y-56727381D01*
X69953571Y-56203571D02*
X69810714Y-56251190D01*
X69763095Y-56298810D01*
X69715476Y-56394048D01*
X69715476Y-56536905D01*
X69763095Y-56632143D01*
X69810714Y-56679762D01*
X69905952Y-56727381D01*
X70286905Y-56727381D01*
X70286905Y-55727381D01*
X69953571Y-55727381D01*
X69858333Y-55775000D01*
X69810714Y-55822619D01*
X69763095Y-55917857D01*
X69763095Y-56013095D01*
X69810714Y-56108333D01*
X69858333Y-56155952D01*
X69953571Y-56203571D01*
X70286905Y-56203571D01*
X69334524Y-56441667D02*
X68858333Y-56441667D01*
X69429762Y-56727381D02*
X69096429Y-55727381D01*
X68763095Y-56727381D01*
X68429762Y-56727381D02*
X68429762Y-55727381D01*
X67858333Y-56727381D01*
X67858333Y-55727381D01*
X67382143Y-56727381D02*
X67382143Y-55727381D01*
X67144048Y-55727381D01*
X67001190Y-55775000D01*
X66905952Y-55870238D01*
X66858333Y-55965476D01*
X66810714Y-56155952D01*
X66810714Y-56298810D01*
X66858333Y-56489286D01*
X66905952Y-56584524D01*
X67001190Y-56679762D01*
X67144048Y-56727381D01*
X67382143Y-56727381D01*
X74596428Y-58091667D02*
X74120237Y-58091667D01*
X74691666Y-58377381D02*
X74358333Y-57377381D01*
X74024999Y-58377381D01*
X73691666Y-58377381D02*
X73691666Y-57377381D01*
X73358332Y-58091667D01*
X73024999Y-57377381D01*
X73024999Y-58377381D01*
X72548809Y-58377381D02*
X72548809Y-57377381D01*
X72167856Y-57377381D01*
X72072618Y-57425000D01*
X72024999Y-57472619D01*
X71977380Y-57567857D01*
X71977380Y-57710714D01*
X72024999Y-57805952D01*
X72072618Y-57853571D01*
X72167856Y-57901190D01*
X72548809Y-57901190D01*
X71072618Y-58377381D02*
X71548809Y-58377381D01*
X71548809Y-57377381D01*
X70739285Y-58377381D02*
X70739285Y-57377381D01*
X69929761Y-57853571D02*
X70263095Y-57853571D01*
X70263095Y-58377381D02*
X70263095Y-57377381D01*
X69786904Y-57377381D01*
X69405952Y-58377381D02*
X69405952Y-57377381D01*
X68929762Y-57853571D02*
X68596428Y-57853571D01*
X68453571Y-58377381D02*
X68929762Y-58377381D01*
X68929762Y-57377381D01*
X68453571Y-57377381D01*
X67453571Y-58377381D02*
X67786905Y-57901190D01*
X68025000Y-58377381D02*
X68025000Y-57377381D01*
X67644047Y-57377381D01*
X67548809Y-57425000D01*
X67501190Y-57472619D01*
X67453571Y-57567857D01*
X67453571Y-57710714D01*
X67501190Y-57805952D01*
X67548809Y-57853571D01*
X67644047Y-57901190D01*
X68025000Y-57901190D01*
X75120238Y-59503571D02*
X74977381Y-59551190D01*
X74929762Y-59598810D01*
X74882143Y-59694048D01*
X74882143Y-59836905D01*
X74929762Y-59932143D01*
X74977381Y-59979762D01*
X75072619Y-60027381D01*
X75453572Y-60027381D01*
X75453572Y-59027381D01*
X75120238Y-59027381D01*
X75025000Y-59075000D01*
X74977381Y-59122619D01*
X74929762Y-59217857D01*
X74929762Y-59313095D01*
X74977381Y-59408333D01*
X75025000Y-59455952D01*
X75120238Y-59503571D01*
X75453572Y-59503571D01*
X74263096Y-59551190D02*
X74263096Y-60027381D01*
X74596429Y-59027381D02*
X74263096Y-59551190D01*
X73929762Y-59027381D01*
X72834524Y-60027381D02*
X72834524Y-59027381D01*
X72596429Y-59027381D01*
X72453571Y-59075000D01*
X72358333Y-59170238D01*
X72310714Y-59265476D01*
X72263095Y-59455952D01*
X72263095Y-59598810D01*
X72310714Y-59789286D01*
X72358333Y-59884524D01*
X72453571Y-59979762D01*
X72596429Y-60027381D01*
X72834524Y-60027381D01*
X71072619Y-60027381D02*
X71072619Y-59027381D01*
X70739285Y-59741667D01*
X70405952Y-59027381D01*
X70405952Y-60027381D01*
X69977381Y-59741667D02*
X69501190Y-59741667D01*
X70072619Y-60027381D02*
X69739286Y-59027381D01*
X69405952Y-60027381D01*
X68501190Y-60027381D02*
X68834524Y-59551190D01*
X69072619Y-60027381D02*
X69072619Y-59027381D01*
X68691666Y-59027381D01*
X68596428Y-59075000D01*
X68548809Y-59122619D01*
X68501190Y-59217857D01*
X68501190Y-59360714D01*
X68548809Y-59455952D01*
X68596428Y-59503571D01*
X68691666Y-59551190D01*
X69072619Y-59551190D01*
X68072619Y-60027381D02*
X68072619Y-59027381D01*
X67501190Y-60027381D02*
X67929762Y-59455952D01*
X67501190Y-59027381D02*
X68072619Y-59598810D01*
X67120238Y-59979762D02*
X66977381Y-60027381D01*
X66739285Y-60027381D01*
X66644047Y-59979762D01*
X66596428Y-59932143D01*
X66548809Y-59836905D01*
X66548809Y-59741667D01*
X66596428Y-59646429D01*
X66644047Y-59598810D01*
X66739285Y-59551190D01*
X66929762Y-59503571D01*
X67025000Y-59455952D01*
X67072619Y-59408333D01*
X67120238Y-59313095D01*
X67120238Y-59217857D01*
X67072619Y-59122619D01*
X67025000Y-59075000D01*
X66929762Y-59027381D01*
X66691666Y-59027381D01*
X66548809Y-59075000D01*
X72953571Y-61677381D02*
X72953571Y-60677381D01*
X72382142Y-61677381D02*
X72810714Y-61105952D01*
X72382142Y-60677381D02*
X72953571Y-61248810D01*
X72048809Y-60677381D02*
X71810714Y-61677381D01*
X71620237Y-60963095D01*
X71429761Y-61677381D01*
X71191666Y-60677381D01*
X70382142Y-61010714D02*
X70382142Y-61677381D01*
X70620238Y-60629762D02*
X70858333Y-61344048D01*
X70239285Y-61344048D01*
X70001190Y-60677381D02*
X69429761Y-60677381D01*
X69715476Y-61677381D02*
X69715476Y-60677381D01*
X69096428Y-61677381D02*
X69096428Y-60677381D01*
X75858333Y-63232143D02*
X75905952Y-63279762D01*
X76048809Y-63327381D01*
X76144047Y-63327381D01*
X76286905Y-63279762D01*
X76382143Y-63184524D01*
X76429762Y-63089286D01*
X76477381Y-62898810D01*
X76477381Y-62755952D01*
X76429762Y-62565476D01*
X76382143Y-62470238D01*
X76286905Y-62375000D01*
X76144047Y-62327381D01*
X76048809Y-62327381D01*
X75905952Y-62375000D01*
X75858333Y-62422619D01*
X74858333Y-63232143D02*
X74905952Y-63279762D01*
X75048809Y-63327381D01*
X75144047Y-63327381D01*
X75286905Y-63279762D01*
X75382143Y-63184524D01*
X75429762Y-63089286D01*
X75477381Y-62898810D01*
X75477381Y-62755952D01*
X75429762Y-62565476D01*
X75382143Y-62470238D01*
X75286905Y-62375000D01*
X75144047Y-62327381D01*
X75048809Y-62327381D01*
X74905952Y-62375000D01*
X74858333Y-62422619D01*
X74429762Y-62946429D02*
X73667857Y-62946429D01*
X72858333Y-62803571D02*
X72715476Y-62851190D01*
X72667857Y-62898810D01*
X72620238Y-62994048D01*
X72620238Y-63136905D01*
X72667857Y-63232143D01*
X72715476Y-63279762D01*
X72810714Y-63327381D01*
X73191667Y-63327381D01*
X73191667Y-62327381D01*
X72858333Y-62327381D01*
X72763095Y-62375000D01*
X72715476Y-62422619D01*
X72667857Y-62517857D01*
X72667857Y-62613095D01*
X72715476Y-62708333D01*
X72763095Y-62755952D01*
X72858333Y-62803571D01*
X73191667Y-62803571D01*
X72001191Y-62851190D02*
X72001191Y-63327381D01*
X72334524Y-62327381D02*
X72001191Y-62851190D01*
X71667857Y-62327381D01*
X71334524Y-62946429D02*
X70572619Y-62946429D01*
X70144048Y-63279762D02*
X70001191Y-63327381D01*
X69763095Y-63327381D01*
X69667857Y-63279762D01*
X69620238Y-63232143D01*
X69572619Y-63136905D01*
X69572619Y-63041667D01*
X69620238Y-62946429D01*
X69667857Y-62898810D01*
X69763095Y-62851190D01*
X69953572Y-62803571D01*
X70048810Y-62755952D01*
X70096429Y-62708333D01*
X70144048Y-62613095D01*
X70144048Y-62517857D01*
X70096429Y-62422619D01*
X70048810Y-62375000D01*
X69953572Y-62327381D01*
X69715476Y-62327381D01*
X69572619Y-62375000D01*
X69191667Y-63041667D02*
X68715476Y-63041667D01*
X69286905Y-63327381D02*
X68953572Y-62327381D01*
X68620238Y-63327381D01*
X67096428Y-62660714D02*
X67096428Y-63327381D01*
X67334524Y-62279762D02*
X67572619Y-62994048D01*
X66953571Y-62994048D01*
X66572619Y-63232143D02*
X66525000Y-63279762D01*
X66572619Y-63327381D01*
X66620238Y-63279762D01*
X66572619Y-63232143D01*
X66572619Y-63327381D01*
X65905953Y-62327381D02*
X65810714Y-62327381D01*
X65715476Y-62375000D01*
X65667857Y-62422619D01*
X65620238Y-62517857D01*
X65572619Y-62708333D01*
X65572619Y-62946429D01*
X65620238Y-63136905D01*
X65667857Y-63232143D01*
X65715476Y-63279762D01*
X65810714Y-63327381D01*
X65905953Y-63327381D01*
X66001191Y-63279762D01*
X66048810Y-63232143D01*
X66096429Y-63136905D01*
X66144048Y-62946429D01*
X66144048Y-62708333D01*
X66096429Y-62517857D01*
X66048810Y-62422619D01*
X66001191Y-62375000D01*
X65905953Y-62327381D01*
X84600000Y-33327381D02*
X84409523Y-33327381D01*
X84314285Y-33375000D01*
X84219047Y-33470238D01*
X84171428Y-33660714D01*
X84171428Y-33994048D01*
X84219047Y-34184524D01*
X84314285Y-34279762D01*
X84409523Y-34327381D01*
X84600000Y-34327381D01*
X84695238Y-34279762D01*
X84790476Y-34184524D01*
X84838095Y-33994048D01*
X84838095Y-33660714D01*
X84790476Y-33470238D01*
X84695238Y-33375000D01*
X84600000Y-33327381D01*
X83742857Y-33327381D02*
X83742857Y-34136905D01*
X83695238Y-34232143D01*
X83647619Y-34279762D01*
X83552381Y-34327381D01*
X83361904Y-34327381D01*
X83266666Y-34279762D01*
X83219047Y-34232143D01*
X83171428Y-34136905D01*
X83171428Y-33327381D01*
X82838095Y-33327381D02*
X82266666Y-33327381D01*
X82552381Y-34327381D02*
X82552381Y-33327381D01*
X85266667Y-35977381D02*
X85266667Y-34977381D01*
X84885714Y-34977381D01*
X84790476Y-35025000D01*
X84742857Y-35072619D01*
X84695238Y-35167857D01*
X84695238Y-35310714D01*
X84742857Y-35405952D01*
X84790476Y-35453571D01*
X84885714Y-35501190D01*
X85266667Y-35501190D01*
X84076191Y-34977381D02*
X83885714Y-34977381D01*
X83790476Y-35025000D01*
X83695238Y-35120238D01*
X83647619Y-35310714D01*
X83647619Y-35644048D01*
X83695238Y-35834524D01*
X83790476Y-35929762D01*
X83885714Y-35977381D01*
X84076191Y-35977381D01*
X84171429Y-35929762D01*
X84266667Y-35834524D01*
X84314286Y-35644048D01*
X84314286Y-35310714D01*
X84266667Y-35120238D01*
X84171429Y-35025000D01*
X84076191Y-34977381D01*
X82647619Y-35977381D02*
X82980953Y-35501190D01*
X83219048Y-35977381D02*
X83219048Y-34977381D01*
X82838095Y-34977381D01*
X82742857Y-35025000D01*
X82695238Y-35072619D01*
X82647619Y-35167857D01*
X82647619Y-35310714D01*
X82695238Y-35405952D01*
X82742857Y-35453571D01*
X82838095Y-35501190D01*
X83219048Y-35501190D01*
X82361905Y-34977381D02*
X81790476Y-34977381D01*
X82076191Y-35977381D02*
X82076191Y-34977381D01*
X60572619Y-59723809D02*
X61572619Y-59723809D01*
X60572619Y-59247619D02*
X61572619Y-59247619D01*
X60572619Y-58676190D01*
X61572619Y-58676190D01*
X58922619Y-60866667D02*
X59922619Y-60866667D01*
X59922619Y-60485714D01*
X59875000Y-60390476D01*
X59827381Y-60342857D01*
X59732143Y-60295238D01*
X59589286Y-60295238D01*
X59494048Y-60342857D01*
X59446429Y-60390476D01*
X59398810Y-60485714D01*
X59398810Y-60866667D01*
X59922619Y-59676191D02*
X59922619Y-59485714D01*
X59875000Y-59390476D01*
X59779762Y-59295238D01*
X59589286Y-59247619D01*
X59255952Y-59247619D01*
X59065476Y-59295238D01*
X58970238Y-59390476D01*
X58922619Y-59485714D01*
X58922619Y-59676191D01*
X58970238Y-59771429D01*
X59065476Y-59866667D01*
X59255952Y-59914286D01*
X59589286Y-59914286D01*
X59779762Y-59866667D01*
X59875000Y-59771429D01*
X59922619Y-59676191D01*
X58922619Y-58247619D02*
X59398810Y-58580953D01*
X58922619Y-58819048D02*
X59922619Y-58819048D01*
X59922619Y-58438095D01*
X59875000Y-58342857D01*
X59827381Y-58295238D01*
X59732143Y-58247619D01*
X59589286Y-58247619D01*
X59494048Y-58295238D01*
X59446429Y-58342857D01*
X59398810Y-58438095D01*
X59398810Y-58819048D01*
X59922619Y-57961905D02*
X59922619Y-57390476D01*
X58922619Y-57676191D02*
X59922619Y-57676191D01*
X66907143Y-37404762D02*
X66764286Y-37452381D01*
X66526190Y-37452381D01*
X66430952Y-37404762D01*
X66383333Y-37357143D01*
X66335714Y-37261905D01*
X66335714Y-37166667D01*
X66383333Y-37071429D01*
X66430952Y-37023810D01*
X66526190Y-36976190D01*
X66716667Y-36928571D01*
X66811905Y-36880952D01*
X66859524Y-36833333D01*
X66907143Y-36738095D01*
X66907143Y-36642857D01*
X66859524Y-36547619D01*
X66811905Y-36500000D01*
X66716667Y-36452381D01*
X66478571Y-36452381D01*
X66335714Y-36500000D01*
X66002381Y-36452381D02*
X65764286Y-37452381D01*
X65573809Y-36738095D01*
X65383333Y-37452381D01*
X65145238Y-36452381D01*
X61732143Y-37379762D02*
X61589286Y-37427381D01*
X61351190Y-37427381D01*
X61255952Y-37379762D01*
X61208333Y-37332143D01*
X61160714Y-37236905D01*
X61160714Y-37141667D01*
X61208333Y-37046429D01*
X61255952Y-36998810D01*
X61351190Y-36951190D01*
X61541667Y-36903571D01*
X61636905Y-36855952D01*
X61684524Y-36808333D01*
X61732143Y-36713095D01*
X61732143Y-36617857D01*
X61684524Y-36522619D01*
X61636905Y-36475000D01*
X61541667Y-36427381D01*
X61303571Y-36427381D01*
X61160714Y-36475000D01*
X60827381Y-36427381D02*
X60589286Y-37427381D01*
X60398809Y-36713095D01*
X60208333Y-37427381D01*
X59970238Y-36427381D01*
X62752381Y-33552381D02*
X62752381Y-32552381D01*
X62371428Y-32552381D01*
X62276190Y-32600000D01*
X62228571Y-32647619D01*
X62180952Y-32742857D01*
X62180952Y-32885714D01*
X62228571Y-32980952D01*
X62276190Y-33028571D01*
X62371428Y-33076190D01*
X62752381Y-33076190D01*
X61847619Y-32552381D02*
X61609524Y-33552381D01*
X61419047Y-32838095D01*
X61228571Y-33552381D01*
X60990476Y-32552381D01*
X60038095Y-33552381D02*
X60371429Y-33076190D01*
X60609524Y-33552381D02*
X60609524Y-32552381D01*
X60228571Y-32552381D01*
X60133333Y-32600000D01*
X60085714Y-32647619D01*
X60038095Y-32742857D01*
X60038095Y-32885714D01*
X60085714Y-32980952D01*
X60133333Y-33028571D01*
X60228571Y-33076190D01*
X60609524Y-33076190D01*
X59609524Y-33171429D02*
X58847619Y-33171429D01*
X59228571Y-33552381D02*
X59228571Y-32790476D01*
X67252381Y-33652381D02*
X67252381Y-32652381D01*
X66871428Y-32652381D01*
X66776190Y-32700000D01*
X66728571Y-32747619D01*
X66680952Y-32842857D01*
X66680952Y-32985714D01*
X66728571Y-33080952D01*
X66776190Y-33128571D01*
X66871428Y-33176190D01*
X67252381Y-33176190D01*
X66347619Y-32652381D02*
X66109524Y-33652381D01*
X65919047Y-32938095D01*
X65728571Y-33652381D01*
X65490476Y-32652381D01*
X64538095Y-33652381D02*
X64871429Y-33176190D01*
X65109524Y-33652381D02*
X65109524Y-32652381D01*
X64728571Y-32652381D01*
X64633333Y-32700000D01*
X64585714Y-32747619D01*
X64538095Y-32842857D01*
X64538095Y-32985714D01*
X64585714Y-33080952D01*
X64633333Y-33128571D01*
X64728571Y-33176190D01*
X65109524Y-33176190D01*
X64109524Y-33271429D02*
X63347619Y-33271429D01*
X83379762Y-93142857D02*
X83427381Y-93285714D01*
X83427381Y-93523810D01*
X83379762Y-93619048D01*
X83332143Y-93666667D01*
X83236905Y-93714286D01*
X83141667Y-93714286D01*
X83046429Y-93666667D01*
X82998810Y-93619048D01*
X82951190Y-93523810D01*
X82903571Y-93333333D01*
X82855952Y-93238095D01*
X82808333Y-93190476D01*
X82713095Y-93142857D01*
X82617857Y-93142857D01*
X82522619Y-93190476D01*
X82475000Y-93238095D01*
X82427381Y-93333333D01*
X82427381Y-93571429D01*
X82475000Y-93714286D01*
X82427381Y-94047619D02*
X83427381Y-94285714D01*
X82713095Y-94476191D01*
X83427381Y-94666667D01*
X82427381Y-94904762D01*
X83079762Y-87267857D02*
X83127381Y-87410714D01*
X83127381Y-87648810D01*
X83079762Y-87744048D01*
X83032143Y-87791667D01*
X82936905Y-87839286D01*
X82841667Y-87839286D01*
X82746429Y-87791667D01*
X82698810Y-87744048D01*
X82651190Y-87648810D01*
X82603571Y-87458333D01*
X82555952Y-87363095D01*
X82508333Y-87315476D01*
X82413095Y-87267857D01*
X82317857Y-87267857D01*
X82222619Y-87315476D01*
X82175000Y-87363095D01*
X82127381Y-87458333D01*
X82127381Y-87696429D01*
X82175000Y-87839286D01*
X82127381Y-88172619D02*
X83127381Y-88410714D01*
X82413095Y-88601191D01*
X83127381Y-88791667D01*
X82127381Y-89029762D01*
X84602381Y-86197619D02*
X83602381Y-86197619D01*
X83602381Y-86578572D01*
X83650000Y-86673810D01*
X83697619Y-86721429D01*
X83792857Y-86769048D01*
X83935714Y-86769048D01*
X84030952Y-86721429D01*
X84078571Y-86673810D01*
X84126190Y-86578572D01*
X84126190Y-86197619D01*
X83602381Y-87102381D02*
X84602381Y-87340476D01*
X83888095Y-87530953D01*
X84602381Y-87721429D01*
X83602381Y-87959524D01*
X84602381Y-88911905D02*
X84126190Y-88578571D01*
X84602381Y-88340476D02*
X83602381Y-88340476D01*
X83602381Y-88721429D01*
X83650000Y-88816667D01*
X83697619Y-88864286D01*
X83792857Y-88911905D01*
X83935714Y-88911905D01*
X84030952Y-88864286D01*
X84078571Y-88816667D01*
X84126190Y-88721429D01*
X84126190Y-88340476D01*
X84221429Y-89340476D02*
X84221429Y-90102381D01*
X84602381Y-89721429D02*
X83840476Y-89721429D01*
X84777381Y-92322619D02*
X83777381Y-92322619D01*
X83777381Y-92703572D01*
X83825000Y-92798810D01*
X83872619Y-92846429D01*
X83967857Y-92894048D01*
X84110714Y-92894048D01*
X84205952Y-92846429D01*
X84253571Y-92798810D01*
X84301190Y-92703572D01*
X84301190Y-92322619D01*
X83777381Y-93227381D02*
X84777381Y-93465476D01*
X84063095Y-93655953D01*
X84777381Y-93846429D01*
X83777381Y-94084524D01*
X84777381Y-95036905D02*
X84301190Y-94703571D01*
X84777381Y-94465476D02*
X83777381Y-94465476D01*
X83777381Y-94846429D01*
X83825000Y-94941667D01*
X83872619Y-94989286D01*
X83967857Y-95036905D01*
X84110714Y-95036905D01*
X84205952Y-94989286D01*
X84253571Y-94941667D01*
X84301190Y-94846429D01*
X84301190Y-94465476D01*
X84396429Y-95465476D02*
X84396429Y-96227381D01*
X59997619Y-97194047D02*
X60473810Y-97527381D01*
X59997619Y-97765476D02*
X60997619Y-97765476D01*
X60997619Y-97384523D01*
X60950000Y-97289285D01*
X60902381Y-97241666D01*
X60807143Y-97194047D01*
X60664286Y-97194047D01*
X60569048Y-97241666D01*
X60521429Y-97289285D01*
X60473810Y-97384523D01*
X60473810Y-97765476D01*
X60521429Y-96432142D02*
X60521429Y-96765476D01*
X59997619Y-96765476D02*
X60997619Y-96765476D01*
X60997619Y-96289285D01*
X59947619Y-120414285D02*
X59947619Y-120890476D01*
X60947619Y-120890476D01*
X60947619Y-119890476D02*
X60947619Y-119699999D01*
X60900000Y-119604761D01*
X60804762Y-119509523D01*
X60614286Y-119461904D01*
X60280952Y-119461904D01*
X60090476Y-119509523D01*
X59995238Y-119604761D01*
X59947619Y-119699999D01*
X59947619Y-119890476D01*
X59995238Y-119985714D01*
X60090476Y-120080952D01*
X60280952Y-120128571D01*
X60614286Y-120128571D01*
X60804762Y-120080952D01*
X60900000Y-119985714D01*
X60947619Y-119890476D01*
X81172619Y-128977381D02*
X81172619Y-127977381D01*
X80839285Y-128691667D01*
X80505952Y-127977381D01*
X80505952Y-128977381D01*
X80029762Y-128977381D02*
X80029762Y-127977381D01*
X79648810Y-127977381D02*
X78982143Y-128977381D01*
X78982143Y-127977381D02*
X79648810Y-128977381D01*
X81125000Y-129627381D02*
X80934523Y-129627381D01*
X80839285Y-129675000D01*
X80744047Y-129770238D01*
X80696428Y-129960714D01*
X80696428Y-130294048D01*
X80744047Y-130484524D01*
X80839285Y-130579762D01*
X80934523Y-130627381D01*
X81125000Y-130627381D01*
X81220238Y-130579762D01*
X81315476Y-130484524D01*
X81363095Y-130294048D01*
X81363095Y-129960714D01*
X81315476Y-129770238D01*
X81220238Y-129675000D01*
X81125000Y-129627381D01*
X80267857Y-129627381D02*
X80267857Y-130436905D01*
X80220238Y-130532143D01*
X80172619Y-130579762D01*
X80077381Y-130627381D01*
X79886904Y-130627381D01*
X79791666Y-130579762D01*
X79744047Y-130532143D01*
X79696428Y-130436905D01*
X79696428Y-129627381D01*
X79363095Y-129627381D02*
X78791666Y-129627381D01*
X79077381Y-130627381D02*
X79077381Y-129627381D01*
X87197619Y-110538095D02*
X87673810Y-110871429D01*
X87197619Y-111109524D02*
X88197619Y-111109524D01*
X88197619Y-110728571D01*
X88150000Y-110633333D01*
X88102381Y-110585714D01*
X88007143Y-110538095D01*
X87864286Y-110538095D01*
X87769048Y-110585714D01*
X87721429Y-110633333D01*
X87673810Y-110728571D01*
X87673810Y-111109524D01*
X87721429Y-109776190D02*
X87721429Y-110109524D01*
X87197619Y-110109524D02*
X88197619Y-110109524D01*
X88197619Y-109633333D01*
X87197619Y-108490476D02*
X88197619Y-108490476D01*
X87483333Y-108157142D01*
X88197619Y-107823809D01*
X87197619Y-107823809D01*
X87197619Y-107347619D02*
X88197619Y-107347619D01*
X88197619Y-106966667D02*
X87197619Y-106300000D01*
X88197619Y-106300000D02*
X87197619Y-106966667D01*
X87721429Y-105919048D02*
X87721429Y-105585714D01*
X87197619Y-105442857D02*
X87197619Y-105919048D01*
X88197619Y-105919048D01*
X88197619Y-105442857D01*
X87197619Y-104442857D02*
X87673810Y-104776191D01*
X87197619Y-105014286D02*
X88197619Y-105014286D01*
X88197619Y-104633333D01*
X88150000Y-104538095D01*
X88102381Y-104490476D01*
X88007143Y-104442857D01*
X87864286Y-104442857D01*
X87769048Y-104490476D01*
X87721429Y-104538095D01*
X87673810Y-104633333D01*
X87673810Y-105014286D01*
X86071429Y-114442857D02*
X86023810Y-114300000D01*
X85976190Y-114252381D01*
X85880952Y-114204762D01*
X85738095Y-114204762D01*
X85642857Y-114252381D01*
X85595238Y-114300000D01*
X85547619Y-114395238D01*
X85547619Y-114776191D01*
X86547619Y-114776191D01*
X86547619Y-114442857D01*
X86500000Y-114347619D01*
X86452381Y-114300000D01*
X86357143Y-114252381D01*
X86261905Y-114252381D01*
X86166667Y-114300000D01*
X86119048Y-114347619D01*
X86071429Y-114442857D01*
X86071429Y-114776191D01*
X86023810Y-113585715D02*
X85547619Y-113585715D01*
X86547619Y-113919048D02*
X86023810Y-113585715D01*
X86547619Y-113252381D01*
X85547619Y-112157143D02*
X86547619Y-112157143D01*
X86547619Y-111919048D01*
X86500000Y-111776190D01*
X86404762Y-111680952D01*
X86309524Y-111633333D01*
X86119048Y-111585714D01*
X85976190Y-111585714D01*
X85785714Y-111633333D01*
X85690476Y-111680952D01*
X85595238Y-111776190D01*
X85547619Y-111919048D01*
X85547619Y-112157143D01*
X85547619Y-110395238D02*
X86547619Y-110395238D01*
X85833333Y-110061904D01*
X86547619Y-109728571D01*
X85547619Y-109728571D01*
X85833333Y-109300000D02*
X85833333Y-108823809D01*
X85547619Y-109395238D02*
X86547619Y-109061905D01*
X85547619Y-108728571D01*
X85547619Y-107823809D02*
X86023810Y-108157143D01*
X85547619Y-108395238D02*
X86547619Y-108395238D01*
X86547619Y-108014285D01*
X86500000Y-107919047D01*
X86452381Y-107871428D01*
X86357143Y-107823809D01*
X86214286Y-107823809D01*
X86119048Y-107871428D01*
X86071429Y-107919047D01*
X86023810Y-108014285D01*
X86023810Y-108395238D01*
X85547619Y-107395238D02*
X86547619Y-107395238D01*
X85547619Y-106823809D02*
X86119048Y-107252381D01*
X86547619Y-106823809D02*
X85976190Y-107395238D01*
X85595238Y-106442857D02*
X85547619Y-106300000D01*
X85547619Y-106061904D01*
X85595238Y-105966666D01*
X85642857Y-105919047D01*
X85738095Y-105871428D01*
X85833333Y-105871428D01*
X85928571Y-105919047D01*
X85976190Y-105966666D01*
X86023810Y-106061904D01*
X86071429Y-106252381D01*
X86119048Y-106347619D01*
X86166667Y-106395238D01*
X86261905Y-106442857D01*
X86357143Y-106442857D01*
X86452381Y-106395238D01*
X86500000Y-106347619D01*
X86547619Y-106252381D01*
X86547619Y-106014285D01*
X86500000Y-105871428D01*
X85547619Y-104680952D02*
X86547619Y-104680952D01*
X85547619Y-104109523D02*
X86119048Y-104538095D01*
X86547619Y-104109523D02*
X85976190Y-104680952D01*
X86547619Y-103776190D02*
X85547619Y-103538095D01*
X86261905Y-103347618D01*
X85547619Y-103157142D01*
X86547619Y-102919047D01*
X86214286Y-102109523D02*
X85547619Y-102109523D01*
X86595238Y-102347619D02*
X85880952Y-102585714D01*
X85880952Y-101966666D01*
X86547619Y-101728571D02*
X86547619Y-101157142D01*
X85547619Y-101442857D02*
X86547619Y-101442857D01*
X85547619Y-100823809D02*
X86547619Y-100823809D01*
X83992857Y-112633333D02*
X83945238Y-112680952D01*
X83897619Y-112823809D01*
X83897619Y-112919047D01*
X83945238Y-113061905D01*
X84040476Y-113157143D01*
X84135714Y-113204762D01*
X84326190Y-113252381D01*
X84469048Y-113252381D01*
X84659524Y-113204762D01*
X84754762Y-113157143D01*
X84850000Y-113061905D01*
X84897619Y-112919047D01*
X84897619Y-112823809D01*
X84850000Y-112680952D01*
X84802381Y-112633333D01*
X83992857Y-111633333D02*
X83945238Y-111680952D01*
X83897619Y-111823809D01*
X83897619Y-111919047D01*
X83945238Y-112061905D01*
X84040476Y-112157143D01*
X84135714Y-112204762D01*
X84326190Y-112252381D01*
X84469048Y-112252381D01*
X84659524Y-112204762D01*
X84754762Y-112157143D01*
X84850000Y-112061905D01*
X84897619Y-111919047D01*
X84897619Y-111823809D01*
X84850000Y-111680952D01*
X84802381Y-111633333D01*
X84278571Y-111204762D02*
X84278571Y-110442857D01*
X84421429Y-109633333D02*
X84373810Y-109490476D01*
X84326190Y-109442857D01*
X84230952Y-109395238D01*
X84088095Y-109395238D01*
X83992857Y-109442857D01*
X83945238Y-109490476D01*
X83897619Y-109585714D01*
X83897619Y-109966667D01*
X84897619Y-109966667D01*
X84897619Y-109633333D01*
X84850000Y-109538095D01*
X84802381Y-109490476D01*
X84707143Y-109442857D01*
X84611905Y-109442857D01*
X84516667Y-109490476D01*
X84469048Y-109538095D01*
X84421429Y-109633333D01*
X84421429Y-109966667D01*
X84373810Y-108776191D02*
X83897619Y-108776191D01*
X84897619Y-109109524D02*
X84373810Y-108776191D01*
X84897619Y-108442857D01*
X84278571Y-108109524D02*
X84278571Y-107347619D01*
X83945238Y-106919048D02*
X83897619Y-106776191D01*
X83897619Y-106538095D01*
X83945238Y-106442857D01*
X83992857Y-106395238D01*
X84088095Y-106347619D01*
X84183333Y-106347619D01*
X84278571Y-106395238D01*
X84326190Y-106442857D01*
X84373810Y-106538095D01*
X84421429Y-106728572D01*
X84469048Y-106823810D01*
X84516667Y-106871429D01*
X84611905Y-106919048D01*
X84707143Y-106919048D01*
X84802381Y-106871429D01*
X84850000Y-106823810D01*
X84897619Y-106728572D01*
X84897619Y-106490476D01*
X84850000Y-106347619D01*
X84183333Y-105966667D02*
X84183333Y-105490476D01*
X83897619Y-106061905D02*
X84897619Y-105728572D01*
X83897619Y-105395238D01*
X84564286Y-103871428D02*
X83897619Y-103871428D01*
X84945238Y-104109524D02*
X84230952Y-104347619D01*
X84230952Y-103728571D01*
X83992857Y-103347619D02*
X83945238Y-103300000D01*
X83897619Y-103347619D01*
X83945238Y-103395238D01*
X83992857Y-103347619D01*
X83897619Y-103347619D01*
X84897619Y-102680953D02*
X84897619Y-102585714D01*
X84850000Y-102490476D01*
X84802381Y-102442857D01*
X84707143Y-102395238D01*
X84516667Y-102347619D01*
X84278571Y-102347619D01*
X84088095Y-102395238D01*
X83992857Y-102442857D01*
X83945238Y-102490476D01*
X83897619Y-102585714D01*
X83897619Y-102680953D01*
X83945238Y-102776191D01*
X83992857Y-102823810D01*
X84088095Y-102871429D01*
X84278571Y-102919048D01*
X84516667Y-102919048D01*
X84707143Y-102871429D01*
X84802381Y-102823810D01*
X84850000Y-102776191D01*
X84897619Y-102680953D01*
X154281143Y-120768762D02*
X154138286Y-120816381D01*
X153900190Y-120816381D01*
X153804952Y-120768762D01*
X153757333Y-120721143D01*
X153709714Y-120625905D01*
X153709714Y-120530667D01*
X153757333Y-120435429D01*
X153804952Y-120387810D01*
X153900190Y-120340190D01*
X154090667Y-120292571D01*
X154185905Y-120244952D01*
X154233524Y-120197333D01*
X154281143Y-120102095D01*
X154281143Y-120006857D01*
X154233524Y-119911619D01*
X154185905Y-119864000D01*
X154090667Y-119816381D01*
X153852571Y-119816381D01*
X153709714Y-119864000D01*
X153376381Y-119816381D02*
X153138286Y-120816381D01*
X152947809Y-120102095D01*
X152757333Y-120816381D01*
X152519238Y-119816381D01*
X149455143Y-120768762D02*
X149312286Y-120816381D01*
X149074190Y-120816381D01*
X148978952Y-120768762D01*
X148931333Y-120721143D01*
X148883714Y-120625905D01*
X148883714Y-120530667D01*
X148931333Y-120435429D01*
X148978952Y-120387810D01*
X149074190Y-120340190D01*
X149264667Y-120292571D01*
X149359905Y-120244952D01*
X149407524Y-120197333D01*
X149455143Y-120102095D01*
X149455143Y-120006857D01*
X149407524Y-119911619D01*
X149359905Y-119864000D01*
X149264667Y-119816381D01*
X149026571Y-119816381D01*
X148883714Y-119864000D01*
X148550381Y-119816381D02*
X148312286Y-120816381D01*
X148121809Y-120102095D01*
X147931333Y-120816381D01*
X147693238Y-119816381D01*
X150209142Y-125435571D02*
X150066285Y-125483190D01*
X150018666Y-125530810D01*
X149971047Y-125626048D01*
X149971047Y-125768905D01*
X150018666Y-125864143D01*
X150066285Y-125911762D01*
X150161523Y-125959381D01*
X150542476Y-125959381D01*
X150542476Y-124959381D01*
X150209142Y-124959381D01*
X150113904Y-125007000D01*
X150066285Y-125054619D01*
X150018666Y-125149857D01*
X150018666Y-125245095D01*
X150066285Y-125340333D01*
X150113904Y-125387952D01*
X150209142Y-125435571D01*
X150542476Y-125435571D01*
X149590095Y-125673667D02*
X149113904Y-125673667D01*
X149685333Y-125959381D02*
X149352000Y-124959381D01*
X149018666Y-125959381D01*
X148828190Y-124959381D02*
X148256761Y-124959381D01*
X148542476Y-125959381D02*
X148542476Y-124959381D01*
X147923428Y-125578429D02*
X147161523Y-125578429D01*
X154527142Y-125435571D02*
X154384285Y-125483190D01*
X154336666Y-125530810D01*
X154289047Y-125626048D01*
X154289047Y-125768905D01*
X154336666Y-125864143D01*
X154384285Y-125911762D01*
X154479523Y-125959381D01*
X154860476Y-125959381D01*
X154860476Y-124959381D01*
X154527142Y-124959381D01*
X154431904Y-125007000D01*
X154384285Y-125054619D01*
X154336666Y-125149857D01*
X154336666Y-125245095D01*
X154384285Y-125340333D01*
X154431904Y-125387952D01*
X154527142Y-125435571D01*
X154860476Y-125435571D01*
X153908095Y-125673667D02*
X153431904Y-125673667D01*
X154003333Y-125959381D02*
X153670000Y-124959381D01*
X153336666Y-125959381D01*
X153146190Y-124959381D02*
X152574761Y-124959381D01*
X152860476Y-125959381D02*
X152860476Y-124959381D01*
X152241428Y-125578429D02*
X151479523Y-125578429D01*
X151860475Y-125959381D02*
X151860475Y-125197476D01*
X135150762Y-115578667D02*
X134674571Y-115578667D01*
X135246000Y-115864381D02*
X134912667Y-114864381D01*
X134579333Y-115864381D01*
X133674571Y-115769143D02*
X133722190Y-115816762D01*
X133865047Y-115864381D01*
X133960285Y-115864381D01*
X134103143Y-115816762D01*
X134198381Y-115721524D01*
X134246000Y-115626286D01*
X134293619Y-115435810D01*
X134293619Y-115292952D01*
X134246000Y-115102476D01*
X134198381Y-115007238D01*
X134103143Y-114912000D01*
X133960285Y-114864381D01*
X133865047Y-114864381D01*
X133722190Y-114912000D01*
X133674571Y-114959619D01*
X133388857Y-114864381D02*
X132817428Y-114864381D01*
X133103143Y-115864381D02*
X133103143Y-114864381D01*
X132484095Y-115864381D02*
X132484095Y-114864381D01*
X132150762Y-114864381D02*
X131817429Y-115864381D01*
X131484095Y-114864381D01*
X131150762Y-115340571D02*
X130817428Y-115340571D01*
X130674571Y-115864381D02*
X131150762Y-115864381D01*
X131150762Y-114864381D01*
X130674571Y-114864381D01*
X128912666Y-115864381D02*
X129246000Y-115388190D01*
X129484095Y-115864381D02*
X129484095Y-114864381D01*
X129103142Y-114864381D01*
X129007904Y-114912000D01*
X128960285Y-114959619D01*
X128912666Y-115054857D01*
X128912666Y-115197714D01*
X128960285Y-115292952D01*
X129007904Y-115340571D01*
X129103142Y-115388190D01*
X129484095Y-115388190D01*
X128150761Y-115340571D02*
X128484095Y-115340571D01*
X128484095Y-115864381D02*
X128484095Y-114864381D01*
X128007904Y-114864381D01*
X126865047Y-115864381D02*
X126865047Y-114864381D01*
X126626952Y-114864381D01*
X126484094Y-114912000D01*
X126388856Y-115007238D01*
X126341237Y-115102476D01*
X126293618Y-115292952D01*
X126293618Y-115435810D01*
X126341237Y-115626286D01*
X126388856Y-115721524D01*
X126484094Y-115816762D01*
X126626952Y-115864381D01*
X126865047Y-115864381D01*
X125865047Y-115864381D02*
X125865047Y-114864381D01*
X125055523Y-115340571D02*
X125388857Y-115340571D01*
X125388857Y-115864381D02*
X125388857Y-114864381D01*
X124912666Y-114864381D01*
X124198380Y-115340571D02*
X124531714Y-115340571D01*
X124531714Y-115864381D02*
X124531714Y-114864381D01*
X124055523Y-114864381D01*
X123674571Y-115340571D02*
X123341237Y-115340571D01*
X123198380Y-115864381D02*
X123674571Y-115864381D01*
X123674571Y-114864381D01*
X123198380Y-114864381D01*
X122198380Y-115864381D02*
X122531714Y-115388190D01*
X122769809Y-115864381D02*
X122769809Y-114864381D01*
X122388856Y-114864381D01*
X122293618Y-114912000D01*
X122245999Y-114959619D01*
X122198380Y-115054857D01*
X122198380Y-115197714D01*
X122245999Y-115292952D01*
X122293618Y-115340571D01*
X122388856Y-115388190D01*
X122769809Y-115388190D01*
X121769809Y-115340571D02*
X121436475Y-115340571D01*
X121293618Y-115864381D02*
X121769809Y-115864381D01*
X121769809Y-114864381D01*
X121293618Y-114864381D01*
X120865047Y-115864381D02*
X120865047Y-114864381D01*
X120293618Y-115864381D01*
X120293618Y-114864381D01*
X119960285Y-114864381D02*
X119388856Y-114864381D01*
X119674571Y-115864381D02*
X119674571Y-114864381D01*
X119055523Y-115864381D02*
X119055523Y-114864381D01*
X118626952Y-115578667D02*
X118150761Y-115578667D01*
X118722190Y-115864381D02*
X118388857Y-114864381D01*
X118055523Y-115864381D01*
X117245999Y-115864381D02*
X117722190Y-115864381D01*
X117722190Y-114864381D01*
X133531715Y-117514381D02*
X133531715Y-116514381D01*
X133150762Y-116514381D01*
X133055524Y-116562000D01*
X133007905Y-116609619D01*
X132960286Y-116704857D01*
X132960286Y-116847714D01*
X133007905Y-116942952D01*
X133055524Y-116990571D01*
X133150762Y-117038190D01*
X133531715Y-117038190D01*
X131960286Y-117514381D02*
X132293620Y-117038190D01*
X132531715Y-117514381D02*
X132531715Y-116514381D01*
X132150762Y-116514381D01*
X132055524Y-116562000D01*
X132007905Y-116609619D01*
X131960286Y-116704857D01*
X131960286Y-116847714D01*
X132007905Y-116942952D01*
X132055524Y-116990571D01*
X132150762Y-117038190D01*
X132531715Y-117038190D01*
X131341239Y-116514381D02*
X131150762Y-116514381D01*
X131055524Y-116562000D01*
X130960286Y-116657238D01*
X130912667Y-116847714D01*
X130912667Y-117181048D01*
X130960286Y-117371524D01*
X131055524Y-117466762D01*
X131150762Y-117514381D01*
X131341239Y-117514381D01*
X131436477Y-117466762D01*
X131531715Y-117371524D01*
X131579334Y-117181048D01*
X131579334Y-116847714D01*
X131531715Y-116657238D01*
X131436477Y-116562000D01*
X131341239Y-116514381D01*
X130150762Y-116990571D02*
X130007905Y-117038190D01*
X129960286Y-117085810D01*
X129912667Y-117181048D01*
X129912667Y-117323905D01*
X129960286Y-117419143D01*
X130007905Y-117466762D01*
X130103143Y-117514381D01*
X130484096Y-117514381D01*
X130484096Y-116514381D01*
X130150762Y-116514381D01*
X130055524Y-116562000D01*
X130007905Y-116609619D01*
X129960286Y-116704857D01*
X129960286Y-116800095D01*
X130007905Y-116895333D01*
X130055524Y-116942952D01*
X130150762Y-116990571D01*
X130484096Y-116990571D01*
X129484096Y-116990571D02*
X129150762Y-116990571D01*
X129007905Y-117514381D02*
X129484096Y-117514381D01*
X129484096Y-116514381D01*
X129007905Y-116514381D01*
X127484095Y-116990571D02*
X127341238Y-117038190D01*
X127293619Y-117085810D01*
X127246000Y-117181048D01*
X127246000Y-117323905D01*
X127293619Y-117419143D01*
X127341238Y-117466762D01*
X127436476Y-117514381D01*
X127817429Y-117514381D01*
X127817429Y-116514381D01*
X127484095Y-116514381D01*
X127388857Y-116562000D01*
X127341238Y-116609619D01*
X127293619Y-116704857D01*
X127293619Y-116800095D01*
X127341238Y-116895333D01*
X127388857Y-116942952D01*
X127484095Y-116990571D01*
X127817429Y-116990571D01*
X126626953Y-117038190D02*
X126626953Y-117514381D01*
X126960286Y-116514381D02*
X126626953Y-117038190D01*
X126293619Y-116514381D01*
X125198381Y-117514381D02*
X125198381Y-116514381D01*
X124960286Y-116514381D01*
X124817428Y-116562000D01*
X124722190Y-116657238D01*
X124674571Y-116752476D01*
X124626952Y-116942952D01*
X124626952Y-117085810D01*
X124674571Y-117276286D01*
X124722190Y-117371524D01*
X124817428Y-117466762D01*
X124960286Y-117514381D01*
X125198381Y-117514381D01*
X123436476Y-117514381D02*
X123436476Y-116514381D01*
X123103142Y-117228667D01*
X122769809Y-116514381D01*
X122769809Y-117514381D01*
X122341238Y-117228667D02*
X121865047Y-117228667D01*
X122436476Y-117514381D02*
X122103143Y-116514381D01*
X121769809Y-117514381D01*
X120865047Y-117514381D02*
X121198381Y-117038190D01*
X121436476Y-117514381D02*
X121436476Y-116514381D01*
X121055523Y-116514381D01*
X120960285Y-116562000D01*
X120912666Y-116609619D01*
X120865047Y-116704857D01*
X120865047Y-116847714D01*
X120912666Y-116942952D01*
X120960285Y-116990571D01*
X121055523Y-117038190D01*
X121436476Y-117038190D01*
X120436476Y-117514381D02*
X120436476Y-116514381D01*
X119865047Y-117514381D02*
X120293619Y-116942952D01*
X119865047Y-116514381D02*
X120436476Y-117085810D01*
X119484095Y-117466762D02*
X119341238Y-117514381D01*
X119103142Y-117514381D01*
X119007904Y-117466762D01*
X118960285Y-117419143D01*
X118912666Y-117323905D01*
X118912666Y-117228667D01*
X118960285Y-117133429D01*
X119007904Y-117085810D01*
X119103142Y-117038190D01*
X119293619Y-116990571D01*
X119388857Y-116942952D01*
X119436476Y-116895333D01*
X119484095Y-116800095D01*
X119484095Y-116704857D01*
X119436476Y-116609619D01*
X119388857Y-116562000D01*
X119293619Y-116514381D01*
X119055523Y-116514381D01*
X118912666Y-116562000D01*
X134198381Y-119164381D02*
X134198381Y-118164381D01*
X133626952Y-119164381D02*
X134055524Y-118592952D01*
X133626952Y-118164381D02*
X134198381Y-118735810D01*
X133293619Y-118164381D02*
X133055524Y-119164381D01*
X132865047Y-118450095D01*
X132674571Y-119164381D01*
X132436476Y-118164381D01*
X131626952Y-118497714D02*
X131626952Y-119164381D01*
X131865048Y-118116762D02*
X132103143Y-118831048D01*
X131484095Y-118831048D01*
X131246000Y-118164381D02*
X130674571Y-118164381D01*
X130960286Y-119164381D02*
X130960286Y-118164381D01*
X130341238Y-119164381D02*
X130341238Y-118164381D01*
X128531714Y-119069143D02*
X128579333Y-119116762D01*
X128722190Y-119164381D01*
X128817428Y-119164381D01*
X128960286Y-119116762D01*
X129055524Y-119021524D01*
X129103143Y-118926286D01*
X129150762Y-118735810D01*
X129150762Y-118592952D01*
X129103143Y-118402476D01*
X129055524Y-118307238D01*
X128960286Y-118212000D01*
X128817428Y-118164381D01*
X128722190Y-118164381D01*
X128579333Y-118212000D01*
X128531714Y-118259619D01*
X127531714Y-119069143D02*
X127579333Y-119116762D01*
X127722190Y-119164381D01*
X127817428Y-119164381D01*
X127960286Y-119116762D01*
X128055524Y-119021524D01*
X128103143Y-118926286D01*
X128150762Y-118735810D01*
X128150762Y-118592952D01*
X128103143Y-118402476D01*
X128055524Y-118307238D01*
X127960286Y-118212000D01*
X127817428Y-118164381D01*
X127722190Y-118164381D01*
X127579333Y-118212000D01*
X127531714Y-118259619D01*
X127103143Y-118783429D02*
X126341238Y-118783429D01*
X125531714Y-118640571D02*
X125388857Y-118688190D01*
X125341238Y-118735810D01*
X125293619Y-118831048D01*
X125293619Y-118973905D01*
X125341238Y-119069143D01*
X125388857Y-119116762D01*
X125484095Y-119164381D01*
X125865048Y-119164381D01*
X125865048Y-118164381D01*
X125531714Y-118164381D01*
X125436476Y-118212000D01*
X125388857Y-118259619D01*
X125341238Y-118354857D01*
X125341238Y-118450095D01*
X125388857Y-118545333D01*
X125436476Y-118592952D01*
X125531714Y-118640571D01*
X125865048Y-118640571D01*
X124674572Y-118688190D02*
X124674572Y-119164381D01*
X125007905Y-118164381D02*
X124674572Y-118688190D01*
X124341238Y-118164381D01*
X124007905Y-118783429D02*
X123246000Y-118783429D01*
X122817429Y-119116762D02*
X122674572Y-119164381D01*
X122436476Y-119164381D01*
X122341238Y-119116762D01*
X122293619Y-119069143D01*
X122246000Y-118973905D01*
X122246000Y-118878667D01*
X122293619Y-118783429D01*
X122341238Y-118735810D01*
X122436476Y-118688190D01*
X122626953Y-118640571D01*
X122722191Y-118592952D01*
X122769810Y-118545333D01*
X122817429Y-118450095D01*
X122817429Y-118354857D01*
X122769810Y-118259619D01*
X122722191Y-118212000D01*
X122626953Y-118164381D01*
X122388857Y-118164381D01*
X122246000Y-118212000D01*
X121865048Y-118878667D02*
X121388857Y-118878667D01*
X121960286Y-119164381D02*
X121626953Y-118164381D01*
X121293619Y-119164381D01*
X119769809Y-118497714D02*
X119769809Y-119164381D01*
X120007905Y-118116762D02*
X120246000Y-118831048D01*
X119626952Y-118831048D01*
X119246000Y-119069143D02*
X119198381Y-119116762D01*
X119246000Y-119164381D01*
X119293619Y-119116762D01*
X119246000Y-119069143D01*
X119246000Y-119164381D01*
X118579334Y-118164381D02*
X118484095Y-118164381D01*
X118388857Y-118212000D01*
X118341238Y-118259619D01*
X118293619Y-118354857D01*
X118246000Y-118545333D01*
X118246000Y-118783429D01*
X118293619Y-118973905D01*
X118341238Y-119069143D01*
X118388857Y-119116762D01*
X118484095Y-119164381D01*
X118579334Y-119164381D01*
X118674572Y-119116762D01*
X118722191Y-119069143D01*
X118769810Y-118973905D01*
X118817429Y-118783429D01*
X118817429Y-118545333D01*
X118769810Y-118354857D01*
X118722191Y-118259619D01*
X118674572Y-118212000D01*
X118579334Y-118164381D01*
X136960762Y-39378667D02*
X136484571Y-39378667D01*
X137056000Y-39664381D02*
X136722667Y-38664381D01*
X136389333Y-39664381D01*
X135484571Y-39569143D02*
X135532190Y-39616762D01*
X135675047Y-39664381D01*
X135770285Y-39664381D01*
X135913143Y-39616762D01*
X136008381Y-39521524D01*
X136056000Y-39426286D01*
X136103619Y-39235810D01*
X136103619Y-39092952D01*
X136056000Y-38902476D01*
X136008381Y-38807238D01*
X135913143Y-38712000D01*
X135770285Y-38664381D01*
X135675047Y-38664381D01*
X135532190Y-38712000D01*
X135484571Y-38759619D01*
X135198857Y-38664381D02*
X134627428Y-38664381D01*
X134913143Y-39664381D02*
X134913143Y-38664381D01*
X134294095Y-39664381D02*
X134294095Y-38664381D01*
X133960762Y-38664381D02*
X133627429Y-39664381D01*
X133294095Y-38664381D01*
X132960762Y-39140571D02*
X132627428Y-39140571D01*
X132484571Y-39664381D02*
X132960762Y-39664381D01*
X132960762Y-38664381D01*
X132484571Y-38664381D01*
X130722666Y-39664381D02*
X131056000Y-39188190D01*
X131294095Y-39664381D02*
X131294095Y-38664381D01*
X130913142Y-38664381D01*
X130817904Y-38712000D01*
X130770285Y-38759619D01*
X130722666Y-38854857D01*
X130722666Y-38997714D01*
X130770285Y-39092952D01*
X130817904Y-39140571D01*
X130913142Y-39188190D01*
X131294095Y-39188190D01*
X129960761Y-39140571D02*
X130294095Y-39140571D01*
X130294095Y-39664381D02*
X130294095Y-38664381D01*
X129817904Y-38664381D01*
X128675047Y-39664381D02*
X128675047Y-38664381D01*
X128294094Y-38664381D01*
X128198856Y-38712000D01*
X128151237Y-38759619D01*
X128103618Y-38854857D01*
X128103618Y-38997714D01*
X128151237Y-39092952D01*
X128198856Y-39140571D01*
X128294094Y-39188190D01*
X128675047Y-39188190D01*
X127103618Y-39664381D02*
X127436952Y-39188190D01*
X127675047Y-39664381D02*
X127675047Y-38664381D01*
X127294094Y-38664381D01*
X127198856Y-38712000D01*
X127151237Y-38759619D01*
X127103618Y-38854857D01*
X127103618Y-38997714D01*
X127151237Y-39092952D01*
X127198856Y-39140571D01*
X127294094Y-39188190D01*
X127675047Y-39188190D01*
X126484571Y-38664381D02*
X126294094Y-38664381D01*
X126198856Y-38712000D01*
X126103618Y-38807238D01*
X126055999Y-38997714D01*
X126055999Y-39331048D01*
X126103618Y-39521524D01*
X126198856Y-39616762D01*
X126294094Y-39664381D01*
X126484571Y-39664381D01*
X126579809Y-39616762D01*
X126675047Y-39521524D01*
X126722666Y-39331048D01*
X126722666Y-38997714D01*
X126675047Y-38807238D01*
X126579809Y-38712000D01*
X126484571Y-38664381D01*
X125294094Y-39140571D02*
X125151237Y-39188190D01*
X125103618Y-39235810D01*
X125055999Y-39331048D01*
X125055999Y-39473905D01*
X125103618Y-39569143D01*
X125151237Y-39616762D01*
X125246475Y-39664381D01*
X125627428Y-39664381D01*
X125627428Y-38664381D01*
X125294094Y-38664381D01*
X125198856Y-38712000D01*
X125151237Y-38759619D01*
X125103618Y-38854857D01*
X125103618Y-38950095D01*
X125151237Y-39045333D01*
X125198856Y-39092952D01*
X125294094Y-39140571D01*
X125627428Y-39140571D01*
X124627428Y-39140571D02*
X124294094Y-39140571D01*
X124151237Y-39664381D02*
X124627428Y-39664381D01*
X124627428Y-38664381D01*
X124151237Y-38664381D01*
X137198857Y-40790571D02*
X137056000Y-40838190D01*
X137008381Y-40885810D01*
X136960762Y-40981048D01*
X136960762Y-41123905D01*
X137008381Y-41219143D01*
X137056000Y-41266762D01*
X137151238Y-41314381D01*
X137532191Y-41314381D01*
X137532191Y-40314381D01*
X137198857Y-40314381D01*
X137103619Y-40362000D01*
X137056000Y-40409619D01*
X137008381Y-40504857D01*
X137008381Y-40600095D01*
X137056000Y-40695333D01*
X137103619Y-40742952D01*
X137198857Y-40790571D01*
X137532191Y-40790571D01*
X136341715Y-40838190D02*
X136341715Y-41314381D01*
X136675048Y-40314381D02*
X136341715Y-40838190D01*
X136008381Y-40314381D01*
X134913143Y-41314381D02*
X134913143Y-40314381D01*
X134675048Y-40314381D01*
X134532190Y-40362000D01*
X134436952Y-40457238D01*
X134389333Y-40552476D01*
X134341714Y-40742952D01*
X134341714Y-40885810D01*
X134389333Y-41076286D01*
X134436952Y-41171524D01*
X134532190Y-41266762D01*
X134675048Y-41314381D01*
X134913143Y-41314381D01*
X133151238Y-41314381D02*
X133151238Y-40314381D01*
X132817904Y-41028667D01*
X132484571Y-40314381D01*
X132484571Y-41314381D01*
X132056000Y-41028667D02*
X131579809Y-41028667D01*
X132151238Y-41314381D02*
X131817905Y-40314381D01*
X131484571Y-41314381D01*
X130579809Y-41314381D02*
X130913143Y-40838190D01*
X131151238Y-41314381D02*
X131151238Y-40314381D01*
X130770285Y-40314381D01*
X130675047Y-40362000D01*
X130627428Y-40409619D01*
X130579809Y-40504857D01*
X130579809Y-40647714D01*
X130627428Y-40742952D01*
X130675047Y-40790571D01*
X130770285Y-40838190D01*
X131151238Y-40838190D01*
X130151238Y-41314381D02*
X130151238Y-40314381D01*
X129579809Y-41314381D02*
X130008381Y-40742952D01*
X129579809Y-40314381D02*
X130151238Y-40885810D01*
X129198857Y-41266762D02*
X129056000Y-41314381D01*
X128817904Y-41314381D01*
X128722666Y-41266762D01*
X128675047Y-41219143D01*
X128627428Y-41123905D01*
X128627428Y-41028667D01*
X128675047Y-40933429D01*
X128722666Y-40885810D01*
X128817904Y-40838190D01*
X129008381Y-40790571D01*
X129103619Y-40742952D01*
X129151238Y-40695333D01*
X129198857Y-40600095D01*
X129198857Y-40504857D01*
X129151238Y-40409619D01*
X129103619Y-40362000D01*
X129008381Y-40314381D01*
X128770285Y-40314381D01*
X128627428Y-40362000D01*
X127436952Y-41314381D02*
X127436952Y-40314381D01*
X126865523Y-41314381D02*
X127294095Y-40742952D01*
X126865523Y-40314381D02*
X127436952Y-40885810D01*
X126532190Y-40314381D02*
X126294095Y-41314381D01*
X126103618Y-40600095D01*
X125913142Y-41314381D01*
X125675047Y-40314381D01*
X124865523Y-40647714D02*
X124865523Y-41314381D01*
X125103619Y-40266762D02*
X125341714Y-40981048D01*
X124722666Y-40981048D01*
X124484571Y-40314381D02*
X123913142Y-40314381D01*
X124198857Y-41314381D02*
X124198857Y-40314381D01*
X123579809Y-41314381D02*
X123579809Y-40314381D01*
X135389333Y-42869143D02*
X135436952Y-42916762D01*
X135579809Y-42964381D01*
X135675047Y-42964381D01*
X135817905Y-42916762D01*
X135913143Y-42821524D01*
X135960762Y-42726286D01*
X136008381Y-42535810D01*
X136008381Y-42392952D01*
X135960762Y-42202476D01*
X135913143Y-42107238D01*
X135817905Y-42012000D01*
X135675047Y-41964381D01*
X135579809Y-41964381D01*
X135436952Y-42012000D01*
X135389333Y-42059619D01*
X134389333Y-42869143D02*
X134436952Y-42916762D01*
X134579809Y-42964381D01*
X134675047Y-42964381D01*
X134817905Y-42916762D01*
X134913143Y-42821524D01*
X134960762Y-42726286D01*
X135008381Y-42535810D01*
X135008381Y-42392952D01*
X134960762Y-42202476D01*
X134913143Y-42107238D01*
X134817905Y-42012000D01*
X134675047Y-41964381D01*
X134579809Y-41964381D01*
X134436952Y-42012000D01*
X134389333Y-42059619D01*
X133960762Y-42583429D02*
X133198857Y-42583429D01*
X132389333Y-42440571D02*
X132246476Y-42488190D01*
X132198857Y-42535810D01*
X132151238Y-42631048D01*
X132151238Y-42773905D01*
X132198857Y-42869143D01*
X132246476Y-42916762D01*
X132341714Y-42964381D01*
X132722667Y-42964381D01*
X132722667Y-41964381D01*
X132389333Y-41964381D01*
X132294095Y-42012000D01*
X132246476Y-42059619D01*
X132198857Y-42154857D01*
X132198857Y-42250095D01*
X132246476Y-42345333D01*
X132294095Y-42392952D01*
X132389333Y-42440571D01*
X132722667Y-42440571D01*
X131532191Y-42488190D02*
X131532191Y-42964381D01*
X131865524Y-41964381D02*
X131532191Y-42488190D01*
X131198857Y-41964381D01*
X130865524Y-42583429D02*
X130103619Y-42583429D01*
X129675048Y-42916762D02*
X129532191Y-42964381D01*
X129294095Y-42964381D01*
X129198857Y-42916762D01*
X129151238Y-42869143D01*
X129103619Y-42773905D01*
X129103619Y-42678667D01*
X129151238Y-42583429D01*
X129198857Y-42535810D01*
X129294095Y-42488190D01*
X129484572Y-42440571D01*
X129579810Y-42392952D01*
X129627429Y-42345333D01*
X129675048Y-42250095D01*
X129675048Y-42154857D01*
X129627429Y-42059619D01*
X129579810Y-42012000D01*
X129484572Y-41964381D01*
X129246476Y-41964381D01*
X129103619Y-42012000D01*
X128722667Y-42678667D02*
X128246476Y-42678667D01*
X128817905Y-42964381D02*
X128484572Y-41964381D01*
X128151238Y-42964381D01*
X126627428Y-42297714D02*
X126627428Y-42964381D01*
X126865524Y-41916762D02*
X127103619Y-42631048D01*
X126484571Y-42631048D01*
X126103619Y-42869143D02*
X126056000Y-42916762D01*
X126103619Y-42964381D01*
X126151238Y-42916762D01*
X126103619Y-42869143D01*
X126103619Y-42964381D01*
X125436953Y-41964381D02*
X125341714Y-41964381D01*
X125246476Y-42012000D01*
X125198857Y-42059619D01*
X125151238Y-42154857D01*
X125103619Y-42345333D01*
X125103619Y-42583429D01*
X125151238Y-42773905D01*
X125198857Y-42869143D01*
X125246476Y-42916762D01*
X125341714Y-42964381D01*
X125436953Y-42964381D01*
X125532191Y-42916762D01*
X125579810Y-42869143D01*
X125627429Y-42773905D01*
X125675048Y-42583429D01*
X125675048Y-42345333D01*
X125627429Y-42154857D01*
X125579810Y-42059619D01*
X125532191Y-42012000D01*
X125436953Y-41964381D01*
X109519047Y-41552381D02*
X109852381Y-41076190D01*
X110090476Y-41552381D02*
X110090476Y-40552381D01*
X109709523Y-40552381D01*
X109614285Y-40600000D01*
X109566666Y-40647619D01*
X109519047Y-40742857D01*
X109519047Y-40885714D01*
X109566666Y-40980952D01*
X109614285Y-41028571D01*
X109709523Y-41076190D01*
X110090476Y-41076190D01*
X108757142Y-41028571D02*
X109090476Y-41028571D01*
X109090476Y-41552381D02*
X109090476Y-40552381D01*
X108614285Y-40552381D01*
X109561904Y-33400000D02*
X109657142Y-33352381D01*
X109799999Y-33352381D01*
X109942857Y-33400000D01*
X110038095Y-33495238D01*
X110085714Y-33590476D01*
X110133333Y-33780952D01*
X110133333Y-33923810D01*
X110085714Y-34114286D01*
X110038095Y-34209524D01*
X109942857Y-34304762D01*
X109799999Y-34352381D01*
X109704761Y-34352381D01*
X109561904Y-34304762D01*
X109514285Y-34257143D01*
X109514285Y-33923810D01*
X109704761Y-33923810D01*
X109085714Y-34352381D02*
X109085714Y-33352381D01*
X108514285Y-34352381D01*
X108514285Y-33352381D01*
X108038095Y-34352381D02*
X108038095Y-33352381D01*
X107800000Y-33352381D01*
X107657142Y-33400000D01*
X107561904Y-33495238D01*
X107514285Y-33590476D01*
X107466666Y-33780952D01*
X107466666Y-33923810D01*
X107514285Y-34114286D01*
X107561904Y-34209524D01*
X107657142Y-34304762D01*
X107800000Y-34352381D01*
X108038095Y-34352381D01*
X109261904Y-128800000D02*
X109357142Y-128752381D01*
X109499999Y-128752381D01*
X109642857Y-128800000D01*
X109738095Y-128895238D01*
X109785714Y-128990476D01*
X109833333Y-129180952D01*
X109833333Y-129323810D01*
X109785714Y-129514286D01*
X109738095Y-129609524D01*
X109642857Y-129704762D01*
X109499999Y-129752381D01*
X109404761Y-129752381D01*
X109261904Y-129704762D01*
X109214285Y-129657143D01*
X109214285Y-129323810D01*
X109404761Y-129323810D01*
X108785714Y-129752381D02*
X108785714Y-128752381D01*
X108214285Y-129752381D01*
X108214285Y-128752381D01*
X107738095Y-129752381D02*
X107738095Y-128752381D01*
X107500000Y-128752381D01*
X107357142Y-128800000D01*
X107261904Y-128895238D01*
X107214285Y-128990476D01*
X107166666Y-129180952D01*
X107166666Y-129323810D01*
X107214285Y-129514286D01*
X107261904Y-129609524D01*
X107357142Y-129704762D01*
X107500000Y-129752381D01*
X107738095Y-129752381D01*
X109161904Y-118200000D02*
X109257142Y-118152381D01*
X109399999Y-118152381D01*
X109542857Y-118200000D01*
X109638095Y-118295238D01*
X109685714Y-118390476D01*
X109733333Y-118580952D01*
X109733333Y-118723810D01*
X109685714Y-118914286D01*
X109638095Y-119009524D01*
X109542857Y-119104762D01*
X109399999Y-119152381D01*
X109304761Y-119152381D01*
X109161904Y-119104762D01*
X109114285Y-119057143D01*
X109114285Y-118723810D01*
X109304761Y-118723810D01*
X108685714Y-119152381D02*
X108685714Y-118152381D01*
X108114285Y-119152381D01*
X108114285Y-118152381D01*
X107638095Y-119152381D02*
X107638095Y-118152381D01*
X107400000Y-118152381D01*
X107257142Y-118200000D01*
X107161904Y-118295238D01*
X107114285Y-118390476D01*
X107066666Y-118580952D01*
X107066666Y-118723810D01*
X107114285Y-118914286D01*
X107161904Y-119009524D01*
X107257142Y-119104762D01*
X107400000Y-119152381D01*
X107638095Y-119152381D01*
X108619047Y-124752381D02*
X108952381Y-124276190D01*
X109190476Y-124752381D02*
X109190476Y-123752381D01*
X108809523Y-123752381D01*
X108714285Y-123800000D01*
X108666666Y-123847619D01*
X108619047Y-123942857D01*
X108619047Y-124085714D01*
X108666666Y-124180952D01*
X108714285Y-124228571D01*
X108809523Y-124276190D01*
X109190476Y-124276190D01*
X107857142Y-124228571D02*
X108190476Y-124228571D01*
X108190476Y-124752381D02*
X108190476Y-123752381D01*
X107714285Y-123752381D01*
X108519047Y-114052381D02*
X108852381Y-113576190D01*
X109090476Y-114052381D02*
X109090476Y-113052381D01*
X108709523Y-113052381D01*
X108614285Y-113100000D01*
X108566666Y-113147619D01*
X108519047Y-113242857D01*
X108519047Y-113385714D01*
X108566666Y-113480952D01*
X108614285Y-113528571D01*
X108709523Y-113576190D01*
X109090476Y-113576190D01*
X107757142Y-113528571D02*
X108090476Y-113528571D01*
X108090476Y-114052381D02*
X108090476Y-113052381D01*
X107614285Y-113052381D01*
X143016667Y-110452381D02*
X143016667Y-110928572D01*
X143302381Y-110357143D02*
X142302381Y-110690476D01*
X143302381Y-111023810D01*
X143207143Y-111928572D02*
X143254762Y-111880953D01*
X143302381Y-111738096D01*
X143302381Y-111642858D01*
X143254762Y-111500000D01*
X143159524Y-111404762D01*
X143064286Y-111357143D01*
X142873810Y-111309524D01*
X142730952Y-111309524D01*
X142540476Y-111357143D01*
X142445238Y-111404762D01*
X142350000Y-111500000D01*
X142302381Y-111642858D01*
X142302381Y-111738096D01*
X142350000Y-111880953D01*
X142397619Y-111928572D01*
X142302381Y-112214286D02*
X142302381Y-112785715D01*
X143302381Y-112500000D02*
X142302381Y-112500000D01*
X143302381Y-113119048D02*
X142302381Y-113119048D01*
X142302381Y-113452381D02*
X143302381Y-113785714D01*
X142302381Y-114119048D01*
X142778571Y-114452381D02*
X142778571Y-114785715D01*
X143302381Y-114928572D02*
X143302381Y-114452381D01*
X142302381Y-114452381D01*
X142302381Y-114928572D01*
X143302381Y-116690477D02*
X142826190Y-116357143D01*
X143302381Y-116119048D02*
X142302381Y-116119048D01*
X142302381Y-116500001D01*
X142350000Y-116595239D01*
X142397619Y-116642858D01*
X142492857Y-116690477D01*
X142635714Y-116690477D01*
X142730952Y-116642858D01*
X142778571Y-116595239D01*
X142826190Y-116500001D01*
X142826190Y-116119048D01*
X142778571Y-117452382D02*
X142778571Y-117119048D01*
X143302381Y-117119048D02*
X142302381Y-117119048D01*
X142302381Y-117595239D01*
X144952381Y-109261905D02*
X143952381Y-109261905D01*
X143952381Y-109500000D01*
X144000000Y-109642858D01*
X144095238Y-109738096D01*
X144190476Y-109785715D01*
X144380952Y-109833334D01*
X144523810Y-109833334D01*
X144714286Y-109785715D01*
X144809524Y-109738096D01*
X144904762Y-109642858D01*
X144952381Y-109500000D01*
X144952381Y-109261905D01*
X144952381Y-110261905D02*
X143952381Y-110261905D01*
X144428571Y-111071429D02*
X144428571Y-110738095D01*
X144952381Y-110738095D02*
X143952381Y-110738095D01*
X143952381Y-111214286D01*
X144428571Y-111928572D02*
X144428571Y-111595238D01*
X144952381Y-111595238D02*
X143952381Y-111595238D01*
X143952381Y-112071429D01*
X144428571Y-112452381D02*
X144428571Y-112785715D01*
X144952381Y-112928572D02*
X144952381Y-112452381D01*
X143952381Y-112452381D01*
X143952381Y-112928572D01*
X144952381Y-113928572D02*
X144476190Y-113595238D01*
X144952381Y-113357143D02*
X143952381Y-113357143D01*
X143952381Y-113738096D01*
X144000000Y-113833334D01*
X144047619Y-113880953D01*
X144142857Y-113928572D01*
X144285714Y-113928572D01*
X144380952Y-113880953D01*
X144428571Y-113833334D01*
X144476190Y-113738096D01*
X144476190Y-113357143D01*
X144428571Y-114357143D02*
X144428571Y-114690477D01*
X144952381Y-114833334D02*
X144952381Y-114357143D01*
X143952381Y-114357143D01*
X143952381Y-114833334D01*
X144952381Y-115261905D02*
X143952381Y-115261905D01*
X144952381Y-115833334D01*
X143952381Y-115833334D01*
X143952381Y-116166667D02*
X143952381Y-116738096D01*
X144952381Y-116452381D02*
X143952381Y-116452381D01*
X144952381Y-117071429D02*
X143952381Y-117071429D01*
X144666667Y-117500000D02*
X144666667Y-117976191D01*
X144952381Y-117404762D02*
X143952381Y-117738095D01*
X144952381Y-118071429D01*
X144952381Y-118880953D02*
X144952381Y-118404762D01*
X143952381Y-118404762D01*
X146602381Y-111761905D02*
X145602381Y-111761905D01*
X145602381Y-112142858D01*
X145650000Y-112238096D01*
X145697619Y-112285715D01*
X145792857Y-112333334D01*
X145935714Y-112333334D01*
X146030952Y-112285715D01*
X146078571Y-112238096D01*
X146126190Y-112142858D01*
X146126190Y-111761905D01*
X146602381Y-113333334D02*
X146126190Y-113000000D01*
X146602381Y-112761905D02*
X145602381Y-112761905D01*
X145602381Y-113142858D01*
X145650000Y-113238096D01*
X145697619Y-113285715D01*
X145792857Y-113333334D01*
X145935714Y-113333334D01*
X146030952Y-113285715D01*
X146078571Y-113238096D01*
X146126190Y-113142858D01*
X146126190Y-112761905D01*
X145602381Y-113952381D02*
X145602381Y-114142858D01*
X145650000Y-114238096D01*
X145745238Y-114333334D01*
X145935714Y-114380953D01*
X146269048Y-114380953D01*
X146459524Y-114333334D01*
X146554762Y-114238096D01*
X146602381Y-114142858D01*
X146602381Y-113952381D01*
X146554762Y-113857143D01*
X146459524Y-113761905D01*
X146269048Y-113714286D01*
X145935714Y-113714286D01*
X145745238Y-113761905D01*
X145650000Y-113857143D01*
X145602381Y-113952381D01*
X146078571Y-115142858D02*
X146126190Y-115285715D01*
X146173810Y-115333334D01*
X146269048Y-115380953D01*
X146411905Y-115380953D01*
X146507143Y-115333334D01*
X146554762Y-115285715D01*
X146602381Y-115190477D01*
X146602381Y-114809524D01*
X145602381Y-114809524D01*
X145602381Y-115142858D01*
X145650000Y-115238096D01*
X145697619Y-115285715D01*
X145792857Y-115333334D01*
X145888095Y-115333334D01*
X145983333Y-115285715D01*
X146030952Y-115238096D01*
X146078571Y-115142858D01*
X146078571Y-114809524D01*
X146078571Y-115809524D02*
X146078571Y-116142858D01*
X146602381Y-116285715D02*
X146602381Y-115809524D01*
X145602381Y-115809524D01*
X145602381Y-116285715D01*
X143703571Y-54300000D02*
X143703571Y-54633334D01*
X144227381Y-54776191D02*
X144227381Y-54300000D01*
X143227381Y-54300000D01*
X143227381Y-54776191D01*
X144227381Y-55204762D02*
X143227381Y-55204762D01*
X144227381Y-55776191D01*
X143227381Y-55776191D01*
X143227381Y-56109524D02*
X144227381Y-56442857D01*
X143227381Y-56776191D01*
X143703571Y-57109524D02*
X143703571Y-57442858D01*
X144227381Y-57585715D02*
X144227381Y-57109524D01*
X143227381Y-57109524D01*
X143227381Y-57585715D01*
X144227381Y-58490477D02*
X144227381Y-58014286D01*
X143227381Y-58014286D01*
X143227381Y-59014286D02*
X143227381Y-59204763D01*
X143275000Y-59300001D01*
X143370238Y-59395239D01*
X143560714Y-59442858D01*
X143894048Y-59442858D01*
X144084524Y-59395239D01*
X144179762Y-59300001D01*
X144227381Y-59204763D01*
X144227381Y-59014286D01*
X144179762Y-58919048D01*
X144084524Y-58823810D01*
X143894048Y-58776191D01*
X143560714Y-58776191D01*
X143370238Y-58823810D01*
X143275000Y-58919048D01*
X143227381Y-59014286D01*
X144227381Y-59871429D02*
X143227381Y-59871429D01*
X143227381Y-60252382D01*
X143275000Y-60347620D01*
X143322619Y-60395239D01*
X143417857Y-60442858D01*
X143560714Y-60442858D01*
X143655952Y-60395239D01*
X143703571Y-60347620D01*
X143751190Y-60252382D01*
X143751190Y-59871429D01*
X143703571Y-60871429D02*
X143703571Y-61204763D01*
X144227381Y-61347620D02*
X144227381Y-60871429D01*
X143227381Y-60871429D01*
X143227381Y-61347620D01*
X144877381Y-56800000D02*
X144877381Y-56990477D01*
X144925000Y-57085715D01*
X145020238Y-57180953D01*
X145210714Y-57228572D01*
X145544048Y-57228572D01*
X145734524Y-57180953D01*
X145829762Y-57085715D01*
X145877381Y-56990477D01*
X145877381Y-56800000D01*
X145829762Y-56704762D01*
X145734524Y-56609524D01*
X145544048Y-56561905D01*
X145210714Y-56561905D01*
X145020238Y-56609524D01*
X144925000Y-56704762D01*
X144877381Y-56800000D01*
X144877381Y-57657143D02*
X145686905Y-57657143D01*
X145782143Y-57704762D01*
X145829762Y-57752381D01*
X145877381Y-57847619D01*
X145877381Y-58038096D01*
X145829762Y-58133334D01*
X145782143Y-58180953D01*
X145686905Y-58228572D01*
X144877381Y-58228572D01*
X144877381Y-58561905D02*
X144877381Y-59133334D01*
X145877381Y-58847619D02*
X144877381Y-58847619D01*
X142716667Y-38452381D02*
X142716667Y-38928572D01*
X143002381Y-38357143D02*
X142002381Y-38690476D01*
X143002381Y-39023810D01*
X142907143Y-39928572D02*
X142954762Y-39880953D01*
X143002381Y-39738096D01*
X143002381Y-39642858D01*
X142954762Y-39500000D01*
X142859524Y-39404762D01*
X142764286Y-39357143D01*
X142573810Y-39309524D01*
X142430952Y-39309524D01*
X142240476Y-39357143D01*
X142145238Y-39404762D01*
X142050000Y-39500000D01*
X142002381Y-39642858D01*
X142002381Y-39738096D01*
X142050000Y-39880953D01*
X142097619Y-39928572D01*
X142002381Y-40214286D02*
X142002381Y-40785715D01*
X143002381Y-40500000D02*
X142002381Y-40500000D01*
X143002381Y-41119048D02*
X142002381Y-41119048D01*
X142002381Y-41452381D02*
X143002381Y-41785714D01*
X142002381Y-42119048D01*
X142478571Y-42452381D02*
X142478571Y-42785715D01*
X143002381Y-42928572D02*
X143002381Y-42452381D01*
X142002381Y-42452381D01*
X142002381Y-42928572D01*
X143002381Y-44690477D02*
X142526190Y-44357143D01*
X143002381Y-44119048D02*
X142002381Y-44119048D01*
X142002381Y-44500001D01*
X142050000Y-44595239D01*
X142097619Y-44642858D01*
X142192857Y-44690477D01*
X142335714Y-44690477D01*
X142430952Y-44642858D01*
X142478571Y-44595239D01*
X142526190Y-44500001D01*
X142526190Y-44119048D01*
X142478571Y-45452382D02*
X142478571Y-45119048D01*
X143002381Y-45119048D02*
X142002381Y-45119048D01*
X142002381Y-45595239D01*
X144652381Y-39761905D02*
X143652381Y-39761905D01*
X143652381Y-40142858D01*
X143700000Y-40238096D01*
X143747619Y-40285715D01*
X143842857Y-40333334D01*
X143985714Y-40333334D01*
X144080952Y-40285715D01*
X144128571Y-40238096D01*
X144176190Y-40142858D01*
X144176190Y-39761905D01*
X144652381Y-41333334D02*
X144176190Y-41000000D01*
X144652381Y-40761905D02*
X143652381Y-40761905D01*
X143652381Y-41142858D01*
X143700000Y-41238096D01*
X143747619Y-41285715D01*
X143842857Y-41333334D01*
X143985714Y-41333334D01*
X144080952Y-41285715D01*
X144128571Y-41238096D01*
X144176190Y-41142858D01*
X144176190Y-40761905D01*
X143652381Y-41952381D02*
X143652381Y-42142858D01*
X143700000Y-42238096D01*
X143795238Y-42333334D01*
X143985714Y-42380953D01*
X144319048Y-42380953D01*
X144509524Y-42333334D01*
X144604762Y-42238096D01*
X144652381Y-42142858D01*
X144652381Y-41952381D01*
X144604762Y-41857143D01*
X144509524Y-41761905D01*
X144319048Y-41714286D01*
X143985714Y-41714286D01*
X143795238Y-41761905D01*
X143700000Y-41857143D01*
X143652381Y-41952381D01*
X144128571Y-43142858D02*
X144176190Y-43285715D01*
X144223810Y-43333334D01*
X144319048Y-43380953D01*
X144461905Y-43380953D01*
X144557143Y-43333334D01*
X144604762Y-43285715D01*
X144652381Y-43190477D01*
X144652381Y-42809524D01*
X143652381Y-42809524D01*
X143652381Y-43142858D01*
X143700000Y-43238096D01*
X143747619Y-43285715D01*
X143842857Y-43333334D01*
X143938095Y-43333334D01*
X144033333Y-43285715D01*
X144080952Y-43238096D01*
X144128571Y-43142858D01*
X144128571Y-42809524D01*
X144128571Y-43809524D02*
X144128571Y-44142858D01*
X144652381Y-44285715D02*
X144652381Y-43809524D01*
X143652381Y-43809524D01*
X143652381Y-44285715D01*
X145302381Y-41000000D02*
X145302381Y-41190477D01*
X145350000Y-41285715D01*
X145445238Y-41380953D01*
X145635714Y-41428572D01*
X145969048Y-41428572D01*
X146159524Y-41380953D01*
X146254762Y-41285715D01*
X146302381Y-41190477D01*
X146302381Y-41000000D01*
X146254762Y-40904762D01*
X146159524Y-40809524D01*
X145969048Y-40761905D01*
X145635714Y-40761905D01*
X145445238Y-40809524D01*
X145350000Y-40904762D01*
X145302381Y-41000000D01*
X145302381Y-41857143D02*
X146111905Y-41857143D01*
X146207143Y-41904762D01*
X146254762Y-41952381D01*
X146302381Y-42047619D01*
X146302381Y-42238096D01*
X146254762Y-42333334D01*
X146207143Y-42380953D01*
X146111905Y-42428572D01*
X145302381Y-42428572D01*
X145302381Y-42761905D02*
X145302381Y-43333334D01*
X146302381Y-43047619D02*
X145302381Y-43047619D01*
X143257143Y-36604762D02*
X143114286Y-36652381D01*
X142876190Y-36652381D01*
X142780952Y-36604762D01*
X142733333Y-36557143D01*
X142685714Y-36461905D01*
X142685714Y-36366667D01*
X142733333Y-36271429D01*
X142780952Y-36223810D01*
X142876190Y-36176190D01*
X143066667Y-36128571D01*
X143161905Y-36080952D01*
X143209524Y-36033333D01*
X143257143Y-35938095D01*
X143257143Y-35842857D01*
X143209524Y-35747619D01*
X143161905Y-35700000D01*
X143066667Y-35652381D01*
X142828571Y-35652381D01*
X142685714Y-35700000D01*
X142352381Y-35652381D02*
X142114286Y-36652381D01*
X141923809Y-35938095D01*
X141733333Y-36652381D01*
X141495238Y-35652381D01*
X146857143Y-36404762D02*
X146714286Y-36452381D01*
X146476190Y-36452381D01*
X146380952Y-36404762D01*
X146333333Y-36357143D01*
X146285714Y-36261905D01*
X146285714Y-36166667D01*
X146333333Y-36071429D01*
X146380952Y-36023810D01*
X146476190Y-35976190D01*
X146666667Y-35928571D01*
X146761905Y-35880952D01*
X146809524Y-35833333D01*
X146857143Y-35738095D01*
X146857143Y-35642857D01*
X146809524Y-35547619D01*
X146761905Y-35500000D01*
X146666667Y-35452381D01*
X146428571Y-35452381D01*
X146285714Y-35500000D01*
X145952381Y-35452381D02*
X145714286Y-36452381D01*
X145523809Y-35738095D01*
X145333333Y-36452381D01*
X145095238Y-35452381D01*
X154757142Y-35928571D02*
X154614285Y-35976190D01*
X154566666Y-36023810D01*
X154519047Y-36119048D01*
X154519047Y-36261905D01*
X154566666Y-36357143D01*
X154614285Y-36404762D01*
X154709523Y-36452381D01*
X155090476Y-36452381D01*
X155090476Y-35452381D01*
X154757142Y-35452381D01*
X154661904Y-35500000D01*
X154614285Y-35547619D01*
X154566666Y-35642857D01*
X154566666Y-35738095D01*
X154614285Y-35833333D01*
X154661904Y-35880952D01*
X154757142Y-35928571D01*
X155090476Y-35928571D01*
X154138095Y-36166667D02*
X153661904Y-36166667D01*
X154233333Y-36452381D02*
X153900000Y-35452381D01*
X153566666Y-36452381D01*
X153376190Y-35452381D02*
X152804761Y-35452381D01*
X153090476Y-36452381D02*
X153090476Y-35452381D01*
X152471428Y-36071429D02*
X151709523Y-36071429D01*
X150557142Y-35928571D02*
X150414285Y-35976190D01*
X150366666Y-36023810D01*
X150319047Y-36119048D01*
X150319047Y-36261905D01*
X150366666Y-36357143D01*
X150414285Y-36404762D01*
X150509523Y-36452381D01*
X150890476Y-36452381D01*
X150890476Y-35452381D01*
X150557142Y-35452381D01*
X150461904Y-35500000D01*
X150414285Y-35547619D01*
X150366666Y-35642857D01*
X150366666Y-35738095D01*
X150414285Y-35833333D01*
X150461904Y-35880952D01*
X150557142Y-35928571D01*
X150890476Y-35928571D01*
X149938095Y-36166667D02*
X149461904Y-36166667D01*
X150033333Y-36452381D02*
X149700000Y-35452381D01*
X149366666Y-36452381D01*
X149176190Y-35452381D02*
X148604761Y-35452381D01*
X148890476Y-36452381D02*
X148890476Y-35452381D01*
X148271428Y-36071429D02*
X147509523Y-36071429D01*
X147890475Y-36452381D02*
X147890475Y-35690476D01*
M02*
