M48
;DRILL file {KiCad 4.0.7} date 07/12/20 19:06:18
;FORMAT={-:-/ absolute / metric / decimal}
FMAT,2
METRIC,TZ
T1C1.000
T2C2.000
T3C3.000
T4C4.500
%
G90
G05
M71
T1
X100.084Y-115.252G85X100.084Y-111.252
G05
X100.084Y-126.428G85X100.084Y-122.428
G05
X101.5Y-35.5G85X101.5Y-33.5
G05
X101.5Y-44.5G85X101.5Y-40.5
G05
X102.894Y-111.474G85X104.894Y-111.474
G05
X105.75Y-43.G85X108.25Y-43.
G05
X109.5Y-111.5G85X111.5Y-111.5
G05
X112.75Y-43.G85X115.25Y-43.
G05
T2
X107.982Y-116.046G85X110.982Y-116.046
G05
X108.236Y-126.714G85X111.236Y-126.714
G05
X128.7Y-50.45G85X131.7Y-50.45
G05
X128.775Y-34.375G85X131.775Y-34.375
G05
X135.625Y-50.45G85X138.625Y-50.45
G05
X135.675Y-34.375G85X138.675Y-34.375
G05
X136.75Y-103.75G85X139.75Y-103.75
G05
X136.85Y-130.125G85X139.85Y-130.125
G05
X144.175Y-103.75G85X147.175Y-103.75
G05
X144.375Y-130.1G85X147.375Y-130.1
G05
T3
X108.482Y-121.38G85X110.482Y-121.38
G05
T4
X111.4Y-37.1G85X111.4Y-37.1
G05
T0
M30
