G04 #@! TF.FileFunction,Soldermask,Top*
%FSLAX46Y46*%
G04 Gerber Fmt 4.6, Leading zero omitted, Abs format (unit mm)*
G04 Created by KiCad (PCBNEW 4.0.7) date 05/11/20 23:09:25*
%MOMM*%
%LPD*%
G01*
G04 APERTURE LIST*
%ADD10C,0.100000*%
%ADD11R,1.900000X1.700000*%
%ADD12R,1.300000X1.200000*%
%ADD13R,1.900000X1.650000*%
%ADD14R,1.650000X1.900000*%
%ADD15R,1.700000X1.900000*%
%ADD16R,1.400000X1.400000*%
%ADD17R,4.400000X1.900000*%
%ADD18R,2.400000X2.400000*%
%ADD19O,5.400000X1.400000*%
%ADD20R,5.480000X2.900000*%
%ADD21R,5.480000X1.900000*%
%ADD22R,1.200000X1.300000*%
%ADD23R,1.150000X1.200000*%
%ADD24R,3.900000X2.200000*%
%ADD25R,3.900000X3.900000*%
%ADD26R,0.900000X1.300000*%
%ADD27R,1.300000X0.900000*%
%ADD28C,2.900000*%
%ADD29R,1.600000X2.600000*%
%ADD30R,6.200000X6.800000*%
%ADD31O,1.400000X4.900000*%
%ADD32O,1.400000X5.400000*%
%ADD33O,1.400000X1.400000*%
%ADD34O,5.400000X2.400000*%
%ADD35O,5.400000X3.400000*%
%ADD36O,1.400000X4.400000*%
%ADD37O,1.400000X2.400000*%
%ADD38O,1.400000X1.900000*%
%ADD39O,3.900000X1.400000*%
%ADD40R,2.900000X5.480000*%
%ADD41R,1.900000X5.480000*%
%ADD42R,2.100000X2.100000*%
%ADD43O,2.100000X2.100000*%
%ADD44O,4.900000X1.400000*%
G04 APERTURE END LIST*
D10*
D11*
X79650000Y-48825000D03*
X76950000Y-48825000D03*
D12*
X78400000Y-109450000D03*
X78400000Y-111350000D03*
X80400000Y-110400000D03*
X78300000Y-113450000D03*
X78300000Y-115350000D03*
X80300000Y-114400000D03*
D11*
X117230000Y-76260000D03*
X119930000Y-76260000D03*
D13*
X110700000Y-42050000D03*
X108200000Y-42050000D03*
X121450000Y-38000000D03*
X118950000Y-38000000D03*
D14*
X142575000Y-38475000D03*
X142575000Y-35975000D03*
D13*
X123750000Y-41700000D03*
X121250000Y-41700000D03*
X131050000Y-37800000D03*
X133550000Y-37800000D03*
X131850000Y-42500000D03*
X129350000Y-42500000D03*
D14*
X140600000Y-35925000D03*
X140600000Y-38425000D03*
D13*
X145000000Y-42500000D03*
X142500000Y-42500000D03*
X147170000Y-54730000D03*
X149670000Y-54730000D03*
D15*
X144580000Y-35900000D03*
X144580000Y-38600000D03*
D16*
X147130000Y-52490000D03*
X147130000Y-49990000D03*
D17*
X104900000Y-42050000D03*
D18*
X153775000Y-32325000D03*
X142325000Y-32300000D03*
X146175000Y-32275000D03*
X149825000Y-32325000D03*
D17*
X104825000Y-34875000D03*
D19*
X153000000Y-100500000D03*
X133500000Y-100500000D03*
X140000000Y-100500000D03*
X146500000Y-100500000D03*
D20*
X154275000Y-43600000D03*
X154275000Y-36100000D03*
D21*
X154275000Y-39850000D03*
D22*
X117500000Y-41700000D03*
X119400000Y-41700000D03*
X118450000Y-39700000D03*
D12*
X125600000Y-41650000D03*
X125600000Y-43550000D03*
X127600000Y-42600000D03*
D22*
X138550000Y-42500000D03*
X140450000Y-42500000D03*
X139500000Y-40500000D03*
D11*
X146890000Y-34720000D03*
X149590000Y-34720000D03*
X115600000Y-42000000D03*
X112900000Y-42000000D03*
D15*
X115750000Y-40050000D03*
X115750000Y-37350000D03*
D11*
X119050000Y-36000000D03*
X121750000Y-36000000D03*
D15*
X119380000Y-43354000D03*
X119380000Y-46054000D03*
D11*
X127050000Y-39800000D03*
X124350000Y-39800000D03*
X129250000Y-35800000D03*
X131950000Y-35800000D03*
D15*
X129100000Y-37950000D03*
X129100000Y-40650000D03*
D11*
X122500000Y-45400000D03*
X125200000Y-45400000D03*
X136550000Y-42500000D03*
X133850000Y-42500000D03*
D15*
X136600000Y-40550000D03*
X136600000Y-37850000D03*
X138725000Y-38650000D03*
X138725000Y-35950000D03*
D11*
X140100000Y-44500000D03*
X137400000Y-44500000D03*
X145100000Y-44500000D03*
X142400000Y-44500000D03*
D15*
X147000000Y-40425000D03*
X147000000Y-37725000D03*
X149700000Y-49720000D03*
X149700000Y-52420000D03*
D11*
X147150000Y-42500000D03*
X149850000Y-42500000D03*
D15*
X150050000Y-40375000D03*
X150050000Y-37675000D03*
D20*
X154000000Y-59750000D03*
X154000000Y-52250000D03*
D21*
X154000000Y-56000000D03*
D13*
X107930000Y-84582000D03*
X105430000Y-84582000D03*
D14*
X102500000Y-82250000D03*
X102500000Y-79750000D03*
D13*
X112034000Y-76422000D03*
X114534000Y-76422000D03*
X112690000Y-88320000D03*
X110190000Y-88320000D03*
D14*
X119380000Y-82062000D03*
X119380000Y-84562000D03*
D13*
X125650000Y-88300000D03*
X123150000Y-88300000D03*
D14*
X123220000Y-73210000D03*
X123220000Y-70710000D03*
D13*
X133650000Y-89600000D03*
X131150000Y-89600000D03*
D14*
X132600000Y-86250000D03*
X132600000Y-83750000D03*
X125420000Y-75240000D03*
X125420000Y-72740000D03*
X142240000Y-82824000D03*
X142240000Y-85324000D03*
D13*
X144850000Y-91000000D03*
X142350000Y-91000000D03*
D14*
X138450000Y-71000000D03*
X138450000Y-73500000D03*
D23*
X142748000Y-72600000D03*
X142748000Y-71100000D03*
D24*
X104500000Y-68500000D03*
X109500000Y-68500000D03*
D11*
X128130000Y-67290000D03*
X125430000Y-67290000D03*
D25*
X99500000Y-75500000D03*
X93500000Y-75500000D03*
X96500000Y-80200000D03*
D20*
X154000000Y-94750000D03*
X154000000Y-87250000D03*
D21*
X154000000Y-91000000D03*
D20*
X154000000Y-78250000D03*
X154000000Y-70750000D03*
D21*
X154000000Y-74500000D03*
D11*
X112850000Y-84500000D03*
X110150000Y-84500000D03*
D12*
X108188000Y-88326000D03*
X108188000Y-86426000D03*
X106188000Y-87376000D03*
D22*
X119400000Y-88250000D03*
X121300000Y-88250000D03*
X120350000Y-86250000D03*
D12*
X127400000Y-88350000D03*
X127400000Y-90250000D03*
X129400000Y-89300000D03*
D22*
X140250000Y-89400000D03*
X142150000Y-89400000D03*
X141200000Y-87400000D03*
X144700000Y-73850000D03*
X142800000Y-73850000D03*
X143750000Y-75850000D03*
D11*
X112856000Y-90424000D03*
X110156000Y-90424000D03*
D15*
X117602000Y-86440000D03*
X117602000Y-83740000D03*
D11*
X117580000Y-88310000D03*
X114880000Y-88310000D03*
D15*
X121158000Y-83392000D03*
X121158000Y-80692000D03*
X121250000Y-90025000D03*
X121250000Y-92725000D03*
X121230000Y-67180000D03*
X121230000Y-69880000D03*
D11*
X128650000Y-86500000D03*
X125950000Y-86500000D03*
X130550000Y-81700000D03*
X127850000Y-81700000D03*
D15*
X130700000Y-83650000D03*
X130700000Y-86350000D03*
D11*
X130250000Y-92000000D03*
X127550000Y-92000000D03*
X130610000Y-67230000D03*
X133310000Y-67230000D03*
X138450000Y-89600000D03*
X135750000Y-89600000D03*
X125370000Y-70540000D03*
X128070000Y-70540000D03*
D15*
X138430000Y-87710000D03*
X138430000Y-85010000D03*
X140208000Y-85424000D03*
X140208000Y-82724000D03*
D11*
X142250000Y-92900000D03*
X144950000Y-92900000D03*
D15*
X146400000Y-89150000D03*
X146400000Y-86450000D03*
D26*
X139925000Y-73800000D03*
X141425000Y-73800000D03*
D11*
X147050000Y-91000000D03*
X149750000Y-91000000D03*
D15*
X149800000Y-88950000D03*
X149800000Y-86250000D03*
D27*
X146360000Y-73800000D03*
X146360000Y-72300000D03*
D26*
X148832000Y-73882000D03*
X147332000Y-73882000D03*
D27*
X149980000Y-73700000D03*
X149980000Y-72200000D03*
D28*
X112960000Y-71000000D03*
X118000000Y-68500000D03*
X118000000Y-73500000D03*
X133260000Y-75270000D03*
X130760000Y-70230000D03*
X135760000Y-70230000D03*
D29*
X109280000Y-72300000D03*
X107000000Y-72300000D03*
X104720000Y-72300000D03*
D30*
X107000000Y-78600000D03*
D13*
X109454000Y-122174000D03*
X106954000Y-122174000D03*
X109708000Y-111506000D03*
X107208000Y-111506000D03*
X118852000Y-118364000D03*
X116352000Y-118364000D03*
X123678000Y-122174000D03*
X121178000Y-122174000D03*
X119106000Y-107696000D03*
X116606000Y-107696000D03*
X123960000Y-111560000D03*
X121460000Y-111560000D03*
D14*
X144526000Y-120630000D03*
X144526000Y-118130000D03*
D13*
X142260000Y-123952000D03*
X144760000Y-123952000D03*
X121178000Y-118872000D03*
X123678000Y-118872000D03*
D14*
X124460000Y-105684000D03*
X124460000Y-108184000D03*
D13*
X133150000Y-109440000D03*
X130650000Y-109440000D03*
D14*
X138160000Y-104800000D03*
X138160000Y-107300000D03*
D13*
X144550000Y-111050000D03*
X142050000Y-111050000D03*
D11*
X137334000Y-123952000D03*
X140034000Y-123952000D03*
D17*
X103886000Y-122174000D03*
X103886000Y-111506000D03*
D18*
X149098000Y-125476000D03*
D17*
X103886000Y-127254000D03*
D18*
X149098000Y-120396000D03*
X153924000Y-120396000D03*
X153924000Y-125476000D03*
D17*
X103886000Y-116586000D03*
D20*
X154000000Y-114750000D03*
X154000000Y-107250000D03*
D21*
X154000000Y-111000000D03*
D22*
X115890000Y-122158000D03*
X117790000Y-122158000D03*
X116840000Y-120158000D03*
X116398000Y-111490000D03*
X118298000Y-111490000D03*
X117348000Y-109490000D03*
D12*
X138160000Y-120584000D03*
X138160000Y-118684000D03*
X136160000Y-119634000D03*
D22*
X127828000Y-123682000D03*
X129728000Y-123682000D03*
X128778000Y-121682000D03*
D12*
X134604000Y-119568000D03*
X134604000Y-117668000D03*
X132604000Y-118618000D03*
D22*
X127970000Y-112340000D03*
X129870000Y-112340000D03*
X128920000Y-110340000D03*
X138180000Y-111180000D03*
X140080000Y-111180000D03*
X139130000Y-109180000D03*
D11*
X114126000Y-122174000D03*
X111426000Y-122174000D03*
X114380000Y-111506000D03*
X111680000Y-111506000D03*
D15*
X114300000Y-120222000D03*
X114300000Y-117522000D03*
X114554000Y-109808000D03*
X114554000Y-107108000D03*
X134874000Y-123872000D03*
X134874000Y-126572000D03*
D11*
X114474000Y-115570000D03*
X117174000Y-115570000D03*
X118698000Y-123952000D03*
X115998000Y-123952000D03*
X119460000Y-105664000D03*
X116760000Y-105664000D03*
X119206000Y-113030000D03*
X116506000Y-113030000D03*
D15*
X125730000Y-121746000D03*
X125730000Y-119046000D03*
D11*
X142574000Y-118872000D03*
X139874000Y-118872000D03*
X142574000Y-120650000D03*
X139874000Y-120650000D03*
X125810000Y-117094000D03*
X123110000Y-117094000D03*
D15*
X127762000Y-119968000D03*
X127762000Y-117268000D03*
X131572000Y-120824000D03*
X131572000Y-123524000D03*
X130810000Y-113966000D03*
X130810000Y-116666000D03*
X128160000Y-108530000D03*
X128160000Y-105830000D03*
X126238000Y-106506000D03*
X126238000Y-103806000D03*
X126090000Y-111350000D03*
X126090000Y-108650000D03*
D11*
X136110000Y-111250000D03*
X133410000Y-111250000D03*
D15*
X136290000Y-109110000D03*
X136290000Y-106410000D03*
X140100000Y-107370000D03*
X140100000Y-104670000D03*
X140070000Y-113010000D03*
X140070000Y-115710000D03*
X146500000Y-108850000D03*
X146500000Y-106150000D03*
D11*
X146650000Y-111000000D03*
X149350000Y-111000000D03*
D15*
X149500000Y-108850000D03*
X149500000Y-106150000D03*
D19*
X127000000Y-100500000D03*
X120500000Y-100500000D03*
X114000000Y-100500000D03*
X107500000Y-100500000D03*
X100750000Y-100500000D03*
X94488000Y-100584000D03*
X153500000Y-62750000D03*
X147000000Y-62750000D03*
X140250000Y-62750000D03*
X133750000Y-62750000D03*
X127250000Y-62750000D03*
X120500000Y-62750000D03*
X114250000Y-62750000D03*
X107750000Y-62750000D03*
X101500000Y-62750000D03*
X95000000Y-62750000D03*
D31*
X100584000Y-116840000D03*
D32*
X100584000Y-111252000D03*
X100584000Y-122428000D03*
X100584000Y-128270000D03*
D33*
X100584000Y-131826000D03*
D19*
X104394000Y-109474000D03*
X110236000Y-109474000D03*
D32*
X112522000Y-105664000D03*
D33*
X112522000Y-102108000D03*
D34*
X104140000Y-114046000D03*
X109982000Y-114046000D03*
D31*
X100584000Y-105664000D03*
D33*
X100584000Y-102362000D03*
D34*
X104394000Y-124714000D03*
D35*
X104140000Y-119380000D03*
D19*
X104394000Y-129286000D03*
D32*
X101600000Y-35052000D03*
X101600000Y-42164000D03*
D33*
X101600000Y-38608000D03*
D32*
X101600000Y-48260000D03*
D34*
X110236000Y-124714000D03*
D32*
X101600000Y-54102000D03*
D35*
X109982000Y-119380000D03*
D36*
X101500000Y-59500000D03*
D19*
X110236000Y-129286000D03*
D37*
X112522000Y-131318000D03*
D19*
X105410000Y-40132000D03*
X111252000Y-40132000D03*
X105664000Y-43942000D03*
X111506000Y-43942000D03*
D32*
X113792000Y-47752000D03*
X113792000Y-53848000D03*
D36*
X113750000Y-59500000D03*
D19*
X105410000Y-33020000D03*
X111506000Y-33020000D03*
X111252000Y-36830000D03*
D33*
X113792000Y-31242000D03*
D19*
X105156000Y-36830000D03*
D33*
X101600000Y-31242000D03*
D38*
X113875000Y-38475000D03*
D39*
X154000000Y-47500000D03*
X149000000Y-47500000D03*
D19*
X142750000Y-47750000D03*
X136500000Y-47750000D03*
X130250000Y-47750000D03*
X124250000Y-47750000D03*
X118000000Y-47750000D03*
D34*
X132842000Y-45212000D03*
X133096000Y-32004000D03*
X132080000Y-129286000D03*
X132080000Y-103378000D03*
D13*
X70325000Y-101675000D03*
X67825000Y-101675000D03*
X69500000Y-115225000D03*
X67000000Y-115225000D03*
D14*
X85900000Y-123125000D03*
X85900000Y-125625000D03*
X82296000Y-95484000D03*
X82296000Y-92984000D03*
D13*
X78710000Y-123040000D03*
X81210000Y-123040000D03*
X76180000Y-122936000D03*
X73680000Y-122936000D03*
D14*
X73660000Y-92476000D03*
X73660000Y-94976000D03*
X68700000Y-125700000D03*
X68700000Y-123200000D03*
D13*
X63350000Y-96000000D03*
X60850000Y-96000000D03*
D11*
X63450000Y-98000000D03*
X60750000Y-98000000D03*
D20*
X60000000Y-100650000D03*
X60000000Y-108150000D03*
D21*
X60000000Y-104400000D03*
D40*
X79308000Y-130048000D03*
X86808000Y-130048000D03*
D41*
X83058000Y-130048000D03*
D20*
X60000000Y-118250000D03*
X60000000Y-125750000D03*
D21*
X60000000Y-122000000D03*
D20*
X59900000Y-65650000D03*
X59900000Y-73150000D03*
D21*
X59900000Y-69400000D03*
D20*
X60000000Y-82450000D03*
X60000000Y-89950000D03*
D21*
X60000000Y-86200000D03*
D40*
X62036000Y-130302000D03*
X69536000Y-130302000D03*
D41*
X65786000Y-130302000D03*
D18*
X65625000Y-92425000D03*
X70375000Y-92425000D03*
X70175000Y-88675000D03*
X65725000Y-88650000D03*
D42*
X64600000Y-104700000D03*
D43*
X64600000Y-107240000D03*
D42*
X64750000Y-121500000D03*
D43*
X64750000Y-124040000D03*
D42*
X84875000Y-93200000D03*
D43*
X84875000Y-95740000D03*
D42*
X73875000Y-90100000D03*
D43*
X76415000Y-90100000D03*
D22*
X81468000Y-105172000D03*
X79568000Y-105172000D03*
X80518000Y-107172000D03*
D12*
X76000000Y-115350000D03*
X76000000Y-113450000D03*
X74000000Y-114400000D03*
D22*
X74610000Y-105426000D03*
X72710000Y-105426000D03*
X73660000Y-107426000D03*
D12*
X76000000Y-111350000D03*
X76000000Y-109450000D03*
X74000000Y-110400000D03*
D11*
X66875000Y-111250000D03*
X69575000Y-111250000D03*
X69590000Y-113260000D03*
X66890000Y-113260000D03*
X67825000Y-98000000D03*
X70525000Y-98000000D03*
X70540000Y-99830000D03*
X67840000Y-99830000D03*
D15*
X85925000Y-121100000D03*
X85925000Y-118400000D03*
X70450000Y-106525000D03*
X70450000Y-103825000D03*
X71360000Y-119040000D03*
X71360000Y-116340000D03*
X82296000Y-100664000D03*
X82296000Y-97964000D03*
D11*
X81270000Y-124910000D03*
X78570000Y-124910000D03*
D15*
X80510000Y-118360000D03*
X80510000Y-121060000D03*
X83566000Y-107522000D03*
X83566000Y-104822000D03*
D11*
X77825000Y-103050000D03*
X80525000Y-103050000D03*
D15*
X80450000Y-96375000D03*
X80450000Y-93675000D03*
D11*
X72600000Y-103150000D03*
X75300000Y-103150000D03*
D15*
X76454000Y-107776000D03*
X76454000Y-105076000D03*
D11*
X73650000Y-124930000D03*
X76350000Y-124930000D03*
D15*
X74290000Y-117640000D03*
X74290000Y-120340000D03*
X73660000Y-96948000D03*
X73660000Y-99648000D03*
X68580000Y-118284000D03*
X68580000Y-120984000D03*
X65900000Y-98450000D03*
X65900000Y-101150000D03*
D13*
X69500000Y-109250000D03*
X67000000Y-109250000D03*
X65250000Y-96000000D03*
X67750000Y-96000000D03*
D32*
X90500000Y-112250000D03*
X90500000Y-118250000D03*
X90500000Y-124250000D03*
X90500000Y-129750000D03*
X90500000Y-76000000D03*
X90500000Y-70000000D03*
X90500000Y-100000000D03*
X90500000Y-106250000D03*
X90500000Y-82000000D03*
X90500000Y-88000000D03*
X90500000Y-94000000D03*
D44*
X67800000Y-26300000D03*
D32*
X90500000Y-63750000D03*
X90500000Y-57500000D03*
D31*
X90500000Y-52000000D03*
D19*
X86000000Y-62750000D03*
X79500000Y-62750000D03*
X73000000Y-62750000D03*
X66750000Y-62750000D03*
X60500000Y-62750000D03*
D32*
X90500000Y-46250000D03*
X90500000Y-40000000D03*
X90500000Y-33500000D03*
D44*
X68200000Y-23500000D03*
D14*
X80475000Y-89225000D03*
X80475000Y-91725000D03*
D12*
X76925000Y-95750000D03*
X76925000Y-97650000D03*
X78925000Y-96700000D03*
D22*
X78975000Y-99325000D03*
X77075000Y-99325000D03*
X78025000Y-101325000D03*
D13*
X66675000Y-56025000D03*
X64175000Y-56025000D03*
D14*
X74525000Y-52750000D03*
X74525000Y-50250000D03*
X88500000Y-55750000D03*
X88500000Y-58250000D03*
X77800000Y-50925000D03*
X77800000Y-53425000D03*
X81650000Y-50775000D03*
X81650000Y-53275000D03*
D13*
X77225000Y-46825000D03*
X79725000Y-46825000D03*
D14*
X85550000Y-39925000D03*
X85550000Y-42425000D03*
D20*
X59850000Y-52250000D03*
X59850000Y-59750000D03*
D21*
X59850000Y-56000000D03*
D40*
X87400000Y-32975000D03*
X79900000Y-32975000D03*
D41*
X83650000Y-32975000D03*
D22*
X82750000Y-58400000D03*
X84650000Y-58400000D03*
X83700000Y-56400000D03*
D12*
X87200000Y-51750000D03*
X87200000Y-49850000D03*
X85200000Y-50800000D03*
X83500000Y-46050000D03*
X83500000Y-44150000D03*
X81500000Y-45100000D03*
D15*
X71200000Y-58125000D03*
X71200000Y-60825000D03*
D11*
X84550000Y-60100000D03*
X81850000Y-60100000D03*
D15*
X72575000Y-52900000D03*
X72575000Y-50200000D03*
D11*
X78050000Y-56500000D03*
X80750000Y-56500000D03*
D15*
X86600000Y-55550000D03*
X86600000Y-58250000D03*
D11*
X84050000Y-53500000D03*
X86750000Y-53500000D03*
D15*
X79775000Y-50825000D03*
X79775000Y-53525000D03*
X88800000Y-52450000D03*
X88800000Y-49750000D03*
X83550000Y-47875000D03*
X83550000Y-50575000D03*
X85525000Y-47275000D03*
X85525000Y-44575000D03*
D11*
X79800000Y-45000000D03*
X77100000Y-45000000D03*
X83525000Y-42425000D03*
X80825000Y-42425000D03*
X81975000Y-39775000D03*
X79275000Y-39775000D03*
D15*
X83775000Y-39625000D03*
X83775000Y-36925000D03*
D11*
X81825000Y-36825000D03*
X79125000Y-36825000D03*
X78050000Y-58300000D03*
X80750000Y-58300000D03*
D13*
X72950000Y-40200000D03*
X70450000Y-40200000D03*
D15*
X70400000Y-35450000D03*
X70400000Y-38150000D03*
D18*
X66000000Y-38000000D03*
X61000000Y-33000000D03*
X61000000Y-38000000D03*
X66000000Y-33000000D03*
D11*
X70450000Y-33600000D03*
X73150000Y-33600000D03*
M02*
