G04 #@! TF.FileFunction,Legend,Bot*
%FSLAX46Y46*%
G04 Gerber Fmt 4.6, Leading zero omitted, Abs format (unit mm)*
G04 Created by KiCad (PCBNEW 4.0.7) date 05/11/20 23:09:24*
%MOMM*%
%LPD*%
G01*
G04 APERTURE LIST*
%ADD10C,0.100000*%
%ADD11C,0.150000*%
G04 APERTURE END LIST*
D10*
D11*
X68133333Y-41728571D02*
X67990476Y-41776190D01*
X67942857Y-41823810D01*
X67895238Y-41919048D01*
X67895238Y-42061905D01*
X67942857Y-42157143D01*
X67990476Y-42204762D01*
X68085714Y-42252381D01*
X68466667Y-42252381D01*
X68466667Y-41252381D01*
X68133333Y-41252381D01*
X68038095Y-41300000D01*
X67990476Y-41347619D01*
X67942857Y-41442857D01*
X67942857Y-41538095D01*
X67990476Y-41633333D01*
X68038095Y-41680952D01*
X68133333Y-41728571D01*
X68466667Y-41728571D01*
X66895238Y-42252381D02*
X67228572Y-41776190D01*
X67466667Y-42252381D02*
X67466667Y-41252381D01*
X67085714Y-41252381D01*
X66990476Y-41300000D01*
X66942857Y-41347619D01*
X66895238Y-41442857D01*
X66895238Y-41585714D01*
X66942857Y-41680952D01*
X66990476Y-41728571D01*
X67085714Y-41776190D01*
X67466667Y-41776190D01*
X66276191Y-41252381D02*
X66085714Y-41252381D01*
X65990476Y-41300000D01*
X65895238Y-41395238D01*
X65847619Y-41585714D01*
X65847619Y-41919048D01*
X65895238Y-42109524D01*
X65990476Y-42204762D01*
X66085714Y-42252381D01*
X66276191Y-42252381D01*
X66371429Y-42204762D01*
X66466667Y-42109524D01*
X66514286Y-41919048D01*
X66514286Y-41585714D01*
X66466667Y-41395238D01*
X66371429Y-41300000D01*
X66276191Y-41252381D01*
X65466667Y-41966667D02*
X64990476Y-41966667D01*
X65561905Y-42252381D02*
X65228572Y-41252381D01*
X64895238Y-42252381D01*
X64561905Y-42252381D02*
X64561905Y-41252381D01*
X64323810Y-41252381D01*
X64180952Y-41300000D01*
X64085714Y-41395238D01*
X64038095Y-41490476D01*
X63990476Y-41680952D01*
X63990476Y-41823810D01*
X64038095Y-42014286D01*
X64085714Y-42109524D01*
X64180952Y-42204762D01*
X64323810Y-42252381D01*
X64561905Y-42252381D01*
X63228571Y-41728571D02*
X63085714Y-41776190D01*
X63038095Y-41823810D01*
X62990476Y-41919048D01*
X62990476Y-42061905D01*
X63038095Y-42157143D01*
X63085714Y-42204762D01*
X63180952Y-42252381D01*
X63561905Y-42252381D01*
X63561905Y-41252381D01*
X63228571Y-41252381D01*
X63133333Y-41300000D01*
X63085714Y-41347619D01*
X63038095Y-41442857D01*
X63038095Y-41538095D01*
X63085714Y-41633333D01*
X63133333Y-41680952D01*
X63228571Y-41728571D01*
X63561905Y-41728571D01*
X62609524Y-41966667D02*
X62133333Y-41966667D01*
X62704762Y-42252381D02*
X62371429Y-41252381D01*
X62038095Y-42252381D01*
X61704762Y-42252381D02*
X61704762Y-41252381D01*
X61133333Y-42252381D01*
X61133333Y-41252381D01*
X60657143Y-42252381D02*
X60657143Y-41252381D01*
X60419048Y-41252381D01*
X60276190Y-41300000D01*
X60180952Y-41395238D01*
X60133333Y-41490476D01*
X60085714Y-41680952D01*
X60085714Y-41823810D01*
X60133333Y-42014286D01*
X60180952Y-42109524D01*
X60276190Y-42204762D01*
X60419048Y-42252381D01*
X60657143Y-42252381D01*
X67871428Y-43616667D02*
X67395237Y-43616667D01*
X67966666Y-43902381D02*
X67633333Y-42902381D01*
X67299999Y-43902381D01*
X66966666Y-43902381D02*
X66966666Y-42902381D01*
X66633332Y-43616667D01*
X66299999Y-42902381D01*
X66299999Y-43902381D01*
X65823809Y-43902381D02*
X65823809Y-42902381D01*
X65442856Y-42902381D01*
X65347618Y-42950000D01*
X65299999Y-42997619D01*
X65252380Y-43092857D01*
X65252380Y-43235714D01*
X65299999Y-43330952D01*
X65347618Y-43378571D01*
X65442856Y-43426190D01*
X65823809Y-43426190D01*
X64347618Y-43902381D02*
X64823809Y-43902381D01*
X64823809Y-42902381D01*
X64014285Y-43902381D02*
X64014285Y-42902381D01*
X63204761Y-43378571D02*
X63538095Y-43378571D01*
X63538095Y-43902381D02*
X63538095Y-42902381D01*
X63061904Y-42902381D01*
X62680952Y-43902381D02*
X62680952Y-42902381D01*
X62204762Y-43378571D02*
X61871428Y-43378571D01*
X61728571Y-43902381D02*
X62204762Y-43902381D01*
X62204762Y-42902381D01*
X61728571Y-42902381D01*
X60728571Y-43902381D02*
X61061905Y-43426190D01*
X61300000Y-43902381D02*
X61300000Y-42902381D01*
X60919047Y-42902381D01*
X60823809Y-42950000D01*
X60776190Y-42997619D01*
X60728571Y-43092857D01*
X60728571Y-43235714D01*
X60776190Y-43330952D01*
X60823809Y-43378571D01*
X60919047Y-43426190D01*
X61300000Y-43426190D01*
X68395238Y-45028571D02*
X68252381Y-45076190D01*
X68204762Y-45123810D01*
X68157143Y-45219048D01*
X68157143Y-45361905D01*
X68204762Y-45457143D01*
X68252381Y-45504762D01*
X68347619Y-45552381D01*
X68728572Y-45552381D01*
X68728572Y-44552381D01*
X68395238Y-44552381D01*
X68300000Y-44600000D01*
X68252381Y-44647619D01*
X68204762Y-44742857D01*
X68204762Y-44838095D01*
X68252381Y-44933333D01*
X68300000Y-44980952D01*
X68395238Y-45028571D01*
X68728572Y-45028571D01*
X67538096Y-45076190D02*
X67538096Y-45552381D01*
X67871429Y-44552381D02*
X67538096Y-45076190D01*
X67204762Y-44552381D01*
X66109524Y-45552381D02*
X66109524Y-44552381D01*
X65871429Y-44552381D01*
X65728571Y-44600000D01*
X65633333Y-44695238D01*
X65585714Y-44790476D01*
X65538095Y-44980952D01*
X65538095Y-45123810D01*
X65585714Y-45314286D01*
X65633333Y-45409524D01*
X65728571Y-45504762D01*
X65871429Y-45552381D01*
X66109524Y-45552381D01*
X64347619Y-45552381D02*
X64347619Y-44552381D01*
X64014285Y-45266667D01*
X63680952Y-44552381D01*
X63680952Y-45552381D01*
X63252381Y-45266667D02*
X62776190Y-45266667D01*
X63347619Y-45552381D02*
X63014286Y-44552381D01*
X62680952Y-45552381D01*
X61776190Y-45552381D02*
X62109524Y-45076190D01*
X62347619Y-45552381D02*
X62347619Y-44552381D01*
X61966666Y-44552381D01*
X61871428Y-44600000D01*
X61823809Y-44647619D01*
X61776190Y-44742857D01*
X61776190Y-44885714D01*
X61823809Y-44980952D01*
X61871428Y-45028571D01*
X61966666Y-45076190D01*
X62347619Y-45076190D01*
X61347619Y-45552381D02*
X61347619Y-44552381D01*
X60776190Y-45552381D02*
X61204762Y-44980952D01*
X60776190Y-44552381D02*
X61347619Y-45123810D01*
X60395238Y-45504762D02*
X60252381Y-45552381D01*
X60014285Y-45552381D01*
X59919047Y-45504762D01*
X59871428Y-45457143D01*
X59823809Y-45361905D01*
X59823809Y-45266667D01*
X59871428Y-45171429D01*
X59919047Y-45123810D01*
X60014285Y-45076190D01*
X60204762Y-45028571D01*
X60300000Y-44980952D01*
X60347619Y-44933333D01*
X60395238Y-44838095D01*
X60395238Y-44742857D01*
X60347619Y-44647619D01*
X60300000Y-44600000D01*
X60204762Y-44552381D01*
X59966666Y-44552381D01*
X59823809Y-44600000D01*
X66228571Y-47202381D02*
X66228571Y-46202381D01*
X65657142Y-47202381D02*
X66085714Y-46630952D01*
X65657142Y-46202381D02*
X66228571Y-46773810D01*
X65323809Y-46202381D02*
X65085714Y-47202381D01*
X64895237Y-46488095D01*
X64704761Y-47202381D01*
X64466666Y-46202381D01*
X63657142Y-46535714D02*
X63657142Y-47202381D01*
X63895238Y-46154762D02*
X64133333Y-46869048D01*
X63514285Y-46869048D01*
X63276190Y-46202381D02*
X62704761Y-46202381D01*
X62990476Y-47202381D02*
X62990476Y-46202381D01*
X62371428Y-47202381D02*
X62371428Y-46202381D01*
X69133333Y-48757143D02*
X69180952Y-48804762D01*
X69323809Y-48852381D01*
X69419047Y-48852381D01*
X69561905Y-48804762D01*
X69657143Y-48709524D01*
X69704762Y-48614286D01*
X69752381Y-48423810D01*
X69752381Y-48280952D01*
X69704762Y-48090476D01*
X69657143Y-47995238D01*
X69561905Y-47900000D01*
X69419047Y-47852381D01*
X69323809Y-47852381D01*
X69180952Y-47900000D01*
X69133333Y-47947619D01*
X68133333Y-48757143D02*
X68180952Y-48804762D01*
X68323809Y-48852381D01*
X68419047Y-48852381D01*
X68561905Y-48804762D01*
X68657143Y-48709524D01*
X68704762Y-48614286D01*
X68752381Y-48423810D01*
X68752381Y-48280952D01*
X68704762Y-48090476D01*
X68657143Y-47995238D01*
X68561905Y-47900000D01*
X68419047Y-47852381D01*
X68323809Y-47852381D01*
X68180952Y-47900000D01*
X68133333Y-47947619D01*
X67704762Y-48471429D02*
X66942857Y-48471429D01*
X66133333Y-48328571D02*
X65990476Y-48376190D01*
X65942857Y-48423810D01*
X65895238Y-48519048D01*
X65895238Y-48661905D01*
X65942857Y-48757143D01*
X65990476Y-48804762D01*
X66085714Y-48852381D01*
X66466667Y-48852381D01*
X66466667Y-47852381D01*
X66133333Y-47852381D01*
X66038095Y-47900000D01*
X65990476Y-47947619D01*
X65942857Y-48042857D01*
X65942857Y-48138095D01*
X65990476Y-48233333D01*
X66038095Y-48280952D01*
X66133333Y-48328571D01*
X66466667Y-48328571D01*
X65276191Y-48376190D02*
X65276191Y-48852381D01*
X65609524Y-47852381D02*
X65276191Y-48376190D01*
X64942857Y-47852381D01*
X64609524Y-48471429D02*
X63847619Y-48471429D01*
X63419048Y-48804762D02*
X63276191Y-48852381D01*
X63038095Y-48852381D01*
X62942857Y-48804762D01*
X62895238Y-48757143D01*
X62847619Y-48661905D01*
X62847619Y-48566667D01*
X62895238Y-48471429D01*
X62942857Y-48423810D01*
X63038095Y-48376190D01*
X63228572Y-48328571D01*
X63323810Y-48280952D01*
X63371429Y-48233333D01*
X63419048Y-48138095D01*
X63419048Y-48042857D01*
X63371429Y-47947619D01*
X63323810Y-47900000D01*
X63228572Y-47852381D01*
X62990476Y-47852381D01*
X62847619Y-47900000D01*
X62466667Y-48566667D02*
X61990476Y-48566667D01*
X62561905Y-48852381D02*
X62228572Y-47852381D01*
X61895238Y-48852381D01*
X60371428Y-48185714D02*
X60371428Y-48852381D01*
X60609524Y-47804762D02*
X60847619Y-48519048D01*
X60228571Y-48519048D01*
X59847619Y-48757143D02*
X59800000Y-48804762D01*
X59847619Y-48852381D01*
X59895238Y-48804762D01*
X59847619Y-48757143D01*
X59847619Y-48852381D01*
X59180953Y-47852381D02*
X59085714Y-47852381D01*
X58990476Y-47900000D01*
X58942857Y-47947619D01*
X58895238Y-48042857D01*
X58847619Y-48233333D01*
X58847619Y-48471429D01*
X58895238Y-48661905D01*
X58942857Y-48757143D01*
X58990476Y-48804762D01*
X59085714Y-48852381D01*
X59180953Y-48852381D01*
X59276191Y-48804762D01*
X59323810Y-48757143D01*
X59371429Y-48661905D01*
X59419048Y-48471429D01*
X59419048Y-48233333D01*
X59371429Y-48042857D01*
X59323810Y-47947619D01*
X59276191Y-47900000D01*
X59180953Y-47852381D01*
X84600000Y-31327381D02*
X84409523Y-31327381D01*
X84314285Y-31375000D01*
X84219047Y-31470238D01*
X84171428Y-31660714D01*
X84171428Y-31994048D01*
X84219047Y-32184524D01*
X84314285Y-32279762D01*
X84409523Y-32327381D01*
X84600000Y-32327381D01*
X84695238Y-32279762D01*
X84790476Y-32184524D01*
X84838095Y-31994048D01*
X84838095Y-31660714D01*
X84790476Y-31470238D01*
X84695238Y-31375000D01*
X84600000Y-31327381D01*
X83742857Y-31327381D02*
X83742857Y-32136905D01*
X83695238Y-32232143D01*
X83647619Y-32279762D01*
X83552381Y-32327381D01*
X83361904Y-32327381D01*
X83266666Y-32279762D01*
X83219047Y-32232143D01*
X83171428Y-32136905D01*
X83171428Y-31327381D01*
X82838095Y-31327381D02*
X82266666Y-31327381D01*
X82552381Y-32327381D02*
X82552381Y-31327381D01*
X85266667Y-33977381D02*
X85266667Y-32977381D01*
X84885714Y-32977381D01*
X84790476Y-33025000D01*
X84742857Y-33072619D01*
X84695238Y-33167857D01*
X84695238Y-33310714D01*
X84742857Y-33405952D01*
X84790476Y-33453571D01*
X84885714Y-33501190D01*
X85266667Y-33501190D01*
X84076191Y-32977381D02*
X83885714Y-32977381D01*
X83790476Y-33025000D01*
X83695238Y-33120238D01*
X83647619Y-33310714D01*
X83647619Y-33644048D01*
X83695238Y-33834524D01*
X83790476Y-33929762D01*
X83885714Y-33977381D01*
X84076191Y-33977381D01*
X84171429Y-33929762D01*
X84266667Y-33834524D01*
X84314286Y-33644048D01*
X84314286Y-33310714D01*
X84266667Y-33120238D01*
X84171429Y-33025000D01*
X84076191Y-32977381D01*
X82647619Y-33977381D02*
X82980953Y-33501190D01*
X83219048Y-33977381D02*
X83219048Y-32977381D01*
X82838095Y-32977381D01*
X82742857Y-33025000D01*
X82695238Y-33072619D01*
X82647619Y-33167857D01*
X82647619Y-33310714D01*
X82695238Y-33405952D01*
X82742857Y-33453571D01*
X82838095Y-33501190D01*
X83219048Y-33501190D01*
X82361905Y-32977381D02*
X81790476Y-32977381D01*
X82076191Y-33977381D02*
X82076191Y-32977381D01*
X60572619Y-56623809D02*
X61572619Y-56623809D01*
X60572619Y-56147619D02*
X61572619Y-56147619D01*
X60572619Y-55576190D01*
X61572619Y-55576190D01*
X58922619Y-57766667D02*
X59922619Y-57766667D01*
X59922619Y-57385714D01*
X59875000Y-57290476D01*
X59827381Y-57242857D01*
X59732143Y-57195238D01*
X59589286Y-57195238D01*
X59494048Y-57242857D01*
X59446429Y-57290476D01*
X59398810Y-57385714D01*
X59398810Y-57766667D01*
X59922619Y-56576191D02*
X59922619Y-56385714D01*
X59875000Y-56290476D01*
X59779762Y-56195238D01*
X59589286Y-56147619D01*
X59255952Y-56147619D01*
X59065476Y-56195238D01*
X58970238Y-56290476D01*
X58922619Y-56385714D01*
X58922619Y-56576191D01*
X58970238Y-56671429D01*
X59065476Y-56766667D01*
X59255952Y-56814286D01*
X59589286Y-56814286D01*
X59779762Y-56766667D01*
X59875000Y-56671429D01*
X59922619Y-56576191D01*
X58922619Y-55147619D02*
X59398810Y-55480953D01*
X58922619Y-55719048D02*
X59922619Y-55719048D01*
X59922619Y-55338095D01*
X59875000Y-55242857D01*
X59827381Y-55195238D01*
X59732143Y-55147619D01*
X59589286Y-55147619D01*
X59494048Y-55195238D01*
X59446429Y-55242857D01*
X59398810Y-55338095D01*
X59398810Y-55719048D01*
X59922619Y-54861905D02*
X59922619Y-54290476D01*
X58922619Y-54576191D02*
X59922619Y-54576191D01*
X66757143Y-36504762D02*
X66614286Y-36552381D01*
X66376190Y-36552381D01*
X66280952Y-36504762D01*
X66233333Y-36457143D01*
X66185714Y-36361905D01*
X66185714Y-36266667D01*
X66233333Y-36171429D01*
X66280952Y-36123810D01*
X66376190Y-36076190D01*
X66566667Y-36028571D01*
X66661905Y-35980952D01*
X66709524Y-35933333D01*
X66757143Y-35838095D01*
X66757143Y-35742857D01*
X66709524Y-35647619D01*
X66661905Y-35600000D01*
X66566667Y-35552381D01*
X66328571Y-35552381D01*
X66185714Y-35600000D01*
X65852381Y-35552381D02*
X65614286Y-36552381D01*
X65423809Y-35838095D01*
X65233333Y-36552381D01*
X64995238Y-35552381D01*
X61757143Y-36404762D02*
X61614286Y-36452381D01*
X61376190Y-36452381D01*
X61280952Y-36404762D01*
X61233333Y-36357143D01*
X61185714Y-36261905D01*
X61185714Y-36166667D01*
X61233333Y-36071429D01*
X61280952Y-36023810D01*
X61376190Y-35976190D01*
X61566667Y-35928571D01*
X61661905Y-35880952D01*
X61709524Y-35833333D01*
X61757143Y-35738095D01*
X61757143Y-35642857D01*
X61709524Y-35547619D01*
X61661905Y-35500000D01*
X61566667Y-35452381D01*
X61328571Y-35452381D01*
X61185714Y-35500000D01*
X60852381Y-35452381D02*
X60614286Y-36452381D01*
X60423809Y-35738095D01*
X60233333Y-36452381D01*
X59995238Y-35452381D01*
X62752381Y-31552381D02*
X62752381Y-30552381D01*
X62371428Y-30552381D01*
X62276190Y-30600000D01*
X62228571Y-30647619D01*
X62180952Y-30742857D01*
X62180952Y-30885714D01*
X62228571Y-30980952D01*
X62276190Y-31028571D01*
X62371428Y-31076190D01*
X62752381Y-31076190D01*
X61847619Y-30552381D02*
X61609524Y-31552381D01*
X61419047Y-30838095D01*
X61228571Y-31552381D01*
X60990476Y-30552381D01*
X60038095Y-31552381D02*
X60371429Y-31076190D01*
X60609524Y-31552381D02*
X60609524Y-30552381D01*
X60228571Y-30552381D01*
X60133333Y-30600000D01*
X60085714Y-30647619D01*
X60038095Y-30742857D01*
X60038095Y-30885714D01*
X60085714Y-30980952D01*
X60133333Y-31028571D01*
X60228571Y-31076190D01*
X60609524Y-31076190D01*
X59609524Y-31171429D02*
X58847619Y-31171429D01*
X59228571Y-31552381D02*
X59228571Y-30790476D01*
X67252381Y-31652381D02*
X67252381Y-30652381D01*
X66871428Y-30652381D01*
X66776190Y-30700000D01*
X66728571Y-30747619D01*
X66680952Y-30842857D01*
X66680952Y-30985714D01*
X66728571Y-31080952D01*
X66776190Y-31128571D01*
X66871428Y-31176190D01*
X67252381Y-31176190D01*
X66347619Y-30652381D02*
X66109524Y-31652381D01*
X65919047Y-30938095D01*
X65728571Y-31652381D01*
X65490476Y-30652381D01*
X64538095Y-31652381D02*
X64871429Y-31176190D01*
X65109524Y-31652381D02*
X65109524Y-30652381D01*
X64728571Y-30652381D01*
X64633333Y-30700000D01*
X64585714Y-30747619D01*
X64538095Y-30842857D01*
X64538095Y-30985714D01*
X64585714Y-31080952D01*
X64633333Y-31128571D01*
X64728571Y-31176190D01*
X65109524Y-31176190D01*
X64109524Y-31271429D02*
X63347619Y-31271429D01*
X67657143Y-90954762D02*
X67514286Y-91002381D01*
X67276190Y-91002381D01*
X67180952Y-90954762D01*
X67133333Y-90907143D01*
X67085714Y-90811905D01*
X67085714Y-90716667D01*
X67133333Y-90621429D01*
X67180952Y-90573810D01*
X67276190Y-90526190D01*
X67466667Y-90478571D01*
X67561905Y-90430952D01*
X67609524Y-90383333D01*
X67657143Y-90288095D01*
X67657143Y-90192857D01*
X67609524Y-90097619D01*
X67561905Y-90050000D01*
X67466667Y-90002381D01*
X67228571Y-90002381D01*
X67085714Y-90050000D01*
X66752381Y-90002381D02*
X66514286Y-91002381D01*
X66323809Y-90288095D01*
X66133333Y-91002381D01*
X65895238Y-90002381D01*
X71232143Y-91029762D02*
X71089286Y-91077381D01*
X70851190Y-91077381D01*
X70755952Y-91029762D01*
X70708333Y-90982143D01*
X70660714Y-90886905D01*
X70660714Y-90791667D01*
X70708333Y-90696429D01*
X70755952Y-90648810D01*
X70851190Y-90601190D01*
X71041667Y-90553571D01*
X71136905Y-90505952D01*
X71184524Y-90458333D01*
X71232143Y-90363095D01*
X71232143Y-90267857D01*
X71184524Y-90172619D01*
X71136905Y-90125000D01*
X71041667Y-90077381D01*
X70803571Y-90077381D01*
X70660714Y-90125000D01*
X70327381Y-90077381D02*
X70089286Y-91077381D01*
X69898809Y-90363095D01*
X69708333Y-91077381D01*
X69470238Y-90077381D01*
X72477381Y-87102381D02*
X72477381Y-86102381D01*
X72096428Y-86102381D01*
X72001190Y-86150000D01*
X71953571Y-86197619D01*
X71905952Y-86292857D01*
X71905952Y-86435714D01*
X71953571Y-86530952D01*
X72001190Y-86578571D01*
X72096428Y-86626190D01*
X72477381Y-86626190D01*
X71572619Y-86102381D02*
X71334524Y-87102381D01*
X71144047Y-86388095D01*
X70953571Y-87102381D01*
X70715476Y-86102381D01*
X69763095Y-87102381D02*
X70096429Y-86626190D01*
X70334524Y-87102381D02*
X70334524Y-86102381D01*
X69953571Y-86102381D01*
X69858333Y-86150000D01*
X69810714Y-86197619D01*
X69763095Y-86292857D01*
X69763095Y-86435714D01*
X69810714Y-86530952D01*
X69858333Y-86578571D01*
X69953571Y-86626190D01*
X70334524Y-86626190D01*
X69334524Y-86721429D02*
X68572619Y-86721429D01*
X68953571Y-87102381D02*
X68953571Y-86340476D01*
X68202381Y-87152381D02*
X68202381Y-86152381D01*
X67821428Y-86152381D01*
X67726190Y-86200000D01*
X67678571Y-86247619D01*
X67630952Y-86342857D01*
X67630952Y-86485714D01*
X67678571Y-86580952D01*
X67726190Y-86628571D01*
X67821428Y-86676190D01*
X68202381Y-86676190D01*
X67297619Y-86152381D02*
X67059524Y-87152381D01*
X66869047Y-86438095D01*
X66678571Y-87152381D01*
X66440476Y-86152381D01*
X65488095Y-87152381D02*
X65821429Y-86676190D01*
X66059524Y-87152381D02*
X66059524Y-86152381D01*
X65678571Y-86152381D01*
X65583333Y-86200000D01*
X65535714Y-86247619D01*
X65488095Y-86342857D01*
X65488095Y-86485714D01*
X65535714Y-86580952D01*
X65583333Y-86628571D01*
X65678571Y-86676190D01*
X66059524Y-86676190D01*
X65059524Y-86771429D02*
X64297619Y-86771429D01*
X58497619Y-69863095D02*
X58973810Y-70196429D01*
X58497619Y-70434524D02*
X59497619Y-70434524D01*
X59497619Y-70053571D01*
X59450000Y-69958333D01*
X59402381Y-69910714D01*
X59307143Y-69863095D01*
X59164286Y-69863095D01*
X59069048Y-69910714D01*
X59021429Y-69958333D01*
X58973810Y-70053571D01*
X58973810Y-70434524D01*
X59021429Y-69101190D02*
X59021429Y-69434524D01*
X58497619Y-69434524D02*
X59497619Y-69434524D01*
X59497619Y-68958333D01*
X58878571Y-68577381D02*
X58878571Y-67815476D01*
X58722619Y-87138095D02*
X59198810Y-87471429D01*
X58722619Y-87709524D02*
X59722619Y-87709524D01*
X59722619Y-87328571D01*
X59675000Y-87233333D01*
X59627381Y-87185714D01*
X59532143Y-87138095D01*
X59389286Y-87138095D01*
X59294048Y-87185714D01*
X59246429Y-87233333D01*
X59198810Y-87328571D01*
X59198810Y-87709524D01*
X59246429Y-86376190D02*
X59246429Y-86709524D01*
X58722619Y-86709524D02*
X59722619Y-86709524D01*
X59722619Y-86233333D01*
X59103571Y-85852381D02*
X59103571Y-85090476D01*
X58722619Y-85471428D02*
X59484524Y-85471428D01*
X59047619Y-104808333D02*
X59047619Y-105284524D01*
X60047619Y-105284524D01*
X60047619Y-104284524D02*
X60047619Y-104094047D01*
X60000000Y-103998809D01*
X59904762Y-103903571D01*
X59714286Y-103855952D01*
X59380952Y-103855952D01*
X59190476Y-103903571D01*
X59095238Y-103998809D01*
X59047619Y-104094047D01*
X59047619Y-104284524D01*
X59095238Y-104379762D01*
X59190476Y-104475000D01*
X59380952Y-104522619D01*
X59714286Y-104522619D01*
X59904762Y-104475000D01*
X60000000Y-104379762D01*
X60047619Y-104284524D01*
X59428571Y-103427381D02*
X59428571Y-102665476D01*
X59172619Y-122683333D02*
X59172619Y-123159524D01*
X60172619Y-123159524D01*
X60172619Y-122159524D02*
X60172619Y-121969047D01*
X60125000Y-121873809D01*
X60029762Y-121778571D01*
X59839286Y-121730952D01*
X59505952Y-121730952D01*
X59315476Y-121778571D01*
X59220238Y-121873809D01*
X59172619Y-121969047D01*
X59172619Y-122159524D01*
X59220238Y-122254762D01*
X59315476Y-122350000D01*
X59505952Y-122397619D01*
X59839286Y-122397619D01*
X60029762Y-122350000D01*
X60125000Y-122254762D01*
X60172619Y-122159524D01*
X59553571Y-121302381D02*
X59553571Y-120540476D01*
X59172619Y-120921428D02*
X59934524Y-120921428D01*
X67369048Y-131102381D02*
X67178571Y-131102381D01*
X67083333Y-131150000D01*
X66988095Y-131245238D01*
X66940476Y-131435714D01*
X66940476Y-131769048D01*
X66988095Y-131959524D01*
X67083333Y-132054762D01*
X67178571Y-132102381D01*
X67369048Y-132102381D01*
X67464286Y-132054762D01*
X67559524Y-131959524D01*
X67607143Y-131769048D01*
X67607143Y-131435714D01*
X67559524Y-131245238D01*
X67464286Y-131150000D01*
X67369048Y-131102381D01*
X66511905Y-131102381D02*
X66511905Y-131911905D01*
X66464286Y-132007143D01*
X66416667Y-132054762D01*
X66321429Y-132102381D01*
X66130952Y-132102381D01*
X66035714Y-132054762D01*
X65988095Y-132007143D01*
X65940476Y-131911905D01*
X65940476Y-131102381D01*
X65607143Y-131102381D02*
X65035714Y-131102381D01*
X65321429Y-132102381D02*
X65321429Y-131102381D01*
X64702381Y-131721429D02*
X63940476Y-131721429D01*
X84619048Y-130502381D02*
X84428571Y-130502381D01*
X84333333Y-130550000D01*
X84238095Y-130645238D01*
X84190476Y-130835714D01*
X84190476Y-131169048D01*
X84238095Y-131359524D01*
X84333333Y-131454762D01*
X84428571Y-131502381D01*
X84619048Y-131502381D01*
X84714286Y-131454762D01*
X84809524Y-131359524D01*
X84857143Y-131169048D01*
X84857143Y-130835714D01*
X84809524Y-130645238D01*
X84714286Y-130550000D01*
X84619048Y-130502381D01*
X83761905Y-130502381D02*
X83761905Y-131311905D01*
X83714286Y-131407143D01*
X83666667Y-131454762D01*
X83571429Y-131502381D01*
X83380952Y-131502381D01*
X83285714Y-131454762D01*
X83238095Y-131407143D01*
X83190476Y-131311905D01*
X83190476Y-130502381D01*
X82857143Y-130502381D02*
X82285714Y-130502381D01*
X82571429Y-131502381D02*
X82571429Y-130502381D01*
X81952381Y-131121429D02*
X81190476Y-131121429D01*
X81571428Y-131502381D02*
X81571428Y-130740476D01*
X87197619Y-110538095D02*
X87673810Y-110871429D01*
X87197619Y-111109524D02*
X88197619Y-111109524D01*
X88197619Y-110728571D01*
X88150000Y-110633333D01*
X88102381Y-110585714D01*
X88007143Y-110538095D01*
X87864286Y-110538095D01*
X87769048Y-110585714D01*
X87721429Y-110633333D01*
X87673810Y-110728571D01*
X87673810Y-111109524D01*
X87721429Y-109776190D02*
X87721429Y-110109524D01*
X87197619Y-110109524D02*
X88197619Y-110109524D01*
X88197619Y-109633333D01*
X87197619Y-108490476D02*
X88197619Y-108490476D01*
X87483333Y-108157142D01*
X88197619Y-107823809D01*
X87197619Y-107823809D01*
X87197619Y-107347619D02*
X88197619Y-107347619D01*
X88197619Y-106966667D02*
X87197619Y-106300000D01*
X88197619Y-106300000D02*
X87197619Y-106966667D01*
X87721429Y-105919048D02*
X87721429Y-105585714D01*
X87197619Y-105442857D02*
X87197619Y-105919048D01*
X88197619Y-105919048D01*
X88197619Y-105442857D01*
X87197619Y-104442857D02*
X87673810Y-104776191D01*
X87197619Y-105014286D02*
X88197619Y-105014286D01*
X88197619Y-104633333D01*
X88150000Y-104538095D01*
X88102381Y-104490476D01*
X88007143Y-104442857D01*
X87864286Y-104442857D01*
X87769048Y-104490476D01*
X87721429Y-104538095D01*
X87673810Y-104633333D01*
X87673810Y-105014286D01*
X86071429Y-114442857D02*
X86023810Y-114300000D01*
X85976190Y-114252381D01*
X85880952Y-114204762D01*
X85738095Y-114204762D01*
X85642857Y-114252381D01*
X85595238Y-114300000D01*
X85547619Y-114395238D01*
X85547619Y-114776191D01*
X86547619Y-114776191D01*
X86547619Y-114442857D01*
X86500000Y-114347619D01*
X86452381Y-114300000D01*
X86357143Y-114252381D01*
X86261905Y-114252381D01*
X86166667Y-114300000D01*
X86119048Y-114347619D01*
X86071429Y-114442857D01*
X86071429Y-114776191D01*
X86023810Y-113585715D02*
X85547619Y-113585715D01*
X86547619Y-113919048D02*
X86023810Y-113585715D01*
X86547619Y-113252381D01*
X85547619Y-112157143D02*
X86547619Y-112157143D01*
X86547619Y-111919048D01*
X86500000Y-111776190D01*
X86404762Y-111680952D01*
X86309524Y-111633333D01*
X86119048Y-111585714D01*
X85976190Y-111585714D01*
X85785714Y-111633333D01*
X85690476Y-111680952D01*
X85595238Y-111776190D01*
X85547619Y-111919048D01*
X85547619Y-112157143D01*
X85547619Y-110395238D02*
X86547619Y-110395238D01*
X85833333Y-110061904D01*
X86547619Y-109728571D01*
X85547619Y-109728571D01*
X85833333Y-109300000D02*
X85833333Y-108823809D01*
X85547619Y-109395238D02*
X86547619Y-109061905D01*
X85547619Y-108728571D01*
X85547619Y-107823809D02*
X86023810Y-108157143D01*
X85547619Y-108395238D02*
X86547619Y-108395238D01*
X86547619Y-108014285D01*
X86500000Y-107919047D01*
X86452381Y-107871428D01*
X86357143Y-107823809D01*
X86214286Y-107823809D01*
X86119048Y-107871428D01*
X86071429Y-107919047D01*
X86023810Y-108014285D01*
X86023810Y-108395238D01*
X85547619Y-107395238D02*
X86547619Y-107395238D01*
X85547619Y-106823809D02*
X86119048Y-107252381D01*
X86547619Y-106823809D02*
X85976190Y-107395238D01*
X85595238Y-106442857D02*
X85547619Y-106300000D01*
X85547619Y-106061904D01*
X85595238Y-105966666D01*
X85642857Y-105919047D01*
X85738095Y-105871428D01*
X85833333Y-105871428D01*
X85928571Y-105919047D01*
X85976190Y-105966666D01*
X86023810Y-106061904D01*
X86071429Y-106252381D01*
X86119048Y-106347619D01*
X86166667Y-106395238D01*
X86261905Y-106442857D01*
X86357143Y-106442857D01*
X86452381Y-106395238D01*
X86500000Y-106347619D01*
X86547619Y-106252381D01*
X86547619Y-106014285D01*
X86500000Y-105871428D01*
X85547619Y-104680952D02*
X86547619Y-104680952D01*
X85547619Y-104109523D02*
X86119048Y-104538095D01*
X86547619Y-104109523D02*
X85976190Y-104680952D01*
X86547619Y-103776190D02*
X85547619Y-103538095D01*
X86261905Y-103347618D01*
X85547619Y-103157142D01*
X86547619Y-102919047D01*
X86214286Y-102109523D02*
X85547619Y-102109523D01*
X86595238Y-102347619D02*
X85880952Y-102585714D01*
X85880952Y-101966666D01*
X86547619Y-101728571D02*
X86547619Y-101157142D01*
X85547619Y-101442857D02*
X86547619Y-101442857D01*
X85547619Y-100823809D02*
X86547619Y-100823809D01*
X83992857Y-112633333D02*
X83945238Y-112680952D01*
X83897619Y-112823809D01*
X83897619Y-112919047D01*
X83945238Y-113061905D01*
X84040476Y-113157143D01*
X84135714Y-113204762D01*
X84326190Y-113252381D01*
X84469048Y-113252381D01*
X84659524Y-113204762D01*
X84754762Y-113157143D01*
X84850000Y-113061905D01*
X84897619Y-112919047D01*
X84897619Y-112823809D01*
X84850000Y-112680952D01*
X84802381Y-112633333D01*
X83992857Y-111633333D02*
X83945238Y-111680952D01*
X83897619Y-111823809D01*
X83897619Y-111919047D01*
X83945238Y-112061905D01*
X84040476Y-112157143D01*
X84135714Y-112204762D01*
X84326190Y-112252381D01*
X84469048Y-112252381D01*
X84659524Y-112204762D01*
X84754762Y-112157143D01*
X84850000Y-112061905D01*
X84897619Y-111919047D01*
X84897619Y-111823809D01*
X84850000Y-111680952D01*
X84802381Y-111633333D01*
X84278571Y-111204762D02*
X84278571Y-110442857D01*
X84421429Y-109633333D02*
X84373810Y-109490476D01*
X84326190Y-109442857D01*
X84230952Y-109395238D01*
X84088095Y-109395238D01*
X83992857Y-109442857D01*
X83945238Y-109490476D01*
X83897619Y-109585714D01*
X83897619Y-109966667D01*
X84897619Y-109966667D01*
X84897619Y-109633333D01*
X84850000Y-109538095D01*
X84802381Y-109490476D01*
X84707143Y-109442857D01*
X84611905Y-109442857D01*
X84516667Y-109490476D01*
X84469048Y-109538095D01*
X84421429Y-109633333D01*
X84421429Y-109966667D01*
X84373810Y-108776191D02*
X83897619Y-108776191D01*
X84897619Y-109109524D02*
X84373810Y-108776191D01*
X84897619Y-108442857D01*
X84278571Y-108109524D02*
X84278571Y-107347619D01*
X83945238Y-106919048D02*
X83897619Y-106776191D01*
X83897619Y-106538095D01*
X83945238Y-106442857D01*
X83992857Y-106395238D01*
X84088095Y-106347619D01*
X84183333Y-106347619D01*
X84278571Y-106395238D01*
X84326190Y-106442857D01*
X84373810Y-106538095D01*
X84421429Y-106728572D01*
X84469048Y-106823810D01*
X84516667Y-106871429D01*
X84611905Y-106919048D01*
X84707143Y-106919048D01*
X84802381Y-106871429D01*
X84850000Y-106823810D01*
X84897619Y-106728572D01*
X84897619Y-106490476D01*
X84850000Y-106347619D01*
X84183333Y-105966667D02*
X84183333Y-105490476D01*
X83897619Y-106061905D02*
X84897619Y-105728572D01*
X83897619Y-105395238D01*
X84564286Y-103871428D02*
X83897619Y-103871428D01*
X84945238Y-104109524D02*
X84230952Y-104347619D01*
X84230952Y-103728571D01*
X83992857Y-103347619D02*
X83945238Y-103300000D01*
X83897619Y-103347619D01*
X83945238Y-103395238D01*
X83992857Y-103347619D01*
X83897619Y-103347619D01*
X84897619Y-102680953D02*
X84897619Y-102585714D01*
X84850000Y-102490476D01*
X84802381Y-102442857D01*
X84707143Y-102395238D01*
X84516667Y-102347619D01*
X84278571Y-102347619D01*
X84088095Y-102395238D01*
X83992857Y-102442857D01*
X83945238Y-102490476D01*
X83897619Y-102585714D01*
X83897619Y-102680953D01*
X83945238Y-102776191D01*
X83992857Y-102823810D01*
X84088095Y-102871429D01*
X84278571Y-102919048D01*
X84516667Y-102919048D01*
X84707143Y-102871429D01*
X84802381Y-102823810D01*
X84850000Y-102776191D01*
X84897619Y-102680953D01*
X154781143Y-118768762D02*
X154638286Y-118816381D01*
X154400190Y-118816381D01*
X154304952Y-118768762D01*
X154257333Y-118721143D01*
X154209714Y-118625905D01*
X154209714Y-118530667D01*
X154257333Y-118435429D01*
X154304952Y-118387810D01*
X154400190Y-118340190D01*
X154590667Y-118292571D01*
X154685905Y-118244952D01*
X154733524Y-118197333D01*
X154781143Y-118102095D01*
X154781143Y-118006857D01*
X154733524Y-117911619D01*
X154685905Y-117864000D01*
X154590667Y-117816381D01*
X154352571Y-117816381D01*
X154209714Y-117864000D01*
X153876381Y-117816381D02*
X153638286Y-118816381D01*
X153447809Y-118102095D01*
X153257333Y-118816381D01*
X153019238Y-117816381D01*
X149955143Y-118768762D02*
X149812286Y-118816381D01*
X149574190Y-118816381D01*
X149478952Y-118768762D01*
X149431333Y-118721143D01*
X149383714Y-118625905D01*
X149383714Y-118530667D01*
X149431333Y-118435429D01*
X149478952Y-118387810D01*
X149574190Y-118340190D01*
X149764667Y-118292571D01*
X149859905Y-118244952D01*
X149907524Y-118197333D01*
X149955143Y-118102095D01*
X149955143Y-118006857D01*
X149907524Y-117911619D01*
X149859905Y-117864000D01*
X149764667Y-117816381D01*
X149526571Y-117816381D01*
X149383714Y-117864000D01*
X149050381Y-117816381D02*
X148812286Y-118816381D01*
X148621809Y-118102095D01*
X148431333Y-118816381D01*
X148193238Y-117816381D01*
X150709142Y-123435571D02*
X150566285Y-123483190D01*
X150518666Y-123530810D01*
X150471047Y-123626048D01*
X150471047Y-123768905D01*
X150518666Y-123864143D01*
X150566285Y-123911762D01*
X150661523Y-123959381D01*
X151042476Y-123959381D01*
X151042476Y-122959381D01*
X150709142Y-122959381D01*
X150613904Y-123007000D01*
X150566285Y-123054619D01*
X150518666Y-123149857D01*
X150518666Y-123245095D01*
X150566285Y-123340333D01*
X150613904Y-123387952D01*
X150709142Y-123435571D01*
X151042476Y-123435571D01*
X150090095Y-123673667D02*
X149613904Y-123673667D01*
X150185333Y-123959381D02*
X149852000Y-122959381D01*
X149518666Y-123959381D01*
X149328190Y-122959381D02*
X148756761Y-122959381D01*
X149042476Y-123959381D02*
X149042476Y-122959381D01*
X148423428Y-123578429D02*
X147661523Y-123578429D01*
X155027142Y-123435571D02*
X154884285Y-123483190D01*
X154836666Y-123530810D01*
X154789047Y-123626048D01*
X154789047Y-123768905D01*
X154836666Y-123864143D01*
X154884285Y-123911762D01*
X154979523Y-123959381D01*
X155360476Y-123959381D01*
X155360476Y-122959381D01*
X155027142Y-122959381D01*
X154931904Y-123007000D01*
X154884285Y-123054619D01*
X154836666Y-123149857D01*
X154836666Y-123245095D01*
X154884285Y-123340333D01*
X154931904Y-123387952D01*
X155027142Y-123435571D01*
X155360476Y-123435571D01*
X154408095Y-123673667D02*
X153931904Y-123673667D01*
X154503333Y-123959381D02*
X154170000Y-122959381D01*
X153836666Y-123959381D01*
X153646190Y-122959381D02*
X153074761Y-122959381D01*
X153360476Y-123959381D02*
X153360476Y-122959381D01*
X152741428Y-123578429D02*
X151979523Y-123578429D01*
X152360475Y-123959381D02*
X152360475Y-123197476D01*
X135650762Y-113578667D02*
X135174571Y-113578667D01*
X135746000Y-113864381D02*
X135412667Y-112864381D01*
X135079333Y-113864381D01*
X134174571Y-113769143D02*
X134222190Y-113816762D01*
X134365047Y-113864381D01*
X134460285Y-113864381D01*
X134603143Y-113816762D01*
X134698381Y-113721524D01*
X134746000Y-113626286D01*
X134793619Y-113435810D01*
X134793619Y-113292952D01*
X134746000Y-113102476D01*
X134698381Y-113007238D01*
X134603143Y-112912000D01*
X134460285Y-112864381D01*
X134365047Y-112864381D01*
X134222190Y-112912000D01*
X134174571Y-112959619D01*
X133888857Y-112864381D02*
X133317428Y-112864381D01*
X133603143Y-113864381D02*
X133603143Y-112864381D01*
X132984095Y-113864381D02*
X132984095Y-112864381D01*
X132650762Y-112864381D02*
X132317429Y-113864381D01*
X131984095Y-112864381D01*
X131650762Y-113340571D02*
X131317428Y-113340571D01*
X131174571Y-113864381D02*
X131650762Y-113864381D01*
X131650762Y-112864381D01*
X131174571Y-112864381D01*
X129412666Y-113864381D02*
X129746000Y-113388190D01*
X129984095Y-113864381D02*
X129984095Y-112864381D01*
X129603142Y-112864381D01*
X129507904Y-112912000D01*
X129460285Y-112959619D01*
X129412666Y-113054857D01*
X129412666Y-113197714D01*
X129460285Y-113292952D01*
X129507904Y-113340571D01*
X129603142Y-113388190D01*
X129984095Y-113388190D01*
X128650761Y-113340571D02*
X128984095Y-113340571D01*
X128984095Y-113864381D02*
X128984095Y-112864381D01*
X128507904Y-112864381D01*
X127365047Y-113864381D02*
X127365047Y-112864381D01*
X127126952Y-112864381D01*
X126984094Y-112912000D01*
X126888856Y-113007238D01*
X126841237Y-113102476D01*
X126793618Y-113292952D01*
X126793618Y-113435810D01*
X126841237Y-113626286D01*
X126888856Y-113721524D01*
X126984094Y-113816762D01*
X127126952Y-113864381D01*
X127365047Y-113864381D01*
X126365047Y-113864381D02*
X126365047Y-112864381D01*
X125555523Y-113340571D02*
X125888857Y-113340571D01*
X125888857Y-113864381D02*
X125888857Y-112864381D01*
X125412666Y-112864381D01*
X124698380Y-113340571D02*
X125031714Y-113340571D01*
X125031714Y-113864381D02*
X125031714Y-112864381D01*
X124555523Y-112864381D01*
X124174571Y-113340571D02*
X123841237Y-113340571D01*
X123698380Y-113864381D02*
X124174571Y-113864381D01*
X124174571Y-112864381D01*
X123698380Y-112864381D01*
X122698380Y-113864381D02*
X123031714Y-113388190D01*
X123269809Y-113864381D02*
X123269809Y-112864381D01*
X122888856Y-112864381D01*
X122793618Y-112912000D01*
X122745999Y-112959619D01*
X122698380Y-113054857D01*
X122698380Y-113197714D01*
X122745999Y-113292952D01*
X122793618Y-113340571D01*
X122888856Y-113388190D01*
X123269809Y-113388190D01*
X122269809Y-113340571D02*
X121936475Y-113340571D01*
X121793618Y-113864381D02*
X122269809Y-113864381D01*
X122269809Y-112864381D01*
X121793618Y-112864381D01*
X121365047Y-113864381D02*
X121365047Y-112864381D01*
X120793618Y-113864381D01*
X120793618Y-112864381D01*
X120460285Y-112864381D02*
X119888856Y-112864381D01*
X120174571Y-113864381D02*
X120174571Y-112864381D01*
X119555523Y-113864381D02*
X119555523Y-112864381D01*
X119126952Y-113578667D02*
X118650761Y-113578667D01*
X119222190Y-113864381D02*
X118888857Y-112864381D01*
X118555523Y-113864381D01*
X117745999Y-113864381D02*
X118222190Y-113864381D01*
X118222190Y-112864381D01*
X134031715Y-115514381D02*
X134031715Y-114514381D01*
X133650762Y-114514381D01*
X133555524Y-114562000D01*
X133507905Y-114609619D01*
X133460286Y-114704857D01*
X133460286Y-114847714D01*
X133507905Y-114942952D01*
X133555524Y-114990571D01*
X133650762Y-115038190D01*
X134031715Y-115038190D01*
X132460286Y-115514381D02*
X132793620Y-115038190D01*
X133031715Y-115514381D02*
X133031715Y-114514381D01*
X132650762Y-114514381D01*
X132555524Y-114562000D01*
X132507905Y-114609619D01*
X132460286Y-114704857D01*
X132460286Y-114847714D01*
X132507905Y-114942952D01*
X132555524Y-114990571D01*
X132650762Y-115038190D01*
X133031715Y-115038190D01*
X131841239Y-114514381D02*
X131650762Y-114514381D01*
X131555524Y-114562000D01*
X131460286Y-114657238D01*
X131412667Y-114847714D01*
X131412667Y-115181048D01*
X131460286Y-115371524D01*
X131555524Y-115466762D01*
X131650762Y-115514381D01*
X131841239Y-115514381D01*
X131936477Y-115466762D01*
X132031715Y-115371524D01*
X132079334Y-115181048D01*
X132079334Y-114847714D01*
X132031715Y-114657238D01*
X131936477Y-114562000D01*
X131841239Y-114514381D01*
X130650762Y-114990571D02*
X130507905Y-115038190D01*
X130460286Y-115085810D01*
X130412667Y-115181048D01*
X130412667Y-115323905D01*
X130460286Y-115419143D01*
X130507905Y-115466762D01*
X130603143Y-115514381D01*
X130984096Y-115514381D01*
X130984096Y-114514381D01*
X130650762Y-114514381D01*
X130555524Y-114562000D01*
X130507905Y-114609619D01*
X130460286Y-114704857D01*
X130460286Y-114800095D01*
X130507905Y-114895333D01*
X130555524Y-114942952D01*
X130650762Y-114990571D01*
X130984096Y-114990571D01*
X129984096Y-114990571D02*
X129650762Y-114990571D01*
X129507905Y-115514381D02*
X129984096Y-115514381D01*
X129984096Y-114514381D01*
X129507905Y-114514381D01*
X127984095Y-114990571D02*
X127841238Y-115038190D01*
X127793619Y-115085810D01*
X127746000Y-115181048D01*
X127746000Y-115323905D01*
X127793619Y-115419143D01*
X127841238Y-115466762D01*
X127936476Y-115514381D01*
X128317429Y-115514381D01*
X128317429Y-114514381D01*
X127984095Y-114514381D01*
X127888857Y-114562000D01*
X127841238Y-114609619D01*
X127793619Y-114704857D01*
X127793619Y-114800095D01*
X127841238Y-114895333D01*
X127888857Y-114942952D01*
X127984095Y-114990571D01*
X128317429Y-114990571D01*
X127126953Y-115038190D02*
X127126953Y-115514381D01*
X127460286Y-114514381D02*
X127126953Y-115038190D01*
X126793619Y-114514381D01*
X125698381Y-115514381D02*
X125698381Y-114514381D01*
X125460286Y-114514381D01*
X125317428Y-114562000D01*
X125222190Y-114657238D01*
X125174571Y-114752476D01*
X125126952Y-114942952D01*
X125126952Y-115085810D01*
X125174571Y-115276286D01*
X125222190Y-115371524D01*
X125317428Y-115466762D01*
X125460286Y-115514381D01*
X125698381Y-115514381D01*
X123936476Y-115514381D02*
X123936476Y-114514381D01*
X123603142Y-115228667D01*
X123269809Y-114514381D01*
X123269809Y-115514381D01*
X122841238Y-115228667D02*
X122365047Y-115228667D01*
X122936476Y-115514381D02*
X122603143Y-114514381D01*
X122269809Y-115514381D01*
X121365047Y-115514381D02*
X121698381Y-115038190D01*
X121936476Y-115514381D02*
X121936476Y-114514381D01*
X121555523Y-114514381D01*
X121460285Y-114562000D01*
X121412666Y-114609619D01*
X121365047Y-114704857D01*
X121365047Y-114847714D01*
X121412666Y-114942952D01*
X121460285Y-114990571D01*
X121555523Y-115038190D01*
X121936476Y-115038190D01*
X120936476Y-115514381D02*
X120936476Y-114514381D01*
X120365047Y-115514381D02*
X120793619Y-114942952D01*
X120365047Y-114514381D02*
X120936476Y-115085810D01*
X119984095Y-115466762D02*
X119841238Y-115514381D01*
X119603142Y-115514381D01*
X119507904Y-115466762D01*
X119460285Y-115419143D01*
X119412666Y-115323905D01*
X119412666Y-115228667D01*
X119460285Y-115133429D01*
X119507904Y-115085810D01*
X119603142Y-115038190D01*
X119793619Y-114990571D01*
X119888857Y-114942952D01*
X119936476Y-114895333D01*
X119984095Y-114800095D01*
X119984095Y-114704857D01*
X119936476Y-114609619D01*
X119888857Y-114562000D01*
X119793619Y-114514381D01*
X119555523Y-114514381D01*
X119412666Y-114562000D01*
X134698381Y-117164381D02*
X134698381Y-116164381D01*
X134126952Y-117164381D02*
X134555524Y-116592952D01*
X134126952Y-116164381D02*
X134698381Y-116735810D01*
X133793619Y-116164381D02*
X133555524Y-117164381D01*
X133365047Y-116450095D01*
X133174571Y-117164381D01*
X132936476Y-116164381D01*
X132126952Y-116497714D02*
X132126952Y-117164381D01*
X132365048Y-116116762D02*
X132603143Y-116831048D01*
X131984095Y-116831048D01*
X131746000Y-116164381D02*
X131174571Y-116164381D01*
X131460286Y-117164381D02*
X131460286Y-116164381D01*
X130841238Y-117164381D02*
X130841238Y-116164381D01*
X129031714Y-117069143D02*
X129079333Y-117116762D01*
X129222190Y-117164381D01*
X129317428Y-117164381D01*
X129460286Y-117116762D01*
X129555524Y-117021524D01*
X129603143Y-116926286D01*
X129650762Y-116735810D01*
X129650762Y-116592952D01*
X129603143Y-116402476D01*
X129555524Y-116307238D01*
X129460286Y-116212000D01*
X129317428Y-116164381D01*
X129222190Y-116164381D01*
X129079333Y-116212000D01*
X129031714Y-116259619D01*
X128031714Y-117069143D02*
X128079333Y-117116762D01*
X128222190Y-117164381D01*
X128317428Y-117164381D01*
X128460286Y-117116762D01*
X128555524Y-117021524D01*
X128603143Y-116926286D01*
X128650762Y-116735810D01*
X128650762Y-116592952D01*
X128603143Y-116402476D01*
X128555524Y-116307238D01*
X128460286Y-116212000D01*
X128317428Y-116164381D01*
X128222190Y-116164381D01*
X128079333Y-116212000D01*
X128031714Y-116259619D01*
X127603143Y-116783429D02*
X126841238Y-116783429D01*
X126031714Y-116640571D02*
X125888857Y-116688190D01*
X125841238Y-116735810D01*
X125793619Y-116831048D01*
X125793619Y-116973905D01*
X125841238Y-117069143D01*
X125888857Y-117116762D01*
X125984095Y-117164381D01*
X126365048Y-117164381D01*
X126365048Y-116164381D01*
X126031714Y-116164381D01*
X125936476Y-116212000D01*
X125888857Y-116259619D01*
X125841238Y-116354857D01*
X125841238Y-116450095D01*
X125888857Y-116545333D01*
X125936476Y-116592952D01*
X126031714Y-116640571D01*
X126365048Y-116640571D01*
X125174572Y-116688190D02*
X125174572Y-117164381D01*
X125507905Y-116164381D02*
X125174572Y-116688190D01*
X124841238Y-116164381D01*
X124507905Y-116783429D02*
X123746000Y-116783429D01*
X123317429Y-117116762D02*
X123174572Y-117164381D01*
X122936476Y-117164381D01*
X122841238Y-117116762D01*
X122793619Y-117069143D01*
X122746000Y-116973905D01*
X122746000Y-116878667D01*
X122793619Y-116783429D01*
X122841238Y-116735810D01*
X122936476Y-116688190D01*
X123126953Y-116640571D01*
X123222191Y-116592952D01*
X123269810Y-116545333D01*
X123317429Y-116450095D01*
X123317429Y-116354857D01*
X123269810Y-116259619D01*
X123222191Y-116212000D01*
X123126953Y-116164381D01*
X122888857Y-116164381D01*
X122746000Y-116212000D01*
X122365048Y-116878667D02*
X121888857Y-116878667D01*
X122460286Y-117164381D02*
X122126953Y-116164381D01*
X121793619Y-117164381D01*
X120269809Y-116497714D02*
X120269809Y-117164381D01*
X120507905Y-116116762D02*
X120746000Y-116831048D01*
X120126952Y-116831048D01*
X119746000Y-117069143D02*
X119698381Y-117116762D01*
X119746000Y-117164381D01*
X119793619Y-117116762D01*
X119746000Y-117069143D01*
X119746000Y-117164381D01*
X119079334Y-116164381D02*
X118984095Y-116164381D01*
X118888857Y-116212000D01*
X118841238Y-116259619D01*
X118793619Y-116354857D01*
X118746000Y-116545333D01*
X118746000Y-116783429D01*
X118793619Y-116973905D01*
X118841238Y-117069143D01*
X118888857Y-117116762D01*
X118984095Y-117164381D01*
X119079334Y-117164381D01*
X119174572Y-117116762D01*
X119222191Y-117069143D01*
X119269810Y-116973905D01*
X119317429Y-116783429D01*
X119317429Y-116545333D01*
X119269810Y-116354857D01*
X119222191Y-116259619D01*
X119174572Y-116212000D01*
X119079334Y-116164381D01*
X109071428Y-94102381D02*
X109404762Y-93626190D01*
X109642857Y-94102381D02*
X109642857Y-93102381D01*
X109261904Y-93102381D01*
X109166666Y-93150000D01*
X109119047Y-93197619D01*
X109071428Y-93292857D01*
X109071428Y-93435714D01*
X109119047Y-93530952D01*
X109166666Y-93578571D01*
X109261904Y-93626190D01*
X109642857Y-93626190D01*
X108309523Y-93578571D02*
X108642857Y-93578571D01*
X108642857Y-94102381D02*
X108642857Y-93102381D01*
X108166666Y-93102381D01*
X107023809Y-94102381D02*
X107023809Y-93102381D01*
X106452380Y-94102381D01*
X106452380Y-93102381D01*
X105785714Y-93102381D02*
X105595237Y-93102381D01*
X105499999Y-93150000D01*
X105404761Y-93245238D01*
X105357142Y-93435714D01*
X105357142Y-93769048D01*
X105404761Y-93959524D01*
X105499999Y-94054762D01*
X105595237Y-94102381D01*
X105785714Y-94102381D01*
X105880952Y-94054762D01*
X105976190Y-93959524D01*
X106023809Y-93769048D01*
X106023809Y-93435714D01*
X105976190Y-93245238D01*
X105880952Y-93150000D01*
X105785714Y-93102381D01*
X104928571Y-94102381D02*
X104928571Y-93102381D01*
X104500000Y-94054762D02*
X104357143Y-94102381D01*
X104119047Y-94102381D01*
X104023809Y-94054762D01*
X103976190Y-94007143D01*
X103928571Y-93911905D01*
X103928571Y-93816667D01*
X103976190Y-93721429D01*
X104023809Y-93673810D01*
X104119047Y-93626190D01*
X104309524Y-93578571D01*
X104404762Y-93530952D01*
X104452381Y-93483333D01*
X104500000Y-93388095D01*
X104500000Y-93292857D01*
X104452381Y-93197619D01*
X104404762Y-93150000D01*
X104309524Y-93102381D01*
X104071428Y-93102381D01*
X103928571Y-93150000D01*
X103500000Y-93578571D02*
X103166666Y-93578571D01*
X103023809Y-94102381D02*
X103500000Y-94102381D01*
X103500000Y-93102381D01*
X103023809Y-93102381D01*
X101880952Y-94054762D02*
X101738095Y-94102381D01*
X101499999Y-94102381D01*
X101404761Y-94054762D01*
X101357142Y-94007143D01*
X101309523Y-93911905D01*
X101309523Y-93816667D01*
X101357142Y-93721429D01*
X101404761Y-93673810D01*
X101499999Y-93626190D01*
X101690476Y-93578571D01*
X101785714Y-93530952D01*
X101833333Y-93483333D01*
X101880952Y-93388095D01*
X101880952Y-93292857D01*
X101833333Y-93197619D01*
X101785714Y-93150000D01*
X101690476Y-93102381D01*
X101452380Y-93102381D01*
X101309523Y-93150000D01*
X100690476Y-93102381D02*
X100499999Y-93102381D01*
X100404761Y-93150000D01*
X100309523Y-93245238D01*
X100261904Y-93435714D01*
X100261904Y-93769048D01*
X100309523Y-93959524D01*
X100404761Y-94054762D01*
X100499999Y-94102381D01*
X100690476Y-94102381D01*
X100785714Y-94054762D01*
X100880952Y-93959524D01*
X100928571Y-93769048D01*
X100928571Y-93435714D01*
X100880952Y-93245238D01*
X100785714Y-93150000D01*
X100690476Y-93102381D01*
X99833333Y-93102381D02*
X99833333Y-93911905D01*
X99785714Y-94007143D01*
X99738095Y-94054762D01*
X99642857Y-94102381D01*
X99452380Y-94102381D01*
X99357142Y-94054762D01*
X99309523Y-94007143D01*
X99261904Y-93911905D01*
X99261904Y-93102381D01*
X98214285Y-94102381D02*
X98547619Y-93626190D01*
X98785714Y-94102381D02*
X98785714Y-93102381D01*
X98404761Y-93102381D01*
X98309523Y-93150000D01*
X98261904Y-93197619D01*
X98214285Y-93292857D01*
X98214285Y-93435714D01*
X98261904Y-93530952D01*
X98309523Y-93578571D01*
X98404761Y-93626190D01*
X98785714Y-93626190D01*
X97214285Y-94007143D02*
X97261904Y-94054762D01*
X97404761Y-94102381D01*
X97499999Y-94102381D01*
X97642857Y-94054762D01*
X97738095Y-93959524D01*
X97785714Y-93864286D01*
X97833333Y-93673810D01*
X97833333Y-93530952D01*
X97785714Y-93340476D01*
X97738095Y-93245238D01*
X97642857Y-93150000D01*
X97499999Y-93102381D01*
X97404761Y-93102381D01*
X97261904Y-93150000D01*
X97214285Y-93197619D01*
X96785714Y-93578571D02*
X96452380Y-93578571D01*
X96309523Y-94102381D02*
X96785714Y-94102381D01*
X96785714Y-93102381D01*
X96309523Y-93102381D01*
X109642857Y-95228571D02*
X109500000Y-95276190D01*
X109452381Y-95323810D01*
X109404762Y-95419048D01*
X109404762Y-95561905D01*
X109452381Y-95657143D01*
X109500000Y-95704762D01*
X109595238Y-95752381D01*
X109976191Y-95752381D01*
X109976191Y-94752381D01*
X109642857Y-94752381D01*
X109547619Y-94800000D01*
X109500000Y-94847619D01*
X109452381Y-94942857D01*
X109452381Y-95038095D01*
X109500000Y-95133333D01*
X109547619Y-95180952D01*
X109642857Y-95228571D01*
X109976191Y-95228571D01*
X108785715Y-95276190D02*
X108785715Y-95752381D01*
X109119048Y-94752381D02*
X108785715Y-95276190D01*
X108452381Y-94752381D01*
X107357143Y-95752381D02*
X107357143Y-94752381D01*
X107119048Y-94752381D01*
X106976190Y-94800000D01*
X106880952Y-94895238D01*
X106833333Y-94990476D01*
X106785714Y-95180952D01*
X106785714Y-95323810D01*
X106833333Y-95514286D01*
X106880952Y-95609524D01*
X106976190Y-95704762D01*
X107119048Y-95752381D01*
X107357143Y-95752381D01*
X105595238Y-95752381D02*
X105595238Y-94752381D01*
X105261904Y-95466667D01*
X104928571Y-94752381D01*
X104928571Y-95752381D01*
X104500000Y-95466667D02*
X104023809Y-95466667D01*
X104595238Y-95752381D02*
X104261905Y-94752381D01*
X103928571Y-95752381D01*
X103023809Y-95752381D02*
X103357143Y-95276190D01*
X103595238Y-95752381D02*
X103595238Y-94752381D01*
X103214285Y-94752381D01*
X103119047Y-94800000D01*
X103071428Y-94847619D01*
X103023809Y-94942857D01*
X103023809Y-95085714D01*
X103071428Y-95180952D01*
X103119047Y-95228571D01*
X103214285Y-95276190D01*
X103595238Y-95276190D01*
X102595238Y-95752381D02*
X102595238Y-94752381D01*
X102023809Y-95752381D02*
X102452381Y-95180952D01*
X102023809Y-94752381D02*
X102595238Y-95323810D01*
X101642857Y-95704762D02*
X101500000Y-95752381D01*
X101261904Y-95752381D01*
X101166666Y-95704762D01*
X101119047Y-95657143D01*
X101071428Y-95561905D01*
X101071428Y-95466667D01*
X101119047Y-95371429D01*
X101166666Y-95323810D01*
X101261904Y-95276190D01*
X101452381Y-95228571D01*
X101547619Y-95180952D01*
X101595238Y-95133333D01*
X101642857Y-95038095D01*
X101642857Y-94942857D01*
X101595238Y-94847619D01*
X101547619Y-94800000D01*
X101452381Y-94752381D01*
X101214285Y-94752381D01*
X101071428Y-94800000D01*
X99880952Y-95752381D02*
X99880952Y-94752381D01*
X99309523Y-95752381D02*
X99738095Y-95180952D01*
X99309523Y-94752381D02*
X99880952Y-95323810D01*
X98976190Y-94752381D02*
X98738095Y-95752381D01*
X98547618Y-95038095D01*
X98357142Y-95752381D01*
X98119047Y-94752381D01*
X97309523Y-95085714D02*
X97309523Y-95752381D01*
X97547619Y-94704762D02*
X97785714Y-95419048D01*
X97166666Y-95419048D01*
X96928571Y-94752381D02*
X96357142Y-94752381D01*
X96642857Y-95752381D02*
X96642857Y-94752381D01*
X96023809Y-95752381D02*
X96023809Y-94752381D01*
X107833333Y-97307143D02*
X107880952Y-97354762D01*
X108023809Y-97402381D01*
X108119047Y-97402381D01*
X108261905Y-97354762D01*
X108357143Y-97259524D01*
X108404762Y-97164286D01*
X108452381Y-96973810D01*
X108452381Y-96830952D01*
X108404762Y-96640476D01*
X108357143Y-96545238D01*
X108261905Y-96450000D01*
X108119047Y-96402381D01*
X108023809Y-96402381D01*
X107880952Y-96450000D01*
X107833333Y-96497619D01*
X106833333Y-97307143D02*
X106880952Y-97354762D01*
X107023809Y-97402381D01*
X107119047Y-97402381D01*
X107261905Y-97354762D01*
X107357143Y-97259524D01*
X107404762Y-97164286D01*
X107452381Y-96973810D01*
X107452381Y-96830952D01*
X107404762Y-96640476D01*
X107357143Y-96545238D01*
X107261905Y-96450000D01*
X107119047Y-96402381D01*
X107023809Y-96402381D01*
X106880952Y-96450000D01*
X106833333Y-96497619D01*
X106404762Y-97021429D02*
X105642857Y-97021429D01*
X104833333Y-96878571D02*
X104690476Y-96926190D01*
X104642857Y-96973810D01*
X104595238Y-97069048D01*
X104595238Y-97211905D01*
X104642857Y-97307143D01*
X104690476Y-97354762D01*
X104785714Y-97402381D01*
X105166667Y-97402381D01*
X105166667Y-96402381D01*
X104833333Y-96402381D01*
X104738095Y-96450000D01*
X104690476Y-96497619D01*
X104642857Y-96592857D01*
X104642857Y-96688095D01*
X104690476Y-96783333D01*
X104738095Y-96830952D01*
X104833333Y-96878571D01*
X105166667Y-96878571D01*
X103976191Y-96926190D02*
X103976191Y-97402381D01*
X104309524Y-96402381D02*
X103976191Y-96926190D01*
X103642857Y-96402381D01*
X103309524Y-97021429D02*
X102547619Y-97021429D01*
X102119048Y-97354762D02*
X101976191Y-97402381D01*
X101738095Y-97402381D01*
X101642857Y-97354762D01*
X101595238Y-97307143D01*
X101547619Y-97211905D01*
X101547619Y-97116667D01*
X101595238Y-97021429D01*
X101642857Y-96973810D01*
X101738095Y-96926190D01*
X101928572Y-96878571D01*
X102023810Y-96830952D01*
X102071429Y-96783333D01*
X102119048Y-96688095D01*
X102119048Y-96592857D01*
X102071429Y-96497619D01*
X102023810Y-96450000D01*
X101928572Y-96402381D01*
X101690476Y-96402381D01*
X101547619Y-96450000D01*
X101166667Y-97116667D02*
X100690476Y-97116667D01*
X101261905Y-97402381D02*
X100928572Y-96402381D01*
X100595238Y-97402381D01*
X99071428Y-96735714D02*
X99071428Y-97402381D01*
X99309524Y-96354762D02*
X99547619Y-97069048D01*
X98928571Y-97069048D01*
X98547619Y-97307143D02*
X98500000Y-97354762D01*
X98547619Y-97402381D01*
X98595238Y-97354762D01*
X98547619Y-97307143D01*
X98547619Y-97402381D01*
X97880953Y-96402381D02*
X97785714Y-96402381D01*
X97690476Y-96450000D01*
X97642857Y-96497619D01*
X97595238Y-96592857D01*
X97547619Y-96783333D01*
X97547619Y-97021429D01*
X97595238Y-97211905D01*
X97642857Y-97307143D01*
X97690476Y-97354762D01*
X97785714Y-97402381D01*
X97880953Y-97402381D01*
X97976191Y-97354762D01*
X98023810Y-97307143D01*
X98071429Y-97211905D01*
X98119048Y-97021429D01*
X98119048Y-96783333D01*
X98071429Y-96592857D01*
X98023810Y-96497619D01*
X97976191Y-96450000D01*
X97880953Y-96402381D01*
X136960762Y-37378667D02*
X136484571Y-37378667D01*
X137056000Y-37664381D02*
X136722667Y-36664381D01*
X136389333Y-37664381D01*
X135484571Y-37569143D02*
X135532190Y-37616762D01*
X135675047Y-37664381D01*
X135770285Y-37664381D01*
X135913143Y-37616762D01*
X136008381Y-37521524D01*
X136056000Y-37426286D01*
X136103619Y-37235810D01*
X136103619Y-37092952D01*
X136056000Y-36902476D01*
X136008381Y-36807238D01*
X135913143Y-36712000D01*
X135770285Y-36664381D01*
X135675047Y-36664381D01*
X135532190Y-36712000D01*
X135484571Y-36759619D01*
X135198857Y-36664381D02*
X134627428Y-36664381D01*
X134913143Y-37664381D02*
X134913143Y-36664381D01*
X134294095Y-37664381D02*
X134294095Y-36664381D01*
X133960762Y-36664381D02*
X133627429Y-37664381D01*
X133294095Y-36664381D01*
X132960762Y-37140571D02*
X132627428Y-37140571D01*
X132484571Y-37664381D02*
X132960762Y-37664381D01*
X132960762Y-36664381D01*
X132484571Y-36664381D01*
X130722666Y-37664381D02*
X131056000Y-37188190D01*
X131294095Y-37664381D02*
X131294095Y-36664381D01*
X130913142Y-36664381D01*
X130817904Y-36712000D01*
X130770285Y-36759619D01*
X130722666Y-36854857D01*
X130722666Y-36997714D01*
X130770285Y-37092952D01*
X130817904Y-37140571D01*
X130913142Y-37188190D01*
X131294095Y-37188190D01*
X129960761Y-37140571D02*
X130294095Y-37140571D01*
X130294095Y-37664381D02*
X130294095Y-36664381D01*
X129817904Y-36664381D01*
X128675047Y-37664381D02*
X128675047Y-36664381D01*
X128294094Y-36664381D01*
X128198856Y-36712000D01*
X128151237Y-36759619D01*
X128103618Y-36854857D01*
X128103618Y-36997714D01*
X128151237Y-37092952D01*
X128198856Y-37140571D01*
X128294094Y-37188190D01*
X128675047Y-37188190D01*
X127103618Y-37664381D02*
X127436952Y-37188190D01*
X127675047Y-37664381D02*
X127675047Y-36664381D01*
X127294094Y-36664381D01*
X127198856Y-36712000D01*
X127151237Y-36759619D01*
X127103618Y-36854857D01*
X127103618Y-36997714D01*
X127151237Y-37092952D01*
X127198856Y-37140571D01*
X127294094Y-37188190D01*
X127675047Y-37188190D01*
X126484571Y-36664381D02*
X126294094Y-36664381D01*
X126198856Y-36712000D01*
X126103618Y-36807238D01*
X126055999Y-36997714D01*
X126055999Y-37331048D01*
X126103618Y-37521524D01*
X126198856Y-37616762D01*
X126294094Y-37664381D01*
X126484571Y-37664381D01*
X126579809Y-37616762D01*
X126675047Y-37521524D01*
X126722666Y-37331048D01*
X126722666Y-36997714D01*
X126675047Y-36807238D01*
X126579809Y-36712000D01*
X126484571Y-36664381D01*
X125294094Y-37140571D02*
X125151237Y-37188190D01*
X125103618Y-37235810D01*
X125055999Y-37331048D01*
X125055999Y-37473905D01*
X125103618Y-37569143D01*
X125151237Y-37616762D01*
X125246475Y-37664381D01*
X125627428Y-37664381D01*
X125627428Y-36664381D01*
X125294094Y-36664381D01*
X125198856Y-36712000D01*
X125151237Y-36759619D01*
X125103618Y-36854857D01*
X125103618Y-36950095D01*
X125151237Y-37045333D01*
X125198856Y-37092952D01*
X125294094Y-37140571D01*
X125627428Y-37140571D01*
X124627428Y-37140571D02*
X124294094Y-37140571D01*
X124151237Y-37664381D02*
X124627428Y-37664381D01*
X124627428Y-36664381D01*
X124151237Y-36664381D01*
X137198857Y-38790571D02*
X137056000Y-38838190D01*
X137008381Y-38885810D01*
X136960762Y-38981048D01*
X136960762Y-39123905D01*
X137008381Y-39219143D01*
X137056000Y-39266762D01*
X137151238Y-39314381D01*
X137532191Y-39314381D01*
X137532191Y-38314381D01*
X137198857Y-38314381D01*
X137103619Y-38362000D01*
X137056000Y-38409619D01*
X137008381Y-38504857D01*
X137008381Y-38600095D01*
X137056000Y-38695333D01*
X137103619Y-38742952D01*
X137198857Y-38790571D01*
X137532191Y-38790571D01*
X136341715Y-38838190D02*
X136341715Y-39314381D01*
X136675048Y-38314381D02*
X136341715Y-38838190D01*
X136008381Y-38314381D01*
X134913143Y-39314381D02*
X134913143Y-38314381D01*
X134675048Y-38314381D01*
X134532190Y-38362000D01*
X134436952Y-38457238D01*
X134389333Y-38552476D01*
X134341714Y-38742952D01*
X134341714Y-38885810D01*
X134389333Y-39076286D01*
X134436952Y-39171524D01*
X134532190Y-39266762D01*
X134675048Y-39314381D01*
X134913143Y-39314381D01*
X133151238Y-39314381D02*
X133151238Y-38314381D01*
X132817904Y-39028667D01*
X132484571Y-38314381D01*
X132484571Y-39314381D01*
X132056000Y-39028667D02*
X131579809Y-39028667D01*
X132151238Y-39314381D02*
X131817905Y-38314381D01*
X131484571Y-39314381D01*
X130579809Y-39314381D02*
X130913143Y-38838190D01*
X131151238Y-39314381D02*
X131151238Y-38314381D01*
X130770285Y-38314381D01*
X130675047Y-38362000D01*
X130627428Y-38409619D01*
X130579809Y-38504857D01*
X130579809Y-38647714D01*
X130627428Y-38742952D01*
X130675047Y-38790571D01*
X130770285Y-38838190D01*
X131151238Y-38838190D01*
X130151238Y-39314381D02*
X130151238Y-38314381D01*
X129579809Y-39314381D02*
X130008381Y-38742952D01*
X129579809Y-38314381D02*
X130151238Y-38885810D01*
X129198857Y-39266762D02*
X129056000Y-39314381D01*
X128817904Y-39314381D01*
X128722666Y-39266762D01*
X128675047Y-39219143D01*
X128627428Y-39123905D01*
X128627428Y-39028667D01*
X128675047Y-38933429D01*
X128722666Y-38885810D01*
X128817904Y-38838190D01*
X129008381Y-38790571D01*
X129103619Y-38742952D01*
X129151238Y-38695333D01*
X129198857Y-38600095D01*
X129198857Y-38504857D01*
X129151238Y-38409619D01*
X129103619Y-38362000D01*
X129008381Y-38314381D01*
X128770285Y-38314381D01*
X128627428Y-38362000D01*
X127436952Y-39314381D02*
X127436952Y-38314381D01*
X126865523Y-39314381D02*
X127294095Y-38742952D01*
X126865523Y-38314381D02*
X127436952Y-38885810D01*
X126532190Y-38314381D02*
X126294095Y-39314381D01*
X126103618Y-38600095D01*
X125913142Y-39314381D01*
X125675047Y-38314381D01*
X124865523Y-38647714D02*
X124865523Y-39314381D01*
X125103619Y-38266762D02*
X125341714Y-38981048D01*
X124722666Y-38981048D01*
X124484571Y-38314381D02*
X123913142Y-38314381D01*
X124198857Y-39314381D02*
X124198857Y-38314381D01*
X123579809Y-39314381D02*
X123579809Y-38314381D01*
X135389333Y-40869143D02*
X135436952Y-40916762D01*
X135579809Y-40964381D01*
X135675047Y-40964381D01*
X135817905Y-40916762D01*
X135913143Y-40821524D01*
X135960762Y-40726286D01*
X136008381Y-40535810D01*
X136008381Y-40392952D01*
X135960762Y-40202476D01*
X135913143Y-40107238D01*
X135817905Y-40012000D01*
X135675047Y-39964381D01*
X135579809Y-39964381D01*
X135436952Y-40012000D01*
X135389333Y-40059619D01*
X134389333Y-40869143D02*
X134436952Y-40916762D01*
X134579809Y-40964381D01*
X134675047Y-40964381D01*
X134817905Y-40916762D01*
X134913143Y-40821524D01*
X134960762Y-40726286D01*
X135008381Y-40535810D01*
X135008381Y-40392952D01*
X134960762Y-40202476D01*
X134913143Y-40107238D01*
X134817905Y-40012000D01*
X134675047Y-39964381D01*
X134579809Y-39964381D01*
X134436952Y-40012000D01*
X134389333Y-40059619D01*
X133960762Y-40583429D02*
X133198857Y-40583429D01*
X132389333Y-40440571D02*
X132246476Y-40488190D01*
X132198857Y-40535810D01*
X132151238Y-40631048D01*
X132151238Y-40773905D01*
X132198857Y-40869143D01*
X132246476Y-40916762D01*
X132341714Y-40964381D01*
X132722667Y-40964381D01*
X132722667Y-39964381D01*
X132389333Y-39964381D01*
X132294095Y-40012000D01*
X132246476Y-40059619D01*
X132198857Y-40154857D01*
X132198857Y-40250095D01*
X132246476Y-40345333D01*
X132294095Y-40392952D01*
X132389333Y-40440571D01*
X132722667Y-40440571D01*
X131532191Y-40488190D02*
X131532191Y-40964381D01*
X131865524Y-39964381D02*
X131532191Y-40488190D01*
X131198857Y-39964381D01*
X130865524Y-40583429D02*
X130103619Y-40583429D01*
X129675048Y-40916762D02*
X129532191Y-40964381D01*
X129294095Y-40964381D01*
X129198857Y-40916762D01*
X129151238Y-40869143D01*
X129103619Y-40773905D01*
X129103619Y-40678667D01*
X129151238Y-40583429D01*
X129198857Y-40535810D01*
X129294095Y-40488190D01*
X129484572Y-40440571D01*
X129579810Y-40392952D01*
X129627429Y-40345333D01*
X129675048Y-40250095D01*
X129675048Y-40154857D01*
X129627429Y-40059619D01*
X129579810Y-40012000D01*
X129484572Y-39964381D01*
X129246476Y-39964381D01*
X129103619Y-40012000D01*
X128722667Y-40678667D02*
X128246476Y-40678667D01*
X128817905Y-40964381D02*
X128484572Y-39964381D01*
X128151238Y-40964381D01*
X126627428Y-40297714D02*
X126627428Y-40964381D01*
X126865524Y-39916762D02*
X127103619Y-40631048D01*
X126484571Y-40631048D01*
X126103619Y-40869143D02*
X126056000Y-40916762D01*
X126103619Y-40964381D01*
X126151238Y-40916762D01*
X126103619Y-40869143D01*
X126103619Y-40964381D01*
X125436953Y-39964381D02*
X125341714Y-39964381D01*
X125246476Y-40012000D01*
X125198857Y-40059619D01*
X125151238Y-40154857D01*
X125103619Y-40345333D01*
X125103619Y-40583429D01*
X125151238Y-40773905D01*
X125198857Y-40869143D01*
X125246476Y-40916762D01*
X125341714Y-40964381D01*
X125436953Y-40964381D01*
X125532191Y-40916762D01*
X125579810Y-40869143D01*
X125627429Y-40773905D01*
X125675048Y-40583429D01*
X125675048Y-40345333D01*
X125627429Y-40154857D01*
X125579810Y-40059619D01*
X125532191Y-40012000D01*
X125436953Y-39964381D01*
X109519047Y-42552381D02*
X109852381Y-42076190D01*
X110090476Y-42552381D02*
X110090476Y-41552381D01*
X109709523Y-41552381D01*
X109614285Y-41600000D01*
X109566666Y-41647619D01*
X109519047Y-41742857D01*
X109519047Y-41885714D01*
X109566666Y-41980952D01*
X109614285Y-42028571D01*
X109709523Y-42076190D01*
X110090476Y-42076190D01*
X108757142Y-42028571D02*
X109090476Y-42028571D01*
X109090476Y-42552381D02*
X109090476Y-41552381D01*
X108614285Y-41552381D01*
X109561904Y-34400000D02*
X109657142Y-34352381D01*
X109799999Y-34352381D01*
X109942857Y-34400000D01*
X110038095Y-34495238D01*
X110085714Y-34590476D01*
X110133333Y-34780952D01*
X110133333Y-34923810D01*
X110085714Y-35114286D01*
X110038095Y-35209524D01*
X109942857Y-35304762D01*
X109799999Y-35352381D01*
X109704761Y-35352381D01*
X109561904Y-35304762D01*
X109514285Y-35257143D01*
X109514285Y-34923810D01*
X109704761Y-34923810D01*
X109085714Y-35352381D02*
X109085714Y-34352381D01*
X108514285Y-35352381D01*
X108514285Y-34352381D01*
X108038095Y-35352381D02*
X108038095Y-34352381D01*
X107800000Y-34352381D01*
X107657142Y-34400000D01*
X107561904Y-34495238D01*
X107514285Y-34590476D01*
X107466666Y-34780952D01*
X107466666Y-34923810D01*
X107514285Y-35114286D01*
X107561904Y-35209524D01*
X107657142Y-35304762D01*
X107800000Y-35352381D01*
X108038095Y-35352381D01*
X109761904Y-126800000D02*
X109857142Y-126752381D01*
X109999999Y-126752381D01*
X110142857Y-126800000D01*
X110238095Y-126895238D01*
X110285714Y-126990476D01*
X110333333Y-127180952D01*
X110333333Y-127323810D01*
X110285714Y-127514286D01*
X110238095Y-127609524D01*
X110142857Y-127704762D01*
X109999999Y-127752381D01*
X109904761Y-127752381D01*
X109761904Y-127704762D01*
X109714285Y-127657143D01*
X109714285Y-127323810D01*
X109904761Y-127323810D01*
X109285714Y-127752381D02*
X109285714Y-126752381D01*
X108714285Y-127752381D01*
X108714285Y-126752381D01*
X108238095Y-127752381D02*
X108238095Y-126752381D01*
X108000000Y-126752381D01*
X107857142Y-126800000D01*
X107761904Y-126895238D01*
X107714285Y-126990476D01*
X107666666Y-127180952D01*
X107666666Y-127323810D01*
X107714285Y-127514286D01*
X107761904Y-127609524D01*
X107857142Y-127704762D01*
X108000000Y-127752381D01*
X108238095Y-127752381D01*
X109661904Y-116200000D02*
X109757142Y-116152381D01*
X109899999Y-116152381D01*
X110042857Y-116200000D01*
X110138095Y-116295238D01*
X110185714Y-116390476D01*
X110233333Y-116580952D01*
X110233333Y-116723810D01*
X110185714Y-116914286D01*
X110138095Y-117009524D01*
X110042857Y-117104762D01*
X109899999Y-117152381D01*
X109804761Y-117152381D01*
X109661904Y-117104762D01*
X109614285Y-117057143D01*
X109614285Y-116723810D01*
X109804761Y-116723810D01*
X109185714Y-117152381D02*
X109185714Y-116152381D01*
X108614285Y-117152381D01*
X108614285Y-116152381D01*
X108138095Y-117152381D02*
X108138095Y-116152381D01*
X107900000Y-116152381D01*
X107757142Y-116200000D01*
X107661904Y-116295238D01*
X107614285Y-116390476D01*
X107566666Y-116580952D01*
X107566666Y-116723810D01*
X107614285Y-116914286D01*
X107661904Y-117009524D01*
X107757142Y-117104762D01*
X107900000Y-117152381D01*
X108138095Y-117152381D01*
X109119047Y-122752381D02*
X109452381Y-122276190D01*
X109690476Y-122752381D02*
X109690476Y-121752381D01*
X109309523Y-121752381D01*
X109214285Y-121800000D01*
X109166666Y-121847619D01*
X109119047Y-121942857D01*
X109119047Y-122085714D01*
X109166666Y-122180952D01*
X109214285Y-122228571D01*
X109309523Y-122276190D01*
X109690476Y-122276190D01*
X108357142Y-122228571D02*
X108690476Y-122228571D01*
X108690476Y-122752381D02*
X108690476Y-121752381D01*
X108214285Y-121752381D01*
X109019047Y-112052381D02*
X109352381Y-111576190D01*
X109590476Y-112052381D02*
X109590476Y-111052381D01*
X109209523Y-111052381D01*
X109114285Y-111100000D01*
X109066666Y-111147619D01*
X109019047Y-111242857D01*
X109019047Y-111385714D01*
X109066666Y-111480952D01*
X109114285Y-111528571D01*
X109209523Y-111576190D01*
X109590476Y-111576190D01*
X108257142Y-111528571D02*
X108590476Y-111528571D01*
X108590476Y-112052381D02*
X108590476Y-111052381D01*
X108114285Y-111052381D01*
X143516667Y-108452381D02*
X143516667Y-108928572D01*
X143802381Y-108357143D02*
X142802381Y-108690476D01*
X143802381Y-109023810D01*
X143707143Y-109928572D02*
X143754762Y-109880953D01*
X143802381Y-109738096D01*
X143802381Y-109642858D01*
X143754762Y-109500000D01*
X143659524Y-109404762D01*
X143564286Y-109357143D01*
X143373810Y-109309524D01*
X143230952Y-109309524D01*
X143040476Y-109357143D01*
X142945238Y-109404762D01*
X142850000Y-109500000D01*
X142802381Y-109642858D01*
X142802381Y-109738096D01*
X142850000Y-109880953D01*
X142897619Y-109928572D01*
X142802381Y-110214286D02*
X142802381Y-110785715D01*
X143802381Y-110500000D02*
X142802381Y-110500000D01*
X143802381Y-111119048D02*
X142802381Y-111119048D01*
X142802381Y-111452381D02*
X143802381Y-111785714D01*
X142802381Y-112119048D01*
X143278571Y-112452381D02*
X143278571Y-112785715D01*
X143802381Y-112928572D02*
X143802381Y-112452381D01*
X142802381Y-112452381D01*
X142802381Y-112928572D01*
X143802381Y-114690477D02*
X143326190Y-114357143D01*
X143802381Y-114119048D02*
X142802381Y-114119048D01*
X142802381Y-114500001D01*
X142850000Y-114595239D01*
X142897619Y-114642858D01*
X142992857Y-114690477D01*
X143135714Y-114690477D01*
X143230952Y-114642858D01*
X143278571Y-114595239D01*
X143326190Y-114500001D01*
X143326190Y-114119048D01*
X143278571Y-115452382D02*
X143278571Y-115119048D01*
X143802381Y-115119048D02*
X142802381Y-115119048D01*
X142802381Y-115595239D01*
X145452381Y-107261905D02*
X144452381Y-107261905D01*
X144452381Y-107500000D01*
X144500000Y-107642858D01*
X144595238Y-107738096D01*
X144690476Y-107785715D01*
X144880952Y-107833334D01*
X145023810Y-107833334D01*
X145214286Y-107785715D01*
X145309524Y-107738096D01*
X145404762Y-107642858D01*
X145452381Y-107500000D01*
X145452381Y-107261905D01*
X145452381Y-108261905D02*
X144452381Y-108261905D01*
X144928571Y-109071429D02*
X144928571Y-108738095D01*
X145452381Y-108738095D02*
X144452381Y-108738095D01*
X144452381Y-109214286D01*
X144928571Y-109928572D02*
X144928571Y-109595238D01*
X145452381Y-109595238D02*
X144452381Y-109595238D01*
X144452381Y-110071429D01*
X144928571Y-110452381D02*
X144928571Y-110785715D01*
X145452381Y-110928572D02*
X145452381Y-110452381D01*
X144452381Y-110452381D01*
X144452381Y-110928572D01*
X145452381Y-111928572D02*
X144976190Y-111595238D01*
X145452381Y-111357143D02*
X144452381Y-111357143D01*
X144452381Y-111738096D01*
X144500000Y-111833334D01*
X144547619Y-111880953D01*
X144642857Y-111928572D01*
X144785714Y-111928572D01*
X144880952Y-111880953D01*
X144928571Y-111833334D01*
X144976190Y-111738096D01*
X144976190Y-111357143D01*
X144928571Y-112357143D02*
X144928571Y-112690477D01*
X145452381Y-112833334D02*
X145452381Y-112357143D01*
X144452381Y-112357143D01*
X144452381Y-112833334D01*
X145452381Y-113261905D02*
X144452381Y-113261905D01*
X145452381Y-113833334D01*
X144452381Y-113833334D01*
X144452381Y-114166667D02*
X144452381Y-114738096D01*
X145452381Y-114452381D02*
X144452381Y-114452381D01*
X145452381Y-115071429D02*
X144452381Y-115071429D01*
X145166667Y-115500000D02*
X145166667Y-115976191D01*
X145452381Y-115404762D02*
X144452381Y-115738095D01*
X145452381Y-116071429D01*
X145452381Y-116880953D02*
X145452381Y-116404762D01*
X144452381Y-116404762D01*
X147102381Y-109761905D02*
X146102381Y-109761905D01*
X146102381Y-110142858D01*
X146150000Y-110238096D01*
X146197619Y-110285715D01*
X146292857Y-110333334D01*
X146435714Y-110333334D01*
X146530952Y-110285715D01*
X146578571Y-110238096D01*
X146626190Y-110142858D01*
X146626190Y-109761905D01*
X147102381Y-111333334D02*
X146626190Y-111000000D01*
X147102381Y-110761905D02*
X146102381Y-110761905D01*
X146102381Y-111142858D01*
X146150000Y-111238096D01*
X146197619Y-111285715D01*
X146292857Y-111333334D01*
X146435714Y-111333334D01*
X146530952Y-111285715D01*
X146578571Y-111238096D01*
X146626190Y-111142858D01*
X146626190Y-110761905D01*
X146102381Y-111952381D02*
X146102381Y-112142858D01*
X146150000Y-112238096D01*
X146245238Y-112333334D01*
X146435714Y-112380953D01*
X146769048Y-112380953D01*
X146959524Y-112333334D01*
X147054762Y-112238096D01*
X147102381Y-112142858D01*
X147102381Y-111952381D01*
X147054762Y-111857143D01*
X146959524Y-111761905D01*
X146769048Y-111714286D01*
X146435714Y-111714286D01*
X146245238Y-111761905D01*
X146150000Y-111857143D01*
X146102381Y-111952381D01*
X146578571Y-113142858D02*
X146626190Y-113285715D01*
X146673810Y-113333334D01*
X146769048Y-113380953D01*
X146911905Y-113380953D01*
X147007143Y-113333334D01*
X147054762Y-113285715D01*
X147102381Y-113190477D01*
X147102381Y-112809524D01*
X146102381Y-112809524D01*
X146102381Y-113142858D01*
X146150000Y-113238096D01*
X146197619Y-113285715D01*
X146292857Y-113333334D01*
X146388095Y-113333334D01*
X146483333Y-113285715D01*
X146530952Y-113238096D01*
X146578571Y-113142858D01*
X146578571Y-112809524D01*
X146578571Y-113809524D02*
X146578571Y-114142858D01*
X147102381Y-114285715D02*
X147102381Y-113809524D01*
X146102381Y-113809524D01*
X146102381Y-114285715D01*
X140129762Y-86761905D02*
X140177381Y-86904762D01*
X140177381Y-87142858D01*
X140129762Y-87238096D01*
X140082143Y-87285715D01*
X139986905Y-87333334D01*
X139891667Y-87333334D01*
X139796429Y-87285715D01*
X139748810Y-87238096D01*
X139701190Y-87142858D01*
X139653571Y-86952381D01*
X139605952Y-86857143D01*
X139558333Y-86809524D01*
X139463095Y-86761905D01*
X139367857Y-86761905D01*
X139272619Y-86809524D01*
X139225000Y-86857143D01*
X139177381Y-86952381D01*
X139177381Y-87190477D01*
X139225000Y-87333334D01*
X140177381Y-87761905D02*
X139177381Y-87761905D01*
X139653571Y-87761905D02*
X139653571Y-88333334D01*
X140177381Y-88333334D02*
X139177381Y-88333334D01*
X139177381Y-88809524D02*
X139986905Y-88809524D01*
X140082143Y-88857143D01*
X140129762Y-88904762D01*
X140177381Y-89000000D01*
X140177381Y-89190477D01*
X140129762Y-89285715D01*
X140082143Y-89333334D01*
X139986905Y-89380953D01*
X139177381Y-89380953D01*
X140177381Y-89857143D02*
X139177381Y-89857143D01*
X140177381Y-90428572D01*
X139177381Y-90428572D01*
X139177381Y-90761905D02*
X139177381Y-91333334D01*
X140177381Y-91047619D02*
X139177381Y-91047619D01*
X141541667Y-85428572D02*
X141541667Y-85904763D01*
X141827381Y-85333334D02*
X140827381Y-85666667D01*
X141827381Y-86000001D01*
X141827381Y-86333334D02*
X140827381Y-86333334D01*
X141541667Y-86666668D01*
X140827381Y-87000001D01*
X141827381Y-87000001D01*
X141827381Y-87476191D02*
X140827381Y-87476191D01*
X140827381Y-87857144D01*
X140875000Y-87952382D01*
X140922619Y-88000001D01*
X141017857Y-88047620D01*
X141160714Y-88047620D01*
X141255952Y-88000001D01*
X141303571Y-87952382D01*
X141351190Y-87857144D01*
X141351190Y-87476191D01*
X141827381Y-88952382D02*
X141827381Y-88476191D01*
X140827381Y-88476191D01*
X141827381Y-89285715D02*
X140827381Y-89285715D01*
X141303571Y-90095239D02*
X141303571Y-89761905D01*
X141827381Y-89761905D02*
X140827381Y-89761905D01*
X140827381Y-90238096D01*
X141827381Y-90619048D02*
X140827381Y-90619048D01*
X141303571Y-91095238D02*
X141303571Y-91428572D01*
X141827381Y-91571429D02*
X141827381Y-91095238D01*
X140827381Y-91095238D01*
X140827381Y-91571429D01*
X141827381Y-92000000D02*
X140827381Y-92000000D01*
X140827381Y-92238095D01*
X140875000Y-92380953D01*
X140970238Y-92476191D01*
X141065476Y-92523810D01*
X141255952Y-92571429D01*
X141398810Y-92571429D01*
X141589286Y-92523810D01*
X141684524Y-92476191D01*
X141779762Y-92380953D01*
X141827381Y-92238095D01*
X141827381Y-92000000D01*
X143477381Y-87023810D02*
X142477381Y-87023810D01*
X143477381Y-87595239D01*
X142477381Y-87595239D01*
X142477381Y-88261905D02*
X142477381Y-88452382D01*
X142525000Y-88547620D01*
X142620238Y-88642858D01*
X142810714Y-88690477D01*
X143144048Y-88690477D01*
X143334524Y-88642858D01*
X143429762Y-88547620D01*
X143477381Y-88452382D01*
X143477381Y-88261905D01*
X143429762Y-88166667D01*
X143334524Y-88071429D01*
X143144048Y-88023810D01*
X142810714Y-88023810D01*
X142620238Y-88071429D01*
X142525000Y-88166667D01*
X142477381Y-88261905D01*
X143477381Y-89119048D02*
X142477381Y-89119048D01*
X143429762Y-89547619D02*
X143477381Y-89690476D01*
X143477381Y-89928572D01*
X143429762Y-90023810D01*
X143382143Y-90071429D01*
X143286905Y-90119048D01*
X143191667Y-90119048D01*
X143096429Y-90071429D01*
X143048810Y-90023810D01*
X143001190Y-89928572D01*
X142953571Y-89738095D01*
X142905952Y-89642857D01*
X142858333Y-89595238D01*
X142763095Y-89547619D01*
X142667857Y-89547619D01*
X142572619Y-89595238D01*
X142525000Y-89642857D01*
X142477381Y-89738095D01*
X142477381Y-89976191D01*
X142525000Y-90119048D01*
X142953571Y-90547619D02*
X142953571Y-90880953D01*
X143477381Y-91023810D02*
X143477381Y-90547619D01*
X142477381Y-90547619D01*
X142477381Y-91023810D01*
X145079762Y-86214286D02*
X145127381Y-86357143D01*
X145127381Y-86595239D01*
X145079762Y-86690477D01*
X145032143Y-86738096D01*
X144936905Y-86785715D01*
X144841667Y-86785715D01*
X144746429Y-86738096D01*
X144698810Y-86690477D01*
X144651190Y-86595239D01*
X144603571Y-86404762D01*
X144555952Y-86309524D01*
X144508333Y-86261905D01*
X144413095Y-86214286D01*
X144317857Y-86214286D01*
X144222619Y-86261905D01*
X144175000Y-86309524D01*
X144127381Y-86404762D01*
X144127381Y-86642858D01*
X144175000Y-86785715D01*
X144127381Y-87404762D02*
X144127381Y-87595239D01*
X144175000Y-87690477D01*
X144270238Y-87785715D01*
X144460714Y-87833334D01*
X144794048Y-87833334D01*
X144984524Y-87785715D01*
X145079762Y-87690477D01*
X145127381Y-87595239D01*
X145127381Y-87404762D01*
X145079762Y-87309524D01*
X144984524Y-87214286D01*
X144794048Y-87166667D01*
X144460714Y-87166667D01*
X144270238Y-87214286D01*
X144175000Y-87309524D01*
X144127381Y-87404762D01*
X144127381Y-88261905D02*
X144936905Y-88261905D01*
X145032143Y-88309524D01*
X145079762Y-88357143D01*
X145127381Y-88452381D01*
X145127381Y-88642858D01*
X145079762Y-88738096D01*
X145032143Y-88785715D01*
X144936905Y-88833334D01*
X144127381Y-88833334D01*
X145127381Y-89880953D02*
X144651190Y-89547619D01*
X145127381Y-89309524D02*
X144127381Y-89309524D01*
X144127381Y-89690477D01*
X144175000Y-89785715D01*
X144222619Y-89833334D01*
X144317857Y-89880953D01*
X144460714Y-89880953D01*
X144555952Y-89833334D01*
X144603571Y-89785715D01*
X144651190Y-89690477D01*
X144651190Y-89309524D01*
X145032143Y-90880953D02*
X145079762Y-90833334D01*
X145127381Y-90690477D01*
X145127381Y-90595239D01*
X145079762Y-90452381D01*
X144984524Y-90357143D01*
X144889286Y-90309524D01*
X144698810Y-90261905D01*
X144555952Y-90261905D01*
X144365476Y-90309524D01*
X144270238Y-90357143D01*
X144175000Y-90452381D01*
X144127381Y-90595239D01*
X144127381Y-90690477D01*
X144175000Y-90833334D01*
X144222619Y-90880953D01*
X144603571Y-91309524D02*
X144603571Y-91642858D01*
X145127381Y-91785715D02*
X145127381Y-91309524D01*
X144127381Y-91309524D01*
X144127381Y-91785715D01*
X140129762Y-70795238D02*
X140177381Y-70938095D01*
X140177381Y-71176191D01*
X140129762Y-71271429D01*
X140082143Y-71319048D01*
X139986905Y-71366667D01*
X139891667Y-71366667D01*
X139796429Y-71319048D01*
X139748810Y-71271429D01*
X139701190Y-71176191D01*
X139653571Y-70985714D01*
X139605952Y-70890476D01*
X139558333Y-70842857D01*
X139463095Y-70795238D01*
X139367857Y-70795238D01*
X139272619Y-70842857D01*
X139225000Y-70890476D01*
X139177381Y-70985714D01*
X139177381Y-71223810D01*
X139225000Y-71366667D01*
X139653571Y-71795238D02*
X139653571Y-72128572D01*
X140177381Y-72271429D02*
X140177381Y-71795238D01*
X139177381Y-71795238D01*
X139177381Y-72271429D01*
X140177381Y-73271429D02*
X139701190Y-72938095D01*
X140177381Y-72700000D02*
X139177381Y-72700000D01*
X139177381Y-73080953D01*
X139225000Y-73176191D01*
X139272619Y-73223810D01*
X139367857Y-73271429D01*
X139510714Y-73271429D01*
X139605952Y-73223810D01*
X139653571Y-73176191D01*
X139701190Y-73080953D01*
X139701190Y-72700000D01*
X140177381Y-73700000D02*
X139177381Y-73700000D01*
X139653571Y-74176190D02*
X139653571Y-74509524D01*
X140177381Y-74652381D02*
X140177381Y-74176190D01*
X139177381Y-74176190D01*
X139177381Y-74652381D01*
X140129762Y-75033333D02*
X140177381Y-75176190D01*
X140177381Y-75414286D01*
X140129762Y-75509524D01*
X140082143Y-75557143D01*
X139986905Y-75604762D01*
X139891667Y-75604762D01*
X139796429Y-75557143D01*
X139748810Y-75509524D01*
X139701190Y-75414286D01*
X139653571Y-75223809D01*
X139605952Y-75128571D01*
X139558333Y-75080952D01*
X139463095Y-75033333D01*
X139367857Y-75033333D01*
X139272619Y-75080952D01*
X139225000Y-75128571D01*
X139177381Y-75223809D01*
X139177381Y-75461905D01*
X139225000Y-75604762D01*
X140827381Y-68628572D02*
X141636905Y-68628572D01*
X141732143Y-68676191D01*
X141779762Y-68723810D01*
X141827381Y-68819048D01*
X141827381Y-69009525D01*
X141779762Y-69104763D01*
X141732143Y-69152382D01*
X141636905Y-69200001D01*
X140827381Y-69200001D01*
X141827381Y-69676191D02*
X140827381Y-69676191D01*
X141827381Y-70247620D01*
X140827381Y-70247620D01*
X141541667Y-70676191D02*
X141541667Y-71152382D01*
X141827381Y-70580953D02*
X140827381Y-70914286D01*
X141827381Y-71247620D01*
X141827381Y-71580953D02*
X140827381Y-71580953D01*
X141541667Y-71914287D01*
X140827381Y-72247620D01*
X141827381Y-72247620D01*
X141827381Y-72723810D02*
X140827381Y-72723810D01*
X140827381Y-73104763D01*
X140875000Y-73200001D01*
X140922619Y-73247620D01*
X141017857Y-73295239D01*
X141160714Y-73295239D01*
X141255952Y-73247620D01*
X141303571Y-73200001D01*
X141351190Y-73104763D01*
X141351190Y-72723810D01*
X141827381Y-74200001D02*
X141827381Y-73723810D01*
X140827381Y-73723810D01*
X141827381Y-74533334D02*
X140827381Y-74533334D01*
X141303571Y-75342858D02*
X141303571Y-75009524D01*
X141827381Y-75009524D02*
X140827381Y-75009524D01*
X140827381Y-75485715D01*
X141827381Y-75866667D02*
X140827381Y-75866667D01*
X141303571Y-76342857D02*
X141303571Y-76676191D01*
X141827381Y-76819048D02*
X141827381Y-76342857D01*
X140827381Y-76342857D01*
X140827381Y-76819048D01*
X141827381Y-77247619D02*
X140827381Y-77247619D01*
X140827381Y-77485714D01*
X140875000Y-77628572D01*
X140970238Y-77723810D01*
X141065476Y-77771429D01*
X141255952Y-77819048D01*
X141398810Y-77819048D01*
X141589286Y-77771429D01*
X141684524Y-77723810D01*
X141779762Y-77628572D01*
X141827381Y-77485714D01*
X141827381Y-77247619D01*
X143477381Y-71223810D02*
X142477381Y-71223810D01*
X143477381Y-71795239D01*
X142477381Y-71795239D01*
X142477381Y-72461905D02*
X142477381Y-72652382D01*
X142525000Y-72747620D01*
X142620238Y-72842858D01*
X142810714Y-72890477D01*
X143144048Y-72890477D01*
X143334524Y-72842858D01*
X143429762Y-72747620D01*
X143477381Y-72652382D01*
X143477381Y-72461905D01*
X143429762Y-72366667D01*
X143334524Y-72271429D01*
X143144048Y-72223810D01*
X142810714Y-72223810D01*
X142620238Y-72271429D01*
X142525000Y-72366667D01*
X142477381Y-72461905D01*
X143477381Y-73319048D02*
X142477381Y-73319048D01*
X143429762Y-73747619D02*
X143477381Y-73890476D01*
X143477381Y-74128572D01*
X143429762Y-74223810D01*
X143382143Y-74271429D01*
X143286905Y-74319048D01*
X143191667Y-74319048D01*
X143096429Y-74271429D01*
X143048810Y-74223810D01*
X143001190Y-74128572D01*
X142953571Y-73938095D01*
X142905952Y-73842857D01*
X142858333Y-73795238D01*
X142763095Y-73747619D01*
X142667857Y-73747619D01*
X142572619Y-73795238D01*
X142525000Y-73842857D01*
X142477381Y-73938095D01*
X142477381Y-74176191D01*
X142525000Y-74319048D01*
X142953571Y-74747619D02*
X142953571Y-75080953D01*
X143477381Y-75223810D02*
X143477381Y-74747619D01*
X142477381Y-74747619D01*
X142477381Y-75223810D01*
X145079762Y-70414286D02*
X145127381Y-70557143D01*
X145127381Y-70795239D01*
X145079762Y-70890477D01*
X145032143Y-70938096D01*
X144936905Y-70985715D01*
X144841667Y-70985715D01*
X144746429Y-70938096D01*
X144698810Y-70890477D01*
X144651190Y-70795239D01*
X144603571Y-70604762D01*
X144555952Y-70509524D01*
X144508333Y-70461905D01*
X144413095Y-70414286D01*
X144317857Y-70414286D01*
X144222619Y-70461905D01*
X144175000Y-70509524D01*
X144127381Y-70604762D01*
X144127381Y-70842858D01*
X144175000Y-70985715D01*
X144127381Y-71604762D02*
X144127381Y-71795239D01*
X144175000Y-71890477D01*
X144270238Y-71985715D01*
X144460714Y-72033334D01*
X144794048Y-72033334D01*
X144984524Y-71985715D01*
X145079762Y-71890477D01*
X145127381Y-71795239D01*
X145127381Y-71604762D01*
X145079762Y-71509524D01*
X144984524Y-71414286D01*
X144794048Y-71366667D01*
X144460714Y-71366667D01*
X144270238Y-71414286D01*
X144175000Y-71509524D01*
X144127381Y-71604762D01*
X144127381Y-72461905D02*
X144936905Y-72461905D01*
X145032143Y-72509524D01*
X145079762Y-72557143D01*
X145127381Y-72652381D01*
X145127381Y-72842858D01*
X145079762Y-72938096D01*
X145032143Y-72985715D01*
X144936905Y-73033334D01*
X144127381Y-73033334D01*
X145127381Y-74080953D02*
X144651190Y-73747619D01*
X145127381Y-73509524D02*
X144127381Y-73509524D01*
X144127381Y-73890477D01*
X144175000Y-73985715D01*
X144222619Y-74033334D01*
X144317857Y-74080953D01*
X144460714Y-74080953D01*
X144555952Y-74033334D01*
X144603571Y-73985715D01*
X144651190Y-73890477D01*
X144651190Y-73509524D01*
X145032143Y-75080953D02*
X145079762Y-75033334D01*
X145127381Y-74890477D01*
X145127381Y-74795239D01*
X145079762Y-74652381D01*
X144984524Y-74557143D01*
X144889286Y-74509524D01*
X144698810Y-74461905D01*
X144555952Y-74461905D01*
X144365476Y-74509524D01*
X144270238Y-74557143D01*
X144175000Y-74652381D01*
X144127381Y-74795239D01*
X144127381Y-74890477D01*
X144175000Y-75033334D01*
X144222619Y-75080953D01*
X144603571Y-75509524D02*
X144603571Y-75842858D01*
X145127381Y-75985715D02*
X145127381Y-75509524D01*
X144127381Y-75509524D01*
X144127381Y-75985715D01*
X143703571Y-52300000D02*
X143703571Y-52633334D01*
X144227381Y-52776191D02*
X144227381Y-52300000D01*
X143227381Y-52300000D01*
X143227381Y-52776191D01*
X144227381Y-53204762D02*
X143227381Y-53204762D01*
X144227381Y-53776191D01*
X143227381Y-53776191D01*
X143227381Y-54109524D02*
X144227381Y-54442857D01*
X143227381Y-54776191D01*
X143703571Y-55109524D02*
X143703571Y-55442858D01*
X144227381Y-55585715D02*
X144227381Y-55109524D01*
X143227381Y-55109524D01*
X143227381Y-55585715D01*
X144227381Y-56490477D02*
X144227381Y-56014286D01*
X143227381Y-56014286D01*
X143227381Y-57014286D02*
X143227381Y-57204763D01*
X143275000Y-57300001D01*
X143370238Y-57395239D01*
X143560714Y-57442858D01*
X143894048Y-57442858D01*
X144084524Y-57395239D01*
X144179762Y-57300001D01*
X144227381Y-57204763D01*
X144227381Y-57014286D01*
X144179762Y-56919048D01*
X144084524Y-56823810D01*
X143894048Y-56776191D01*
X143560714Y-56776191D01*
X143370238Y-56823810D01*
X143275000Y-56919048D01*
X143227381Y-57014286D01*
X144227381Y-57871429D02*
X143227381Y-57871429D01*
X143227381Y-58252382D01*
X143275000Y-58347620D01*
X143322619Y-58395239D01*
X143417857Y-58442858D01*
X143560714Y-58442858D01*
X143655952Y-58395239D01*
X143703571Y-58347620D01*
X143751190Y-58252382D01*
X143751190Y-57871429D01*
X143703571Y-58871429D02*
X143703571Y-59204763D01*
X144227381Y-59347620D02*
X144227381Y-58871429D01*
X143227381Y-58871429D01*
X143227381Y-59347620D01*
X144877381Y-54800000D02*
X144877381Y-54990477D01*
X144925000Y-55085715D01*
X145020238Y-55180953D01*
X145210714Y-55228572D01*
X145544048Y-55228572D01*
X145734524Y-55180953D01*
X145829762Y-55085715D01*
X145877381Y-54990477D01*
X145877381Y-54800000D01*
X145829762Y-54704762D01*
X145734524Y-54609524D01*
X145544048Y-54561905D01*
X145210714Y-54561905D01*
X145020238Y-54609524D01*
X144925000Y-54704762D01*
X144877381Y-54800000D01*
X144877381Y-55657143D02*
X145686905Y-55657143D01*
X145782143Y-55704762D01*
X145829762Y-55752381D01*
X145877381Y-55847619D01*
X145877381Y-56038096D01*
X145829762Y-56133334D01*
X145782143Y-56180953D01*
X145686905Y-56228572D01*
X144877381Y-56228572D01*
X144877381Y-56561905D02*
X144877381Y-57133334D01*
X145877381Y-56847619D02*
X144877381Y-56847619D01*
X142716667Y-36452381D02*
X142716667Y-36928572D01*
X143002381Y-36357143D02*
X142002381Y-36690476D01*
X143002381Y-37023810D01*
X142907143Y-37928572D02*
X142954762Y-37880953D01*
X143002381Y-37738096D01*
X143002381Y-37642858D01*
X142954762Y-37500000D01*
X142859524Y-37404762D01*
X142764286Y-37357143D01*
X142573810Y-37309524D01*
X142430952Y-37309524D01*
X142240476Y-37357143D01*
X142145238Y-37404762D01*
X142050000Y-37500000D01*
X142002381Y-37642858D01*
X142002381Y-37738096D01*
X142050000Y-37880953D01*
X142097619Y-37928572D01*
X142002381Y-38214286D02*
X142002381Y-38785715D01*
X143002381Y-38500000D02*
X142002381Y-38500000D01*
X143002381Y-39119048D02*
X142002381Y-39119048D01*
X142002381Y-39452381D02*
X143002381Y-39785714D01*
X142002381Y-40119048D01*
X142478571Y-40452381D02*
X142478571Y-40785715D01*
X143002381Y-40928572D02*
X143002381Y-40452381D01*
X142002381Y-40452381D01*
X142002381Y-40928572D01*
X143002381Y-42690477D02*
X142526190Y-42357143D01*
X143002381Y-42119048D02*
X142002381Y-42119048D01*
X142002381Y-42500001D01*
X142050000Y-42595239D01*
X142097619Y-42642858D01*
X142192857Y-42690477D01*
X142335714Y-42690477D01*
X142430952Y-42642858D01*
X142478571Y-42595239D01*
X142526190Y-42500001D01*
X142526190Y-42119048D01*
X142478571Y-43452382D02*
X142478571Y-43119048D01*
X143002381Y-43119048D02*
X142002381Y-43119048D01*
X142002381Y-43595239D01*
X144652381Y-37761905D02*
X143652381Y-37761905D01*
X143652381Y-38142858D01*
X143700000Y-38238096D01*
X143747619Y-38285715D01*
X143842857Y-38333334D01*
X143985714Y-38333334D01*
X144080952Y-38285715D01*
X144128571Y-38238096D01*
X144176190Y-38142858D01*
X144176190Y-37761905D01*
X144652381Y-39333334D02*
X144176190Y-39000000D01*
X144652381Y-38761905D02*
X143652381Y-38761905D01*
X143652381Y-39142858D01*
X143700000Y-39238096D01*
X143747619Y-39285715D01*
X143842857Y-39333334D01*
X143985714Y-39333334D01*
X144080952Y-39285715D01*
X144128571Y-39238096D01*
X144176190Y-39142858D01*
X144176190Y-38761905D01*
X143652381Y-39952381D02*
X143652381Y-40142858D01*
X143700000Y-40238096D01*
X143795238Y-40333334D01*
X143985714Y-40380953D01*
X144319048Y-40380953D01*
X144509524Y-40333334D01*
X144604762Y-40238096D01*
X144652381Y-40142858D01*
X144652381Y-39952381D01*
X144604762Y-39857143D01*
X144509524Y-39761905D01*
X144319048Y-39714286D01*
X143985714Y-39714286D01*
X143795238Y-39761905D01*
X143700000Y-39857143D01*
X143652381Y-39952381D01*
X144128571Y-41142858D02*
X144176190Y-41285715D01*
X144223810Y-41333334D01*
X144319048Y-41380953D01*
X144461905Y-41380953D01*
X144557143Y-41333334D01*
X144604762Y-41285715D01*
X144652381Y-41190477D01*
X144652381Y-40809524D01*
X143652381Y-40809524D01*
X143652381Y-41142858D01*
X143700000Y-41238096D01*
X143747619Y-41285715D01*
X143842857Y-41333334D01*
X143938095Y-41333334D01*
X144033333Y-41285715D01*
X144080952Y-41238096D01*
X144128571Y-41142858D01*
X144128571Y-40809524D01*
X144128571Y-41809524D02*
X144128571Y-42142858D01*
X144652381Y-42285715D02*
X144652381Y-41809524D01*
X143652381Y-41809524D01*
X143652381Y-42285715D01*
X145302381Y-39000000D02*
X145302381Y-39190477D01*
X145350000Y-39285715D01*
X145445238Y-39380953D01*
X145635714Y-39428572D01*
X145969048Y-39428572D01*
X146159524Y-39380953D01*
X146254762Y-39285715D01*
X146302381Y-39190477D01*
X146302381Y-39000000D01*
X146254762Y-38904762D01*
X146159524Y-38809524D01*
X145969048Y-38761905D01*
X145635714Y-38761905D01*
X145445238Y-38809524D01*
X145350000Y-38904762D01*
X145302381Y-39000000D01*
X145302381Y-39857143D02*
X146111905Y-39857143D01*
X146207143Y-39904762D01*
X146254762Y-39952381D01*
X146302381Y-40047619D01*
X146302381Y-40238096D01*
X146254762Y-40333334D01*
X146207143Y-40380953D01*
X146111905Y-40428572D01*
X145302381Y-40428572D01*
X145302381Y-40761905D02*
X145302381Y-41333334D01*
X146302381Y-41047619D02*
X145302381Y-41047619D01*
X143257143Y-34604762D02*
X143114286Y-34652381D01*
X142876190Y-34652381D01*
X142780952Y-34604762D01*
X142733333Y-34557143D01*
X142685714Y-34461905D01*
X142685714Y-34366667D01*
X142733333Y-34271429D01*
X142780952Y-34223810D01*
X142876190Y-34176190D01*
X143066667Y-34128571D01*
X143161905Y-34080952D01*
X143209524Y-34033333D01*
X143257143Y-33938095D01*
X143257143Y-33842857D01*
X143209524Y-33747619D01*
X143161905Y-33700000D01*
X143066667Y-33652381D01*
X142828571Y-33652381D01*
X142685714Y-33700000D01*
X142352381Y-33652381D02*
X142114286Y-34652381D01*
X141923809Y-33938095D01*
X141733333Y-34652381D01*
X141495238Y-33652381D01*
X146857143Y-34404762D02*
X146714286Y-34452381D01*
X146476190Y-34452381D01*
X146380952Y-34404762D01*
X146333333Y-34357143D01*
X146285714Y-34261905D01*
X146285714Y-34166667D01*
X146333333Y-34071429D01*
X146380952Y-34023810D01*
X146476190Y-33976190D01*
X146666667Y-33928571D01*
X146761905Y-33880952D01*
X146809524Y-33833333D01*
X146857143Y-33738095D01*
X146857143Y-33642857D01*
X146809524Y-33547619D01*
X146761905Y-33500000D01*
X146666667Y-33452381D01*
X146428571Y-33452381D01*
X146285714Y-33500000D01*
X145952381Y-33452381D02*
X145714286Y-34452381D01*
X145523809Y-33738095D01*
X145333333Y-34452381D01*
X145095238Y-33452381D01*
X154757142Y-33928571D02*
X154614285Y-33976190D01*
X154566666Y-34023810D01*
X154519047Y-34119048D01*
X154519047Y-34261905D01*
X154566666Y-34357143D01*
X154614285Y-34404762D01*
X154709523Y-34452381D01*
X155090476Y-34452381D01*
X155090476Y-33452381D01*
X154757142Y-33452381D01*
X154661904Y-33500000D01*
X154614285Y-33547619D01*
X154566666Y-33642857D01*
X154566666Y-33738095D01*
X154614285Y-33833333D01*
X154661904Y-33880952D01*
X154757142Y-33928571D01*
X155090476Y-33928571D01*
X154138095Y-34166667D02*
X153661904Y-34166667D01*
X154233333Y-34452381D02*
X153900000Y-33452381D01*
X153566666Y-34452381D01*
X153376190Y-33452381D02*
X152804761Y-33452381D01*
X153090476Y-34452381D02*
X153090476Y-33452381D01*
X152471428Y-34071429D02*
X151709523Y-34071429D01*
X150557142Y-33928571D02*
X150414285Y-33976190D01*
X150366666Y-34023810D01*
X150319047Y-34119048D01*
X150319047Y-34261905D01*
X150366666Y-34357143D01*
X150414285Y-34404762D01*
X150509523Y-34452381D01*
X150890476Y-34452381D01*
X150890476Y-33452381D01*
X150557142Y-33452381D01*
X150461904Y-33500000D01*
X150414285Y-33547619D01*
X150366666Y-33642857D01*
X150366666Y-33738095D01*
X150414285Y-33833333D01*
X150461904Y-33880952D01*
X150557142Y-33928571D01*
X150890476Y-33928571D01*
X149938095Y-34166667D02*
X149461904Y-34166667D01*
X150033333Y-34452381D02*
X149700000Y-33452381D01*
X149366666Y-34452381D01*
X149176190Y-33452381D02*
X148604761Y-33452381D01*
X148890476Y-34452381D02*
X148890476Y-33452381D01*
X148271428Y-34071429D02*
X147509523Y-34071429D01*
X147890475Y-34452381D02*
X147890475Y-33690476D01*
M02*
