G04 #@! TF.FileFunction,Copper,L2,Bot,Signal*
%FSLAX46Y46*%
G04 Gerber Fmt 4.6, Leading zero omitted, Abs format (unit mm)*
G04 Created by KiCad (PCBNEW 4.0.7) date 05/20/20 23:40:47*
%MOMM*%
%LPD*%
G01*
G04 APERTURE LIST*
%ADD10C,0.100000*%
%ADD11R,4.000000X1.500000*%
%ADD12R,2.000000X2.000000*%
%ADD13R,5.080000X2.500000*%
%ADD14R,3.500000X3.500000*%
%ADD15C,2.500000*%
%ADD16R,2.500000X5.080000*%
%ADD17R,1.700000X1.700000*%
%ADD18O,1.700000X1.700000*%
%ADD19C,0.600000*%
%ADD20C,0.350000*%
%ADD21C,0.500000*%
%ADD22C,1.000000*%
%ADD23C,0.250000*%
G04 APERTURE END LIST*
D10*
D11*
X104900000Y-41050000D03*
D12*
X153775000Y-34325000D03*
X142325000Y-34300000D03*
X146175000Y-34275000D03*
X149825000Y-34325000D03*
D11*
X104825000Y-33875000D03*
D13*
X154275000Y-45600000D03*
X154275000Y-38100000D03*
X154000000Y-61750000D03*
X154000000Y-54250000D03*
D14*
X101300000Y-78600000D03*
X95300000Y-78600000D03*
X98300000Y-83300000D03*
D13*
X153500000Y-97750000D03*
X153500000Y-90250000D03*
X153500000Y-81250000D03*
X153500000Y-73750000D03*
D15*
X112460000Y-74000000D03*
X117500000Y-71500000D03*
X117500000Y-76500000D03*
X132760000Y-78270000D03*
X130260000Y-73230000D03*
X135260000Y-73230000D03*
D11*
X103386000Y-124174000D03*
X103386000Y-113506000D03*
D12*
X148598000Y-127476000D03*
D11*
X103386000Y-129254000D03*
D12*
X148598000Y-122396000D03*
X153424000Y-122396000D03*
X153424000Y-127476000D03*
D11*
X103386000Y-118586000D03*
D13*
X153500000Y-116750000D03*
X153500000Y-109250000D03*
X60000000Y-101750000D03*
X60000000Y-109250000D03*
D16*
X79250000Y-129500000D03*
X86750000Y-129500000D03*
D13*
X60000000Y-118750000D03*
X60000000Y-126250000D03*
X59800000Y-67250000D03*
X59800000Y-74750000D03*
X60000000Y-84250000D03*
X60000000Y-91750000D03*
D16*
X61250000Y-129500000D03*
X68750000Y-129500000D03*
D12*
X65625000Y-92425000D03*
X70375000Y-92425000D03*
X70175000Y-88675000D03*
X65725000Y-88650000D03*
D17*
X64600000Y-104700000D03*
D18*
X64600000Y-107240000D03*
D17*
X64750000Y-121500000D03*
D18*
X64750000Y-124040000D03*
D17*
X82930000Y-90410000D03*
D18*
X85470000Y-90410000D03*
D17*
X73875000Y-90100000D03*
D18*
X76415000Y-90100000D03*
D13*
X60000000Y-51250000D03*
X60000000Y-58750000D03*
D16*
X87400000Y-34975000D03*
X79900000Y-34975000D03*
D12*
X66000000Y-40000000D03*
X61000000Y-35000000D03*
X61000000Y-40000000D03*
X66000000Y-35000000D03*
D15*
X96960000Y-91500000D03*
X102000000Y-89000000D03*
X102000000Y-94000000D03*
D19*
X81500000Y-46000000D03*
X147500000Y-98000000D03*
X144000000Y-98000000D03*
X140500000Y-98000000D03*
X137000000Y-98000000D03*
X134500000Y-98000000D03*
X132000000Y-97500000D03*
X149500000Y-98000000D03*
X107200000Y-88700000D03*
X99300000Y-86200000D03*
X97600000Y-86500000D03*
X95600000Y-86600000D03*
X94900000Y-89900000D03*
X94700000Y-93100000D03*
X96400000Y-95000000D03*
X97800000Y-95800000D03*
X99400000Y-95800000D03*
X100500000Y-97000000D03*
X104500000Y-96600000D03*
X109000000Y-96500000D03*
X111300000Y-96500000D03*
X113300000Y-96500000D03*
X116500000Y-96500000D03*
X120000000Y-97000000D03*
X123000000Y-97000000D03*
X126500000Y-97500000D03*
X128500000Y-97500000D03*
X63500000Y-69000000D03*
X113800000Y-94000000D03*
X113700000Y-92800000D03*
X108400000Y-88600000D03*
X106600000Y-90000000D03*
X115900000Y-83500000D03*
X117000000Y-83500000D03*
X116300000Y-86200000D03*
X121700000Y-95100000D03*
X119000000Y-94300000D03*
X120400000Y-93100000D03*
X122350000Y-85130000D03*
X123110000Y-86070000D03*
X124160000Y-87160000D03*
X126490000Y-86800000D03*
X132150000Y-88100000D03*
X120658000Y-85042000D03*
X74410000Y-62310000D03*
X75360000Y-63110000D03*
X77650000Y-63340000D03*
X79550000Y-63530000D03*
X72400000Y-61800000D03*
X88680000Y-63310000D03*
X86970000Y-63390000D03*
X84440000Y-63260000D03*
X81120000Y-63430000D03*
X88700000Y-38230000D03*
X88010000Y-48880000D03*
X88330000Y-46520000D03*
X88390000Y-44160000D03*
X88250000Y-41930000D03*
X88470000Y-40570000D03*
X63500000Y-93000000D03*
X60000000Y-94500000D03*
X58000000Y-94000000D03*
X86970000Y-38030000D03*
X85650000Y-37950000D03*
X58000000Y-61500000D03*
X62000000Y-61000000D03*
X78375000Y-48925000D03*
X88800000Y-53100000D03*
X86060000Y-51540000D03*
X85120000Y-51660000D03*
X84000000Y-51300000D03*
X82800000Y-51320000D03*
X82330000Y-49980000D03*
X82300000Y-49020000D03*
X85020000Y-56820000D03*
X83820000Y-56840000D03*
X81280000Y-56840000D03*
X78940000Y-57030000D03*
X64180000Y-60930000D03*
X66780000Y-60730000D03*
X68030000Y-61710000D03*
X76730000Y-33280000D03*
X77000000Y-34990000D03*
X76960000Y-36630000D03*
X77800000Y-37900000D03*
X78100000Y-40700000D03*
X74710000Y-40400000D03*
X76240000Y-40400000D03*
X78900000Y-42900000D03*
X77110000Y-43220000D03*
X74980000Y-43410000D03*
X74830000Y-45010000D03*
X73090000Y-48130000D03*
X71950000Y-49470000D03*
X70800000Y-51310000D03*
X70000000Y-52500000D03*
X69150000Y-53540000D03*
X66860000Y-53780000D03*
X64000000Y-52500000D03*
X63340000Y-89140000D03*
X72340000Y-92150000D03*
X72140000Y-90790000D03*
X72320000Y-89060000D03*
X72460000Y-87420000D03*
X69230000Y-87110000D03*
X67650000Y-87290000D03*
X64760000Y-87130000D03*
X63500000Y-87500000D03*
X75180000Y-88290000D03*
X75240000Y-86500000D03*
X75020000Y-85140000D03*
X74250000Y-84370000D03*
X72120000Y-84330000D03*
X69450000Y-84290000D03*
X67100000Y-84270000D03*
X65020000Y-84150000D03*
X63070000Y-84330000D03*
X64000000Y-75000000D03*
X80825000Y-87925000D03*
X65500000Y-74000000D03*
X66500000Y-74500000D03*
X68350000Y-75100000D03*
X70030000Y-76620000D03*
X71630000Y-78410000D03*
X73490000Y-80160000D03*
X74830000Y-81650000D03*
X76470000Y-82980000D03*
X78180000Y-84630000D03*
X79780000Y-85930000D03*
X80950000Y-86850000D03*
X63600000Y-67100000D03*
X65270000Y-67390000D03*
X66720000Y-69010000D03*
X68510000Y-70800000D03*
X71080000Y-73040000D03*
X73370000Y-75330000D03*
X75660000Y-78180000D03*
X78370000Y-80510000D03*
X80470000Y-82640000D03*
X82420000Y-84410000D03*
X83760000Y-85920000D03*
X84290000Y-87900000D03*
X86890000Y-88260000D03*
X87900000Y-90280000D03*
X88380000Y-92370000D03*
X88540000Y-94770000D03*
X88460000Y-98180000D03*
X88680000Y-101370000D03*
X88460000Y-104120000D03*
X88460000Y-107190000D03*
X88400000Y-109700000D03*
X88250000Y-112220000D03*
X88450000Y-114660000D03*
X88370000Y-117270000D03*
X88170000Y-120870000D03*
X88630000Y-123610000D03*
X88510000Y-126230000D03*
X124070000Y-48740000D03*
X126000000Y-48760000D03*
X127980000Y-48650000D03*
X129920000Y-48650000D03*
X131720000Y-48710000D03*
X134050000Y-48590000D03*
X135580000Y-48530000D03*
X150620000Y-47740000D03*
X148780000Y-47950000D03*
X146990000Y-48100000D03*
X145050000Y-48140000D03*
X141350000Y-48250000D03*
X156130000Y-36310000D03*
X156130000Y-34800000D03*
X155570000Y-32900000D03*
X153670000Y-32540000D03*
X151220000Y-32560000D03*
X148130000Y-32750000D03*
X144670000Y-32670000D03*
X141120000Y-32560000D03*
X139370000Y-33200000D03*
X136700000Y-32900000D03*
X135000000Y-32710000D03*
X132450000Y-32700000D03*
X130000000Y-33000000D03*
X128450000Y-33000000D03*
X126130000Y-32780000D03*
X123380000Y-32820000D03*
X119800000Y-32800000D03*
X120100000Y-34200000D03*
X96300000Y-75000000D03*
X97100000Y-73400000D03*
X97910000Y-71730000D03*
X98600000Y-69100000D03*
X101490000Y-68870000D03*
X106500000Y-69000000D03*
X109110000Y-69190000D03*
X113270000Y-68850000D03*
X117000000Y-69000000D03*
X118950000Y-68570000D03*
X122180000Y-68820000D03*
X124590000Y-68620000D03*
X126680000Y-68680000D03*
X129160000Y-68980000D03*
X131000000Y-69000000D03*
X132596000Y-69008000D03*
X135500000Y-69500000D03*
X137410000Y-69660000D03*
X140040000Y-69390000D03*
X143950000Y-69390000D03*
X146800000Y-69660000D03*
X149980000Y-69720000D03*
X152610000Y-70840000D03*
X120000000Y-109500000D03*
X153000000Y-106500000D03*
X151630000Y-105040000D03*
X148810000Y-104620000D03*
X146490000Y-104060000D03*
X144060000Y-104200000D03*
X141880000Y-104180000D03*
X140240000Y-104030000D03*
X137720000Y-103760000D03*
X135280000Y-103840000D03*
X132130000Y-103700000D03*
X129620000Y-103700000D03*
X127360000Y-103940000D03*
X123980000Y-104060000D03*
X122300000Y-104200000D03*
X121620000Y-104880000D03*
X121010000Y-106490000D03*
X155420000Y-119060000D03*
X155420000Y-120750000D03*
X155380000Y-122510000D03*
X155460000Y-125080000D03*
X155570000Y-127760000D03*
X155440000Y-129830000D03*
X154870000Y-129590000D03*
X152430000Y-129940000D03*
X147360000Y-129910000D03*
X141080000Y-130190000D03*
X137690000Y-130490000D03*
X133490000Y-130490000D03*
X129400000Y-130200000D03*
X125420000Y-129670000D03*
X122720000Y-129530000D03*
X120920000Y-128870000D03*
X119860000Y-128300000D03*
X117990000Y-127730000D03*
X116200000Y-127650000D03*
X88500000Y-55900000D03*
X89300000Y-55900000D03*
X70000000Y-63100000D03*
X71200000Y-61500000D03*
X80600000Y-41600000D03*
X79100000Y-39900000D03*
X80500000Y-38800000D03*
X74600000Y-35800000D03*
X73600000Y-37100000D03*
X73900000Y-34400000D03*
X76500000Y-56150000D03*
X78950000Y-54250000D03*
X77800000Y-54250000D03*
X73300000Y-53500000D03*
X74550000Y-53425000D03*
X75650000Y-52475000D03*
X75675000Y-49800000D03*
X75825000Y-47950000D03*
X78475000Y-47650000D03*
X76400000Y-98500000D03*
X78000000Y-99375000D03*
X76850000Y-100450000D03*
X76675000Y-96775000D03*
X77950000Y-97800000D03*
X80425000Y-90400000D03*
X79075000Y-88800000D03*
X64850000Y-102225000D03*
X65925000Y-102500000D03*
X65750000Y-114250000D03*
X65600000Y-112200000D03*
X62000000Y-78500000D03*
X58500000Y-78000000D03*
X65750000Y-99875000D03*
X66400000Y-96000000D03*
X62200000Y-96200000D03*
X61500000Y-99500000D03*
X63325000Y-100825000D03*
X58500000Y-99500000D03*
X62000000Y-112000000D03*
X60060000Y-111660000D03*
X58000000Y-112000000D03*
X70200000Y-108000000D03*
X70900000Y-110300000D03*
X69100000Y-107900000D03*
X63600000Y-126150000D03*
X58250000Y-127750000D03*
X58500000Y-81000000D03*
X60000000Y-81000000D03*
X62000000Y-81000000D03*
X60220000Y-115730000D03*
X58140000Y-116210000D03*
X61740000Y-116040000D03*
X88850000Y-130000000D03*
X88660000Y-131600000D03*
X88930000Y-128240000D03*
X77300000Y-131710000D03*
X76700000Y-130300000D03*
X76960000Y-128170000D03*
X59000000Y-131500000D03*
X59000000Y-130000000D03*
X59000000Y-128500000D03*
X71000000Y-128000000D03*
X71280000Y-131860000D03*
X71360000Y-130000000D03*
X77710000Y-121880000D03*
X76880000Y-121900000D03*
X75530000Y-121890000D03*
X75000000Y-122990000D03*
X77580000Y-122980000D03*
X78860000Y-121730000D03*
X79910000Y-123020000D03*
X138184000Y-75136000D03*
X138692000Y-72850000D03*
X137676000Y-72850000D03*
X148550000Y-75180000D03*
X149460000Y-74610000D03*
X150660000Y-75510000D03*
X145070000Y-75180000D03*
X146800000Y-75200000D03*
X145930000Y-74520000D03*
X114900000Y-116100000D03*
X116300000Y-116000000D03*
X117400000Y-115100000D03*
X111514000Y-80692000D03*
X111006000Y-78152000D03*
X119642000Y-80438000D03*
X120658000Y-79168000D03*
X120150000Y-77898000D03*
X134500000Y-129900000D03*
X135700000Y-129100000D03*
X132700000Y-128400000D03*
X142100000Y-124800000D03*
X141600000Y-127300000D03*
X143000000Y-126000000D03*
X142700000Y-119300000D03*
X145400000Y-121000000D03*
X143800000Y-118600000D03*
X133300000Y-119500000D03*
X134300000Y-120500000D03*
X135100000Y-119300000D03*
X114800000Y-127200000D03*
X114200000Y-126200000D03*
X116700000Y-126100000D03*
X117600000Y-119200000D03*
X121000000Y-119700000D03*
X120100000Y-122200000D03*
X121800000Y-120900000D03*
X118600000Y-121900000D03*
X117300000Y-120400000D03*
X118200000Y-110900000D03*
X117400000Y-109700000D03*
X124100000Y-106600000D03*
X123900000Y-108900000D03*
X122690000Y-108426000D03*
X138184000Y-105632000D03*
X136406000Y-106394000D03*
X137676000Y-107918000D03*
X149868000Y-106902000D03*
X146312000Y-106902000D03*
X144788000Y-107918000D03*
X146058000Y-109442000D03*
X147328000Y-108172000D03*
X149106000Y-109442000D03*
X150122000Y-108172000D03*
X138184000Y-117570000D03*
X139454000Y-116554000D03*
X140724000Y-118078000D03*
X138184000Y-119856000D03*
X136406000Y-120364000D03*
X137676000Y-121634000D03*
X148550000Y-50600000D03*
X143100000Y-96000000D03*
X144400000Y-97150000D03*
X145850000Y-95750000D03*
X148100000Y-88750000D03*
X149300000Y-90600000D03*
X149400000Y-87850000D03*
X144600000Y-88950000D03*
X145900000Y-90800000D03*
X146000000Y-88000000D03*
X141900000Y-84550000D03*
X142900000Y-85650000D03*
X141700000Y-87000000D03*
X132100000Y-90650000D03*
X133750000Y-89500000D03*
X128350000Y-95100000D03*
X130050000Y-96350000D03*
X131050000Y-95750000D03*
X111006000Y-93424000D03*
X121420000Y-76374000D03*
X122690000Y-75104000D03*
X123452000Y-78914000D03*
X126246000Y-78660000D03*
X124722000Y-77136000D03*
X131580000Y-70278000D03*
X132850000Y-71548000D03*
X140978000Y-74088000D03*
X143264000Y-74088000D03*
X142248000Y-73072000D03*
X117600000Y-46500000D03*
X120720000Y-48300000D03*
X119400000Y-48200000D03*
X123730000Y-47430000D03*
X121600000Y-48600000D03*
X122240000Y-46010000D03*
X136150000Y-46120000D03*
X136750000Y-47830000D03*
X138670000Y-46470000D03*
X145670000Y-55850000D03*
X151320000Y-50650000D03*
X149675000Y-40925000D03*
X148700000Y-39600000D03*
X145850000Y-40000000D03*
X147090000Y-41120000D03*
X151200000Y-39620000D03*
X121100000Y-39400000D03*
X122700000Y-39400000D03*
X133604000Y-41116000D03*
X133858000Y-38576000D03*
X134874000Y-39846000D03*
X141478000Y-36798000D03*
X140570000Y-36760000D03*
X140580000Y-39160000D03*
X141650000Y-41600000D03*
X143580000Y-41830000D03*
X148250000Y-36710000D03*
D20*
X124590000Y-69620000D02*
X124450000Y-69760000D01*
D21*
X107200000Y-88700000D02*
X107200000Y-87900000D01*
D20*
X149500000Y-98000000D02*
X148500000Y-98000000D01*
X148500000Y-98000000D02*
X147500000Y-98000000D01*
X144000000Y-98000000D02*
X140500000Y-98000000D01*
X137000000Y-98000000D02*
X136840000Y-98160000D01*
X136840000Y-98160000D02*
X134500000Y-98000000D01*
D21*
X97900000Y-86200000D02*
X99300000Y-86200000D01*
X97600000Y-86500000D02*
X97900000Y-86200000D01*
X95600000Y-87200000D02*
X95600000Y-86600000D01*
X94900000Y-89900000D02*
X95600000Y-87200000D01*
X96600000Y-94800000D02*
X94700000Y-93100000D01*
X96400000Y-95000000D02*
X96600000Y-94800000D01*
X98600000Y-96000000D02*
X97800000Y-95800000D01*
X99400000Y-95800000D02*
X98600000Y-96000000D01*
X103000000Y-97000000D02*
X100500000Y-97000000D01*
X104500000Y-96600000D02*
X103000000Y-97000000D01*
X111200000Y-96400000D02*
X109000000Y-96500000D01*
X111300000Y-96500000D02*
X111200000Y-96400000D01*
X116300000Y-96700000D02*
X113300000Y-96500000D01*
X116500000Y-96500000D02*
X116300000Y-96700000D01*
X122900000Y-97100000D02*
X120000000Y-97000000D01*
X123000000Y-97000000D02*
X122900000Y-97100000D01*
X128400000Y-97600000D02*
X126500000Y-97500000D01*
X128500000Y-97500000D02*
X128400000Y-97600000D01*
X99500000Y-86400000D02*
X99300000Y-86200000D01*
X105700000Y-86400000D02*
X99500000Y-86400000D01*
X107200000Y-87900000D02*
X105700000Y-86400000D01*
D20*
X122350000Y-85130000D02*
X123110000Y-85890000D01*
X123110000Y-85890000D02*
X123110000Y-86070000D01*
X124160000Y-87160000D02*
X124520000Y-86800000D01*
X124520000Y-86800000D02*
X126490000Y-86800000D01*
X79550000Y-63530000D02*
X81020000Y-63530000D01*
X73900000Y-61800000D02*
X74410000Y-62310000D01*
X75360000Y-63110000D02*
X75590000Y-63340000D01*
X75590000Y-63340000D02*
X77650000Y-63340000D01*
X72400000Y-61800000D02*
X73900000Y-61800000D01*
X84570000Y-63390000D02*
X86970000Y-63390000D01*
X84440000Y-63260000D02*
X84570000Y-63390000D01*
X81020000Y-63530000D02*
X81120000Y-63430000D01*
X88330000Y-44220000D02*
X88330000Y-46520000D01*
X88390000Y-44160000D02*
X88330000Y-44220000D01*
X88250000Y-40790000D02*
X88250000Y-41930000D01*
X88470000Y-40570000D02*
X88250000Y-40790000D01*
X78375000Y-48925000D02*
X82205000Y-48925000D01*
X87620000Y-53100000D02*
X88800000Y-53100000D01*
X86060000Y-51540000D02*
X87620000Y-53100000D01*
X84550000Y-51260000D02*
X85120000Y-51660000D01*
X84000000Y-51300000D02*
X84550000Y-51260000D01*
X82700000Y-51220000D02*
X82800000Y-51320000D01*
X82490000Y-50140000D02*
X82700000Y-51220000D01*
X82330000Y-49980000D02*
X82490000Y-50140000D01*
X82205000Y-48925000D02*
X82300000Y-49020000D01*
X83840000Y-56820000D02*
X85020000Y-56820000D01*
X83820000Y-56840000D02*
X83840000Y-56820000D01*
X79130000Y-56840000D02*
X81280000Y-56840000D01*
X78940000Y-57030000D02*
X79130000Y-56840000D01*
X64180000Y-60930000D02*
X64380000Y-60730000D01*
X64380000Y-60730000D02*
X66780000Y-60730000D01*
X68030000Y-61710000D02*
X69420000Y-63100000D01*
X69420000Y-63100000D02*
X70000000Y-63100000D01*
X77800000Y-37900000D02*
X77800000Y-37470000D01*
X76730000Y-34720000D02*
X76730000Y-33280000D01*
X77000000Y-34990000D02*
X76730000Y-34720000D01*
X77800000Y-37470000D02*
X76960000Y-36630000D01*
X78100000Y-40700000D02*
X78100000Y-40630000D01*
X77800000Y-40330000D02*
X77800000Y-37900000D01*
X78100000Y-40630000D02*
X77800000Y-40330000D01*
X74710000Y-40400000D02*
X76240000Y-40400000D01*
X75170000Y-43220000D02*
X77110000Y-43220000D01*
X74980000Y-43410000D02*
X75170000Y-43220000D01*
X74830000Y-46390000D02*
X74830000Y-45010000D01*
X73090000Y-48130000D02*
X74830000Y-46390000D01*
X71950000Y-50160000D02*
X71950000Y-49470000D01*
X70800000Y-51310000D02*
X71950000Y-50160000D01*
X69180000Y-53510000D02*
X70000000Y-52500000D01*
X69150000Y-53540000D02*
X69180000Y-53510000D01*
X64930000Y-53780000D02*
X66860000Y-53780000D01*
X64000000Y-52500000D02*
X64930000Y-53780000D01*
X63500000Y-87500000D02*
X63320000Y-88410000D01*
X63340000Y-88430000D02*
X63340000Y-89140000D01*
X63320000Y-88410000D02*
X63340000Y-88430000D01*
X76415000Y-90535000D02*
X74800000Y-92150000D01*
X74800000Y-92150000D02*
X72340000Y-92150000D01*
X72140000Y-90790000D02*
X72320000Y-90610000D01*
X72320000Y-90610000D02*
X72320000Y-89060000D01*
X72460000Y-87420000D02*
X72150000Y-87110000D01*
X72150000Y-87110000D02*
X69230000Y-87110000D01*
X67650000Y-87290000D02*
X67490000Y-87130000D01*
X67490000Y-87130000D02*
X64760000Y-87130000D01*
X63500000Y-87500000D02*
X63380000Y-87620000D01*
X76415000Y-90100000D02*
X76415000Y-90535000D01*
X76415000Y-90100000D02*
X76415000Y-89525000D01*
X76415000Y-89525000D02*
X75180000Y-88290000D01*
X75240000Y-86500000D02*
X75020000Y-86280000D01*
X75020000Y-86280000D02*
X75020000Y-85140000D01*
X74250000Y-84370000D02*
X74210000Y-84330000D01*
X74210000Y-84330000D02*
X72120000Y-84330000D01*
X69450000Y-84290000D02*
X69430000Y-84270000D01*
X69430000Y-84270000D02*
X67100000Y-84270000D01*
X65020000Y-84150000D02*
X64840000Y-84330000D01*
X64840000Y-84330000D02*
X63070000Y-84330000D01*
X65300000Y-74200000D02*
X64000000Y-75000000D01*
X65500000Y-74000000D02*
X65300000Y-74200000D01*
X66500000Y-74770000D02*
X66500000Y-74500000D01*
X68350000Y-75100000D02*
X66500000Y-74770000D01*
X70030000Y-76810000D02*
X70030000Y-76620000D01*
X71630000Y-78410000D02*
X70030000Y-76810000D01*
X73490000Y-80310000D02*
X73490000Y-80160000D01*
X74830000Y-81650000D02*
X73490000Y-80310000D01*
X76530000Y-82980000D02*
X76470000Y-82980000D01*
X78180000Y-84630000D02*
X76530000Y-82980000D01*
X80030000Y-85930000D02*
X79780000Y-85930000D01*
X80950000Y-86850000D02*
X80030000Y-85930000D01*
X65270000Y-67560000D02*
X65270000Y-67390000D01*
X66720000Y-69010000D02*
X65270000Y-67560000D01*
X68840000Y-70800000D02*
X68510000Y-70800000D01*
X71080000Y-73040000D02*
X68840000Y-70800000D01*
X73370000Y-75890000D02*
X73370000Y-75330000D01*
X75660000Y-78180000D02*
X73370000Y-75890000D01*
X78370000Y-80540000D02*
X78370000Y-80510000D01*
X80470000Y-82640000D02*
X78370000Y-80540000D01*
X82420000Y-84880000D02*
X82420000Y-84410000D01*
X83760000Y-85920000D02*
X82420000Y-84880000D01*
X85860000Y-87980000D02*
X84290000Y-87900000D01*
X86890000Y-88260000D02*
X85860000Y-87980000D01*
X87900000Y-91890000D02*
X87900000Y-90280000D01*
X88380000Y-92370000D02*
X87900000Y-91890000D01*
X88540000Y-98100000D02*
X88540000Y-94770000D01*
X88460000Y-98180000D02*
X88540000Y-98100000D01*
X88680000Y-103940000D02*
X88680000Y-101370000D01*
X88460000Y-104120000D02*
X88680000Y-103940000D01*
X88510000Y-109590000D02*
X88460000Y-107190000D01*
X88400000Y-109700000D02*
X88510000Y-109590000D01*
X88450000Y-114660000D02*
X88250000Y-112220000D01*
X88370000Y-120670000D02*
X88370000Y-117270000D01*
X87770000Y-120870000D02*
X87970000Y-120670000D01*
X88630000Y-126110000D02*
X88630000Y-123610000D01*
X88510000Y-126230000D02*
X88630000Y-126110000D01*
X136750000Y-47830000D02*
X136280000Y-47830000D01*
X125980000Y-48740000D02*
X124070000Y-48740000D01*
X126000000Y-48760000D02*
X125980000Y-48740000D01*
X129920000Y-48650000D02*
X127980000Y-48650000D01*
X133930000Y-48710000D02*
X131720000Y-48710000D01*
X134050000Y-48590000D02*
X133930000Y-48710000D01*
X136280000Y-47830000D02*
X135580000Y-48530000D01*
X150620000Y-47740000D02*
X150410000Y-47950000D01*
X150410000Y-47950000D02*
X148780000Y-47950000D01*
X146990000Y-48100000D02*
X146950000Y-48140000D01*
X146950000Y-48140000D02*
X145050000Y-48140000D01*
X141350000Y-48250000D02*
X140930000Y-47830000D01*
X140930000Y-47830000D02*
X136750000Y-47830000D01*
X156130000Y-36310000D02*
X156130000Y-34800000D01*
X155570000Y-32900000D02*
X155210000Y-32540000D01*
X155210000Y-32540000D02*
X153670000Y-32540000D01*
X151220000Y-32560000D02*
X151030000Y-32750000D01*
X151030000Y-32750000D02*
X148130000Y-32750000D01*
X144670000Y-32670000D02*
X144560000Y-32560000D01*
X144560000Y-32560000D02*
X141120000Y-32560000D01*
X139370000Y-33200000D02*
X138100000Y-32800000D01*
X138100000Y-32800000D02*
X136700000Y-32900000D01*
X135000000Y-32710000D02*
X134990000Y-32700000D01*
X134990000Y-32700000D02*
X132450000Y-32700000D01*
X130000000Y-33000000D02*
X129990000Y-32990000D01*
X129990000Y-32990000D02*
X128450000Y-33000000D01*
X126130000Y-32780000D02*
X126090000Y-32820000D01*
X126090000Y-32820000D02*
X123380000Y-32820000D01*
X119800000Y-32800000D02*
X119500000Y-32800000D01*
X119500000Y-32800000D02*
X120100000Y-34200000D01*
X132596000Y-69008000D02*
X131938000Y-69008000D01*
X96300000Y-74770000D02*
X96300000Y-75000000D01*
X97100000Y-73400000D02*
X96300000Y-74770000D01*
X98330000Y-71730000D02*
X97910000Y-71730000D01*
X98600000Y-69100000D02*
X98330000Y-71730000D01*
X105650000Y-68870000D02*
X101490000Y-68870000D01*
X106500000Y-69000000D02*
X105650000Y-68870000D01*
X112430000Y-69190000D02*
X109110000Y-69190000D01*
X113270000Y-68850000D02*
X112430000Y-69190000D01*
X118830000Y-68690000D02*
X117000000Y-69000000D01*
X118950000Y-68570000D02*
X118830000Y-68690000D01*
X122240000Y-68760000D02*
X122180000Y-68820000D01*
X124450000Y-68760000D02*
X122240000Y-68760000D01*
X128860000Y-68680000D02*
X126680000Y-68680000D01*
X129160000Y-68980000D02*
X128860000Y-68680000D01*
X131938000Y-69008000D02*
X131000000Y-69000000D01*
X134882000Y-69008000D02*
X132596000Y-69008000D01*
X135500000Y-69500000D02*
X134882000Y-69008000D01*
X139310000Y-69660000D02*
X137410000Y-69660000D01*
X140040000Y-69390000D02*
X139310000Y-69660000D01*
X146530000Y-69390000D02*
X143950000Y-69390000D01*
X146800000Y-69660000D02*
X146530000Y-69390000D01*
X151490000Y-69720000D02*
X149980000Y-69720000D01*
X152610000Y-70840000D02*
X151490000Y-69720000D01*
X153000000Y-106410000D02*
X153000000Y-106500000D01*
X151630000Y-105040000D02*
X153000000Y-106410000D01*
X146930000Y-104620000D02*
X148810000Y-104620000D01*
X146490000Y-104060000D02*
X146930000Y-104620000D01*
X141900000Y-104200000D02*
X144060000Y-104200000D01*
X141880000Y-104180000D02*
X141900000Y-104200000D01*
X137990000Y-104030000D02*
X140240000Y-104030000D01*
X137720000Y-103760000D02*
X137990000Y-104030000D01*
X132270000Y-103840000D02*
X135280000Y-103840000D01*
X132130000Y-103700000D02*
X132270000Y-103840000D01*
X127600000Y-103700000D02*
X129620000Y-103700000D01*
X127360000Y-103940000D02*
X127600000Y-103700000D01*
X122440000Y-104060000D02*
X123980000Y-104060000D01*
X122300000Y-104200000D02*
X122440000Y-104060000D01*
X121620000Y-105880000D02*
X121620000Y-104880000D01*
X121010000Y-106490000D02*
X121620000Y-105880000D01*
X155420000Y-119060000D02*
X155420000Y-120750000D01*
X155380000Y-122510000D02*
X155460000Y-122590000D01*
X155460000Y-122590000D02*
X155460000Y-125080000D01*
X155570000Y-127760000D02*
X155440000Y-127890000D01*
X155440000Y-127890000D02*
X155440000Y-129830000D01*
X154870000Y-129590000D02*
X153220000Y-129830000D01*
X153220000Y-129830000D02*
X152430000Y-129940000D01*
X147360000Y-129910000D02*
X145040000Y-130130000D01*
X145040000Y-130130000D02*
X141080000Y-130190000D01*
X137690000Y-130490000D02*
X137520000Y-130320000D01*
X137520000Y-130320000D02*
X133490000Y-130490000D01*
X129400000Y-130200000D02*
X127640000Y-130210000D01*
X127640000Y-130210000D02*
X125420000Y-129670000D01*
X122720000Y-129530000D02*
X121100000Y-129910000D01*
X121100000Y-129910000D02*
X120920000Y-128870000D01*
X119860000Y-128300000D02*
X119290000Y-127730000D01*
X119290000Y-127730000D02*
X117990000Y-127730000D01*
X116200000Y-127650000D02*
X115750000Y-127200000D01*
X115750000Y-127200000D02*
X114800000Y-127200000D01*
X77580000Y-122980000D02*
X77560000Y-122980000D01*
D22*
X103386000Y-129254000D02*
X117754000Y-129254000D01*
X117754000Y-129254000D02*
X118000000Y-129500000D01*
X103386000Y-118586000D02*
X114086000Y-118586000D01*
X114086000Y-118586000D02*
X114500000Y-119000000D01*
X104825000Y-33875000D02*
X117125000Y-33875000D01*
D23*
G36*
X78017000Y-33546750D02*
X78175250Y-33705000D01*
X79275000Y-33705000D01*
X79275000Y-33580000D01*
X80525000Y-33580000D01*
X80525000Y-33705000D01*
X81624750Y-33705000D01*
X81783000Y-33546750D01*
X81783000Y-32700000D01*
X85517000Y-32700000D01*
X85517000Y-33546750D01*
X85675250Y-33705000D01*
X86775000Y-33705000D01*
X86775000Y-33580000D01*
X88025000Y-33580000D01*
X88025000Y-33705000D01*
X89124750Y-33705000D01*
X89283000Y-33546750D01*
X89283000Y-32700000D01*
X100679698Y-32700000D01*
X100460636Y-33027850D01*
X100375000Y-33458369D01*
X100375000Y-35541631D01*
X100460636Y-35972150D01*
X100704505Y-36337126D01*
X101069481Y-36580995D01*
X101500000Y-36666631D01*
X101930519Y-36580995D01*
X102295495Y-36337126D01*
X102539364Y-35972150D01*
X102625000Y-35541631D01*
X102625000Y-35250002D01*
X102679780Y-35250002D01*
X102699089Y-35258000D01*
X103666750Y-35258000D01*
X103825000Y-35099750D01*
X103825000Y-34250000D01*
X105825000Y-34250000D01*
X105825000Y-35099750D01*
X105983250Y-35258000D01*
X106950911Y-35258000D01*
X107183565Y-35161632D01*
X107361631Y-34983566D01*
X107458000Y-34750912D01*
X107458000Y-34408250D01*
X107299750Y-34250000D01*
X105825000Y-34250000D01*
X103825000Y-34250000D01*
X103430000Y-34250000D01*
X103430000Y-33500000D01*
X103825000Y-33500000D01*
X103825000Y-33125000D01*
X105825000Y-33125000D01*
X105825000Y-33500000D01*
X107299750Y-33500000D01*
X107458000Y-33341750D01*
X107458000Y-32999088D01*
X107361631Y-32766434D01*
X107295197Y-32700000D01*
X141127067Y-32700000D01*
X141093389Y-32706337D01*
X140880668Y-32843219D01*
X140737962Y-33052076D01*
X140687756Y-33300000D01*
X140687756Y-35300000D01*
X140731337Y-35531611D01*
X140868219Y-35744332D01*
X141077076Y-35887038D01*
X141325000Y-35937244D01*
X143325000Y-35937244D01*
X143556611Y-35893663D01*
X143769332Y-35756781D01*
X143912038Y-35547924D01*
X143962244Y-35300000D01*
X143962244Y-33300000D01*
X143918663Y-33068389D01*
X143781781Y-32855668D01*
X143572924Y-32712962D01*
X143508916Y-32700000D01*
X144914386Y-32700000D01*
X144730668Y-32818219D01*
X144587962Y-33027076D01*
X144537756Y-33275000D01*
X144537756Y-35275000D01*
X144581337Y-35506611D01*
X144718219Y-35719332D01*
X144927076Y-35862038D01*
X145175000Y-35912244D01*
X147175000Y-35912244D01*
X147406611Y-35868663D01*
X147619332Y-35731781D01*
X147762038Y-35522924D01*
X147812244Y-35275000D01*
X147812244Y-33275000D01*
X147768663Y-33043389D01*
X147631781Y-32830668D01*
X147440542Y-32700000D01*
X148759929Y-32700000D01*
X148593389Y-32731337D01*
X148380668Y-32868219D01*
X148237962Y-33077076D01*
X148187756Y-33325000D01*
X148187756Y-35325000D01*
X148231337Y-35556611D01*
X148368219Y-35769332D01*
X148577076Y-35912038D01*
X148825000Y-35962244D01*
X150825000Y-35962244D01*
X151056611Y-35918663D01*
X151269332Y-35781781D01*
X151412038Y-35572924D01*
X151462244Y-35325000D01*
X151462244Y-34983250D01*
X152142000Y-34983250D01*
X152142000Y-35450912D01*
X152238369Y-35683566D01*
X152416435Y-35861632D01*
X152649089Y-35958000D01*
X153116750Y-35958000D01*
X153275000Y-35799750D01*
X153275000Y-34825000D01*
X154275000Y-34825000D01*
X154275000Y-35799750D01*
X154433250Y-35958000D01*
X154900911Y-35958000D01*
X155133565Y-35861632D01*
X155311631Y-35683566D01*
X155408000Y-35450912D01*
X155408000Y-34983250D01*
X155249750Y-34825000D01*
X154275000Y-34825000D01*
X153275000Y-34825000D01*
X152300250Y-34825000D01*
X152142000Y-34983250D01*
X151462244Y-34983250D01*
X151462244Y-33325000D01*
X151418663Y-33093389D01*
X151281781Y-32880668D01*
X151072924Y-32737962D01*
X150885463Y-32700000D01*
X152399998Y-32700000D01*
X152399998Y-32804805D01*
X152238369Y-32966434D01*
X152142000Y-33199088D01*
X152142000Y-33666750D01*
X152300250Y-33825000D01*
X153275000Y-33825000D01*
X153275000Y-33325000D01*
X154275000Y-33325000D01*
X154275000Y-33825000D01*
X155249750Y-33825000D01*
X155408000Y-33666750D01*
X155408000Y-33199088D01*
X155311631Y-32966434D01*
X155150002Y-32804805D01*
X155150002Y-32700000D01*
X156300000Y-32700000D01*
X156300000Y-36217000D01*
X155703250Y-36217000D01*
X155545000Y-36375250D01*
X155545000Y-37475000D01*
X155670000Y-37475000D01*
X155670000Y-38725000D01*
X155545000Y-38725000D01*
X155545000Y-39824750D01*
X155703250Y-39983000D01*
X156300000Y-39983000D01*
X156300000Y-43717000D01*
X155703250Y-43717000D01*
X155545000Y-43875250D01*
X155545000Y-44975000D01*
X155670000Y-44975000D01*
X155670000Y-46225000D01*
X155545000Y-46225000D01*
X155545000Y-47324750D01*
X155703250Y-47483000D01*
X156300000Y-47483000D01*
X156300000Y-52367000D01*
X155428250Y-52367000D01*
X155270000Y-52525250D01*
X155270000Y-53625000D01*
X155395000Y-53625000D01*
X155395000Y-54875000D01*
X155270000Y-54875000D01*
X155270000Y-55974750D01*
X155428250Y-56133000D01*
X156300000Y-56133000D01*
X156300000Y-59867000D01*
X155428250Y-59867000D01*
X155270000Y-60025250D01*
X155270000Y-61125000D01*
X155395000Y-61125000D01*
X155395000Y-62375000D01*
X155270000Y-62375000D01*
X155270000Y-63474750D01*
X155428250Y-63633000D01*
X156300000Y-63633000D01*
X156300000Y-71922541D01*
X156165912Y-71867000D01*
X154928250Y-71867000D01*
X154770000Y-72025250D01*
X154770000Y-73125000D01*
X154895000Y-73125000D01*
X154895000Y-74375000D01*
X154770000Y-74375000D01*
X154770000Y-75474750D01*
X154928250Y-75633000D01*
X156165912Y-75633000D01*
X156300000Y-75577459D01*
X156300000Y-79422541D01*
X156165912Y-79367000D01*
X154928250Y-79367000D01*
X154770000Y-79525250D01*
X154770000Y-80625000D01*
X154895000Y-80625000D01*
X154895000Y-81875000D01*
X154770000Y-81875000D01*
X154770000Y-82974750D01*
X154928250Y-83133000D01*
X156165912Y-83133000D01*
X156300000Y-83077459D01*
X156300000Y-88422541D01*
X156165912Y-88367000D01*
X154928250Y-88367000D01*
X154770000Y-88525250D01*
X154770000Y-89625000D01*
X154895000Y-89625000D01*
X154895000Y-90875000D01*
X154770000Y-90875000D01*
X154770000Y-91974750D01*
X154928250Y-92133000D01*
X156165912Y-92133000D01*
X156300000Y-92077459D01*
X156300000Y-95922541D01*
X156165912Y-95867000D01*
X154928250Y-95867000D01*
X154770000Y-96025250D01*
X154770000Y-97125000D01*
X154895000Y-97125000D01*
X154895000Y-98375000D01*
X154770000Y-98375000D01*
X154770000Y-99474750D01*
X154928250Y-99633000D01*
X156165912Y-99633000D01*
X156300000Y-99577459D01*
X156300000Y-107422541D01*
X156165912Y-107367000D01*
X154928250Y-107367000D01*
X154770000Y-107525250D01*
X154770000Y-108625000D01*
X154895000Y-108625000D01*
X154895000Y-109875000D01*
X154770000Y-109875000D01*
X154770000Y-110974750D01*
X154928250Y-111133000D01*
X156165912Y-111133000D01*
X156300000Y-111077459D01*
X156300000Y-114922541D01*
X156165912Y-114867000D01*
X154928250Y-114867000D01*
X154770000Y-115025250D01*
X154770000Y-116125000D01*
X154895000Y-116125000D01*
X154895000Y-117375000D01*
X154770000Y-117375000D01*
X154770000Y-118474750D01*
X154928250Y-118633000D01*
X156165912Y-118633000D01*
X156300000Y-118577459D01*
X156300000Y-131300000D01*
X88633000Y-131300000D01*
X88633000Y-130928250D01*
X88474750Y-130770000D01*
X87375000Y-130770000D01*
X87375000Y-130895000D01*
X86125000Y-130895000D01*
X86125000Y-130770000D01*
X85025250Y-130770000D01*
X84867000Y-130928250D01*
X84867000Y-131300000D01*
X81133000Y-131300000D01*
X81133000Y-130928250D01*
X80974750Y-130770000D01*
X79875000Y-130770000D01*
X79875000Y-130895000D01*
X78625000Y-130895000D01*
X78625000Y-130770000D01*
X77525250Y-130770000D01*
X77367000Y-130928250D01*
X77367000Y-131300000D01*
X70633000Y-131300000D01*
X70633000Y-130928250D01*
X70474750Y-130770000D01*
X69375000Y-130770000D01*
X69375000Y-130895000D01*
X68125000Y-130895000D01*
X68125000Y-130770000D01*
X67025250Y-130770000D01*
X66867000Y-130928250D01*
X66867000Y-131300000D01*
X63133000Y-131300000D01*
X63133000Y-130928250D01*
X62974750Y-130770000D01*
X61875000Y-130770000D01*
X61875000Y-130895000D01*
X60625000Y-130895000D01*
X60625000Y-130770000D01*
X59525250Y-130770000D01*
X59367000Y-130928250D01*
X59367000Y-131300000D01*
X57700000Y-131300000D01*
X57700000Y-129787250D01*
X100753000Y-129787250D01*
X100753000Y-130129912D01*
X100849369Y-130362566D01*
X101027435Y-130540632D01*
X101260089Y-130637000D01*
X102227750Y-130637000D01*
X102386000Y-130478750D01*
X102386000Y-129629000D01*
X104386000Y-129629000D01*
X104386000Y-130478750D01*
X104544250Y-130637000D01*
X105511911Y-130637000D01*
X105744565Y-130540632D01*
X105922631Y-130362566D01*
X106019000Y-130129912D01*
X106019000Y-129787250D01*
X105860750Y-129629000D01*
X104386000Y-129629000D01*
X102386000Y-129629000D01*
X100911250Y-129629000D01*
X100753000Y-129787250D01*
X57700000Y-129787250D01*
X57700000Y-128378088D01*
X100753000Y-128378088D01*
X100753000Y-128720750D01*
X100911250Y-128879000D01*
X102386000Y-128879000D01*
X102386000Y-128029250D01*
X104386000Y-128029250D01*
X104386000Y-128879000D01*
X105860750Y-128879000D01*
X106019000Y-128720750D01*
X106019000Y-128378088D01*
X105922631Y-128145434D01*
X105744565Y-127967368D01*
X105511911Y-127871000D01*
X104544250Y-127871000D01*
X104386000Y-128029250D01*
X102386000Y-128029250D01*
X102227750Y-127871000D01*
X101260089Y-127871000D01*
X101027435Y-127967368D01*
X100849369Y-128145434D01*
X100753000Y-128378088D01*
X57700000Y-128378088D01*
X57700000Y-128133000D01*
X58571750Y-128133000D01*
X58624998Y-128079752D01*
X58624998Y-128133000D01*
X59428250Y-128133000D01*
X59525250Y-128230000D01*
X60625000Y-128230000D01*
X60625000Y-128133000D01*
X61375002Y-128133000D01*
X61375002Y-128079752D01*
X61428250Y-128133000D01*
X61875000Y-128133000D01*
X61875000Y-128230000D01*
X62974750Y-128230000D01*
X63133000Y-128071750D01*
X63133000Y-127722480D01*
X63173000Y-127625911D01*
X63173000Y-127033250D01*
X63133000Y-126993250D01*
X63133000Y-126834088D01*
X66867000Y-126834088D01*
X66867000Y-128071750D01*
X67025250Y-128230000D01*
X68125000Y-128230000D01*
X68125000Y-126485250D01*
X69375000Y-126485250D01*
X69375000Y-128230000D01*
X70474750Y-128230000D01*
X70633000Y-128071750D01*
X70633000Y-126834088D01*
X77367000Y-126834088D01*
X77367000Y-128071750D01*
X77525250Y-128230000D01*
X78625000Y-128230000D01*
X78625000Y-126485250D01*
X79875000Y-126485250D01*
X79875000Y-128230000D01*
X80974750Y-128230000D01*
X81133000Y-128071750D01*
X81133000Y-126834088D01*
X84867000Y-126834088D01*
X84867000Y-128071750D01*
X85025250Y-128230000D01*
X86125000Y-128230000D01*
X86125000Y-126485250D01*
X87375000Y-126485250D01*
X87375000Y-128230000D01*
X88474750Y-128230000D01*
X88633000Y-128071750D01*
X88633000Y-126834088D01*
X88536631Y-126601434D01*
X88358565Y-126423368D01*
X88125911Y-126327000D01*
X87533250Y-126327000D01*
X87375000Y-126485250D01*
X86125000Y-126485250D01*
X85966750Y-126327000D01*
X85374089Y-126327000D01*
X85141435Y-126423368D01*
X84963369Y-126601434D01*
X84867000Y-126834088D01*
X81133000Y-126834088D01*
X81036631Y-126601434D01*
X80858565Y-126423368D01*
X80625911Y-126327000D01*
X80033250Y-126327000D01*
X79875000Y-126485250D01*
X78625000Y-126485250D01*
X78466750Y-126327000D01*
X77874089Y-126327000D01*
X77641435Y-126423368D01*
X77463369Y-126601434D01*
X77367000Y-126834088D01*
X70633000Y-126834088D01*
X70536631Y-126601434D01*
X70358565Y-126423368D01*
X70125911Y-126327000D01*
X69533250Y-126327000D01*
X69375000Y-126485250D01*
X68125000Y-126485250D01*
X67966750Y-126327000D01*
X67374089Y-126327000D01*
X67141435Y-126423368D01*
X66963369Y-126601434D01*
X66867000Y-126834088D01*
X63133000Y-126834088D01*
X63036631Y-126601434D01*
X62858565Y-126423368D01*
X62625911Y-126327000D01*
X62033250Y-126327000D01*
X61875000Y-126485250D01*
X61875000Y-126875000D01*
X61270000Y-126875000D01*
X61270000Y-127500000D01*
X60625000Y-127500000D01*
X60625000Y-126485250D01*
X60466750Y-126327000D01*
X59874089Y-126327000D01*
X59641435Y-126423368D01*
X59463369Y-126601434D01*
X59367000Y-126834088D01*
X59367000Y-127500000D01*
X58730000Y-127500000D01*
X58730000Y-126875000D01*
X58605000Y-126875000D01*
X58605000Y-125625000D01*
X58730000Y-125625000D01*
X58730000Y-124525250D01*
X61270000Y-124525250D01*
X61270000Y-125625000D01*
X63014750Y-125625000D01*
X63173000Y-125466750D01*
X63173000Y-124874089D01*
X63093447Y-124682029D01*
X63413180Y-124682029D01*
X63645246Y-125029396D01*
X64107966Y-125376854D01*
X64325000Y-125302581D01*
X64325000Y-124465000D01*
X65175000Y-124465000D01*
X65175000Y-125302581D01*
X65392034Y-125376854D01*
X65854754Y-125029396D01*
X66086820Y-124682029D01*
X66004726Y-124465000D01*
X65175000Y-124465000D01*
X64325000Y-124465000D01*
X63495274Y-124465000D01*
X63413180Y-124682029D01*
X63093447Y-124682029D01*
X63076632Y-124641435D01*
X62898566Y-124463369D01*
X62665912Y-124367000D01*
X61428250Y-124367000D01*
X61270000Y-124525250D01*
X58730000Y-124525250D01*
X58571750Y-124367000D01*
X57700000Y-124367000D01*
X57700000Y-120650000D01*
X63262756Y-120650000D01*
X63262756Y-122350000D01*
X63306337Y-122581611D01*
X63374998Y-122688313D01*
X63374998Y-123190000D01*
X63552120Y-123190000D01*
X63413180Y-123397971D01*
X63495274Y-123615000D01*
X64325000Y-123615000D01*
X64325000Y-123190000D01*
X65175000Y-123190000D01*
X65175000Y-123615000D01*
X66004726Y-123615000D01*
X66086820Y-123397971D01*
X65947880Y-123190000D01*
X66125002Y-123190000D01*
X66125002Y-122688717D01*
X66187038Y-122597924D01*
X66233846Y-122366778D01*
X98959000Y-122366778D01*
X98959000Y-126489222D01*
X99044636Y-126919741D01*
X99288505Y-127284717D01*
X99653481Y-127528586D01*
X99905388Y-127578694D01*
X99912841Y-127589601D01*
X99954568Y-127616451D01*
X100000000Y-127625000D01*
X106866670Y-127625000D01*
X107025729Y-127863049D01*
X107552917Y-128215304D01*
X108174778Y-128339000D01*
X111297222Y-128339000D01*
X111919083Y-128215304D01*
X112040389Y-128134250D01*
X146965000Y-128134250D01*
X146965000Y-128601912D01*
X147061369Y-128834566D01*
X147239435Y-129012632D01*
X147472089Y-129109000D01*
X147939750Y-129109000D01*
X148098000Y-128950750D01*
X148098000Y-127976000D01*
X149098000Y-127976000D01*
X149098000Y-128950750D01*
X149256250Y-129109000D01*
X149723911Y-129109000D01*
X149956565Y-129012632D01*
X150134631Y-128834566D01*
X150231000Y-128601912D01*
X150231000Y-128134250D01*
X150072750Y-127976000D01*
X149098000Y-127976000D01*
X148098000Y-127976000D01*
X147123250Y-127976000D01*
X146965000Y-128134250D01*
X112040389Y-128134250D01*
X112446271Y-127863049D01*
X112605330Y-127625000D01*
X114500000Y-127625000D01*
X114548632Y-127615152D01*
X114589601Y-127587159D01*
X114616451Y-127545432D01*
X114625000Y-127500000D01*
X114625000Y-126350088D01*
X146965000Y-126350088D01*
X146965000Y-126817750D01*
X147123250Y-126976000D01*
X148098000Y-126976000D01*
X148098000Y-126001250D01*
X149098000Y-126001250D01*
X149098000Y-126976000D01*
X150072750Y-126976000D01*
X150231000Y-126817750D01*
X150231000Y-126476000D01*
X151786756Y-126476000D01*
X151786756Y-128476000D01*
X151830337Y-128707611D01*
X151967219Y-128920332D01*
X152176076Y-129063038D01*
X152424000Y-129113244D01*
X154424000Y-129113244D01*
X154655611Y-129069663D01*
X154868332Y-128932781D01*
X155011038Y-128723924D01*
X155061244Y-128476000D01*
X155061244Y-126476000D01*
X155017663Y-126244389D01*
X154880781Y-126031668D01*
X154671924Y-125888962D01*
X154424000Y-125838756D01*
X152424000Y-125838756D01*
X152192389Y-125882337D01*
X151979668Y-126019219D01*
X151836962Y-126228076D01*
X151786756Y-126476000D01*
X150231000Y-126476000D01*
X150231000Y-126350088D01*
X150134631Y-126117434D01*
X149956565Y-125939368D01*
X149723911Y-125843000D01*
X149256250Y-125843000D01*
X149098000Y-126001250D01*
X148098000Y-126001250D01*
X147939750Y-125843000D01*
X147472089Y-125843000D01*
X147239435Y-125939368D01*
X147061369Y-126117434D01*
X146965000Y-126350088D01*
X114625000Y-126350088D01*
X114625000Y-121396000D01*
X146960756Y-121396000D01*
X146960756Y-123396000D01*
X147004337Y-123627611D01*
X147141219Y-123840332D01*
X147350076Y-123983038D01*
X147598000Y-124033244D01*
X149598000Y-124033244D01*
X149829611Y-123989663D01*
X150042332Y-123852781D01*
X150185038Y-123643924D01*
X150235244Y-123396000D01*
X150235244Y-121396000D01*
X151786756Y-121396000D01*
X151786756Y-123396000D01*
X151830337Y-123627611D01*
X151967219Y-123840332D01*
X152176076Y-123983038D01*
X152424000Y-124033244D01*
X154424000Y-124033244D01*
X154655611Y-123989663D01*
X154868332Y-123852781D01*
X155011038Y-123643924D01*
X155061244Y-123396000D01*
X155061244Y-121396000D01*
X155017663Y-121164389D01*
X154880781Y-120951668D01*
X154671924Y-120808962D01*
X154424000Y-120758756D01*
X152424000Y-120758756D01*
X152192389Y-120802337D01*
X151979668Y-120939219D01*
X151836962Y-121148076D01*
X151786756Y-121396000D01*
X150235244Y-121396000D01*
X150191663Y-121164389D01*
X150054781Y-120951668D01*
X149845924Y-120808962D01*
X149598000Y-120758756D01*
X147598000Y-120758756D01*
X147366389Y-120802337D01*
X147153668Y-120939219D01*
X147010962Y-121148076D01*
X146960756Y-121396000D01*
X114625000Y-121396000D01*
X114625000Y-120000000D01*
X114615152Y-119951368D01*
X114587159Y-119910399D01*
X114545432Y-119883549D01*
X114500000Y-119875000D01*
X112042235Y-119875000D01*
X111356424Y-119416756D01*
X110543222Y-119255000D01*
X108420778Y-119255000D01*
X107607576Y-119416756D01*
X106921765Y-119875000D01*
X105738848Y-119875000D01*
X105744565Y-119872632D01*
X105922631Y-119694566D01*
X106019000Y-119461912D01*
X106019000Y-119119250D01*
X105860750Y-118961000D01*
X104386000Y-118961000D01*
X104386000Y-119336000D01*
X102386000Y-119336000D01*
X102386000Y-118961000D01*
X100911250Y-118961000D01*
X100753000Y-119119250D01*
X100753000Y-119461912D01*
X100849369Y-119694566D01*
X101027435Y-119872632D01*
X101033152Y-119875000D01*
X100000000Y-119875000D01*
X99951368Y-119884848D01*
X99910399Y-119912841D01*
X99883549Y-119954568D01*
X99875000Y-120000000D01*
X99875000Y-121283351D01*
X99653481Y-121327414D01*
X99288505Y-121571283D01*
X99044636Y-121936259D01*
X98959000Y-122366778D01*
X66233846Y-122366778D01*
X66237244Y-122350000D01*
X66237244Y-120650000D01*
X66193663Y-120418389D01*
X66056781Y-120205668D01*
X65847924Y-120062962D01*
X65600000Y-120012756D01*
X63900000Y-120012756D01*
X63668389Y-120056337D01*
X63455668Y-120193219D01*
X63312962Y-120402076D01*
X63262756Y-120650000D01*
X57700000Y-120650000D01*
X57700000Y-120633000D01*
X58571750Y-120633000D01*
X58730000Y-120474750D01*
X58730000Y-119375000D01*
X61270000Y-119375000D01*
X61270000Y-120474750D01*
X61428250Y-120633000D01*
X62665912Y-120633000D01*
X62898566Y-120536631D01*
X63076632Y-120358565D01*
X63173000Y-120125911D01*
X63173000Y-119533250D01*
X63014750Y-119375000D01*
X61270000Y-119375000D01*
X58730000Y-119375000D01*
X58605000Y-119375000D01*
X58605000Y-118125000D01*
X58730000Y-118125000D01*
X58730000Y-117025250D01*
X61270000Y-117025250D01*
X61270000Y-118125000D01*
X63014750Y-118125000D01*
X63173000Y-117966750D01*
X63173000Y-117710088D01*
X100753000Y-117710088D01*
X100753000Y-118052750D01*
X100911250Y-118211000D01*
X102386000Y-118211000D01*
X102386000Y-117361250D01*
X104386000Y-117361250D01*
X104386000Y-118211000D01*
X105860750Y-118211000D01*
X106019000Y-118052750D01*
X106019000Y-117710088D01*
X105922631Y-117477434D01*
X105744565Y-117299368D01*
X105511911Y-117203000D01*
X104544250Y-117203000D01*
X104386000Y-117361250D01*
X102386000Y-117361250D01*
X102227750Y-117203000D01*
X101260089Y-117203000D01*
X101027435Y-117299368D01*
X100849369Y-117477434D01*
X100753000Y-117710088D01*
X63173000Y-117710088D01*
X63173000Y-117374089D01*
X63076632Y-117141435D01*
X62898566Y-116963369D01*
X62665912Y-116867000D01*
X61428250Y-116867000D01*
X61270000Y-117025250D01*
X58730000Y-117025250D01*
X58571750Y-116867000D01*
X57700000Y-116867000D01*
X57700000Y-111190778D01*
X98959000Y-111190778D01*
X98959000Y-115313222D01*
X99044636Y-115743741D01*
X99288505Y-116108717D01*
X99653481Y-116352586D01*
X99875000Y-116396649D01*
X99875000Y-116500000D01*
X99884848Y-116548632D01*
X99912841Y-116589601D01*
X99954568Y-116616451D01*
X100000000Y-116625000D01*
X106410948Y-116625000D01*
X106419474Y-116667861D01*
X106771729Y-117195049D01*
X107298917Y-117547304D01*
X107920778Y-117671000D01*
X111043222Y-117671000D01*
X111665083Y-117547304D01*
X111686116Y-117533250D01*
X150327000Y-117533250D01*
X150327000Y-118125911D01*
X150423368Y-118358565D01*
X150601434Y-118536631D01*
X150834088Y-118633000D01*
X152071750Y-118633000D01*
X152230000Y-118474750D01*
X152230000Y-117375000D01*
X150485250Y-117375000D01*
X150327000Y-117533250D01*
X111686116Y-117533250D01*
X112192271Y-117195049D01*
X112544526Y-116667861D01*
X112553052Y-116625000D01*
X115500000Y-116625000D01*
X115548632Y-116615152D01*
X115589601Y-116587159D01*
X115616451Y-116545432D01*
X115625000Y-116500000D01*
X115625000Y-115374089D01*
X150327000Y-115374089D01*
X150327000Y-115966750D01*
X150485250Y-116125000D01*
X152230000Y-116125000D01*
X152230000Y-115025250D01*
X152071750Y-114867000D01*
X150834088Y-114867000D01*
X150601434Y-114963369D01*
X150423368Y-115141435D01*
X150327000Y-115374089D01*
X115625000Y-115374089D01*
X115625000Y-110033250D01*
X150327000Y-110033250D01*
X150327000Y-110625911D01*
X150423368Y-110858565D01*
X150601434Y-111036631D01*
X150834088Y-111133000D01*
X152071750Y-111133000D01*
X152230000Y-110974750D01*
X152230000Y-109875000D01*
X150485250Y-109875000D01*
X150327000Y-110033250D01*
X115625000Y-110033250D01*
X115625000Y-108500000D01*
X115615152Y-108451368D01*
X115587159Y-108410399D01*
X115545432Y-108383549D01*
X115500000Y-108375000D01*
X100000000Y-108375000D01*
X99951368Y-108384848D01*
X99910399Y-108412841D01*
X99883549Y-108454568D01*
X99875000Y-108500000D01*
X99875000Y-110107351D01*
X99653481Y-110151414D01*
X99288505Y-110395283D01*
X99044636Y-110760259D01*
X98959000Y-111190778D01*
X57700000Y-111190778D01*
X57700000Y-111133000D01*
X58571750Y-111133000D01*
X58730000Y-110974750D01*
X58730000Y-109875000D01*
X61270000Y-109875000D01*
X61270000Y-110974750D01*
X61428250Y-111133000D01*
X62665912Y-111133000D01*
X62898566Y-111036631D01*
X63076632Y-110858565D01*
X63173000Y-110625911D01*
X63173000Y-110033250D01*
X63014750Y-109875000D01*
X61270000Y-109875000D01*
X58730000Y-109875000D01*
X58605000Y-109875000D01*
X58605000Y-108625000D01*
X58730000Y-108625000D01*
X58730000Y-107525250D01*
X61270000Y-107525250D01*
X61270000Y-108625000D01*
X63014750Y-108625000D01*
X63173000Y-108466750D01*
X63173000Y-107882029D01*
X63263180Y-107882029D01*
X63495246Y-108229396D01*
X63957966Y-108576854D01*
X64175000Y-108502581D01*
X64175000Y-107665000D01*
X65025000Y-107665000D01*
X65025000Y-108502581D01*
X65242034Y-108576854D01*
X65704754Y-108229396D01*
X65936820Y-107882029D01*
X65933817Y-107874089D01*
X150327000Y-107874089D01*
X150327000Y-108466750D01*
X150485250Y-108625000D01*
X152230000Y-108625000D01*
X152230000Y-107525250D01*
X152071750Y-107367000D01*
X150834088Y-107367000D01*
X150601434Y-107463369D01*
X150423368Y-107641435D01*
X150327000Y-107874089D01*
X65933817Y-107874089D01*
X65854726Y-107665000D01*
X65025000Y-107665000D01*
X64175000Y-107665000D01*
X63345274Y-107665000D01*
X63263180Y-107882029D01*
X63173000Y-107882029D01*
X63173000Y-107874089D01*
X63076632Y-107641435D01*
X62898566Y-107463369D01*
X62665912Y-107367000D01*
X61428250Y-107367000D01*
X61270000Y-107525250D01*
X58730000Y-107525250D01*
X58571750Y-107367000D01*
X57700000Y-107367000D01*
X57700000Y-103850000D01*
X63112756Y-103850000D01*
X63112756Y-105550000D01*
X63156337Y-105781611D01*
X63224998Y-105888313D01*
X63224998Y-106390000D01*
X63402120Y-106390000D01*
X63263180Y-106597971D01*
X63345274Y-106815000D01*
X64175000Y-106815000D01*
X64175000Y-106390000D01*
X65025000Y-106390000D01*
X65025000Y-106815000D01*
X65854726Y-106815000D01*
X65936820Y-106597971D01*
X65797880Y-106390000D01*
X65975002Y-106390000D01*
X65975002Y-105888717D01*
X66037038Y-105797924D01*
X66087244Y-105550000D01*
X66087244Y-103850000D01*
X66043663Y-103618389D01*
X65906781Y-103405668D01*
X65697924Y-103262962D01*
X65450000Y-103212756D01*
X63750000Y-103212756D01*
X63518389Y-103256337D01*
X63305668Y-103393219D01*
X63162962Y-103602076D01*
X63112756Y-103850000D01*
X57700000Y-103850000D01*
X57700000Y-103633000D01*
X58571750Y-103633000D01*
X58730000Y-103474750D01*
X58730000Y-102375000D01*
X61270000Y-102375000D01*
X61270000Y-103474750D01*
X61428250Y-103633000D01*
X62665912Y-103633000D01*
X62898566Y-103536631D01*
X63076632Y-103358565D01*
X63173000Y-103125911D01*
X63173000Y-102533250D01*
X63014750Y-102375000D01*
X61270000Y-102375000D01*
X58730000Y-102375000D01*
X58605000Y-102375000D01*
X58605000Y-101125000D01*
X58730000Y-101125000D01*
X58730000Y-100025250D01*
X61270000Y-100025250D01*
X61270000Y-101125000D01*
X63014750Y-101125000D01*
X63173000Y-100966750D01*
X63173000Y-100374089D01*
X63076632Y-100141435D01*
X62898566Y-99963369D01*
X62665912Y-99867000D01*
X61428250Y-99867000D01*
X61270000Y-100025250D01*
X58730000Y-100025250D01*
X58571750Y-99867000D01*
X57700000Y-99867000D01*
X57700000Y-98533250D01*
X150327000Y-98533250D01*
X150327000Y-99125911D01*
X150423368Y-99358565D01*
X150601434Y-99536631D01*
X150834088Y-99633000D01*
X152071750Y-99633000D01*
X152230000Y-99474750D01*
X152230000Y-98375000D01*
X150485250Y-98375000D01*
X150327000Y-98533250D01*
X57700000Y-98533250D01*
X57700000Y-96374089D01*
X150327000Y-96374089D01*
X150327000Y-96966750D01*
X150485250Y-97125000D01*
X152230000Y-97125000D01*
X152230000Y-96025250D01*
X152071750Y-95867000D01*
X150834088Y-95867000D01*
X150601434Y-95963369D01*
X150423368Y-96141435D01*
X150327000Y-96374089D01*
X57700000Y-96374089D01*
X57700000Y-94371324D01*
X100124676Y-94371324D01*
X100409526Y-95060714D01*
X100936511Y-95588620D01*
X101625403Y-95874673D01*
X102371324Y-95875324D01*
X103060714Y-95590474D01*
X103588620Y-95063489D01*
X103874673Y-94374597D01*
X103875324Y-93628676D01*
X103590474Y-92939286D01*
X103063489Y-92411380D01*
X102374597Y-92125327D01*
X101628676Y-92124676D01*
X100939286Y-92409526D01*
X100411380Y-92936511D01*
X100125327Y-93625403D01*
X100124676Y-94371324D01*
X57700000Y-94371324D01*
X57700000Y-93633000D01*
X58571750Y-93633000D01*
X58730000Y-93474750D01*
X58730000Y-92375000D01*
X61270000Y-92375000D01*
X61270000Y-93474750D01*
X61428250Y-93633000D01*
X62665912Y-93633000D01*
X62898566Y-93536631D01*
X63076632Y-93358565D01*
X63173000Y-93125911D01*
X63173000Y-92533250D01*
X63014750Y-92375000D01*
X61270000Y-92375000D01*
X58730000Y-92375000D01*
X58605000Y-92375000D01*
X58605000Y-91425000D01*
X63987756Y-91425000D01*
X63987756Y-93425000D01*
X64031337Y-93656611D01*
X64168219Y-93869332D01*
X64377076Y-94012038D01*
X64625000Y-94062244D01*
X66625000Y-94062244D01*
X66856611Y-94018663D01*
X67069332Y-93881781D01*
X67212038Y-93672924D01*
X67262244Y-93425000D01*
X67262244Y-91425000D01*
X68737756Y-91425000D01*
X68737756Y-93425000D01*
X68781337Y-93656611D01*
X68918219Y-93869332D01*
X69127076Y-94012038D01*
X69375000Y-94062244D01*
X71375000Y-94062244D01*
X71606611Y-94018663D01*
X71819332Y-93881781D01*
X71962038Y-93672924D01*
X72012244Y-93425000D01*
X72012244Y-91425000D01*
X71968663Y-91193389D01*
X71831781Y-90980668D01*
X71622924Y-90837962D01*
X71375000Y-90787756D01*
X69375000Y-90787756D01*
X69143389Y-90831337D01*
X68930668Y-90968219D01*
X68787962Y-91177076D01*
X68737756Y-91425000D01*
X67262244Y-91425000D01*
X67218663Y-91193389D01*
X67081781Y-90980668D01*
X66872924Y-90837962D01*
X66625000Y-90787756D01*
X64625000Y-90787756D01*
X64393389Y-90831337D01*
X64180668Y-90968219D01*
X64037962Y-91177076D01*
X63987756Y-91425000D01*
X58605000Y-91425000D01*
X58605000Y-91125000D01*
X58730000Y-91125000D01*
X58730000Y-90025250D01*
X61270000Y-90025250D01*
X61270000Y-91125000D01*
X63014750Y-91125000D01*
X63173000Y-90966750D01*
X63173000Y-90374089D01*
X63076632Y-90141435D01*
X62898566Y-89963369D01*
X62665912Y-89867000D01*
X61428250Y-89867000D01*
X61270000Y-90025250D01*
X58730000Y-90025250D01*
X58571750Y-89867000D01*
X57700000Y-89867000D01*
X57700000Y-89308250D01*
X64092000Y-89308250D01*
X64092000Y-89775912D01*
X64188369Y-90008566D01*
X64366435Y-90186632D01*
X64599089Y-90283000D01*
X65066750Y-90283000D01*
X65225000Y-90124750D01*
X65225000Y-89150000D01*
X66225000Y-89150000D01*
X66225000Y-90124750D01*
X66383250Y-90283000D01*
X66850911Y-90283000D01*
X67083565Y-90186632D01*
X67261631Y-90008566D01*
X67358000Y-89775912D01*
X67358000Y-89308250D01*
X67199750Y-89150000D01*
X66225000Y-89150000D01*
X65225000Y-89150000D01*
X64250250Y-89150000D01*
X64092000Y-89308250D01*
X57700000Y-89308250D01*
X57700000Y-87524088D01*
X64092000Y-87524088D01*
X64092000Y-87991750D01*
X64250250Y-88150000D01*
X65225000Y-88150000D01*
X65225000Y-87175250D01*
X66225000Y-87175250D01*
X66225000Y-88150000D01*
X67199750Y-88150000D01*
X67358000Y-87991750D01*
X67358000Y-87675000D01*
X68537756Y-87675000D01*
X68537756Y-89675000D01*
X68581337Y-89906611D01*
X68718219Y-90119332D01*
X68927076Y-90262038D01*
X69175000Y-90312244D01*
X71175000Y-90312244D01*
X71406611Y-90268663D01*
X71619332Y-90131781D01*
X71762038Y-89922924D01*
X71812244Y-89675000D01*
X71812244Y-89250000D01*
X72387756Y-89250000D01*
X72387756Y-90950000D01*
X72431337Y-91181611D01*
X72568219Y-91394332D01*
X72777076Y-91537038D01*
X73025000Y-91587244D01*
X74725000Y-91587244D01*
X74956611Y-91543663D01*
X75063313Y-91475002D01*
X75565000Y-91475002D01*
X75565000Y-91297880D01*
X75772971Y-91436820D01*
X75990000Y-91354726D01*
X75990000Y-90525000D01*
X76840000Y-90525000D01*
X76840000Y-91354726D01*
X77057029Y-91436820D01*
X77404396Y-91204754D01*
X77751854Y-90742034D01*
X77677581Y-90525000D01*
X76840000Y-90525000D01*
X75990000Y-90525000D01*
X75565000Y-90525000D01*
X75565000Y-89675000D01*
X75990000Y-89675000D01*
X75990000Y-88845274D01*
X76840000Y-88845274D01*
X76840000Y-89675000D01*
X77677581Y-89675000D01*
X77716936Y-89560000D01*
X81442756Y-89560000D01*
X81442756Y-91260000D01*
X81486337Y-91491611D01*
X81623219Y-91704332D01*
X81832076Y-91847038D01*
X82080000Y-91897244D01*
X83780000Y-91897244D01*
X83917751Y-91871324D01*
X95084676Y-91871324D01*
X95369526Y-92560714D01*
X95896511Y-93088620D01*
X96585403Y-93374673D01*
X97331324Y-93375324D01*
X98020714Y-93090474D01*
X98548620Y-92563489D01*
X98834673Y-91874597D01*
X98835324Y-91128676D01*
X98795895Y-91033250D01*
X150327000Y-91033250D01*
X150327000Y-91625911D01*
X150423368Y-91858565D01*
X150601434Y-92036631D01*
X150834088Y-92133000D01*
X152071750Y-92133000D01*
X152230000Y-91974750D01*
X152230000Y-90875000D01*
X150485250Y-90875000D01*
X150327000Y-91033250D01*
X98795895Y-91033250D01*
X98550474Y-90439286D01*
X98023489Y-89911380D01*
X97334597Y-89625327D01*
X96588676Y-89624676D01*
X95899286Y-89909526D01*
X95371380Y-90436511D01*
X95085327Y-91125403D01*
X95084676Y-91871324D01*
X83917751Y-91871324D01*
X84011611Y-91853663D01*
X84118313Y-91785002D01*
X84620000Y-91785002D01*
X84620000Y-91607880D01*
X84827971Y-91746820D01*
X85045000Y-91664726D01*
X85045000Y-90835000D01*
X85895000Y-90835000D01*
X85895000Y-91664726D01*
X86112029Y-91746820D01*
X86459396Y-91514754D01*
X86806854Y-91052034D01*
X86732581Y-90835000D01*
X85895000Y-90835000D01*
X85045000Y-90835000D01*
X84620000Y-90835000D01*
X84620000Y-89985000D01*
X85045000Y-89985000D01*
X85045000Y-89155274D01*
X85895000Y-89155274D01*
X85895000Y-89985000D01*
X86732581Y-89985000D01*
X86806854Y-89767966D01*
X86509015Y-89371324D01*
X100124676Y-89371324D01*
X100409526Y-90060714D01*
X100936511Y-90588620D01*
X101625403Y-90874673D01*
X102371324Y-90875324D01*
X103060714Y-90590474D01*
X103588620Y-90063489D01*
X103874673Y-89374597D01*
X103875109Y-88874089D01*
X150327000Y-88874089D01*
X150327000Y-89466750D01*
X150485250Y-89625000D01*
X152230000Y-89625000D01*
X152230000Y-88525250D01*
X152071750Y-88367000D01*
X150834088Y-88367000D01*
X150601434Y-88463369D01*
X150423368Y-88641435D01*
X150327000Y-88874089D01*
X103875109Y-88874089D01*
X103875324Y-88628676D01*
X103590474Y-87939286D01*
X103063489Y-87411380D01*
X102374597Y-87125327D01*
X101628676Y-87124676D01*
X100939286Y-87409526D01*
X100411380Y-87936511D01*
X100125327Y-88625403D01*
X100124676Y-89371324D01*
X86509015Y-89371324D01*
X86459396Y-89305246D01*
X86112029Y-89073180D01*
X85895000Y-89155274D01*
X85045000Y-89155274D01*
X84827971Y-89073180D01*
X84620000Y-89212120D01*
X84620000Y-89034998D01*
X84118717Y-89034998D01*
X84027924Y-88972962D01*
X83780000Y-88922756D01*
X82080000Y-88922756D01*
X81848389Y-88966337D01*
X81635668Y-89103219D01*
X81492962Y-89312076D01*
X81442756Y-89560000D01*
X77716936Y-89560000D01*
X77751854Y-89457966D01*
X77404396Y-88995246D01*
X77057029Y-88763180D01*
X76840000Y-88845274D01*
X75990000Y-88845274D01*
X75772971Y-88763180D01*
X75565000Y-88902120D01*
X75565000Y-88724998D01*
X75063717Y-88724998D01*
X74972924Y-88662962D01*
X74725000Y-88612756D01*
X73025000Y-88612756D01*
X72793389Y-88656337D01*
X72580668Y-88793219D01*
X72437962Y-89002076D01*
X72387756Y-89250000D01*
X71812244Y-89250000D01*
X71812244Y-87675000D01*
X71768663Y-87443389D01*
X71631781Y-87230668D01*
X71422924Y-87087962D01*
X71175000Y-87037756D01*
X69175000Y-87037756D01*
X68943389Y-87081337D01*
X68730668Y-87218219D01*
X68587962Y-87427076D01*
X68537756Y-87675000D01*
X67358000Y-87675000D01*
X67358000Y-87524088D01*
X67261631Y-87291434D01*
X67083565Y-87113368D01*
X66850911Y-87017000D01*
X66383250Y-87017000D01*
X66225000Y-87175250D01*
X65225000Y-87175250D01*
X65066750Y-87017000D01*
X64599089Y-87017000D01*
X64366435Y-87113368D01*
X64188369Y-87291434D01*
X64092000Y-87524088D01*
X57700000Y-87524088D01*
X57700000Y-86133000D01*
X58571750Y-86133000D01*
X58730000Y-85974750D01*
X58730000Y-84875000D01*
X61270000Y-84875000D01*
X61270000Y-85974750D01*
X61428250Y-86133000D01*
X62665912Y-86133000D01*
X62898566Y-86036631D01*
X63076632Y-85858565D01*
X63173000Y-85625911D01*
X63173000Y-85033250D01*
X63014750Y-84875000D01*
X61270000Y-84875000D01*
X58730000Y-84875000D01*
X58605000Y-84875000D01*
X58605000Y-83625000D01*
X58730000Y-83625000D01*
X58730000Y-82525250D01*
X61270000Y-82525250D01*
X61270000Y-83625000D01*
X63014750Y-83625000D01*
X63173000Y-83466750D01*
X63173000Y-82874089D01*
X63076632Y-82641435D01*
X62898566Y-82463369D01*
X62665912Y-82367000D01*
X61428250Y-82367000D01*
X61270000Y-82525250D01*
X58730000Y-82525250D01*
X58571750Y-82367000D01*
X57700000Y-82367000D01*
X57700000Y-81550000D01*
X95912756Y-81550000D01*
X95912756Y-85050000D01*
X95956337Y-85281611D01*
X96093219Y-85494332D01*
X96302076Y-85637038D01*
X96550000Y-85687244D01*
X100050000Y-85687244D01*
X100281611Y-85643663D01*
X100494332Y-85506781D01*
X100637038Y-85297924D01*
X100687244Y-85050000D01*
X100687244Y-82033250D01*
X150327000Y-82033250D01*
X150327000Y-82625911D01*
X150423368Y-82858565D01*
X150601434Y-83036631D01*
X150834088Y-83133000D01*
X152071750Y-83133000D01*
X152230000Y-82974750D01*
X152230000Y-81875000D01*
X150485250Y-81875000D01*
X150327000Y-82033250D01*
X100687244Y-82033250D01*
X100687244Y-81550000D01*
X100643663Y-81318389D01*
X100506781Y-81105668D01*
X100333462Y-80987244D01*
X103050000Y-80987244D01*
X103281611Y-80943663D01*
X103494332Y-80806781D01*
X103637038Y-80597924D01*
X103687244Y-80350000D01*
X103687244Y-78641324D01*
X130884676Y-78641324D01*
X131169526Y-79330714D01*
X131696511Y-79858620D01*
X132385403Y-80144673D01*
X133131324Y-80145324D01*
X133787763Y-79874089D01*
X150327000Y-79874089D01*
X150327000Y-80466750D01*
X150485250Y-80625000D01*
X152230000Y-80625000D01*
X152230000Y-79525250D01*
X152071750Y-79367000D01*
X150834088Y-79367000D01*
X150601434Y-79463369D01*
X150423368Y-79641435D01*
X150327000Y-79874089D01*
X133787763Y-79874089D01*
X133820714Y-79860474D01*
X134348620Y-79333489D01*
X134634673Y-78644597D01*
X134635324Y-77898676D01*
X134350474Y-77209286D01*
X133823489Y-76681380D01*
X133134597Y-76395327D01*
X132388676Y-76394676D01*
X131699286Y-76679526D01*
X131171380Y-77206511D01*
X130885327Y-77895403D01*
X130884676Y-78641324D01*
X103687244Y-78641324D01*
X103687244Y-76871324D01*
X115624676Y-76871324D01*
X115909526Y-77560714D01*
X116436511Y-78088620D01*
X117125403Y-78374673D01*
X117871324Y-78375324D01*
X118560714Y-78090474D01*
X119088620Y-77563489D01*
X119374673Y-76874597D01*
X119375324Y-76128676D01*
X119090474Y-75439286D01*
X118563489Y-74911380D01*
X117874597Y-74625327D01*
X117128676Y-74624676D01*
X116439286Y-74909526D01*
X115911380Y-75436511D01*
X115625327Y-76125403D01*
X115624676Y-76871324D01*
X103687244Y-76871324D01*
X103687244Y-76850000D01*
X103643663Y-76618389D01*
X103506781Y-76405668D01*
X103297924Y-76262962D01*
X103050000Y-76212756D01*
X99550000Y-76212756D01*
X99318389Y-76256337D01*
X99105668Y-76393219D01*
X98962962Y-76602076D01*
X98912756Y-76850000D01*
X98912756Y-80350000D01*
X98956337Y-80581611D01*
X99093219Y-80794332D01*
X99266538Y-80912756D01*
X97345496Y-80912756D01*
X97408565Y-80886632D01*
X97586631Y-80708566D01*
X97683000Y-80475912D01*
X97683000Y-79633250D01*
X97524750Y-79475000D01*
X96175000Y-79475000D01*
X96175000Y-80824750D01*
X96311208Y-80960958D01*
X96105668Y-81093219D01*
X95962962Y-81302076D01*
X95912756Y-81550000D01*
X57700000Y-81550000D01*
X57700000Y-79633250D01*
X92917000Y-79633250D01*
X92917000Y-80475912D01*
X93013369Y-80708566D01*
X93191435Y-80886632D01*
X93424089Y-80983000D01*
X94266750Y-80983000D01*
X94425000Y-80824750D01*
X94425000Y-79475000D01*
X93075250Y-79475000D01*
X92917000Y-79633250D01*
X57700000Y-79633250D01*
X57700000Y-76724088D01*
X92917000Y-76724088D01*
X92917000Y-77566750D01*
X93075250Y-77725000D01*
X94425000Y-77725000D01*
X94425000Y-76375250D01*
X96175000Y-76375250D01*
X96175000Y-77725000D01*
X97524750Y-77725000D01*
X97683000Y-77566750D01*
X97683000Y-76724088D01*
X97586631Y-76491434D01*
X97408565Y-76313368D01*
X97175911Y-76217000D01*
X96333250Y-76217000D01*
X96175000Y-76375250D01*
X94425000Y-76375250D01*
X94266750Y-76217000D01*
X93424089Y-76217000D01*
X93191435Y-76313368D01*
X93013369Y-76491434D01*
X92917000Y-76724088D01*
X57700000Y-76724088D01*
X57700000Y-76633000D01*
X58371750Y-76633000D01*
X58530000Y-76474750D01*
X58530000Y-75375000D01*
X61070000Y-75375000D01*
X61070000Y-76474750D01*
X61228250Y-76633000D01*
X62465912Y-76633000D01*
X62698566Y-76536631D01*
X62876632Y-76358565D01*
X62973000Y-76125911D01*
X62973000Y-75533250D01*
X62814750Y-75375000D01*
X61070000Y-75375000D01*
X58530000Y-75375000D01*
X58405000Y-75375000D01*
X58405000Y-74371324D01*
X110584676Y-74371324D01*
X110869526Y-75060714D01*
X111396511Y-75588620D01*
X112085403Y-75874673D01*
X112831324Y-75875324D01*
X113520714Y-75590474D01*
X114048620Y-75063489D01*
X114334673Y-74374597D01*
X114335324Y-73628676D01*
X114324023Y-73601324D01*
X128384676Y-73601324D01*
X128669526Y-74290714D01*
X129196511Y-74818620D01*
X129885403Y-75104673D01*
X130631324Y-75105324D01*
X131320714Y-74820474D01*
X131848620Y-74293489D01*
X132134673Y-73604597D01*
X132134675Y-73601324D01*
X133384676Y-73601324D01*
X133669526Y-74290714D01*
X134196511Y-74818620D01*
X134885403Y-75104673D01*
X135631324Y-75105324D01*
X136320714Y-74820474D01*
X136608439Y-74533250D01*
X150327000Y-74533250D01*
X150327000Y-75125911D01*
X150423368Y-75358565D01*
X150601434Y-75536631D01*
X150834088Y-75633000D01*
X152071750Y-75633000D01*
X152230000Y-75474750D01*
X152230000Y-74375000D01*
X150485250Y-74375000D01*
X150327000Y-74533250D01*
X136608439Y-74533250D01*
X136848620Y-74293489D01*
X137134673Y-73604597D01*
X137135324Y-72858676D01*
X136935097Y-72374089D01*
X150327000Y-72374089D01*
X150327000Y-72966750D01*
X150485250Y-73125000D01*
X152230000Y-73125000D01*
X152230000Y-72025250D01*
X152071750Y-71867000D01*
X150834088Y-71867000D01*
X150601434Y-71963369D01*
X150423368Y-72141435D01*
X150327000Y-72374089D01*
X136935097Y-72374089D01*
X136850474Y-72169286D01*
X136323489Y-71641380D01*
X135634597Y-71355327D01*
X134888676Y-71354676D01*
X134199286Y-71639526D01*
X133671380Y-72166511D01*
X133385327Y-72855403D01*
X133384676Y-73601324D01*
X132134675Y-73601324D01*
X132135324Y-72858676D01*
X131850474Y-72169286D01*
X131323489Y-71641380D01*
X130634597Y-71355327D01*
X129888676Y-71354676D01*
X129199286Y-71639526D01*
X128671380Y-72166511D01*
X128385327Y-72855403D01*
X128384676Y-73601324D01*
X114324023Y-73601324D01*
X114050474Y-72939286D01*
X113523489Y-72411380D01*
X112834597Y-72125327D01*
X112088676Y-72124676D01*
X111399286Y-72409526D01*
X110871380Y-72936511D01*
X110585327Y-73625403D01*
X110584676Y-74371324D01*
X58405000Y-74371324D01*
X58405000Y-74125000D01*
X58530000Y-74125000D01*
X58530000Y-73025250D01*
X61070000Y-73025250D01*
X61070000Y-74125000D01*
X62814750Y-74125000D01*
X62973000Y-73966750D01*
X62973000Y-73374089D01*
X62876632Y-73141435D01*
X62698566Y-72963369D01*
X62465912Y-72867000D01*
X61228250Y-72867000D01*
X61070000Y-73025250D01*
X58530000Y-73025250D01*
X58371750Y-72867000D01*
X57700000Y-72867000D01*
X57700000Y-71871324D01*
X115624676Y-71871324D01*
X115909526Y-72560714D01*
X116436511Y-73088620D01*
X117125403Y-73374673D01*
X117871324Y-73375324D01*
X118560714Y-73090474D01*
X119088620Y-72563489D01*
X119374673Y-71874597D01*
X119375324Y-71128676D01*
X119090474Y-70439286D01*
X118563489Y-69911380D01*
X118198926Y-69760000D01*
X123650001Y-69760000D01*
X123710896Y-70066147D01*
X123884315Y-70325685D01*
X124143853Y-70499104D01*
X124450000Y-70559999D01*
X124756147Y-70499104D01*
X125015685Y-70325685D01*
X125155685Y-70185685D01*
X125329104Y-69926147D01*
X125389999Y-69620000D01*
X125329104Y-69313853D01*
X125155685Y-69054315D01*
X124896147Y-68880896D01*
X124590000Y-68820001D01*
X124283853Y-68880896D01*
X124024315Y-69054315D01*
X123884315Y-69194315D01*
X123710896Y-69453853D01*
X123650001Y-69760000D01*
X118198926Y-69760000D01*
X117874597Y-69625327D01*
X117128676Y-69624676D01*
X116439286Y-69909526D01*
X115911380Y-70436511D01*
X115625327Y-71125403D01*
X115624676Y-71871324D01*
X57700000Y-71871324D01*
X57700000Y-69133000D01*
X58371750Y-69133000D01*
X58530000Y-68974750D01*
X58530000Y-67875000D01*
X61070000Y-67875000D01*
X61070000Y-68974750D01*
X61228250Y-69133000D01*
X62465912Y-69133000D01*
X62698566Y-69036631D01*
X62876632Y-68858565D01*
X62973000Y-68625911D01*
X62973000Y-68033250D01*
X62814750Y-67875000D01*
X61070000Y-67875000D01*
X58530000Y-67875000D01*
X58405000Y-67875000D01*
X58405000Y-66625000D01*
X58530000Y-66625000D01*
X58530000Y-65525250D01*
X61070000Y-65525250D01*
X61070000Y-66625000D01*
X62814750Y-66625000D01*
X62973000Y-66466750D01*
X62973000Y-65874089D01*
X62876632Y-65641435D01*
X62698566Y-65463369D01*
X62465912Y-65367000D01*
X61228250Y-65367000D01*
X61070000Y-65525250D01*
X58530000Y-65525250D01*
X58371750Y-65367000D01*
X57700000Y-65367000D01*
X57700000Y-62533250D01*
X150827000Y-62533250D01*
X150827000Y-63125911D01*
X150923368Y-63358565D01*
X151101434Y-63536631D01*
X151334088Y-63633000D01*
X152571750Y-63633000D01*
X152730000Y-63474750D01*
X152730000Y-62375000D01*
X150985250Y-62375000D01*
X150827000Y-62533250D01*
X57700000Y-62533250D01*
X57700000Y-60633000D01*
X58571750Y-60633000D01*
X58730000Y-60474750D01*
X58730000Y-59375000D01*
X61270000Y-59375000D01*
X61270000Y-60474750D01*
X61428250Y-60633000D01*
X62665912Y-60633000D01*
X62898566Y-60536631D01*
X63061108Y-60374089D01*
X150827000Y-60374089D01*
X150827000Y-60966750D01*
X150985250Y-61125000D01*
X152730000Y-61125000D01*
X152730000Y-60025250D01*
X152571750Y-59867000D01*
X151334088Y-59867000D01*
X151101434Y-59963369D01*
X150923368Y-60141435D01*
X150827000Y-60374089D01*
X63061108Y-60374089D01*
X63076632Y-60358565D01*
X63173000Y-60125911D01*
X63173000Y-59533250D01*
X63014750Y-59375000D01*
X61270000Y-59375000D01*
X58730000Y-59375000D01*
X58605000Y-59375000D01*
X58605000Y-58125000D01*
X58730000Y-58125000D01*
X58730000Y-57025250D01*
X61270000Y-57025250D01*
X61270000Y-58125000D01*
X63014750Y-58125000D01*
X63173000Y-57966750D01*
X63173000Y-57374089D01*
X63076632Y-57141435D01*
X62898566Y-56963369D01*
X62665912Y-56867000D01*
X61428250Y-56867000D01*
X61270000Y-57025250D01*
X58730000Y-57025250D01*
X58571750Y-56867000D01*
X57700000Y-56867000D01*
X57700000Y-55033250D01*
X150827000Y-55033250D01*
X150827000Y-55625911D01*
X150923368Y-55858565D01*
X151101434Y-56036631D01*
X151334088Y-56133000D01*
X152571750Y-56133000D01*
X152730000Y-55974750D01*
X152730000Y-54875000D01*
X150985250Y-54875000D01*
X150827000Y-55033250D01*
X57700000Y-55033250D01*
X57700000Y-53133000D01*
X58571750Y-53133000D01*
X58730000Y-52974750D01*
X58730000Y-51875000D01*
X61270000Y-51875000D01*
X61270000Y-52974750D01*
X61428250Y-53133000D01*
X62665912Y-53133000D01*
X62898566Y-53036631D01*
X63061108Y-52874089D01*
X150827000Y-52874089D01*
X150827000Y-53466750D01*
X150985250Y-53625000D01*
X152730000Y-53625000D01*
X152730000Y-52525250D01*
X152571750Y-52367000D01*
X151334088Y-52367000D01*
X151101434Y-52463369D01*
X150923368Y-52641435D01*
X150827000Y-52874089D01*
X63061108Y-52874089D01*
X63076632Y-52858565D01*
X63173000Y-52625911D01*
X63173000Y-52033250D01*
X63014750Y-51875000D01*
X61270000Y-51875000D01*
X58730000Y-51875000D01*
X58605000Y-51875000D01*
X58605000Y-50625000D01*
X58730000Y-50625000D01*
X58730000Y-49525250D01*
X61270000Y-49525250D01*
X61270000Y-50625000D01*
X63014750Y-50625000D01*
X63173000Y-50466750D01*
X63173000Y-49874089D01*
X63076632Y-49641435D01*
X62898566Y-49463369D01*
X62665912Y-49367000D01*
X61428250Y-49367000D01*
X61270000Y-49525250D01*
X58730000Y-49525250D01*
X58571750Y-49367000D01*
X57700000Y-49367000D01*
X57700000Y-39000000D01*
X59362756Y-39000000D01*
X59362756Y-41000000D01*
X59406337Y-41231611D01*
X59543219Y-41444332D01*
X59752076Y-41587038D01*
X60000000Y-41637244D01*
X62000000Y-41637244D01*
X62231611Y-41593663D01*
X62444332Y-41456781D01*
X62587038Y-41247924D01*
X62637244Y-41000000D01*
X62637244Y-39000000D01*
X64362756Y-39000000D01*
X64362756Y-41000000D01*
X64406337Y-41231611D01*
X64543219Y-41444332D01*
X64752076Y-41587038D01*
X65000000Y-41637244D01*
X67000000Y-41637244D01*
X67231611Y-41593663D01*
X67444332Y-41456781D01*
X67587038Y-41247924D01*
X67637244Y-41000000D01*
X67637244Y-40438778D01*
X100375000Y-40438778D01*
X100375000Y-44561222D01*
X100460636Y-44991741D01*
X100704505Y-45356717D01*
X100875000Y-45470638D01*
X100875000Y-47000000D01*
X100884848Y-47048632D01*
X100912841Y-47089601D01*
X100954568Y-47116451D01*
X101000000Y-47125000D01*
X118000000Y-47125000D01*
X118048632Y-47115152D01*
X118089601Y-47087159D01*
X118116451Y-47045432D01*
X118125000Y-47000000D01*
X118125000Y-46383250D01*
X151102000Y-46383250D01*
X151102000Y-46975911D01*
X151198368Y-47208565D01*
X151376434Y-47386631D01*
X151609088Y-47483000D01*
X152846750Y-47483000D01*
X153005000Y-47324750D01*
X153005000Y-46225000D01*
X151260250Y-46225000D01*
X151102000Y-46383250D01*
X118125000Y-46383250D01*
X118125000Y-44224089D01*
X151102000Y-44224089D01*
X151102000Y-44816750D01*
X151260250Y-44975000D01*
X153005000Y-44975000D01*
X153005000Y-43875250D01*
X152846750Y-43717000D01*
X151609088Y-43717000D01*
X151376434Y-43813369D01*
X151198368Y-43991435D01*
X151102000Y-44224089D01*
X118125000Y-44224089D01*
X118125000Y-38883250D01*
X151102000Y-38883250D01*
X151102000Y-39475911D01*
X151198368Y-39708565D01*
X151376434Y-39886631D01*
X151609088Y-39983000D01*
X152846750Y-39983000D01*
X153005000Y-39824750D01*
X153005000Y-38725000D01*
X151260250Y-38725000D01*
X151102000Y-38883250D01*
X118125000Y-38883250D01*
X118125000Y-37000000D01*
X118115152Y-36951368D01*
X118087159Y-36910399D01*
X118045432Y-36883549D01*
X118000000Y-36875000D01*
X114286570Y-36875000D01*
X114256552Y-36724089D01*
X151102000Y-36724089D01*
X151102000Y-37316750D01*
X151260250Y-37475000D01*
X153005000Y-37475000D01*
X153005000Y-36375250D01*
X152846750Y-36217000D01*
X151609088Y-36217000D01*
X151376434Y-36313369D01*
X151198368Y-36491435D01*
X151102000Y-36724089D01*
X114256552Y-36724089D01*
X114112479Y-35999785D01*
X113489257Y-35067068D01*
X112556540Y-34443846D01*
X111456325Y-34225000D01*
X111343675Y-34225000D01*
X110243460Y-34443846D01*
X109310743Y-35067068D01*
X108687521Y-35999785D01*
X108513430Y-36875000D01*
X101000000Y-36875000D01*
X100951368Y-36884848D01*
X100910399Y-36912841D01*
X100883549Y-36954568D01*
X100875000Y-37000000D01*
X100875000Y-39529362D01*
X100704505Y-39643283D01*
X100460636Y-40008259D01*
X100375000Y-40438778D01*
X67637244Y-40438778D01*
X67637244Y-39000000D01*
X67593663Y-38768389D01*
X67456781Y-38555668D01*
X67247924Y-38412962D01*
X67000000Y-38362756D01*
X65000000Y-38362756D01*
X64768389Y-38406337D01*
X64555668Y-38543219D01*
X64412962Y-38752076D01*
X64362756Y-39000000D01*
X62637244Y-39000000D01*
X62593663Y-38768389D01*
X62456781Y-38555668D01*
X62247924Y-38412962D01*
X62000000Y-38362756D01*
X60000000Y-38362756D01*
X59768389Y-38406337D01*
X59555668Y-38543219D01*
X59412962Y-38752076D01*
X59362756Y-39000000D01*
X57700000Y-39000000D01*
X57700000Y-34000000D01*
X59362756Y-34000000D01*
X59362756Y-36000000D01*
X59406337Y-36231611D01*
X59543219Y-36444332D01*
X59752076Y-36587038D01*
X60000000Y-36637244D01*
X62000000Y-36637244D01*
X62231611Y-36593663D01*
X62444332Y-36456781D01*
X62587038Y-36247924D01*
X62637244Y-36000000D01*
X62637244Y-35658250D01*
X64367000Y-35658250D01*
X64367000Y-36125912D01*
X64463369Y-36358566D01*
X64641435Y-36536632D01*
X64874089Y-36633000D01*
X65341750Y-36633000D01*
X65500000Y-36474750D01*
X65500000Y-35500000D01*
X66500000Y-35500000D01*
X66500000Y-36474750D01*
X66658250Y-36633000D01*
X67125911Y-36633000D01*
X67358565Y-36536632D01*
X67491947Y-36403250D01*
X78017000Y-36403250D01*
X78017000Y-37640912D01*
X78113369Y-37873566D01*
X78291435Y-38051632D01*
X78524089Y-38148000D01*
X79116750Y-38148000D01*
X79275000Y-37989750D01*
X79275000Y-36245000D01*
X80525000Y-36245000D01*
X80525000Y-37989750D01*
X80683250Y-38148000D01*
X81275911Y-38148000D01*
X81508565Y-38051632D01*
X81686631Y-37873566D01*
X81783000Y-37640912D01*
X81783000Y-36403250D01*
X85517000Y-36403250D01*
X85517000Y-37640912D01*
X85613369Y-37873566D01*
X85791435Y-38051632D01*
X86024089Y-38148000D01*
X86616750Y-38148000D01*
X86775000Y-37989750D01*
X86775000Y-36245000D01*
X88025000Y-36245000D01*
X88025000Y-37989750D01*
X88183250Y-38148000D01*
X88775911Y-38148000D01*
X89008565Y-38051632D01*
X89186631Y-37873566D01*
X89283000Y-37640912D01*
X89283000Y-36403250D01*
X89124750Y-36245000D01*
X88025000Y-36245000D01*
X86775000Y-36245000D01*
X85675250Y-36245000D01*
X85517000Y-36403250D01*
X81783000Y-36403250D01*
X81624750Y-36245000D01*
X80525000Y-36245000D01*
X79275000Y-36245000D01*
X78175250Y-36245000D01*
X78017000Y-36403250D01*
X67491947Y-36403250D01*
X67536631Y-36358566D01*
X67633000Y-36125912D01*
X67633000Y-35658250D01*
X67474750Y-35500000D01*
X66500000Y-35500000D01*
X65500000Y-35500000D01*
X64525250Y-35500000D01*
X64367000Y-35658250D01*
X62637244Y-35658250D01*
X62637244Y-34000000D01*
X62613552Y-33874088D01*
X64367000Y-33874088D01*
X64367000Y-34341750D01*
X64525250Y-34500000D01*
X65500000Y-34500000D01*
X65500000Y-33525250D01*
X66500000Y-33525250D01*
X66500000Y-34500000D01*
X67474750Y-34500000D01*
X67633000Y-34341750D01*
X67633000Y-33874088D01*
X67536631Y-33641434D01*
X67358565Y-33463368D01*
X67125911Y-33367000D01*
X66658250Y-33367000D01*
X66500000Y-33525250D01*
X65500000Y-33525250D01*
X65341750Y-33367000D01*
X64874089Y-33367000D01*
X64641435Y-33463368D01*
X64463369Y-33641434D01*
X64367000Y-33874088D01*
X62613552Y-33874088D01*
X62593663Y-33768389D01*
X62456781Y-33555668D01*
X62247924Y-33412962D01*
X62000000Y-33362756D01*
X60000000Y-33362756D01*
X59768389Y-33406337D01*
X59555668Y-33543219D01*
X59412962Y-33752076D01*
X59362756Y-34000000D01*
X57700000Y-34000000D01*
X57700000Y-32700000D01*
X78017000Y-32700000D01*
X78017000Y-33546750D01*
X78017000Y-33546750D01*
G37*
X78017000Y-33546750D02*
X78175250Y-33705000D01*
X79275000Y-33705000D01*
X79275000Y-33580000D01*
X80525000Y-33580000D01*
X80525000Y-33705000D01*
X81624750Y-33705000D01*
X81783000Y-33546750D01*
X81783000Y-32700000D01*
X85517000Y-32700000D01*
X85517000Y-33546750D01*
X85675250Y-33705000D01*
X86775000Y-33705000D01*
X86775000Y-33580000D01*
X88025000Y-33580000D01*
X88025000Y-33705000D01*
X89124750Y-33705000D01*
X89283000Y-33546750D01*
X89283000Y-32700000D01*
X100679698Y-32700000D01*
X100460636Y-33027850D01*
X100375000Y-33458369D01*
X100375000Y-35541631D01*
X100460636Y-35972150D01*
X100704505Y-36337126D01*
X101069481Y-36580995D01*
X101500000Y-36666631D01*
X101930519Y-36580995D01*
X102295495Y-36337126D01*
X102539364Y-35972150D01*
X102625000Y-35541631D01*
X102625000Y-35250002D01*
X102679780Y-35250002D01*
X102699089Y-35258000D01*
X103666750Y-35258000D01*
X103825000Y-35099750D01*
X103825000Y-34250000D01*
X105825000Y-34250000D01*
X105825000Y-35099750D01*
X105983250Y-35258000D01*
X106950911Y-35258000D01*
X107183565Y-35161632D01*
X107361631Y-34983566D01*
X107458000Y-34750912D01*
X107458000Y-34408250D01*
X107299750Y-34250000D01*
X105825000Y-34250000D01*
X103825000Y-34250000D01*
X103430000Y-34250000D01*
X103430000Y-33500000D01*
X103825000Y-33500000D01*
X103825000Y-33125000D01*
X105825000Y-33125000D01*
X105825000Y-33500000D01*
X107299750Y-33500000D01*
X107458000Y-33341750D01*
X107458000Y-32999088D01*
X107361631Y-32766434D01*
X107295197Y-32700000D01*
X141127067Y-32700000D01*
X141093389Y-32706337D01*
X140880668Y-32843219D01*
X140737962Y-33052076D01*
X140687756Y-33300000D01*
X140687756Y-35300000D01*
X140731337Y-35531611D01*
X140868219Y-35744332D01*
X141077076Y-35887038D01*
X141325000Y-35937244D01*
X143325000Y-35937244D01*
X143556611Y-35893663D01*
X143769332Y-35756781D01*
X143912038Y-35547924D01*
X143962244Y-35300000D01*
X143962244Y-33300000D01*
X143918663Y-33068389D01*
X143781781Y-32855668D01*
X143572924Y-32712962D01*
X143508916Y-32700000D01*
X144914386Y-32700000D01*
X144730668Y-32818219D01*
X144587962Y-33027076D01*
X144537756Y-33275000D01*
X144537756Y-35275000D01*
X144581337Y-35506611D01*
X144718219Y-35719332D01*
X144927076Y-35862038D01*
X145175000Y-35912244D01*
X147175000Y-35912244D01*
X147406611Y-35868663D01*
X147619332Y-35731781D01*
X147762038Y-35522924D01*
X147812244Y-35275000D01*
X147812244Y-33275000D01*
X147768663Y-33043389D01*
X147631781Y-32830668D01*
X147440542Y-32700000D01*
X148759929Y-32700000D01*
X148593389Y-32731337D01*
X148380668Y-32868219D01*
X148237962Y-33077076D01*
X148187756Y-33325000D01*
X148187756Y-35325000D01*
X148231337Y-35556611D01*
X148368219Y-35769332D01*
X148577076Y-35912038D01*
X148825000Y-35962244D01*
X150825000Y-35962244D01*
X151056611Y-35918663D01*
X151269332Y-35781781D01*
X151412038Y-35572924D01*
X151462244Y-35325000D01*
X151462244Y-34983250D01*
X152142000Y-34983250D01*
X152142000Y-35450912D01*
X152238369Y-35683566D01*
X152416435Y-35861632D01*
X152649089Y-35958000D01*
X153116750Y-35958000D01*
X153275000Y-35799750D01*
X153275000Y-34825000D01*
X154275000Y-34825000D01*
X154275000Y-35799750D01*
X154433250Y-35958000D01*
X154900911Y-35958000D01*
X155133565Y-35861632D01*
X155311631Y-35683566D01*
X155408000Y-35450912D01*
X155408000Y-34983250D01*
X155249750Y-34825000D01*
X154275000Y-34825000D01*
X153275000Y-34825000D01*
X152300250Y-34825000D01*
X152142000Y-34983250D01*
X151462244Y-34983250D01*
X151462244Y-33325000D01*
X151418663Y-33093389D01*
X151281781Y-32880668D01*
X151072924Y-32737962D01*
X150885463Y-32700000D01*
X152399998Y-32700000D01*
X152399998Y-32804805D01*
X152238369Y-32966434D01*
X152142000Y-33199088D01*
X152142000Y-33666750D01*
X152300250Y-33825000D01*
X153275000Y-33825000D01*
X153275000Y-33325000D01*
X154275000Y-33325000D01*
X154275000Y-33825000D01*
X155249750Y-33825000D01*
X155408000Y-33666750D01*
X155408000Y-33199088D01*
X155311631Y-32966434D01*
X155150002Y-32804805D01*
X155150002Y-32700000D01*
X156300000Y-32700000D01*
X156300000Y-36217000D01*
X155703250Y-36217000D01*
X155545000Y-36375250D01*
X155545000Y-37475000D01*
X155670000Y-37475000D01*
X155670000Y-38725000D01*
X155545000Y-38725000D01*
X155545000Y-39824750D01*
X155703250Y-39983000D01*
X156300000Y-39983000D01*
X156300000Y-43717000D01*
X155703250Y-43717000D01*
X155545000Y-43875250D01*
X155545000Y-44975000D01*
X155670000Y-44975000D01*
X155670000Y-46225000D01*
X155545000Y-46225000D01*
X155545000Y-47324750D01*
X155703250Y-47483000D01*
X156300000Y-47483000D01*
X156300000Y-52367000D01*
X155428250Y-52367000D01*
X155270000Y-52525250D01*
X155270000Y-53625000D01*
X155395000Y-53625000D01*
X155395000Y-54875000D01*
X155270000Y-54875000D01*
X155270000Y-55974750D01*
X155428250Y-56133000D01*
X156300000Y-56133000D01*
X156300000Y-59867000D01*
X155428250Y-59867000D01*
X155270000Y-60025250D01*
X155270000Y-61125000D01*
X155395000Y-61125000D01*
X155395000Y-62375000D01*
X155270000Y-62375000D01*
X155270000Y-63474750D01*
X155428250Y-63633000D01*
X156300000Y-63633000D01*
X156300000Y-71922541D01*
X156165912Y-71867000D01*
X154928250Y-71867000D01*
X154770000Y-72025250D01*
X154770000Y-73125000D01*
X154895000Y-73125000D01*
X154895000Y-74375000D01*
X154770000Y-74375000D01*
X154770000Y-75474750D01*
X154928250Y-75633000D01*
X156165912Y-75633000D01*
X156300000Y-75577459D01*
X156300000Y-79422541D01*
X156165912Y-79367000D01*
X154928250Y-79367000D01*
X154770000Y-79525250D01*
X154770000Y-80625000D01*
X154895000Y-80625000D01*
X154895000Y-81875000D01*
X154770000Y-81875000D01*
X154770000Y-82974750D01*
X154928250Y-83133000D01*
X156165912Y-83133000D01*
X156300000Y-83077459D01*
X156300000Y-88422541D01*
X156165912Y-88367000D01*
X154928250Y-88367000D01*
X154770000Y-88525250D01*
X154770000Y-89625000D01*
X154895000Y-89625000D01*
X154895000Y-90875000D01*
X154770000Y-90875000D01*
X154770000Y-91974750D01*
X154928250Y-92133000D01*
X156165912Y-92133000D01*
X156300000Y-92077459D01*
X156300000Y-95922541D01*
X156165912Y-95867000D01*
X154928250Y-95867000D01*
X154770000Y-96025250D01*
X154770000Y-97125000D01*
X154895000Y-97125000D01*
X154895000Y-98375000D01*
X154770000Y-98375000D01*
X154770000Y-99474750D01*
X154928250Y-99633000D01*
X156165912Y-99633000D01*
X156300000Y-99577459D01*
X156300000Y-107422541D01*
X156165912Y-107367000D01*
X154928250Y-107367000D01*
X154770000Y-107525250D01*
X154770000Y-108625000D01*
X154895000Y-108625000D01*
X154895000Y-109875000D01*
X154770000Y-109875000D01*
X154770000Y-110974750D01*
X154928250Y-111133000D01*
X156165912Y-111133000D01*
X156300000Y-111077459D01*
X156300000Y-114922541D01*
X156165912Y-114867000D01*
X154928250Y-114867000D01*
X154770000Y-115025250D01*
X154770000Y-116125000D01*
X154895000Y-116125000D01*
X154895000Y-117375000D01*
X154770000Y-117375000D01*
X154770000Y-118474750D01*
X154928250Y-118633000D01*
X156165912Y-118633000D01*
X156300000Y-118577459D01*
X156300000Y-131300000D01*
X88633000Y-131300000D01*
X88633000Y-130928250D01*
X88474750Y-130770000D01*
X87375000Y-130770000D01*
X87375000Y-130895000D01*
X86125000Y-130895000D01*
X86125000Y-130770000D01*
X85025250Y-130770000D01*
X84867000Y-130928250D01*
X84867000Y-131300000D01*
X81133000Y-131300000D01*
X81133000Y-130928250D01*
X80974750Y-130770000D01*
X79875000Y-130770000D01*
X79875000Y-130895000D01*
X78625000Y-130895000D01*
X78625000Y-130770000D01*
X77525250Y-130770000D01*
X77367000Y-130928250D01*
X77367000Y-131300000D01*
X70633000Y-131300000D01*
X70633000Y-130928250D01*
X70474750Y-130770000D01*
X69375000Y-130770000D01*
X69375000Y-130895000D01*
X68125000Y-130895000D01*
X68125000Y-130770000D01*
X67025250Y-130770000D01*
X66867000Y-130928250D01*
X66867000Y-131300000D01*
X63133000Y-131300000D01*
X63133000Y-130928250D01*
X62974750Y-130770000D01*
X61875000Y-130770000D01*
X61875000Y-130895000D01*
X60625000Y-130895000D01*
X60625000Y-130770000D01*
X59525250Y-130770000D01*
X59367000Y-130928250D01*
X59367000Y-131300000D01*
X57700000Y-131300000D01*
X57700000Y-129787250D01*
X100753000Y-129787250D01*
X100753000Y-130129912D01*
X100849369Y-130362566D01*
X101027435Y-130540632D01*
X101260089Y-130637000D01*
X102227750Y-130637000D01*
X102386000Y-130478750D01*
X102386000Y-129629000D01*
X104386000Y-129629000D01*
X104386000Y-130478750D01*
X104544250Y-130637000D01*
X105511911Y-130637000D01*
X105744565Y-130540632D01*
X105922631Y-130362566D01*
X106019000Y-130129912D01*
X106019000Y-129787250D01*
X105860750Y-129629000D01*
X104386000Y-129629000D01*
X102386000Y-129629000D01*
X100911250Y-129629000D01*
X100753000Y-129787250D01*
X57700000Y-129787250D01*
X57700000Y-128378088D01*
X100753000Y-128378088D01*
X100753000Y-128720750D01*
X100911250Y-128879000D01*
X102386000Y-128879000D01*
X102386000Y-128029250D01*
X104386000Y-128029250D01*
X104386000Y-128879000D01*
X105860750Y-128879000D01*
X106019000Y-128720750D01*
X106019000Y-128378088D01*
X105922631Y-128145434D01*
X105744565Y-127967368D01*
X105511911Y-127871000D01*
X104544250Y-127871000D01*
X104386000Y-128029250D01*
X102386000Y-128029250D01*
X102227750Y-127871000D01*
X101260089Y-127871000D01*
X101027435Y-127967368D01*
X100849369Y-128145434D01*
X100753000Y-128378088D01*
X57700000Y-128378088D01*
X57700000Y-128133000D01*
X58571750Y-128133000D01*
X58624998Y-128079752D01*
X58624998Y-128133000D01*
X59428250Y-128133000D01*
X59525250Y-128230000D01*
X60625000Y-128230000D01*
X60625000Y-128133000D01*
X61375002Y-128133000D01*
X61375002Y-128079752D01*
X61428250Y-128133000D01*
X61875000Y-128133000D01*
X61875000Y-128230000D01*
X62974750Y-128230000D01*
X63133000Y-128071750D01*
X63133000Y-127722480D01*
X63173000Y-127625911D01*
X63173000Y-127033250D01*
X63133000Y-126993250D01*
X63133000Y-126834088D01*
X66867000Y-126834088D01*
X66867000Y-128071750D01*
X67025250Y-128230000D01*
X68125000Y-128230000D01*
X68125000Y-126485250D01*
X69375000Y-126485250D01*
X69375000Y-128230000D01*
X70474750Y-128230000D01*
X70633000Y-128071750D01*
X70633000Y-126834088D01*
X77367000Y-126834088D01*
X77367000Y-128071750D01*
X77525250Y-128230000D01*
X78625000Y-128230000D01*
X78625000Y-126485250D01*
X79875000Y-126485250D01*
X79875000Y-128230000D01*
X80974750Y-128230000D01*
X81133000Y-128071750D01*
X81133000Y-126834088D01*
X84867000Y-126834088D01*
X84867000Y-128071750D01*
X85025250Y-128230000D01*
X86125000Y-128230000D01*
X86125000Y-126485250D01*
X87375000Y-126485250D01*
X87375000Y-128230000D01*
X88474750Y-128230000D01*
X88633000Y-128071750D01*
X88633000Y-126834088D01*
X88536631Y-126601434D01*
X88358565Y-126423368D01*
X88125911Y-126327000D01*
X87533250Y-126327000D01*
X87375000Y-126485250D01*
X86125000Y-126485250D01*
X85966750Y-126327000D01*
X85374089Y-126327000D01*
X85141435Y-126423368D01*
X84963369Y-126601434D01*
X84867000Y-126834088D01*
X81133000Y-126834088D01*
X81036631Y-126601434D01*
X80858565Y-126423368D01*
X80625911Y-126327000D01*
X80033250Y-126327000D01*
X79875000Y-126485250D01*
X78625000Y-126485250D01*
X78466750Y-126327000D01*
X77874089Y-126327000D01*
X77641435Y-126423368D01*
X77463369Y-126601434D01*
X77367000Y-126834088D01*
X70633000Y-126834088D01*
X70536631Y-126601434D01*
X70358565Y-126423368D01*
X70125911Y-126327000D01*
X69533250Y-126327000D01*
X69375000Y-126485250D01*
X68125000Y-126485250D01*
X67966750Y-126327000D01*
X67374089Y-126327000D01*
X67141435Y-126423368D01*
X66963369Y-126601434D01*
X66867000Y-126834088D01*
X63133000Y-126834088D01*
X63036631Y-126601434D01*
X62858565Y-126423368D01*
X62625911Y-126327000D01*
X62033250Y-126327000D01*
X61875000Y-126485250D01*
X61875000Y-126875000D01*
X61270000Y-126875000D01*
X61270000Y-127500000D01*
X60625000Y-127500000D01*
X60625000Y-126485250D01*
X60466750Y-126327000D01*
X59874089Y-126327000D01*
X59641435Y-126423368D01*
X59463369Y-126601434D01*
X59367000Y-126834088D01*
X59367000Y-127500000D01*
X58730000Y-127500000D01*
X58730000Y-126875000D01*
X58605000Y-126875000D01*
X58605000Y-125625000D01*
X58730000Y-125625000D01*
X58730000Y-124525250D01*
X61270000Y-124525250D01*
X61270000Y-125625000D01*
X63014750Y-125625000D01*
X63173000Y-125466750D01*
X63173000Y-124874089D01*
X63093447Y-124682029D01*
X63413180Y-124682029D01*
X63645246Y-125029396D01*
X64107966Y-125376854D01*
X64325000Y-125302581D01*
X64325000Y-124465000D01*
X65175000Y-124465000D01*
X65175000Y-125302581D01*
X65392034Y-125376854D01*
X65854754Y-125029396D01*
X66086820Y-124682029D01*
X66004726Y-124465000D01*
X65175000Y-124465000D01*
X64325000Y-124465000D01*
X63495274Y-124465000D01*
X63413180Y-124682029D01*
X63093447Y-124682029D01*
X63076632Y-124641435D01*
X62898566Y-124463369D01*
X62665912Y-124367000D01*
X61428250Y-124367000D01*
X61270000Y-124525250D01*
X58730000Y-124525250D01*
X58571750Y-124367000D01*
X57700000Y-124367000D01*
X57700000Y-120650000D01*
X63262756Y-120650000D01*
X63262756Y-122350000D01*
X63306337Y-122581611D01*
X63374998Y-122688313D01*
X63374998Y-123190000D01*
X63552120Y-123190000D01*
X63413180Y-123397971D01*
X63495274Y-123615000D01*
X64325000Y-123615000D01*
X64325000Y-123190000D01*
X65175000Y-123190000D01*
X65175000Y-123615000D01*
X66004726Y-123615000D01*
X66086820Y-123397971D01*
X65947880Y-123190000D01*
X66125002Y-123190000D01*
X66125002Y-122688717D01*
X66187038Y-122597924D01*
X66233846Y-122366778D01*
X98959000Y-122366778D01*
X98959000Y-126489222D01*
X99044636Y-126919741D01*
X99288505Y-127284717D01*
X99653481Y-127528586D01*
X99905388Y-127578694D01*
X99912841Y-127589601D01*
X99954568Y-127616451D01*
X100000000Y-127625000D01*
X106866670Y-127625000D01*
X107025729Y-127863049D01*
X107552917Y-128215304D01*
X108174778Y-128339000D01*
X111297222Y-128339000D01*
X111919083Y-128215304D01*
X112040389Y-128134250D01*
X146965000Y-128134250D01*
X146965000Y-128601912D01*
X147061369Y-128834566D01*
X147239435Y-129012632D01*
X147472089Y-129109000D01*
X147939750Y-129109000D01*
X148098000Y-128950750D01*
X148098000Y-127976000D01*
X149098000Y-127976000D01*
X149098000Y-128950750D01*
X149256250Y-129109000D01*
X149723911Y-129109000D01*
X149956565Y-129012632D01*
X150134631Y-128834566D01*
X150231000Y-128601912D01*
X150231000Y-128134250D01*
X150072750Y-127976000D01*
X149098000Y-127976000D01*
X148098000Y-127976000D01*
X147123250Y-127976000D01*
X146965000Y-128134250D01*
X112040389Y-128134250D01*
X112446271Y-127863049D01*
X112605330Y-127625000D01*
X114500000Y-127625000D01*
X114548632Y-127615152D01*
X114589601Y-127587159D01*
X114616451Y-127545432D01*
X114625000Y-127500000D01*
X114625000Y-126350088D01*
X146965000Y-126350088D01*
X146965000Y-126817750D01*
X147123250Y-126976000D01*
X148098000Y-126976000D01*
X148098000Y-126001250D01*
X149098000Y-126001250D01*
X149098000Y-126976000D01*
X150072750Y-126976000D01*
X150231000Y-126817750D01*
X150231000Y-126476000D01*
X151786756Y-126476000D01*
X151786756Y-128476000D01*
X151830337Y-128707611D01*
X151967219Y-128920332D01*
X152176076Y-129063038D01*
X152424000Y-129113244D01*
X154424000Y-129113244D01*
X154655611Y-129069663D01*
X154868332Y-128932781D01*
X155011038Y-128723924D01*
X155061244Y-128476000D01*
X155061244Y-126476000D01*
X155017663Y-126244389D01*
X154880781Y-126031668D01*
X154671924Y-125888962D01*
X154424000Y-125838756D01*
X152424000Y-125838756D01*
X152192389Y-125882337D01*
X151979668Y-126019219D01*
X151836962Y-126228076D01*
X151786756Y-126476000D01*
X150231000Y-126476000D01*
X150231000Y-126350088D01*
X150134631Y-126117434D01*
X149956565Y-125939368D01*
X149723911Y-125843000D01*
X149256250Y-125843000D01*
X149098000Y-126001250D01*
X148098000Y-126001250D01*
X147939750Y-125843000D01*
X147472089Y-125843000D01*
X147239435Y-125939368D01*
X147061369Y-126117434D01*
X146965000Y-126350088D01*
X114625000Y-126350088D01*
X114625000Y-121396000D01*
X146960756Y-121396000D01*
X146960756Y-123396000D01*
X147004337Y-123627611D01*
X147141219Y-123840332D01*
X147350076Y-123983038D01*
X147598000Y-124033244D01*
X149598000Y-124033244D01*
X149829611Y-123989663D01*
X150042332Y-123852781D01*
X150185038Y-123643924D01*
X150235244Y-123396000D01*
X150235244Y-121396000D01*
X151786756Y-121396000D01*
X151786756Y-123396000D01*
X151830337Y-123627611D01*
X151967219Y-123840332D01*
X152176076Y-123983038D01*
X152424000Y-124033244D01*
X154424000Y-124033244D01*
X154655611Y-123989663D01*
X154868332Y-123852781D01*
X155011038Y-123643924D01*
X155061244Y-123396000D01*
X155061244Y-121396000D01*
X155017663Y-121164389D01*
X154880781Y-120951668D01*
X154671924Y-120808962D01*
X154424000Y-120758756D01*
X152424000Y-120758756D01*
X152192389Y-120802337D01*
X151979668Y-120939219D01*
X151836962Y-121148076D01*
X151786756Y-121396000D01*
X150235244Y-121396000D01*
X150191663Y-121164389D01*
X150054781Y-120951668D01*
X149845924Y-120808962D01*
X149598000Y-120758756D01*
X147598000Y-120758756D01*
X147366389Y-120802337D01*
X147153668Y-120939219D01*
X147010962Y-121148076D01*
X146960756Y-121396000D01*
X114625000Y-121396000D01*
X114625000Y-120000000D01*
X114615152Y-119951368D01*
X114587159Y-119910399D01*
X114545432Y-119883549D01*
X114500000Y-119875000D01*
X112042235Y-119875000D01*
X111356424Y-119416756D01*
X110543222Y-119255000D01*
X108420778Y-119255000D01*
X107607576Y-119416756D01*
X106921765Y-119875000D01*
X105738848Y-119875000D01*
X105744565Y-119872632D01*
X105922631Y-119694566D01*
X106019000Y-119461912D01*
X106019000Y-119119250D01*
X105860750Y-118961000D01*
X104386000Y-118961000D01*
X104386000Y-119336000D01*
X102386000Y-119336000D01*
X102386000Y-118961000D01*
X100911250Y-118961000D01*
X100753000Y-119119250D01*
X100753000Y-119461912D01*
X100849369Y-119694566D01*
X101027435Y-119872632D01*
X101033152Y-119875000D01*
X100000000Y-119875000D01*
X99951368Y-119884848D01*
X99910399Y-119912841D01*
X99883549Y-119954568D01*
X99875000Y-120000000D01*
X99875000Y-121283351D01*
X99653481Y-121327414D01*
X99288505Y-121571283D01*
X99044636Y-121936259D01*
X98959000Y-122366778D01*
X66233846Y-122366778D01*
X66237244Y-122350000D01*
X66237244Y-120650000D01*
X66193663Y-120418389D01*
X66056781Y-120205668D01*
X65847924Y-120062962D01*
X65600000Y-120012756D01*
X63900000Y-120012756D01*
X63668389Y-120056337D01*
X63455668Y-120193219D01*
X63312962Y-120402076D01*
X63262756Y-120650000D01*
X57700000Y-120650000D01*
X57700000Y-120633000D01*
X58571750Y-120633000D01*
X58730000Y-120474750D01*
X58730000Y-119375000D01*
X61270000Y-119375000D01*
X61270000Y-120474750D01*
X61428250Y-120633000D01*
X62665912Y-120633000D01*
X62898566Y-120536631D01*
X63076632Y-120358565D01*
X63173000Y-120125911D01*
X63173000Y-119533250D01*
X63014750Y-119375000D01*
X61270000Y-119375000D01*
X58730000Y-119375000D01*
X58605000Y-119375000D01*
X58605000Y-118125000D01*
X58730000Y-118125000D01*
X58730000Y-117025250D01*
X61270000Y-117025250D01*
X61270000Y-118125000D01*
X63014750Y-118125000D01*
X63173000Y-117966750D01*
X63173000Y-117710088D01*
X100753000Y-117710088D01*
X100753000Y-118052750D01*
X100911250Y-118211000D01*
X102386000Y-118211000D01*
X102386000Y-117361250D01*
X104386000Y-117361250D01*
X104386000Y-118211000D01*
X105860750Y-118211000D01*
X106019000Y-118052750D01*
X106019000Y-117710088D01*
X105922631Y-117477434D01*
X105744565Y-117299368D01*
X105511911Y-117203000D01*
X104544250Y-117203000D01*
X104386000Y-117361250D01*
X102386000Y-117361250D01*
X102227750Y-117203000D01*
X101260089Y-117203000D01*
X101027435Y-117299368D01*
X100849369Y-117477434D01*
X100753000Y-117710088D01*
X63173000Y-117710088D01*
X63173000Y-117374089D01*
X63076632Y-117141435D01*
X62898566Y-116963369D01*
X62665912Y-116867000D01*
X61428250Y-116867000D01*
X61270000Y-117025250D01*
X58730000Y-117025250D01*
X58571750Y-116867000D01*
X57700000Y-116867000D01*
X57700000Y-111190778D01*
X98959000Y-111190778D01*
X98959000Y-115313222D01*
X99044636Y-115743741D01*
X99288505Y-116108717D01*
X99653481Y-116352586D01*
X99875000Y-116396649D01*
X99875000Y-116500000D01*
X99884848Y-116548632D01*
X99912841Y-116589601D01*
X99954568Y-116616451D01*
X100000000Y-116625000D01*
X106410948Y-116625000D01*
X106419474Y-116667861D01*
X106771729Y-117195049D01*
X107298917Y-117547304D01*
X107920778Y-117671000D01*
X111043222Y-117671000D01*
X111665083Y-117547304D01*
X111686116Y-117533250D01*
X150327000Y-117533250D01*
X150327000Y-118125911D01*
X150423368Y-118358565D01*
X150601434Y-118536631D01*
X150834088Y-118633000D01*
X152071750Y-118633000D01*
X152230000Y-118474750D01*
X152230000Y-117375000D01*
X150485250Y-117375000D01*
X150327000Y-117533250D01*
X111686116Y-117533250D01*
X112192271Y-117195049D01*
X112544526Y-116667861D01*
X112553052Y-116625000D01*
X115500000Y-116625000D01*
X115548632Y-116615152D01*
X115589601Y-116587159D01*
X115616451Y-116545432D01*
X115625000Y-116500000D01*
X115625000Y-115374089D01*
X150327000Y-115374089D01*
X150327000Y-115966750D01*
X150485250Y-116125000D01*
X152230000Y-116125000D01*
X152230000Y-115025250D01*
X152071750Y-114867000D01*
X150834088Y-114867000D01*
X150601434Y-114963369D01*
X150423368Y-115141435D01*
X150327000Y-115374089D01*
X115625000Y-115374089D01*
X115625000Y-110033250D01*
X150327000Y-110033250D01*
X150327000Y-110625911D01*
X150423368Y-110858565D01*
X150601434Y-111036631D01*
X150834088Y-111133000D01*
X152071750Y-111133000D01*
X152230000Y-110974750D01*
X152230000Y-109875000D01*
X150485250Y-109875000D01*
X150327000Y-110033250D01*
X115625000Y-110033250D01*
X115625000Y-108500000D01*
X115615152Y-108451368D01*
X115587159Y-108410399D01*
X115545432Y-108383549D01*
X115500000Y-108375000D01*
X100000000Y-108375000D01*
X99951368Y-108384848D01*
X99910399Y-108412841D01*
X99883549Y-108454568D01*
X99875000Y-108500000D01*
X99875000Y-110107351D01*
X99653481Y-110151414D01*
X99288505Y-110395283D01*
X99044636Y-110760259D01*
X98959000Y-111190778D01*
X57700000Y-111190778D01*
X57700000Y-111133000D01*
X58571750Y-111133000D01*
X58730000Y-110974750D01*
X58730000Y-109875000D01*
X61270000Y-109875000D01*
X61270000Y-110974750D01*
X61428250Y-111133000D01*
X62665912Y-111133000D01*
X62898566Y-111036631D01*
X63076632Y-110858565D01*
X63173000Y-110625911D01*
X63173000Y-110033250D01*
X63014750Y-109875000D01*
X61270000Y-109875000D01*
X58730000Y-109875000D01*
X58605000Y-109875000D01*
X58605000Y-108625000D01*
X58730000Y-108625000D01*
X58730000Y-107525250D01*
X61270000Y-107525250D01*
X61270000Y-108625000D01*
X63014750Y-108625000D01*
X63173000Y-108466750D01*
X63173000Y-107882029D01*
X63263180Y-107882029D01*
X63495246Y-108229396D01*
X63957966Y-108576854D01*
X64175000Y-108502581D01*
X64175000Y-107665000D01*
X65025000Y-107665000D01*
X65025000Y-108502581D01*
X65242034Y-108576854D01*
X65704754Y-108229396D01*
X65936820Y-107882029D01*
X65933817Y-107874089D01*
X150327000Y-107874089D01*
X150327000Y-108466750D01*
X150485250Y-108625000D01*
X152230000Y-108625000D01*
X152230000Y-107525250D01*
X152071750Y-107367000D01*
X150834088Y-107367000D01*
X150601434Y-107463369D01*
X150423368Y-107641435D01*
X150327000Y-107874089D01*
X65933817Y-107874089D01*
X65854726Y-107665000D01*
X65025000Y-107665000D01*
X64175000Y-107665000D01*
X63345274Y-107665000D01*
X63263180Y-107882029D01*
X63173000Y-107882029D01*
X63173000Y-107874089D01*
X63076632Y-107641435D01*
X62898566Y-107463369D01*
X62665912Y-107367000D01*
X61428250Y-107367000D01*
X61270000Y-107525250D01*
X58730000Y-107525250D01*
X58571750Y-107367000D01*
X57700000Y-107367000D01*
X57700000Y-103850000D01*
X63112756Y-103850000D01*
X63112756Y-105550000D01*
X63156337Y-105781611D01*
X63224998Y-105888313D01*
X63224998Y-106390000D01*
X63402120Y-106390000D01*
X63263180Y-106597971D01*
X63345274Y-106815000D01*
X64175000Y-106815000D01*
X64175000Y-106390000D01*
X65025000Y-106390000D01*
X65025000Y-106815000D01*
X65854726Y-106815000D01*
X65936820Y-106597971D01*
X65797880Y-106390000D01*
X65975002Y-106390000D01*
X65975002Y-105888717D01*
X66037038Y-105797924D01*
X66087244Y-105550000D01*
X66087244Y-103850000D01*
X66043663Y-103618389D01*
X65906781Y-103405668D01*
X65697924Y-103262962D01*
X65450000Y-103212756D01*
X63750000Y-103212756D01*
X63518389Y-103256337D01*
X63305668Y-103393219D01*
X63162962Y-103602076D01*
X63112756Y-103850000D01*
X57700000Y-103850000D01*
X57700000Y-103633000D01*
X58571750Y-103633000D01*
X58730000Y-103474750D01*
X58730000Y-102375000D01*
X61270000Y-102375000D01*
X61270000Y-103474750D01*
X61428250Y-103633000D01*
X62665912Y-103633000D01*
X62898566Y-103536631D01*
X63076632Y-103358565D01*
X63173000Y-103125911D01*
X63173000Y-102533250D01*
X63014750Y-102375000D01*
X61270000Y-102375000D01*
X58730000Y-102375000D01*
X58605000Y-102375000D01*
X58605000Y-101125000D01*
X58730000Y-101125000D01*
X58730000Y-100025250D01*
X61270000Y-100025250D01*
X61270000Y-101125000D01*
X63014750Y-101125000D01*
X63173000Y-100966750D01*
X63173000Y-100374089D01*
X63076632Y-100141435D01*
X62898566Y-99963369D01*
X62665912Y-99867000D01*
X61428250Y-99867000D01*
X61270000Y-100025250D01*
X58730000Y-100025250D01*
X58571750Y-99867000D01*
X57700000Y-99867000D01*
X57700000Y-98533250D01*
X150327000Y-98533250D01*
X150327000Y-99125911D01*
X150423368Y-99358565D01*
X150601434Y-99536631D01*
X150834088Y-99633000D01*
X152071750Y-99633000D01*
X152230000Y-99474750D01*
X152230000Y-98375000D01*
X150485250Y-98375000D01*
X150327000Y-98533250D01*
X57700000Y-98533250D01*
X57700000Y-96374089D01*
X150327000Y-96374089D01*
X150327000Y-96966750D01*
X150485250Y-97125000D01*
X152230000Y-97125000D01*
X152230000Y-96025250D01*
X152071750Y-95867000D01*
X150834088Y-95867000D01*
X150601434Y-95963369D01*
X150423368Y-96141435D01*
X150327000Y-96374089D01*
X57700000Y-96374089D01*
X57700000Y-94371324D01*
X100124676Y-94371324D01*
X100409526Y-95060714D01*
X100936511Y-95588620D01*
X101625403Y-95874673D01*
X102371324Y-95875324D01*
X103060714Y-95590474D01*
X103588620Y-95063489D01*
X103874673Y-94374597D01*
X103875324Y-93628676D01*
X103590474Y-92939286D01*
X103063489Y-92411380D01*
X102374597Y-92125327D01*
X101628676Y-92124676D01*
X100939286Y-92409526D01*
X100411380Y-92936511D01*
X100125327Y-93625403D01*
X100124676Y-94371324D01*
X57700000Y-94371324D01*
X57700000Y-93633000D01*
X58571750Y-93633000D01*
X58730000Y-93474750D01*
X58730000Y-92375000D01*
X61270000Y-92375000D01*
X61270000Y-93474750D01*
X61428250Y-93633000D01*
X62665912Y-93633000D01*
X62898566Y-93536631D01*
X63076632Y-93358565D01*
X63173000Y-93125911D01*
X63173000Y-92533250D01*
X63014750Y-92375000D01*
X61270000Y-92375000D01*
X58730000Y-92375000D01*
X58605000Y-92375000D01*
X58605000Y-91425000D01*
X63987756Y-91425000D01*
X63987756Y-93425000D01*
X64031337Y-93656611D01*
X64168219Y-93869332D01*
X64377076Y-94012038D01*
X64625000Y-94062244D01*
X66625000Y-94062244D01*
X66856611Y-94018663D01*
X67069332Y-93881781D01*
X67212038Y-93672924D01*
X67262244Y-93425000D01*
X67262244Y-91425000D01*
X68737756Y-91425000D01*
X68737756Y-93425000D01*
X68781337Y-93656611D01*
X68918219Y-93869332D01*
X69127076Y-94012038D01*
X69375000Y-94062244D01*
X71375000Y-94062244D01*
X71606611Y-94018663D01*
X71819332Y-93881781D01*
X71962038Y-93672924D01*
X72012244Y-93425000D01*
X72012244Y-91425000D01*
X71968663Y-91193389D01*
X71831781Y-90980668D01*
X71622924Y-90837962D01*
X71375000Y-90787756D01*
X69375000Y-90787756D01*
X69143389Y-90831337D01*
X68930668Y-90968219D01*
X68787962Y-91177076D01*
X68737756Y-91425000D01*
X67262244Y-91425000D01*
X67218663Y-91193389D01*
X67081781Y-90980668D01*
X66872924Y-90837962D01*
X66625000Y-90787756D01*
X64625000Y-90787756D01*
X64393389Y-90831337D01*
X64180668Y-90968219D01*
X64037962Y-91177076D01*
X63987756Y-91425000D01*
X58605000Y-91425000D01*
X58605000Y-91125000D01*
X58730000Y-91125000D01*
X58730000Y-90025250D01*
X61270000Y-90025250D01*
X61270000Y-91125000D01*
X63014750Y-91125000D01*
X63173000Y-90966750D01*
X63173000Y-90374089D01*
X63076632Y-90141435D01*
X62898566Y-89963369D01*
X62665912Y-89867000D01*
X61428250Y-89867000D01*
X61270000Y-90025250D01*
X58730000Y-90025250D01*
X58571750Y-89867000D01*
X57700000Y-89867000D01*
X57700000Y-89308250D01*
X64092000Y-89308250D01*
X64092000Y-89775912D01*
X64188369Y-90008566D01*
X64366435Y-90186632D01*
X64599089Y-90283000D01*
X65066750Y-90283000D01*
X65225000Y-90124750D01*
X65225000Y-89150000D01*
X66225000Y-89150000D01*
X66225000Y-90124750D01*
X66383250Y-90283000D01*
X66850911Y-90283000D01*
X67083565Y-90186632D01*
X67261631Y-90008566D01*
X67358000Y-89775912D01*
X67358000Y-89308250D01*
X67199750Y-89150000D01*
X66225000Y-89150000D01*
X65225000Y-89150000D01*
X64250250Y-89150000D01*
X64092000Y-89308250D01*
X57700000Y-89308250D01*
X57700000Y-87524088D01*
X64092000Y-87524088D01*
X64092000Y-87991750D01*
X64250250Y-88150000D01*
X65225000Y-88150000D01*
X65225000Y-87175250D01*
X66225000Y-87175250D01*
X66225000Y-88150000D01*
X67199750Y-88150000D01*
X67358000Y-87991750D01*
X67358000Y-87675000D01*
X68537756Y-87675000D01*
X68537756Y-89675000D01*
X68581337Y-89906611D01*
X68718219Y-90119332D01*
X68927076Y-90262038D01*
X69175000Y-90312244D01*
X71175000Y-90312244D01*
X71406611Y-90268663D01*
X71619332Y-90131781D01*
X71762038Y-89922924D01*
X71812244Y-89675000D01*
X71812244Y-89250000D01*
X72387756Y-89250000D01*
X72387756Y-90950000D01*
X72431337Y-91181611D01*
X72568219Y-91394332D01*
X72777076Y-91537038D01*
X73025000Y-91587244D01*
X74725000Y-91587244D01*
X74956611Y-91543663D01*
X75063313Y-91475002D01*
X75565000Y-91475002D01*
X75565000Y-91297880D01*
X75772971Y-91436820D01*
X75990000Y-91354726D01*
X75990000Y-90525000D01*
X76840000Y-90525000D01*
X76840000Y-91354726D01*
X77057029Y-91436820D01*
X77404396Y-91204754D01*
X77751854Y-90742034D01*
X77677581Y-90525000D01*
X76840000Y-90525000D01*
X75990000Y-90525000D01*
X75565000Y-90525000D01*
X75565000Y-89675000D01*
X75990000Y-89675000D01*
X75990000Y-88845274D01*
X76840000Y-88845274D01*
X76840000Y-89675000D01*
X77677581Y-89675000D01*
X77716936Y-89560000D01*
X81442756Y-89560000D01*
X81442756Y-91260000D01*
X81486337Y-91491611D01*
X81623219Y-91704332D01*
X81832076Y-91847038D01*
X82080000Y-91897244D01*
X83780000Y-91897244D01*
X83917751Y-91871324D01*
X95084676Y-91871324D01*
X95369526Y-92560714D01*
X95896511Y-93088620D01*
X96585403Y-93374673D01*
X97331324Y-93375324D01*
X98020714Y-93090474D01*
X98548620Y-92563489D01*
X98834673Y-91874597D01*
X98835324Y-91128676D01*
X98795895Y-91033250D01*
X150327000Y-91033250D01*
X150327000Y-91625911D01*
X150423368Y-91858565D01*
X150601434Y-92036631D01*
X150834088Y-92133000D01*
X152071750Y-92133000D01*
X152230000Y-91974750D01*
X152230000Y-90875000D01*
X150485250Y-90875000D01*
X150327000Y-91033250D01*
X98795895Y-91033250D01*
X98550474Y-90439286D01*
X98023489Y-89911380D01*
X97334597Y-89625327D01*
X96588676Y-89624676D01*
X95899286Y-89909526D01*
X95371380Y-90436511D01*
X95085327Y-91125403D01*
X95084676Y-91871324D01*
X83917751Y-91871324D01*
X84011611Y-91853663D01*
X84118313Y-91785002D01*
X84620000Y-91785002D01*
X84620000Y-91607880D01*
X84827971Y-91746820D01*
X85045000Y-91664726D01*
X85045000Y-90835000D01*
X85895000Y-90835000D01*
X85895000Y-91664726D01*
X86112029Y-91746820D01*
X86459396Y-91514754D01*
X86806854Y-91052034D01*
X86732581Y-90835000D01*
X85895000Y-90835000D01*
X85045000Y-90835000D01*
X84620000Y-90835000D01*
X84620000Y-89985000D01*
X85045000Y-89985000D01*
X85045000Y-89155274D01*
X85895000Y-89155274D01*
X85895000Y-89985000D01*
X86732581Y-89985000D01*
X86806854Y-89767966D01*
X86509015Y-89371324D01*
X100124676Y-89371324D01*
X100409526Y-90060714D01*
X100936511Y-90588620D01*
X101625403Y-90874673D01*
X102371324Y-90875324D01*
X103060714Y-90590474D01*
X103588620Y-90063489D01*
X103874673Y-89374597D01*
X103875109Y-88874089D01*
X150327000Y-88874089D01*
X150327000Y-89466750D01*
X150485250Y-89625000D01*
X152230000Y-89625000D01*
X152230000Y-88525250D01*
X152071750Y-88367000D01*
X150834088Y-88367000D01*
X150601434Y-88463369D01*
X150423368Y-88641435D01*
X150327000Y-88874089D01*
X103875109Y-88874089D01*
X103875324Y-88628676D01*
X103590474Y-87939286D01*
X103063489Y-87411380D01*
X102374597Y-87125327D01*
X101628676Y-87124676D01*
X100939286Y-87409526D01*
X100411380Y-87936511D01*
X100125327Y-88625403D01*
X100124676Y-89371324D01*
X86509015Y-89371324D01*
X86459396Y-89305246D01*
X86112029Y-89073180D01*
X85895000Y-89155274D01*
X85045000Y-89155274D01*
X84827971Y-89073180D01*
X84620000Y-89212120D01*
X84620000Y-89034998D01*
X84118717Y-89034998D01*
X84027924Y-88972962D01*
X83780000Y-88922756D01*
X82080000Y-88922756D01*
X81848389Y-88966337D01*
X81635668Y-89103219D01*
X81492962Y-89312076D01*
X81442756Y-89560000D01*
X77716936Y-89560000D01*
X77751854Y-89457966D01*
X77404396Y-88995246D01*
X77057029Y-88763180D01*
X76840000Y-88845274D01*
X75990000Y-88845274D01*
X75772971Y-88763180D01*
X75565000Y-88902120D01*
X75565000Y-88724998D01*
X75063717Y-88724998D01*
X74972924Y-88662962D01*
X74725000Y-88612756D01*
X73025000Y-88612756D01*
X72793389Y-88656337D01*
X72580668Y-88793219D01*
X72437962Y-89002076D01*
X72387756Y-89250000D01*
X71812244Y-89250000D01*
X71812244Y-87675000D01*
X71768663Y-87443389D01*
X71631781Y-87230668D01*
X71422924Y-87087962D01*
X71175000Y-87037756D01*
X69175000Y-87037756D01*
X68943389Y-87081337D01*
X68730668Y-87218219D01*
X68587962Y-87427076D01*
X68537756Y-87675000D01*
X67358000Y-87675000D01*
X67358000Y-87524088D01*
X67261631Y-87291434D01*
X67083565Y-87113368D01*
X66850911Y-87017000D01*
X66383250Y-87017000D01*
X66225000Y-87175250D01*
X65225000Y-87175250D01*
X65066750Y-87017000D01*
X64599089Y-87017000D01*
X64366435Y-87113368D01*
X64188369Y-87291434D01*
X64092000Y-87524088D01*
X57700000Y-87524088D01*
X57700000Y-86133000D01*
X58571750Y-86133000D01*
X58730000Y-85974750D01*
X58730000Y-84875000D01*
X61270000Y-84875000D01*
X61270000Y-85974750D01*
X61428250Y-86133000D01*
X62665912Y-86133000D01*
X62898566Y-86036631D01*
X63076632Y-85858565D01*
X63173000Y-85625911D01*
X63173000Y-85033250D01*
X63014750Y-84875000D01*
X61270000Y-84875000D01*
X58730000Y-84875000D01*
X58605000Y-84875000D01*
X58605000Y-83625000D01*
X58730000Y-83625000D01*
X58730000Y-82525250D01*
X61270000Y-82525250D01*
X61270000Y-83625000D01*
X63014750Y-83625000D01*
X63173000Y-83466750D01*
X63173000Y-82874089D01*
X63076632Y-82641435D01*
X62898566Y-82463369D01*
X62665912Y-82367000D01*
X61428250Y-82367000D01*
X61270000Y-82525250D01*
X58730000Y-82525250D01*
X58571750Y-82367000D01*
X57700000Y-82367000D01*
X57700000Y-81550000D01*
X95912756Y-81550000D01*
X95912756Y-85050000D01*
X95956337Y-85281611D01*
X96093219Y-85494332D01*
X96302076Y-85637038D01*
X96550000Y-85687244D01*
X100050000Y-85687244D01*
X100281611Y-85643663D01*
X100494332Y-85506781D01*
X100637038Y-85297924D01*
X100687244Y-85050000D01*
X100687244Y-82033250D01*
X150327000Y-82033250D01*
X150327000Y-82625911D01*
X150423368Y-82858565D01*
X150601434Y-83036631D01*
X150834088Y-83133000D01*
X152071750Y-83133000D01*
X152230000Y-82974750D01*
X152230000Y-81875000D01*
X150485250Y-81875000D01*
X150327000Y-82033250D01*
X100687244Y-82033250D01*
X100687244Y-81550000D01*
X100643663Y-81318389D01*
X100506781Y-81105668D01*
X100333462Y-80987244D01*
X103050000Y-80987244D01*
X103281611Y-80943663D01*
X103494332Y-80806781D01*
X103637038Y-80597924D01*
X103687244Y-80350000D01*
X103687244Y-78641324D01*
X130884676Y-78641324D01*
X131169526Y-79330714D01*
X131696511Y-79858620D01*
X132385403Y-80144673D01*
X133131324Y-80145324D01*
X133787763Y-79874089D01*
X150327000Y-79874089D01*
X150327000Y-80466750D01*
X150485250Y-80625000D01*
X152230000Y-80625000D01*
X152230000Y-79525250D01*
X152071750Y-79367000D01*
X150834088Y-79367000D01*
X150601434Y-79463369D01*
X150423368Y-79641435D01*
X150327000Y-79874089D01*
X133787763Y-79874089D01*
X133820714Y-79860474D01*
X134348620Y-79333489D01*
X134634673Y-78644597D01*
X134635324Y-77898676D01*
X134350474Y-77209286D01*
X133823489Y-76681380D01*
X133134597Y-76395327D01*
X132388676Y-76394676D01*
X131699286Y-76679526D01*
X131171380Y-77206511D01*
X130885327Y-77895403D01*
X130884676Y-78641324D01*
X103687244Y-78641324D01*
X103687244Y-76871324D01*
X115624676Y-76871324D01*
X115909526Y-77560714D01*
X116436511Y-78088620D01*
X117125403Y-78374673D01*
X117871324Y-78375324D01*
X118560714Y-78090474D01*
X119088620Y-77563489D01*
X119374673Y-76874597D01*
X119375324Y-76128676D01*
X119090474Y-75439286D01*
X118563489Y-74911380D01*
X117874597Y-74625327D01*
X117128676Y-74624676D01*
X116439286Y-74909526D01*
X115911380Y-75436511D01*
X115625327Y-76125403D01*
X115624676Y-76871324D01*
X103687244Y-76871324D01*
X103687244Y-76850000D01*
X103643663Y-76618389D01*
X103506781Y-76405668D01*
X103297924Y-76262962D01*
X103050000Y-76212756D01*
X99550000Y-76212756D01*
X99318389Y-76256337D01*
X99105668Y-76393219D01*
X98962962Y-76602076D01*
X98912756Y-76850000D01*
X98912756Y-80350000D01*
X98956337Y-80581611D01*
X99093219Y-80794332D01*
X99266538Y-80912756D01*
X97345496Y-80912756D01*
X97408565Y-80886632D01*
X97586631Y-80708566D01*
X97683000Y-80475912D01*
X97683000Y-79633250D01*
X97524750Y-79475000D01*
X96175000Y-79475000D01*
X96175000Y-80824750D01*
X96311208Y-80960958D01*
X96105668Y-81093219D01*
X95962962Y-81302076D01*
X95912756Y-81550000D01*
X57700000Y-81550000D01*
X57700000Y-79633250D01*
X92917000Y-79633250D01*
X92917000Y-80475912D01*
X93013369Y-80708566D01*
X93191435Y-80886632D01*
X93424089Y-80983000D01*
X94266750Y-80983000D01*
X94425000Y-80824750D01*
X94425000Y-79475000D01*
X93075250Y-79475000D01*
X92917000Y-79633250D01*
X57700000Y-79633250D01*
X57700000Y-76724088D01*
X92917000Y-76724088D01*
X92917000Y-77566750D01*
X93075250Y-77725000D01*
X94425000Y-77725000D01*
X94425000Y-76375250D01*
X96175000Y-76375250D01*
X96175000Y-77725000D01*
X97524750Y-77725000D01*
X97683000Y-77566750D01*
X97683000Y-76724088D01*
X97586631Y-76491434D01*
X97408565Y-76313368D01*
X97175911Y-76217000D01*
X96333250Y-76217000D01*
X96175000Y-76375250D01*
X94425000Y-76375250D01*
X94266750Y-76217000D01*
X93424089Y-76217000D01*
X93191435Y-76313368D01*
X93013369Y-76491434D01*
X92917000Y-76724088D01*
X57700000Y-76724088D01*
X57700000Y-76633000D01*
X58371750Y-76633000D01*
X58530000Y-76474750D01*
X58530000Y-75375000D01*
X61070000Y-75375000D01*
X61070000Y-76474750D01*
X61228250Y-76633000D01*
X62465912Y-76633000D01*
X62698566Y-76536631D01*
X62876632Y-76358565D01*
X62973000Y-76125911D01*
X62973000Y-75533250D01*
X62814750Y-75375000D01*
X61070000Y-75375000D01*
X58530000Y-75375000D01*
X58405000Y-75375000D01*
X58405000Y-74371324D01*
X110584676Y-74371324D01*
X110869526Y-75060714D01*
X111396511Y-75588620D01*
X112085403Y-75874673D01*
X112831324Y-75875324D01*
X113520714Y-75590474D01*
X114048620Y-75063489D01*
X114334673Y-74374597D01*
X114335324Y-73628676D01*
X114324023Y-73601324D01*
X128384676Y-73601324D01*
X128669526Y-74290714D01*
X129196511Y-74818620D01*
X129885403Y-75104673D01*
X130631324Y-75105324D01*
X131320714Y-74820474D01*
X131848620Y-74293489D01*
X132134673Y-73604597D01*
X132134675Y-73601324D01*
X133384676Y-73601324D01*
X133669526Y-74290714D01*
X134196511Y-74818620D01*
X134885403Y-75104673D01*
X135631324Y-75105324D01*
X136320714Y-74820474D01*
X136608439Y-74533250D01*
X150327000Y-74533250D01*
X150327000Y-75125911D01*
X150423368Y-75358565D01*
X150601434Y-75536631D01*
X150834088Y-75633000D01*
X152071750Y-75633000D01*
X152230000Y-75474750D01*
X152230000Y-74375000D01*
X150485250Y-74375000D01*
X150327000Y-74533250D01*
X136608439Y-74533250D01*
X136848620Y-74293489D01*
X137134673Y-73604597D01*
X137135324Y-72858676D01*
X136935097Y-72374089D01*
X150327000Y-72374089D01*
X150327000Y-72966750D01*
X150485250Y-73125000D01*
X152230000Y-73125000D01*
X152230000Y-72025250D01*
X152071750Y-71867000D01*
X150834088Y-71867000D01*
X150601434Y-71963369D01*
X150423368Y-72141435D01*
X150327000Y-72374089D01*
X136935097Y-72374089D01*
X136850474Y-72169286D01*
X136323489Y-71641380D01*
X135634597Y-71355327D01*
X134888676Y-71354676D01*
X134199286Y-71639526D01*
X133671380Y-72166511D01*
X133385327Y-72855403D01*
X133384676Y-73601324D01*
X132134675Y-73601324D01*
X132135324Y-72858676D01*
X131850474Y-72169286D01*
X131323489Y-71641380D01*
X130634597Y-71355327D01*
X129888676Y-71354676D01*
X129199286Y-71639526D01*
X128671380Y-72166511D01*
X128385327Y-72855403D01*
X128384676Y-73601324D01*
X114324023Y-73601324D01*
X114050474Y-72939286D01*
X113523489Y-72411380D01*
X112834597Y-72125327D01*
X112088676Y-72124676D01*
X111399286Y-72409526D01*
X110871380Y-72936511D01*
X110585327Y-73625403D01*
X110584676Y-74371324D01*
X58405000Y-74371324D01*
X58405000Y-74125000D01*
X58530000Y-74125000D01*
X58530000Y-73025250D01*
X61070000Y-73025250D01*
X61070000Y-74125000D01*
X62814750Y-74125000D01*
X62973000Y-73966750D01*
X62973000Y-73374089D01*
X62876632Y-73141435D01*
X62698566Y-72963369D01*
X62465912Y-72867000D01*
X61228250Y-72867000D01*
X61070000Y-73025250D01*
X58530000Y-73025250D01*
X58371750Y-72867000D01*
X57700000Y-72867000D01*
X57700000Y-71871324D01*
X115624676Y-71871324D01*
X115909526Y-72560714D01*
X116436511Y-73088620D01*
X117125403Y-73374673D01*
X117871324Y-73375324D01*
X118560714Y-73090474D01*
X119088620Y-72563489D01*
X119374673Y-71874597D01*
X119375324Y-71128676D01*
X119090474Y-70439286D01*
X118563489Y-69911380D01*
X118198926Y-69760000D01*
X123650001Y-69760000D01*
X123710896Y-70066147D01*
X123884315Y-70325685D01*
X124143853Y-70499104D01*
X124450000Y-70559999D01*
X124756147Y-70499104D01*
X125015685Y-70325685D01*
X125155685Y-70185685D01*
X125329104Y-69926147D01*
X125389999Y-69620000D01*
X125329104Y-69313853D01*
X125155685Y-69054315D01*
X124896147Y-68880896D01*
X124590000Y-68820001D01*
X124283853Y-68880896D01*
X124024315Y-69054315D01*
X123884315Y-69194315D01*
X123710896Y-69453853D01*
X123650001Y-69760000D01*
X118198926Y-69760000D01*
X117874597Y-69625327D01*
X117128676Y-69624676D01*
X116439286Y-69909526D01*
X115911380Y-70436511D01*
X115625327Y-71125403D01*
X115624676Y-71871324D01*
X57700000Y-71871324D01*
X57700000Y-69133000D01*
X58371750Y-69133000D01*
X58530000Y-68974750D01*
X58530000Y-67875000D01*
X61070000Y-67875000D01*
X61070000Y-68974750D01*
X61228250Y-69133000D01*
X62465912Y-69133000D01*
X62698566Y-69036631D01*
X62876632Y-68858565D01*
X62973000Y-68625911D01*
X62973000Y-68033250D01*
X62814750Y-67875000D01*
X61070000Y-67875000D01*
X58530000Y-67875000D01*
X58405000Y-67875000D01*
X58405000Y-66625000D01*
X58530000Y-66625000D01*
X58530000Y-65525250D01*
X61070000Y-65525250D01*
X61070000Y-66625000D01*
X62814750Y-66625000D01*
X62973000Y-66466750D01*
X62973000Y-65874089D01*
X62876632Y-65641435D01*
X62698566Y-65463369D01*
X62465912Y-65367000D01*
X61228250Y-65367000D01*
X61070000Y-65525250D01*
X58530000Y-65525250D01*
X58371750Y-65367000D01*
X57700000Y-65367000D01*
X57700000Y-62533250D01*
X150827000Y-62533250D01*
X150827000Y-63125911D01*
X150923368Y-63358565D01*
X151101434Y-63536631D01*
X151334088Y-63633000D01*
X152571750Y-63633000D01*
X152730000Y-63474750D01*
X152730000Y-62375000D01*
X150985250Y-62375000D01*
X150827000Y-62533250D01*
X57700000Y-62533250D01*
X57700000Y-60633000D01*
X58571750Y-60633000D01*
X58730000Y-60474750D01*
X58730000Y-59375000D01*
X61270000Y-59375000D01*
X61270000Y-60474750D01*
X61428250Y-60633000D01*
X62665912Y-60633000D01*
X62898566Y-60536631D01*
X63061108Y-60374089D01*
X150827000Y-60374089D01*
X150827000Y-60966750D01*
X150985250Y-61125000D01*
X152730000Y-61125000D01*
X152730000Y-60025250D01*
X152571750Y-59867000D01*
X151334088Y-59867000D01*
X151101434Y-59963369D01*
X150923368Y-60141435D01*
X150827000Y-60374089D01*
X63061108Y-60374089D01*
X63076632Y-60358565D01*
X63173000Y-60125911D01*
X63173000Y-59533250D01*
X63014750Y-59375000D01*
X61270000Y-59375000D01*
X58730000Y-59375000D01*
X58605000Y-59375000D01*
X58605000Y-58125000D01*
X58730000Y-58125000D01*
X58730000Y-57025250D01*
X61270000Y-57025250D01*
X61270000Y-58125000D01*
X63014750Y-58125000D01*
X63173000Y-57966750D01*
X63173000Y-57374089D01*
X63076632Y-57141435D01*
X62898566Y-56963369D01*
X62665912Y-56867000D01*
X61428250Y-56867000D01*
X61270000Y-57025250D01*
X58730000Y-57025250D01*
X58571750Y-56867000D01*
X57700000Y-56867000D01*
X57700000Y-55033250D01*
X150827000Y-55033250D01*
X150827000Y-55625911D01*
X150923368Y-55858565D01*
X151101434Y-56036631D01*
X151334088Y-56133000D01*
X152571750Y-56133000D01*
X152730000Y-55974750D01*
X152730000Y-54875000D01*
X150985250Y-54875000D01*
X150827000Y-55033250D01*
X57700000Y-55033250D01*
X57700000Y-53133000D01*
X58571750Y-53133000D01*
X58730000Y-52974750D01*
X58730000Y-51875000D01*
X61270000Y-51875000D01*
X61270000Y-52974750D01*
X61428250Y-53133000D01*
X62665912Y-53133000D01*
X62898566Y-53036631D01*
X63061108Y-52874089D01*
X150827000Y-52874089D01*
X150827000Y-53466750D01*
X150985250Y-53625000D01*
X152730000Y-53625000D01*
X152730000Y-52525250D01*
X152571750Y-52367000D01*
X151334088Y-52367000D01*
X151101434Y-52463369D01*
X150923368Y-52641435D01*
X150827000Y-52874089D01*
X63061108Y-52874089D01*
X63076632Y-52858565D01*
X63173000Y-52625911D01*
X63173000Y-52033250D01*
X63014750Y-51875000D01*
X61270000Y-51875000D01*
X58730000Y-51875000D01*
X58605000Y-51875000D01*
X58605000Y-50625000D01*
X58730000Y-50625000D01*
X58730000Y-49525250D01*
X61270000Y-49525250D01*
X61270000Y-50625000D01*
X63014750Y-50625000D01*
X63173000Y-50466750D01*
X63173000Y-49874089D01*
X63076632Y-49641435D01*
X62898566Y-49463369D01*
X62665912Y-49367000D01*
X61428250Y-49367000D01*
X61270000Y-49525250D01*
X58730000Y-49525250D01*
X58571750Y-49367000D01*
X57700000Y-49367000D01*
X57700000Y-39000000D01*
X59362756Y-39000000D01*
X59362756Y-41000000D01*
X59406337Y-41231611D01*
X59543219Y-41444332D01*
X59752076Y-41587038D01*
X60000000Y-41637244D01*
X62000000Y-41637244D01*
X62231611Y-41593663D01*
X62444332Y-41456781D01*
X62587038Y-41247924D01*
X62637244Y-41000000D01*
X62637244Y-39000000D01*
X64362756Y-39000000D01*
X64362756Y-41000000D01*
X64406337Y-41231611D01*
X64543219Y-41444332D01*
X64752076Y-41587038D01*
X65000000Y-41637244D01*
X67000000Y-41637244D01*
X67231611Y-41593663D01*
X67444332Y-41456781D01*
X67587038Y-41247924D01*
X67637244Y-41000000D01*
X67637244Y-40438778D01*
X100375000Y-40438778D01*
X100375000Y-44561222D01*
X100460636Y-44991741D01*
X100704505Y-45356717D01*
X100875000Y-45470638D01*
X100875000Y-47000000D01*
X100884848Y-47048632D01*
X100912841Y-47089601D01*
X100954568Y-47116451D01*
X101000000Y-47125000D01*
X118000000Y-47125000D01*
X118048632Y-47115152D01*
X118089601Y-47087159D01*
X118116451Y-47045432D01*
X118125000Y-47000000D01*
X118125000Y-46383250D01*
X151102000Y-46383250D01*
X151102000Y-46975911D01*
X151198368Y-47208565D01*
X151376434Y-47386631D01*
X151609088Y-47483000D01*
X152846750Y-47483000D01*
X153005000Y-47324750D01*
X153005000Y-46225000D01*
X151260250Y-46225000D01*
X151102000Y-46383250D01*
X118125000Y-46383250D01*
X118125000Y-44224089D01*
X151102000Y-44224089D01*
X151102000Y-44816750D01*
X151260250Y-44975000D01*
X153005000Y-44975000D01*
X153005000Y-43875250D01*
X152846750Y-43717000D01*
X151609088Y-43717000D01*
X151376434Y-43813369D01*
X151198368Y-43991435D01*
X151102000Y-44224089D01*
X118125000Y-44224089D01*
X118125000Y-38883250D01*
X151102000Y-38883250D01*
X151102000Y-39475911D01*
X151198368Y-39708565D01*
X151376434Y-39886631D01*
X151609088Y-39983000D01*
X152846750Y-39983000D01*
X153005000Y-39824750D01*
X153005000Y-38725000D01*
X151260250Y-38725000D01*
X151102000Y-38883250D01*
X118125000Y-38883250D01*
X118125000Y-37000000D01*
X118115152Y-36951368D01*
X118087159Y-36910399D01*
X118045432Y-36883549D01*
X118000000Y-36875000D01*
X114286570Y-36875000D01*
X114256552Y-36724089D01*
X151102000Y-36724089D01*
X151102000Y-37316750D01*
X151260250Y-37475000D01*
X153005000Y-37475000D01*
X153005000Y-36375250D01*
X152846750Y-36217000D01*
X151609088Y-36217000D01*
X151376434Y-36313369D01*
X151198368Y-36491435D01*
X151102000Y-36724089D01*
X114256552Y-36724089D01*
X114112479Y-35999785D01*
X113489257Y-35067068D01*
X112556540Y-34443846D01*
X111456325Y-34225000D01*
X111343675Y-34225000D01*
X110243460Y-34443846D01*
X109310743Y-35067068D01*
X108687521Y-35999785D01*
X108513430Y-36875000D01*
X101000000Y-36875000D01*
X100951368Y-36884848D01*
X100910399Y-36912841D01*
X100883549Y-36954568D01*
X100875000Y-37000000D01*
X100875000Y-39529362D01*
X100704505Y-39643283D01*
X100460636Y-40008259D01*
X100375000Y-40438778D01*
X67637244Y-40438778D01*
X67637244Y-39000000D01*
X67593663Y-38768389D01*
X67456781Y-38555668D01*
X67247924Y-38412962D01*
X67000000Y-38362756D01*
X65000000Y-38362756D01*
X64768389Y-38406337D01*
X64555668Y-38543219D01*
X64412962Y-38752076D01*
X64362756Y-39000000D01*
X62637244Y-39000000D01*
X62593663Y-38768389D01*
X62456781Y-38555668D01*
X62247924Y-38412962D01*
X62000000Y-38362756D01*
X60000000Y-38362756D01*
X59768389Y-38406337D01*
X59555668Y-38543219D01*
X59412962Y-38752076D01*
X59362756Y-39000000D01*
X57700000Y-39000000D01*
X57700000Y-34000000D01*
X59362756Y-34000000D01*
X59362756Y-36000000D01*
X59406337Y-36231611D01*
X59543219Y-36444332D01*
X59752076Y-36587038D01*
X60000000Y-36637244D01*
X62000000Y-36637244D01*
X62231611Y-36593663D01*
X62444332Y-36456781D01*
X62587038Y-36247924D01*
X62637244Y-36000000D01*
X62637244Y-35658250D01*
X64367000Y-35658250D01*
X64367000Y-36125912D01*
X64463369Y-36358566D01*
X64641435Y-36536632D01*
X64874089Y-36633000D01*
X65341750Y-36633000D01*
X65500000Y-36474750D01*
X65500000Y-35500000D01*
X66500000Y-35500000D01*
X66500000Y-36474750D01*
X66658250Y-36633000D01*
X67125911Y-36633000D01*
X67358565Y-36536632D01*
X67491947Y-36403250D01*
X78017000Y-36403250D01*
X78017000Y-37640912D01*
X78113369Y-37873566D01*
X78291435Y-38051632D01*
X78524089Y-38148000D01*
X79116750Y-38148000D01*
X79275000Y-37989750D01*
X79275000Y-36245000D01*
X80525000Y-36245000D01*
X80525000Y-37989750D01*
X80683250Y-38148000D01*
X81275911Y-38148000D01*
X81508565Y-38051632D01*
X81686631Y-37873566D01*
X81783000Y-37640912D01*
X81783000Y-36403250D01*
X85517000Y-36403250D01*
X85517000Y-37640912D01*
X85613369Y-37873566D01*
X85791435Y-38051632D01*
X86024089Y-38148000D01*
X86616750Y-38148000D01*
X86775000Y-37989750D01*
X86775000Y-36245000D01*
X88025000Y-36245000D01*
X88025000Y-37989750D01*
X88183250Y-38148000D01*
X88775911Y-38148000D01*
X89008565Y-38051632D01*
X89186631Y-37873566D01*
X89283000Y-37640912D01*
X89283000Y-36403250D01*
X89124750Y-36245000D01*
X88025000Y-36245000D01*
X86775000Y-36245000D01*
X85675250Y-36245000D01*
X85517000Y-36403250D01*
X81783000Y-36403250D01*
X81624750Y-36245000D01*
X80525000Y-36245000D01*
X79275000Y-36245000D01*
X78175250Y-36245000D01*
X78017000Y-36403250D01*
X67491947Y-36403250D01*
X67536631Y-36358566D01*
X67633000Y-36125912D01*
X67633000Y-35658250D01*
X67474750Y-35500000D01*
X66500000Y-35500000D01*
X65500000Y-35500000D01*
X64525250Y-35500000D01*
X64367000Y-35658250D01*
X62637244Y-35658250D01*
X62637244Y-34000000D01*
X62613552Y-33874088D01*
X64367000Y-33874088D01*
X64367000Y-34341750D01*
X64525250Y-34500000D01*
X65500000Y-34500000D01*
X65500000Y-33525250D01*
X66500000Y-33525250D01*
X66500000Y-34500000D01*
X67474750Y-34500000D01*
X67633000Y-34341750D01*
X67633000Y-33874088D01*
X67536631Y-33641434D01*
X67358565Y-33463368D01*
X67125911Y-33367000D01*
X66658250Y-33367000D01*
X66500000Y-33525250D01*
X65500000Y-33525250D01*
X65341750Y-33367000D01*
X64874089Y-33367000D01*
X64641435Y-33463368D01*
X64463369Y-33641434D01*
X64367000Y-33874088D01*
X62613552Y-33874088D01*
X62593663Y-33768389D01*
X62456781Y-33555668D01*
X62247924Y-33412962D01*
X62000000Y-33362756D01*
X60000000Y-33362756D01*
X59768389Y-33406337D01*
X59555668Y-33543219D01*
X59412962Y-33752076D01*
X59362756Y-34000000D01*
X57700000Y-34000000D01*
X57700000Y-32700000D01*
X78017000Y-32700000D01*
X78017000Y-33546750D01*
M02*
