M48
;DRILL file {KiCad 4.0.7} date 05/20/20 23:40:48
;FORMAT={-:-/ absolute / metric / decimal}
FMAT,2
METRIC,TZ
T1C0.400
T2C1.000
T3C1.200
T4C1.250
%
G90
G05
M71
T1
X58.Y-61.5
X58.Y-94.
X58.Y-112.
X58.14Y-116.21
X58.25Y-127.75
X58.5Y-78.
X58.5Y-81.
X58.5Y-99.5
X59.Y-128.5
X59.Y-130.
X59.Y-131.5
X60.Y-81.
X60.Y-94.5
X60.06Y-111.66
X60.22Y-115.73
X61.5Y-99.5
X61.74Y-116.04
X62.Y-61.
X62.Y-78.5
X62.Y-81.
X62.Y-112.
X62.2Y-96.2
X63.07Y-84.33
X63.325Y-100.825
X63.34Y-89.14
X63.5Y-69.
X63.5Y-87.5
X63.5Y-93.
X63.6Y-67.1
X63.6Y-126.15
X64.Y-52.5
X64.Y-75.
X64.18Y-60.93
X64.76Y-87.13
X64.85Y-102.225
X65.02Y-84.15
X65.27Y-67.39
X65.5Y-74.
X65.6Y-112.2
X65.75Y-99.875
X65.75Y-114.25
X65.925Y-102.5
X66.4Y-96.
X66.5Y-74.5
X66.72Y-69.01
X66.78Y-60.73
X66.86Y-53.78
X67.1Y-84.27
X67.65Y-87.29
X68.03Y-61.71
X68.35Y-75.1
X68.51Y-70.8
X69.1Y-107.9
X69.15Y-53.54
X69.23Y-87.11
X69.45Y-84.29
X70.Y-52.5
X70.Y-63.1
X70.03Y-76.62
X70.2Y-108.
X70.8Y-51.31
X70.9Y-110.3
X71.Y-128.
X71.08Y-73.04
X71.2Y-61.5
X71.28Y-131.86
X71.36Y-130.
X71.63Y-78.41
X71.95Y-49.47
X72.12Y-84.33
X72.14Y-90.79
X72.32Y-89.06
X72.34Y-92.15
X72.4Y-61.8
X72.46Y-87.42
X73.09Y-48.13
X73.3Y-53.5
X73.37Y-75.33
X73.49Y-80.16
X73.6Y-37.1
X73.9Y-34.4
X74.25Y-84.37
X74.41Y-62.31
X74.55Y-53.425
X74.6Y-35.8
X74.71Y-40.4
X74.83Y-45.01
X74.83Y-81.65
X74.98Y-43.41
X75.Y-122.99
X75.02Y-85.14
X75.18Y-88.29
X75.24Y-86.5
X75.36Y-63.11
X75.53Y-121.89
X75.65Y-52.475
X75.66Y-78.18
X75.675Y-49.8
X75.825Y-47.95
X76.24Y-40.4
X76.4Y-98.5
X76.47Y-82.98
X76.5Y-56.15
X76.675Y-96.775
X76.7Y-130.3
X76.73Y-33.28
X76.85Y-100.45
X76.88Y-121.9
X76.96Y-36.63
X76.96Y-128.17
X77.Y-34.99
X77.11Y-43.22
X77.3Y-131.71
X77.58Y-122.98
X77.65Y-63.34
X77.71Y-121.88
X77.8Y-37.9
X77.8Y-54.25
X77.95Y-97.8
X78.Y-99.375
X78.1Y-40.7
X78.18Y-84.63
X78.37Y-80.51
X78.375Y-48.925
X78.475Y-47.65
X78.86Y-121.73
X78.9Y-42.9
X78.94Y-57.03
X78.95Y-54.25
X79.075Y-88.8
X79.1Y-39.9
X79.55Y-63.53
X79.78Y-85.93
X79.91Y-123.02
X80.425Y-90.4
X80.47Y-82.64
X80.5Y-38.8
X80.6Y-41.6
X80.825Y-87.925
X80.95Y-86.85
X81.12Y-63.43
X81.28Y-56.84
X81.5Y-46.
X82.3Y-49.02
X82.33Y-49.98
X82.42Y-84.41
X82.8Y-51.32
X83.76Y-85.92
X83.82Y-56.84
X84.Y-51.3
X84.29Y-87.9
X84.44Y-63.26
X85.02Y-56.82
X85.12Y-51.66
X85.65Y-37.95
X86.06Y-51.54
X86.89Y-88.26
X86.97Y-38.03
X86.97Y-63.39
X87.9Y-90.28
X88.01Y-48.88
X88.17Y-120.87
X88.25Y-41.93
X88.25Y-112.22
X88.33Y-46.52
X88.37Y-117.27
X88.38Y-92.37
X88.39Y-44.16
X88.4Y-109.7
X88.45Y-114.66
X88.46Y-98.18
X88.46Y-104.12
X88.46Y-107.19
X88.47Y-40.57
X88.5Y-55.9
X88.51Y-126.23
X88.54Y-94.77
X88.63Y-123.61
X88.66Y-131.6
X88.68Y-63.31
X88.68Y-101.37
X88.7Y-38.23
X88.8Y-53.1
X88.85Y-130.
X88.93Y-128.24
X89.3Y-55.9
X94.7Y-93.1
X94.9Y-89.9
X95.6Y-86.6
X96.3Y-75.
X96.4Y-95.
X97.1Y-73.4
X97.6Y-86.5
X97.8Y-95.8
X97.91Y-71.73
X98.6Y-69.1
X99.3Y-86.2
X99.4Y-95.8
X100.5Y-97.
X101.49Y-68.87
X104.5Y-96.6
X106.5Y-69.
X106.6Y-90.
X107.2Y-88.7
X108.4Y-88.6
X109.Y-96.5
X109.11Y-69.19
X111.006Y-78.152
X111.006Y-93.424
X111.3Y-96.5
X111.514Y-80.692
X113.27Y-68.85
X113.3Y-96.5
X113.7Y-92.8
X113.8Y-94.
X114.2Y-126.2
X114.8Y-127.2
X114.9Y-116.1
X115.9Y-83.5
X116.2Y-127.65
X116.3Y-86.2
X116.3Y-116.
X116.5Y-96.5
X116.7Y-126.1
X117.Y-69.
X117.Y-83.5
X117.3Y-120.4
X117.4Y-109.7
X117.4Y-115.1
X117.6Y-46.5
X117.6Y-119.2
X117.99Y-127.73
X118.2Y-110.9
X118.6Y-121.9
X118.95Y-68.57
X119.Y-94.3
X119.4Y-48.2
X119.642Y-80.438
X119.8Y-32.8
X119.86Y-128.3
X120.Y-97.
X120.Y-109.5
X120.1Y-34.2
X120.1Y-122.2
X120.15Y-77.898
X120.4Y-93.1
X120.658Y-79.168
X120.658Y-85.042
X120.72Y-48.3
X120.92Y-128.87
X121.Y-119.7
X121.01Y-106.49
X121.1Y-39.4
X121.42Y-76.374
X121.6Y-48.6
X121.62Y-104.88
X121.7Y-95.1
X121.8Y-120.9
X122.18Y-68.82
X122.24Y-46.01
X122.3Y-104.2
X122.35Y-85.13
X122.69Y-75.104
X122.69Y-108.426
X122.7Y-39.4
X122.72Y-129.53
X123.Y-97.
X123.11Y-86.07
X123.38Y-32.82
X123.452Y-78.914
X123.73Y-47.43
X123.9Y-108.9
X123.98Y-104.06
X124.07Y-48.74
X124.1Y-106.6
X124.16Y-87.16
X124.59Y-68.62
X124.722Y-77.136
X125.42Y-129.67
X126.Y-48.76
X126.13Y-32.78
X126.246Y-78.66
X126.49Y-86.8
X126.5Y-97.5
X126.68Y-68.68
X127.36Y-103.94
X127.98Y-48.65
X128.35Y-95.1
X128.45Y-33.
X128.5Y-97.5
X129.16Y-68.98
X129.4Y-130.2
X129.62Y-103.7
X129.92Y-48.65
X130.Y-33.
X130.05Y-96.35
X131.Y-69.
X131.05Y-95.75
X131.58Y-70.278
X131.72Y-48.71
X132.Y-97.5
X132.1Y-90.65
X132.13Y-103.7
X132.15Y-88.1
X132.45Y-32.7
X132.596Y-69.008
X132.7Y-128.4
X132.85Y-71.548
X133.3Y-119.5
X133.49Y-130.49
X133.604Y-41.116
X133.75Y-89.5
X133.858Y-38.576
X134.05Y-48.59
X134.3Y-120.5
X134.5Y-98.
X134.5Y-129.9
X134.874Y-39.846
X135.Y-32.71
X135.1Y-119.3
X135.28Y-103.84
X135.5Y-69.5
X135.58Y-48.53
X135.7Y-129.1
X136.15Y-46.12
X136.406Y-106.394
X136.406Y-120.364
X136.7Y-32.9
X136.75Y-47.83
X137.Y-98.
X137.41Y-69.66
X137.676Y-72.85
X137.676Y-107.918
X137.676Y-121.634
X137.69Y-130.49
X137.72Y-103.76
X138.184Y-75.136
X138.184Y-105.632
X138.184Y-117.57
X138.184Y-119.856
X138.67Y-46.47
X138.692Y-72.85
X139.37Y-33.2
X139.454Y-116.554
X140.04Y-69.39
X140.24Y-104.03
X140.5Y-98.
X140.57Y-36.76
X140.58Y-39.16
X140.724Y-118.078
X140.978Y-74.088
X141.08Y-130.19
X141.12Y-32.56
X141.35Y-48.25
X141.478Y-36.798
X141.6Y-127.3
X141.65Y-41.6
X141.7Y-87.
X141.88Y-104.18
X141.9Y-84.55
X142.1Y-124.8
X142.248Y-73.072
X142.7Y-119.3
X142.9Y-85.65
X143.Y-126.
X143.1Y-96.
X143.264Y-74.088
X143.58Y-41.83
X143.8Y-118.6
X143.95Y-69.39
X144.Y-98.
X144.06Y-104.2
X144.4Y-97.15
X144.6Y-88.95
X144.67Y-32.67
X144.788Y-107.918
X145.05Y-48.14
X145.07Y-75.18
X145.4Y-121.
X145.67Y-55.85
X145.85Y-40.
X145.85Y-95.75
X145.9Y-90.8
X145.93Y-74.52
X146.Y-88.
X146.058Y-109.442
X146.312Y-106.902
X146.49Y-104.06
X146.8Y-69.66
X146.8Y-75.2
X146.99Y-48.1
X147.09Y-41.12
X147.328Y-108.172
X147.36Y-129.91
X147.5Y-98.
X148.1Y-88.75
X148.13Y-32.75
X148.25Y-36.71
X148.55Y-50.6
X148.55Y-75.18
X148.7Y-39.6
X148.78Y-47.95
X148.81Y-104.62
X149.106Y-109.442
X149.3Y-90.6
X149.4Y-87.85
X149.46Y-74.61
X149.5Y-98.
X149.675Y-40.925
X149.868Y-106.902
X149.98Y-69.72
X150.122Y-108.172
X150.62Y-47.74
X150.66Y-75.51
X151.2Y-39.62
X151.22Y-32.56
X151.32Y-50.65
X151.63Y-105.04
X152.43Y-129.94
X152.61Y-70.84
X153.Y-106.5
X153.67Y-32.54
X154.87Y-129.59
X155.38Y-122.51
X155.42Y-119.06
X155.42Y-120.75
X155.44Y-129.83
X155.46Y-125.08
X155.57Y-32.9
X155.57Y-127.76
X156.13Y-34.8
X156.13Y-36.31
T2
X64.6Y-104.7
X64.6Y-107.24
X64.75Y-121.5
X64.75Y-124.04
X73.875Y-90.1
X76.415Y-90.1
X82.93Y-90.41
X85.47Y-90.41
T3
X96.96Y-91.5
X102.Y-89.
X102.Y-94.
X112.46Y-74.
X117.5Y-71.5
X117.5Y-76.5
X130.26Y-73.23
X132.76Y-78.27
X135.26Y-73.23
T4
X61.Y-35.
X61.Y-40.
X65.625Y-92.425
X65.725Y-88.65
X66.Y-35.
X66.Y-40.
X70.175Y-88.675
X70.375Y-92.425
X103.386Y-113.506
X103.386Y-118.586
X103.386Y-124.174
X103.386Y-129.254
X104.825Y-33.875
X104.9Y-41.05
X142.325Y-34.3
X146.175Y-34.275
X148.598Y-122.396
X148.598Y-127.476
X149.825Y-34.325
X153.424Y-122.396
X153.424Y-127.476
X153.775Y-34.325
T2
X95.3Y-77.6G85X95.3Y-79.6
G05
X97.3Y-83.3G85X99.3Y-83.3
G05
X101.3Y-77.6G85X101.3Y-79.6
G05
T0
M30
