G04 #@! TF.FileFunction,Soldermask,Bot*
%FSLAX46Y46*%
G04 Gerber Fmt 4.6, Leading zero omitted, Abs format (unit mm)*
G04 Created by KiCad (PCBNEW 4.0.7) date 07/12/20 19:06:17*
%MOMM*%
%LPD*%
G01*
G04 APERTURE LIST*
%ADD10C,0.100000*%
%ADD11R,4.400000X1.900000*%
%ADD12R,2.400000X2.400000*%
%ADD13R,5.480000X2.900000*%
%ADD14R,3.900000X3.900000*%
%ADD15C,2.900000*%
%ADD16O,1.400000X5.400000*%
%ADD17O,3.400000X1.400000*%
%ADD18O,5.400000X2.400000*%
%ADD19O,1.400000X3.400000*%
%ADD20O,5.400000X3.400000*%
%ADD21O,4.900000X4.900000*%
%ADD22O,3.900000X1.400000*%
%ADD23R,2.900000X5.480000*%
%ADD24R,2.100000X2.100000*%
%ADD25O,2.100000X2.100000*%
G04 APERTURE END LIST*
D10*
D11*
X104900000Y-41050000D03*
D12*
X153775000Y-34325000D03*
X142325000Y-34300000D03*
X146175000Y-34275000D03*
X149825000Y-34325000D03*
D11*
X104825000Y-33875000D03*
D13*
X154275000Y-45600000D03*
X154275000Y-38100000D03*
X154000000Y-61750000D03*
X154000000Y-54250000D03*
D14*
X103100000Y-78600000D03*
X97100000Y-78600000D03*
X100100000Y-83300000D03*
D13*
X153500000Y-97750000D03*
X153500000Y-90250000D03*
D15*
X122440000Y-73700000D03*
X117400000Y-76200000D03*
X117400000Y-71200000D03*
D11*
X103386000Y-124174000D03*
X103386000Y-113506000D03*
D12*
X148598000Y-127476000D03*
D11*
X103386000Y-129254000D03*
D12*
X148598000Y-122396000D03*
X153424000Y-122396000D03*
X153424000Y-127476000D03*
D11*
X103386000Y-118586000D03*
D13*
X153500000Y-116750000D03*
X153500000Y-109250000D03*
D16*
X100084000Y-113252000D03*
X100084000Y-124428000D03*
D17*
X103894000Y-111474000D03*
X110500000Y-111500000D03*
D18*
X109482000Y-116046000D03*
D19*
X101500000Y-34500000D03*
D16*
X101500000Y-42500000D03*
D18*
X109736000Y-126714000D03*
D20*
X109482000Y-121380000D03*
D21*
X111400000Y-37100000D03*
D22*
X107000000Y-43000000D03*
X114000000Y-43000000D03*
D13*
X60025000Y-116400000D03*
X60025000Y-123900000D03*
X59725000Y-93150000D03*
X59725000Y-100650000D03*
D23*
X76225000Y-129150000D03*
X83725000Y-129150000D03*
D12*
X86200000Y-94000000D03*
X86225000Y-87950000D03*
X80775000Y-94100000D03*
X80625000Y-87975000D03*
D13*
X59775000Y-55325000D03*
X59775000Y-62825000D03*
D23*
X87400000Y-34975000D03*
X79900000Y-34975000D03*
D12*
X66050000Y-38700000D03*
X61000000Y-35000000D03*
X60950000Y-38725000D03*
X66000000Y-35000000D03*
D15*
X100100000Y-96340000D03*
X97600000Y-91300000D03*
X102600000Y-91300000D03*
D24*
X97300000Y-87100000D03*
D25*
X99840000Y-87100000D03*
X102380000Y-87100000D03*
D12*
X58275000Y-111725000D03*
X58325000Y-105075000D03*
X63100000Y-111650000D03*
X63025000Y-105125000D03*
D14*
X65325000Y-77675000D03*
X59325000Y-77675000D03*
X62325000Y-82375000D03*
X65475000Y-44675000D03*
X59475000Y-44675000D03*
X62475000Y-49375000D03*
D18*
X137175000Y-34375000D03*
X130275000Y-34375000D03*
X137125000Y-50450000D03*
X130200000Y-50450000D03*
X138350000Y-130125000D03*
X138250000Y-103750000D03*
X145875000Y-130100000D03*
X145675000Y-103750000D03*
M02*
