M48
;DRILL file {KiCad 4.0.7} date 05/20/20 11:10:14
;FORMAT={-:-/ absolute / metric / decimal}
FMAT,2
METRIC,TZ
T1C0.400
T2C1.000
T3C1.200
T4C1.250
%
G90
G05
M71
T1
X58.Y-61.5
X58.Y-94.
X58.Y-112.
X58.14Y-116.21
X58.25Y-127.75
X58.5Y-78.
X58.5Y-81.
X58.5Y-99.5
X59.Y-128.5
X59.Y-130.
X59.Y-131.5
X60.Y-81.
X60.Y-94.5
X60.06Y-111.66
X60.22Y-115.73
X61.5Y-99.5
X61.74Y-116.04
X62.Y-61.
X62.Y-78.5
X62.Y-81.
X62.Y-112.
X62.2Y-96.2
X63.07Y-84.33
X63.325Y-100.825
X63.34Y-89.14
X63.5Y-69.
X63.5Y-87.5
X63.5Y-93.
X63.6Y-67.1
X63.6Y-126.15
X64.Y-52.5
X64.Y-75.
X64.18Y-60.93
X64.76Y-87.13
X64.85Y-102.225
X65.02Y-84.15
X65.27Y-67.39
X65.5Y-74.
X65.6Y-112.2
X65.75Y-99.875
X65.75Y-114.25
X65.925Y-102.5
X66.4Y-96.
X66.5Y-74.5
X66.72Y-69.01
X66.78Y-60.73
X66.86Y-53.78
X67.1Y-84.27
X67.65Y-87.29
X68.03Y-61.71
X68.35Y-75.1
X68.51Y-70.8
X69.1Y-107.9
X69.15Y-53.54
X69.23Y-87.11
X69.45Y-84.29
X70.Y-52.5
X70.Y-63.1
X70.03Y-76.62
X70.2Y-108.
X70.8Y-51.31
X70.9Y-110.3
X71.Y-128.
X71.08Y-73.04
X71.2Y-61.5
X71.28Y-131.86
X71.36Y-130.
X71.63Y-78.41
X71.95Y-49.47
X72.12Y-84.33
X72.14Y-90.79
X72.32Y-89.06
X72.34Y-92.15
X72.4Y-61.8
X72.46Y-87.42
X73.09Y-48.13
X73.3Y-53.5
X73.37Y-75.33
X73.49Y-80.16
X73.6Y-37.1
X73.9Y-34.4
X74.25Y-84.37
X74.41Y-62.31
X74.55Y-53.425
X74.6Y-35.8
X74.71Y-40.4
X74.83Y-45.01
X74.83Y-81.65
X74.98Y-43.41
X75.Y-122.99
X75.02Y-85.14
X75.18Y-88.29
X75.24Y-86.5
X75.36Y-63.11
X75.53Y-121.89
X75.65Y-52.475
X75.66Y-78.18
X75.675Y-49.8
X75.825Y-47.95
X76.24Y-40.4
X76.4Y-98.5
X76.47Y-82.98
X76.5Y-56.15
X76.675Y-96.775
X76.7Y-130.3
X76.73Y-33.28
X76.85Y-100.45
X76.88Y-121.9
X76.96Y-36.63
X76.96Y-128.17
X77.Y-34.99
X77.11Y-43.22
X77.3Y-131.71
X77.58Y-122.98
X77.65Y-63.34
X77.71Y-121.88
X77.8Y-37.9
X77.8Y-54.25
X77.95Y-97.8
X78.Y-99.375
X78.1Y-40.7
X78.18Y-84.63
X78.37Y-80.51
X78.375Y-48.925
X78.475Y-47.65
X78.86Y-121.73
X78.9Y-42.9
X78.94Y-57.03
X78.95Y-54.25
X79.075Y-88.8
X79.1Y-39.9
X79.55Y-63.53
X79.78Y-85.93
X79.91Y-123.02
X80.425Y-90.4
X80.47Y-82.64
X80.5Y-38.8
X80.6Y-41.6
X80.825Y-87.925
X80.95Y-86.85
X81.12Y-63.43
X81.28Y-56.84
X82.3Y-49.02
X82.33Y-49.98
X82.42Y-84.41
X82.8Y-51.32
X83.76Y-85.92
X83.82Y-56.84
X84.Y-51.3
X84.29Y-87.9
X84.44Y-63.26
X85.02Y-56.82
X85.12Y-51.66
X85.65Y-37.95
X86.06Y-51.54
X86.89Y-88.26
X86.97Y-38.03
X86.97Y-63.39
X87.9Y-90.28
X88.01Y-48.88
X88.25Y-41.93
X88.33Y-46.52
X88.38Y-92.37
X88.39Y-44.16
X88.46Y-98.18
X88.47Y-40.57
X88.5Y-55.9
X88.51Y-126.23
X88.54Y-94.77
X88.57Y-120.87
X88.63Y-123.61
X88.66Y-131.6
X88.68Y-63.31
X88.68Y-101.37
X88.7Y-38.23
X88.77Y-117.27
X88.8Y-53.1
X88.85Y-109.84
X88.85Y-112.32
X88.85Y-114.76
X88.85Y-130.
X88.93Y-128.24
X88.96Y-104.22
X88.96Y-107.29
X89.3Y-55.9
X93.5Y-95.1
X93.7Y-92.1
X93.9Y-88.9
X94.3Y-96.6
X94.83Y-75.35
X95.6Y-86.6
X96.08Y-73.87
X96.8Y-96.9
X97.6Y-86.5
X97.91Y-71.73
X99.3Y-86.2
X99.78Y-70.28
X100.5Y-97.
X101.49Y-68.87
X104.5Y-96.6
X106.5Y-69.
X106.6Y-90.
X107.2Y-88.7
X108.4Y-88.6
X109.Y-96.5
X109.11Y-69.19
X111.006Y-78.152
X111.006Y-93.424
X111.3Y-96.5
X111.514Y-80.692
X113.27Y-68.85
X113.3Y-96.5
X113.7Y-92.8
X113.8Y-94.
X114.7Y-124.2
X115.3Y-125.2
X115.4Y-114.1
X115.9Y-83.5
X116.3Y-86.2
X116.5Y-96.5
X116.7Y-125.65
X116.8Y-114.
X117.Y-69.
X117.Y-83.5
X117.2Y-124.1
X117.67Y-47.75
X117.8Y-118.4
X117.9Y-107.7
X117.9Y-113.1
X118.1Y-117.2
X118.49Y-125.73
X118.7Y-108.9
X118.95Y-68.57
X119.Y-94.3
X119.1Y-119.9
X119.41Y-46.93
X119.642Y-80.438
X119.87Y-35.83
X120.Y-97.
X120.15Y-77.898
X120.28Y-40.09
X120.36Y-126.3
X120.4Y-93.1
X120.5Y-107.5
X120.6Y-120.2
X120.658Y-79.168
X120.658Y-85.042
X120.72Y-48.3
X121.09Y-127.91
X121.11Y-35.47
X121.42Y-76.374
X121.5Y-117.7
X121.51Y-104.49
X121.6Y-48.6
X121.666Y-41.37
X121.7Y-95.1
X122.12Y-102.88
X122.18Y-68.82
X122.24Y-46.01
X122.3Y-118.9
X122.35Y-85.13
X122.69Y-75.104
X122.8Y-102.2
X123.Y-97.
X123.11Y-86.07
X123.19Y-106.426
X123.22Y-129.53
X123.38Y-35.02
X123.452Y-78.914
X123.73Y-47.43
X124.07Y-48.74
X124.16Y-87.16
X124.4Y-106.9
X124.48Y-102.06
X124.59Y-68.62
X124.6Y-104.6
X124.722Y-77.136
X125.95Y-131.21
X126.Y-48.76
X126.13Y-34.98
X126.246Y-78.66
X126.49Y-86.8
X126.5Y-97.5
X126.68Y-68.68
X127.86Y-101.94
X127.98Y-48.65
X128.35Y-95.1
X128.5Y-97.5
X128.55Y-35.5
X129.16Y-68.98
X129.9Y-131.2
X129.92Y-48.65
X130.05Y-96.35
X130.12Y-101.7
X131.Y-69.
X131.05Y-95.75
X131.2Y-35.51
X131.58Y-70.278
X131.72Y-48.71
X132.Y-97.5
X132.1Y-90.65
X132.15Y-88.1
X132.596Y-69.008
X132.63Y-101.7
X132.85Y-35.8
X132.85Y-71.548
X133.2Y-126.4
X133.604Y-41.116
X133.75Y-89.5
X133.8Y-117.5
X133.8Y-131.
X133.858Y-38.576
X134.05Y-48.59
X134.5Y-98.
X134.8Y-118.5
X134.874Y-39.846
X135.Y-127.9
X135.4Y-35.81
X135.5Y-69.5
X135.58Y-48.53
X135.6Y-117.3
X135.78Y-101.84
X136.15Y-46.12
X136.2Y-127.1
X136.75Y-47.83
X136.906Y-104.394
X136.906Y-118.364
X137.Y-98.
X137.41Y-69.66
X137.676Y-72.85
X138.Y-131.
X138.176Y-105.918
X138.176Y-119.634
X138.184Y-75.136
X138.22Y-101.76
X138.25Y-35.64
X138.67Y-46.47
X138.684Y-103.632
X138.684Y-115.57
X138.684Y-117.856
X138.692Y-72.85
X139.37Y-33.2
X139.954Y-114.554
X140.04Y-69.39
X140.5Y-98.
X140.57Y-36.76
X140.58Y-39.16
X140.74Y-102.03
X140.978Y-74.088
X141.12Y-32.56
X141.224Y-116.078
X141.35Y-48.25
X141.478Y-36.798
X141.65Y-41.6
X141.7Y-87.
X141.9Y-84.55
X142.Y-130.9
X142.1Y-125.3
X142.248Y-73.072
X142.38Y-102.18
X142.6Y-122.8
X142.9Y-85.65
X143.1Y-96.
X143.2Y-117.3
X143.264Y-74.088
X143.5Y-124.
X143.58Y-41.83
X143.95Y-69.39
X144.Y-98.
X144.3Y-116.6
X144.4Y-97.15
X144.56Y-102.2
X144.6Y-88.95
X144.67Y-32.67
X145.05Y-48.14
X145.07Y-75.18
X145.288Y-105.918
X145.67Y-55.85
X145.85Y-40.
X145.85Y-95.75
X145.9Y-90.8
X145.9Y-119.
X145.93Y-74.52
X146.Y-88.
X146.558Y-107.442
X146.8Y-69.66
X146.8Y-75.2
X146.812Y-104.902
X146.99Y-48.1
X146.99Y-102.06
X147.09Y-41.12
X147.5Y-98.
X147.828Y-106.172
X148.05Y-130.73
X148.1Y-88.75
X148.13Y-32.75
X148.25Y-36.71
X148.55Y-50.6
X148.55Y-75.18
X148.7Y-39.6
X148.78Y-47.95
X149.3Y-90.6
X149.31Y-101.62
X149.4Y-87.85
X149.46Y-74.61
X149.5Y-98.
X149.606Y-107.442
X149.675Y-40.925
X149.98Y-69.72
X150.368Y-104.902
X150.62Y-47.74
X150.622Y-106.172
X150.66Y-75.51
X151.2Y-39.62
X151.22Y-32.56
X151.32Y-50.65
X152.13Y-103.04
X152.61Y-70.84
X153.2Y-130.6
X153.5Y-104.5
X153.67Y-32.54
X155.57Y-32.9
X155.75Y-130.26
X155.88Y-120.51
X155.92Y-117.06
X155.92Y-118.75
X155.94Y-127.83
X155.96Y-123.08
X156.07Y-125.76
X156.13Y-34.8
X156.13Y-36.31
T2
X64.6Y-104.7
X64.6Y-107.24
X64.75Y-121.5
X64.75Y-124.04
X73.875Y-90.1
X76.415Y-90.1
X82.93Y-90.41
X85.47Y-90.41
T3
X95.96Y-91.4
X101.Y-88.9
X101.Y-93.9
X112.46Y-74.
X117.5Y-71.5
X117.5Y-76.5
X130.26Y-73.23
X132.76Y-78.27
X135.26Y-73.23
T4
X61.Y-35.
X61.Y-40.
X65.625Y-92.425
X65.725Y-88.65
X66.Y-35.
X66.Y-40.
X70.175Y-88.675
X70.375Y-92.425
X103.886Y-111.506
X103.886Y-116.586
X103.886Y-122.174
X103.886Y-127.254
X104.825Y-36.875
X104.9Y-44.05
X142.325Y-34.3
X146.175Y-34.275
X149.098Y-120.396
X149.098Y-125.476
X149.825Y-34.325
X153.775Y-34.325
X153.924Y-120.396
X153.924Y-125.476
T2
X93.Y-77.5G85X93.Y-79.5
G05
X95.Y-83.2G85X97.Y-83.2
G05
X99.Y-77.5G85X99.Y-79.5
G05
T0
M30
