G04 #@! TF.FileFunction,Soldermask,Bot*
%FSLAX46Y46*%
G04 Gerber Fmt 4.6, Leading zero omitted, Abs format (unit mm)*
G04 Created by KiCad (PCBNEW 4.0.7) date 05/11/20 23:09:24*
%MOMM*%
%LPD*%
G01*
G04 APERTURE LIST*
%ADD10C,0.100000*%
%ADD11R,4.400000X1.900000*%
%ADD12R,2.400000X2.400000*%
%ADD13O,5.400000X1.400000*%
%ADD14R,5.480000X2.900000*%
%ADD15R,3.900000X3.900000*%
%ADD16C,2.900000*%
%ADD17O,1.400000X4.900000*%
%ADD18O,1.400000X5.400000*%
%ADD19O,1.400000X1.400000*%
%ADD20O,5.400000X2.400000*%
%ADD21O,5.400000X3.400000*%
%ADD22O,1.400000X4.400000*%
%ADD23O,1.400000X2.400000*%
%ADD24O,1.400000X1.900000*%
%ADD25O,3.900000X1.400000*%
%ADD26R,2.900000X5.480000*%
%ADD27R,2.100000X2.100000*%
%ADD28O,2.100000X2.100000*%
%ADD29O,4.900000X1.400000*%
G04 APERTURE END LIST*
D10*
D11*
X104900000Y-42050000D03*
D12*
X153775000Y-32325000D03*
X142325000Y-32300000D03*
X146175000Y-32275000D03*
X149825000Y-32325000D03*
D11*
X104825000Y-34875000D03*
D13*
X153000000Y-100500000D03*
X133500000Y-100500000D03*
X140000000Y-100500000D03*
X146500000Y-100500000D03*
D14*
X154275000Y-43600000D03*
X154275000Y-36100000D03*
X154000000Y-59750000D03*
X154000000Y-52250000D03*
D15*
X99500000Y-75500000D03*
X93500000Y-75500000D03*
X96500000Y-80200000D03*
D14*
X154000000Y-94750000D03*
X154000000Y-87250000D03*
X154000000Y-78250000D03*
X154000000Y-70750000D03*
D16*
X112960000Y-71000000D03*
X118000000Y-68500000D03*
X118000000Y-73500000D03*
X133260000Y-75270000D03*
X130760000Y-70230000D03*
X135760000Y-70230000D03*
D11*
X103886000Y-122174000D03*
X103886000Y-111506000D03*
D12*
X149098000Y-125476000D03*
D11*
X103886000Y-127254000D03*
D12*
X149098000Y-120396000D03*
X153924000Y-120396000D03*
X153924000Y-125476000D03*
D11*
X103886000Y-116586000D03*
D14*
X154000000Y-114750000D03*
X154000000Y-107250000D03*
D13*
X127000000Y-100500000D03*
X120500000Y-100500000D03*
X114000000Y-100500000D03*
X107500000Y-100500000D03*
X100750000Y-100500000D03*
X94488000Y-100584000D03*
X153500000Y-62750000D03*
X147000000Y-62750000D03*
X140250000Y-62750000D03*
X133750000Y-62750000D03*
X127250000Y-62750000D03*
X120500000Y-62750000D03*
X114250000Y-62750000D03*
X107750000Y-62750000D03*
X101500000Y-62750000D03*
X95000000Y-62750000D03*
D17*
X100584000Y-116840000D03*
D18*
X100584000Y-111252000D03*
X100584000Y-122428000D03*
X100584000Y-128270000D03*
D19*
X100584000Y-131826000D03*
D13*
X104394000Y-109474000D03*
X110236000Y-109474000D03*
D18*
X112522000Y-105664000D03*
D19*
X112522000Y-102108000D03*
D20*
X104140000Y-114046000D03*
X109982000Y-114046000D03*
D17*
X100584000Y-105664000D03*
D19*
X100584000Y-102362000D03*
D20*
X104394000Y-124714000D03*
D21*
X104140000Y-119380000D03*
D13*
X104394000Y-129286000D03*
D18*
X101600000Y-35052000D03*
X101600000Y-42164000D03*
D19*
X101600000Y-38608000D03*
D18*
X101600000Y-48260000D03*
D20*
X110236000Y-124714000D03*
D18*
X101600000Y-54102000D03*
D21*
X109982000Y-119380000D03*
D22*
X101500000Y-59500000D03*
D13*
X110236000Y-129286000D03*
D23*
X112522000Y-131318000D03*
D13*
X105410000Y-40132000D03*
X111252000Y-40132000D03*
X105664000Y-43942000D03*
X111506000Y-43942000D03*
D18*
X113792000Y-47752000D03*
X113792000Y-53848000D03*
D22*
X113750000Y-59500000D03*
D13*
X105410000Y-33020000D03*
X111506000Y-33020000D03*
X111252000Y-36830000D03*
D19*
X113792000Y-31242000D03*
D13*
X105156000Y-36830000D03*
D19*
X101600000Y-31242000D03*
D24*
X113875000Y-38475000D03*
D25*
X154000000Y-47500000D03*
X149000000Y-47500000D03*
D13*
X142750000Y-47750000D03*
X136500000Y-47750000D03*
X130250000Y-47750000D03*
X124250000Y-47750000D03*
X118000000Y-47750000D03*
D20*
X132842000Y-45212000D03*
X133096000Y-32004000D03*
X132080000Y-129286000D03*
X132080000Y-103378000D03*
D14*
X60000000Y-100650000D03*
X60000000Y-108150000D03*
D26*
X79308000Y-130048000D03*
X86808000Y-130048000D03*
D14*
X60000000Y-118250000D03*
X60000000Y-125750000D03*
X59900000Y-65650000D03*
X59900000Y-73150000D03*
X60000000Y-82450000D03*
X60000000Y-89950000D03*
D26*
X62036000Y-130302000D03*
X69536000Y-130302000D03*
D12*
X65625000Y-92425000D03*
X70375000Y-92425000D03*
X70175000Y-88675000D03*
X65725000Y-88650000D03*
D27*
X64600000Y-104700000D03*
D28*
X64600000Y-107240000D03*
D27*
X64750000Y-121500000D03*
D28*
X64750000Y-124040000D03*
D27*
X84875000Y-93200000D03*
D28*
X84875000Y-95740000D03*
D27*
X73875000Y-90100000D03*
D28*
X76415000Y-90100000D03*
D18*
X90500000Y-112250000D03*
X90500000Y-118250000D03*
X90500000Y-124250000D03*
X90500000Y-129750000D03*
X90500000Y-76000000D03*
X90500000Y-70000000D03*
X90500000Y-100000000D03*
X90500000Y-106250000D03*
X90500000Y-82000000D03*
X90500000Y-88000000D03*
X90500000Y-94000000D03*
D29*
X67800000Y-26300000D03*
D18*
X90500000Y-63750000D03*
X90500000Y-57500000D03*
D17*
X90500000Y-52000000D03*
D13*
X86000000Y-62750000D03*
X79500000Y-62750000D03*
X73000000Y-62750000D03*
X66750000Y-62750000D03*
X60500000Y-62750000D03*
D18*
X90500000Y-46250000D03*
X90500000Y-40000000D03*
X90500000Y-33500000D03*
D29*
X68200000Y-23500000D03*
D14*
X59850000Y-52250000D03*
X59850000Y-59750000D03*
D26*
X87400000Y-32975000D03*
X79900000Y-32975000D03*
D12*
X66000000Y-38000000D03*
X61000000Y-33000000D03*
X61000000Y-38000000D03*
X66000000Y-33000000D03*
M02*
