G04 #@! TF.FileFunction,Legend,Bot*
%FSLAX46Y46*%
G04 Gerber Fmt 4.6, Leading zero omitted, Abs format (unit mm)*
G04 Created by KiCad (PCBNEW 4.0.7) date 05/20/20 23:40:47*
%MOMM*%
%LPD*%
G01*
G04 APERTURE LIST*
%ADD10C,0.100000*%
%ADD11C,0.200000*%
%ADD12C,0.150000*%
G04 APERTURE END LIST*
D10*
D11*
X95000000Y-32000000D02*
X95000000Y-65000000D01*
X92000000Y-132000000D02*
X92000000Y-65000000D01*
X92000000Y-102000000D02*
X156000000Y-102000000D01*
X157000000Y-65000000D02*
X57000000Y-65000000D01*
D12*
X67833333Y-42128571D02*
X67690476Y-42176190D01*
X67642857Y-42223810D01*
X67595238Y-42319048D01*
X67595238Y-42461905D01*
X67642857Y-42557143D01*
X67690476Y-42604762D01*
X67785714Y-42652381D01*
X68166667Y-42652381D01*
X68166667Y-41652381D01*
X67833333Y-41652381D01*
X67738095Y-41700000D01*
X67690476Y-41747619D01*
X67642857Y-41842857D01*
X67642857Y-41938095D01*
X67690476Y-42033333D01*
X67738095Y-42080952D01*
X67833333Y-42128571D01*
X68166667Y-42128571D01*
X66595238Y-42652381D02*
X66928572Y-42176190D01*
X67166667Y-42652381D02*
X67166667Y-41652381D01*
X66785714Y-41652381D01*
X66690476Y-41700000D01*
X66642857Y-41747619D01*
X66595238Y-41842857D01*
X66595238Y-41985714D01*
X66642857Y-42080952D01*
X66690476Y-42128571D01*
X66785714Y-42176190D01*
X67166667Y-42176190D01*
X65976191Y-41652381D02*
X65785714Y-41652381D01*
X65690476Y-41700000D01*
X65595238Y-41795238D01*
X65547619Y-41985714D01*
X65547619Y-42319048D01*
X65595238Y-42509524D01*
X65690476Y-42604762D01*
X65785714Y-42652381D01*
X65976191Y-42652381D01*
X66071429Y-42604762D01*
X66166667Y-42509524D01*
X66214286Y-42319048D01*
X66214286Y-41985714D01*
X66166667Y-41795238D01*
X66071429Y-41700000D01*
X65976191Y-41652381D01*
X65166667Y-42366667D02*
X64690476Y-42366667D01*
X65261905Y-42652381D02*
X64928572Y-41652381D01*
X64595238Y-42652381D01*
X64261905Y-42652381D02*
X64261905Y-41652381D01*
X64023810Y-41652381D01*
X63880952Y-41700000D01*
X63785714Y-41795238D01*
X63738095Y-41890476D01*
X63690476Y-42080952D01*
X63690476Y-42223810D01*
X63738095Y-42414286D01*
X63785714Y-42509524D01*
X63880952Y-42604762D01*
X64023810Y-42652381D01*
X64261905Y-42652381D01*
X62928571Y-42128571D02*
X62785714Y-42176190D01*
X62738095Y-42223810D01*
X62690476Y-42319048D01*
X62690476Y-42461905D01*
X62738095Y-42557143D01*
X62785714Y-42604762D01*
X62880952Y-42652381D01*
X63261905Y-42652381D01*
X63261905Y-41652381D01*
X62928571Y-41652381D01*
X62833333Y-41700000D01*
X62785714Y-41747619D01*
X62738095Y-41842857D01*
X62738095Y-41938095D01*
X62785714Y-42033333D01*
X62833333Y-42080952D01*
X62928571Y-42128571D01*
X63261905Y-42128571D01*
X62309524Y-42366667D02*
X61833333Y-42366667D01*
X62404762Y-42652381D02*
X62071429Y-41652381D01*
X61738095Y-42652381D01*
X61404762Y-42652381D02*
X61404762Y-41652381D01*
X60833333Y-42652381D01*
X60833333Y-41652381D01*
X60357143Y-42652381D02*
X60357143Y-41652381D01*
X60119048Y-41652381D01*
X59976190Y-41700000D01*
X59880952Y-41795238D01*
X59833333Y-41890476D01*
X59785714Y-42080952D01*
X59785714Y-42223810D01*
X59833333Y-42414286D01*
X59880952Y-42509524D01*
X59976190Y-42604762D01*
X60119048Y-42652381D01*
X60357143Y-42652381D01*
X67571428Y-44016667D02*
X67095237Y-44016667D01*
X67666666Y-44302381D02*
X67333333Y-43302381D01*
X66999999Y-44302381D01*
X66666666Y-44302381D02*
X66666666Y-43302381D01*
X66333332Y-44016667D01*
X65999999Y-43302381D01*
X65999999Y-44302381D01*
X65523809Y-44302381D02*
X65523809Y-43302381D01*
X65142856Y-43302381D01*
X65047618Y-43350000D01*
X64999999Y-43397619D01*
X64952380Y-43492857D01*
X64952380Y-43635714D01*
X64999999Y-43730952D01*
X65047618Y-43778571D01*
X65142856Y-43826190D01*
X65523809Y-43826190D01*
X64047618Y-44302381D02*
X64523809Y-44302381D01*
X64523809Y-43302381D01*
X63714285Y-44302381D02*
X63714285Y-43302381D01*
X62904761Y-43778571D02*
X63238095Y-43778571D01*
X63238095Y-44302381D02*
X63238095Y-43302381D01*
X62761904Y-43302381D01*
X62380952Y-44302381D02*
X62380952Y-43302381D01*
X61904762Y-43778571D02*
X61571428Y-43778571D01*
X61428571Y-44302381D02*
X61904762Y-44302381D01*
X61904762Y-43302381D01*
X61428571Y-43302381D01*
X60428571Y-44302381D02*
X60761905Y-43826190D01*
X61000000Y-44302381D02*
X61000000Y-43302381D01*
X60619047Y-43302381D01*
X60523809Y-43350000D01*
X60476190Y-43397619D01*
X60428571Y-43492857D01*
X60428571Y-43635714D01*
X60476190Y-43730952D01*
X60523809Y-43778571D01*
X60619047Y-43826190D01*
X61000000Y-43826190D01*
X68095238Y-45428571D02*
X67952381Y-45476190D01*
X67904762Y-45523810D01*
X67857143Y-45619048D01*
X67857143Y-45761905D01*
X67904762Y-45857143D01*
X67952381Y-45904762D01*
X68047619Y-45952381D01*
X68428572Y-45952381D01*
X68428572Y-44952381D01*
X68095238Y-44952381D01*
X68000000Y-45000000D01*
X67952381Y-45047619D01*
X67904762Y-45142857D01*
X67904762Y-45238095D01*
X67952381Y-45333333D01*
X68000000Y-45380952D01*
X68095238Y-45428571D01*
X68428572Y-45428571D01*
X67238096Y-45476190D02*
X67238096Y-45952381D01*
X67571429Y-44952381D02*
X67238096Y-45476190D01*
X66904762Y-44952381D01*
X65809524Y-45952381D02*
X65809524Y-44952381D01*
X65571429Y-44952381D01*
X65428571Y-45000000D01*
X65333333Y-45095238D01*
X65285714Y-45190476D01*
X65238095Y-45380952D01*
X65238095Y-45523810D01*
X65285714Y-45714286D01*
X65333333Y-45809524D01*
X65428571Y-45904762D01*
X65571429Y-45952381D01*
X65809524Y-45952381D01*
X64047619Y-45952381D02*
X64047619Y-44952381D01*
X63714285Y-45666667D01*
X63380952Y-44952381D01*
X63380952Y-45952381D01*
X62952381Y-45666667D02*
X62476190Y-45666667D01*
X63047619Y-45952381D02*
X62714286Y-44952381D01*
X62380952Y-45952381D01*
X61476190Y-45952381D02*
X61809524Y-45476190D01*
X62047619Y-45952381D02*
X62047619Y-44952381D01*
X61666666Y-44952381D01*
X61571428Y-45000000D01*
X61523809Y-45047619D01*
X61476190Y-45142857D01*
X61476190Y-45285714D01*
X61523809Y-45380952D01*
X61571428Y-45428571D01*
X61666666Y-45476190D01*
X62047619Y-45476190D01*
X61047619Y-45952381D02*
X61047619Y-44952381D01*
X60476190Y-45952381D02*
X60904762Y-45380952D01*
X60476190Y-44952381D02*
X61047619Y-45523810D01*
X60095238Y-45904762D02*
X59952381Y-45952381D01*
X59714285Y-45952381D01*
X59619047Y-45904762D01*
X59571428Y-45857143D01*
X59523809Y-45761905D01*
X59523809Y-45666667D01*
X59571428Y-45571429D01*
X59619047Y-45523810D01*
X59714285Y-45476190D01*
X59904762Y-45428571D01*
X60000000Y-45380952D01*
X60047619Y-45333333D01*
X60095238Y-45238095D01*
X60095238Y-45142857D01*
X60047619Y-45047619D01*
X60000000Y-45000000D01*
X59904762Y-44952381D01*
X59666666Y-44952381D01*
X59523809Y-45000000D01*
X65928571Y-47602381D02*
X65928571Y-46602381D01*
X65357142Y-47602381D02*
X65785714Y-47030952D01*
X65357142Y-46602381D02*
X65928571Y-47173810D01*
X65023809Y-46602381D02*
X64785714Y-47602381D01*
X64595237Y-46888095D01*
X64404761Y-47602381D01*
X64166666Y-46602381D01*
X63357142Y-46935714D02*
X63357142Y-47602381D01*
X63595238Y-46554762D02*
X63833333Y-47269048D01*
X63214285Y-47269048D01*
X62976190Y-46602381D02*
X62404761Y-46602381D01*
X62690476Y-47602381D02*
X62690476Y-46602381D01*
X62071428Y-47602381D02*
X62071428Y-46602381D01*
X68833333Y-49157143D02*
X68880952Y-49204762D01*
X69023809Y-49252381D01*
X69119047Y-49252381D01*
X69261905Y-49204762D01*
X69357143Y-49109524D01*
X69404762Y-49014286D01*
X69452381Y-48823810D01*
X69452381Y-48680952D01*
X69404762Y-48490476D01*
X69357143Y-48395238D01*
X69261905Y-48300000D01*
X69119047Y-48252381D01*
X69023809Y-48252381D01*
X68880952Y-48300000D01*
X68833333Y-48347619D01*
X67833333Y-49157143D02*
X67880952Y-49204762D01*
X68023809Y-49252381D01*
X68119047Y-49252381D01*
X68261905Y-49204762D01*
X68357143Y-49109524D01*
X68404762Y-49014286D01*
X68452381Y-48823810D01*
X68452381Y-48680952D01*
X68404762Y-48490476D01*
X68357143Y-48395238D01*
X68261905Y-48300000D01*
X68119047Y-48252381D01*
X68023809Y-48252381D01*
X67880952Y-48300000D01*
X67833333Y-48347619D01*
X67404762Y-48871429D02*
X66642857Y-48871429D01*
X65833333Y-48728571D02*
X65690476Y-48776190D01*
X65642857Y-48823810D01*
X65595238Y-48919048D01*
X65595238Y-49061905D01*
X65642857Y-49157143D01*
X65690476Y-49204762D01*
X65785714Y-49252381D01*
X66166667Y-49252381D01*
X66166667Y-48252381D01*
X65833333Y-48252381D01*
X65738095Y-48300000D01*
X65690476Y-48347619D01*
X65642857Y-48442857D01*
X65642857Y-48538095D01*
X65690476Y-48633333D01*
X65738095Y-48680952D01*
X65833333Y-48728571D01*
X66166667Y-48728571D01*
X64976191Y-48776190D02*
X64976191Y-49252381D01*
X65309524Y-48252381D02*
X64976191Y-48776190D01*
X64642857Y-48252381D01*
X64309524Y-48871429D02*
X63547619Y-48871429D01*
X63119048Y-49204762D02*
X62976191Y-49252381D01*
X62738095Y-49252381D01*
X62642857Y-49204762D01*
X62595238Y-49157143D01*
X62547619Y-49061905D01*
X62547619Y-48966667D01*
X62595238Y-48871429D01*
X62642857Y-48823810D01*
X62738095Y-48776190D01*
X62928572Y-48728571D01*
X63023810Y-48680952D01*
X63071429Y-48633333D01*
X63119048Y-48538095D01*
X63119048Y-48442857D01*
X63071429Y-48347619D01*
X63023810Y-48300000D01*
X62928572Y-48252381D01*
X62690476Y-48252381D01*
X62547619Y-48300000D01*
X62166667Y-48966667D02*
X61690476Y-48966667D01*
X62261905Y-49252381D02*
X61928572Y-48252381D01*
X61595238Y-49252381D01*
X60071428Y-48585714D02*
X60071428Y-49252381D01*
X60309524Y-48204762D02*
X60547619Y-48919048D01*
X59928571Y-48919048D01*
X59547619Y-49157143D02*
X59500000Y-49204762D01*
X59547619Y-49252381D01*
X59595238Y-49204762D01*
X59547619Y-49157143D01*
X59547619Y-49252381D01*
X58880953Y-48252381D02*
X58785714Y-48252381D01*
X58690476Y-48300000D01*
X58642857Y-48347619D01*
X58595238Y-48442857D01*
X58547619Y-48633333D01*
X58547619Y-48871429D01*
X58595238Y-49061905D01*
X58642857Y-49157143D01*
X58690476Y-49204762D01*
X58785714Y-49252381D01*
X58880953Y-49252381D01*
X58976191Y-49204762D01*
X59023810Y-49157143D01*
X59071429Y-49061905D01*
X59119048Y-48871429D01*
X59119048Y-48633333D01*
X59071429Y-48442857D01*
X59023810Y-48347619D01*
X58976191Y-48300000D01*
X58880953Y-48252381D01*
X84600000Y-33327381D02*
X84409523Y-33327381D01*
X84314285Y-33375000D01*
X84219047Y-33470238D01*
X84171428Y-33660714D01*
X84171428Y-33994048D01*
X84219047Y-34184524D01*
X84314285Y-34279762D01*
X84409523Y-34327381D01*
X84600000Y-34327381D01*
X84695238Y-34279762D01*
X84790476Y-34184524D01*
X84838095Y-33994048D01*
X84838095Y-33660714D01*
X84790476Y-33470238D01*
X84695238Y-33375000D01*
X84600000Y-33327381D01*
X83742857Y-33327381D02*
X83742857Y-34136905D01*
X83695238Y-34232143D01*
X83647619Y-34279762D01*
X83552381Y-34327381D01*
X83361904Y-34327381D01*
X83266666Y-34279762D01*
X83219047Y-34232143D01*
X83171428Y-34136905D01*
X83171428Y-33327381D01*
X82838095Y-33327381D02*
X82266666Y-33327381D01*
X82552381Y-34327381D02*
X82552381Y-33327381D01*
X85266667Y-35977381D02*
X85266667Y-34977381D01*
X84885714Y-34977381D01*
X84790476Y-35025000D01*
X84742857Y-35072619D01*
X84695238Y-35167857D01*
X84695238Y-35310714D01*
X84742857Y-35405952D01*
X84790476Y-35453571D01*
X84885714Y-35501190D01*
X85266667Y-35501190D01*
X84076191Y-34977381D02*
X83885714Y-34977381D01*
X83790476Y-35025000D01*
X83695238Y-35120238D01*
X83647619Y-35310714D01*
X83647619Y-35644048D01*
X83695238Y-35834524D01*
X83790476Y-35929762D01*
X83885714Y-35977381D01*
X84076191Y-35977381D01*
X84171429Y-35929762D01*
X84266667Y-35834524D01*
X84314286Y-35644048D01*
X84314286Y-35310714D01*
X84266667Y-35120238D01*
X84171429Y-35025000D01*
X84076191Y-34977381D01*
X82647619Y-35977381D02*
X82980953Y-35501190D01*
X83219048Y-35977381D02*
X83219048Y-34977381D01*
X82838095Y-34977381D01*
X82742857Y-35025000D01*
X82695238Y-35072619D01*
X82647619Y-35167857D01*
X82647619Y-35310714D01*
X82695238Y-35405952D01*
X82742857Y-35453571D01*
X82838095Y-35501190D01*
X83219048Y-35501190D01*
X82361905Y-34977381D02*
X81790476Y-34977381D01*
X82076191Y-35977381D02*
X82076191Y-34977381D01*
X60372619Y-55673809D02*
X61372619Y-55673809D01*
X60372619Y-55197619D02*
X61372619Y-55197619D01*
X60372619Y-54626190D01*
X61372619Y-54626190D01*
X58722619Y-56816667D02*
X59722619Y-56816667D01*
X59722619Y-56435714D01*
X59675000Y-56340476D01*
X59627381Y-56292857D01*
X59532143Y-56245238D01*
X59389286Y-56245238D01*
X59294048Y-56292857D01*
X59246429Y-56340476D01*
X59198810Y-56435714D01*
X59198810Y-56816667D01*
X59722619Y-55626191D02*
X59722619Y-55435714D01*
X59675000Y-55340476D01*
X59579762Y-55245238D01*
X59389286Y-55197619D01*
X59055952Y-55197619D01*
X58865476Y-55245238D01*
X58770238Y-55340476D01*
X58722619Y-55435714D01*
X58722619Y-55626191D01*
X58770238Y-55721429D01*
X58865476Y-55816667D01*
X59055952Y-55864286D01*
X59389286Y-55864286D01*
X59579762Y-55816667D01*
X59675000Y-55721429D01*
X59722619Y-55626191D01*
X58722619Y-54197619D02*
X59198810Y-54530953D01*
X58722619Y-54769048D02*
X59722619Y-54769048D01*
X59722619Y-54388095D01*
X59675000Y-54292857D01*
X59627381Y-54245238D01*
X59532143Y-54197619D01*
X59389286Y-54197619D01*
X59294048Y-54245238D01*
X59246429Y-54292857D01*
X59198810Y-54388095D01*
X59198810Y-54769048D01*
X59722619Y-53911905D02*
X59722619Y-53340476D01*
X58722619Y-53626191D02*
X59722619Y-53626191D01*
X66757143Y-38504762D02*
X66614286Y-38552381D01*
X66376190Y-38552381D01*
X66280952Y-38504762D01*
X66233333Y-38457143D01*
X66185714Y-38361905D01*
X66185714Y-38266667D01*
X66233333Y-38171429D01*
X66280952Y-38123810D01*
X66376190Y-38076190D01*
X66566667Y-38028571D01*
X66661905Y-37980952D01*
X66709524Y-37933333D01*
X66757143Y-37838095D01*
X66757143Y-37742857D01*
X66709524Y-37647619D01*
X66661905Y-37600000D01*
X66566667Y-37552381D01*
X66328571Y-37552381D01*
X66185714Y-37600000D01*
X65852381Y-37552381D02*
X65614286Y-38552381D01*
X65423809Y-37838095D01*
X65233333Y-38552381D01*
X64995238Y-37552381D01*
X61757143Y-38404762D02*
X61614286Y-38452381D01*
X61376190Y-38452381D01*
X61280952Y-38404762D01*
X61233333Y-38357143D01*
X61185714Y-38261905D01*
X61185714Y-38166667D01*
X61233333Y-38071429D01*
X61280952Y-38023810D01*
X61376190Y-37976190D01*
X61566667Y-37928571D01*
X61661905Y-37880952D01*
X61709524Y-37833333D01*
X61757143Y-37738095D01*
X61757143Y-37642857D01*
X61709524Y-37547619D01*
X61661905Y-37500000D01*
X61566667Y-37452381D01*
X61328571Y-37452381D01*
X61185714Y-37500000D01*
X60852381Y-37452381D02*
X60614286Y-38452381D01*
X60423809Y-37738095D01*
X60233333Y-38452381D01*
X59995238Y-37452381D01*
X62752381Y-33552381D02*
X62752381Y-32552381D01*
X62371428Y-32552381D01*
X62276190Y-32600000D01*
X62228571Y-32647619D01*
X62180952Y-32742857D01*
X62180952Y-32885714D01*
X62228571Y-32980952D01*
X62276190Y-33028571D01*
X62371428Y-33076190D01*
X62752381Y-33076190D01*
X61847619Y-32552381D02*
X61609524Y-33552381D01*
X61419047Y-32838095D01*
X61228571Y-33552381D01*
X60990476Y-32552381D01*
X60038095Y-33552381D02*
X60371429Y-33076190D01*
X60609524Y-33552381D02*
X60609524Y-32552381D01*
X60228571Y-32552381D01*
X60133333Y-32600000D01*
X60085714Y-32647619D01*
X60038095Y-32742857D01*
X60038095Y-32885714D01*
X60085714Y-32980952D01*
X60133333Y-33028571D01*
X60228571Y-33076190D01*
X60609524Y-33076190D01*
X59609524Y-33171429D02*
X58847619Y-33171429D01*
X59228571Y-33552381D02*
X59228571Y-32790476D01*
X67252381Y-33652381D02*
X67252381Y-32652381D01*
X66871428Y-32652381D01*
X66776190Y-32700000D01*
X66728571Y-32747619D01*
X66680952Y-32842857D01*
X66680952Y-32985714D01*
X66728571Y-33080952D01*
X66776190Y-33128571D01*
X66871428Y-33176190D01*
X67252381Y-33176190D01*
X66347619Y-32652381D02*
X66109524Y-33652381D01*
X65919047Y-32938095D01*
X65728571Y-33652381D01*
X65490476Y-32652381D01*
X64538095Y-33652381D02*
X64871429Y-33176190D01*
X65109524Y-33652381D02*
X65109524Y-32652381D01*
X64728571Y-32652381D01*
X64633333Y-32700000D01*
X64585714Y-32747619D01*
X64538095Y-32842857D01*
X64538095Y-32985714D01*
X64585714Y-33080952D01*
X64633333Y-33128571D01*
X64728571Y-33176190D01*
X65109524Y-33176190D01*
X64109524Y-33271429D02*
X63347619Y-33271429D01*
X67657143Y-90954762D02*
X67514286Y-91002381D01*
X67276190Y-91002381D01*
X67180952Y-90954762D01*
X67133333Y-90907143D01*
X67085714Y-90811905D01*
X67085714Y-90716667D01*
X67133333Y-90621429D01*
X67180952Y-90573810D01*
X67276190Y-90526190D01*
X67466667Y-90478571D01*
X67561905Y-90430952D01*
X67609524Y-90383333D01*
X67657143Y-90288095D01*
X67657143Y-90192857D01*
X67609524Y-90097619D01*
X67561905Y-90050000D01*
X67466667Y-90002381D01*
X67228571Y-90002381D01*
X67085714Y-90050000D01*
X66752381Y-90002381D02*
X66514286Y-91002381D01*
X66323809Y-90288095D01*
X66133333Y-91002381D01*
X65895238Y-90002381D01*
X71232143Y-91029762D02*
X71089286Y-91077381D01*
X70851190Y-91077381D01*
X70755952Y-91029762D01*
X70708333Y-90982143D01*
X70660714Y-90886905D01*
X70660714Y-90791667D01*
X70708333Y-90696429D01*
X70755952Y-90648810D01*
X70851190Y-90601190D01*
X71041667Y-90553571D01*
X71136905Y-90505952D01*
X71184524Y-90458333D01*
X71232143Y-90363095D01*
X71232143Y-90267857D01*
X71184524Y-90172619D01*
X71136905Y-90125000D01*
X71041667Y-90077381D01*
X70803571Y-90077381D01*
X70660714Y-90125000D01*
X70327381Y-90077381D02*
X70089286Y-91077381D01*
X69898809Y-90363095D01*
X69708333Y-91077381D01*
X69470238Y-90077381D01*
X72477381Y-87102381D02*
X72477381Y-86102381D01*
X72096428Y-86102381D01*
X72001190Y-86150000D01*
X71953571Y-86197619D01*
X71905952Y-86292857D01*
X71905952Y-86435714D01*
X71953571Y-86530952D01*
X72001190Y-86578571D01*
X72096428Y-86626190D01*
X72477381Y-86626190D01*
X71572619Y-86102381D02*
X71334524Y-87102381D01*
X71144047Y-86388095D01*
X70953571Y-87102381D01*
X70715476Y-86102381D01*
X69763095Y-87102381D02*
X70096429Y-86626190D01*
X70334524Y-87102381D02*
X70334524Y-86102381D01*
X69953571Y-86102381D01*
X69858333Y-86150000D01*
X69810714Y-86197619D01*
X69763095Y-86292857D01*
X69763095Y-86435714D01*
X69810714Y-86530952D01*
X69858333Y-86578571D01*
X69953571Y-86626190D01*
X70334524Y-86626190D01*
X69334524Y-86721429D02*
X68572619Y-86721429D01*
X68953571Y-87102381D02*
X68953571Y-86340476D01*
X68202381Y-87152381D02*
X68202381Y-86152381D01*
X67821428Y-86152381D01*
X67726190Y-86200000D01*
X67678571Y-86247619D01*
X67630952Y-86342857D01*
X67630952Y-86485714D01*
X67678571Y-86580952D01*
X67726190Y-86628571D01*
X67821428Y-86676190D01*
X68202381Y-86676190D01*
X67297619Y-86152381D02*
X67059524Y-87152381D01*
X66869047Y-86438095D01*
X66678571Y-87152381D01*
X66440476Y-86152381D01*
X65488095Y-87152381D02*
X65821429Y-86676190D01*
X66059524Y-87152381D02*
X66059524Y-86152381D01*
X65678571Y-86152381D01*
X65583333Y-86200000D01*
X65535714Y-86247619D01*
X65488095Y-86342857D01*
X65488095Y-86485714D01*
X65535714Y-86580952D01*
X65583333Y-86628571D01*
X65678571Y-86676190D01*
X66059524Y-86676190D01*
X65059524Y-86771429D02*
X64297619Y-86771429D01*
X59197619Y-71588095D02*
X59673810Y-71921429D01*
X59197619Y-72159524D02*
X60197619Y-72159524D01*
X60197619Y-71778571D01*
X60150000Y-71683333D01*
X60102381Y-71635714D01*
X60007143Y-71588095D01*
X59864286Y-71588095D01*
X59769048Y-71635714D01*
X59721429Y-71683333D01*
X59673810Y-71778571D01*
X59673810Y-72159524D01*
X59721429Y-70826190D02*
X59721429Y-71159524D01*
X59197619Y-71159524D02*
X60197619Y-71159524D01*
X60197619Y-70683333D01*
X59578571Y-70302381D02*
X59578571Y-69540476D01*
X59347619Y-88688095D02*
X59823810Y-89021429D01*
X59347619Y-89259524D02*
X60347619Y-89259524D01*
X60347619Y-88878571D01*
X60300000Y-88783333D01*
X60252381Y-88735714D01*
X60157143Y-88688095D01*
X60014286Y-88688095D01*
X59919048Y-88735714D01*
X59871429Y-88783333D01*
X59823810Y-88878571D01*
X59823810Y-89259524D01*
X59871429Y-87926190D02*
X59871429Y-88259524D01*
X59347619Y-88259524D02*
X60347619Y-88259524D01*
X60347619Y-87783333D01*
X59728571Y-87402381D02*
X59728571Y-86640476D01*
X59347619Y-87021428D02*
X60109524Y-87021428D01*
X59447619Y-106183333D02*
X59447619Y-106659524D01*
X60447619Y-106659524D01*
X60447619Y-105659524D02*
X60447619Y-105469047D01*
X60400000Y-105373809D01*
X60304762Y-105278571D01*
X60114286Y-105230952D01*
X59780952Y-105230952D01*
X59590476Y-105278571D01*
X59495238Y-105373809D01*
X59447619Y-105469047D01*
X59447619Y-105659524D01*
X59495238Y-105754762D01*
X59590476Y-105850000D01*
X59780952Y-105897619D01*
X60114286Y-105897619D01*
X60304762Y-105850000D01*
X60400000Y-105754762D01*
X60447619Y-105659524D01*
X59828571Y-104802381D02*
X59828571Y-104040476D01*
X59697619Y-123583333D02*
X59697619Y-124059524D01*
X60697619Y-124059524D01*
X60697619Y-123059524D02*
X60697619Y-122869047D01*
X60650000Y-122773809D01*
X60554762Y-122678571D01*
X60364286Y-122630952D01*
X60030952Y-122630952D01*
X59840476Y-122678571D01*
X59745238Y-122773809D01*
X59697619Y-122869047D01*
X59697619Y-123059524D01*
X59745238Y-123154762D01*
X59840476Y-123250000D01*
X60030952Y-123297619D01*
X60364286Y-123297619D01*
X60554762Y-123250000D01*
X60650000Y-123154762D01*
X60697619Y-123059524D01*
X60078571Y-122202381D02*
X60078571Y-121440476D01*
X59697619Y-121821428D02*
X60459524Y-121821428D01*
X66669048Y-129252381D02*
X66478571Y-129252381D01*
X66383333Y-129300000D01*
X66288095Y-129395238D01*
X66240476Y-129585714D01*
X66240476Y-129919048D01*
X66288095Y-130109524D01*
X66383333Y-130204762D01*
X66478571Y-130252381D01*
X66669048Y-130252381D01*
X66764286Y-130204762D01*
X66859524Y-130109524D01*
X66907143Y-129919048D01*
X66907143Y-129585714D01*
X66859524Y-129395238D01*
X66764286Y-129300000D01*
X66669048Y-129252381D01*
X65811905Y-129252381D02*
X65811905Y-130061905D01*
X65764286Y-130157143D01*
X65716667Y-130204762D01*
X65621429Y-130252381D01*
X65430952Y-130252381D01*
X65335714Y-130204762D01*
X65288095Y-130157143D01*
X65240476Y-130061905D01*
X65240476Y-129252381D01*
X64907143Y-129252381D02*
X64335714Y-129252381D01*
X64621429Y-130252381D02*
X64621429Y-129252381D01*
X64002381Y-129871429D02*
X63240476Y-129871429D01*
X84419048Y-129352381D02*
X84228571Y-129352381D01*
X84133333Y-129400000D01*
X84038095Y-129495238D01*
X83990476Y-129685714D01*
X83990476Y-130019048D01*
X84038095Y-130209524D01*
X84133333Y-130304762D01*
X84228571Y-130352381D01*
X84419048Y-130352381D01*
X84514286Y-130304762D01*
X84609524Y-130209524D01*
X84657143Y-130019048D01*
X84657143Y-129685714D01*
X84609524Y-129495238D01*
X84514286Y-129400000D01*
X84419048Y-129352381D01*
X83561905Y-129352381D02*
X83561905Y-130161905D01*
X83514286Y-130257143D01*
X83466667Y-130304762D01*
X83371429Y-130352381D01*
X83180952Y-130352381D01*
X83085714Y-130304762D01*
X83038095Y-130257143D01*
X82990476Y-130161905D01*
X82990476Y-129352381D01*
X82657143Y-129352381D02*
X82085714Y-129352381D01*
X82371429Y-130352381D02*
X82371429Y-129352381D01*
X81752381Y-129971429D02*
X80990476Y-129971429D01*
X81371428Y-130352381D02*
X81371428Y-129590476D01*
X87197619Y-110538095D02*
X87673810Y-110871429D01*
X87197619Y-111109524D02*
X88197619Y-111109524D01*
X88197619Y-110728571D01*
X88150000Y-110633333D01*
X88102381Y-110585714D01*
X88007143Y-110538095D01*
X87864286Y-110538095D01*
X87769048Y-110585714D01*
X87721429Y-110633333D01*
X87673810Y-110728571D01*
X87673810Y-111109524D01*
X87721429Y-109776190D02*
X87721429Y-110109524D01*
X87197619Y-110109524D02*
X88197619Y-110109524D01*
X88197619Y-109633333D01*
X87197619Y-108490476D02*
X88197619Y-108490476D01*
X87483333Y-108157142D01*
X88197619Y-107823809D01*
X87197619Y-107823809D01*
X87197619Y-107347619D02*
X88197619Y-107347619D01*
X88197619Y-106966667D02*
X87197619Y-106300000D01*
X88197619Y-106300000D02*
X87197619Y-106966667D01*
X87721429Y-105919048D02*
X87721429Y-105585714D01*
X87197619Y-105442857D02*
X87197619Y-105919048D01*
X88197619Y-105919048D01*
X88197619Y-105442857D01*
X87197619Y-104442857D02*
X87673810Y-104776191D01*
X87197619Y-105014286D02*
X88197619Y-105014286D01*
X88197619Y-104633333D01*
X88150000Y-104538095D01*
X88102381Y-104490476D01*
X88007143Y-104442857D01*
X87864286Y-104442857D01*
X87769048Y-104490476D01*
X87721429Y-104538095D01*
X87673810Y-104633333D01*
X87673810Y-105014286D01*
X86071429Y-114442857D02*
X86023810Y-114300000D01*
X85976190Y-114252381D01*
X85880952Y-114204762D01*
X85738095Y-114204762D01*
X85642857Y-114252381D01*
X85595238Y-114300000D01*
X85547619Y-114395238D01*
X85547619Y-114776191D01*
X86547619Y-114776191D01*
X86547619Y-114442857D01*
X86500000Y-114347619D01*
X86452381Y-114300000D01*
X86357143Y-114252381D01*
X86261905Y-114252381D01*
X86166667Y-114300000D01*
X86119048Y-114347619D01*
X86071429Y-114442857D01*
X86071429Y-114776191D01*
X86023810Y-113585715D02*
X85547619Y-113585715D01*
X86547619Y-113919048D02*
X86023810Y-113585715D01*
X86547619Y-113252381D01*
X85547619Y-112157143D02*
X86547619Y-112157143D01*
X86547619Y-111919048D01*
X86500000Y-111776190D01*
X86404762Y-111680952D01*
X86309524Y-111633333D01*
X86119048Y-111585714D01*
X85976190Y-111585714D01*
X85785714Y-111633333D01*
X85690476Y-111680952D01*
X85595238Y-111776190D01*
X85547619Y-111919048D01*
X85547619Y-112157143D01*
X85547619Y-110395238D02*
X86547619Y-110395238D01*
X85833333Y-110061904D01*
X86547619Y-109728571D01*
X85547619Y-109728571D01*
X85833333Y-109300000D02*
X85833333Y-108823809D01*
X85547619Y-109395238D02*
X86547619Y-109061905D01*
X85547619Y-108728571D01*
X85547619Y-107823809D02*
X86023810Y-108157143D01*
X85547619Y-108395238D02*
X86547619Y-108395238D01*
X86547619Y-108014285D01*
X86500000Y-107919047D01*
X86452381Y-107871428D01*
X86357143Y-107823809D01*
X86214286Y-107823809D01*
X86119048Y-107871428D01*
X86071429Y-107919047D01*
X86023810Y-108014285D01*
X86023810Y-108395238D01*
X85547619Y-107395238D02*
X86547619Y-107395238D01*
X85547619Y-106823809D02*
X86119048Y-107252381D01*
X86547619Y-106823809D02*
X85976190Y-107395238D01*
X85595238Y-106442857D02*
X85547619Y-106300000D01*
X85547619Y-106061904D01*
X85595238Y-105966666D01*
X85642857Y-105919047D01*
X85738095Y-105871428D01*
X85833333Y-105871428D01*
X85928571Y-105919047D01*
X85976190Y-105966666D01*
X86023810Y-106061904D01*
X86071429Y-106252381D01*
X86119048Y-106347619D01*
X86166667Y-106395238D01*
X86261905Y-106442857D01*
X86357143Y-106442857D01*
X86452381Y-106395238D01*
X86500000Y-106347619D01*
X86547619Y-106252381D01*
X86547619Y-106014285D01*
X86500000Y-105871428D01*
X85547619Y-104680952D02*
X86547619Y-104680952D01*
X85547619Y-104109523D02*
X86119048Y-104538095D01*
X86547619Y-104109523D02*
X85976190Y-104680952D01*
X86547619Y-103776190D02*
X85547619Y-103538095D01*
X86261905Y-103347618D01*
X85547619Y-103157142D01*
X86547619Y-102919047D01*
X86214286Y-102109523D02*
X85547619Y-102109523D01*
X86595238Y-102347619D02*
X85880952Y-102585714D01*
X85880952Y-101966666D01*
X86547619Y-101728571D02*
X86547619Y-101157142D01*
X85547619Y-101442857D02*
X86547619Y-101442857D01*
X85547619Y-100823809D02*
X86547619Y-100823809D01*
X83992857Y-112633333D02*
X83945238Y-112680952D01*
X83897619Y-112823809D01*
X83897619Y-112919047D01*
X83945238Y-113061905D01*
X84040476Y-113157143D01*
X84135714Y-113204762D01*
X84326190Y-113252381D01*
X84469048Y-113252381D01*
X84659524Y-113204762D01*
X84754762Y-113157143D01*
X84850000Y-113061905D01*
X84897619Y-112919047D01*
X84897619Y-112823809D01*
X84850000Y-112680952D01*
X84802381Y-112633333D01*
X83992857Y-111633333D02*
X83945238Y-111680952D01*
X83897619Y-111823809D01*
X83897619Y-111919047D01*
X83945238Y-112061905D01*
X84040476Y-112157143D01*
X84135714Y-112204762D01*
X84326190Y-112252381D01*
X84469048Y-112252381D01*
X84659524Y-112204762D01*
X84754762Y-112157143D01*
X84850000Y-112061905D01*
X84897619Y-111919047D01*
X84897619Y-111823809D01*
X84850000Y-111680952D01*
X84802381Y-111633333D01*
X84278571Y-111204762D02*
X84278571Y-110442857D01*
X84421429Y-109633333D02*
X84373810Y-109490476D01*
X84326190Y-109442857D01*
X84230952Y-109395238D01*
X84088095Y-109395238D01*
X83992857Y-109442857D01*
X83945238Y-109490476D01*
X83897619Y-109585714D01*
X83897619Y-109966667D01*
X84897619Y-109966667D01*
X84897619Y-109633333D01*
X84850000Y-109538095D01*
X84802381Y-109490476D01*
X84707143Y-109442857D01*
X84611905Y-109442857D01*
X84516667Y-109490476D01*
X84469048Y-109538095D01*
X84421429Y-109633333D01*
X84421429Y-109966667D01*
X84373810Y-108776191D02*
X83897619Y-108776191D01*
X84897619Y-109109524D02*
X84373810Y-108776191D01*
X84897619Y-108442857D01*
X84278571Y-108109524D02*
X84278571Y-107347619D01*
X83945238Y-106919048D02*
X83897619Y-106776191D01*
X83897619Y-106538095D01*
X83945238Y-106442857D01*
X83992857Y-106395238D01*
X84088095Y-106347619D01*
X84183333Y-106347619D01*
X84278571Y-106395238D01*
X84326190Y-106442857D01*
X84373810Y-106538095D01*
X84421429Y-106728572D01*
X84469048Y-106823810D01*
X84516667Y-106871429D01*
X84611905Y-106919048D01*
X84707143Y-106919048D01*
X84802381Y-106871429D01*
X84850000Y-106823810D01*
X84897619Y-106728572D01*
X84897619Y-106490476D01*
X84850000Y-106347619D01*
X84183333Y-105966667D02*
X84183333Y-105490476D01*
X83897619Y-106061905D02*
X84897619Y-105728572D01*
X83897619Y-105395238D01*
X84564286Y-103871428D02*
X83897619Y-103871428D01*
X84945238Y-104109524D02*
X84230952Y-104347619D01*
X84230952Y-103728571D01*
X83992857Y-103347619D02*
X83945238Y-103300000D01*
X83897619Y-103347619D01*
X83945238Y-103395238D01*
X83992857Y-103347619D01*
X83897619Y-103347619D01*
X84897619Y-102680953D02*
X84897619Y-102585714D01*
X84850000Y-102490476D01*
X84802381Y-102442857D01*
X84707143Y-102395238D01*
X84516667Y-102347619D01*
X84278571Y-102347619D01*
X84088095Y-102395238D01*
X83992857Y-102442857D01*
X83945238Y-102490476D01*
X83897619Y-102585714D01*
X83897619Y-102680953D01*
X83945238Y-102776191D01*
X83992857Y-102823810D01*
X84088095Y-102871429D01*
X84278571Y-102919048D01*
X84516667Y-102919048D01*
X84707143Y-102871429D01*
X84802381Y-102823810D01*
X84850000Y-102776191D01*
X84897619Y-102680953D01*
X154281143Y-120768762D02*
X154138286Y-120816381D01*
X153900190Y-120816381D01*
X153804952Y-120768762D01*
X153757333Y-120721143D01*
X153709714Y-120625905D01*
X153709714Y-120530667D01*
X153757333Y-120435429D01*
X153804952Y-120387810D01*
X153900190Y-120340190D01*
X154090667Y-120292571D01*
X154185905Y-120244952D01*
X154233524Y-120197333D01*
X154281143Y-120102095D01*
X154281143Y-120006857D01*
X154233524Y-119911619D01*
X154185905Y-119864000D01*
X154090667Y-119816381D01*
X153852571Y-119816381D01*
X153709714Y-119864000D01*
X153376381Y-119816381D02*
X153138286Y-120816381D01*
X152947809Y-120102095D01*
X152757333Y-120816381D01*
X152519238Y-119816381D01*
X149455143Y-120768762D02*
X149312286Y-120816381D01*
X149074190Y-120816381D01*
X148978952Y-120768762D01*
X148931333Y-120721143D01*
X148883714Y-120625905D01*
X148883714Y-120530667D01*
X148931333Y-120435429D01*
X148978952Y-120387810D01*
X149074190Y-120340190D01*
X149264667Y-120292571D01*
X149359905Y-120244952D01*
X149407524Y-120197333D01*
X149455143Y-120102095D01*
X149455143Y-120006857D01*
X149407524Y-119911619D01*
X149359905Y-119864000D01*
X149264667Y-119816381D01*
X149026571Y-119816381D01*
X148883714Y-119864000D01*
X148550381Y-119816381D02*
X148312286Y-120816381D01*
X148121809Y-120102095D01*
X147931333Y-120816381D01*
X147693238Y-119816381D01*
X150209142Y-125435571D02*
X150066285Y-125483190D01*
X150018666Y-125530810D01*
X149971047Y-125626048D01*
X149971047Y-125768905D01*
X150018666Y-125864143D01*
X150066285Y-125911762D01*
X150161523Y-125959381D01*
X150542476Y-125959381D01*
X150542476Y-124959381D01*
X150209142Y-124959381D01*
X150113904Y-125007000D01*
X150066285Y-125054619D01*
X150018666Y-125149857D01*
X150018666Y-125245095D01*
X150066285Y-125340333D01*
X150113904Y-125387952D01*
X150209142Y-125435571D01*
X150542476Y-125435571D01*
X149590095Y-125673667D02*
X149113904Y-125673667D01*
X149685333Y-125959381D02*
X149352000Y-124959381D01*
X149018666Y-125959381D01*
X148828190Y-124959381D02*
X148256761Y-124959381D01*
X148542476Y-125959381D02*
X148542476Y-124959381D01*
X147923428Y-125578429D02*
X147161523Y-125578429D01*
X154527142Y-125435571D02*
X154384285Y-125483190D01*
X154336666Y-125530810D01*
X154289047Y-125626048D01*
X154289047Y-125768905D01*
X154336666Y-125864143D01*
X154384285Y-125911762D01*
X154479523Y-125959381D01*
X154860476Y-125959381D01*
X154860476Y-124959381D01*
X154527142Y-124959381D01*
X154431904Y-125007000D01*
X154384285Y-125054619D01*
X154336666Y-125149857D01*
X154336666Y-125245095D01*
X154384285Y-125340333D01*
X154431904Y-125387952D01*
X154527142Y-125435571D01*
X154860476Y-125435571D01*
X153908095Y-125673667D02*
X153431904Y-125673667D01*
X154003333Y-125959381D02*
X153670000Y-124959381D01*
X153336666Y-125959381D01*
X153146190Y-124959381D02*
X152574761Y-124959381D01*
X152860476Y-125959381D02*
X152860476Y-124959381D01*
X152241428Y-125578429D02*
X151479523Y-125578429D01*
X151860475Y-125959381D02*
X151860475Y-125197476D01*
X135150762Y-115578667D02*
X134674571Y-115578667D01*
X135246000Y-115864381D02*
X134912667Y-114864381D01*
X134579333Y-115864381D01*
X133674571Y-115769143D02*
X133722190Y-115816762D01*
X133865047Y-115864381D01*
X133960285Y-115864381D01*
X134103143Y-115816762D01*
X134198381Y-115721524D01*
X134246000Y-115626286D01*
X134293619Y-115435810D01*
X134293619Y-115292952D01*
X134246000Y-115102476D01*
X134198381Y-115007238D01*
X134103143Y-114912000D01*
X133960285Y-114864381D01*
X133865047Y-114864381D01*
X133722190Y-114912000D01*
X133674571Y-114959619D01*
X133388857Y-114864381D02*
X132817428Y-114864381D01*
X133103143Y-115864381D02*
X133103143Y-114864381D01*
X132484095Y-115864381D02*
X132484095Y-114864381D01*
X132150762Y-114864381D02*
X131817429Y-115864381D01*
X131484095Y-114864381D01*
X131150762Y-115340571D02*
X130817428Y-115340571D01*
X130674571Y-115864381D02*
X131150762Y-115864381D01*
X131150762Y-114864381D01*
X130674571Y-114864381D01*
X128912666Y-115864381D02*
X129246000Y-115388190D01*
X129484095Y-115864381D02*
X129484095Y-114864381D01*
X129103142Y-114864381D01*
X129007904Y-114912000D01*
X128960285Y-114959619D01*
X128912666Y-115054857D01*
X128912666Y-115197714D01*
X128960285Y-115292952D01*
X129007904Y-115340571D01*
X129103142Y-115388190D01*
X129484095Y-115388190D01*
X128150761Y-115340571D02*
X128484095Y-115340571D01*
X128484095Y-115864381D02*
X128484095Y-114864381D01*
X128007904Y-114864381D01*
X126865047Y-115864381D02*
X126865047Y-114864381D01*
X126626952Y-114864381D01*
X126484094Y-114912000D01*
X126388856Y-115007238D01*
X126341237Y-115102476D01*
X126293618Y-115292952D01*
X126293618Y-115435810D01*
X126341237Y-115626286D01*
X126388856Y-115721524D01*
X126484094Y-115816762D01*
X126626952Y-115864381D01*
X126865047Y-115864381D01*
X125865047Y-115864381D02*
X125865047Y-114864381D01*
X125055523Y-115340571D02*
X125388857Y-115340571D01*
X125388857Y-115864381D02*
X125388857Y-114864381D01*
X124912666Y-114864381D01*
X124198380Y-115340571D02*
X124531714Y-115340571D01*
X124531714Y-115864381D02*
X124531714Y-114864381D01*
X124055523Y-114864381D01*
X123674571Y-115340571D02*
X123341237Y-115340571D01*
X123198380Y-115864381D02*
X123674571Y-115864381D01*
X123674571Y-114864381D01*
X123198380Y-114864381D01*
X122198380Y-115864381D02*
X122531714Y-115388190D01*
X122769809Y-115864381D02*
X122769809Y-114864381D01*
X122388856Y-114864381D01*
X122293618Y-114912000D01*
X122245999Y-114959619D01*
X122198380Y-115054857D01*
X122198380Y-115197714D01*
X122245999Y-115292952D01*
X122293618Y-115340571D01*
X122388856Y-115388190D01*
X122769809Y-115388190D01*
X121769809Y-115340571D02*
X121436475Y-115340571D01*
X121293618Y-115864381D02*
X121769809Y-115864381D01*
X121769809Y-114864381D01*
X121293618Y-114864381D01*
X120865047Y-115864381D02*
X120865047Y-114864381D01*
X120293618Y-115864381D01*
X120293618Y-114864381D01*
X119960285Y-114864381D02*
X119388856Y-114864381D01*
X119674571Y-115864381D02*
X119674571Y-114864381D01*
X119055523Y-115864381D02*
X119055523Y-114864381D01*
X118626952Y-115578667D02*
X118150761Y-115578667D01*
X118722190Y-115864381D02*
X118388857Y-114864381D01*
X118055523Y-115864381D01*
X117245999Y-115864381D02*
X117722190Y-115864381D01*
X117722190Y-114864381D01*
X133531715Y-117514381D02*
X133531715Y-116514381D01*
X133150762Y-116514381D01*
X133055524Y-116562000D01*
X133007905Y-116609619D01*
X132960286Y-116704857D01*
X132960286Y-116847714D01*
X133007905Y-116942952D01*
X133055524Y-116990571D01*
X133150762Y-117038190D01*
X133531715Y-117038190D01*
X131960286Y-117514381D02*
X132293620Y-117038190D01*
X132531715Y-117514381D02*
X132531715Y-116514381D01*
X132150762Y-116514381D01*
X132055524Y-116562000D01*
X132007905Y-116609619D01*
X131960286Y-116704857D01*
X131960286Y-116847714D01*
X132007905Y-116942952D01*
X132055524Y-116990571D01*
X132150762Y-117038190D01*
X132531715Y-117038190D01*
X131341239Y-116514381D02*
X131150762Y-116514381D01*
X131055524Y-116562000D01*
X130960286Y-116657238D01*
X130912667Y-116847714D01*
X130912667Y-117181048D01*
X130960286Y-117371524D01*
X131055524Y-117466762D01*
X131150762Y-117514381D01*
X131341239Y-117514381D01*
X131436477Y-117466762D01*
X131531715Y-117371524D01*
X131579334Y-117181048D01*
X131579334Y-116847714D01*
X131531715Y-116657238D01*
X131436477Y-116562000D01*
X131341239Y-116514381D01*
X130150762Y-116990571D02*
X130007905Y-117038190D01*
X129960286Y-117085810D01*
X129912667Y-117181048D01*
X129912667Y-117323905D01*
X129960286Y-117419143D01*
X130007905Y-117466762D01*
X130103143Y-117514381D01*
X130484096Y-117514381D01*
X130484096Y-116514381D01*
X130150762Y-116514381D01*
X130055524Y-116562000D01*
X130007905Y-116609619D01*
X129960286Y-116704857D01*
X129960286Y-116800095D01*
X130007905Y-116895333D01*
X130055524Y-116942952D01*
X130150762Y-116990571D01*
X130484096Y-116990571D01*
X129484096Y-116990571D02*
X129150762Y-116990571D01*
X129007905Y-117514381D02*
X129484096Y-117514381D01*
X129484096Y-116514381D01*
X129007905Y-116514381D01*
X127484095Y-116990571D02*
X127341238Y-117038190D01*
X127293619Y-117085810D01*
X127246000Y-117181048D01*
X127246000Y-117323905D01*
X127293619Y-117419143D01*
X127341238Y-117466762D01*
X127436476Y-117514381D01*
X127817429Y-117514381D01*
X127817429Y-116514381D01*
X127484095Y-116514381D01*
X127388857Y-116562000D01*
X127341238Y-116609619D01*
X127293619Y-116704857D01*
X127293619Y-116800095D01*
X127341238Y-116895333D01*
X127388857Y-116942952D01*
X127484095Y-116990571D01*
X127817429Y-116990571D01*
X126626953Y-117038190D02*
X126626953Y-117514381D01*
X126960286Y-116514381D02*
X126626953Y-117038190D01*
X126293619Y-116514381D01*
X125198381Y-117514381D02*
X125198381Y-116514381D01*
X124960286Y-116514381D01*
X124817428Y-116562000D01*
X124722190Y-116657238D01*
X124674571Y-116752476D01*
X124626952Y-116942952D01*
X124626952Y-117085810D01*
X124674571Y-117276286D01*
X124722190Y-117371524D01*
X124817428Y-117466762D01*
X124960286Y-117514381D01*
X125198381Y-117514381D01*
X123436476Y-117514381D02*
X123436476Y-116514381D01*
X123103142Y-117228667D01*
X122769809Y-116514381D01*
X122769809Y-117514381D01*
X122341238Y-117228667D02*
X121865047Y-117228667D01*
X122436476Y-117514381D02*
X122103143Y-116514381D01*
X121769809Y-117514381D01*
X120865047Y-117514381D02*
X121198381Y-117038190D01*
X121436476Y-117514381D02*
X121436476Y-116514381D01*
X121055523Y-116514381D01*
X120960285Y-116562000D01*
X120912666Y-116609619D01*
X120865047Y-116704857D01*
X120865047Y-116847714D01*
X120912666Y-116942952D01*
X120960285Y-116990571D01*
X121055523Y-117038190D01*
X121436476Y-117038190D01*
X120436476Y-117514381D02*
X120436476Y-116514381D01*
X119865047Y-117514381D02*
X120293619Y-116942952D01*
X119865047Y-116514381D02*
X120436476Y-117085810D01*
X119484095Y-117466762D02*
X119341238Y-117514381D01*
X119103142Y-117514381D01*
X119007904Y-117466762D01*
X118960285Y-117419143D01*
X118912666Y-117323905D01*
X118912666Y-117228667D01*
X118960285Y-117133429D01*
X119007904Y-117085810D01*
X119103142Y-117038190D01*
X119293619Y-116990571D01*
X119388857Y-116942952D01*
X119436476Y-116895333D01*
X119484095Y-116800095D01*
X119484095Y-116704857D01*
X119436476Y-116609619D01*
X119388857Y-116562000D01*
X119293619Y-116514381D01*
X119055523Y-116514381D01*
X118912666Y-116562000D01*
X134198381Y-119164381D02*
X134198381Y-118164381D01*
X133626952Y-119164381D02*
X134055524Y-118592952D01*
X133626952Y-118164381D02*
X134198381Y-118735810D01*
X133293619Y-118164381D02*
X133055524Y-119164381D01*
X132865047Y-118450095D01*
X132674571Y-119164381D01*
X132436476Y-118164381D01*
X131626952Y-118497714D02*
X131626952Y-119164381D01*
X131865048Y-118116762D02*
X132103143Y-118831048D01*
X131484095Y-118831048D01*
X131246000Y-118164381D02*
X130674571Y-118164381D01*
X130960286Y-119164381D02*
X130960286Y-118164381D01*
X130341238Y-119164381D02*
X130341238Y-118164381D01*
X128531714Y-119069143D02*
X128579333Y-119116762D01*
X128722190Y-119164381D01*
X128817428Y-119164381D01*
X128960286Y-119116762D01*
X129055524Y-119021524D01*
X129103143Y-118926286D01*
X129150762Y-118735810D01*
X129150762Y-118592952D01*
X129103143Y-118402476D01*
X129055524Y-118307238D01*
X128960286Y-118212000D01*
X128817428Y-118164381D01*
X128722190Y-118164381D01*
X128579333Y-118212000D01*
X128531714Y-118259619D01*
X127531714Y-119069143D02*
X127579333Y-119116762D01*
X127722190Y-119164381D01*
X127817428Y-119164381D01*
X127960286Y-119116762D01*
X128055524Y-119021524D01*
X128103143Y-118926286D01*
X128150762Y-118735810D01*
X128150762Y-118592952D01*
X128103143Y-118402476D01*
X128055524Y-118307238D01*
X127960286Y-118212000D01*
X127817428Y-118164381D01*
X127722190Y-118164381D01*
X127579333Y-118212000D01*
X127531714Y-118259619D01*
X127103143Y-118783429D02*
X126341238Y-118783429D01*
X125531714Y-118640571D02*
X125388857Y-118688190D01*
X125341238Y-118735810D01*
X125293619Y-118831048D01*
X125293619Y-118973905D01*
X125341238Y-119069143D01*
X125388857Y-119116762D01*
X125484095Y-119164381D01*
X125865048Y-119164381D01*
X125865048Y-118164381D01*
X125531714Y-118164381D01*
X125436476Y-118212000D01*
X125388857Y-118259619D01*
X125341238Y-118354857D01*
X125341238Y-118450095D01*
X125388857Y-118545333D01*
X125436476Y-118592952D01*
X125531714Y-118640571D01*
X125865048Y-118640571D01*
X124674572Y-118688190D02*
X124674572Y-119164381D01*
X125007905Y-118164381D02*
X124674572Y-118688190D01*
X124341238Y-118164381D01*
X124007905Y-118783429D02*
X123246000Y-118783429D01*
X122817429Y-119116762D02*
X122674572Y-119164381D01*
X122436476Y-119164381D01*
X122341238Y-119116762D01*
X122293619Y-119069143D01*
X122246000Y-118973905D01*
X122246000Y-118878667D01*
X122293619Y-118783429D01*
X122341238Y-118735810D01*
X122436476Y-118688190D01*
X122626953Y-118640571D01*
X122722191Y-118592952D01*
X122769810Y-118545333D01*
X122817429Y-118450095D01*
X122817429Y-118354857D01*
X122769810Y-118259619D01*
X122722191Y-118212000D01*
X122626953Y-118164381D01*
X122388857Y-118164381D01*
X122246000Y-118212000D01*
X121865048Y-118878667D02*
X121388857Y-118878667D01*
X121960286Y-119164381D02*
X121626953Y-118164381D01*
X121293619Y-119164381D01*
X119769809Y-118497714D02*
X119769809Y-119164381D01*
X120007905Y-118116762D02*
X120246000Y-118831048D01*
X119626952Y-118831048D01*
X119246000Y-119069143D02*
X119198381Y-119116762D01*
X119246000Y-119164381D01*
X119293619Y-119116762D01*
X119246000Y-119069143D01*
X119246000Y-119164381D01*
X118579334Y-118164381D02*
X118484095Y-118164381D01*
X118388857Y-118212000D01*
X118341238Y-118259619D01*
X118293619Y-118354857D01*
X118246000Y-118545333D01*
X118246000Y-118783429D01*
X118293619Y-118973905D01*
X118341238Y-119069143D01*
X118388857Y-119116762D01*
X118484095Y-119164381D01*
X118579334Y-119164381D01*
X118674572Y-119116762D01*
X118722191Y-119069143D01*
X118769810Y-118973905D01*
X118817429Y-118783429D01*
X118817429Y-118545333D01*
X118769810Y-118354857D01*
X118722191Y-118259619D01*
X118674572Y-118212000D01*
X118579334Y-118164381D01*
X127371428Y-95252381D02*
X127704762Y-94776190D01*
X127942857Y-95252381D02*
X127942857Y-94252381D01*
X127561904Y-94252381D01*
X127466666Y-94300000D01*
X127419047Y-94347619D01*
X127371428Y-94442857D01*
X127371428Y-94585714D01*
X127419047Y-94680952D01*
X127466666Y-94728571D01*
X127561904Y-94776190D01*
X127942857Y-94776190D01*
X126609523Y-94728571D02*
X126942857Y-94728571D01*
X126942857Y-95252381D02*
X126942857Y-94252381D01*
X126466666Y-94252381D01*
X125323809Y-95252381D02*
X125323809Y-94252381D01*
X124752380Y-95252381D01*
X124752380Y-94252381D01*
X124085714Y-94252381D02*
X123895237Y-94252381D01*
X123799999Y-94300000D01*
X123704761Y-94395238D01*
X123657142Y-94585714D01*
X123657142Y-94919048D01*
X123704761Y-95109524D01*
X123799999Y-95204762D01*
X123895237Y-95252381D01*
X124085714Y-95252381D01*
X124180952Y-95204762D01*
X124276190Y-95109524D01*
X124323809Y-94919048D01*
X124323809Y-94585714D01*
X124276190Y-94395238D01*
X124180952Y-94300000D01*
X124085714Y-94252381D01*
X123228571Y-95252381D02*
X123228571Y-94252381D01*
X122800000Y-95204762D02*
X122657143Y-95252381D01*
X122419047Y-95252381D01*
X122323809Y-95204762D01*
X122276190Y-95157143D01*
X122228571Y-95061905D01*
X122228571Y-94966667D01*
X122276190Y-94871429D01*
X122323809Y-94823810D01*
X122419047Y-94776190D01*
X122609524Y-94728571D01*
X122704762Y-94680952D01*
X122752381Y-94633333D01*
X122800000Y-94538095D01*
X122800000Y-94442857D01*
X122752381Y-94347619D01*
X122704762Y-94300000D01*
X122609524Y-94252381D01*
X122371428Y-94252381D01*
X122228571Y-94300000D01*
X121800000Y-94728571D02*
X121466666Y-94728571D01*
X121323809Y-95252381D02*
X121800000Y-95252381D01*
X121800000Y-94252381D01*
X121323809Y-94252381D01*
X120180952Y-95204762D02*
X120038095Y-95252381D01*
X119799999Y-95252381D01*
X119704761Y-95204762D01*
X119657142Y-95157143D01*
X119609523Y-95061905D01*
X119609523Y-94966667D01*
X119657142Y-94871429D01*
X119704761Y-94823810D01*
X119799999Y-94776190D01*
X119990476Y-94728571D01*
X120085714Y-94680952D01*
X120133333Y-94633333D01*
X120180952Y-94538095D01*
X120180952Y-94442857D01*
X120133333Y-94347619D01*
X120085714Y-94300000D01*
X119990476Y-94252381D01*
X119752380Y-94252381D01*
X119609523Y-94300000D01*
X118990476Y-94252381D02*
X118799999Y-94252381D01*
X118704761Y-94300000D01*
X118609523Y-94395238D01*
X118561904Y-94585714D01*
X118561904Y-94919048D01*
X118609523Y-95109524D01*
X118704761Y-95204762D01*
X118799999Y-95252381D01*
X118990476Y-95252381D01*
X119085714Y-95204762D01*
X119180952Y-95109524D01*
X119228571Y-94919048D01*
X119228571Y-94585714D01*
X119180952Y-94395238D01*
X119085714Y-94300000D01*
X118990476Y-94252381D01*
X118133333Y-94252381D02*
X118133333Y-95061905D01*
X118085714Y-95157143D01*
X118038095Y-95204762D01*
X117942857Y-95252381D01*
X117752380Y-95252381D01*
X117657142Y-95204762D01*
X117609523Y-95157143D01*
X117561904Y-95061905D01*
X117561904Y-94252381D01*
X116514285Y-95252381D02*
X116847619Y-94776190D01*
X117085714Y-95252381D02*
X117085714Y-94252381D01*
X116704761Y-94252381D01*
X116609523Y-94300000D01*
X116561904Y-94347619D01*
X116514285Y-94442857D01*
X116514285Y-94585714D01*
X116561904Y-94680952D01*
X116609523Y-94728571D01*
X116704761Y-94776190D01*
X117085714Y-94776190D01*
X115514285Y-95157143D02*
X115561904Y-95204762D01*
X115704761Y-95252381D01*
X115799999Y-95252381D01*
X115942857Y-95204762D01*
X116038095Y-95109524D01*
X116085714Y-95014286D01*
X116133333Y-94823810D01*
X116133333Y-94680952D01*
X116085714Y-94490476D01*
X116038095Y-94395238D01*
X115942857Y-94300000D01*
X115799999Y-94252381D01*
X115704761Y-94252381D01*
X115561904Y-94300000D01*
X115514285Y-94347619D01*
X115085714Y-94728571D02*
X114752380Y-94728571D01*
X114609523Y-95252381D02*
X115085714Y-95252381D01*
X115085714Y-94252381D01*
X114609523Y-94252381D01*
X127942857Y-96378571D02*
X127800000Y-96426190D01*
X127752381Y-96473810D01*
X127704762Y-96569048D01*
X127704762Y-96711905D01*
X127752381Y-96807143D01*
X127800000Y-96854762D01*
X127895238Y-96902381D01*
X128276191Y-96902381D01*
X128276191Y-95902381D01*
X127942857Y-95902381D01*
X127847619Y-95950000D01*
X127800000Y-95997619D01*
X127752381Y-96092857D01*
X127752381Y-96188095D01*
X127800000Y-96283333D01*
X127847619Y-96330952D01*
X127942857Y-96378571D01*
X128276191Y-96378571D01*
X127085715Y-96426190D02*
X127085715Y-96902381D01*
X127419048Y-95902381D02*
X127085715Y-96426190D01*
X126752381Y-95902381D01*
X125657143Y-96902381D02*
X125657143Y-95902381D01*
X125419048Y-95902381D01*
X125276190Y-95950000D01*
X125180952Y-96045238D01*
X125133333Y-96140476D01*
X125085714Y-96330952D01*
X125085714Y-96473810D01*
X125133333Y-96664286D01*
X125180952Y-96759524D01*
X125276190Y-96854762D01*
X125419048Y-96902381D01*
X125657143Y-96902381D01*
X123895238Y-96902381D02*
X123895238Y-95902381D01*
X123561904Y-96616667D01*
X123228571Y-95902381D01*
X123228571Y-96902381D01*
X122800000Y-96616667D02*
X122323809Y-96616667D01*
X122895238Y-96902381D02*
X122561905Y-95902381D01*
X122228571Y-96902381D01*
X121323809Y-96902381D02*
X121657143Y-96426190D01*
X121895238Y-96902381D02*
X121895238Y-95902381D01*
X121514285Y-95902381D01*
X121419047Y-95950000D01*
X121371428Y-95997619D01*
X121323809Y-96092857D01*
X121323809Y-96235714D01*
X121371428Y-96330952D01*
X121419047Y-96378571D01*
X121514285Y-96426190D01*
X121895238Y-96426190D01*
X120895238Y-96902381D02*
X120895238Y-95902381D01*
X120323809Y-96902381D02*
X120752381Y-96330952D01*
X120323809Y-95902381D02*
X120895238Y-96473810D01*
X119942857Y-96854762D02*
X119800000Y-96902381D01*
X119561904Y-96902381D01*
X119466666Y-96854762D01*
X119419047Y-96807143D01*
X119371428Y-96711905D01*
X119371428Y-96616667D01*
X119419047Y-96521429D01*
X119466666Y-96473810D01*
X119561904Y-96426190D01*
X119752381Y-96378571D01*
X119847619Y-96330952D01*
X119895238Y-96283333D01*
X119942857Y-96188095D01*
X119942857Y-96092857D01*
X119895238Y-95997619D01*
X119847619Y-95950000D01*
X119752381Y-95902381D01*
X119514285Y-95902381D01*
X119371428Y-95950000D01*
X118180952Y-96902381D02*
X118180952Y-95902381D01*
X117609523Y-96902381D02*
X118038095Y-96330952D01*
X117609523Y-95902381D02*
X118180952Y-96473810D01*
X117276190Y-95902381D02*
X117038095Y-96902381D01*
X116847618Y-96188095D01*
X116657142Y-96902381D01*
X116419047Y-95902381D01*
X115609523Y-96235714D02*
X115609523Y-96902381D01*
X115847619Y-95854762D02*
X116085714Y-96569048D01*
X115466666Y-96569048D01*
X115228571Y-95902381D02*
X114657142Y-95902381D01*
X114942857Y-96902381D02*
X114942857Y-95902381D01*
X114323809Y-96902381D02*
X114323809Y-95902381D01*
X126133333Y-98457143D02*
X126180952Y-98504762D01*
X126323809Y-98552381D01*
X126419047Y-98552381D01*
X126561905Y-98504762D01*
X126657143Y-98409524D01*
X126704762Y-98314286D01*
X126752381Y-98123810D01*
X126752381Y-97980952D01*
X126704762Y-97790476D01*
X126657143Y-97695238D01*
X126561905Y-97600000D01*
X126419047Y-97552381D01*
X126323809Y-97552381D01*
X126180952Y-97600000D01*
X126133333Y-97647619D01*
X125133333Y-98457143D02*
X125180952Y-98504762D01*
X125323809Y-98552381D01*
X125419047Y-98552381D01*
X125561905Y-98504762D01*
X125657143Y-98409524D01*
X125704762Y-98314286D01*
X125752381Y-98123810D01*
X125752381Y-97980952D01*
X125704762Y-97790476D01*
X125657143Y-97695238D01*
X125561905Y-97600000D01*
X125419047Y-97552381D01*
X125323809Y-97552381D01*
X125180952Y-97600000D01*
X125133333Y-97647619D01*
X124704762Y-98171429D02*
X123942857Y-98171429D01*
X123133333Y-98028571D02*
X122990476Y-98076190D01*
X122942857Y-98123810D01*
X122895238Y-98219048D01*
X122895238Y-98361905D01*
X122942857Y-98457143D01*
X122990476Y-98504762D01*
X123085714Y-98552381D01*
X123466667Y-98552381D01*
X123466667Y-97552381D01*
X123133333Y-97552381D01*
X123038095Y-97600000D01*
X122990476Y-97647619D01*
X122942857Y-97742857D01*
X122942857Y-97838095D01*
X122990476Y-97933333D01*
X123038095Y-97980952D01*
X123133333Y-98028571D01*
X123466667Y-98028571D01*
X122276191Y-98076190D02*
X122276191Y-98552381D01*
X122609524Y-97552381D02*
X122276191Y-98076190D01*
X121942857Y-97552381D01*
X121609524Y-98171429D02*
X120847619Y-98171429D01*
X120419048Y-98504762D02*
X120276191Y-98552381D01*
X120038095Y-98552381D01*
X119942857Y-98504762D01*
X119895238Y-98457143D01*
X119847619Y-98361905D01*
X119847619Y-98266667D01*
X119895238Y-98171429D01*
X119942857Y-98123810D01*
X120038095Y-98076190D01*
X120228572Y-98028571D01*
X120323810Y-97980952D01*
X120371429Y-97933333D01*
X120419048Y-97838095D01*
X120419048Y-97742857D01*
X120371429Y-97647619D01*
X120323810Y-97600000D01*
X120228572Y-97552381D01*
X119990476Y-97552381D01*
X119847619Y-97600000D01*
X119466667Y-98266667D02*
X118990476Y-98266667D01*
X119561905Y-98552381D02*
X119228572Y-97552381D01*
X118895238Y-98552381D01*
X117371428Y-97885714D02*
X117371428Y-98552381D01*
X117609524Y-97504762D02*
X117847619Y-98219048D01*
X117228571Y-98219048D01*
X116847619Y-98457143D02*
X116800000Y-98504762D01*
X116847619Y-98552381D01*
X116895238Y-98504762D01*
X116847619Y-98457143D01*
X116847619Y-98552381D01*
X116180953Y-97552381D02*
X116085714Y-97552381D01*
X115990476Y-97600000D01*
X115942857Y-97647619D01*
X115895238Y-97742857D01*
X115847619Y-97933333D01*
X115847619Y-98171429D01*
X115895238Y-98361905D01*
X115942857Y-98457143D01*
X115990476Y-98504762D01*
X116085714Y-98552381D01*
X116180953Y-98552381D01*
X116276191Y-98504762D01*
X116323810Y-98457143D01*
X116371429Y-98361905D01*
X116419048Y-98171429D01*
X116419048Y-97933333D01*
X116371429Y-97742857D01*
X116323810Y-97647619D01*
X116276191Y-97600000D01*
X116180953Y-97552381D01*
X136960762Y-39378667D02*
X136484571Y-39378667D01*
X137056000Y-39664381D02*
X136722667Y-38664381D01*
X136389333Y-39664381D01*
X135484571Y-39569143D02*
X135532190Y-39616762D01*
X135675047Y-39664381D01*
X135770285Y-39664381D01*
X135913143Y-39616762D01*
X136008381Y-39521524D01*
X136056000Y-39426286D01*
X136103619Y-39235810D01*
X136103619Y-39092952D01*
X136056000Y-38902476D01*
X136008381Y-38807238D01*
X135913143Y-38712000D01*
X135770285Y-38664381D01*
X135675047Y-38664381D01*
X135532190Y-38712000D01*
X135484571Y-38759619D01*
X135198857Y-38664381D02*
X134627428Y-38664381D01*
X134913143Y-39664381D02*
X134913143Y-38664381D01*
X134294095Y-39664381D02*
X134294095Y-38664381D01*
X133960762Y-38664381D02*
X133627429Y-39664381D01*
X133294095Y-38664381D01*
X132960762Y-39140571D02*
X132627428Y-39140571D01*
X132484571Y-39664381D02*
X132960762Y-39664381D01*
X132960762Y-38664381D01*
X132484571Y-38664381D01*
X130722666Y-39664381D02*
X131056000Y-39188190D01*
X131294095Y-39664381D02*
X131294095Y-38664381D01*
X130913142Y-38664381D01*
X130817904Y-38712000D01*
X130770285Y-38759619D01*
X130722666Y-38854857D01*
X130722666Y-38997714D01*
X130770285Y-39092952D01*
X130817904Y-39140571D01*
X130913142Y-39188190D01*
X131294095Y-39188190D01*
X129960761Y-39140571D02*
X130294095Y-39140571D01*
X130294095Y-39664381D02*
X130294095Y-38664381D01*
X129817904Y-38664381D01*
X128675047Y-39664381D02*
X128675047Y-38664381D01*
X128294094Y-38664381D01*
X128198856Y-38712000D01*
X128151237Y-38759619D01*
X128103618Y-38854857D01*
X128103618Y-38997714D01*
X128151237Y-39092952D01*
X128198856Y-39140571D01*
X128294094Y-39188190D01*
X128675047Y-39188190D01*
X127103618Y-39664381D02*
X127436952Y-39188190D01*
X127675047Y-39664381D02*
X127675047Y-38664381D01*
X127294094Y-38664381D01*
X127198856Y-38712000D01*
X127151237Y-38759619D01*
X127103618Y-38854857D01*
X127103618Y-38997714D01*
X127151237Y-39092952D01*
X127198856Y-39140571D01*
X127294094Y-39188190D01*
X127675047Y-39188190D01*
X126484571Y-38664381D02*
X126294094Y-38664381D01*
X126198856Y-38712000D01*
X126103618Y-38807238D01*
X126055999Y-38997714D01*
X126055999Y-39331048D01*
X126103618Y-39521524D01*
X126198856Y-39616762D01*
X126294094Y-39664381D01*
X126484571Y-39664381D01*
X126579809Y-39616762D01*
X126675047Y-39521524D01*
X126722666Y-39331048D01*
X126722666Y-38997714D01*
X126675047Y-38807238D01*
X126579809Y-38712000D01*
X126484571Y-38664381D01*
X125294094Y-39140571D02*
X125151237Y-39188190D01*
X125103618Y-39235810D01*
X125055999Y-39331048D01*
X125055999Y-39473905D01*
X125103618Y-39569143D01*
X125151237Y-39616762D01*
X125246475Y-39664381D01*
X125627428Y-39664381D01*
X125627428Y-38664381D01*
X125294094Y-38664381D01*
X125198856Y-38712000D01*
X125151237Y-38759619D01*
X125103618Y-38854857D01*
X125103618Y-38950095D01*
X125151237Y-39045333D01*
X125198856Y-39092952D01*
X125294094Y-39140571D01*
X125627428Y-39140571D01*
X124627428Y-39140571D02*
X124294094Y-39140571D01*
X124151237Y-39664381D02*
X124627428Y-39664381D01*
X124627428Y-38664381D01*
X124151237Y-38664381D01*
X137198857Y-40790571D02*
X137056000Y-40838190D01*
X137008381Y-40885810D01*
X136960762Y-40981048D01*
X136960762Y-41123905D01*
X137008381Y-41219143D01*
X137056000Y-41266762D01*
X137151238Y-41314381D01*
X137532191Y-41314381D01*
X137532191Y-40314381D01*
X137198857Y-40314381D01*
X137103619Y-40362000D01*
X137056000Y-40409619D01*
X137008381Y-40504857D01*
X137008381Y-40600095D01*
X137056000Y-40695333D01*
X137103619Y-40742952D01*
X137198857Y-40790571D01*
X137532191Y-40790571D01*
X136341715Y-40838190D02*
X136341715Y-41314381D01*
X136675048Y-40314381D02*
X136341715Y-40838190D01*
X136008381Y-40314381D01*
X134913143Y-41314381D02*
X134913143Y-40314381D01*
X134675048Y-40314381D01*
X134532190Y-40362000D01*
X134436952Y-40457238D01*
X134389333Y-40552476D01*
X134341714Y-40742952D01*
X134341714Y-40885810D01*
X134389333Y-41076286D01*
X134436952Y-41171524D01*
X134532190Y-41266762D01*
X134675048Y-41314381D01*
X134913143Y-41314381D01*
X133151238Y-41314381D02*
X133151238Y-40314381D01*
X132817904Y-41028667D01*
X132484571Y-40314381D01*
X132484571Y-41314381D01*
X132056000Y-41028667D02*
X131579809Y-41028667D01*
X132151238Y-41314381D02*
X131817905Y-40314381D01*
X131484571Y-41314381D01*
X130579809Y-41314381D02*
X130913143Y-40838190D01*
X131151238Y-41314381D02*
X131151238Y-40314381D01*
X130770285Y-40314381D01*
X130675047Y-40362000D01*
X130627428Y-40409619D01*
X130579809Y-40504857D01*
X130579809Y-40647714D01*
X130627428Y-40742952D01*
X130675047Y-40790571D01*
X130770285Y-40838190D01*
X131151238Y-40838190D01*
X130151238Y-41314381D02*
X130151238Y-40314381D01*
X129579809Y-41314381D02*
X130008381Y-40742952D01*
X129579809Y-40314381D02*
X130151238Y-40885810D01*
X129198857Y-41266762D02*
X129056000Y-41314381D01*
X128817904Y-41314381D01*
X128722666Y-41266762D01*
X128675047Y-41219143D01*
X128627428Y-41123905D01*
X128627428Y-41028667D01*
X128675047Y-40933429D01*
X128722666Y-40885810D01*
X128817904Y-40838190D01*
X129008381Y-40790571D01*
X129103619Y-40742952D01*
X129151238Y-40695333D01*
X129198857Y-40600095D01*
X129198857Y-40504857D01*
X129151238Y-40409619D01*
X129103619Y-40362000D01*
X129008381Y-40314381D01*
X128770285Y-40314381D01*
X128627428Y-40362000D01*
X127436952Y-41314381D02*
X127436952Y-40314381D01*
X126865523Y-41314381D02*
X127294095Y-40742952D01*
X126865523Y-40314381D02*
X127436952Y-40885810D01*
X126532190Y-40314381D02*
X126294095Y-41314381D01*
X126103618Y-40600095D01*
X125913142Y-41314381D01*
X125675047Y-40314381D01*
X124865523Y-40647714D02*
X124865523Y-41314381D01*
X125103619Y-40266762D02*
X125341714Y-40981048D01*
X124722666Y-40981048D01*
X124484571Y-40314381D02*
X123913142Y-40314381D01*
X124198857Y-41314381D02*
X124198857Y-40314381D01*
X123579809Y-41314381D02*
X123579809Y-40314381D01*
X135389333Y-42869143D02*
X135436952Y-42916762D01*
X135579809Y-42964381D01*
X135675047Y-42964381D01*
X135817905Y-42916762D01*
X135913143Y-42821524D01*
X135960762Y-42726286D01*
X136008381Y-42535810D01*
X136008381Y-42392952D01*
X135960762Y-42202476D01*
X135913143Y-42107238D01*
X135817905Y-42012000D01*
X135675047Y-41964381D01*
X135579809Y-41964381D01*
X135436952Y-42012000D01*
X135389333Y-42059619D01*
X134389333Y-42869143D02*
X134436952Y-42916762D01*
X134579809Y-42964381D01*
X134675047Y-42964381D01*
X134817905Y-42916762D01*
X134913143Y-42821524D01*
X134960762Y-42726286D01*
X135008381Y-42535810D01*
X135008381Y-42392952D01*
X134960762Y-42202476D01*
X134913143Y-42107238D01*
X134817905Y-42012000D01*
X134675047Y-41964381D01*
X134579809Y-41964381D01*
X134436952Y-42012000D01*
X134389333Y-42059619D01*
X133960762Y-42583429D02*
X133198857Y-42583429D01*
X132389333Y-42440571D02*
X132246476Y-42488190D01*
X132198857Y-42535810D01*
X132151238Y-42631048D01*
X132151238Y-42773905D01*
X132198857Y-42869143D01*
X132246476Y-42916762D01*
X132341714Y-42964381D01*
X132722667Y-42964381D01*
X132722667Y-41964381D01*
X132389333Y-41964381D01*
X132294095Y-42012000D01*
X132246476Y-42059619D01*
X132198857Y-42154857D01*
X132198857Y-42250095D01*
X132246476Y-42345333D01*
X132294095Y-42392952D01*
X132389333Y-42440571D01*
X132722667Y-42440571D01*
X131532191Y-42488190D02*
X131532191Y-42964381D01*
X131865524Y-41964381D02*
X131532191Y-42488190D01*
X131198857Y-41964381D01*
X130865524Y-42583429D02*
X130103619Y-42583429D01*
X129675048Y-42916762D02*
X129532191Y-42964381D01*
X129294095Y-42964381D01*
X129198857Y-42916762D01*
X129151238Y-42869143D01*
X129103619Y-42773905D01*
X129103619Y-42678667D01*
X129151238Y-42583429D01*
X129198857Y-42535810D01*
X129294095Y-42488190D01*
X129484572Y-42440571D01*
X129579810Y-42392952D01*
X129627429Y-42345333D01*
X129675048Y-42250095D01*
X129675048Y-42154857D01*
X129627429Y-42059619D01*
X129579810Y-42012000D01*
X129484572Y-41964381D01*
X129246476Y-41964381D01*
X129103619Y-42012000D01*
X128722667Y-42678667D02*
X128246476Y-42678667D01*
X128817905Y-42964381D02*
X128484572Y-41964381D01*
X128151238Y-42964381D01*
X126627428Y-42297714D02*
X126627428Y-42964381D01*
X126865524Y-41916762D02*
X127103619Y-42631048D01*
X126484571Y-42631048D01*
X126103619Y-42869143D02*
X126056000Y-42916762D01*
X126103619Y-42964381D01*
X126151238Y-42916762D01*
X126103619Y-42869143D01*
X126103619Y-42964381D01*
X125436953Y-41964381D02*
X125341714Y-41964381D01*
X125246476Y-42012000D01*
X125198857Y-42059619D01*
X125151238Y-42154857D01*
X125103619Y-42345333D01*
X125103619Y-42583429D01*
X125151238Y-42773905D01*
X125198857Y-42869143D01*
X125246476Y-42916762D01*
X125341714Y-42964381D01*
X125436953Y-42964381D01*
X125532191Y-42916762D01*
X125579810Y-42869143D01*
X125627429Y-42773905D01*
X125675048Y-42583429D01*
X125675048Y-42345333D01*
X125627429Y-42154857D01*
X125579810Y-42059619D01*
X125532191Y-42012000D01*
X125436953Y-41964381D01*
X109519047Y-41552381D02*
X109852381Y-41076190D01*
X110090476Y-41552381D02*
X110090476Y-40552381D01*
X109709523Y-40552381D01*
X109614285Y-40600000D01*
X109566666Y-40647619D01*
X109519047Y-40742857D01*
X109519047Y-40885714D01*
X109566666Y-40980952D01*
X109614285Y-41028571D01*
X109709523Y-41076190D01*
X110090476Y-41076190D01*
X108757142Y-41028571D02*
X109090476Y-41028571D01*
X109090476Y-41552381D02*
X109090476Y-40552381D01*
X108614285Y-40552381D01*
X109561904Y-33400000D02*
X109657142Y-33352381D01*
X109799999Y-33352381D01*
X109942857Y-33400000D01*
X110038095Y-33495238D01*
X110085714Y-33590476D01*
X110133333Y-33780952D01*
X110133333Y-33923810D01*
X110085714Y-34114286D01*
X110038095Y-34209524D01*
X109942857Y-34304762D01*
X109799999Y-34352381D01*
X109704761Y-34352381D01*
X109561904Y-34304762D01*
X109514285Y-34257143D01*
X109514285Y-33923810D01*
X109704761Y-33923810D01*
X109085714Y-34352381D02*
X109085714Y-33352381D01*
X108514285Y-34352381D01*
X108514285Y-33352381D01*
X108038095Y-34352381D02*
X108038095Y-33352381D01*
X107800000Y-33352381D01*
X107657142Y-33400000D01*
X107561904Y-33495238D01*
X107514285Y-33590476D01*
X107466666Y-33780952D01*
X107466666Y-33923810D01*
X107514285Y-34114286D01*
X107561904Y-34209524D01*
X107657142Y-34304762D01*
X107800000Y-34352381D01*
X108038095Y-34352381D01*
X109261904Y-128800000D02*
X109357142Y-128752381D01*
X109499999Y-128752381D01*
X109642857Y-128800000D01*
X109738095Y-128895238D01*
X109785714Y-128990476D01*
X109833333Y-129180952D01*
X109833333Y-129323810D01*
X109785714Y-129514286D01*
X109738095Y-129609524D01*
X109642857Y-129704762D01*
X109499999Y-129752381D01*
X109404761Y-129752381D01*
X109261904Y-129704762D01*
X109214285Y-129657143D01*
X109214285Y-129323810D01*
X109404761Y-129323810D01*
X108785714Y-129752381D02*
X108785714Y-128752381D01*
X108214285Y-129752381D01*
X108214285Y-128752381D01*
X107738095Y-129752381D02*
X107738095Y-128752381D01*
X107500000Y-128752381D01*
X107357142Y-128800000D01*
X107261904Y-128895238D01*
X107214285Y-128990476D01*
X107166666Y-129180952D01*
X107166666Y-129323810D01*
X107214285Y-129514286D01*
X107261904Y-129609524D01*
X107357142Y-129704762D01*
X107500000Y-129752381D01*
X107738095Y-129752381D01*
X109161904Y-118200000D02*
X109257142Y-118152381D01*
X109399999Y-118152381D01*
X109542857Y-118200000D01*
X109638095Y-118295238D01*
X109685714Y-118390476D01*
X109733333Y-118580952D01*
X109733333Y-118723810D01*
X109685714Y-118914286D01*
X109638095Y-119009524D01*
X109542857Y-119104762D01*
X109399999Y-119152381D01*
X109304761Y-119152381D01*
X109161904Y-119104762D01*
X109114285Y-119057143D01*
X109114285Y-118723810D01*
X109304761Y-118723810D01*
X108685714Y-119152381D02*
X108685714Y-118152381D01*
X108114285Y-119152381D01*
X108114285Y-118152381D01*
X107638095Y-119152381D02*
X107638095Y-118152381D01*
X107400000Y-118152381D01*
X107257142Y-118200000D01*
X107161904Y-118295238D01*
X107114285Y-118390476D01*
X107066666Y-118580952D01*
X107066666Y-118723810D01*
X107114285Y-118914286D01*
X107161904Y-119009524D01*
X107257142Y-119104762D01*
X107400000Y-119152381D01*
X107638095Y-119152381D01*
X108619047Y-124752381D02*
X108952381Y-124276190D01*
X109190476Y-124752381D02*
X109190476Y-123752381D01*
X108809523Y-123752381D01*
X108714285Y-123800000D01*
X108666666Y-123847619D01*
X108619047Y-123942857D01*
X108619047Y-124085714D01*
X108666666Y-124180952D01*
X108714285Y-124228571D01*
X108809523Y-124276190D01*
X109190476Y-124276190D01*
X107857142Y-124228571D02*
X108190476Y-124228571D01*
X108190476Y-124752381D02*
X108190476Y-123752381D01*
X107714285Y-123752381D01*
X108519047Y-114052381D02*
X108852381Y-113576190D01*
X109090476Y-114052381D02*
X109090476Y-113052381D01*
X108709523Y-113052381D01*
X108614285Y-113100000D01*
X108566666Y-113147619D01*
X108519047Y-113242857D01*
X108519047Y-113385714D01*
X108566666Y-113480952D01*
X108614285Y-113528571D01*
X108709523Y-113576190D01*
X109090476Y-113576190D01*
X107757142Y-113528571D02*
X108090476Y-113528571D01*
X108090476Y-114052381D02*
X108090476Y-113052381D01*
X107614285Y-113052381D01*
X143016667Y-110452381D02*
X143016667Y-110928572D01*
X143302381Y-110357143D02*
X142302381Y-110690476D01*
X143302381Y-111023810D01*
X143207143Y-111928572D02*
X143254762Y-111880953D01*
X143302381Y-111738096D01*
X143302381Y-111642858D01*
X143254762Y-111500000D01*
X143159524Y-111404762D01*
X143064286Y-111357143D01*
X142873810Y-111309524D01*
X142730952Y-111309524D01*
X142540476Y-111357143D01*
X142445238Y-111404762D01*
X142350000Y-111500000D01*
X142302381Y-111642858D01*
X142302381Y-111738096D01*
X142350000Y-111880953D01*
X142397619Y-111928572D01*
X142302381Y-112214286D02*
X142302381Y-112785715D01*
X143302381Y-112500000D02*
X142302381Y-112500000D01*
X143302381Y-113119048D02*
X142302381Y-113119048D01*
X142302381Y-113452381D02*
X143302381Y-113785714D01*
X142302381Y-114119048D01*
X142778571Y-114452381D02*
X142778571Y-114785715D01*
X143302381Y-114928572D02*
X143302381Y-114452381D01*
X142302381Y-114452381D01*
X142302381Y-114928572D01*
X143302381Y-116690477D02*
X142826190Y-116357143D01*
X143302381Y-116119048D02*
X142302381Y-116119048D01*
X142302381Y-116500001D01*
X142350000Y-116595239D01*
X142397619Y-116642858D01*
X142492857Y-116690477D01*
X142635714Y-116690477D01*
X142730952Y-116642858D01*
X142778571Y-116595239D01*
X142826190Y-116500001D01*
X142826190Y-116119048D01*
X142778571Y-117452382D02*
X142778571Y-117119048D01*
X143302381Y-117119048D02*
X142302381Y-117119048D01*
X142302381Y-117595239D01*
X144952381Y-109261905D02*
X143952381Y-109261905D01*
X143952381Y-109500000D01*
X144000000Y-109642858D01*
X144095238Y-109738096D01*
X144190476Y-109785715D01*
X144380952Y-109833334D01*
X144523810Y-109833334D01*
X144714286Y-109785715D01*
X144809524Y-109738096D01*
X144904762Y-109642858D01*
X144952381Y-109500000D01*
X144952381Y-109261905D01*
X144952381Y-110261905D02*
X143952381Y-110261905D01*
X144428571Y-111071429D02*
X144428571Y-110738095D01*
X144952381Y-110738095D02*
X143952381Y-110738095D01*
X143952381Y-111214286D01*
X144428571Y-111928572D02*
X144428571Y-111595238D01*
X144952381Y-111595238D02*
X143952381Y-111595238D01*
X143952381Y-112071429D01*
X144428571Y-112452381D02*
X144428571Y-112785715D01*
X144952381Y-112928572D02*
X144952381Y-112452381D01*
X143952381Y-112452381D01*
X143952381Y-112928572D01*
X144952381Y-113928572D02*
X144476190Y-113595238D01*
X144952381Y-113357143D02*
X143952381Y-113357143D01*
X143952381Y-113738096D01*
X144000000Y-113833334D01*
X144047619Y-113880953D01*
X144142857Y-113928572D01*
X144285714Y-113928572D01*
X144380952Y-113880953D01*
X144428571Y-113833334D01*
X144476190Y-113738096D01*
X144476190Y-113357143D01*
X144428571Y-114357143D02*
X144428571Y-114690477D01*
X144952381Y-114833334D02*
X144952381Y-114357143D01*
X143952381Y-114357143D01*
X143952381Y-114833334D01*
X144952381Y-115261905D02*
X143952381Y-115261905D01*
X144952381Y-115833334D01*
X143952381Y-115833334D01*
X143952381Y-116166667D02*
X143952381Y-116738096D01*
X144952381Y-116452381D02*
X143952381Y-116452381D01*
X144952381Y-117071429D02*
X143952381Y-117071429D01*
X144666667Y-117500000D02*
X144666667Y-117976191D01*
X144952381Y-117404762D02*
X143952381Y-117738095D01*
X144952381Y-118071429D01*
X144952381Y-118880953D02*
X144952381Y-118404762D01*
X143952381Y-118404762D01*
X146602381Y-111761905D02*
X145602381Y-111761905D01*
X145602381Y-112142858D01*
X145650000Y-112238096D01*
X145697619Y-112285715D01*
X145792857Y-112333334D01*
X145935714Y-112333334D01*
X146030952Y-112285715D01*
X146078571Y-112238096D01*
X146126190Y-112142858D01*
X146126190Y-111761905D01*
X146602381Y-113333334D02*
X146126190Y-113000000D01*
X146602381Y-112761905D02*
X145602381Y-112761905D01*
X145602381Y-113142858D01*
X145650000Y-113238096D01*
X145697619Y-113285715D01*
X145792857Y-113333334D01*
X145935714Y-113333334D01*
X146030952Y-113285715D01*
X146078571Y-113238096D01*
X146126190Y-113142858D01*
X146126190Y-112761905D01*
X145602381Y-113952381D02*
X145602381Y-114142858D01*
X145650000Y-114238096D01*
X145745238Y-114333334D01*
X145935714Y-114380953D01*
X146269048Y-114380953D01*
X146459524Y-114333334D01*
X146554762Y-114238096D01*
X146602381Y-114142858D01*
X146602381Y-113952381D01*
X146554762Y-113857143D01*
X146459524Y-113761905D01*
X146269048Y-113714286D01*
X145935714Y-113714286D01*
X145745238Y-113761905D01*
X145650000Y-113857143D01*
X145602381Y-113952381D01*
X146078571Y-115142858D02*
X146126190Y-115285715D01*
X146173810Y-115333334D01*
X146269048Y-115380953D01*
X146411905Y-115380953D01*
X146507143Y-115333334D01*
X146554762Y-115285715D01*
X146602381Y-115190477D01*
X146602381Y-114809524D01*
X145602381Y-114809524D01*
X145602381Y-115142858D01*
X145650000Y-115238096D01*
X145697619Y-115285715D01*
X145792857Y-115333334D01*
X145888095Y-115333334D01*
X145983333Y-115285715D01*
X146030952Y-115238096D01*
X146078571Y-115142858D01*
X146078571Y-114809524D01*
X146078571Y-115809524D02*
X146078571Y-116142858D01*
X146602381Y-116285715D02*
X146602381Y-115809524D01*
X145602381Y-115809524D01*
X145602381Y-116285715D01*
X139629762Y-89761905D02*
X139677381Y-89904762D01*
X139677381Y-90142858D01*
X139629762Y-90238096D01*
X139582143Y-90285715D01*
X139486905Y-90333334D01*
X139391667Y-90333334D01*
X139296429Y-90285715D01*
X139248810Y-90238096D01*
X139201190Y-90142858D01*
X139153571Y-89952381D01*
X139105952Y-89857143D01*
X139058333Y-89809524D01*
X138963095Y-89761905D01*
X138867857Y-89761905D01*
X138772619Y-89809524D01*
X138725000Y-89857143D01*
X138677381Y-89952381D01*
X138677381Y-90190477D01*
X138725000Y-90333334D01*
X139677381Y-90761905D02*
X138677381Y-90761905D01*
X139153571Y-90761905D02*
X139153571Y-91333334D01*
X139677381Y-91333334D02*
X138677381Y-91333334D01*
X138677381Y-91809524D02*
X139486905Y-91809524D01*
X139582143Y-91857143D01*
X139629762Y-91904762D01*
X139677381Y-92000000D01*
X139677381Y-92190477D01*
X139629762Y-92285715D01*
X139582143Y-92333334D01*
X139486905Y-92380953D01*
X138677381Y-92380953D01*
X139677381Y-92857143D02*
X138677381Y-92857143D01*
X139677381Y-93428572D01*
X138677381Y-93428572D01*
X138677381Y-93761905D02*
X138677381Y-94333334D01*
X139677381Y-94047619D02*
X138677381Y-94047619D01*
X141041667Y-88428572D02*
X141041667Y-88904763D01*
X141327381Y-88333334D02*
X140327381Y-88666667D01*
X141327381Y-89000001D01*
X141327381Y-89333334D02*
X140327381Y-89333334D01*
X141041667Y-89666668D01*
X140327381Y-90000001D01*
X141327381Y-90000001D01*
X141327381Y-90476191D02*
X140327381Y-90476191D01*
X140327381Y-90857144D01*
X140375000Y-90952382D01*
X140422619Y-91000001D01*
X140517857Y-91047620D01*
X140660714Y-91047620D01*
X140755952Y-91000001D01*
X140803571Y-90952382D01*
X140851190Y-90857144D01*
X140851190Y-90476191D01*
X141327381Y-91952382D02*
X141327381Y-91476191D01*
X140327381Y-91476191D01*
X141327381Y-92285715D02*
X140327381Y-92285715D01*
X140803571Y-93095239D02*
X140803571Y-92761905D01*
X141327381Y-92761905D02*
X140327381Y-92761905D01*
X140327381Y-93238096D01*
X141327381Y-93619048D02*
X140327381Y-93619048D01*
X140803571Y-94095238D02*
X140803571Y-94428572D01*
X141327381Y-94571429D02*
X141327381Y-94095238D01*
X140327381Y-94095238D01*
X140327381Y-94571429D01*
X141327381Y-95000000D02*
X140327381Y-95000000D01*
X140327381Y-95238095D01*
X140375000Y-95380953D01*
X140470238Y-95476191D01*
X140565476Y-95523810D01*
X140755952Y-95571429D01*
X140898810Y-95571429D01*
X141089286Y-95523810D01*
X141184524Y-95476191D01*
X141279762Y-95380953D01*
X141327381Y-95238095D01*
X141327381Y-95000000D01*
X142977381Y-90023810D02*
X141977381Y-90023810D01*
X142977381Y-90595239D01*
X141977381Y-90595239D01*
X141977381Y-91261905D02*
X141977381Y-91452382D01*
X142025000Y-91547620D01*
X142120238Y-91642858D01*
X142310714Y-91690477D01*
X142644048Y-91690477D01*
X142834524Y-91642858D01*
X142929762Y-91547620D01*
X142977381Y-91452382D01*
X142977381Y-91261905D01*
X142929762Y-91166667D01*
X142834524Y-91071429D01*
X142644048Y-91023810D01*
X142310714Y-91023810D01*
X142120238Y-91071429D01*
X142025000Y-91166667D01*
X141977381Y-91261905D01*
X142977381Y-92119048D02*
X141977381Y-92119048D01*
X142929762Y-92547619D02*
X142977381Y-92690476D01*
X142977381Y-92928572D01*
X142929762Y-93023810D01*
X142882143Y-93071429D01*
X142786905Y-93119048D01*
X142691667Y-93119048D01*
X142596429Y-93071429D01*
X142548810Y-93023810D01*
X142501190Y-92928572D01*
X142453571Y-92738095D01*
X142405952Y-92642857D01*
X142358333Y-92595238D01*
X142263095Y-92547619D01*
X142167857Y-92547619D01*
X142072619Y-92595238D01*
X142025000Y-92642857D01*
X141977381Y-92738095D01*
X141977381Y-92976191D01*
X142025000Y-93119048D01*
X142453571Y-93547619D02*
X142453571Y-93880953D01*
X142977381Y-94023810D02*
X142977381Y-93547619D01*
X141977381Y-93547619D01*
X141977381Y-94023810D01*
X144579762Y-89214286D02*
X144627381Y-89357143D01*
X144627381Y-89595239D01*
X144579762Y-89690477D01*
X144532143Y-89738096D01*
X144436905Y-89785715D01*
X144341667Y-89785715D01*
X144246429Y-89738096D01*
X144198810Y-89690477D01*
X144151190Y-89595239D01*
X144103571Y-89404762D01*
X144055952Y-89309524D01*
X144008333Y-89261905D01*
X143913095Y-89214286D01*
X143817857Y-89214286D01*
X143722619Y-89261905D01*
X143675000Y-89309524D01*
X143627381Y-89404762D01*
X143627381Y-89642858D01*
X143675000Y-89785715D01*
X143627381Y-90404762D02*
X143627381Y-90595239D01*
X143675000Y-90690477D01*
X143770238Y-90785715D01*
X143960714Y-90833334D01*
X144294048Y-90833334D01*
X144484524Y-90785715D01*
X144579762Y-90690477D01*
X144627381Y-90595239D01*
X144627381Y-90404762D01*
X144579762Y-90309524D01*
X144484524Y-90214286D01*
X144294048Y-90166667D01*
X143960714Y-90166667D01*
X143770238Y-90214286D01*
X143675000Y-90309524D01*
X143627381Y-90404762D01*
X143627381Y-91261905D02*
X144436905Y-91261905D01*
X144532143Y-91309524D01*
X144579762Y-91357143D01*
X144627381Y-91452381D01*
X144627381Y-91642858D01*
X144579762Y-91738096D01*
X144532143Y-91785715D01*
X144436905Y-91833334D01*
X143627381Y-91833334D01*
X144627381Y-92880953D02*
X144151190Y-92547619D01*
X144627381Y-92309524D02*
X143627381Y-92309524D01*
X143627381Y-92690477D01*
X143675000Y-92785715D01*
X143722619Y-92833334D01*
X143817857Y-92880953D01*
X143960714Y-92880953D01*
X144055952Y-92833334D01*
X144103571Y-92785715D01*
X144151190Y-92690477D01*
X144151190Y-92309524D01*
X144532143Y-93880953D02*
X144579762Y-93833334D01*
X144627381Y-93690477D01*
X144627381Y-93595239D01*
X144579762Y-93452381D01*
X144484524Y-93357143D01*
X144389286Y-93309524D01*
X144198810Y-93261905D01*
X144055952Y-93261905D01*
X143865476Y-93309524D01*
X143770238Y-93357143D01*
X143675000Y-93452381D01*
X143627381Y-93595239D01*
X143627381Y-93690477D01*
X143675000Y-93833334D01*
X143722619Y-93880953D01*
X144103571Y-94309524D02*
X144103571Y-94642858D01*
X144627381Y-94785715D02*
X144627381Y-94309524D01*
X143627381Y-94309524D01*
X143627381Y-94785715D01*
X139629762Y-73795238D02*
X139677381Y-73938095D01*
X139677381Y-74176191D01*
X139629762Y-74271429D01*
X139582143Y-74319048D01*
X139486905Y-74366667D01*
X139391667Y-74366667D01*
X139296429Y-74319048D01*
X139248810Y-74271429D01*
X139201190Y-74176191D01*
X139153571Y-73985714D01*
X139105952Y-73890476D01*
X139058333Y-73842857D01*
X138963095Y-73795238D01*
X138867857Y-73795238D01*
X138772619Y-73842857D01*
X138725000Y-73890476D01*
X138677381Y-73985714D01*
X138677381Y-74223810D01*
X138725000Y-74366667D01*
X139153571Y-74795238D02*
X139153571Y-75128572D01*
X139677381Y-75271429D02*
X139677381Y-74795238D01*
X138677381Y-74795238D01*
X138677381Y-75271429D01*
X139677381Y-76271429D02*
X139201190Y-75938095D01*
X139677381Y-75700000D02*
X138677381Y-75700000D01*
X138677381Y-76080953D01*
X138725000Y-76176191D01*
X138772619Y-76223810D01*
X138867857Y-76271429D01*
X139010714Y-76271429D01*
X139105952Y-76223810D01*
X139153571Y-76176191D01*
X139201190Y-76080953D01*
X139201190Y-75700000D01*
X139677381Y-76700000D02*
X138677381Y-76700000D01*
X139153571Y-77176190D02*
X139153571Y-77509524D01*
X139677381Y-77652381D02*
X139677381Y-77176190D01*
X138677381Y-77176190D01*
X138677381Y-77652381D01*
X139629762Y-78033333D02*
X139677381Y-78176190D01*
X139677381Y-78414286D01*
X139629762Y-78509524D01*
X139582143Y-78557143D01*
X139486905Y-78604762D01*
X139391667Y-78604762D01*
X139296429Y-78557143D01*
X139248810Y-78509524D01*
X139201190Y-78414286D01*
X139153571Y-78223809D01*
X139105952Y-78128571D01*
X139058333Y-78080952D01*
X138963095Y-78033333D01*
X138867857Y-78033333D01*
X138772619Y-78080952D01*
X138725000Y-78128571D01*
X138677381Y-78223809D01*
X138677381Y-78461905D01*
X138725000Y-78604762D01*
X140327381Y-71628572D02*
X141136905Y-71628572D01*
X141232143Y-71676191D01*
X141279762Y-71723810D01*
X141327381Y-71819048D01*
X141327381Y-72009525D01*
X141279762Y-72104763D01*
X141232143Y-72152382D01*
X141136905Y-72200001D01*
X140327381Y-72200001D01*
X141327381Y-72676191D02*
X140327381Y-72676191D01*
X141327381Y-73247620D01*
X140327381Y-73247620D01*
X141041667Y-73676191D02*
X141041667Y-74152382D01*
X141327381Y-73580953D02*
X140327381Y-73914286D01*
X141327381Y-74247620D01*
X141327381Y-74580953D02*
X140327381Y-74580953D01*
X141041667Y-74914287D01*
X140327381Y-75247620D01*
X141327381Y-75247620D01*
X141327381Y-75723810D02*
X140327381Y-75723810D01*
X140327381Y-76104763D01*
X140375000Y-76200001D01*
X140422619Y-76247620D01*
X140517857Y-76295239D01*
X140660714Y-76295239D01*
X140755952Y-76247620D01*
X140803571Y-76200001D01*
X140851190Y-76104763D01*
X140851190Y-75723810D01*
X141327381Y-77200001D02*
X141327381Y-76723810D01*
X140327381Y-76723810D01*
X141327381Y-77533334D02*
X140327381Y-77533334D01*
X140803571Y-78342858D02*
X140803571Y-78009524D01*
X141327381Y-78009524D02*
X140327381Y-78009524D01*
X140327381Y-78485715D01*
X141327381Y-78866667D02*
X140327381Y-78866667D01*
X140803571Y-79342857D02*
X140803571Y-79676191D01*
X141327381Y-79819048D02*
X141327381Y-79342857D01*
X140327381Y-79342857D01*
X140327381Y-79819048D01*
X141327381Y-80247619D02*
X140327381Y-80247619D01*
X140327381Y-80485714D01*
X140375000Y-80628572D01*
X140470238Y-80723810D01*
X140565476Y-80771429D01*
X140755952Y-80819048D01*
X140898810Y-80819048D01*
X141089286Y-80771429D01*
X141184524Y-80723810D01*
X141279762Y-80628572D01*
X141327381Y-80485714D01*
X141327381Y-80247619D01*
X142977381Y-74223810D02*
X141977381Y-74223810D01*
X142977381Y-74795239D01*
X141977381Y-74795239D01*
X141977381Y-75461905D02*
X141977381Y-75652382D01*
X142025000Y-75747620D01*
X142120238Y-75842858D01*
X142310714Y-75890477D01*
X142644048Y-75890477D01*
X142834524Y-75842858D01*
X142929762Y-75747620D01*
X142977381Y-75652382D01*
X142977381Y-75461905D01*
X142929762Y-75366667D01*
X142834524Y-75271429D01*
X142644048Y-75223810D01*
X142310714Y-75223810D01*
X142120238Y-75271429D01*
X142025000Y-75366667D01*
X141977381Y-75461905D01*
X142977381Y-76319048D02*
X141977381Y-76319048D01*
X142929762Y-76747619D02*
X142977381Y-76890476D01*
X142977381Y-77128572D01*
X142929762Y-77223810D01*
X142882143Y-77271429D01*
X142786905Y-77319048D01*
X142691667Y-77319048D01*
X142596429Y-77271429D01*
X142548810Y-77223810D01*
X142501190Y-77128572D01*
X142453571Y-76938095D01*
X142405952Y-76842857D01*
X142358333Y-76795238D01*
X142263095Y-76747619D01*
X142167857Y-76747619D01*
X142072619Y-76795238D01*
X142025000Y-76842857D01*
X141977381Y-76938095D01*
X141977381Y-77176191D01*
X142025000Y-77319048D01*
X142453571Y-77747619D02*
X142453571Y-78080953D01*
X142977381Y-78223810D02*
X142977381Y-77747619D01*
X141977381Y-77747619D01*
X141977381Y-78223810D01*
X144579762Y-73414286D02*
X144627381Y-73557143D01*
X144627381Y-73795239D01*
X144579762Y-73890477D01*
X144532143Y-73938096D01*
X144436905Y-73985715D01*
X144341667Y-73985715D01*
X144246429Y-73938096D01*
X144198810Y-73890477D01*
X144151190Y-73795239D01*
X144103571Y-73604762D01*
X144055952Y-73509524D01*
X144008333Y-73461905D01*
X143913095Y-73414286D01*
X143817857Y-73414286D01*
X143722619Y-73461905D01*
X143675000Y-73509524D01*
X143627381Y-73604762D01*
X143627381Y-73842858D01*
X143675000Y-73985715D01*
X143627381Y-74604762D02*
X143627381Y-74795239D01*
X143675000Y-74890477D01*
X143770238Y-74985715D01*
X143960714Y-75033334D01*
X144294048Y-75033334D01*
X144484524Y-74985715D01*
X144579762Y-74890477D01*
X144627381Y-74795239D01*
X144627381Y-74604762D01*
X144579762Y-74509524D01*
X144484524Y-74414286D01*
X144294048Y-74366667D01*
X143960714Y-74366667D01*
X143770238Y-74414286D01*
X143675000Y-74509524D01*
X143627381Y-74604762D01*
X143627381Y-75461905D02*
X144436905Y-75461905D01*
X144532143Y-75509524D01*
X144579762Y-75557143D01*
X144627381Y-75652381D01*
X144627381Y-75842858D01*
X144579762Y-75938096D01*
X144532143Y-75985715D01*
X144436905Y-76033334D01*
X143627381Y-76033334D01*
X144627381Y-77080953D02*
X144151190Y-76747619D01*
X144627381Y-76509524D02*
X143627381Y-76509524D01*
X143627381Y-76890477D01*
X143675000Y-76985715D01*
X143722619Y-77033334D01*
X143817857Y-77080953D01*
X143960714Y-77080953D01*
X144055952Y-77033334D01*
X144103571Y-76985715D01*
X144151190Y-76890477D01*
X144151190Y-76509524D01*
X144532143Y-78080953D02*
X144579762Y-78033334D01*
X144627381Y-77890477D01*
X144627381Y-77795239D01*
X144579762Y-77652381D01*
X144484524Y-77557143D01*
X144389286Y-77509524D01*
X144198810Y-77461905D01*
X144055952Y-77461905D01*
X143865476Y-77509524D01*
X143770238Y-77557143D01*
X143675000Y-77652381D01*
X143627381Y-77795239D01*
X143627381Y-77890477D01*
X143675000Y-78033334D01*
X143722619Y-78080953D01*
X144103571Y-78509524D02*
X144103571Y-78842858D01*
X144627381Y-78985715D02*
X144627381Y-78509524D01*
X143627381Y-78509524D01*
X143627381Y-78985715D01*
X143703571Y-54300000D02*
X143703571Y-54633334D01*
X144227381Y-54776191D02*
X144227381Y-54300000D01*
X143227381Y-54300000D01*
X143227381Y-54776191D01*
X144227381Y-55204762D02*
X143227381Y-55204762D01*
X144227381Y-55776191D01*
X143227381Y-55776191D01*
X143227381Y-56109524D02*
X144227381Y-56442857D01*
X143227381Y-56776191D01*
X143703571Y-57109524D02*
X143703571Y-57442858D01*
X144227381Y-57585715D02*
X144227381Y-57109524D01*
X143227381Y-57109524D01*
X143227381Y-57585715D01*
X144227381Y-58490477D02*
X144227381Y-58014286D01*
X143227381Y-58014286D01*
X143227381Y-59014286D02*
X143227381Y-59204763D01*
X143275000Y-59300001D01*
X143370238Y-59395239D01*
X143560714Y-59442858D01*
X143894048Y-59442858D01*
X144084524Y-59395239D01*
X144179762Y-59300001D01*
X144227381Y-59204763D01*
X144227381Y-59014286D01*
X144179762Y-58919048D01*
X144084524Y-58823810D01*
X143894048Y-58776191D01*
X143560714Y-58776191D01*
X143370238Y-58823810D01*
X143275000Y-58919048D01*
X143227381Y-59014286D01*
X144227381Y-59871429D02*
X143227381Y-59871429D01*
X143227381Y-60252382D01*
X143275000Y-60347620D01*
X143322619Y-60395239D01*
X143417857Y-60442858D01*
X143560714Y-60442858D01*
X143655952Y-60395239D01*
X143703571Y-60347620D01*
X143751190Y-60252382D01*
X143751190Y-59871429D01*
X143703571Y-60871429D02*
X143703571Y-61204763D01*
X144227381Y-61347620D02*
X144227381Y-60871429D01*
X143227381Y-60871429D01*
X143227381Y-61347620D01*
X144877381Y-56800000D02*
X144877381Y-56990477D01*
X144925000Y-57085715D01*
X145020238Y-57180953D01*
X145210714Y-57228572D01*
X145544048Y-57228572D01*
X145734524Y-57180953D01*
X145829762Y-57085715D01*
X145877381Y-56990477D01*
X145877381Y-56800000D01*
X145829762Y-56704762D01*
X145734524Y-56609524D01*
X145544048Y-56561905D01*
X145210714Y-56561905D01*
X145020238Y-56609524D01*
X144925000Y-56704762D01*
X144877381Y-56800000D01*
X144877381Y-57657143D02*
X145686905Y-57657143D01*
X145782143Y-57704762D01*
X145829762Y-57752381D01*
X145877381Y-57847619D01*
X145877381Y-58038096D01*
X145829762Y-58133334D01*
X145782143Y-58180953D01*
X145686905Y-58228572D01*
X144877381Y-58228572D01*
X144877381Y-58561905D02*
X144877381Y-59133334D01*
X145877381Y-58847619D02*
X144877381Y-58847619D01*
X142716667Y-38452381D02*
X142716667Y-38928572D01*
X143002381Y-38357143D02*
X142002381Y-38690476D01*
X143002381Y-39023810D01*
X142907143Y-39928572D02*
X142954762Y-39880953D01*
X143002381Y-39738096D01*
X143002381Y-39642858D01*
X142954762Y-39500000D01*
X142859524Y-39404762D01*
X142764286Y-39357143D01*
X142573810Y-39309524D01*
X142430952Y-39309524D01*
X142240476Y-39357143D01*
X142145238Y-39404762D01*
X142050000Y-39500000D01*
X142002381Y-39642858D01*
X142002381Y-39738096D01*
X142050000Y-39880953D01*
X142097619Y-39928572D01*
X142002381Y-40214286D02*
X142002381Y-40785715D01*
X143002381Y-40500000D02*
X142002381Y-40500000D01*
X143002381Y-41119048D02*
X142002381Y-41119048D01*
X142002381Y-41452381D02*
X143002381Y-41785714D01*
X142002381Y-42119048D01*
X142478571Y-42452381D02*
X142478571Y-42785715D01*
X143002381Y-42928572D02*
X143002381Y-42452381D01*
X142002381Y-42452381D01*
X142002381Y-42928572D01*
X143002381Y-44690477D02*
X142526190Y-44357143D01*
X143002381Y-44119048D02*
X142002381Y-44119048D01*
X142002381Y-44500001D01*
X142050000Y-44595239D01*
X142097619Y-44642858D01*
X142192857Y-44690477D01*
X142335714Y-44690477D01*
X142430952Y-44642858D01*
X142478571Y-44595239D01*
X142526190Y-44500001D01*
X142526190Y-44119048D01*
X142478571Y-45452382D02*
X142478571Y-45119048D01*
X143002381Y-45119048D02*
X142002381Y-45119048D01*
X142002381Y-45595239D01*
X144652381Y-39761905D02*
X143652381Y-39761905D01*
X143652381Y-40142858D01*
X143700000Y-40238096D01*
X143747619Y-40285715D01*
X143842857Y-40333334D01*
X143985714Y-40333334D01*
X144080952Y-40285715D01*
X144128571Y-40238096D01*
X144176190Y-40142858D01*
X144176190Y-39761905D01*
X144652381Y-41333334D02*
X144176190Y-41000000D01*
X144652381Y-40761905D02*
X143652381Y-40761905D01*
X143652381Y-41142858D01*
X143700000Y-41238096D01*
X143747619Y-41285715D01*
X143842857Y-41333334D01*
X143985714Y-41333334D01*
X144080952Y-41285715D01*
X144128571Y-41238096D01*
X144176190Y-41142858D01*
X144176190Y-40761905D01*
X143652381Y-41952381D02*
X143652381Y-42142858D01*
X143700000Y-42238096D01*
X143795238Y-42333334D01*
X143985714Y-42380953D01*
X144319048Y-42380953D01*
X144509524Y-42333334D01*
X144604762Y-42238096D01*
X144652381Y-42142858D01*
X144652381Y-41952381D01*
X144604762Y-41857143D01*
X144509524Y-41761905D01*
X144319048Y-41714286D01*
X143985714Y-41714286D01*
X143795238Y-41761905D01*
X143700000Y-41857143D01*
X143652381Y-41952381D01*
X144128571Y-43142858D02*
X144176190Y-43285715D01*
X144223810Y-43333334D01*
X144319048Y-43380953D01*
X144461905Y-43380953D01*
X144557143Y-43333334D01*
X144604762Y-43285715D01*
X144652381Y-43190477D01*
X144652381Y-42809524D01*
X143652381Y-42809524D01*
X143652381Y-43142858D01*
X143700000Y-43238096D01*
X143747619Y-43285715D01*
X143842857Y-43333334D01*
X143938095Y-43333334D01*
X144033333Y-43285715D01*
X144080952Y-43238096D01*
X144128571Y-43142858D01*
X144128571Y-42809524D01*
X144128571Y-43809524D02*
X144128571Y-44142858D01*
X144652381Y-44285715D02*
X144652381Y-43809524D01*
X143652381Y-43809524D01*
X143652381Y-44285715D01*
X145302381Y-41000000D02*
X145302381Y-41190477D01*
X145350000Y-41285715D01*
X145445238Y-41380953D01*
X145635714Y-41428572D01*
X145969048Y-41428572D01*
X146159524Y-41380953D01*
X146254762Y-41285715D01*
X146302381Y-41190477D01*
X146302381Y-41000000D01*
X146254762Y-40904762D01*
X146159524Y-40809524D01*
X145969048Y-40761905D01*
X145635714Y-40761905D01*
X145445238Y-40809524D01*
X145350000Y-40904762D01*
X145302381Y-41000000D01*
X145302381Y-41857143D02*
X146111905Y-41857143D01*
X146207143Y-41904762D01*
X146254762Y-41952381D01*
X146302381Y-42047619D01*
X146302381Y-42238096D01*
X146254762Y-42333334D01*
X146207143Y-42380953D01*
X146111905Y-42428572D01*
X145302381Y-42428572D01*
X145302381Y-42761905D02*
X145302381Y-43333334D01*
X146302381Y-43047619D02*
X145302381Y-43047619D01*
X143257143Y-36604762D02*
X143114286Y-36652381D01*
X142876190Y-36652381D01*
X142780952Y-36604762D01*
X142733333Y-36557143D01*
X142685714Y-36461905D01*
X142685714Y-36366667D01*
X142733333Y-36271429D01*
X142780952Y-36223810D01*
X142876190Y-36176190D01*
X143066667Y-36128571D01*
X143161905Y-36080952D01*
X143209524Y-36033333D01*
X143257143Y-35938095D01*
X143257143Y-35842857D01*
X143209524Y-35747619D01*
X143161905Y-35700000D01*
X143066667Y-35652381D01*
X142828571Y-35652381D01*
X142685714Y-35700000D01*
X142352381Y-35652381D02*
X142114286Y-36652381D01*
X141923809Y-35938095D01*
X141733333Y-36652381D01*
X141495238Y-35652381D01*
X146857143Y-36404762D02*
X146714286Y-36452381D01*
X146476190Y-36452381D01*
X146380952Y-36404762D01*
X146333333Y-36357143D01*
X146285714Y-36261905D01*
X146285714Y-36166667D01*
X146333333Y-36071429D01*
X146380952Y-36023810D01*
X146476190Y-35976190D01*
X146666667Y-35928571D01*
X146761905Y-35880952D01*
X146809524Y-35833333D01*
X146857143Y-35738095D01*
X146857143Y-35642857D01*
X146809524Y-35547619D01*
X146761905Y-35500000D01*
X146666667Y-35452381D01*
X146428571Y-35452381D01*
X146285714Y-35500000D01*
X145952381Y-35452381D02*
X145714286Y-36452381D01*
X145523809Y-35738095D01*
X145333333Y-36452381D01*
X145095238Y-35452381D01*
X154757142Y-35928571D02*
X154614285Y-35976190D01*
X154566666Y-36023810D01*
X154519047Y-36119048D01*
X154519047Y-36261905D01*
X154566666Y-36357143D01*
X154614285Y-36404762D01*
X154709523Y-36452381D01*
X155090476Y-36452381D01*
X155090476Y-35452381D01*
X154757142Y-35452381D01*
X154661904Y-35500000D01*
X154614285Y-35547619D01*
X154566666Y-35642857D01*
X154566666Y-35738095D01*
X154614285Y-35833333D01*
X154661904Y-35880952D01*
X154757142Y-35928571D01*
X155090476Y-35928571D01*
X154138095Y-36166667D02*
X153661904Y-36166667D01*
X154233333Y-36452381D02*
X153900000Y-35452381D01*
X153566666Y-36452381D01*
X153376190Y-35452381D02*
X152804761Y-35452381D01*
X153090476Y-36452381D02*
X153090476Y-35452381D01*
X152471428Y-36071429D02*
X151709523Y-36071429D01*
X150557142Y-35928571D02*
X150414285Y-35976190D01*
X150366666Y-36023810D01*
X150319047Y-36119048D01*
X150319047Y-36261905D01*
X150366666Y-36357143D01*
X150414285Y-36404762D01*
X150509523Y-36452381D01*
X150890476Y-36452381D01*
X150890476Y-35452381D01*
X150557142Y-35452381D01*
X150461904Y-35500000D01*
X150414285Y-35547619D01*
X150366666Y-35642857D01*
X150366666Y-35738095D01*
X150414285Y-35833333D01*
X150461904Y-35880952D01*
X150557142Y-35928571D01*
X150890476Y-35928571D01*
X149938095Y-36166667D02*
X149461904Y-36166667D01*
X150033333Y-36452381D02*
X149700000Y-35452381D01*
X149366666Y-36452381D01*
X149176190Y-35452381D02*
X148604761Y-35452381D01*
X148890476Y-36452381D02*
X148890476Y-35452381D01*
X148271428Y-36071429D02*
X147509523Y-36071429D01*
X147890475Y-36452381D02*
X147890475Y-35690476D01*
M02*
