M48
;DRILL file {KiCad 4.0.7} date 05/11/20 23:09:26
;FORMAT={-:-/ absolute / metric / decimal}
FMAT,2
METRIC,TZ
T1C1.000
T2C2.000
T3C3.000
%
G90
G05
M71
T1
X58.5Y-62.75G85X62.5Y-62.75
G05
X64.75Y-62.75G85X68.75Y-62.75
G05
X66.05Y-26.3G85X69.55Y-26.3
G05
X66.45Y-23.5G85X69.95Y-23.5
G05
X71.Y-62.75G85X75.Y-62.75
G05
X77.5Y-62.75G85X81.5Y-62.75
G05
X84.Y-62.75G85X88.Y-62.75
G05
X90.5Y-35.5G85X90.5Y-31.5
G05
X90.5Y-42.G85X90.5Y-38.
G05
X90.5Y-48.25G85X90.5Y-44.25
G05
X90.5Y-53.75G85X90.5Y-50.25
G05
X90.5Y-59.5G85X90.5Y-55.5
G05
X90.5Y-65.75G85X90.5Y-61.75
G05
X90.5Y-72.G85X90.5Y-68.
G05
X90.5Y-78.G85X90.5Y-74.
G05
X90.5Y-84.G85X90.5Y-80.
G05
X90.5Y-90.G85X90.5Y-86.
G05
X90.5Y-96.G85X90.5Y-92.
G05
X90.5Y-102.G85X90.5Y-98.
G05
X90.5Y-108.25G85X90.5Y-104.25
G05
X90.5Y-114.25G85X90.5Y-110.25
G05
X90.5Y-120.25G85X90.5Y-116.25
G05
X90.5Y-126.25G85X90.5Y-122.25
G05
X90.5Y-131.75G85X90.5Y-127.75
G05
X92.488Y-100.584G85X96.488Y-100.584
G05
X93.Y-62.75G85X97.Y-62.75
G05
X100.584Y-102.362G85X100.584Y-102.362
G05
X100.584Y-107.414G85X100.584Y-103.914
G05
X100.584Y-113.252G85X100.584Y-109.252
G05
X100.584Y-118.59G85X100.584Y-115.09
G05
X100.584Y-124.428G85X100.584Y-120.428
G05
X100.584Y-130.27G85X100.584Y-126.27
G05
X100.584Y-131.826G85X100.584Y-131.826
G05
X98.75Y-100.5G85X102.75Y-100.5
G05
X101.5Y-61.G85X101.5Y-58.
G05
X99.5Y-62.75G85X103.5Y-62.75
G05
X101.6Y-31.242G85X101.6Y-31.242
G05
X101.6Y-37.052G85X101.6Y-33.052
G05
X101.6Y-38.608G85X101.6Y-38.608
G05
X101.6Y-44.164G85X101.6Y-40.164
G05
X101.6Y-50.26G85X101.6Y-46.26
G05
X101.6Y-56.102G85X101.6Y-52.102
G05
X102.394Y-109.474G85X106.394Y-109.474
G05
X102.394Y-129.286G85X106.394Y-129.286
G05
X103.156Y-36.83G85X107.156Y-36.83
G05
X103.41Y-33.02G85X107.41Y-33.02
G05
X103.41Y-40.132G85X107.41Y-40.132
G05
X103.664Y-43.942G85X107.664Y-43.942
G05
X105.5Y-100.5G85X109.5Y-100.5
G05
X105.75Y-62.75G85X109.75Y-62.75
G05
X108.236Y-109.474G85X112.236Y-109.474
G05
X108.236Y-129.286G85X112.236Y-129.286
G05
X109.252Y-36.83G85X113.252Y-36.83
G05
X109.252Y-40.132G85X113.252Y-40.132
G05
X109.506Y-33.02G85X113.506Y-33.02
G05
X109.506Y-43.942G85X113.506Y-43.942
G05
X112.522Y-102.108G85X112.522Y-102.108
G05
X112.522Y-107.664G85X112.522Y-103.664
G05
X112.522Y-131.818G85X112.522Y-130.818
G05
X113.75Y-61.G85X113.75Y-58.
G05
X113.792Y-31.242G85X113.792Y-31.242
G05
X113.792Y-49.752G85X113.792Y-45.752
G05
X113.792Y-55.848G85X113.792Y-51.848
G05
X113.875Y-38.725G85X113.875Y-38.225
G05
X112.Y-100.5G85X116.Y-100.5
G05
X112.25Y-62.75G85X116.25Y-62.75
G05
X116.Y-47.75G85X120.Y-47.75
G05
X118.5Y-62.75G85X122.5Y-62.75
G05
X118.5Y-100.5G85X122.5Y-100.5
G05
X122.25Y-47.75G85X126.25Y-47.75
G05
X125.Y-100.5G85X129.Y-100.5
G05
X125.25Y-62.75G85X129.25Y-62.75
G05
X128.25Y-47.75G85X132.25Y-47.75
G05
X131.5Y-100.5G85X135.5Y-100.5
G05
X131.75Y-62.75G85X135.75Y-62.75
G05
X134.5Y-47.75G85X138.5Y-47.75
G05
X138.Y-100.5G85X142.Y-100.5
G05
X138.25Y-62.75G85X142.25Y-62.75
G05
X140.75Y-47.75G85X144.75Y-47.75
G05
X144.5Y-100.5G85X148.5Y-100.5
G05
X145.Y-62.75G85X149.Y-62.75
G05
X147.75Y-47.5G85X150.25Y-47.5
G05
X151.Y-100.5G85X155.Y-100.5
G05
X151.5Y-62.75G85X155.5Y-62.75
G05
X152.75Y-47.5G85X155.25Y-47.5
G05
T2
X102.64Y-114.046G85X105.64Y-114.046
G05
X102.894Y-124.714G85X105.894Y-124.714
G05
X108.482Y-114.046G85X111.482Y-114.046
G05
X108.736Y-124.714G85X111.736Y-124.714
G05
X130.58Y-103.378G85X133.58Y-103.378
G05
X130.58Y-129.286G85X133.58Y-129.286
G05
X131.342Y-45.212G85X134.342Y-45.212
G05
X131.596Y-32.004G85X134.596Y-32.004
G05
T3
X103.14Y-119.38G85X105.14Y-119.38
G05
X108.982Y-119.38G85X110.982Y-119.38
G05
T0
M30
