M48
;DRILL file {KiCad 4.0.7} date 07/12/20 19:06:18
;FORMAT={-:-/ absolute / metric / decimal}
FMAT,2
METRIC,TZ
T1C0.400
T2C1.000
T3C1.200
T4C1.250
%
G90
G05
M71
T1
X58.Y-53.45
X58.1Y-91.275
X58.1Y-102.7
X58.125Y-64.575
X58.175Y-114.575
X58.375Y-125.7
X59.575Y-91.325
X59.6Y-107.525
X59.65Y-102.75
X59.675Y-114.575
X59.825Y-64.525
X59.875Y-125.875
X60.3Y-87.65
X60.725Y-53.45
X60.825Y-106.15
X61.075Y-102.55
X61.375Y-64.65
X61.4Y-91.15
X61.6Y-114.55
X61.625Y-108.975
X61.95Y-53.575
X62.Y-125.825
X62.425Y-94.95
X63.425Y-60.725
X63.55Y-63.275
X63.55Y-95.6
X63.85Y-107.325
X64.105Y-64.18
X64.3Y-55.175
X64.35Y-93.125
X64.775Y-55.925
X64.9Y-62.475
X66.3Y-107.425
X66.325Y-108.55
X66.55Y-55.975
X66.705Y-63.98
X66.775Y-91.45
X67.Y-96.35
X67.2Y-99.05
X68.1Y-64.05
X68.3Y-99.025
X69.325Y-56.075
X69.875Y-64.05
X71.375Y-113.15
X71.6Y-56.025
X71.7Y-54.425
X72.7Y-51.75
X72.725Y-85.55
X72.875Y-64.125
X72.9Y-49.675
X73.Y-114.225
X73.05Y-121.2
X73.09Y-48.13
X73.1Y-112.05
X73.2Y-98.525
X73.375Y-97.425
X73.4Y-118.85
X73.6Y-37.1
X73.9Y-34.4
X74.175Y-99.8
X74.575Y-120.05
X74.6Y-35.8
X74.71Y-40.4
X74.75Y-64.225
X74.83Y-45.01
X74.98Y-43.41
X75.4Y-59.1
X75.6Y-57.8
X75.675Y-49.8
X75.71Y-64.235
X75.825Y-47.95
X75.875Y-87.025
X76.1Y-89.125
X76.24Y-40.4
X76.45Y-96.65
X76.5Y-56.15
X76.73Y-33.28
X76.95Y-95.575
X76.96Y-36.63
X77.Y-34.99
X77.075Y-89.2
X77.11Y-43.22
X77.3Y-97.75
X77.6Y-58.5
X77.8Y-37.9
X77.8Y-54.25
X78.025Y-64.015
X78.1Y-40.7
X78.375Y-48.925
X78.475Y-47.65
X78.85Y-97.125
X78.9Y-42.9
X78.95Y-54.25
X79.1Y-39.9
X79.55Y-63.53
X79.55Y-85.675
X80.5Y-38.8
X80.6Y-41.6
X81.12Y-63.43
X81.5Y-46.
X82.075Y-85.85
X82.15Y-110.75
X82.275Y-106.75
X82.3Y-49.02
X82.33Y-49.98
X82.425Y-122.875
X82.8Y-51.32
X82.9Y-105.6
X83.025Y-112.05
X83.45Y-120.425
X83.7Y-56.9
X84.Y-51.3
X84.05Y-99.4
X84.44Y-63.26
X84.45Y-107.725
X84.5Y-122.
X84.6Y-101.9
X84.65Y-110.675
X85.Y-58.8
X85.12Y-51.66
X85.2Y-99.475
X85.65Y-37.95
X86.06Y-51.54
X86.875Y-123.875
X86.97Y-38.03
X86.97Y-63.39
X87.8Y-46.2
X88.05Y-122.4
X88.25Y-41.93
X88.47Y-40.57
X88.68Y-63.31
X88.7Y-38.23
X88.7Y-56.1
X88.9Y-53.3
X89.Y-48.3
X89.1Y-123.775
X89.6Y-62.6
X89.9Y-54.8
X90.Y-56.1
X90.Y-57.4
X90.Y-59.1
X90.03Y-46.32
X90.09Y-43.96
X90.1Y-52.9
X90.11Y-48.98
X90.2Y-50.9
X90.2Y-61.1
X93.8Y-68.7
X94.3Y-86.3
X94.5Y-89.3
X94.5Y-94.1
X94.6Y-97.3
X95.5Y-67.3
X96.1Y-72.
X96.2Y-84.
X96.4Y-74.4
X96.5Y-99.7
X96.8Y-81.9
X100.5Y-99.9
X101.5Y-67.
X102.8Y-67.
X104.6Y-99.9
X105.4Y-95.5
X105.5Y-97.3
X106.9Y-66.8
X108.1Y-96.7
X108.1Y-99.7
X108.8Y-91.8
X109.4Y-86.8
X109.4Y-88.9
X109.9Y-91.9
X110.6Y-66.9
X110.7Y-92.4
X110.8Y-90.3
X111.1Y-86.
X111.6Y-87.6
X111.6Y-88.5
X111.6Y-89.9
X112.Y-99.5
X112.1Y-93.3
X112.4Y-91.9
X114.2Y-126.2
X114.6Y-66.9
X114.8Y-127.2
X114.9Y-116.1
X115.5Y-99.5
X115.9Y-83.5
X116.2Y-127.65
X116.3Y-86.2
X116.3Y-116.
X116.7Y-126.1
X117.Y-83.5
X117.3Y-120.4
X117.4Y-109.7
X117.4Y-115.1
X117.6Y-46.5
X117.6Y-119.2
X117.99Y-127.73
X118.2Y-110.9
X118.6Y-121.9
X119.2Y-99.8
X119.4Y-48.2
X119.8Y-32.8
X119.86Y-128.3
X120.Y-80.7
X120.Y-109.5
X120.1Y-34.2
X120.1Y-86.9
X120.1Y-122.2
X120.3Y-66.9
X120.658Y-85.042
X120.72Y-48.3
X120.9Y-89.7
X120.92Y-128.87
X121.Y-119.7
X121.01Y-106.49
X121.1Y-39.4
X121.2Y-92.8
X121.3Y-93.9
X121.4Y-77.4
X121.5Y-86.9
X121.6Y-48.6
X121.62Y-104.88
X121.8Y-120.9
X122.24Y-46.01
X122.35Y-85.13
X122.69Y-108.426
X122.7Y-39.4
X122.7Y-79.4
X122.725Y-104.7
X123.1Y-38.2
X123.11Y-86.07
X123.255Y-32.645
X123.3Y-99.7
X123.35Y-129.1
X123.73Y-47.43
X123.8Y-93.2
X123.9Y-108.9
X124.025Y-104.475
X124.07Y-48.74
X124.1Y-106.6
X124.16Y-87.16
X124.5Y-66.6
X124.8Y-77.8
X126.Y-48.76
X126.005Y-32.605
X126.49Y-86.8
X126.8Y-99.3
X127.375Y-104.45
X127.98Y-48.65
X128.35Y-95.1
X128.4Y-32.7
X128.4Y-47.4
X129.625Y-104.975
X129.7Y-66.8
X129.875Y-128.35
X129.92Y-48.65
X130.05Y-96.35
X130.25Y-32.65
X130.5Y-99.7
X130.7Y-46.8
X130.7Y-47.8
X131.05Y-95.75
X131.3Y-71.7
X131.625Y-105.075
X131.72Y-48.71
X132.1Y-90.65
X132.15Y-88.1
X132.3Y-80.8
X132.45Y-32.7
X132.7Y-128.4
X133.3Y-119.5
X133.604Y-41.116
X133.75Y-89.5
X133.858Y-38.576
X134.05Y-48.59
X134.1Y-71.7
X134.3Y-67.
X134.3Y-120.5
X134.475Y-127.25
X134.874Y-39.846
X134.9Y-99.5
X135.Y-32.71
X135.1Y-119.3
X135.58Y-48.53
X136.15Y-46.12
X136.35Y-106.9
X136.406Y-120.364
X136.75Y-47.83
X136.875Y-127.775
X137.025Y-108.025
X137.525Y-32.6
X137.676Y-121.634
X138.184Y-117.57
X138.184Y-119.856
X138.35Y-108.025
X138.67Y-46.47
X138.7Y-67.
X138.9Y-99.6
X139.375Y-32.575
X139.454Y-116.554
X140.025Y-128.15
X140.57Y-36.76
X140.58Y-39.16
X140.724Y-118.078
X140.875Y-105.275
X141.Y-124.95
X141.12Y-32.56
X141.35Y-48.25
X141.478Y-36.798
X141.65Y-41.6
X141.7Y-87.
X142.1Y-124.8
X142.5Y-67.
X142.7Y-119.3
X142.8Y-99.4
X142.85Y-105.525
X142.85Y-128.275
X142.9Y-85.65
X143.Y-126.
X143.1Y-96.
X143.58Y-41.83
X143.8Y-75.3
X143.8Y-118.6
X144.4Y-97.15
X144.6Y-75.9
X144.6Y-88.95
X144.67Y-32.67
X144.7Y-105.5
X144.788Y-107.918
X145.05Y-48.14
X145.3Y-67.1
X145.35Y-128.275
X145.4Y-121.
X145.5Y-79.
X145.67Y-55.85
X145.85Y-40.
X145.85Y-95.75
X145.9Y-90.8
X145.9Y-98.9
X146.Y-88.
X146.058Y-109.442
X146.3Y-78.6
X146.312Y-106.902
X146.5Y-85.7
X146.6Y-105.525
X146.9Y-84.9
X146.99Y-48.1
X147.09Y-41.12
X147.328Y-108.172
X147.4Y-97.7
X148.1Y-88.75
X148.13Y-32.75
X148.25Y-36.71
X148.55Y-50.6
X148.7Y-39.6
X148.78Y-47.95
X149.1Y-67.2
X149.106Y-109.442
X149.3Y-90.6
X149.3Y-96.9
X149.4Y-87.85
X149.6Y-105.45
X149.675Y-40.925
X149.868Y-106.902
X150.122Y-108.172
X150.62Y-47.74
X151.2Y-39.62
X151.22Y-32.56
X151.25Y-129.125
X151.32Y-50.65
X151.5Y-67.1
X151.625Y-105.7
X152.7Y-84.5
X153.Y-106.5
X153.67Y-32.54
X153.725Y-129.25
X153.8Y-67.1
X153.8Y-84.6
X155.38Y-122.51
X155.42Y-119.06
X155.42Y-120.75
X155.46Y-125.08
X155.475Y-129.05
X155.57Y-32.9
X155.57Y-127.76
X156.13Y-34.8
X156.13Y-36.31
T2
X58.275Y-111.725
X58.325Y-105.075
X63.025Y-105.125
X63.1Y-111.65
X97.3Y-87.1
X99.84Y-87.1
X102.38Y-87.1
T3
X97.6Y-91.3
X100.1Y-96.34
X102.6Y-91.3
X117.4Y-71.2
X117.4Y-76.2
X122.44Y-73.7
T4
X60.95Y-38.725
X61.Y-35.
X66.Y-35.
X66.05Y-38.7
X80.625Y-87.975
X80.775Y-94.1
X86.2Y-94.
X86.225Y-87.95
X103.386Y-113.506
X103.386Y-118.586
X103.386Y-124.174
X103.386Y-129.254
X104.825Y-33.875
X104.9Y-41.05
X142.325Y-34.3
X146.175Y-34.275
X148.598Y-122.396
X148.598Y-127.476
X149.825Y-34.325
X153.424Y-122.396
X153.424Y-127.476
X153.775Y-34.325
T2
X59.325Y-76.675G85X59.325Y-78.675
G05
X59.475Y-43.675G85X59.475Y-45.675
G05
X61.325Y-82.375G85X63.325Y-82.375
G05
X61.475Y-49.375G85X63.475Y-49.375
G05
X65.325Y-76.675G85X65.325Y-78.675
G05
X65.475Y-43.675G85X65.475Y-45.675
G05
X97.1Y-77.6G85X97.1Y-79.6
G05
X99.1Y-83.3G85X101.1Y-83.3
G05
X103.1Y-77.6G85X103.1Y-79.6
G05
T0
M30
